<?xml version="1.0" encoding="UTF-8"?>
<!DOCTYPE svg PUBLIC "-//W3C//DTD SVG 1.1//EN" "http://www.w3.org/Graphics/SVG/1.1/DTD/svg11.dtd">
<svg xmlns="http://www.w3.org/2000/svg" version="1.1" width="512px" height="512px" style="shape-rendering:geometricPrecision; text-rendering:geometricPrecision; image-rendering:optimizeQuality; fill-rule:evenodd; clip-rule:evenodd" xmlns:xlink="http://www.w3.org/1999/xlink">
<g><path style="opacity:0.987" fill="#000000" d="M 34.5,-0.5 C 181.833,-0.5 329.167,-0.5 476.5,-0.5C 494.5,4.83333 506.167,16.5 511.5,34.5C 511.5,144.167 511.5,253.833 511.5,363.5C 506.348,381.484 494.682,392.984 476.5,398C 428.833,398.333 381.167,398.667 333.5,399C 331.707,401.795 329.54,404.295 327,406.5C 326.667,438.5 326.333,470.5 326,502.5C 324.312,506.685 321.479,509.685 317.5,511.5C 313.5,511.5 309.5,511.5 305.5,511.5C 289.003,506.002 272.336,500.669 255.5,495.5C 238.664,500.669 221.997,506.002 205.5,511.5C 201.5,511.5 197.5,511.5 193.5,511.5C 189.521,509.685 186.688,506.685 185,502.5C 184.667,470.5 184.333,438.5 184,406.5C 181.46,404.295 179.293,401.795 177.5,399C 129.833,398.667 82.1667,398.333 34.5,398C 16.3183,392.984 4.65165,381.484 -0.5,363.5C -0.5,253.833 -0.5,144.167 -0.5,34.5C 4.83333,16.5 16.5,4.83333 34.5,-0.5 Z M 44.5,29.5 C 185.167,29.3333 325.834,29.5 466.5,30C 475.333,30.8333 480.167,35.6667 481,44.5C 481.667,147.5 481.667,250.5 481,353.5C 480.167,362.333 475.333,367.167 466.5,368C 426.833,368.667 387.167,368.667 347.5,368C 356.687,327.894 345.687,294.56 314.5,268C 284.087,246.548 251.42,242.548 216.5,256C 171.14,280.059 153.473,317.393 163.5,368C 123.833,368.667 84.1667,368.667 44.5,368C 35.6667,367.167 30.8333,362.333 30,353.5C 29.3333,250.5 29.3333,147.5 30,44.5C 31.0117,35.6566 35.8451,30.6566 44.5,29.5 Z M 254.5,278.5 C 288.921,281.09 310.421,299.09 319,332.5C 322.493,365.02 309.66,388.52 280.5,403C 242.84,414.78 214.674,403.28 196,368.5C 184.838,333.98 194.338,306.814 224.5,287C 234.025,281.985 244.025,279.152 254.5,278.5 Z M 214.5,430.5 C 241.833,441.167 269.167,441.167 296.5,430.5C 296.833,445.515 296.499,460.515 295.5,475.5C 282.366,471.009 269.032,467.343 255.5,464.5C 241.968,467.343 228.634,471.009 215.5,475.5C 214.501,460.515 214.167,445.515 214.5,430.5 Z"/></g>
<g><path style="opacity:0.959" fill="#000000" d="M 97.5,64.5 C 109.398,62.2703 116.565,66.937 119,78.5C 124.123,80.3941 128.79,83.0608 133,86.5C 138.954,97.3027 136.454,105.469 125.5,111C 122.5,111.667 119.5,111.667 116.5,111C 111.82,108.742 106.987,106.909 102,105.5C 95.8941,106.704 93.5607,110.371 95,116.5C 107.73,122.856 120.563,129.023 133.5,135C 149.27,150.524 152.437,168.357 143,188.5C 137.329,198.348 129.163,205.015 118.5,208.5C 117.992,217.928 112.992,222.595 103.5,222.5C 95.2002,222.528 90.2002,218.528 88.5,210.5C 77.0161,208.851 67.8494,203.518 61,194.5C 58.5,178.333 65.3333,171.5 81.5,174C 89.2037,180.031 97.8704,182.031 107.5,180C 116.844,175.63 119.178,168.963 114.5,160C 101.287,155.059 88.6207,149.059 76.5,142C 65.374,132.29 61.2074,120.124 64,105.5C 67.079,91.5949 75.2457,82.2616 88.5,77.5C 89.2895,71.5731 92.2895,67.2397 97.5,64.5 Z"/></g>
<g><path style="opacity:0.993" fill="#000000" d="M 185.5,64.5 C 269.501,64.3333 353.501,64.5 437.5,65C 446.475,70.1517 448.975,77.6517 445,87.5C 443.235,90.473 440.735,92.6396 437.5,94C 353.5,94.6667 269.5,94.6667 185.5,94C 176.525,88.8483 174.025,81.3483 178,71.5C 180.015,68.5883 182.515,66.255 185.5,64.5 Z"/></g>
<g><path style="opacity:0.993" fill="#000000" d="M 185.5,128.5 C 269.501,128.333 353.501,128.5 437.5,129C 446.475,134.152 448.975,141.652 445,151.5C 443.235,154.473 440.735,156.64 437.5,158C 353.5,158.667 269.5,158.667 185.5,158C 176.525,152.848 174.025,145.348 178,135.5C 180.015,132.588 182.515,130.255 185.5,128.5 Z"/></g>
<g><path style="opacity:0.989" fill="#000000" d="M 185.5,192.5 C 232.168,192.333 278.835,192.5 325.5,193C 333.915,197.348 336.748,204.181 334,213.5C 332.5,217.667 329.667,220.5 325.5,222C 278.833,222.667 232.167,222.667 185.5,222C 176.525,216.848 174.025,209.348 178,199.5C 180.015,196.588 182.515,194.255 185.5,192.5 Z"/></g>
<g><path style="opacity:0.969" fill="#000000" d="M 73.5,304.5 C 88.1705,304.333 102.837,304.5 117.5,305C 125.915,309.348 128.748,316.181 126,325.5C 124.5,329.667 121.667,332.5 117.5,334C 102.833,334.667 88.1667,334.667 73.5,334C 64.5253,328.848 62.0253,321.348 66,311.5C 68.0147,308.588 70.5147,306.255 73.5,304.5 Z"/></g>
<g><path style="opacity:0.969" fill="#000000" d="M 393.5,304.5 C 408.17,304.333 422.837,304.5 437.5,305C 445.915,309.348 448.748,316.181 446,325.5C 444.5,329.667 441.667,332.5 437.5,334C 422.833,334.667 408.167,334.667 393.5,334C 384.525,328.848 382.025,321.348 386,311.5C 388.015,308.588 390.515,306.255 393.5,304.5 Z"/></g>
<g><path style="opacity:0.958" fill="#000000" d="M 249.5,320.5 C 258.822,318.251 265.655,321.251 270,329.5C 270.667,338.833 270.667,348.167 270,357.5C 265.652,365.915 258.819,368.748 249.5,366C 245.333,364.5 242.5,361.667 241,357.5C 240.333,348.167 240.333,338.833 241,329.5C 242.688,325.315 245.521,322.315 249.5,320.5 Z"/></g>
</svg>
