<svg xmlns="http://www.w3.org/2000/svg" xmlns:xlink="http://www.w3.org/1999/xlink" width="64" height="64"><defs><clipPath id="i"><path d="M0 0h64v64H0z"/></clipPath><clipPath id="c"><path d="M0 0h64v64H0z"/></clipPath><clipPath id="d"><path d="M0 0h64v64H0z"/></clipPath><clipPath id="e"><path d="M0 0h64v64H0z"/></clipPath><clipPath id="b"><path d="M0 0h64v64H0z"/></clipPath><clipPath id="f"><path d="M0 0h64v64H0z"/></clipPath><clipPath id="g"><path d="M0 0h64v64H0z"/></clipPath><clipPath id="h"><path d="M0 0h64v64H0z"/></clipPath><mask id="o"><g filter="url(#a)"><path style="fill:#000;fill-opacity:.992157;stroke:none" d="M0 0h64v64H0z"/></g></mask><mask id="s"><g filter="url(#a)"><path style="fill:#000;fill-opacity:.988235;stroke:none" d="M0 0h64v64H0z"/></g></mask><mask id="m"><g filter="url(#a)"><path style="fill:#000;fill-opacity:.960784;stroke:none" d="M0 0h64v64H0z"/></g></mask><mask id="u"><g filter="url(#a)"><path style="fill:#000;fill-opacity:.968627;stroke:none" d="M0 0h64v64H0z"/></g></mask><mask id="q"><g filter="url(#a)"><path style="fill:#000;fill-opacity:.992157;stroke:none" d="M0 0h64v64H0z"/></g></mask><mask id="w"><g filter="url(#a)"><path style="fill:#000;fill-opacity:.968627;stroke:none" d="M0 0h64v64H0z"/></g></mask><mask id="k"><g filter="url(#a)"><path style="fill:#000;fill-opacity:.988235;stroke:none" d="M0 0h64v64H0z"/></g></mask><mask id="y"><g filter="url(#a)"><path style="fill:#000;fill-opacity:.956863;stroke:none" d="M0 0h64v64H0z"/></g></mask><g id="p" clip-path="url(#e)"><path style="stroke:none;fill-rule:evenodd;fill:#000;fill-opacity:1" d="M23.188 16.063c10.5-.02 21 0 31.5.062 1.12.645 1.433 1.582.937 2.813-.219.37-.531.64-.938.812-10.5.082-21 .082-31.5 0-1.12-.645-1.433-1.582-.937-2.813.25-.363.563-.656.938-.875Zm0 0"/></g><g id="j" clip-path="url(#b)"><path style="stroke:none;fill-rule:evenodd;fill:#000;fill-opacity:1" d="M4.313-.063h55.25c2.25.668 3.707 2.126 4.374 4.375v41.126c-.644 2.246-2.101 3.683-4.374 4.312-5.958.043-11.918.082-17.876.125a4.41 4.41 0 0 1-.812.938c-.043 4-.082 8-.125 12-.21.523-.566.898-1.063 1.124h-1.5a265.724 265.724 0 0 0-6.25-2 265.724 265.724 0 0 0-6.25 2h-1.5a2.018 2.018 0 0 1-1.062-1.124c-.043-4-.082-8-.125-12a4.41 4.41 0 0 1-.813-.938c-5.957-.043-11.917-.082-17.875-.125-2.273-.629-3.73-2.066-4.375-4.313V4.313C.606 2.063 2.063.604 4.313-.063Zm1.25 3.75c17.582-.019 35.167 0 52.75.063 1.105.105 1.707.707 1.812 1.813.082 12.875.082 25.75 0 38.624-.105 1.106-.707 1.708-1.813 1.813-4.957.082-9.917.082-14.874 0 1.148-5.012-.227-9.18-4.126-12.5-3.8-2.68-7.886-3.18-12.25-1.5-5.671 3.008-7.878 7.676-6.625 14-4.957.082-9.917.082-14.875 0-1.105-.105-1.707-.707-1.812-1.813-.082-12.874-.082-25.75 0-38.624.125-1.106.73-1.731 1.813-1.875Zm26.25 31.125c4.3.325 6.988 2.575 8.062 6.75.438 4.067-1.168 7.004-4.813 8.813-4.707 1.473-8.226.035-10.562-4.313-1.395-4.316-.207-7.71 3.563-10.187a9.238 9.238 0 0 1 3.75-1.063Zm-5 19c3.417 1.333 6.832 1.333 10.25 0 .042 1.876 0 3.75-.126 5.626a42.105 42.105 0 0 0-5-1.376c-1.69.356-3.359.813-5 1.376a62.869 62.869 0 0 1-.125-5.626Zm0 0"/></g><g id="t" clip-path="url(#g)"><path style="stroke:none;fill-rule:evenodd;fill:#000;fill-opacity:1" d="M9.188 38.063c1.832-.02 3.667 0 5.5.062 1.05.543 1.406 1.398 1.062 2.563a1.69 1.69 0 0 1-1.063 1.062 61.491 61.491 0 0 1-5.5 0c-1.12-.645-1.433-1.582-.937-2.813.25-.363.563-.656.938-.874Zm0 0"/></g><g id="n" clip-path="url(#d)"><path style="stroke:none;fill-rule:evenodd;fill:#000;fill-opacity:1" d="M23.188 8.063c10.5-.02 21 0 31.5.062 1.12.645 1.433 1.582.937 2.813-.219.37-.531.64-.938.812-10.5.082-21 .082-31.5 0-1.12-.645-1.433-1.582-.937-2.813.25-.363.563-.656.938-.874Zm0 0"/></g><g id="l" clip-path="url(#c)"><path style="stroke:none;fill-rule:evenodd;fill:#000;fill-opacity:1" d="M12.188 8.063c1.488-.278 2.382.304 2.687 1.75a6.13 6.13 0 0 1 1.75 1c.746 1.351.434 2.37-.938 3.062-.374.082-.75.082-1.124 0a11.159 11.159 0 0 0-1.813-.688c-.762.153-1.055.61-.875 1.376a175.68 175.68 0 0 0 4.813 2.312c1.972 1.941 2.367 4.168 1.187 6.688-.707 1.23-1.73 2.062-3.063 2.5-.062 1.18-.687 1.761-1.874 1.75-1.04.003-1.665-.497-1.876-1.5-1.433-.208-2.582-.872-3.437-2-.313-2.02.543-2.875 2.563-2.563.964.754 2.046 1.004 3.25.75 1.167-.547 1.46-1.379.874-2.5a30.896 30.896 0 0 1-4.75-2.25c-1.39-1.215-1.91-2.734-1.562-4.563.387-1.738 1.406-2.906 3.063-3.5.097-.742.472-1.28 1.124-1.624Zm0 0"/></g><g id="v" clip-path="url(#h)"><path style="stroke:none;fill-rule:evenodd;fill:#000;fill-opacity:1" d="M49.188 38.063c1.832-.02 3.667 0 5.5.062 1.05.543 1.406 1.398 1.062 2.563a1.69 1.69 0 0 1-1.063 1.062 61.491 61.491 0 0 1-5.5 0c-1.12-.645-1.433-1.582-.937-2.813.25-.363.563-.656.938-.874Zm0 0"/></g><g id="r" clip-path="url(#f)"><path style="stroke:none;fill-rule:evenodd;fill:#000;fill-opacity:1" d="M23.188 24.063c5.832-.02 11.667 0 17.5.062 1.05.543 1.406 1.398 1.062 2.563a1.69 1.69 0 0 1-1.063 1.062c-5.832.082-11.667.082-17.5 0-1.12-.645-1.433-1.582-.937-2.813.25-.363.563-.656.938-.875Zm0 0"/></g><g id="x" clip-path="url(#i)"><path style="stroke:none;fill-rule:evenodd;fill:#000;fill-opacity:1" d="M31.188 40.063c1.164-.282 2.019.093 2.562 1.124a24.92 24.92 0 0 1 0 3.5c-.543 1.051-1.398 1.407-2.563 1.063a1.69 1.69 0 0 1-1.062-1.063 24.92 24.92 0 0 1 0-3.5c.21-.523.566-.898 1.063-1.124Zm0 0"/></g><filter id="a" filterUnits="objectBoundingBox" x="0%" y="0%" width="100%" height="100%"><feColorMatrix in="SourceGraphic" values="0 0 0 0 1 0 0 0 0 1 0 0 0 0 1 0 0 0 1 0"/></filter></defs><use xlink:href="#j" mask="url(#k)"/><use xlink:href="#l" mask="url(#m)"/><use xlink:href="#n" mask="url(#o)"/><use xlink:href="#p" mask="url(#q)"/><use xlink:href="#r" mask="url(#s)"/><use xlink:href="#t" mask="url(#u)"/><use xlink:href="#v" mask="url(#w)"/><use xlink:href="#x" mask="url(#y)"/></svg>