<?xml version="1.0" encoding="UTF-8"?>
<!DOCTYPE svg PUBLIC "-//W3C//DTD SVG 1.1//EN" "http://www.w3.org/Graphics/SVG/1.1/DTD/svg11.dtd">
<svg xmlns="http://www.w3.org/2000/svg" version="1.1" width="512px" height="512px" style="shape-rendering:geometricPrecision; text-rendering:geometricPrecision; image-rendering:optimizeQuality; fill-rule:evenodd; clip-rule:evenodd" xmlns:xlink="http://www.w3.org/1999/xlink">
<g><path style="opacity:0.952" fill="#000000" d="M 511.5,301.5 C 511.5,304.833 511.5,308.167 511.5,311.5C 509.704,312.793 508.037,314.293 506.5,316C 496.13,319.401 485.796,322.901 475.5,326.5C 474.171,333.132 473.004,339.799 472,346.5C 470.833,349 469,350.833 466.5,352C 448.716,351.402 431.049,349.569 413.5,346.5C 303.881,382.762 194.214,418.929 84.5,455C 77.2636,457.299 72.0969,455.132 69,448.5C 52.6667,398.833 36.3333,349.167 20,299.5C 18.6482,297.568 16.8149,296.234 14.5,295.5C 13.1387,293.972 11.972,292.305 11,290.5C 11.2752,284.182 11.2752,277.849 11,271.5C 7.43138,260.289 3.59805,249.289 -0.5,238.5C -0.5,235.167 -0.5,231.833 -0.5,228.5C 0.363622,227.312 1.36362,226.145 2.5,225C 7.93768,222.633 13.4377,220.466 19,218.5C 25.2674,165.358 32.2674,112.358 40,59.5C 41.214,57.9512 42.714,56.7845 44.5,56C 48.8333,55.3333 53.1667,55.3333 57.5,56C 167.7,69.6478 277.867,83.4811 388,97.5C 402.407,92.5309 416.907,87.8642 431.5,83.5C 434.764,83.9741 437.598,85.3075 440,87.5C 442.367,92.9377 444.534,98.4377 446.5,104C 462.5,106.333 478.5,108.667 494.5,111C 497.381,112.251 499.214,114.417 500,117.5C 496.29,153.681 492.124,189.847 487.5,226C 487.667,227.833 487.833,229.667 488,231.5C 495.77,254.979 503.604,278.312 511.5,301.5 Z M 58.5,77.5 C 197.805,95.1631 337.138,112.83 476.5,130.5C 469.257,196.783 461.257,263.116 452.5,329.5C 312.796,312.412 173.129,295.079 33.5,277.5C 41.8333,210.833 50.1667,144.167 58.5,77.5 Z M 246.5,141.5 C 283.443,140.044 306.943,157.044 317,192.5C 320.719,224.9 307.885,248.067 278.5,262C 246.778,271.87 221.278,263.37 202,236.5C 186.422,205.699 191.256,178.532 216.5,155C 225.575,148.261 235.575,143.761 246.5,141.5 Z M 480.5,279.5 C 483.05,285.834 485.384,292.334 487.5,299C 484.258,300.639 480.924,301.639 477.5,302C 478.946,294.599 479.946,287.099 480.5,279.5 Z M 43.5,300.5 C 50.8298,301.5 58.1631,302.5 65.5,303.5C 75.7128,336.472 86.7128,369.139 98.5,401.5C 101.71,404.222 105.376,405.056 109.5,404C 138.982,394.395 168.316,384.395 197.5,374C 203.424,366.547 202.424,360.214 194.5,355C 192.167,354.333 189.833,354.333 187.5,355C 162.575,363.475 137.575,371.642 112.5,379.5C 105.035,355.105 97.3685,330.772 89.5,306.5C 100.193,307.67 110.859,309.003 121.5,310.5C 123.769,320.878 129.769,323.712 139.5,319C 140.727,315.668 143.06,313.835 146.5,313.5C 159.886,315.007 173.22,316.84 186.5,319C 210.419,348.752 241.086,359.419 278.5,351C 289.837,347.499 300.171,342.165 309.5,335C 326.95,335.848 344.284,337.848 361.5,341C 269.91,370.975 178.41,401.141 87,431.5C 72.0091,388.027 57.5091,344.36 43.5,300.5 Z M 224.5,324.5 C 225.274,323.853 226.274,323.52 227.5,323.5C 242.597,325.261 257.597,327.428 272.5,330C 255.719,334.539 239.719,332.706 224.5,324.5 Z"/></g>
<g><path style="opacity:0.95" fill="#000000" d="M 81.5,100.5 C 113.549,103.839 145.549,107.673 177.5,112C 184.697,116.305 186.197,122.138 182,129.5C 179.576,131.652 176.743,132.985 173.5,133.5C 147.231,129.758 120.898,126.425 94.5,123.5C 89.7821,163.077 84.7821,202.577 79.5,242C 106.141,245.497 132.808,248.83 159.5,252C 165.561,254.963 167.728,259.797 166,266.5C 164.034,270.801 160.701,273.134 156,273.5C 127.184,269.877 98.3507,266.377 69.5,263C 61.9856,263.262 57.6523,259.762 56.5,252.5C 62.5789,206.202 68.4122,159.869 74,113.5C 73.9611,107.564 76.4611,103.23 81.5,100.5 Z"/></g>
<g><path style="opacity:0.945" fill="#000000" d="M 248.5,119.5 C 287.523,118.752 315.69,135.752 333,170.5C 347.226,210.804 338.059,244.637 305.5,272C 270.163,294.429 235.496,293.429 201.5,269C 174.683,244.205 165.85,214.039 175,178.5C 187.698,143.926 212.198,124.26 248.5,119.5 Z M 246.5,141.5 C 235.575,143.761 225.575,148.261 216.5,155C 191.256,178.532 186.422,205.699 202,236.5C 221.278,263.37 246.778,271.87 278.5,262C 307.885,248.067 320.719,224.9 317,192.5C 306.943,157.044 283.443,140.044 246.5,141.5 Z"/></g>
<g><path style="opacity:0.947" fill="#000000" d="M 346.5,133.5 C 378.872,136.921 411.205,140.755 443.5,145C 448.519,145.422 452.019,147.922 454,152.5C 448.908,202.241 442.908,251.908 436,301.5C 434.065,305.802 430.732,307.802 426,307.5C 394.151,303.456 362.317,299.29 330.5,295C 324.835,293.832 321.835,290.332 321.5,284.5C 322.244,277.589 326.078,273.922 333,273.5C 360.842,277.209 388.675,280.876 416.5,284.5C 421.582,244.848 426.582,205.181 431.5,165.5C 402.785,161.994 374.119,158.161 345.5,154C 339.458,150.252 337.958,145.085 341,138.5C 342.73,136.598 344.563,134.931 346.5,133.5 Z"/></g>
<g><path style="opacity:0.938" fill="#000000" d="M 258.5,154.5 C 268.154,152.829 273.821,156.829 275.5,166.5C 283.841,169.313 287.341,174.98 286,183.5C 283.917,187.548 280.583,189.881 276,190.5C 270.023,187.766 263.857,185.432 257.5,183.5C 252.692,184.955 252.359,187.121 256.5,190C 279.312,199.439 284.812,214.939 273,236.5C 269.613,240.446 265.446,243.28 260.5,245C 258.379,253.397 253.045,256.73 244.5,255C 239.886,252.61 237.719,248.777 238,243.5C 233.409,241.457 229.243,238.79 225.5,235.5C 220.776,228.288 222.109,222.454 229.5,218C 232.167,217.333 234.833,217.333 237.5,218C 241.797,220.982 246.463,223.149 251.5,224.5C 256.043,223.759 257.876,221.092 257,216.5C 249.281,212.137 242.281,206.804 236,200.5C 229.001,187.32 231.168,175.82 242.5,166C 245.674,164.275 249.007,162.942 252.5,162C 253.69,158.75 255.69,156.25 258.5,154.5 Z"/></g>
<g><path style="opacity:0.897" fill="#000000" d="M 121.5,177.5 C 132.937,175.442 138.104,180.109 137,191.5C 133.96,197.603 129.126,199.769 122.5,198C 113.538,191.606 113.205,184.772 121.5,177.5 Z"/></g>
<g><path style="opacity:0.902" fill="#000000" d="M 378.5,209.5 C 389.989,208.155 394.823,213.155 393,224.5C 391.049,228.715 387.716,230.715 383,230.5C 374.474,229.142 371.141,224.142 373,215.5C 374.36,212.977 376.193,210.977 378.5,209.5 Z"/></g>
</svg>
