<svg xmlns="http://www.w3.org/2000/svg" xmlns:xlink="http://www.w3.org/1999/xlink" width="64" height="64"><defs><clipPath id="e"><path d="M0 0h64v64H0z"/></clipPath><clipPath id="h"><path d="M0 0h64v64H0z"/></clipPath><clipPath id="g"><path d="M0 0h64v64H0z"/></clipPath><clipPath id="c"><path d="M0 0h64v64H0z"/></clipPath><clipPath id="f"><path d="M0 0h64v64H0z"/></clipPath><clipPath id="d"><path d="M0 0h64v64H0z"/></clipPath><clipPath id="b"><path d="M0 0h64v64H0z"/></clipPath><mask id="p"><g filter="url(#a)"><path style="fill:#000;fill-opacity:.945098;stroke:none" d="M0 0h64v64H0z"/></g></mask><mask id="r"><g filter="url(#a)"><path style="fill:#000;fill-opacity:.937255;stroke:none" d="M0 0h64v64H0z"/></g></mask><mask id="n"><g filter="url(#a)"><path style="fill:#000;fill-opacity:.945098;stroke:none" d="M0 0h64v64H0z"/></g></mask><mask id="t"><g filter="url(#a)"><path style="fill:#000;fill-opacity:.898039;stroke:none" d="M0 0h64v64H0z"/></g></mask><mask id="l"><g filter="url(#a)"><path style="fill:#000;fill-opacity:.94902;stroke:none" d="M0 0h64v64H0z"/></g></mask><mask id="v"><g filter="url(#a)"><path style="fill:#000;fill-opacity:.901961;stroke:none" d="M0 0h64v64H0z"/></g></mask><mask id="j"><g filter="url(#a)"><path style="fill:#000;fill-opacity:.952941;stroke:none" d="M0 0h64v64H0z"/></g></mask><g id="m" clip-path="url(#d)"><path style="stroke:none;fill-rule:evenodd;fill:#000;fill-opacity:1" d="M31.063 14.938c4.878-.094 8.398 2.03 10.562 6.374 1.777 5.04.633 9.266-3.438 12.688-4.417 2.805-8.75 2.68-13-.375-3.351-3.098-4.457-6.871-3.312-11.313 1.586-4.32 4.648-6.78 9.188-7.375Zm-.25 2.75a9.368 9.368 0 0 0-3.75 1.687c-3.157 2.941-3.758 6.336-1.813 10.188 2.41 3.359 5.598 4.421 9.563 3.187 3.671-1.742 5.277-4.637 4.812-8.688-1.258-4.433-4.195-6.558-8.813-6.375Zm0 0"/></g><g id="q" clip-path="url(#f)"><path style="stroke:none;fill-rule:evenodd;fill:#000;fill-opacity:1" d="M32.313 19.313c1.207-.208 1.914.292 2.124 1.5 1.043.351 1.481 1.058 1.313 2.125-.262.507-.676.796-1.25.875-.746-.34-1.52-.633-2.313-.875-.601.183-.644.453-.124.812 2.851 1.18 3.539 3.117 2.062 5.813a3.572 3.572 0 0 1-1.563 1.062c-.265 1.05-.933 1.465-2 1.25-.578-.297-.847-.777-.812-1.438a6.122 6.122 0 0 1-1.563-1c-.59-.902-.425-1.628.5-2.187a2.063 2.063 0 0 1 1 0 5.63 5.63 0 0 0 1.75.813c.567-.094.797-.426.688-1a12.095 12.095 0 0 1-2.625-2c-.875-1.649-.605-3.086.813-4.313a5.764 5.764 0 0 1 1.25-.5c.148-.406.398-.719.75-.938Zm0 0"/></g><g id="k" clip-path="url(#c)"><path style="stroke:none;fill-rule:evenodd;fill:#000;fill-opacity:1" d="M10.188 12.563c4.007.417 8.007.898 12 1.437.898.54 1.085 1.266.562 2.188-.305.269-.656.437-1.063.5a321.534 321.534 0 0 0-9.875-1.25c-.59 4.945-1.214 9.882-1.874 14.812 3.332.438 6.664.855 10 1.25.757.371 1.027.977.812 1.813-.246.539-.664.828-1.25.874-3.602-.453-7.207-.89-10.813-1.312-.937.031-1.48-.406-1.624-1.313.761-5.789 1.488-11.578 2.187-17.375-.004-.742.309-1.285.938-1.624Zm0 0"/></g><g id="u" clip-path="url(#h)"><path style="stroke:none;fill-rule:evenodd;fill:#000;fill-opacity:1" d="M47.313 26.188c1.437-.168 2.039.457 1.812 1.875-.242.527-.66.777-1.25.75-1.066-.168-1.48-.793-1.25-1.875.172-.317.398-.567.688-.75Zm0 0"/></g><g id="s" clip-path="url(#g)"><path style="stroke:none;fill-rule:evenodd;fill:#000;fill-opacity:1" d="M15.188 22.188c1.43-.258 2.074.324 1.937 1.75-.379.761-.984 1.035-1.813.812-1.12-.8-1.16-1.652-.124-2.563Zm0 0"/></g><g id="o" clip-path="url(#e)"><path style="stroke:none;fill-rule:evenodd;fill:#000;fill-opacity:1" d="M43.313 16.688c4.046.425 8.09.906 12.124 1.437.63.055 1.067.367 1.313.938a516.249 516.249 0 0 1-2.25 18.625c-.242.539-.66.789-1.25.75-3.98-.504-7.96-1.028-11.938-1.563-.707-.145-1.082-.582-1.124-1.313.093-.863.57-1.32 1.437-1.374 3.48.464 6.96.921 10.438 1.374.636-4.957 1.261-9.914 1.874-14.874-3.59-.438-7.171-.918-10.75-1.438-.753-.469-.94-1.113-.562-1.938a4.67 4.67 0 0 1 .688-.625Zm0 0"/></g><g id="i" clip-path="url(#b)"><path style="stroke:none;fill-rule:evenodd;fill:#000;fill-opacity:1" d="M63.938 37.688v1.25a3.84 3.84 0 0 0-.626.562c-1.296.426-2.59.863-3.874 1.313a49.173 49.173 0 0 0-.438 2.5 1.371 1.371 0 0 1-.688.687 47.796 47.796 0 0 1-6.624-.688 24106.82 24106.82 0 0 1-41.126 13.563c-.906.29-1.55.016-1.937-.813C6.582 49.855 4.543 43.645 2.5 37.439a1.275 1.275 0 0 0-.688-.5 3.153 3.153 0 0 1-.437-.626c.035-.789.035-1.582 0-2.374a78.827 78.827 0 0 0-1.438-4.126v-1.25c.11-.148.235-.292.376-.437.68-.297 1.367-.566 2.062-.813C3.16 20.669 4.035 14.043 5 7.438c.152-.195.34-.34.563-.437a5.396 5.396 0 0 1 1.625 0C20.96 8.707 34.733 10.434 48.5 12.188c1.8-.622 3.613-1.204 5.438-1.75.406.058.761.226 1.062.5.297.68.566 1.367.813 2.062 2 .293 4 .582 6 .875.359.156.59.426.687.813a549.902 549.902 0 0 1-1.563 13.562c.02.23.043.457.063.688.973 2.933 1.95 5.851 2.938 8.75Zm-56.626-28c17.415 2.207 34.829 4.417 52.25 6.624a1132.686 1132.686 0 0 1-3 24.875c-17.464-2.136-34.921-4.3-52.374-6.5 1.042-8.332 2.082-16.667 3.125-25Zm23.5 8c4.618-.184 7.555 1.94 8.813 6.375.465 4.05-1.14 6.945-4.813 8.687-3.964 1.234-7.152.172-9.562-3.188-1.945-3.851-1.344-7.246 1.813-10.187a9.368 9.368 0 0 1 3.75-1.688Zm29.25 17.25c.32.792.61 1.605.876 2.437-.407.203-.82.328-1.25.375.18-.926.304-1.863.374-2.813ZM5.438 37.562l2.75.376a266.786 266.786 0 0 0 4.124 12.25c.403.34.86.445 1.376.312 3.683-1.2 7.351-2.45 11-3.75.742-.93.617-1.723-.375-2.375a1.586 1.586 0 0 0-.875 0 409.84 409.84 0 0 1-9.375 3.063c-.934-3.051-1.891-6.09-2.876-9.126 1.336.145 2.668.313 4 .5.286 1.297 1.036 1.653 2.25 1.063.153-.418.446-.645.875-.688 1.672.188 3.34.418 5 .688 2.989 3.719 6.825 5.05 11.5 4a12.269 12.269 0 0 0 3.876-2c2.18.105 4.347.355 6.5.75a8390.575 8390.575 0 0 0-34.313 11.313 737.104 737.104 0 0 1-5.438-16.376Zm22.625 3a.585.585 0 0 1 .375-.124c1.886.218 3.761.492 5.625.812-2.098.566-4.098.34-6-.688Zm0 0"/></g><filter id="a" filterUnits="objectBoundingBox" x="0%" y="0%" width="100%" height="100%"><feColorMatrix in="SourceGraphic" values="0 0 0 0 1 0 0 0 0 1 0 0 0 0 1 0 0 0 1 0"/></filter></defs><use xlink:href="#i" mask="url(#j)"/><use xlink:href="#k" mask="url(#l)"/><use xlink:href="#m" mask="url(#n)"/><use xlink:href="#o" mask="url(#p)"/><use xlink:href="#q" mask="url(#r)"/><use xlink:href="#s" mask="url(#t)"/><use xlink:href="#u" mask="url(#v)"/></svg>