<svg xmlns="http://www.w3.org/2000/svg" xmlns:xlink="http://www.w3.org/1999/xlink" width="64" height="64"><defs><clipPath id="b"><path d="M0 0h64v64H0z"/></clipPath><filter id="a" filterUnits="objectBoundingBox" x="0%" y="0%" width="100%" height="100%"><feColorMatrix in="SourceGraphic" values="0 0 0 0 1 0 0 0 0 1 0 0 0 0 1 0 0 0 1 0"/></filter><mask id="d"><g filter="url(#a)"><path style="fill:#000;fill-opacity:.968627;stroke:none" d="M0 0h64v64H0z"/></g></mask><g id="c" clip-path="url(#b)"><path style="stroke:none;fill-rule:evenodd;fill:#000;fill-opacity:1" d="M30.313-.063h3.5a13.38 13.38 0 0 1 2.124 1.188L62.75 27.938c.465.68.86 1.386 1.188 2.125v3.5c-1.192 2.953-3.403 4.37-6.626 4.25.02 6.457 0 12.917-.062 19.374-.336 3.543-2.23 5.731-5.688 6.563a298.73 298.73 0 0 1-12.124 0 2.079 2.079 0 0 1-1.188-1.188c-.043-5.332-.082-10.667-.125-16-.203-1.453-1.016-2.351-2.438-2.687a106.825 106.825 0 0 0-7.25 0c-1.367.324-2.18 1.18-2.437 2.563-.043 5.374-.082 10.75-.125 16.124a2.09 2.09 0 0 1-1.188 1.188 304.92 304.92 0 0 1-12.25 0c-3.273-.855-5.124-2.96-5.562-6.313a1565.06 1565.06 0 0 1-.063-19.624c-4.109.054-6.359-1.946-6.75-6A5.496 5.496 0 0 1 1 28.438 4166.943 4166.943 0 0 1 28.188 1.125a13.38 13.38 0 0 1 2.125-1.188Zm1.125 3.75a2.957 2.957 0 0 1 2 .438L59.75 30.438c.469.746.555 1.535.25 2.375-.379.554-.902.91-1.563 1.062-1.25.043-2.5.082-3.75.125a2.09 2.09 0 0 0-1.187 1.188c-.043 7.332-.082 14.667-.125 22-.176 1.343-.902 2.238-2.188 2.687-3.039.18-6.078.242-9.124.188.019-4.583 0-9.168-.063-13.75-.48-3.52-2.46-5.626-5.938-6.313a134.158 134.158 0 0 0-8.124 0c-3.297.715-5.235 2.734-5.813 6.063a796.486 796.486 0 0 0-.063 14 118.46 118.46 0 0 1-9.125-.188c-1.285-.45-2.011-1.344-2.187-2.688-.043-7.332-.082-14.667-.125-22A2.09 2.09 0 0 0 9.437 34c-1.25-.043-2.5-.082-3.75-.125C4.313 33.5 3.75 32.605 4 31.187a1.94 1.94 0 0 1 .375-.75L30.688 4.125c.242-.184.492-.328.75-.438Zm0 0"/></g></defs><use xlink:href="#c" mask="url(#d)"/></svg>