<?xml version="1.0" encoding="UTF-8"?>
<!DOCTYPE svg PUBLIC "-//W3C//DTD SVG 1.1//EN" "http://www.w3.org/Graphics/SVG/1.1/DTD/svg11.dtd">
<svg xmlns="http://www.w3.org/2000/svg" version="1.1" width="512px" height="512px" style="shape-rendering:geometricPrecision; text-rendering:geometricPrecision; image-rendering:optimizeQuality; fill-rule:evenodd; clip-rule:evenodd" xmlns:xlink="http://www.w3.org/1999/xlink">
<g><path style="opacity:0.992" fill="#000000" d="M 47.5,-0.5 C 143.5,-0.5 239.5,-0.5 335.5,-0.5C 367.925,8.2959 383.925,29.6292 383.5,63.5C 410.169,63.3334 436.835,63.5 463.5,64C 489.32,69.9874 505.32,85.8208 511.5,111.5C 511.5,222.5 511.5,333.5 511.5,444.5C 502.833,480.5 480.5,502.833 444.5,511.5C 318.5,511.5 192.5,511.5 66.5,511.5C 30.1667,503.167 7.83333,480.833 -0.5,444.5C -0.5,312.167 -0.5,179.833 -0.5,47.5C 5.80667,21.86 21.8067,5.85998 47.5,-0.5 Z M 57.5,31.5 C 146.834,31.3333 236.167,31.5 325.5,32C 341.133,33.9668 349.633,42.8001 351,58.5C 351.333,187.167 351.667,315.833 352,444.5C 353.961,457.25 358.795,468.75 366.5,479C 270.833,479.667 175.167,479.667 79.5,479C 59.462,477.901 44.962,468.401 36,450.5C 33.5584,444.4 32.2251,438.067 32,431.5C 31.3333,307.167 31.3333,182.833 32,58.5C 33.5476,42.7889 42.0476,33.7889 57.5,31.5 Z M 95.5,95.5 C 116.833,95.5 138.167,95.5 159.5,95.5C 159.5,116.833 159.5,138.167 159.5,159.5C 138.167,159.5 116.833,159.5 95.5,159.5C 95.5,138.167 95.5,116.833 95.5,95.5 Z M 383.5,95.5 C 408.871,95.0576 434.205,95.5576 459.5,97C 469,99.8333 475.167,106 478,115.5C 479.651,220.808 479.985,326.141 479,431.5C 477.104,456.062 464.271,471.562 440.5,478C 411.754,480.577 393.254,468.077 385,440.5C 383.518,325.521 383.018,210.521 383.5,95.5 Z"/></g>
<g><path style="opacity:0.996" fill="#000000" d="M 73.5,63.5 C 109.502,63.3333 145.502,63.5 181.5,64C 186,65.8333 189.167,69 191,73.5C 191.667,109.5 191.667,145.5 191,181.5C 189.167,186 186,189.167 181.5,191C 145.5,191.667 109.5,191.667 73.5,191C 69,189.167 65.8333,186 64,181.5C 63.3333,145.5 63.3333,109.5 64,73.5C 66.0223,68.98 69.189,65.6467 73.5,63.5 Z M 95.5,95.5 C 95.5,116.833 95.5,138.167 95.5,159.5C 116.833,159.5 138.167,159.5 159.5,159.5C 159.5,138.167 159.5,116.833 159.5,95.5C 138.167,95.5 116.833,95.5 95.5,95.5 Z"/></g>
<g><path style="opacity:0.957" fill="#000000" d="M 245.5,84.5 C 266.503,84.3334 287.503,84.5 308.5,85C 318.241,88.9838 321.741,96.1505 319,106.5C 316.635,112.202 312.469,115.702 306.5,117C 286.5,117.667 266.5,117.667 246.5,117C 233.84,111.691 230.673,102.858 237,90.5C 239.322,87.6047 242.155,85.6047 245.5,84.5 Z"/></g>
<g><path style="opacity:0.957" fill="#000000" d="M 245.5,148.5 C 266.503,148.333 287.503,148.5 308.5,149C 318.241,152.984 321.741,160.15 319,170.5C 316.635,176.202 312.469,179.702 306.5,181C 286.5,181.667 266.5,181.667 246.5,181C 233.84,175.691 230.673,166.858 237,154.5C 239.322,151.605 242.155,149.605 245.5,148.5 Z"/></g>
<g><path style="opacity:0.966" fill="#000000" d="M 75.5,233.5 C 152.834,233.333 230.167,233.5 307.5,234C 317.788,238.073 321.621,245.573 319,256.5C 316.894,261.147 313.394,264.314 308.5,266C 230.5,266.667 152.5,266.667 74.5,266C 63.1941,260.521 60.3608,252.021 66,240.5C 68.529,237.115 71.6956,234.782 75.5,233.5 Z"/></g>
<g><path style="opacity:0.966" fill="#000000" d="M 75.5,313.5 C 152.834,313.333 230.167,313.5 307.5,314C 317.788,318.073 321.621,325.573 319,336.5C 316.894,341.147 313.394,344.314 308.5,346C 230.5,346.667 152.5,346.667 74.5,346C 63.1941,340.521 60.3608,332.021 66,320.5C 68.529,317.115 71.6956,314.782 75.5,313.5 Z"/></g>
<g><path style="opacity:0.966" fill="#000000" d="M 75.5,393.5 C 152.834,393.333 230.167,393.5 307.5,394C 317.788,398.073 321.621,405.573 319,416.5C 316.894,421.147 313.394,424.314 308.5,426C 230.5,426.667 152.5,426.667 74.5,426C 63.1941,420.521 60.3608,412.021 66,400.5C 68.529,397.115 71.6956,394.782 75.5,393.5 Z"/></g>
</svg>
