<svg xmlns="http://www.w3.org/2000/svg" xmlns:xlink="http://www.w3.org/1999/xlink" width="64" height="64"><defs><clipPath id="e"><path d="M0 0h64v64H0z"/></clipPath><clipPath id="h"><path d="M0 0h64v64H0z"/></clipPath><clipPath id="g"><path d="M0 0h64v64H0z"/></clipPath><clipPath id="c"><path d="M0 0h64v64H0z"/></clipPath><clipPath id="f"><path d="M0 0h64v64H0z"/></clipPath><clipPath id="d"><path d="M0 0h64v64H0z"/></clipPath><clipPath id="b"><path d="M0 0h64v64H0z"/></clipPath><mask id="p"><g filter="url(#a)"><path style="fill:#000;fill-opacity:.956863;stroke:none" d="M0 0h64v64H0z"/></g></mask><mask id="r"><g filter="url(#a)"><path style="fill:#000;fill-opacity:.964706;stroke:none" d="M0 0h64v64H0z"/></g></mask><mask id="n"><g filter="url(#a)"><path style="fill:#000;fill-opacity:.956863;stroke:none" d="M0 0h64v64H0z"/></g></mask><mask id="t"><g filter="url(#a)"><path style="fill:#000;fill-opacity:.964706;stroke:none" d="M0 0h64v64H0z"/></g></mask><mask id="l"><g filter="url(#a)"><path style="fill:#000;fill-opacity:.996078;stroke:none" d="M0 0h64v64H0z"/></g></mask><mask id="v"><g filter="url(#a)"><path style="fill:#000;fill-opacity:.964706;stroke:none" d="M0 0h64v64H0z"/></g></mask><mask id="j"><g filter="url(#a)"><path style="fill:#000;fill-opacity:.992157;stroke:none" d="M0 0h64v64H0z"/></g></mask><g id="m" clip-path="url(#d)"><path style="stroke:none;fill-rule:evenodd;fill:#000;fill-opacity:1" d="M30.688 10.563c2.625-.02 5.25 0 7.875.062 1.218.496 1.656 1.395 1.312 2.688-.297.71-.816 1.148-1.563 1.312-2.5.082-5 .082-7.5 0-1.582-.664-1.976-1.77-1.187-3.313.29-.363.645-.613 1.063-.75Zm0 0"/></g><g id="q" clip-path="url(#f)"><path style="stroke:none;fill-rule:evenodd;fill:#000;fill-opacity:1" d="M9.438 29.188c9.667-.02 19.332 0 29 .062 1.285.508 1.765 1.445 1.437 2.813a2.14 2.14 0 0 1-1.313 1.187c-9.75.082-19.5.082-29.25 0-1.414-.684-1.765-1.746-1.062-3.188a2.43 2.43 0 0 1 1.188-.875Zm0 0"/></g><g id="k" clip-path="url(#c)"><path style="stroke:none;fill-rule:evenodd;fill:#000;fill-opacity:1" d="M9.188 7.938c4.5-.02 9 0 13.5.062.562.23.957.625 1.187 1.188.082 4.5.082 9 0 13.5a2.09 2.09 0 0 1-1.188 1.187c-4.5.082-9 .082-13.5 0A2.09 2.09 0 0 1 8 22.687c-.082-4.5-.082-9 0-13.5.254-.566.648-.98 1.188-1.25Zm2.75 4v8h8v-8h-8Zm0 0"/></g><g id="u" clip-path="url(#h)"><path style="stroke:none;fill-rule:evenodd;fill:#000;fill-opacity:1" d="M9.438 49.188c9.667-.02 19.332 0 29 .062 1.285.508 1.765 1.445 1.437 2.813a2.14 2.14 0 0 1-1.313 1.187c-9.75.082-19.5.082-29.25 0-1.414-.684-1.765-1.746-1.062-3.188a2.43 2.43 0 0 1 1.188-.874Zm0 0"/></g><g id="s" clip-path="url(#g)"><path style="stroke:none;fill-rule:evenodd;fill:#000;fill-opacity:1" d="M9.438 39.188c9.667-.02 19.332 0 29 .062 1.285.508 1.765 1.445 1.437 2.813a2.14 2.14 0 0 1-1.313 1.187c-9.75.082-19.5.082-29.25 0-1.414-.684-1.765-1.746-1.062-3.188a2.43 2.43 0 0 1 1.188-.874Zm0 0"/></g><g id="o" clip-path="url(#e)"><path style="stroke:none;fill-rule:evenodd;fill:#000;fill-opacity:1" d="M30.688 18.563c2.625-.02 5.25 0 7.875.062 1.218.496 1.656 1.395 1.312 2.688-.297.71-.816 1.148-1.563 1.312-2.5.082-5 .082-7.5 0-1.582-.664-1.976-1.77-1.187-3.313.29-.363.645-.613 1.063-.75Zm0 0"/></g><g id="i" clip-path="url(#b)"><path style="stroke:none;fill-rule:evenodd;fill:#000;fill-opacity:1" d="M5.938-.063h36c4.054 1.098 6.054 3.766 6 8 3.332-.019 6.667 0 10 .063 3.226.75 5.226 2.727 6 5.938v41.624c-1.083 4.5-3.876 7.293-8.376 8.376H8.313C3.77 62.895.98 60.105-.062 55.562V5.938c.789-3.204 2.789-5.204 6-6Zm1.25 4c11.167-.019 22.332 0 33.5.063 1.953.246 3.015 1.352 3.187 3.313.043 16.082.082 32.167.125 48.25a9.455 9.455 0 0 0 1.813 4.312c-11.958.082-23.918.082-35.876 0-2.503-.137-4.316-1.324-5.437-3.563a6.98 6.98 0 0 1-.5-2.374A4416.838 4416.838 0 0 1 4 7.312c.195-1.964 1.258-3.09 3.188-3.375Zm4.75 8h8v8h-8v-8Zm36 0c3.171-.054 6.34.008 9.5.188 1.187.355 1.957 1.125 2.312 2.313.207 13.164.25 26.332.125 39.5-.238 3.07-1.84 5.007-4.813 5.812-3.593.32-5.906-1.242-6.937-4.688a2559.431 2559.431 0 0 1-.188-43.124Zm0 0"/></g><filter id="a" filterUnits="objectBoundingBox" x="0%" y="0%" width="100%" height="100%"><feColorMatrix in="SourceGraphic" values="0 0 0 0 1 0 0 0 0 1 0 0 0 0 1 0 0 0 1 0"/></filter></defs><use xlink:href="#i" mask="url(#j)"/><use xlink:href="#k" mask="url(#l)"/><use xlink:href="#m" mask="url(#n)"/><use xlink:href="#o" mask="url(#p)"/><use xlink:href="#q" mask="url(#r)"/><use xlink:href="#s" mask="url(#t)"/><use xlink:href="#u" mask="url(#v)"/></svg>