<svg xmlns="http://www.w3.org/2000/svg" xmlns:xlink="http://www.w3.org/1999/xlink" width="64" height="64"><defs><clipPath id="b"><path d="M0 0h64v64H0z"/></clipPath><clipPath id="c"><path d="M0 0h64v64H0z"/></clipPath><mask id="e"><g filter="url(#a)"><path style="fill:#000;fill-opacity:.929412;stroke:none" d="M0 0h64v64H0z"/></g></mask><mask id="g"><g filter="url(#a)"><path style="fill:#000;fill-opacity:.952941;stroke:none" d="M0 0h64v64H0z"/></g></mask><g id="d" clip-path="url(#b)"><path style="stroke:none;fill-rule:evenodd;fill:#000;fill-opacity:1" d="M52.563 5.063c3.32-.2 4.757 1.343 4.312 4.625-1.07 2.175-2.738 2.8-5 1.874l-9.25 7.5c.14 2.485-1.023 3.86-3.5 4.125-2.36-.234-3.547-1.546-3.563-3.937-2.648-1.27-5.292-2.543-7.937-3.813-.941 1.313-2.21 1.793-3.813 1.438a1.776 1.776 0 0 1-.687-.313L13.187 27.75c.981 1.738.774 3.324-.624 4.75-1.5 1.082-3 1.082-4.5 0-1.493-1.566-1.641-3.254-.438-5.063a3.73 3.73 0 0 1 1.688-1.062c.828-.043 1.64-.063 2.437-.063a567.338 567.338 0 0 1 9.5-10.625c.105-.187.21-.374.313-.562-.754-1.984-.254-3.57 1.5-4.75 2.914-.879 4.664.164 5.25 3.125l8.125 3.938c1.136-1.114 2.468-1.426 4-.938a2.67 2.67 0 0 1 1.187.813 355.01 355.01 0 0 1 8.75-7.125c-.773-2.364-.047-4.075 2.188-5.126Zm.5 2c1.585-.102 2.19.605 1.812 2.125-.629.812-1.402.957-2.313.437-.777-1.05-.609-1.902.5-2.563Zm-28.876 5c1.762-.051 2.325.742 1.688 2.374-1.305.899-2.203.586-2.688-.937.122-.64.454-1.117 1-1.438Zm14.375 6.25c1.165-.192 1.872.289 2.126 1.437-.254 1.168-.961 1.629-2.126 1.375-.8-.414-1.07-1.063-.812-1.938a2.77 2.77 0 0 1 .813-.875Zm-28.75 10c1.586-.102 2.192.605 1.813 2.125-.629.812-1.402.957-2.313.437-.777-1.05-.609-1.902.5-2.563Zm0 0"/></g><g id="f" clip-path="url(#c)"><path style="stroke:none;fill-rule:evenodd;fill:#000;fill-opacity:1" d="M48.438 19.438c3.417-.02 6.832 0 10.25.062.636.18 1.074.574 1.312 1.188.137.804.2 1.617.188 2.437A11.39 11.39 0 0 1 60 25.438c-.621.527-1.203.484-1.75-.125-.043-1.25-.082-2.5-.125-3.75l-.188-.188a106.706 106.706 0 0 0-8.874.063 2501.036 2501.036 0 0 0-.126 35.5h9.25c-.019-9.583 0-19.168.063-28.75.621-.665 1.246-.665 1.875 0 .063 9.582.082 19.167.063 28.75 1.539-.106 1.914.5 1.124 1.812a7012.75 7012.75 0 0 1-58.75 0c-.5-.582-.5-1.168 0-1.75 4.126-.063 8.25-.082 12.376-.063.019-4.707 0-9.417-.063-14.124l-.188-.188a106.706 106.706 0 0 0-8.874.063 618.042 618.042 0 0 0-.188 12.624c-.305.59-.785.778-1.438.563l-.437-.438c-.121-4.507-.082-9.007.125-13.5.242-.617.68-1.011 1.313-1.187 3.417-.082 6.832-.082 10.25 0 .636.18 1.074.574 1.312 1.188.184 4.992.246 9.992.188 15h1.125c-.02-10.208 0-20.418.062-30.626.152-.863.633-1.464 1.438-1.812 3.417-.082 6.832-.082 10.25 0 .73.23 1.207.707 1.437 1.438.063 10.332.082 20.667.063 31h1.25c-.02-8.25 0-16.5.062-24.75a2.254 2.254 0 0 1 1.313-1.438 218.73 218.73 0 0 1 10.374 0c.606.27 1.043.707 1.313 1.313.188 8.285.25 16.578.188 24.874h1.124c-.019-11.957 0-23.917.063-35.874.203-.805.68-1.348 1.438-1.625Zm-28 6.875c2.921-.04 5.84 0 8.75.125.125 10.167.167 20.332.125 30.5h-9.25c-.02-10.126 0-20.25.062-30.376.125-.07.227-.152.313-.25Zm14.375 6.25c2.874-.02 5.75 0 8.624.062.114.047.22.11.313.188.063 8.042.082 16.082.063 24.124h-9.25c-.083-8.152 0-16.277.25-24.374Zm0 0"/></g><filter id="a" filterUnits="objectBoundingBox" x="0%" y="0%" width="100%" height="100%"><feColorMatrix in="SourceGraphic" values="0 0 0 0 1 0 0 0 0 1 0 0 0 0 1 0 0 0 1 0"/></filter></defs><use xlink:href="#d" mask="url(#e)"/><use xlink:href="#f" mask="url(#g)"/></svg>