<?xml version="1.0" encoding="UTF-8"?>
<!DOCTYPE svg PUBLIC "-//W3C//DTD SVG 1.1//EN" "http://www.w3.org/Graphics/SVG/1.1/DTD/svg11.dtd">
<svg xmlns="http://www.w3.org/2000/svg" version="1.1" width="512px" height="512px" style="shape-rendering:geometricPrecision; text-rendering:geometricPrecision; image-rendering:optimizeQuality; fill-rule:evenodd; clip-rule:evenodd" xmlns:xlink="http://www.w3.org/1999/xlink">
<g><path style="opacity:0.928" fill="#000000" d="M 420.5,40.5 C 447.072,38.903 458.572,51.2363 455,77.5C 446.424,94.917 433.09,99.917 415,92.5C 390.333,112.5 365.667,132.5 341,152.5C 342.136,172.365 332.803,183.365 313,185.5C 294.132,183.627 284.632,173.127 284.5,154C 263.316,143.83 242.149,133.663 221,123.5C 213.478,134.012 203.311,137.845 190.5,135C 188.481,134.55 186.648,133.717 185,132.5C 158.5,162.333 132,192.167 105.5,222C 113.356,235.913 111.69,248.579 100.5,260C 88.5,268.667 76.5,268.667 64.5,260C 52.5522,247.461 51.3856,233.961 61,219.5C 64.7205,215.449 69.2205,212.616 74.5,211C 81.1185,210.664 87.6185,210.497 94,210.5C 118.963,181.869 144.296,153.535 170,125.5C 170.85,123.99 171.683,122.49 172.5,121C 166.475,105.114 170.475,92.4472 184.5,83C 207.807,75.9793 221.807,84.3127 226.5,108C 248.167,118.5 269.833,129 291.5,139.5C 300.59,130.584 311.256,128.084 323.5,132C 327.274,133.302 330.441,135.469 333,138.5C 356.043,119.121 379.377,100.121 403,81.5C 396.797,62.5832 402.63,48.9166 420.5,40.5 Z M 424.5,56.5 C 437.186,55.6765 442.019,61.3432 439,73.5C 433.963,79.9896 427.796,81.1562 420.5,77C 414.292,68.6054 415.625,61.7721 424.5,56.5 Z M 193.5,96.5 C 207.604,96.0957 212.104,102.429 207,115.5C 196.556,122.698 189.389,120.198 185.5,108C 186.461,102.889 189.128,99.0558 193.5,96.5 Z M 308.5,146.5 C 317.806,144.975 323.473,148.809 325.5,158C 323.482,167.356 317.816,171.023 308.5,169C 302.092,165.677 299.925,160.511 302,153.5C 303.694,150.642 305.861,148.309 308.5,146.5 Z M 78.5,226.5 C 91.1861,225.677 96.0195,231.343 93,243.5C 87.9631,249.99 81.7964,251.156 74.5,247C 68.2915,238.605 69.6249,231.772 78.5,226.5 Z"/></g>
<g><path style="opacity:0.954" fill="#000000" d="M 387.5,155.5 C 414.835,155.333 442.169,155.5 469.5,156C 474.598,157.433 478.098,160.6 480,165.5C 481.105,171.923 481.605,178.423 481.5,185C 481.626,191.271 481.126,197.437 480,203.5C 475.042,207.715 470.375,207.381 466,202.5C 465.667,192.5 465.333,182.5 465,172.5C 464.5,172 464,171.5 463.5,171C 439.791,170.177 416.124,170.344 392.5,171.5C 391.5,266.164 391.167,360.831 391.5,455.5C 416.167,455.5 440.833,455.5 465.5,455.5C 465.333,378.833 465.5,302.166 466,225.5C 470.954,220.176 475.954,220.176 481,225.5C 481.5,302.166 481.667,378.833 481.5,455.5C 493.818,454.658 496.818,459.491 490.5,470C 333.833,470.667 177.167,470.667 20.5,470C 16.5,465.333 16.5,460.667 20.5,456C 53.4983,455.5 86.4983,455.333 119.5,455.5C 119.667,417.832 119.5,380.165 119,342.5C 118.5,342 118,341.5 117.5,341C 93.7905,340.177 70.1239,340.344 46.5,341.5C 45.6668,375.162 45.1668,408.828 45,442.5C 42.5647,447.224 38.7314,448.724 33.5,447C 32.3333,445.833 31.1667,444.667 30,443.5C 29.0196,407.44 29.353,371.44 31,335.5C 32.9268,330.572 36.4268,327.406 41.5,326C 68.8333,325.333 96.1667,325.333 123.5,326C 128.598,327.433 132.098,330.6 134,335.5C 135.483,375.439 135.983,415.439 135.5,455.5C 138.5,455.5 141.5,455.5 144.5,455.5C 144.333,373.833 144.5,292.166 145,210.5C 146.226,203.606 150.06,198.773 156.5,196C 183.833,195.333 211.167,195.333 238.5,196C 244.333,197.833 248.167,201.667 250,207.5C 250.5,290.166 250.667,372.833 250.5,455.5C 253.833,455.5 257.167,455.5 260.5,455.5C 260.333,389.499 260.5,323.499 261,257.5C 262.743,252.09 266.243,248.256 271.5,246C 299.167,245.333 326.833,245.333 354.5,246C 359.333,248.167 362.833,251.667 365,256.5C 366.486,322.788 366.986,389.122 366.5,455.5C 369.5,455.5 372.5,455.5 375.5,455.5C 375.333,359.833 375.5,264.166 376,168.5C 377.617,162.058 381.45,157.725 387.5,155.5 Z M 163.5,210.5 C 186.879,210.177 210.212,210.51 233.5,211.5C 234.5,292.831 234.833,374.164 234.5,455.5C 209.833,455.5 185.167,455.5 160.5,455.5C 160.333,374.499 160.5,293.499 161,212.5C 161.995,211.934 162.828,211.267 163.5,210.5 Z M 278.5,260.5 C 301.502,260.333 324.502,260.5 347.5,261C 348.416,261.374 349.25,261.874 350,262.5C 350.5,326.832 350.667,391.166 350.5,455.5C 325.833,455.5 301.167,455.5 276.5,455.5C 275.842,390.285 276.509,325.285 278.5,260.5 Z"/></g>
</svg>
