<?xml version="1.0" encoding="UTF-8"?>
<!DOCTYPE svg PUBLIC "-//W3C//DTD SVG 1.1//EN" "http://www.w3.org/Graphics/SVG/1.1/DTD/svg11.dtd">
<svg xmlns="http://www.w3.org/2000/svg" version="1.1" width="160px" height="160px" style="shape-rendering:geometricPrecision; text-rendering:geometricPrecision; image-rendering:optimizeQuality; fill-rule:evenodd; clip-rule:evenodd" xmlns:xlink="http://www.w3.org/1999/xlink">
<g><path style="opacity:1" fill="#fefefe" d="M -0.5,-0.5 C 52.8333,-0.5 106.167,-0.5 159.5,-0.5C 159.5,52.8333 159.5,106.167 159.5,159.5C 106.167,159.5 52.8333,159.5 -0.5,159.5C -0.5,106.167 -0.5,52.8333 -0.5,-0.5 Z"/></g>
<g><path style="opacity:1" fill="#e0ddf6" d="M 76.5,71.5 C 76.5,76.5 76.5,81.5 76.5,86.5C 77.5,86.5 78.5,86.5 79.5,86.5C 79.19,83.2869 79.5233,80.2869 80.5,77.5C 80.5,80.8333 80.5,84.1667 80.5,87.5C 78.8333,87.5 77.1667,87.5 75.5,87.5C 75.1786,81.9738 75.5119,76.6405 76.5,71.5 Z"/></g>
<g><path style="opacity:1" fill="#b4ace9" d="M 81.5,72.5 C 82.5676,71.5655 83.901,71.2322 85.5,71.5C 85.5,72.8333 85.5,74.1667 85.5,75.5C 84.5,75.5 83.5,75.5 82.5,75.5C 85.3382,73.6941 85.0048,72.6941 81.5,72.5 Z"/></g>
<g><path style="opacity:1" fill="#7161d7" d="M 146.5,86.5 C 145.5,86.5 144.5,86.5 143.5,86.5C 143.813,82.9581 143.479,79.6248 142.5,76.5C 140.5,73.8333 138.5,73.8333 136.5,76.5C 136.119,80.1188 135.119,83.4521 133.5,86.5C 132.897,81.3814 133.564,76.7147 135.5,72.5C 139.547,70.6454 143.047,71.3121 146,74.5C 146.499,78.4862 146.666,82.4862 146.5,86.5 Z"/></g>
<g><path style="opacity:1" fill="#ab58b4" d="M 47.5,75.5 C 47.5,76.1667 47.5,76.8333 47.5,77.5C 44.506,76.8458 41.506,76.1792 38.5,75.5C 36.7722,75.5901 35.1056,75.9234 33.5,76.5C 31.8683,79.4247 30.535,82.4247 29.5,85.5C 30.3296,89.1486 30.9963,92.8153 31.5,96.5C 28.9407,96.8016 26.6074,96.4682 24.5,95.5C 25.675,95.719 26.675,95.3857 27.5,94.5C 25.1464,87.4067 26.4797,81.2401 31.5,76C 36.6832,72.8835 42.0165,72.7168 47.5,75.5 Z"/></g>
<g><path style="opacity:1" fill="#a39ae5" d="M 68.5,86.5 C 69.3132,85.3473 70.3132,85.3473 71.5,86.5C 72.8333,81.8333 72.8333,77.1667 71.5,72.5C 70.3132,73.6527 69.3132,73.6527 68.5,72.5C 70.0418,71.6993 71.7085,71.366 73.5,71.5C 73.5,76.8333 73.5,82.1667 73.5,87.5C 71.7085,87.634 70.0418,87.3007 68.5,86.5 Z"/></g>
<g><path style="opacity:1" fill="#7162d7" d="M 76.5,71.5 C 78.2161,71.6287 79.8828,71.962 81.5,72.5C 85.0048,72.6941 85.3382,73.6941 82.5,75.5C 81.5,75.8333 80.8333,76.5 80.5,77.5C 79.5233,80.2869 79.19,83.2869 79.5,86.5C 78.5,86.5 77.5,86.5 76.5,86.5C 76.5,81.5 76.5,76.5 76.5,71.5 Z"/></g>
<g><path style="opacity:1" fill="#7565d8" d="M 109.5,72.5 C 110.5,72.5 111.5,72.5 112.5,72.5C 112.5,77.8333 112.5,83.1667 112.5,88.5C 110.275,93.1087 106.609,94.6087 101.5,93C 98.1825,91.9148 97.8492,90.4148 100.5,88.5C 104.2,91.5249 107.2,91.0249 109.5,87C 108.667,85.2156 107.667,85.2156 106.5,87C 98.1941,86.6798 95.3607,82.5131 98,74.5C 101.397,71.0193 105.064,70.686 109,73.5C 109.399,73.2716 109.565,72.9382 109.5,72.5 Z"/></g>
<g><path style="opacity:1" fill="#ccc7f0" d="M 109.5,72.5 C 110.568,71.5655 111.901,71.2322 113.5,71.5C 113.822,77.358 113.489,83.0247 112.5,88.5C 112.5,83.1667 112.5,77.8333 112.5,72.5C 111.5,72.5 110.5,72.5 109.5,72.5 Z"/></g>
<g><path style="opacity:1" fill="#8477dc" d="M 135.5,72.5 C 133.564,76.7147 132.897,81.3814 133.5,86.5C 133.167,86.5 132.833,86.5 132.5,86.5C 132.5,81.5 132.5,76.5 132.5,71.5C 133.791,71.2627 134.791,71.596 135.5,72.5 Z"/></g>
<g><path style="opacity:1" fill="#aca4e8" d="M 90.5,71.5 C 92.1667,71.5 93.8333,71.5 95.5,71.5C 95.5,72.8333 95.5,74.1667 95.5,75.5C 93.8333,75.5 92.1667,75.5 90.5,75.5C 91.7175,74.8386 93.0508,74.1719 94.5,73.5C 93.0508,72.8281 91.7175,72.1614 90.5,71.5 Z"/></g>
<g><path style="opacity:1" fill="#f8f7fc" d="M 102.5,74.5 C 109.486,74.331 111.153,77.1643 107.5,83C 100.237,83.8209 98.5705,80.9876 102.5,74.5 Z"/></g>
<g><path style="opacity:1" fill="#6d5fd6" d="M 41.5,64.5 C 28.0053,67.6596 20.0053,75.9929 17.5,89.5C 9.80686,76.754 12.8069,67.254 26.5,61C 32.2246,59.6765 37.2246,60.8432 41.5,64.5 Z"/></g>
<g><path style="opacity:1" fill="#c4639e" d="M 47.5,77.5 C 47.6716,78.4916 47.3382,79.1583 46.5,79.5C 43.0712,77.7486 39.4045,77.2486 35.5,78C 32.972,80.4088 31.6387,83.4088 31.5,87C 31.3866,88.6991 32.0532,89.8658 33.5,90.5C 33.427,92.0269 34.0937,93.0269 35.5,93.5C 34.7377,95.2624 33.4044,96.2624 31.5,96.5C 30.9963,92.8153 30.3296,89.1486 29.5,85.5C 30.535,82.4247 31.8683,79.4247 33.5,76.5C 35.1056,75.9234 36.7722,75.5901 38.5,75.5C 41.506,76.1792 44.506,76.8458 47.5,77.5 Z"/></g>
<g><path style="opacity:1" fill="#c6c1ef" d="M 136.5,76.5 C 136.5,80.1667 136.5,83.8333 136.5,87.5C 134.901,87.7678 133.568,87.4345 132.5,86.5C 132.833,86.5 133.167,86.5 133.5,86.5C 135.119,83.4521 136.119,80.1188 136.5,76.5 Z"/></g>
<g><path style="opacity:1" fill="#bfb7ec" d="M 142.5,76.5 C 143.479,79.6248 143.813,82.9581 143.5,86.5C 144.5,86.5 145.5,86.5 146.5,86.5C 145.432,87.4345 144.099,87.7678 142.5,87.5C 142.5,83.8333 142.5,80.1667 142.5,76.5 Z"/></g>
<g><path style="opacity:1" fill="#7f57cd" d="M 41.5,64.5 C 44.0862,65.6385 45.7529,67.6385 46.5,70.5C 41.4795,70.3877 36.4795,70.8877 31.5,72C 24.8294,77.6583 21.496,84.825 21.5,93.5C 19.1667,93.1667 17.8333,91.8333 17.5,89.5C 20.0053,75.9929 28.0053,67.6596 41.5,64.5 Z"/></g>
<g><path style="opacity:1" fill="#7061d7" d="M 68.5,72.5 C 69.3132,73.6527 70.3132,73.6527 71.5,72.5C 72.8333,77.1667 72.8333,81.8333 71.5,86.5C 70.3132,85.3473 69.3132,85.3473 68.5,86.5C 59.8862,88.0504 56.3862,84.3837 58,75.5C 60.6895,71.5814 64.1895,70.5814 68.5,72.5 Z"/></g>
<g><path style="opacity:1" fill="#f4f2fb" d="M 62.5,74.5 C 69.6275,74.7063 71.2942,77.873 67.5,84C 61.4983,84.9931 59.3317,82.4931 61,76.5C 61.7172,75.9558 62.2172,75.2891 62.5,74.5 Z"/></g>
<g><path style="opacity:1" fill="#6d5ed6" d="M 90.5,71.5 C 91.7175,72.1614 93.0508,72.8281 94.5,73.5C 93.0508,74.1719 91.7175,74.8386 90.5,75.5C 90.1936,78.3854 90.5269,81.0521 91.5,83.5C 95.6078,85.3299 95.2745,86.3299 90.5,86.5C 89.2502,86.4226 88.4169,85.756 88,84.5C 87.5006,78.8431 87.3339,73.1764 87.5,67.5C 88.5,67.5 89.5,67.5 90.5,67.5C 90.5,68.8333 90.5,70.1667 90.5,71.5 Z"/></g>
<g><path style="opacity:1" fill="#7363d8" d="M 130.5,80.5 C 126.445,80.1758 122.445,80.5091 118.5,81.5C 118.624,82.1067 118.957,82.44 119.5,82.5C 120.134,83.9468 121.301,84.6134 123,84.5C 125.235,83.5505 127.402,83.5505 129.5,84.5C 125.093,88.4101 120.76,88.4101 116.5,84.5C 113.24,79.2985 114.24,75.1318 119.5,72C 126.531,70.5349 130.198,73.3682 130.5,80.5 Z"/></g>
<g><path style="opacity:1" fill="#e9e6f9" d="M 120.5,74.5 C 123.596,73.9066 125.929,74.9066 127.5,77.5C 124.5,78.8333 121.5,78.8333 118.5,77.5C 119.193,76.4822 119.859,75.4822 120.5,74.5 Z"/></g>
<g><path style="opacity:1" fill="#c8c2ef" d="M 130.5,80.5 C 126.833,81.1667 123.167,81.8333 119.5,82.5C 118.957,82.44 118.624,82.1067 118.5,81.5C 122.445,80.5091 126.445,80.1758 130.5,80.5 Z"/></g>
<g><path style="opacity:1" fill="#d86f86" d="M 46.5,79.5 C 46.5,79.8333 46.5,80.1667 46.5,80.5C 37.3495,78.007 33.0162,81.3403 33.5,90.5C 32.0532,89.8658 31.3866,88.6991 31.5,87C 31.6387,83.4088 32.972,80.4088 35.5,78C 39.4045,77.2486 43.0712,77.7486 46.5,79.5 Z"/></g>
<g><path style="opacity:1" fill="#ee8373" d="M 46.5,80.5 C 42.4579,84.54 38.7912,88.8733 35.5,93.5C 34.0937,93.0269 33.427,92.0269 33.5,90.5C 33.0162,81.3403 37.3495,78.007 46.5,80.5 Z"/></g>
<g><path style="opacity:1" fill="#9255c4" d="M 46.5,70.5 C 47.4511,71.9187 47.7845,73.5853 47.5,75.5C 42.0165,72.7168 36.6832,72.8835 31.5,76C 26.4797,81.2401 25.1464,87.4067 27.5,94.5C 26.675,95.3857 25.675,95.719 24.5,95.5C 22.9731,95.573 21.9731,94.9063 21.5,93.5C 21.496,84.825 24.8294,77.6583 31.5,72C 36.4795,70.8877 41.4795,70.3877 46.5,70.5 Z"/></g>
<g><path style="opacity:1" fill="#aba2e7" d="M 91.5,83.5 C 92.8333,83.5 94.1667,83.5 95.5,83.5C 95.5,84.8333 95.5,86.1667 95.5,87.5C 93.5853,87.7845 91.9187,87.4511 90.5,86.5C 95.2745,86.3299 95.6078,85.3299 91.5,83.5 Z"/></g>
<g><path style="opacity:1" fill="#ed8072" d="M 46.5,88.5 C 46.1667,92.1667 44.1667,94.1667 40.5,94.5C 40.8333,90.8333 42.8333,88.8333 46.5,88.5 Z"/></g>
<g><path style="opacity:1" fill="#d46e8b" d="M 46.5,88.5 C 47.1667,88.5 47.8333,88.5 48.5,88.5C 48.6495,89.552 48.4828,90.552 48,91.5C 45.5778,93.7496 43.4111,96.0829 41.5,98.5C 40.5655,97.4324 40.2322,96.099 40.5,94.5C 44.1667,94.1667 46.1667,92.1667 46.5,88.5 Z"/></g>
<g><path style="opacity:1" fill="#b765a4" d="M 48.5,88.5 C 50.099,88.2322 51.4324,88.5655 52.5,89.5C 48.5358,92.4701 45.2025,96.1367 42.5,100.5C 41.6618,100.158 41.3284,99.4916 41.5,98.5C 43.4111,96.0829 45.5778,93.7496 48,91.5C 48.4828,90.552 48.6495,89.552 48.5,88.5 Z"/></g>
<g><path style="opacity:1" fill="#775dcd" d="M 52.5,89.5 C 55.9168,92.5834 56.4168,96.25 54,100.5C 49.9719,104.388 46.1385,104.388 42.5,100.5C 45.2025,96.1367 48.5358,92.4701 52.5,89.5 Z"/></g>
</svg>
