<?xml version="1.0" encoding="UTF-8"?>
<!DOCTYPE svg PUBLIC "-//W3C//DTD SVG 1.1//EN" "http://www.w3.org/Graphics/SVG/1.1/DTD/svg11.dtd">
<svg xmlns="http://www.w3.org/2000/svg" version="1.1" width="160px" height="160px" style="shape-rendering:geometricPrecision; text-rendering:geometricPrecision; image-rendering:optimizeQuality; fill-rule:evenodd; clip-rule:evenodd" xmlns:xlink="http://www.w3.org/1999/xlink">
<g><path style="opacity:1" fill="#137baf" d="M -0.5,-0.5 C 52.8333,-0.5 106.167,-0.5 159.5,-0.5C 159.5,52.8333 159.5,106.167 159.5,159.5C 106.167,159.5 52.8333,159.5 -0.5,159.5C -0.5,106.167 -0.5,52.8333 -0.5,-0.5 Z"/></g>
<g><path style="opacity:1" fill="#8dbfd8" d="M 108.5,119.5 C 108.5,93.1667 108.5,66.8333 108.5,40.5C 88.5,40.5 68.5,40.5 48.5,40.5C 48.5,66.8333 48.5,93.1667 48.5,119.5C 47.5021,93.0052 47.1688,66.3386 47.5,39.5C 68.1667,39.5 88.8333,39.5 109.5,39.5C 109.831,66.3386 109.498,93.0052 108.5,119.5 Z"/></g>
<g><path style="opacity:1" fill="#f6f9fb" d="M 108.5,119.5 C 88.5,119.5 68.5,119.5 48.5,119.5C 48.5,93.1667 48.5,66.8333 48.5,40.5C 68.5,40.5 88.5,40.5 108.5,40.5C 108.5,66.8333 108.5,93.1667 108.5,119.5 Z"/></g>
<g><path style="opacity:1" fill="#1c7db0" d="M 105.5,48.5 C 106.498,71.3273 106.831,94.3273 106.5,117.5C 87.8333,117.5 69.1667,117.5 50.5,117.5C 50.2865,115.856 50.6198,114.356 51.5,113C 67.9292,105.377 83.0959,95.8766 97,84.5C 97.6347,82.3646 97.3014,80.3646 96,78.5C 90.5183,75.1852 86.685,70.5186 84.5,64.5C 83.8165,64.8627 83.1499,65.1961 82.5,65.5C 81.1667,65.5 80.5,64.8333 80.5,63.5C 88.6676,58.2484 97.0009,53.2484 105.5,48.5 Z"/></g>
<g><path style="opacity:1" fill="#cbe1ed" d="M 105.5,48.5 C 105.56,47.9569 105.893,47.6236 106.5,47.5C 107.829,70.9965 107.829,94.3299 106.5,117.5C 106.831,94.3273 106.498,71.3273 105.5,48.5 Z"/></g>
<g><path style="opacity:1" fill="#187cb0" d="M 50.5,42.5 C 69.1667,42.5 87.8333,42.5 106.5,42.5C 106.439,44.5922 105.439,46.0922 103.5,47C 94.8333,51.6667 86.1667,56.3333 77.5,61C 71.0959,64.7346 65.2626,69.2346 60,74.5C 59.2937,76.9712 59.627,79.3046 61,81.5C 64.2974,83.7954 67.2974,86.462 70,89.5C 70.4828,90.448 70.6495,91.448 70.5,92.5C 71.0527,94.5518 72.0527,94.8852 73.5,93.5C 74.391,92.8902 75.391,92.5569 76.5,92.5C 77.4916,92.3284 78.1583,92.6618 78.5,93.5C 70.0422,99.9029 61.0422,105.57 51.5,110.5C 50.5025,88.0061 50.1692,65.3395 50.5,42.5 Z"/></g>
<g><path style="opacity:1" fill="#add1e3" d="M 50.5,42.5 C 50.1692,65.3395 50.5025,88.0061 51.5,110.5C 51.44,111.043 51.1067,111.376 50.5,111.5C 49.1714,88.3368 49.1714,65.3368 50.5,42.5 Z"/></g>
<g><path style="opacity:1" fill="#3689b8" d="M 80.5,63.5 C 80.5,64.8333 81.1667,65.5 82.5,65.5C 79.0625,67.1018 76.3958,69.6018 74.5,73C 78.1667,77.3333 81.8333,81.6667 85.5,86C 84.3569,89.6421 82.0236,92.1421 78.5,93.5C 78.1583,92.6618 77.4916,92.3284 76.5,92.5C 77.8333,91.0665 79.3333,89.7332 81,88.5C 81.6667,86.8333 81.6667,85.1667 81,83.5C 76.7308,80.9023 73.5641,77.4023 71.5,73C 73.2767,68.722 76.2767,65.5553 80.5,63.5 Z"/></g>
<g><path style="opacity:1" fill="#8dbfd8" d="M 70.5,92.5 C 71.391,93.1098 72.391,93.4431 73.5,93.5C 72.0527,94.8852 71.0527,94.5518 70.5,92.5 Z"/></g>
</svg>
