<?xml version="1.0" encoding="UTF-8"?>
<!DOCTYPE svg PUBLIC "-//W3C//DTD SVG 1.1//EN" "http://www.w3.org/Graphics/SVG/1.1/DTD/svg11.dtd">
<svg xmlns="http://www.w3.org/2000/svg" version="1.1" width="160px" height="160px" style="shape-rendering:geometricPrecision; text-rendering:geometricPrecision; image-rendering:optimizeQuality; fill-rule:evenodd; clip-rule:evenodd" xmlns:xlink="http://www.w3.org/1999/xlink">
<g><path style="opacity:1" fill="#9aa8a8" d="M -0.5,-0.5 C 52.8333,-0.5 106.167,-0.5 159.5,-0.5C 159.5,52.8333 159.5,106.167 159.5,159.5C 106.167,159.5 52.8333,159.5 -0.5,159.5C -0.5,106.167 -0.5,52.8333 -0.5,-0.5 Z"/></g>
<g><path style="opacity:1" fill="#f6f7f7" d="M 113.5,23.5 C 115.028,23.5173 115.528,24.184 115,25.5C 108.336,29.9116 102.169,34.9116 96.5,40.5C 99.5382,41.9832 101.872,41.1499 103.5,38C 104.5,37.3333 105.5,37.3333 106.5,38C 97.7334,44.7632 89.5667,52.2632 82,60.5C 81.1628,56.7054 81.4961,53.0387 83,49.5C 92.4763,39.8439 102.643,31.1773 113.5,23.5 Z"/></g>
<g><path style="opacity:1" fill="#f9fafa" d="M 116.5,34.5 C 117.376,34.3691 118.043,34.7025 118.5,35.5C 116.167,37.3333 113.833,39.1667 111.5,41C 114.66,40.7982 117.66,40.1315 120.5,39C 106.071,48.9279 93.4048,60.7612 82.5,74.5C 80.7369,69.9134 81.5703,65.9134 85,62.5C 94.4535,51.8735 104.953,42.5402 116.5,34.5 Z"/></g>
<g><path style="opacity:1" fill="#fdfdfd" d="M 41.5,41.5 C 53.8333,41.5 66.1667,41.5 78.5,41.5C 78.6653,45.1817 78.4986,48.8484 78,52.5C 70.5071,60.3252 64.1738,68.9918 59,78.5C 53.2588,79.4749 47.4254,79.8082 41.5,79.5C 41.5,66.8333 41.5,54.1667 41.5,41.5 Z"/></g>
<g><path style="opacity:1" fill="#f2f4f4" d="M 90.5,37.5 C 91.2389,37.369 91.9056,37.5357 92.5,38C 89.318,41.3493 85.9846,44.516 82.5,47.5C 81.5344,45.604 81.2011,43.604 81.5,41.5C 85.4157,42.0391 88.4157,40.7058 90.5,37.5 Z"/></g>
<g><path style="opacity:1" fill="#fbfbfb" d="M 123.5,42.5 C 125.028,42.5173 125.528,43.184 125,44.5C 123.185,46.4049 121.185,48.0716 119,49.5C 118.202,51.2588 118.369,52.9255 119.5,54.5C 120.891,53.3554 122.224,53.3554 123.5,54.5C 113.1,61.7277 103.434,69.8943 94.5,79C 91.1667,79.6667 87.8333,79.6667 84.5,79C 95.8824,64.9984 108.882,52.8318 123.5,42.5 Z"/></g>
<g><path style="opacity:1" fill="#fbfbfb" d="M 77.5,55.5 C 78.6408,58.6399 78.8075,61.9733 78,65.5C 74.7103,69.9124 71.5437,74.4124 68.5,79C 66.4213,79.8077 64.4213,79.641 62.5,78.5C 67.1326,70.5457 72.1326,62.8791 77.5,55.5 Z"/></g>
<g><path style="opacity:1" fill="#f7f8f8" d="M 126.5,58.5 C 127.573,59.2506 127.74,60.2506 127,61.5C 123.822,62.67 121.322,64.67 119.5,67.5C 121.331,67.326 123.165,66.326 125,64.5C 125.749,65.635 125.583,66.635 124.5,67.5C 119.791,70.8631 115.458,74.6965 111.5,79C 108.167,79.6667 104.833,79.6667 101.5,79C 109.732,71.9244 118.065,65.0911 126.5,58.5 Z"/></g>
<g><path style="opacity:1" fill="#fbfcfc" d="M 77.5,72.5 C 78.4682,74.6074 78.8016,76.9407 78.5,79.5C 76.712,79.7852 75.0453,79.4519 73.5,78.5C 74.4671,76.2099 75.8004,74.2099 77.5,72.5 Z"/></g>
<g><path style="opacity:1" fill="#f9fafa" d="M 121.5,73.5 C 122.552,73.3505 123.552,73.5172 124.5,74C 122.487,77.0688 119.82,78.7354 116.5,79C 118.373,77.2962 120.04,75.4628 121.5,73.5 Z"/></g>
<g><path style="opacity:1" fill="#fcfcfc" d="M 41.5,82.5 C 46.1667,82.5 50.8333,82.5 55.5,82.5C 49.9216,94.3986 45.4216,106.732 42,119.5C 41.5001,107.171 41.3335,94.8378 41.5,82.5 Z"/></g>
<g><path style="opacity:1" fill="#f7f8f8" d="M 59.5,82.5 C 61.604,82.2011 63.604,82.5344 65.5,83.5C 59.1963,94.9118 54.363,106.912 51,119.5C 49.9887,120.337 48.8221,120.67 47.5,120.5C 49.6933,107.254 53.6933,94.5872 59.5,82.5 Z"/></g>
<g><path style="opacity:1" fill="#f7f8f8" d="M 70.5,82.5 C 72.604,82.2011 74.604,82.5344 76.5,83.5C 68.9492,94.937 63.2825,107.27 59.5,120.5C 58.1667,120.5 56.8333,120.5 55.5,120.5C 58.5366,107.057 63.5366,94.39 70.5,82.5 Z"/></g>
<g><path style="opacity:1" fill="#f6f7f7" d="M 81.5,83.5 C 84.5184,83.3354 87.5184,83.502 90.5,84C 87.6415,87.3579 84.9749,90.8579 82.5,94.5C 81.5108,90.8927 81.1774,87.226 81.5,83.5 Z"/></g>
<g><path style="opacity:1" fill="#fbfcfc" d="M 83.5,117.5 C 82.5139,113.03 82.1805,108.363 82.5,103.5C 86.9794,96.0629 92.3127,89.2296 98.5,83C 101.5,82.3333 104.5,82.3333 107.5,83C 97.721,93.2762 89.721,104.776 83.5,117.5 Z"/></g>
<g><path style="opacity:1" fill="#fefefe" d="M 112.5,83.5 C 114.5,83.5 116.5,83.5 118.5,83.5C 118.5,95.5 118.5,107.5 118.5,119.5C 108.319,119.827 98.3194,119.494 88.5,118.5C 94.7737,105.609 102.774,93.9424 112.5,83.5 Z"/></g>
<g><path style="opacity:1" fill="#f9f9f9" d="M 77.5,88.5 C 78.647,92.6463 78.8136,96.9796 78,101.5C 75,107.5 72,113.5 69,119.5C 66.8615,120.769 64.6948,120.769 62.5,119.5C 66.7261,108.716 71.7261,98.383 77.5,88.5 Z"/></g>
<g><path style="opacity:1" fill="#e1e5e5" d="M 82.5,103.5 C 82.1805,108.363 82.5139,113.03 83.5,117.5C 83.2172,118.289 82.7172,118.956 82,119.5C 81.1826,113.984 81.3493,108.65 82.5,103.5 Z"/></g>
<g><path style="opacity:1" fill="#f5f6f6" d="M 77.5,110.5 C 78.4794,113.625 78.8128,116.958 78.5,120.5C 76.396,120.799 74.396,120.466 72.5,119.5C 74.4325,116.634 76.0991,113.634 77.5,110.5 Z"/></g>
<g><path style="opacity:1" fill="#d9dede" d="M 112.5,83.5 C 114.607,82.5318 116.941,82.1984 119.5,82.5C 119.5,95.1667 119.5,107.833 119.5,120.5C 108.813,120.832 98.1459,120.499 87.5,119.5C 87.6236,118.893 87.9569,118.56 88.5,118.5C 98.3194,119.494 108.319,119.827 118.5,119.5C 118.5,107.5 118.5,95.5 118.5,83.5C 116.5,83.5 114.5,83.5 112.5,83.5 Z"/></g>
</svg>
