<?xml version="1.0" encoding="UTF-8"?>
<!DOCTYPE svg PUBLIC "-//W3C//DTD SVG 1.1//EN" "http://www.w3.org/Graphics/SVG/1.1/DTD/svg11.dtd">
<svg xmlns="http://www.w3.org/2000/svg" version="1.1" width="160px" height="160px" style="shape-rendering:geometricPrecision; text-rendering:geometricPrecision; image-rendering:optimizeQuality; fill-rule:evenodd; clip-rule:evenodd" xmlns:xlink="http://www.w3.org/1999/xlink">
<g><path style="opacity:0.999" fill="#dcdfe3" d="M -0.5,-0.5 C 52.8333,-0.5 106.167,-0.5 159.5,-0.5C 159.5,52.8333 159.5,106.167 159.5,159.5C 106.167,159.5 52.8333,159.5 -0.5,159.5C -0.5,106.167 -0.5,52.8333 -0.5,-0.5 Z"/></g>
<g><path style="opacity:1" fill="#0a6e6b" d="M 68.5,41.5 C 81.9104,40.3838 93.4104,44.3838 103,53.5C 103.499,49.5138 103.666,45.5138 103.5,41.5C 108.5,41.5 113.5,41.5 118.5,41.5C 118.5,66.8333 118.5,92.1667 118.5,117.5C 113.5,117.5 108.5,117.5 103.5,117.5C 103.666,113.486 103.499,109.486 103,105.5C 87.342,119.702 70.5086,121.202 52.5,110C 38.3896,97.0584 34.5563,81.5584 41,63.5C 47.1476,52.2017 56.3143,44.8684 68.5,41.5 Z"/></g>
<g><path style="opacity:1" fill="#dbdde1" d="M 99.5,76.5 C 83.218,76.5045 67.218,76.5045 51.5,76.5C 55.5217,60.3349 65.855,53.5016 82.5,56C 92.4203,59.4113 98.087,66.2446 99.5,76.5 Z"/></g>
<g><path style="opacity:1" fill="#e5afb8" d="M 51.5,80.5 C 51.5,80.1667 51.5,79.8333 51.5,79.5C 53.1992,79.3398 54.8659,79.5065 56.5,80C 56,80.5 55.5,81 55,81.5C 53.9887,80.6634 52.8221,80.33 51.5,80.5 Z"/></g>
<g><path style="opacity:1" fill="#ed7c87" d="M 99.5,79.5 C 99.5,80.1667 99.5,80.8333 99.5,81.5C 98.8501,81.1961 98.1835,80.8627 97.5,80.5C 96.8333,82.1667 96.1667,83.8333 95.5,85.5C 93.8827,85.3306 92.216,84.9972 90.5,84.5C 93.1667,83.1667 93.1667,81.8333 90.5,80.5C 93.4281,79.5159 96.4281,79.1826 99.5,79.5 Z"/></g>
<g><path style="opacity:1" fill="#ed455b" d="M 51.5,76.5 C 67.218,76.5045 83.218,76.5045 99.5,76.5C 99.5,77.5 99.5,78.5 99.5,79.5C 96.4281,79.1826 93.4281,79.5159 90.5,80.5C 93.1667,81.8333 93.1667,83.1667 90.5,84.5C 92.216,84.9972 93.8827,85.3306 95.5,85.5C 96.1667,83.8333 96.8333,82.1667 97.5,80.5C 98.1835,80.8627 98.8501,81.1961 99.5,81.5C 99.2785,84.0673 98.6118,86.4006 97.5,88.5C 95.7526,88.4074 93.9193,88.074 92,87.5C 91.5,88 91,88.5 90.5,89C 92.9739,89.0367 94.9739,89.87 96.5,91.5C 93.1996,92.093 89.8663,92.7597 86.5,93.5C 89.2246,93.8862 91.8913,94.2195 94.5,94.5C 92.2544,95.955 90.2544,97.7883 88.5,100C 86.5983,101.796 84.5983,101.963 82.5,100.5C 80.5,100.5 78.5,100.5 76.5,100.5C 75.8333,100.5 75.1667,100.5 74.5,100.5C 71.6146,100.194 68.9479,100.527 66.5,101.5C 64.2163,101.025 62.2163,100.025 60.5,98.5C 69.7397,98.0716 79.073,97.7382 88.5,97.5C 78.1378,96.7873 67.8044,96.1206 57.5,95.5C 56.8333,95.5 56.5,95.1667 56.5,94.5C 65.708,94.0394 75.0413,93.706 84.5,93.5C 77.2769,92.8174 70.1102,92.1507 63,91.5C 60.5003,91.5433 58.0003,91.8766 55.5,92.5C 55.5,91.8333 55.1667,91.5 54.5,91.5C 57.1995,88.9135 56.8662,87.9135 53.5,88.5C 52.2318,86.0948 51.5651,83.4282 51.5,80.5C 52.8221,80.33 53.9887,80.6634 55,81.5C 55.5,81 56,80.5 56.5,80C 54.8659,79.5065 53.1992,79.3398 51.5,79.5C 51.5,78.5 51.5,77.5 51.5,76.5 Z"/></g>
<g><path style="opacity:1" fill="#ed717e" d="M 66.5,83.5 C 68.5,83.5 70.5,83.5 72.5,83.5C 71.8617,85.46 71.8617,87.2933 72.5,89C 70.5273,89.4955 68.5273,89.6621 66.5,89.5C 66.5,87.5 66.5,85.5 66.5,83.5 Z"/></g>
<g><path style="opacity:1" fill="#e2c0c8" d="M 86.5,83.5 C 88.337,83.6395 88.6704,84.3061 87.5,85.5C 86.7025,85.0431 86.3691,84.3764 86.5,83.5 Z"/></g>
<g><path style="opacity:1" fill="#e2b7c0" d="M 82.5,83.5 C 84.337,83.6395 84.6704,84.3061 83.5,85.5C 82.7025,85.0431 82.3691,84.3764 82.5,83.5 Z"/></g>
<g><path style="opacity:1" fill="#e3b6bf" d="M 74.5,83.5 C 76.337,83.6395 76.6704,84.3061 75.5,85.5C 74.7025,85.0431 74.3691,84.3764 74.5,83.5 Z"/></g>
<g><path style="opacity:1" fill="#e3bac2" d="M 86.5,79.5 C 88.337,79.6395 88.6704,80.3061 87.5,81.5C 86.7025,81.0431 86.3691,80.3764 86.5,79.5 Z"/></g>
<g><path style="opacity:1" fill="#e5a8b2" d="M 74.5,79.5 C 76.604,79.2011 78.604,79.5344 80.5,80.5C 78.9018,80.6097 77.2352,80.943 75.5,81.5C 74.7025,81.0431 74.3691,80.3764 74.5,79.5 Z"/></g>
<g><path style="opacity:1" fill="#e6a6b0" d="M 58.5,79.5 C 63.2137,79.1734 67.8804,79.5067 72.5,80.5C 68.1999,80.6417 63.8666,80.9751 59.5,81.5C 58.7025,81.0431 58.3691,80.3764 58.5,79.5 Z"/></g>
<g><path style="opacity:1" fill="#dca3ad" d="M 54.5,91.5 C 53.596,90.791 53.2627,89.791 53.5,88.5C 56.8662,87.9135 57.1995,88.9135 54.5,91.5 Z"/></g>
<g><path style="opacity:1" fill="#e3bbc4" d="M 58.5,87.5 C 60.7602,88.2376 60.9269,89.2376 59,90.5C 57.2716,89.6477 57.105,88.6477 58.5,87.5 Z"/></g>
<g><path style="opacity:1" fill="#eb909b" d="M 78.5,83.5 C 79.9986,84.6782 80.9986,86.3449 81.5,88.5C 82.6086,87.4104 83.6086,87.4104 84.5,88.5C 78.0831,89.7768 76.0831,89.7768 78.5,88.5C 78.5,86.8333 78.5,85.1667 78.5,83.5 Z"/></g>
<g><path style="opacity:1" fill="#e2bfc7" d="M 86.5,87.5 C 88.337,87.6395 88.6704,88.3061 87.5,89.5C 86.7025,89.0431 86.3691,88.3764 86.5,87.5 Z"/></g>
<g><path style="opacity:1" fill="#df939d" d="M 97.5,88.5 C 97.7373,89.791 97.404,90.791 96.5,91.5C 94.9739,89.87 92.9739,89.0367 90.5,89C 91,88.5 91.5,88 92,87.5C 93.9193,88.074 95.7526,88.4074 97.5,88.5 Z"/></g>
<g><path style="opacity:1" fill="#e6a5af" d="M 56.5,94.5 C 55.6618,94.1583 55.3284,93.4916 55.5,92.5C 58.0003,91.8766 60.5003,91.5433 63,91.5C 70.1102,92.1507 77.2769,92.8174 84.5,93.5C 75.0413,93.706 65.708,94.0394 56.5,94.5 Z"/></g>
<g><path style="opacity:1" fill="#d99fa8" d="M 96.5,91.5 C 96.573,93.0269 95.9063,94.0269 94.5,94.5C 91.8913,94.2195 89.2246,93.8862 86.5,93.5C 89.8663,92.7597 93.1996,92.093 96.5,91.5 Z"/></g>
<g><path style="opacity:1" fill="#e3a4af" d="M 57.5,95.5 C 67.8044,96.1206 78.1378,96.7873 88.5,97.5C 79.073,97.7382 69.7397,98.0716 60.5,98.5C 59.1667,97.8333 58.1667,96.8333 57.5,95.5 Z"/></g>
<g><path style="opacity:1" fill="#e35e6e" d="M 74.5,100.5 C 75.1667,103.167 75.8333,103.167 76.5,100.5C 78.5,100.5 80.5,100.5 82.5,100.5C 82.5858,101.496 82.2524,102.329 81.5,103C 77.1667,103.667 72.8333,103.667 68.5,103C 67.5842,102.722 66.9175,102.222 66.5,101.5C 68.9479,100.527 71.6146,100.194 74.5,100.5 Z"/></g>
<g><path style="opacity:1" fill="#e3b7c0" d="M 74.5,100.5 C 75.1667,100.5 75.8333,100.5 76.5,100.5C 75.8333,103.167 75.1667,103.167 74.5,100.5 Z"/></g>
</svg>
