<?xml version="1.0" encoding="UTF-8"?>
<!DOCTYPE svg PUBLIC "-//W3C//DTD SVG 1.1//EN" "http://www.w3.org/Graphics/SVG/1.1/DTD/svg11.dtd">
<svg xmlns="http://www.w3.org/2000/svg" version="1.1" width="160px" height="160px" style="shape-rendering:geometricPrecision; text-rendering:geometricPrecision; image-rendering:optimizeQuality; fill-rule:evenodd; clip-rule:evenodd" xmlns:xlink="http://www.w3.org/1999/xlink">
<g><path style="opacity:1" fill="#dbdfe3" d="M -0.5,-0.5 C 52.8333,-0.5 106.167,-0.5 159.5,-0.5C 159.5,52.8333 159.5,106.167 159.5,159.5C 106.167,159.5 52.8333,159.5 -0.5,159.5C -0.5,106.167 -0.5,52.8333 -0.5,-0.5 Z"/></g>
<g><path style="opacity:1" fill="#fc1814" d="M 61.5,54.5 C 60.1667,57.8333 60.1667,61.1667 61.5,64.5C 57.1667,64.5 52.8333,64.5 48.5,64.5C 48.4074,62.7526 48.074,60.9193 47.5,59C 49.3281,57.1057 49.3281,54.939 47.5,52.5C 52.6386,48.6951 57.3053,49.3618 61.5,54.5 Z"/></g>
<g><path style="opacity:1" fill="#cf0a09" d="M 47.5,52.5 C 49.3281,54.939 49.3281,57.1057 47.5,59C 48.074,60.9193 48.4074,62.7526 48.5,64.5C 41.3134,64.8245 34.3134,64.4912 27.5,63.5C 34.1497,59.8616 40.8163,56.1949 47.5,52.5 Z"/></g>
<g><path style="opacity:1" fill="#36a3dd" d="M 99.5,61.5 C 96.7562,60.5124 94.4229,59.1791 92.5,57.5C 96.437,55.1933 100.437,52.8599 104.5,50.5C 104.833,50.8333 105.167,51.1667 105.5,51.5C 103.474,54.8968 101.474,58.2301 99.5,61.5 Z"/></g>
<g><path style="opacity:1" fill="#0a4c85" d="M 122.5,58.5 C 120.431,59.8016 118.098,61.4683 115.5,63.5C 112.182,59.1923 109.682,54.5257 108,49.5C 112.61,52.8868 117.443,55.8868 122.5,58.5 Z"/></g>
<g><path style="opacity:1" fill="#ff6c4c" d="M 61.5,54.5 C 67.325,57.2453 72.9916,60.2453 78.5,63.5C 73.0247,64.4889 67.358,64.8222 61.5,64.5C 60.1667,61.1667 60.1667,57.8333 61.5,54.5 Z"/></g>
<g><path style="opacity:1" fill="#0b85ce" d="M 92.5,57.5 C 94.4229,59.1791 96.7562,60.5124 99.5,61.5C 97.1974,66.4463 94.5307,71.1129 91.5,75.5C 91.6309,74.6236 91.2975,73.9569 90.5,73.5C 87.5549,71.8569 84.5549,70.5236 81.5,69.5C 81.6602,71.1992 81.4935,72.8659 81,74.5C 80.8195,71.3054 80.3195,68.3054 79.5,65.5C 79.5,65.1667 79.5,64.8333 79.5,64.5C 83.9926,62.421 88.326,60.0877 92.5,57.5 Z"/></g>
<g><path style="opacity:1" fill="#f5c3c3" d="M 27.5,63.5 C 34.3134,64.4912 41.3134,64.8245 48.5,64.5C 52.8333,64.5 57.1667,64.5 61.5,64.5C 67.358,64.8222 73.0247,64.4889 78.5,63.5C 79.1667,63.5 79.5,63.8333 79.5,64.5C 79.5,64.8333 79.5,65.1667 79.5,65.5C 79.5,65.8333 79.5,66.1667 79.5,66.5C 79.1667,66.5 78.8333,66.5 78.5,66.5C 61.5,65.1667 44.5,65.1667 27.5,66.5C 27.1667,66.5 26.8333,66.5 26.5,66.5C 26.2627,65.209 26.596,64.209 27.5,63.5 Z"/></g>
<g><path style="opacity:1" fill="#0375c0" d="M 122.5,58.5 C 126.112,60.2723 129.612,62.2723 133,64.5C 133.497,67.146 133.664,69.8127 133.5,72.5C 132.603,73.5981 131.77,73.5981 131,72.5C 129.667,73.1667 128.667,74.1667 128,75.5C 127.667,75.1667 127.333,74.8333 127,74.5C 125.595,75.7305 124.429,77.0639 123.5,78.5C 120.566,73.6318 117.9,68.6318 115.5,63.5C 118.098,61.4683 120.431,59.8016 122.5,58.5 Z"/></g>
<g><path style="opacity:1" fill="#24548f" d="M 79.5,65.5 C 80.3195,68.3054 80.8195,71.3054 81,74.5C 81.4935,72.8659 81.6602,71.1992 81.5,69.5C 84.5549,70.5236 87.5549,71.8569 90.5,73.5C 91.2975,73.9569 91.6309,74.6236 91.5,75.5C 87.9885,82.5339 83.9885,89.2006 79.5,95.5C 79.5,85.8333 79.5,76.1667 79.5,66.5C 79.5,66.1667 79.5,65.8333 79.5,65.5 Z"/></g>
<g><path style="opacity:1" fill="#ff6f50" d="M 26.5,66.5 C 26.8333,66.5 27.1667,66.5 27.5,66.5C 29.8333,70.5 32.1667,74.5 34.5,78.5C 33.596,79.209 33.2627,80.209 33.5,81.5C 30.8348,81.7833 28.5014,82.1166 26.5,82.5C 26.5,77.1667 26.5,71.8333 26.5,66.5 Z"/></g>
<g><path style="opacity:1" fill="#f51a12" d="M 78.5,66.5 C 78.8333,66.5 79.1667,66.5 79.5,66.5C 79.5,76.1667 79.5,85.8333 79.5,95.5C 76.5342,97.9884 73.2009,99.9884 69.5,101.5C 67.0749,98.937 64.7416,96.937 62.5,95.5C 67.8333,85.8333 73.1667,76.1667 78.5,66.5 Z"/></g>
<g><path style="opacity:1" fill="#fc1f16" d="M 34.5,78.5 C 37.1002,82.701 39.4335,87.0344 41.5,91.5C 41.1414,93.4846 40.308,94.1513 39,93.5C 36.534,96.9289 33.7007,98.2622 30.5,97.5C 29.4168,97.4606 28.4168,97.1272 27.5,96.5C 26.5067,91.8804 26.1734,87.2137 26.5,82.5C 28.5014,82.1166 30.8348,81.7833 33.5,81.5C 33.2627,80.209 33.596,79.209 34.5,78.5 Z"/></g>
<g><path style="opacity:1" fill="#d1120f" d="M 41.5,91.5 C 44.9748,97.1027 48.4748,102.769 52,108.5C 52.6877,109.332 52.521,109.998 51.5,110.5C 44.2684,106.392 37.2684,102.059 30.5,97.5C 33.7007,98.2622 36.534,96.9289 39,93.5C 40.308,94.1513 41.1414,93.4846 41.5,91.5 Z"/></g>
<g><path style="opacity:1" fill="#3199d6" d="M 133.5,72.5 C 133.831,80.5277 133.498,88.5277 132.5,96.5C 131.817,96.8627 131.15,97.1961 130.5,97.5C 124.355,96.5098 118.022,96.1765 111.5,96.5C 106.014,96.0307 102.681,96.364 101.5,97.5C 101.5,100.167 101.5,102.833 101.5,105.5C 100.209,105.263 99.209,105.596 98.5,106.5C 92.6871,103.426 87.0205,100.093 81.5,96.5C 98.4869,95.5005 115.487,95.1672 132.5,95.5C 129.977,89.6268 126.977,83.9602 123.5,78.5C 124.429,77.0639 125.595,75.7305 127,74.5C 127.333,74.8333 127.667,75.1667 128,75.5C 128.667,74.1667 129.667,73.1667 131,72.5C 131.77,73.5981 132.603,73.5981 133.5,72.5 Z"/></g>
<g><path style="opacity:1" fill="#0674be" d="M 111.5,96.5 C 111.953,97.4584 112.619,98.2917 113.5,99C 113.285,101.559 113.285,104.393 113.5,107.5C 111.031,108.569 108.698,109.902 106.5,111.5C 103.805,109.822 101.139,108.156 98.5,106.5C 99.209,105.596 100.209,105.263 101.5,105.5C 101.5,102.833 101.5,100.167 101.5,97.5C 102.681,96.364 106.014,96.0307 111.5,96.5 Z"/></g>
<g><path style="opacity:1" fill="#09528e" d="M 111.5,96.5 C 118.022,96.1765 124.355,96.5098 130.5,97.5C 124.833,100.833 119.167,104.167 113.5,107.5C 113.285,104.393 113.285,101.559 113.5,99C 112.619,98.2917 111.953,97.4584 111.5,96.5 Z"/></g>
<g><path style="opacity:1" fill="#ff6344" d="M 62.5,95.5 C 64.7416,96.937 67.0749,98.937 69.5,101.5C 68.0351,102.737 66.3684,103.737 64.5,104.5C 62.1572,103.598 60.1572,102.931 58.5,102.5C 59.5957,99.9684 60.9291,97.6351 62.5,95.5 Z"/></g>
<g><path style="opacity:1" fill="#ff8c6e" d="M 58.5,102.5 C 60.1572,102.931 62.1572,103.598 64.5,104.5C 61.3133,106.35 58.1467,108.35 55,110.5C 55.329,107.505 56.4957,104.838 58.5,102.5 Z"/></g>
</svg>
