<?xml version="1.0" encoding="UTF-8"?>
<!DOCTYPE svg PUBLIC "-//W3C//DTD SVG 1.1//EN" "http://www.w3.org/Graphics/SVG/1.1/DTD/svg11.dtd">
<svg xmlns="http://www.w3.org/2000/svg" version="1.1" width="160px" height="160px" style="shape-rendering:geometricPrecision; text-rendering:geometricPrecision; image-rendering:optimizeQuality; fill-rule:evenodd; clip-rule:evenodd" xmlns:xlink="http://www.w3.org/1999/xlink">
<g><path style="opacity:1" fill="#da251d" d="M -0.5,-0.5 C 52.8333,-0.5 106.167,-0.5 159.5,-0.5C 159.5,52.8333 159.5,106.167 159.5,159.5C 106.167,159.5 52.8333,159.5 -0.5,159.5C -0.5,106.167 -0.5,52.8333 -0.5,-0.5 Z"/></g>
<g><path style="opacity:1" fill="#ee938e" d="M 52.5,62.5 C 52.5,62.1667 52.5,61.8333 52.5,61.5C 69.6574,59.0269 86.9907,58.8603 104.5,61C 95.8397,61.1679 87.173,61.0012 78.5,60.5C 69.7568,60.5073 61.0901,61.174 52.5,62.5 Z"/></g>
<g><path style="opacity:1" fill="#fef6f5" d="M 112.5,67.5 C 113.5,67.5 114.5,67.5 115.5,67.5C 115.5,69.1667 115.5,70.8333 115.5,72.5C 116.5,72.5 117.5,72.5 118.5,72.5C 118.5,73.8333 118.5,75.1667 118.5,76.5C 117.5,76.5 116.5,76.5 115.5,76.5C 115.5,78.8333 115.5,81.1667 115.5,83.5C 116.5,83.5 117.5,83.5 118.5,83.5C 118.5,85.1667 118.5,86.8333 118.5,88.5C 116.143,88.6633 113.81,88.4966 111.5,88C 110.874,87.2496 110.374,86.4162 110,85.5C 109.834,81.6695 109.001,78.0028 107.5,74.5C 108.639,71.6395 110.305,69.3061 112.5,67.5 Z"/></g>
<g><path style="opacity:1" fill="#fef3f2" d="M 41.5,72.5 C 45.1817,72.3347 48.8484,72.5014 52.5,73C 53.3081,73.3076 53.9747,73.8076 54.5,74.5C 55.4386,78.7649 55.7719,83.0983 55.5,87.5C 50.52,87.46 45.52,87.46 40.5,87.5C 38.7438,85.8087 38.2438,83.8087 39,81.5C 42.5013,79.6527 46.0013,77.986 49.5,76.5C 48.8333,76.1667 48.1667,75.8333 47.5,75.5C 45.0983,77.049 42.4317,77.7157 39.5,77.5C 39.3915,75.4862 40.0582,73.8195 41.5,72.5 Z"/></g>
<g><path style="opacity:1" fill="#fdeae8" d="M 58.5,72.5 C 61.0792,72.0833 63.2458,72.75 65,74.5C 68.1305,71.8783 71.2972,71.8783 74.5,74.5C 78.3185,71.6092 81.8185,71.9425 85,75.5C 85.4988,79.4862 85.6655,83.4862 85.5,87.5C 83.5,87.5 81.5,87.5 79.5,87.5C 79.5,84.1667 79.5,80.8333 79.5,77.5C 78.1667,77.5 76.8333,77.5 75.5,77.5C 75.665,80.8499 75.4983,84.1832 75,87.5C 73,88.8333 71,88.8333 69,87.5C 68.5017,84.1832 68.335,80.8499 68.5,77.5C 67.5,77.5 66.5,77.5 65.5,77.5C 65.5,80.8333 65.5,84.1667 65.5,87.5C 63.1667,87.5 60.8333,87.5 58.5,87.5C 58.5,82.5 58.5,77.5 58.5,72.5 Z"/></g>
<g><path style="opacity:1" fill="#fdf1f0" d="M 92.5,72.5 C 100.52,70.5514 104.854,73.5514 105.5,81.5C 101.833,81.5 98.1667,81.5 94.5,81.5C 94.5,82.5 94.5,83.5 94.5,84.5C 97.8717,83.5985 101.205,83.5985 104.5,84.5C 101.31,88.087 97.3105,89.2537 92.5,88C 85.8448,82.6568 85.8448,77.4902 92.5,72.5 Z"/></g>
<g><path style="opacity:1" fill="#fbdddb" d="M 52.5,61.5 C 52.5,61.8333 52.5,62.1667 52.5,62.5C 39.8882,63.5215 28.3882,67.5215 18,74.5C 15.1318,80.4598 16.6318,84.9598 22.5,88C 25.9605,90.0655 29.6272,91.5655 33.5,92.5C 33.5,93.1667 33.1667,93.5 32.5,93.5C 25.4131,92.3729 19.5798,89.0395 15,83.5C 13,80.8333 13,78.1667 15,75.5C 19.043,71.123 23.8763,67.9564 29.5,66C 36.964,63.4072 44.6307,61.9072 52.5,61.5 Z"/></g>
<g><path style="opacity:1" fill="#de3e32" d="M 95.5,75.5 C 97.3464,75.2222 98.6798,75.8888 99.5,77.5C 97.8333,78.8333 96.1667,78.8333 94.5,77.5C 94.8627,76.8165 95.1961,76.1499 95.5,75.5 Z"/></g>
<g><path style="opacity:1" fill="#fad3d0" d="M 129.5,92.5 C 128.833,92.5 128.5,92.1667 128.5,91.5C 133.178,90.0778 137.345,87.7444 141,84.5C 143,81.1667 143,77.8333 141,74.5C 137.032,71.0982 132.532,68.5982 127.5,67C 120.256,64.9511 112.922,63.2844 105.5,62C 117.121,61.9884 128.121,64.655 138.5,70C 147.815,76.3835 147.815,82.7168 138.5,89C 135.673,90.6636 132.673,91.8303 129.5,92.5 Z"/></g>
<g><path style="opacity:1" fill="#db2f26" d="M 45.5,81.5 C 50.2761,81.6708 50.6095,82.6708 46.5,84.5C 44.1966,84.1237 43.8632,83.1237 45.5,81.5 Z"/></g>
<g><path style="opacity:1" fill="#f2a8a3" d="M 128.5,91.5 C 128.5,92.1667 128.833,92.5 129.5,92.5C 118.311,96.6973 106.644,98.5306 94.5,98C 106.134,97.1728 117.468,95.0061 128.5,91.5 Z"/></g>
<g><path style="opacity:1" fill="#f09d98" d="M 33.5,92.5 C 53.1718,97.3338 73.1718,99.5005 93.5,99C 82.5,99.6667 71.5,99.6667 60.5,99C 50.8095,98.3129 41.4762,96.4796 32.5,93.5C 33.1667,93.5 33.5,93.1667 33.5,92.5 Z"/></g>
</svg>
