<?xml version="1.0" encoding="UTF-8"?>
<!DOCTYPE svg PUBLIC "-//W3C//DTD SVG 1.1//EN" "http://www.w3.org/Graphics/SVG/1.1/DTD/svg11.dtd">
<svg xmlns="http://www.w3.org/2000/svg" version="1.1" width="160px" height="158px" style="shape-rendering:geometricPrecision; text-rendering:geometricPrecision; image-rendering:optimizeQuality; fill-rule:evenodd; clip-rule:evenodd" xmlns:xlink="http://www.w3.org/1999/xlink">
<g><path style="opacity:1" fill="#fdfdfe" d="M -0.5,-0.5 C 52.8333,-0.5 106.167,-0.5 159.5,-0.5C 159.5,52.1667 159.5,104.833 159.5,157.5C 106.167,157.5 52.8333,157.5 -0.5,157.5C -0.5,104.833 -0.5,52.1667 -0.5,-0.5 Z"/></g>
<g><path style="opacity:1" fill="#174368" d="M 61.5,153.5 C 61.5,154.167 61.1667,154.5 60.5,154.5C 26.8463,145.011 7.01301,123.011 1,88.5C -1.76425,49.5129 14.4024,21.6795 49.5,5C 53.7077,3.14609 58.0411,2.14609 62.5,2C 55.8764,11.4132 49.3764,20.9132 43,30.5C 32.6323,40.5362 21.9656,50.2029 11,59.5C 2.11983,72.7285 2.45316,85.7285 12,98.5C 17.2095,103.378 22.7095,107.878 28.5,112C 34,117.5 39.5,123 45,128.5C 50.5236,136.899 56.0236,145.232 61.5,153.5 Z"/></g>
<g><path style="opacity:1" fill="#184368" d="M 95.5,2.5 C 119.063,6.48755 136.897,19.1542 149,40.5C 165.412,76.4368 159.912,108.603 132.5,137C 122.254,146.457 110.254,152.124 96.5,154C 102.629,144.24 109.129,134.74 116,125.5C 126.368,115.464 137.034,105.797 148,96.5C 157.185,82.985 156.518,69.985 146,57.5C 141.123,52.954 135.956,48.7873 130.5,45C 117.805,34.077 107.638,21.2437 100,6.5C 98.6288,4.95862 97.1288,3.62529 95.5,2.5 Z"/></g>
<g><path style="opacity:1" fill="#889fb2" d="M 61.5,153.5 C 62.2891,153.783 62.9558,154.283 63.5,155C 62.2506,155.74 61.2506,155.573 60.5,154.5C 61.1667,154.5 61.5,154.167 61.5,153.5 Z"/></g>
</svg>
