<?xml version="1.0" encoding="UTF-8"?>
<!DOCTYPE svg PUBLIC "-//W3C//DTD SVG 1.1//EN" "http://www.w3.org/Graphics/SVG/1.1/DTD/svg11.dtd">
<svg xmlns="http://www.w3.org/2000/svg" version="1.1" width="160px" height="160px" style="shape-rendering:geometricPrecision; text-rendering:geometricPrecision; image-rendering:optimizeQuality; fill-rule:evenodd; clip-rule:evenodd" xmlns:xlink="http://www.w3.org/1999/xlink">
<g><path style="opacity:1" fill="#000000" d="M -0.5,-0.5 C 52.8333,-0.5 106.167,-0.5 159.5,-0.5C 159.5,52.8333 159.5,106.167 159.5,159.5C 106.167,159.5 52.8333,159.5 -0.5,159.5C -0.5,106.167 -0.5,52.8333 -0.5,-0.5 Z"/></g>
<g><path style="opacity:1" fill="#fafafa" d="M 46.5,96.5 C 53.0885,97.1831 60.4218,97.5165 68.5,97.5C 76.1667,97.1667 83.8333,96.8333 91.5,96.5C 91.3764,95.8933 91.0431,95.56 90.5,95.5C 87.5375,92.0359 84.3709,88.7025 81,85.5C 80.3333,73.1667 80.3333,60.8333 81,48.5C 99.0446,69.7064 116.878,91.0398 134.5,112.5C 97.6629,112.832 60.9962,112.498 24.5,111.5C 42.4219,88.3994 60.5886,65.3994 79,42.5C 79.6667,46.5 79.6667,50.5 79,54.5C 67.9161,68.3494 57.0827,82.3494 46.5,96.5 Z"/></g>
<g><path style="opacity:1" fill="#393939" d="M 90.5,95.5 C 91.0431,95.56 91.3764,95.8933 91.5,96.5C 83.8333,96.8333 76.1667,97.1667 68.5,97.5C 60.4218,97.5165 53.0885,97.1831 46.5,96.5C 61.3428,96.8293 76.0095,96.496 90.5,95.5 Z"/></g>
<g><path style="opacity:1" fill="#575757" d="M 24.5,111.5 C 60.9962,112.498 97.6629,112.832 134.5,112.5C 116.906,113.173 98.5723,113.506 79.5,113.5C 60.8333,113.167 42.1667,112.833 23.5,112.5C 23.6236,111.893 23.9569,111.56 24.5,111.5 Z"/></g>
</svg>
