<svg viewBox="0 0 48 48" xmlns="http://www.w3.org/2000/svg"><g fill="none" fill-rule="evenodd"><path fill="#F2F3F4" d="M0 0h48v48H0z"/><path d="M17.653 17.653L24 5.973l6.347 11.68s-3.467-1.28-6.347-1.28a18.46 18.46 0 00-6.347 1.28" fill="#FFA200"/><path d="M17.653 30.347L5.973 24l11.68-6.347s-1.28 3.467-1.28 6.347a18.46 18.46 0 001.28 6.347m12.694 0L24 42.027l-6.347-11.68S21.12 31.573 24 31.573c2.187 0 4.32-.426 6.347-1.226m0-12.694L42.027 24l-11.68 6.347S31.573 26.88 31.573 24c0-2.187-.426-4.32-1.226-6.347" fill="#6DCF00"/></g></svg>