<?xml version="1.0" encoding="UTF-8"?>
<!DOCTYPE svg PUBLIC "-//W3C//DTD SVG 1.1//EN" "http://www.w3.org/Graphics/SVG/1.1/DTD/svg11.dtd">
<svg xmlns="http://www.w3.org/2000/svg" version="1.1" width="160px" height="160px" style="shape-rendering:geometricPrecision; text-rendering:geometricPrecision; image-rendering:optimizeQuality; fill-rule:evenodd; clip-rule:evenodd" xmlns:xlink="http://www.w3.org/1999/xlink">
<g><path style="opacity:1" fill="#000000" d="M -0.5,-0.5 C 52.8333,-0.5 106.167,-0.5 159.5,-0.5C 159.5,52.8333 159.5,106.167 159.5,159.5C 106.167,159.5 52.8333,159.5 -0.5,159.5C -0.5,106.167 -0.5,52.8333 -0.5,-0.5 Z"/></g>
<g><path style="opacity:1" fill="#dc3f29" d="M 106.5,68.5 C 91.2139,57.8792 76.2139,46.8792 61.5,35.5C 72.6443,26.7203 84.3109,26.2203 96.5,34C 107.643,43.2587 110.976,54.7587 106.5,68.5 Z"/></g>
<g><path style="opacity:1" fill="#db352c" d="M 61.5,35.5 C 76.2139,46.8792 91.2139,57.8792 106.5,68.5C 104.267,73.401 100.934,77.401 96.5,80.5C 81.8333,69.8333 67.1667,59.1667 52.5,48.5C 53.7602,42.985 56.7602,38.6517 61.5,35.5 Z"/></g>
<g><path style="opacity:1" fill="#d72c2e" d="M 52.5,48.5 C 67.1667,59.1667 81.8333,69.8333 96.5,80.5C 81.4353,90.0022 67.9353,88.0022 56,74.5C 50.3232,66.3129 49.1566,57.6462 52.5,48.5 Z"/></g>
<g><path style="opacity:1" fill="#d5262f" d="M 88.5,95.5 C 87.7611,95.369 87.0944,95.5357 86.5,96C 89.5785,101.323 92.2451,106.823 94.5,112.5C 92.7078,113.309 90.7078,113.809 88.5,114C 81.1667,114.667 73.8333,114.667 66.5,114C 60.8537,113.553 56.0204,111.387 52,107.5C 51.5065,105.866 51.3398,104.199 51.5,102.5C 56.5155,97.9849 62.5155,95.4849 69.5,95C 76.0137,94.18 82.3471,94.3467 88.5,95.5 Z"/></g>
<g><path style="opacity:1" fill="#dc402a" d="M 88.5,95.5 C 95.8476,95.6236 102.348,97.9569 108,102.5C 108.49,103.793 108.657,105.127 108.5,106.5C 104.569,110.13 99.9025,112.13 94.5,112.5C 92.2451,106.823 89.5785,101.323 86.5,96C 87.0944,95.5357 87.7611,95.369 88.5,95.5 Z"/></g>
<g><path style="opacity:1" fill="#a12531" d="M 51.5,102.5 C 51.3398,104.199 51.5065,105.866 52,107.5C 56.0204,111.387 60.8537,113.553 66.5,114C 73.8333,114.667 81.1667,114.667 88.5,114C 90.7078,113.809 92.7078,113.309 94.5,112.5C 99.9025,112.13 104.569,110.13 108.5,106.5C 108.607,108.903 107.607,110.736 105.5,112C 102.583,113.528 99.5833,114.861 96.5,116C 86.8696,117.411 77.203,117.744 67.5,117C 61.0641,116.416 55.5641,113.916 51,109.5C 50.2042,106.961 50.3709,104.628 51.5,102.5 Z"/></g>
<g><path style="opacity:1" fill="#992430" d="M 53.5,125.5 C 69.1702,125.333 84.8369,125.5 100.5,126C 110.946,127.116 110.946,128.449 100.5,130C 86.1667,130.667 71.8333,130.667 57.5,130C 55.236,129.764 53.0693,129.264 51,128.5C 50.8333,128.167 50.6667,127.833 50.5,127.5C 51.6016,126.824 52.6016,126.158 53.5,125.5 Z"/></g>
</svg>
