<?xml version="1.0" encoding="UTF-8"?>
<!DOCTYPE svg PUBLIC "-//W3C//DTD SVG 1.1//EN" "http://www.w3.org/Graphics/SVG/1.1/DTD/svg11.dtd">
<svg xmlns="http://www.w3.org/2000/svg" version="1.1" width="160px" height="160px" style="shape-rendering:geometricPrecision; text-rendering:geometricPrecision; image-rendering:optimizeQuality; fill-rule:evenodd; clip-rule:evenodd" xmlns:xlink="http://www.w3.org/1999/xlink">
<g><path style="opacity:1" fill="#fecb04" d="M -0.5,-0.5 C 52.8333,-0.5 106.167,-0.5 159.5,-0.5C 159.5,52.8333 159.5,106.167 159.5,159.5C 106.167,159.5 52.8333,159.5 -0.5,159.5C -0.5,106.167 -0.5,52.8333 -0.5,-0.5 Z"/></g>
<g><path style="opacity:1" fill="#fefcf8" d="M 73.5,27.5 C 76.5184,27.3354 79.5184,27.502 82.5,28C 97.5555,44.0578 113.056,59.8912 129,75.5C 129.667,77.5 129.667,79.5 129,81.5C 112.833,97.6667 96.6667,113.833 80.5,130C 78.8333,130.667 77.1667,130.667 75.5,130C 58.2594,113.261 41.5927,96.0947 25.5,78.5C 25.7189,77.062 26.2189,75.7287 27,74.5C 42.7018,58.9652 58.2018,43.2986 73.5,27.5 Z"/></g>
<g><path style="opacity:1" fill="#fecc14" d="M 76.5,36.5 C 77.552,36.3505 78.552,36.5172 79.5,37C 93.4084,50.406 106.742,64.2394 119.5,78.5C 107.075,92.4272 94.0752,105.927 80.5,119C 78.8333,119.667 77.1667,119.667 75.5,119C 61.9248,105.927 48.9248,92.4272 36.5,78.5C 36.6667,77.8333 36.8333,77.1667 37,76.5C 50.3686,63.2985 63.5353,49.9652 76.5,36.5 Z"/></g>
<g><path style="opacity:1" fill="#dbd7c3" d="M 67.5,56.5 C 66.8333,57.8333 65.8333,58.8333 64.5,59.5C 64.5,57.5 65.5,56.5 67.5,56.5 Z"/></g>
<g><path style="opacity:1" fill="#1d1b1d" d="M 86.5,60.5 C 88.8333,60.5 91.1667,60.5 93.5,60.5C 94.038,62.1172 94.3713,63.7839 94.5,65.5C 94.4326,66.9587 94.7659,68.2921 95.5,69.5C 93.2104,70.8668 91.5437,70.2002 90.5,67.5C 92.0875,65.3806 91.7542,63.714 89.5,62.5C 89.0799,65.6163 88.0799,68.2829 86.5,70.5C 86.5,67.1667 86.5,63.8333 86.5,60.5 Z"/></g>
<g><path style="opacity:1" fill="#b1aba5" d="M 93.5,60.5 C 95.5969,61.8786 95.9302,63.5453 94.5,65.5C 94.3713,63.7839 94.038,62.1172 93.5,60.5 Z"/></g>
<g><path style="opacity:1" fill="#838282" d="M 86.5,60.5 C 86.5,63.8333 86.5,67.1667 86.5,70.5C 85.8333,70.5 85.1667,70.5 84.5,70.5C 84.5,67.8333 84.5,65.1667 84.5,62.5C 85.1667,61.8333 85.8333,61.1667 86.5,60.5 Z"/></g>
<g><path style="opacity:1" fill="#1c1a1b" d="M 84.5,62.5 C 84.5,65.1667 84.5,67.8333 84.5,70.5C 82.1432,70.6633 79.8098,70.4966 77.5,70C 75.6185,66.0242 76.9518,63.8575 81.5,63.5C 80.1667,62.8333 78.8333,62.1667 77.5,61.5C 78.5,61.1667 79.5,60.8333 80.5,60.5C 82.3545,60.3402 83.6879,61.0069 84.5,62.5 Z"/></g>
<g><path style="opacity:1" fill="#eeedeb" d="M 93.5,60.5 C 91.1667,60.5 88.8333,60.5 86.5,60.5C 85.8333,61.1667 85.1667,61.8333 84.5,62.5C 83.6879,61.0069 82.3545,60.3402 80.5,60.5C 79.5,60.8333 78.5,61.1667 77.5,61.5C 78.8333,62.1667 80.1667,62.8333 81.5,63.5C 76.9518,63.8575 75.6185,66.0242 77.5,70C 79.8098,70.4966 82.1432,70.6633 84.5,70.5C 85.1667,70.5 85.8333,70.5 86.5,70.5C 87.209,71.404 88.209,71.7373 89.5,71.5C 89.2322,69.901 89.5655,68.5676 90.5,67.5C 91.5437,70.2002 93.2104,70.8668 95.5,69.5C 98.5,72.1667 101.5,74.8333 104.5,77.5C 104.539,78.7562 104.039,79.7562 103,80.5C 98.0458,77.9343 97.3791,78.9343 101,83.5C 101.494,85.1341 101.66,86.8008 101.5,88.5C 102.5,88.5 103.5,88.5 104.5,88.5C 104.018,85.1694 105.018,82.5027 107.5,80.5C 106.071,83.3084 105.405,86.3084 105.5,89.5C 103.833,89.5 102.167,89.5 100.5,89.5C 100.785,87.712 100.452,86.0453 99.5,84.5C 98.9432,86.3316 97.9432,87.6649 96.5,88.5C 89.9531,93.5382 83.7865,99.2048 78,105.5C 71.8333,99.3333 65.6667,93.1667 59.5,87C 58.2068,86.51 56.8734,86.3433 55.5,86.5C 55.5,87.5 55.5,88.5 55.5,89.5C 53.8333,89.5 52.1667,89.5 50.5,89.5C 50.5,83.8333 50.5,78.1667 50.5,72.5C 52.8568,72.6633 55.1902,72.4966 57.5,72C 59.3333,70.1667 61.1667,68.3333 63,66.5C 63.1862,63.9644 63.6862,61.631 64.5,59.5C 63.0022,67.6662 66.3355,71.3329 74.5,70.5C 74.5,69.5 74.5,68.5 74.5,67.5C 67.464,68.3974 65.7973,65.8974 69.5,60C 71.1341,59.5065 72.8008,59.3398 74.5,59.5C 74.5,58.5 74.5,57.5 74.5,56.5C 72.1667,56.5 69.8333,56.5 67.5,56.5C 69.6979,55.8347 72.0312,55.1681 74.5,54.5C 75.1667,53.1667 76.1667,52.1667 77.5,51.5C 80.3174,53.8167 82.9841,56.3167 85.5,59C 88.3647,59.1829 91.0314,59.6829 93.5,60.5 Z"/></g>
<g><path style="opacity:1" fill="#eeeeee" d="M 78.5,66.5 C 79.675,66.281 80.675,66.6143 81.5,67.5C 79.9483,68.7979 78.9483,68.4646 78.5,66.5 Z"/></g>
<g><path style="opacity:1" fill="#8d8b8b" d="M 90.5,67.5 C 89.5655,68.5676 89.2322,69.901 89.5,71.5C 88.209,71.7373 87.209,71.404 86.5,70.5C 88.0799,68.2829 89.0799,65.6163 89.5,62.5C 91.7542,63.714 92.0875,65.3806 90.5,67.5 Z"/></g>
<g><path style="opacity:1" fill="#201d1f" d="M 67.5,56.5 C 69.8333,56.5 72.1667,56.5 74.5,56.5C 74.5,57.5 74.5,58.5 74.5,59.5C 72.8008,59.3398 71.1341,59.5065 69.5,60C 65.7973,65.8974 67.464,68.3974 74.5,67.5C 74.5,68.5 74.5,69.5 74.5,70.5C 66.3355,71.3329 63.0022,67.6662 64.5,59.5C 65.8333,58.8333 66.8333,57.8333 67.5,56.5 Z"/></g>
<g><path style="opacity:1" fill="#eeebdc" d="M 104.5,77.5 C 105.919,76.5489 107.585,76.2155 109.5,76.5C 109.771,78.3797 109.104,79.713 107.5,80.5C 107.5,79.5 107.5,78.5 107.5,77.5C 106.5,77.5 105.5,77.5 104.5,77.5 Z"/></g>
<g><path style="opacity:1" fill="#585656" d="M 91.5,78.5 C 93.4547,77.0698 95.1214,77.4031 96.5,79.5C 95.596,80.209 95.2627,81.209 95.5,82.5C 90.6108,82.4102 90.2775,81.2435 94.5,79C 93.552,78.5172 92.552,78.3505 91.5,78.5 Z"/></g>
<g><path style="opacity:1" fill="#1f1d1e" d="M 52.5,73.5 C 53.8221,73.33 54.9887,73.6634 56,74.5C 57,76.5 58,78.5 59,80.5C 59.3974,76.2878 61.5641,73.9544 65.5,73.5C 65.5,78.1667 65.5,82.8333 65.5,87.5C 64.5,87.5 63.5,87.5 62.5,87.5C 62.6633,85.1432 62.4966,82.8098 62,80.5C 60.8118,81.5634 60.3118,82.8967 60.5,84.5C 57.6711,84.6751 56.0045,83.3418 55.5,80.5C 54.8333,82.8333 54.1667,85.1667 53.5,87.5C 52.5067,82.8804 52.1734,78.2137 52.5,73.5 Z"/></g>
<g><path style="opacity:1" fill="#242223" d="M 69.5,77.5 C 75.7872,77.9545 77.7872,81.1211 75.5,87C 69.2401,89.4117 66.4068,87.245 67,80.5C 68.045,79.6266 68.8783,78.6266 69.5,77.5 Z"/></g>
<g><path style="opacity:1" fill="#e0dfdf" d="M 70.5,80.5 C 71.5,80.5 72.5,80.5 73.5,80.5C 73.9492,82.9775 73.2825,84.9775 71.5,86.5C 70.5344,84.604 70.2011,82.604 70.5,80.5 Z"/></g>
<g><path style="opacity:1" fill="#242122" d="M 78.5,77.5 C 86.8382,76.5181 89.8382,80.1848 87.5,88.5C 86.5,88.5 85.5,88.5 84.5,88.5C 84.6633,86.1432 84.4966,83.8098 84,81.5C 83.586,81.0426 83.086,80.7093 82.5,80.5C 81.52,83.0865 81.1866,85.7531 81.5,88.5C 80.5,88.5 79.5,88.5 78.5,88.5C 78.5,84.8333 78.5,81.1667 78.5,77.5 Z"/></g>
<g><path style="opacity:1" fill="#1f1d21" d="M 104.5,77.5 C 105.5,77.5 106.5,77.5 107.5,77.5C 107.5,78.5 107.5,79.5 107.5,80.5C 105.018,82.5027 104.018,85.1694 104.5,88.5C 103.5,88.5 102.5,88.5 101.5,88.5C 101.66,86.8008 101.494,85.1341 101,83.5C 97.3791,78.9343 98.0458,77.9343 103,80.5C 104.039,79.7562 104.539,78.7562 104.5,77.5 Z"/></g>
<g><path style="opacity:1" fill="#282627" d="M 91.5,78.5 C 92.552,78.3505 93.552,78.5172 94.5,79C 90.2775,81.2435 90.6108,82.4102 95.5,82.5C 95.2627,81.209 95.596,80.209 96.5,79.5C 97.3007,81.0418 97.634,82.7085 97.5,84.5C 91.8333,84.6636 91.5,84.9969 96.5,85.5C 96.5,86.5 96.5,87.5 96.5,88.5C 89.9999,89.5013 87.4999,86.8347 89,80.5C 89.7083,79.6195 90.5416,78.9528 91.5,78.5 Z"/></g>
</svg>
