<?xml version="1.0" encoding="UTF-8"?>
<!DOCTYPE svg PUBLIC "-//W3C//DTD SVG 1.1//EN" "http://www.w3.org/Graphics/SVG/1.1/DTD/svg11.dtd">
<svg xmlns="http://www.w3.org/2000/svg" version="1.1" width="160px" height="160px" style="shape-rendering:geometricPrecision; text-rendering:geometricPrecision; image-rendering:optimizeQuality; fill-rule:evenodd; clip-rule:evenodd" xmlns:xlink="http://www.w3.org/1999/xlink">
<g><path style="opacity:0.016" fill="#0980de" d="M 57.5,0.5 C 57.5,0.166667 57.5,-0.166667 57.5,-0.5C 58.5,-0.5 59.5,-0.5 60.5,-0.5C 59.791,0.403972 58.791,0.737305 57.5,0.5 Z"/></g>
<g><path style="opacity:0.993" fill="#0388de" d="M 66.5,-0.5 C 75.1667,-0.5 83.8333,-0.5 92.5,-0.5C 95.2727,0.657188 98.2727,1.32385 101.5,1.5C 109.033,4.26436 116.366,7.5977 123.5,11.5C 123.5,12.1667 123.833,12.5 124.5,12.5C 126.86,14.8532 129.527,16.8532 132.5,18.5C 132.5,19.1667 132.833,19.5 133.5,19.5C 135.167,21.8333 137.167,23.8333 139.5,25.5C 139.5,26.1667 139.833,26.5 140.5,26.5C 142.147,29.4735 144.147,32.1401 146.5,34.5C 146.5,35.1667 146.833,35.5 147.5,35.5C 150.186,40.8721 152.853,46.2054 155.5,51.5C 155.595,53.7857 156.262,55.7857 157.5,57.5C 157.676,60.7273 158.343,63.7273 159.5,66.5C 159.5,75.1667 159.5,83.8333 159.5,92.5C 158.343,95.2727 157.676,98.2727 157.5,101.5C 156.262,103.214 155.595,105.214 155.5,107.5C 154.596,108.209 154.263,109.209 154.5,110.5C 153.662,110.842 153.328,111.508 153.5,112.5C 152.662,112.842 152.328,113.508 152.5,114.5C 151.662,114.842 151.328,115.508 151.5,116.5C 150.662,116.842 150.328,117.508 150.5,118.5C 149.662,118.842 149.328,119.508 149.5,120.5C 148.833,120.5 148.5,120.833 148.5,121.5C 147.662,121.842 147.328,122.508 147.5,123.5C 146.833,123.5 146.5,123.833 146.5,124.5C 145.662,124.842 145.328,125.508 145.5,126.5C 143.457,127.579 142.124,129.246 141.5,131.5C 140.833,131.5 140.5,131.833 140.5,132.5C 139.833,132.5 139.5,132.833 139.5,133.5C 137.167,135.167 135.167,137.167 133.5,139.5C 132.833,139.5 132.5,139.833 132.5,140.5C 131.833,140.5 131.5,140.833 131.5,141.5C 129.246,142.124 127.579,143.457 126.5,145.5C 125.508,145.328 124.842,145.662 124.5,146.5C 123.833,146.5 123.5,146.833 123.5,147.5C 122.508,147.328 121.842,147.662 121.5,148.5C 120.833,148.5 120.5,148.833 120.5,149.5C 119.508,149.328 118.842,149.662 118.5,150.5C 117.508,150.328 116.842,150.662 116.5,151.5C 115.508,151.328 114.842,151.662 114.5,152.5C 113.508,152.328 112.842,152.662 112.5,153.5C 111.508,153.328 110.842,153.662 110.5,154.5C 109.209,154.263 108.209,154.596 107.5,155.5C 105.214,155.595 103.214,156.262 101.5,157.5C 98.2727,157.676 95.2727,158.343 92.5,159.5C 83.8333,159.5 75.1667,159.5 66.5,159.5C 63.7273,158.343 60.7273,157.676 57.5,157.5C 55.7857,156.262 53.7857,155.595 51.5,155.5C 46.2054,152.853 40.8721,150.186 35.5,147.5C 35.5,146.833 35.1667,146.5 34.5,146.5C 32.1401,144.147 29.4735,142.147 26.5,140.5C 26.5,139.833 26.1667,139.5 25.5,139.5C 23.8333,137.167 21.8333,135.167 19.5,133.5C 19.5,132.833 19.1667,132.5 18.5,132.5C 16.8532,129.527 14.8532,126.86 12.5,124.5C 12.5,123.833 12.1667,123.5 11.5,123.5C 11.6716,122.508 11.3382,121.842 10.5,121.5C 10.0679,120.29 9.40128,119.29 8.5,118.5C 8.67158,117.508 8.33825,116.842 7.5,116.5C 7.3404,114.847 6.67373,113.514 5.5,112.5C 4.5376,108.605 3.20427,104.939 1.5,101.5C 1.32385,98.2727 0.657188,95.2727 -0.5,92.5C -0.5,83.8333 -0.5,75.1667 -0.5,66.5C 0.657188,63.7273 1.32385,60.7273 1.5,57.5C 2.73838,55.7857 3.40505,53.7857 3.5,51.5C 6.14728,46.2054 8.81395,40.8721 11.5,35.5C 12.1667,35.5 12.5,35.1667 12.5,34.5C 14.8532,32.1401 16.8532,29.4735 18.5,26.5C 19.1667,26.5 19.5,26.1667 19.5,25.5C 21.8333,23.8333 23.8333,21.8333 25.5,19.5C 26.1667,19.5 26.5,19.1667 26.5,18.5C 29.4735,16.8532 32.1401,14.8532 34.5,12.5C 35.1667,12.5 35.5,12.1667 35.5,11.5C 42.6335,7.5977 49.9668,4.26436 57.5,1.5C 60.7273,1.32385 63.7273,0.657188 66.5,-0.5 Z"/></g>
<g><path style="opacity:0.016" fill="#0980de" d="M 98.5,-0.5 C 99.5,-0.5 100.5,-0.5 101.5,-0.5C 101.5,-0.166667 101.5,0.166667 101.5,0.5C 100.209,0.737305 99.209,0.403972 98.5,-0.5 Z"/></g>
<g><path style="opacity:0.016" fill="#1975c9" d="M 57.5,0.5 C 57.5,0.833333 57.5,1.16667 57.5,1.5C 53.5,1.16667 53.5,0.833333 57.5,0.5 Z"/></g>
<g><path style="opacity:0.016" fill="#1975c9" d="M 101.5,1.5 C 101.5,1.16667 101.5,0.833333 101.5,0.5C 105.5,0.833333 105.5,1.16667 101.5,1.5 Z"/></g>
<g><path style="opacity:0.012" fill="#007fff" d="M 51.5,2.5 C 51.8966,1.47498 52.5632,1.30831 53.5,2C 52.9056,2.46434 52.2389,2.63101 51.5,2.5 Z"/></g>
<g><path style="opacity:0.012" fill="#007fff" d="M 105.5,2.5 C 105.897,1.47498 106.563,1.30831 107.5,2C 106.906,2.46434 106.239,2.63101 105.5,2.5 Z"/></g>
<g><path style="opacity:0.004" fill="#3359d4" d="M 35.5,11.5 C 34.8333,11.5 34.5,11.8333 34.5,12.5C 32.0248,12.2533 32.0248,11.5866 34.5,10.5C 35.1067,10.6236 35.44,10.9569 35.5,11.5 Z"/></g>
<g><path style="opacity:0.012" fill="#2e64bb" d="M 123.5,11.5 C 124.497,10.2875 125.497,10.4542 126.5,12C 125.906,12.4643 125.239,12.631 124.5,12.5C 123.833,12.5 123.5,12.1667 123.5,11.5 Z"/></g>
<g><path style="opacity:0.004" fill="#235478" d="M 132.5,18.5 C 133.497,17.2875 134.497,17.4542 135.5,19C 134.906,19.4643 134.239,19.631 133.5,19.5C 132.833,19.5 132.5,19.1667 132.5,18.5 Z"/></g>
<g><path style="opacity:0.012" fill="#23669c" d="M 26.5,18.5 C 25.8333,18.5 25.5,18.8333 25.5,19.5C 23.0248,19.2533 23.0248,18.5866 25.5,17.5C 26.1067,17.6236 26.44,17.9569 26.5,18.5 Z"/></g>
<g><path style="opacity:0.012" fill="#23669c" d="M 19.5,25.5 C 18.8333,25.5 18.5,25.8333 18.5,26.5C 17.2875,25.5029 17.4542,24.5029 19,23.5C 19.4643,24.0944 19.631,24.7611 19.5,25.5 Z"/></g>
<g><path style="opacity:0.012" fill="#21709c" d="M 140.5,26.5 C 139.833,26.5 139.5,26.1667 139.5,25.5C 139.747,23.0248 140.413,23.0248 141.5,25.5C 141.376,26.1067 141.043,26.44 140.5,26.5 Z"/></g>
<g><path style="opacity:0.02" fill="#2d5fab" d="M 12.5,34.5 C 11.8333,34.5 11.5,34.8333 11.5,35.5C 10.2875,34.5029 10.4542,33.5029 12,32.5C 12.4643,33.0944 12.631,33.7611 12.5,34.5 Z"/></g>
<g><path style="opacity:0.02" fill="#2d5fab" d="M 147.5,35.5 C 146.833,35.5 146.5,35.1667 146.5,34.5C 146.747,32.0248 147.413,32.0248 148.5,34.5C 148.376,35.1067 148.043,35.44 147.5,35.5 Z"/></g>
<g><path style="opacity:1" fill="#f4f9fd" d="M 86.5,36.5 C 95.5437,35.7128 99.7104,39.7128 99,48.5C 96.4179,53.3331 93.5845,57.9998 90.5,62.5C 84.8421,56.5343 82.0088,49.5343 82,41.5C 83.3657,39.6383 84.8657,37.9717 86.5,36.5 Z"/></g>
<g><path style="opacity:1" fill="#2a8ddf" d="M 88.5,41.5 C 94.4877,41.664 95.821,44.164 92.5,49C 86.4034,49.1475 85.0701,46.6475 88.5,41.5 Z"/></g>
<g><path style="opacity:0.012" fill="#299fff" d="M 3.5,51.5 C 3.16667,51.5 2.83333,51.5 2.5,51.5C 2.83333,47.5 3.16667,47.5 3.5,51.5 Z"/></g>
<g><path style="opacity:0.012" fill="#299fff" d="M 156.5,51.5 C 156.167,51.5 155.833,51.5 155.5,51.5C 155.833,47.5 156.167,47.5 156.5,51.5 Z"/></g>
<g><path style="opacity:0.012" fill="#007fff" d="M 2.5,51.5 C 2.63101,52.2389 2.46434,52.9056 2,53.5C 1.30831,52.5632 1.47498,51.8966 2.5,51.5 Z"/></g>
<g><path style="opacity:0.012" fill="#007fff" d="M 156.5,51.5 C 157.525,51.8966 157.692,52.5632 157,53.5C 156.536,52.9056 156.369,52.2389 156.5,51.5 Z"/></g>
<g><path style="opacity:0.016" fill="#1975c9" d="M 1.5,57.5 C 1.16667,57.5 0.833333,57.5 0.5,57.5C 0.833333,53.5 1.16667,53.5 1.5,57.5 Z"/></g>
<g><path style="opacity:0.016" fill="#1975c9" d="M 158.5,57.5 C 158.167,57.5 157.833,57.5 157.5,57.5C 157.833,53.5 158.167,53.5 158.5,57.5 Z"/></g>
<g><path style="opacity:0.016" fill="#0980de" d="M -0.5,57.5 C -0.166667,57.5 0.166667,57.5 0.5,57.5C 0.737305,58.791 0.403972,59.791 -0.5,60.5C -0.5,59.5 -0.5,58.5 -0.5,57.5 Z"/></g>
<g><path style="opacity:0.016" fill="#0980de" d="M 158.5,57.5 C 158.833,57.5 159.167,57.5 159.5,57.5C 159.5,58.5 159.5,59.5 159.5,60.5C 158.596,59.791 158.263,58.791 158.5,57.5 Z"/></g>
<g><path style="opacity:1" fill="#f9fcfe" d="M 86.5,71.5 C 87.5181,70.7079 87.8514,69.0412 87.5,66.5C 89.5,66.5 91.5,66.5 93.5,66.5C 93.1818,71.0323 93.5151,75.3656 94.5,79.5C 95.9599,81.4628 97.6266,83.2962 99.5,85C 97.3171,87.3504 94.9837,89.517 92.5,91.5C 88.1817,87.6821 84.015,83.6821 80,79.5C 76.1667,83.3333 72.3333,87.1667 68.5,91C 66.5826,90.9725 64.916,90.1392 63.5,88.5C 61.8608,87.084 61.0275,85.4174 61,83.5C 66.8333,77.6667 72.6667,71.8333 78.5,66C 79.1667,65.3333 79.8333,65.3333 80.5,66C 82.3702,68.0396 84.3702,69.8729 86.5,71.5 Z"/></g>
<g><path style="opacity:1" fill="#89bbeb" d="M 94.5,79.5 C 93.5151,75.3656 93.1818,71.0323 93.5,66.5C 91.5,66.5 89.5,66.5 87.5,66.5C 87.8514,69.0412 87.5181,70.7079 86.5,71.5C 86.5,69.5 86.5,67.5 86.5,65.5C 89.1667,65.5 91.8333,65.5 94.5,65.5C 94.5,70.1667 94.5,74.8333 94.5,79.5 Z"/></g>
<g><path style="opacity:0.016" fill="#0980de" d="M -0.5,98.5 C 0.403972,99.209 0.737305,100.209 0.5,101.5C 0.166667,101.5 -0.166667,101.5 -0.5,101.5C -0.5,100.5 -0.5,99.5 -0.5,98.5 Z"/></g>
<g><path style="opacity:0.016" fill="#0980de" d="M 159.5,98.5 C 159.5,99.5 159.5,100.5 159.5,101.5C 159.167,101.5 158.833,101.5 158.5,101.5C 158.263,100.209 158.596,99.209 159.5,98.5 Z"/></g>
<g><path style="opacity:0.016" fill="#1975c9" d="M 0.5,101.5 C 0.833333,101.5 1.16667,101.5 1.5,101.5C 1.16667,105.5 0.833333,105.5 0.5,101.5 Z"/></g>
<g><path style="opacity:0.016" fill="#1975c9" d="M 157.5,101.5 C 157.833,101.5 158.167,101.5 158.5,101.5C 158.167,105.5 157.833,105.5 157.5,101.5 Z"/></g>
<g><path style="opacity:0.012" fill="#007fff" d="M 1.5,105.5 C 2.52502,105.897 2.69169,106.563 2,107.5C 1.53566,106.906 1.36899,106.239 1.5,105.5 Z"/></g>
<g><path style="opacity:1" fill="#ebf3fb" d="M 46.5,104.5 C 47.8333,104.5 49.1667,104.5 50.5,104.5C 50.5,108.5 50.5,112.5 50.5,116.5C 52.5,116.5 54.5,116.5 56.5,116.5C 56.5,112.5 56.5,108.5 56.5,104.5C 57.8333,104.5 59.1667,104.5 60.5,104.5C 60.6236,110.904 61.2903,117.237 62.5,123.5C 61.1667,123.5 59.8333,123.5 58.5,123.5C 58.5,122.167 58.5,120.833 58.5,119.5C 54.5,119.5 50.5,119.5 46.5,119.5C 46.5,114.5 46.5,109.5 46.5,104.5 Z"/></g>
<g><path style="opacity:1" fill="#eef5fc" d="M 65.5,104.5 C 66.8333,104.5 68.1667,104.5 69.5,104.5C 69.3359,107.187 69.5026,109.854 70,112.5C 72.3494,109.983 74.8494,107.65 77.5,105.5C 78.4933,110.12 78.8266,114.786 78.5,119.5C 77.1667,119.5 75.8333,119.5 74.5,119.5C 74.6633,117.143 74.4966,114.81 74,112.5C 71.6294,115.206 68.9628,117.539 66,119.5C 65.5007,114.511 65.3341,109.511 65.5,104.5 Z"/></g>
<g><path style="opacity:1" fill="#e8f1fb" d="M 88.5,105.5 C 91.8934,109.267 94.5601,113.6 96.5,118.5C 91.5,117.167 86.5,117.167 81.5,118.5C 83.5915,113.98 85.9248,109.647 88.5,105.5 Z"/></g>
<g><path style="opacity:1" fill="#e8f2fb" d="M 99.5,104.5 C 100.833,104.5 102.167,104.5 103.5,104.5C 103.5,106.5 103.5,108.5 103.5,110.5C 105.167,110.5 106.833,110.5 108.5,110.5C 108.5,108.5 108.5,106.5 108.5,104.5C 109.833,104.5 111.167,104.5 112.5,104.5C 112.5,109.5 112.5,114.5 112.5,119.5C 111.167,119.5 109.833,119.5 108.5,119.5C 108.5,117.833 108.5,116.167 108.5,114.5C 106.833,114.5 105.167,114.5 103.5,114.5C 103.5,116.167 103.5,117.833 103.5,119.5C 102.167,119.5 100.833,119.5 99.5,119.5C 99.5,114.5 99.5,109.5 99.5,104.5 Z"/></g>
<g><path style="opacity:0.012" fill="#007fff" d="M 156.5,107.5 C 156.369,106.761 156.536,106.094 157,105.5C 157.692,106.437 157.525,107.103 156.5,107.5 Z"/></g>
<g><path style="opacity:0.012" fill="#299fff" d="M 155.5,107.5 C 155.833,107.5 156.167,107.5 156.5,107.5C 156.737,108.791 156.404,109.791 155.5,110.5C 155.5,109.5 155.5,108.5 155.5,107.5 Z"/></g>
<g><path style="opacity:0.012" fill="#007fff" d="M 154.5,110.5 C 154.833,110.5 155.167,110.5 155.5,110.5C 155.672,111.492 155.338,112.158 154.5,112.5C 154.5,111.833 154.5,111.167 154.5,110.5 Z"/></g>
<g><path style="opacity:0.012" fill="#109bb1" d="M 5.5,112.5 C 5.63101,113.239 5.46434,113.906 5,114.5C 4.30831,113.563 4.47498,112.897 5.5,112.5 Z"/></g>
<g><path style="opacity:0.012" fill="#109bb1" d="M 153.5,112.5 C 153.833,112.5 154.167,112.5 154.5,112.5C 154.672,113.492 154.338,114.158 153.5,114.5C 153.5,113.833 153.5,113.167 153.5,112.5 Z"/></g>
<g><path style="opacity:0.012" fill="#00a9ff" d="M 152.5,114.5 C 152.833,114.5 153.167,114.5 153.5,114.5C 153.672,115.492 153.338,116.158 152.5,116.5C 152.5,115.833 152.5,115.167 152.5,114.5 Z"/></g>
<g><path style="opacity:0.012" fill="#0570c5" d="M 7.5,116.5 C 7.5,117.167 7.5,117.833 7.5,118.5C 6.16667,117.833 6.16667,117.167 7.5,116.5 Z"/></g>
<g><path style="opacity:0.012" fill="#0570c5" d="M 151.5,116.5 C 151.833,116.5 152.167,116.5 152.5,116.5C 152.672,117.492 152.338,118.158 151.5,118.5C 151.5,117.833 151.5,117.167 151.5,116.5 Z"/></g>
<g><path style="opacity:0.008" fill="#1d80a9" d="M 7.5,118.5 C 7.83333,118.5 8.16667,118.5 8.5,118.5C 8.16667,121.167 7.83333,121.167 7.5,118.5 Z"/></g>
<g><path style="opacity:0.008" fill="#1d80a9" d="M 150.5,118.5 C 150.833,118.5 151.167,118.5 151.5,118.5C 151.672,119.492 151.338,120.158 150.5,120.5C 150.5,119.833 150.5,119.167 150.5,118.5 Z"/></g>
<g><path style="opacity:0.02" fill="#0065cc" d="M 149.5,120.5 C 149.833,120.5 150.167,120.5 150.5,120.5C 150.315,121.17 149.981,121.17 149.5,120.5 Z"/></g>
<g><path style="opacity:0.012" fill="#1cc5ff" d="M 10.5,121.5 C 10.5,122.167 10.5,122.833 10.5,123.5C 9.16667,122.833 9.16667,122.167 10.5,121.5 Z"/></g>
<g><path style="opacity:0.012" fill="#1cc5ff" d="M 148.5,121.5 C 148.833,121.5 149.167,121.5 149.5,121.5C 149.672,122.492 149.338,123.158 148.5,123.5C 148.5,122.833 148.5,122.167 148.5,121.5 Z"/></g>
<g><path style="opacity:0.012" fill="#2e64bb" d="M 10.5,123.5 C 10.8333,123.5 11.1667,123.5 11.5,123.5C 12.1667,123.5 12.5,123.833 12.5,124.5C 11.6987,126.793 11.032,126.46 10.5,123.5 Z"/></g>
<g><path style="opacity:0.012" fill="#2e64bb" d="M 147.5,123.5 C 147.833,123.5 148.167,123.5 148.5,123.5C 148.573,125.027 147.906,126.027 146.5,126.5C 146.5,125.833 146.5,125.167 146.5,124.5C 147.167,124.5 147.5,124.167 147.5,123.5 Z"/></g>
<g><path style="opacity:0.02" fill="#0099cc" d="M 145.5,126.5 C 145.833,126.5 146.167,126.5 146.5,126.5C 146.315,127.17 145.981,127.17 145.5,126.5 Z"/></g>
<g><path style="opacity:0.02" fill="#0099cc" d="M 141.5,131.5 C 142.833,132.167 142.833,132.167 141.5,131.5 Z"/></g>
<g><path style="opacity:0.004" fill="#235478" d="M 18.5,132.5 C 19.1667,132.5 19.5,132.833 19.5,133.5C 19.2533,135.975 18.5866,135.975 17.5,133.5C 17.6236,132.893 17.9569,132.56 18.5,132.5 Z"/></g>
<g><path style="opacity:0.004" fill="#266687" d="M 140.5,132.5 C 140.833,132.5 141.167,132.5 141.5,132.5C 140.968,135.46 140.301,135.793 139.5,133.5C 140.167,133.5 140.5,133.167 140.5,132.5 Z"/></g>
<g><path style="opacity:0.012" fill="#21709c" d="M 25.5,139.5 C 26.1667,139.5 26.5,139.833 26.5,140.5C 25.5029,141.713 24.5029,141.546 23.5,140C 24.0944,139.536 24.7611,139.369 25.5,139.5 Z"/></g>
<g><path style="opacity:0.004" fill="#3b6ff5" d="M 133.5,139.5 C 135.793,140.301 135.46,140.968 132.5,141.5C 132.5,141.167 132.5,140.833 132.5,140.5C 133.167,140.5 133.5,140.167 133.5,139.5 Z"/></g>
<g><path style="opacity:0.02" fill="#0099cc" d="M 131.5,141.5 C 131.833,141.5 132.167,141.5 132.5,141.5C 132.315,142.17 131.981,142.17 131.5,141.5 Z"/></g>
<g><path style="opacity:0.02" fill="#0099cc" d="M 126.5,145.5 C 127.833,146.167 127.833,146.167 126.5,145.5 Z"/></g>
<g><path style="opacity:0.02" fill="#2d5fab" d="M 34.5,146.5 C 35.1667,146.5 35.5,146.833 35.5,147.5C 34.5029,148.713 33.5029,148.546 32.5,147C 33.0944,146.536 33.7611,146.369 34.5,146.5 Z"/></g>
<g><path style="opacity:0.004" fill="#264a7b" d="M 124.5,146.5 C 125.167,146.5 125.833,146.5 126.5,146.5C 126.027,147.906 125.027,148.573 123.5,148.5C 123.5,148.167 123.5,147.833 123.5,147.5C 124.167,147.5 124.5,147.167 124.5,146.5 Z"/></g>
<g><path style="opacity:0.012" fill="#1cc5ff" d="M 121.5,149.5 C 121.5,149.167 121.5,148.833 121.5,148.5C 122.167,148.5 122.833,148.5 123.5,148.5C 123.158,149.338 122.492,149.672 121.5,149.5 Z"/></g>
<g><path style="opacity:0.02" fill="#0065cc" d="M 120.5,149.5 C 120.833,149.5 121.167,149.5 121.5,149.5C 121.315,150.17 120.981,150.17 120.5,149.5 Z"/></g>
<g><path style="opacity:0.008" fill="#1d80a9" d="M 118.5,151.5 C 118.5,151.167 118.5,150.833 118.5,150.5C 119.167,150.5 119.833,150.5 120.5,150.5C 120.158,151.338 119.492,151.672 118.5,151.5 Z"/></g>
<g><path style="opacity:0.012" fill="#0570c5" d="M 116.5,152.5 C 116.5,152.167 116.5,151.833 116.5,151.5C 117.167,151.5 117.833,151.5 118.5,151.5C 118.158,152.338 117.492,152.672 116.5,152.5 Z"/></g>
<g><path style="opacity:0.012" fill="#00a9ff" d="M 114.5,153.5 C 114.5,153.167 114.5,152.833 114.5,152.5C 115.167,152.5 115.833,152.5 116.5,152.5C 116.158,153.338 115.492,153.672 114.5,153.5 Z"/></g>
<g><path style="opacity:0.012" fill="#109bb1" d="M 112.5,154.5 C 112.5,154.167 112.5,153.833 112.5,153.5C 113.167,153.5 113.833,153.5 114.5,153.5C 114.158,154.338 113.492,154.672 112.5,154.5 Z"/></g>
<g><path style="opacity:0.012" fill="#007fff" d="M 110.5,155.5 C 110.5,155.167 110.5,154.833 110.5,154.5C 111.167,154.5 111.833,154.5 112.5,154.5C 112.158,155.338 111.492,155.672 110.5,155.5 Z"/></g>
<g><path style="opacity:0.012" fill="#299fff" d="M 51.5,155.5 C 51.5,155.833 51.5,156.167 51.5,156.5C 47.5,156.167 47.5,155.833 51.5,155.5 Z"/></g>
<g><path style="opacity:0.012" fill="#299fff" d="M 107.5,156.5 C 107.5,156.167 107.5,155.833 107.5,155.5C 108.5,155.5 109.5,155.5 110.5,155.5C 109.791,156.404 108.791,156.737 107.5,156.5 Z"/></g>
<g><path style="opacity:0.012" fill="#007fff" d="M 51.5,156.5 C 52.2389,156.369 52.9056,156.536 53.5,157C 52.5632,157.692 51.8966,157.525 51.5,156.5 Z"/></g>
<g><path style="opacity:0.012" fill="#007fff" d="M 107.5,156.5 C 107.103,157.525 106.437,157.692 105.5,157C 106.094,156.536 106.761,156.369 107.5,156.5 Z"/></g>
<g><path style="opacity:0.016" fill="#1975c9" d="M 57.5,157.5 C 57.5,157.833 57.5,158.167 57.5,158.5C 53.5,158.167 53.5,157.833 57.5,157.5 Z"/></g>
<g><path style="opacity:0.016" fill="#1975c9" d="M 101.5,158.5 C 101.5,158.167 101.5,157.833 101.5,157.5C 105.5,157.833 105.5,158.167 101.5,158.5 Z"/></g>
<g><path style="opacity:0.016" fill="#0980de" d="M 57.5,159.5 C 57.5,159.167 57.5,158.833 57.5,158.5C 58.791,158.263 59.791,158.596 60.5,159.5C 59.5,159.5 58.5,159.5 57.5,159.5 Z"/></g>
<g><path style="opacity:0.016" fill="#0980de" d="M 98.5,159.5 C 99.209,158.596 100.209,158.263 101.5,158.5C 101.5,158.833 101.5,159.167 101.5,159.5C 100.5,159.5 99.5,159.5 98.5,159.5 Z"/></g>
</svg>
