<svg viewBox="0 0 48 48" xmlns="http://www.w3.org/2000/svg"><g fill="none" fill-rule="evenodd"><path fill="#F2F3F4" d="M0 0h48v48H0z"/><circle fill="#EF9C00" cx="24.053" cy="23.413" r="9.707"/><path d="M24.587 19.147c.533-.374 1.173-.587 1.813-.694 1.067-.213 2.187-.053 3.2.427.107.053.213.107.32.213.053.054.107.107.107.214v1.6l-.267-.16-.213-.16a4.606 4.606 0 00-.854-.534 2.902 2.902 0 00-1.653-.16c-.48 0-.96.16-1.387.427.32.427.534.907.694 1.44.106.267.16.587.213.907.053 1.493.107 2.453-.907 4 .587.32 1.28.48 1.92.48.907-.054 1.76-.48 2.4-1.12v1.6c0 .16-.053.32-.213.373a5.42 5.42 0 01-4.267.32c-.32-.107-.64-.32-1.013-.48-.32.16-.587.32-.96.427a5.246 5.246 0 01-2.72.266c-.533-.106-1.013-.213-1.493-.426-.267-.107-.427-.32-.427-.587v-1.387a4.497 4.497 0 002.133 1.067c.8.107 1.547-.053 2.294-.373-.214-.427-.48-.854-.64-1.28a9.73 9.73 0 01-.374-1.334h-1.866c-.107 0-.16-.053-.214-.16v-1.28h1.92c.32 0 .267.054.32-.213.107-.747.427-1.44.854-2.027v-.053a3.807 3.807 0 00-4.374.64v-1.547c0-.106.054-.266.16-.32a3.1 3.1 0 011.334-.48c.693-.106 1.386-.16 2.08-.053.533.053 1.013.213 1.493.427h.587zm0 6.346c.32-.426.426-.96.373-1.493-.32 0-.64 0-.96.053.107.534.267 1.014.587 1.44zm.426-2.933a3.366 3.366 0 00-.426-1.227c-.214.374-.374.8-.48 1.227h.906z" fill="#FFF" fill-rule="nonzero"/><path d="M15.893 24.48c.48 0 .587-.32.694-.64.053-.213.106-.48.106-.693v-2.134H19.2v2.88h-.533l-.054-2.4h-1.386v1.334a3.16 3.16 0 01-.32 1.706h2.773v.64h-3.627c-.106 0-.213-.053-.213-.213s.053-.267.053-.48zm13.867-.907v1.654h-.64v-4.16h.693v1.6c.427-.48.8-.854 1.12-1.334.16-.213.374-.32.587-.266H32l-.373.426-1.44 1.6c.64.747 1.333 1.44 1.973 2.187-.533 0-.907 0-1.12-.267-.373-.48-.8-.96-1.28-1.44z" fill="#FFF"/><path d="M27.36 37.653l11.2-15.68-.107-.16-.053-.106-.107-.107-.053-.053L27.733 36.16v.267l-.053.213-.053.16-.054.16-.053.213-.053.214zM11.413 26.667l.107.106.107.107.053.107.053.053 2.027-2.72-.053-.48v-.427zm3.307 4.746l1.227-1.653-.107-.107-.107-.106-.16-.214-1.386 1.974h.213l.267.053h.053zm12.8 4.32l3.467-4.853-.374.32-.32.267-.426.266-.374.267-3.146 4.427.106-.107.107-.053.107-.107.106-.107.107-.053.053-.053.107-.054.053-.053.107-.053h.053l.054-.054h.053l.053-.053.054.053zm-13.867-4.48l1.654-2.346-.16-.267-.107-.213-2.027 2.773.32.053zm5.387 2.72l.853-1.226-.266-.107-.107-.053-.16-.054-1.12 1.547.16-.053h.107l.106-.054h.267zm-2.88 3.574l-.16.213-.213.16-.16.16-.107.16-.16.107-.107.16-.16.106-.106.107-.854 1.173.107.054h.16l.16.053h.107l3.36-4.64-.107.107-.107.106-.106.107-.107.16-.213.267-.214.266-.213.32-.107.107-.106.16-.107.16-.16.16-.16.16zm-2.347 1.6H13.6l-.107.053h-.106l-.267.373.107.054.16.053.266.107.48-.694h-.16zm-1.12-4.907l-.106.053h-.267l-.107.054H12l-.053.053h-.16.053v.053h.053l.107.054.107.053.106.053.16.107zm2.187-1.28l-.213.16-.214.16-.213.16-.16.16-.16.107-.16.106-.16.107-.16.107-.587.8.107.053.16.053h.16l.16.054zm-.32 2.027h.053l2.72-3.787-.213-.16-.16-.213-.8 1.066-.32.427-1.92 2.72h.48zm4.427-2.667l-.267-.107-.213-.16-1.814 2.507.214-.053.266-.054.16-.053.214-.107zm-2.4-1.813l-.16-.214-.214-.16-.96 1.387.107.053.16.054h.107l.16.053zm3.733 2.453l-.747 1.067h.214l.053.053h.053v.053h-.053l-.053.054-.107.053-.107.053-.106.107-.16.107-.16.053-3.84 5.387h.32l.16-.054.213-.053 4.853-6.72-.32-.053-.106-.054zm7.253 0L24 38.027l-.053.213v.16l-.054.213v.48l4.694-6.506-.267.053-.213.107zm-2.133.587h-.373l-.374.053-1.173 1.707v-.054h.107l.16-.053h.48zm1.44-.32l-.427.106-.373.107-1.28 1.707h.053l.107.053h.16v.053h-.053v.054l-.054.053-.053.053-.053.107-.054.107-.053.106-.107.107-.053.107-.053.16-.054.106-.106.16-.054.214-.053.16zm-5.6.053l-4.587 6.453.16-.053.214-.053.213-.054.213-.053 4.374-6.08-.16-.053-.16-.054zm1.067.213l-4.107 5.76.267-.106.213-.107.267-.16.266-.107 3.68-5.173-.266-.053h-.16zm1.6.16h-.48l-2.987 4.214.267-.32.32-.267.266-.267.267-.266.213-.214.267-.213.213-.213.214-.214 1.6-2.24h-.054zm-5.814-1.866l-.213-.16-.213-.16-2.454 3.466.374-.053.16-.053.213-.054zm13.28 1.76l.054.053 5.653-7.893v-.054.054l2.133-2.987-.213-.213-.16-.16-12.053 16.8-.054.266v.8l4.64-6.56V33.6zm-13.226-24l1.066-1.494-.16.16-.16.107-.16.16-.106.16-.16.16-.054.107-.053.106-.053.107-.054.107-.053.16zm25.706 16.106h-.053V25.6l-.747 1.12h.214l.16.053.16.054.586-.8-.16-.16zm-3.84-2.4l-.213-.106-.213-.16-2.08 2.88.106.053.16.053.267.107zm2.134 1.227l-1.494 2.133h.32l.32.054 1.334-1.92-.214-.16zM27.52 42.507l2.88-4 .107-.267.106-.107.054-.106.053-.16.107-.16.053-.214.053-.16.054-.213.106-.213.107-.427-4 5.547.107.16.053.106.107.107zm15.52-17.494l-1.173 1.654h.64l1.013-1.334-.267-.16zm-2.56-1.546l-1.973 2.773.32.053.106.054h.16l1.867-2.614-.267-.106zm.853.48l-1.76 2.506.587.054 1.653-2.24-.213-.16zm-14.506 16.96v.16l.053.16.053.16.054.213 4.426-6.187.054-.32v-.32l.053-.106v-.374zm-12.534-32.8h-.266l-.16-.054-.107.054.053.053v.053l.054.107v.053l.053.107.053.16zm-1.653 31.36l.16-.214h-.427l-.053.054h-.107.107l.107.053.053.053h.053zm24.8-4.907l-.853 1.12.106.16.107.107.107.106.053.107.64-.96-.053-.107-.054-.16v-.16zm.427 1.12l-.48.64h1.12v-.053h-.054l-.053-.054-.053-.053h-.054l-.053-.053-.107-.107-.106-.107-.054-.106zM6.56 24.107l.213-.374H6.72l-.053-.053H6.56l-.053-.053H6.4l-.053-.054h-.054l-.053-.053h-.053v-.053.106l.053.054.053.106.054.107.106.16zm3.947-11.04v-.16l.053-.054V12.8l-.053.053-.054.054-.053.106-.107.107-.053.107-.16.16-.107.16-.106.213-.107.213-.16.214-.107.213-.16.267-.106.266-.107.267-.053.32 1.28-1.813v-.267l.053-.16.053-.107zm17.866 30.026l1.334-1.92v-.533l.053-.267.107-.32-1.974 2.774.214.106.106.107zm.96.32l.107.054h.053l.054.053h.053v.053h.053v-.533l.054-.16v-.907L28.8 43.2l.16.107h.16l.107.053zm7.894-10.293l-1.174 1.653.054.107.053.107.107.213.053.053.053.054.96-1.387-.053-.373zm-.32-2.72v-.16l-2.027 2.773.16.214.16.266 1.813-2.506-.053-.267zm-3.787 1.707l-1.333 1.813.106.107.054.106.106.107.107.107 1.013-1.44v-.374l-.053-.106v-.267zm-.587 3.04v.106l.054.054v.106l.48-.64.053-.266.053-.32v-.267l.054-.267-.854 1.12.107.214zm4.107-6.294l-2.453 3.36.213.214.107.106.106.107L36.8 29.6l-.053-.213-.054-.214-.053-.16zm-.427-1.066l-2.88 4h.107l.107.053h.106l.054.053h.053l.107.054 2.56-3.627-.054-.16-.053-.107zm1.067-1.494l-.853 1.174h.106l.107.053.16.107.107.053.586-.8-.053-.107-.053-.053v-.053l-.054-.054v-.106l-.053-.107zM9.6 19.84l2.293-3.147-.266-.16-.107-.053-.107-.107-2.026 2.88.106.32zm-.693 3.467L7.573 25.12l.107.107.107.053.16.053h.16v.054L9.6 23.253h-.32zm-1.707 1.6l1.067-1.494h-.16L8 23.467l-.107.053-.16.053-.16.054-.16.053-.586.8.16.213zm29.867 6.773l-1.6 2.187.16.266.16.267 1.386-1.92-.053-.213v-.374zM15.84 13.6l-5.493 7.733.106.267.16.267 5.334-7.467v-.16l-.054-.213-.053-.214zm-5.227 12.48l.16.107.107.053.053.053.054.054h.053l2.667-3.734.053-.586.053-.267.054-.267zM44 15.147l-.107.16h.32v-.054h-.053V15.2h-.053zM11.413 24.16l-.106-.107-.054-.106-.106-.16-.107-.107-1.44 2.027.16.053.107.053.266.054zm-.746-.693l-.107-.054-.16-.053h-.107l-.16-.053-1.546 2.133.16.053.106.054.267.053zm21.546-6.24l2.56-3.574h-.213l-.16-.053h-.267l-2.293 3.2.213.213zM7.68 28.427l-1.653 2.346.266.107.107.053h.16l1.973-2.826-.16.106-.213.054-.213.053zm-1.28.106l-1.227 1.654.214.16.266.16 1.387-1.974h-.48zm27.253-15.04H33.6v-.213l.053-.053.054-.054.053-.053h.053l.107-.053.107-.054.48-.693h-.32l-.16-.053h-.16l-2.72 3.786.106.107.107.107.16.16zM4.267 28.053l-.427.64.107.107.053.107.107.106.053.16.64-.906-.267-.107-.106-.053zm6.186-.853h-.16l-.16.053-.106.054-.107.053-.213.107-.214.106-2.506 3.52H7.2l.16.054h.267zM27.84 11.307v-.054h-.053l-.054-.053-.053-.107v-.053l-.053-.107-.054-.106-1.76 2.453.32.053.107.054h.16l1.813-2.56-.106.106-.107.16-.107.107zm8.32 6.293l-2.24 3.147.053.373.107.32 2.56-3.573-.107-.054-.053-.053h-.107l-.053-.053-.053-.054h-.054zM5.28 28.427l-.8 1.066.053.107.107.107.107.106.106.054 1.014-1.334-.32-.053zM23.947 13.12h.213l3.68-5.173V8h-.053l-.427.107-.32.106-3.52 4.907h.32zm10.773-.32l.267-.053.106-.054h.054l.106-.053h.267l.053-.053h.214-.054l-.106-.054h-.054l-.106-.053h-.16l-.16-.053h-.16zm2.187 4.64l2.453-3.413h-.32l-.32-.054-2.453 3.467h.48zm2.346 1.867l-.106-.054-.107-.106-.107-.107-.106-.053-.64.906.213-.053.213-.053.214-.054.16-.053zm-13.92-6.134l2.4-3.306V9.76l.054-.053.053-.054.053-.106.107-.214.16-.16.107-.16.106-.16.107-.16.107-.106.106-.16.054-.107.106-.107.054-.106.106-.214.054-.213.053-.107v-.106l-.053.053h-.107l-.107.053-.106.054-.107.053-3.893 5.44.266.053h.16zM11.04 27.147L8.16 31.2h.64l2.827-4h-.267l-.16-.053zM42.08 15.36l.587-.853-.214-.107-.266-.107-.747 1.067h.32zM3.36 27.627l-.053-.054-.054-.053H3.2l.053.053v.054l.054.106.053.107.053.107.054.16.106.16.267-.427-.16-.053-.107-.054-.106-.053zm19.573-14.454l3.414-4.8-.427.107-.16.053-.213.054-3.36 4.64.373-.054zm20.374 2.134l.32-.374-.16-.106h-.054l-.106-.054-.107-.053-.107-.053-.426.693h.32l.16-.053zm-14.08-.747l3.786-5.28-.213.053h-.16l-.373.107-3.52 4.853.266.16zm10.453 1.867l.053-.16.107-.214.107-.106.16-.16.106-.16h.107l.107-.054.053-.053.107-.053.106-.054h.16l.854-1.28-.107-.053h-.16l-.16-.053h-.107l-2.293 3.2.107-.054.106-.053.107-.107.107-.106.106-.054.107-.16.053-.106zM28.373 14.08l3.2-4.533-.373.053-.373.053-2.987 4.214.107.053.16.053.106.054zm1.707 1.013l1.707-2.346-.054-.107-.053-.053v-.427l.053-.107.054-.106.053-.107.053-.107.16-.16.107-.106.16-.107.16-.107.16-.106.16-.054.213-.106 1.974-2.774v-.106l-.054.053v.053l-.053.054-.053.053-.107.107-.053.053-.16.16-.214.16-.106.107-.107.053-.107.053-.16.054-.053.053h-.107L29.6 14.827l.213.106zm8.107 2.294l2.453-3.414h-.16l-.107.054h-.48l-2.4 3.413h.374l.16-.053zm-.32 3.786l-.054-.053-.106-.053-.267-.16-3.467 4.853-.16.48-.106.427-.16.48-.214.426zM14.027 10.24l1.12-1.547-.214-.213-.053-.053-.16-.107-.64.907v.746zm-3.414 4.8l-.053-.107v-.106l-.053-.16-.054-.16v-.16l-1.6 2.186v.96zm16.8-1.333l2.72-3.84-.213.106-.267.054-.213.106-.213.107-2.347 3.307.267.053zM9.173 18.72l1.92-2.667-.106-.106-.054-.107-.106-.107-.054-.16-1.76 2.507.054.32zm23.52-6.56l-2.24 3.253.16.16.107.054.107.106 2.506-3.52h-.16l-.16-.053h-.16zm1.067 8.053l4.427-6.293h-.427l-.16-.053-4.107 5.706.107.32.107.16zm-22.667 2.614L22.88 6.4v-.32l-.053-.16v-.16l-.054-.16-11.946 16.693.106.16.054.107.053.16zm-1.28-2.507l.16.32.107.213 5.76-8v-.533l.053-.267.054-.266-3.254 4.533v.427l.054.106v.214l-.054-.054h-.16l-.053-.053-.107-.053h-.106zm23.467-1.227l3.787-5.28h-.64l-3.36 4.747.106.267zm-15.413-4L21.76 9.6v-.32l.053-.107v-.16l.054-.106.053-.16.053-.16.054-.16.106-.107.054-.16.053-.107-10.88 15.254v.106l.053.107v.267l.054.106v.16l2.666-3.733.16-.373.16-.427.107-.373.213-.374.16-.32.214-.373.213-.373.267-.32.213-.32.267-.32.266-.32.267-.267.32-.267.267-.266.32-.267zM14.08 26.24l-3.52 5.013.32-.053h.32l3.093-4.32-.106-.32zm20.107-4.16v.427l.053.426 3.307-4.64-.267-.106-.267-.107zM15.84 10.187l-2.88 4.053-.053.32-.054.32-.053.267-.053.266L16 10.88v-.16l-.053-.16-.054-.213zm6.56-5.76l-5.013 6.986v.054l-.054.373-.053.32-.107.32-.106.373 5.6-7.786-.107-.214-.053-.106v-.054l-.054-.106v-.054L22.4 4.48zM13.813 24.96l-4.48 6.24h.32l.32.053 4-5.546-.106-.374zM32.48 17.6l.16.267.16.266 3.093-4.373h-.32l-.32-.053zM14.773 27.947l-.106-.267-.16-.267-2.72 3.787h.64zm23.68-9.227l-.106-.053-.107-.054-.107-.053-.16-.053-3.733 5.173v.267l-.053.266v.534l2.88-4.107-.16-.053-.054-.054H36.8v-.053h-.053v-.053h.053l.107-.054.053-.053.053-.053h.107l.053-.054.107-.053.107-.053h.106zm-23.04-9.6l-1.76 2.453-.106.32-.107.374-.107.426-.106.374L15.68 9.6l-.107-.267-.106-.106zm6.134 4.267l3.2-4.534-.16.107-.16.107-.214.106L24 9.28l-.16.107-.16.106-2.987 4.16.214-.106.213-.054zm.693-2.667l-.053-.107-.107-.106-.053-.16-.107-.16-2.987 4.266.214-.16.266-.106.267-.16.267-.107zm15.787 17.493l-.054-.053v-.053L37.92 28l-.053-.107-.054-.16-.16-.32-.373.534.16.053.107.053.106.054.107.053.053.053h.16zm6.666-1.173l-.053-.16-.053-.107-.054-.16-.053-.16-.48.64.16.107.107.053.106.107.054.053.053.054.053.053h.054l.053.053.053.054h.054l.053.053v-.213l-.053-.054V27.2z" fill="#EF9C00"/></g></svg>