<?xml version="1.0" encoding="UTF-8"?>
<!DOCTYPE svg PUBLIC "-//W3C//DTD SVG 1.1//EN" "http://www.w3.org/Graphics/SVG/1.1/DTD/svg11.dtd">
<svg xmlns="http://www.w3.org/2000/svg" version="1.1" width="160px" height="160px" style="shape-rendering:geometricPrecision; text-rendering:geometricPrecision; image-rendering:optimizeQuality; fill-rule:evenodd; clip-rule:evenodd" xmlns:xlink="http://www.w3.org/1999/xlink">
<g><path style="opacity:1" fill="#0173e5" d="M -0.5,-0.5 C 52.8333,-0.5 106.167,-0.5 159.5,-0.5C 159.5,52.8333 159.5,106.167 159.5,159.5C 106.167,159.5 52.8333,159.5 -0.5,159.5C -0.5,106.167 -0.5,52.8333 -0.5,-0.5 Z"/></g>
<g><path style="opacity:1" fill="#fc4f3f" d="M 36.5,66.5 C 40.2727,65.8224 43.106,67.1558 45,70.5C 45.9693,74.4068 47.1359,78.2401 48.5,82C 48.3569,84.151 47.3569,85.8176 45.5,87C 41.2736,88.7977 36.9403,90.2977 32.5,91.5C 30.6171,91.1243 29.1171,90.1243 28,88.5C 26.2023,84.2736 24.7023,79.9403 23.5,75.5C 23.8757,73.6171 24.8757,72.1171 26.5,71C 30.0609,69.7679 33.3943,68.2679 36.5,66.5 Z"/></g>
<g><path style="opacity:1" fill="#f4ba29" d="M 58.5,66.5 C 65.2207,66.7958 71.3874,68.7958 77,72.5C 77.5312,92.1496 69.6979,96.4829 53.5,85.5C 52.8743,78.687 54.541,72.3536 58.5,66.5 Z"/></g>
<g><path style="opacity:1" fill="#0ac733" d="M 94.5,66.5 C 97.2724,66.22 99.7724,66.8866 102,68.5C 105.07,73.9045 106.237,79.5711 105.5,85.5C 101.017,88.1724 96.1841,90.1724 91,91.5C 89.1878,91.5066 87.6878,90.84 86.5,89.5C 84.5343,85.1022 82.8677,80.6022 81.5,76C 81.6148,74.1049 82.2815,72.4382 83.5,71C 87.4493,69.9431 91.1159,68.4431 94.5,66.5 Z"/></g>
<g><path style="opacity:1" fill="#00c0fb" d="M 116.5,66.5 C 123.211,66.7924 129.377,68.7924 135,72.5C 135.03,79.0432 133.196,85.0432 129.5,90.5C 123.325,91.1923 117.492,89.859 112,86.5C 110.578,83.9699 110.245,81.3033 111,78.5C 112.59,74.3238 114.424,70.3238 116.5,66.5 Z"/></g>
</svg>
