<svg id="LOGO_7" xmlns="http://www.w3.org/2000/svg" viewBox="0 0 48 48"><defs><style>.cls-2{fill:#7c1618}</style></defs><g id="DZRD"><path fill="#7a8d6c" d="M0 0h48v48H0z"/><path class="cls-2" d="M22.45 34.84a3.18 3.18 0 0 0 1.93-1.57 4.26 4.26 0 0 0 .12-3.35 2.65 2.65 0 0 0-.47-.81c-.17-.19-.58-.34-.68-.56s.16-.3.33-.42a2.61 2.61 0 0 0 1.1-2 3.08 3.08 0 0 0-2.07-2.79 5.84 5.84 0 0 0-1.88-.34c-.19 0-1.81-.11-1.87.11l-.82 3.34h2.35c.27 0 .58-.08.81.12a.41.41 0 0 1 .12.45.59.59 0 0 1-.39.28 4.43 4.43 0 0 1-1 .16V30h.22a1.78 1.78 0 0 1 1.11.38 1 1 0 0 1 .26.7 1 1 0 0 1-.16.54 1.1 1.1 0 0 1-.53.38 1.7 1.7 0 0 1-.77.1 4.74 4.74 0 0 1-.63-.16l-1.39 3s1.26.15 1.4.16a7.7 7.7 0 0 0 2.91-.26zm8.42-7.99a4.8 4.8 0 0 0-3-3.93h-2.84v12.65h3.09v-4.65a2.76 2.76 0 0 0 .94-.29 4 4 0 0 0 1.81-3.78zm-2.89 2a2.41 2.41 0 0 1-.3.2V26a2.33 2.33 0 0 1 .92 1.13 1.85 1.85 0 0 1-.6 1.7z"/><path class="cls-2" d="m17.67 31.68-3.46-21.17-3.34 21.23H9.11l3.11 5.75 1.06-2.82 2.17.06 1.47 2.76 2.7-5.81zm-4.09.2.77-6.18.75 6.18zm23.42-.2-3.51-21.17-3.34 21.23h-1.76l3.11 5.75 1.06-2.82 2.17.06 1.47 2.76 2.7-5.81zm-4.09.2.77-6.18.75 6.18z"/></g></svg>