<svg data-name="Слой 1" xmlns="http://www.w3.org/2000/svg" viewBox="0 0 48 48"><path fill="#f2f3f4" d="M0 0h48v48H0z"/><path d="M24.93 12.49c-6.94 0-12.76 3.7-14.37 8.7H7.38l-.84 2.14h3.6v1.43H6l-.8 2.15h5.39c1.67 4.94 7.41 8.59 14.34 8.59 8.18 0 14.82-5.15 14.82-11.5s-6.64-11.51-14.82-11.51zm0 20.27c-4.92 0-9.1-2.44-10.65-5.85H26l.84-2.14H13.69a6.89 6.89 0 010-.77v-.66h13.68l.84-2.14h-14c1.51-3.47 5.72-6 10.7-6 6.24 0 11.29 3.92 11.29 8.77s-5.03 8.79-11.27 8.79z" fill="#f24836"/><path d="M42.8 22.86h-3.1c-.58-4.56-4.6-8.34-10-9.76l-1 2.62c4 1.07 6.93 3.81 7.49 7.14H23.65l-.83 2.2h13.34c-.67 4.34-5.43 7.71-11.2 7.71a14.41 14.41 0 01-2.81-.27l-1 2.62a18.87 18.87 0 003.83.39c7.72 0 14.06-4.59 14.75-10.44H42z" fill="#243d99"/></svg>