<?xml version="1.0" encoding="UTF-8"?>
<!DOCTYPE svg PUBLIC "-//W3C//DTD SVG 1.1//EN" "http://www.w3.org/Graphics/SVG/1.1/DTD/svg11.dtd">
<svg xmlns="http://www.w3.org/2000/svg" version="1.1" width="160px" height="160px" style="shape-rendering:geometricPrecision; text-rendering:geometricPrecision; image-rendering:optimizeQuality; fill-rule:evenodd; clip-rule:evenodd" xmlns:xlink="http://www.w3.org/1999/xlink">
<g><path style="opacity:1" fill="#535353" d="M -0.5,-0.5 C 52.8333,-0.5 106.167,-0.5 159.5,-0.5C 159.5,52.8333 159.5,106.167 159.5,159.5C 106.167,159.5 52.8333,159.5 -0.5,159.5C -0.5,106.167 -0.5,52.8333 -0.5,-0.5 Z"/></g>
<g><path style="opacity:1" fill="#b7b7b7" d="M 41.5,54.5 C 47.979,53.5093 54.6457,53.176 61.5,53.5C 61.7678,55.099 61.4345,56.4324 60.5,57.5C 60.5,56.5 60.5,55.5 60.5,54.5C 54.1667,54.5 47.8333,54.5 41.5,54.5 Z"/></g>
<g><path style="opacity:1" fill="#fafafa" d="M 41.5,54.5 C 47.8333,54.5 54.1667,54.5 60.5,54.5C 60.5,55.5 60.5,56.5 60.5,57.5C 60.5,59.1667 60.5,60.8333 60.5,62.5C 54.1579,62.3338 47.8246,62.5005 41.5,63C 37.5764,66.1816 37.5764,69.1816 41.5,72C 46.1548,72.4992 50.8215,72.6658 55.5,72.5C 55.7261,75.2492 55.3928,77.9159 54.5,80.5C 48.0868,81.0798 41.7535,81.9131 35.5,83C 33.4963,85.8408 32.9963,89.0074 34,92.5C 34.7504,93.1258 35.5838,93.6258 36.5,94C 42.8333,94.6667 49.1667,94.6667 55.5,94C 56.9308,93.5348 58.0975,92.7014 59,91.5C 61.6549,70.9327 72.4882,64.4327 91.5,72C 92.2106,73.2547 93.044,74.4214 94,75.5C 94.8497,85.0849 93.6831,94.4182 90.5,103.5C 87.2317,104.487 83.8984,104.82 80.5,104.5C 81.5911,97.6328 82.9244,90.7994 84.5,84C 85.1244,79.469 83.1244,77.3023 78.5,77.5C 76.0884,77.4062 74.255,78.4062 73,80.5C 70.8461,86.1172 68.8461,91.7838 67,97.5C 65.7494,100.381 63.5827,102.214 60.5,103C 51.2424,104.584 41.9091,104.917 32.5,104C 22.3411,99.1835 19.5077,91.6835 24,81.5C 25.6667,79.8333 27.3333,78.1667 29,76.5C 28.4596,72.5334 28.1263,68.5334 28,64.5C 30.6369,58.603 35.1369,55.2697 41.5,54.5 Z"/></g>
<g><path style="opacity:1" fill="#f9f9f9" d="M 119.5,66.5 C 121.936,66.317 124.103,66.9837 126,68.5C 126.357,72.5104 126.19,76.5104 125.5,80.5C 128.518,80.3354 131.518,80.502 134.5,81C 138.482,84.0485 138.482,87.0485 134.5,90C 130.833,90.3333 127.167,90.6667 123.5,91C 122.515,95.7741 120.848,100.274 118.5,104.5C 115.42,106.105 112.92,105.438 111,102.5C 110.83,98.5066 110.996,94.5066 111.5,90.5C 108.482,90.6646 105.482,90.498 102.5,90C 99.5948,86.6258 99.9281,83.6258 103.5,81C 106.833,80.6667 110.167,80.3333 113.5,80C 115.02,77.4039 115.853,74.5706 116,71.5C 116.697,69.4156 117.864,67.7489 119.5,66.5 Z"/></g>
</svg>
