<?xml version="1.0" encoding="UTF-8"?>
<!DOCTYPE svg PUBLIC "-//W3C//DTD SVG 1.1//EN" "http://www.w3.org/Graphics/SVG/1.1/DTD/svg11.dtd">
<svg xmlns="http://www.w3.org/2000/svg" version="1.1" width="160px" height="160px" style="shape-rendering:geometricPrecision; text-rendering:geometricPrecision; image-rendering:optimizeQuality; fill-rule:evenodd; clip-rule:evenodd" xmlns:xlink="http://www.w3.org/1999/xlink">
<g><path style="opacity:1" fill="#026ca8" d="M -0.5,-0.5 C 52.8333,-0.5 106.167,-0.5 159.5,-0.5C 159.5,52.8333 159.5,106.167 159.5,159.5C 106.167,159.5 52.8333,159.5 -0.5,159.5C -0.5,106.167 -0.5,52.8333 -0.5,-0.5 Z"/></g>
<g><path style="opacity:1" fill="#e7eef2" d="M 43.5,24.5 C 67.169,24.3334 90.8357,24.5 114.5,25C 118.333,26.1667 120.833,28.6667 122,32.5C 122.667,63.5 122.667,94.5 122,125.5C 120.833,130.667 117.667,133.833 112.5,135C 89.8333,135.667 67.1667,135.667 44.5,135C 40.763,133.719 38.263,131.219 37,127.5C 36.3333,95.5 36.3333,63.5 37,31.5C 38.6941,28.6424 40.8607,26.309 43.5,24.5 Z"/></g>
<g><path style="opacity:1" fill="#197aaf" d="M 45.5,26.5 C 67.8358,26.3334 90.1692,26.5 112.5,27C 115.171,28.25 117.337,30.0833 119,32.5C 119.667,63.5 119.667,94.5 119,125.5C 118.193,128.973 116.027,131.14 112.5,132C 89.8333,132.667 67.1667,132.667 44.5,132C 42.6667,130.833 41.1667,129.333 40,127.5C 39.3333,95.5 39.3333,63.5 40,31.5C 41.7297,29.5981 43.563,27.9314 45.5,26.5 Z"/></g>
<g><path style="opacity:1" fill="#e2ebf1" d="M 46.5,30.5 C 68.1692,30.3334 89.8359,30.5 111.5,31C 112.931,31.4652 114.097,32.2986 115,33.5C 115.667,64.1667 115.667,94.8333 115,125.5C 114.167,126.333 113.333,127.167 112.5,128C 90.5,128.667 68.5,128.667 46.5,128C 45.5838,127.626 44.7504,127.126 44,126.5C 42.3491,95.9192 42.0158,65.2525 43,34.5C 44.3756,33.2949 45.5423,31.9616 46.5,30.5 Z"/></g>
<g><path style="opacity:1" fill="#297eab" d="M 108.5,41.5 C 109.525,68.0035 110.025,94.6702 110,121.5C 108.73,123.578 107.23,123.912 105.5,122.5C 104.448,122.351 103.448,122.517 102.5,123C 103.833,123.667 105.167,124.333 106.5,125C 98.5,125.667 90.5,125.667 82.5,125C 83.5,124.667 84.5,124.333 85.5,124C 86.7383,123.31 86.7383,122.81 85.5,122.5C 86.1408,121.518 86.8075,120.518 87.5,119.5C 85.5988,118.769 83.5988,118.769 81.5,119.5C 81.5,117.833 81.5,116.167 81.5,114.5C 83.5,115.167 85.5,115.833 87.5,116.5C 87.1778,112.024 84.8444,110.524 80.5,112C 78.5218,114.497 78.0218,117.331 79,120.5C 80.4443,122.155 82.2776,122.822 84.5,122.5C 78.8333,123.833 73.1667,123.833 67.5,122.5C 66.1514,121.047 64.4847,120.047 62.5,119.5C 64.0419,118.837 65.7086,118.17 67.5,117.5C 68.4847,115.902 68.6514,114.235 68,112.5C 65.2809,111.556 62.4475,111.223 59.5,111.5C 59.1667,111.5 58.8333,111.5 58.5,111.5C 55.4281,111.183 52.4281,111.516 49.5,112.5C 50.325,113.386 51.325,113.719 52.5,113.5C 52.5,116.5 52.5,119.5 52.5,122.5C 53.5,122.5 54.5,122.5 55.5,122.5C 55.5,120.167 55.5,117.833 55.5,115.5C 56.0035,118.453 57.0035,121.286 58.5,124C 56.728,125.487 54.728,125.82 52.5,125C 53.5,124.667 54.5,124.333 55.5,124C 54.8333,123.833 54.1667,123.667 53.5,123.5C 51.3292,124.262 49.3292,124.595 47.5,124.5C 46.6618,124.158 46.3284,123.492 46.5,122.5C 47.4682,120.393 47.8016,118.059 47.5,115.5C 48.5,115.5 49.5,115.5 50.5,115.5C 50.3367,117.857 50.5034,120.19 51,122.5C 51.4974,119.854 51.6641,117.187 51.5,114.5C 50.5,114.5 49.5,114.5 48.5,114.5C 48.0584,112.028 47.725,109.528 47.5,107C 47.5687,105.014 48.2353,103.514 49.5,102.5C 50.2899,103.794 51.2899,104.961 52.5,106C 70.1667,106.667 87.8333,106.667 105.5,106C 106.416,105.626 107.25,105.126 108,104.5C 108.5,83.5026 108.667,62.5026 108.5,41.5 Z"/></g>
<g><path style="opacity:1" fill="#1479af" d="M 47.5,124.5 C 49.3292,124.595 51.3292,124.262 53.5,123.5C 54.1667,123.667 54.8333,123.833 55.5,124C 54.5,124.333 53.5,124.667 52.5,125C 54.728,125.82 56.728,125.487 58.5,124C 57.0035,121.286 56.0035,118.453 55.5,115.5C 55.5,115.167 55.5,114.833 55.5,114.5C 56.5,114.5 57.5,114.5 58.5,114.5C 58.1936,117.385 58.5269,120.052 59.5,122.5C 60.209,123.404 61.209,123.737 62.5,123.5C 62.5,122.167 62.5,120.833 62.5,119.5C 64.4847,120.047 66.1514,121.047 67.5,122.5C 73.1667,123.833 78.8333,123.833 84.5,122.5C 84.8333,122.5 85.1667,122.5 85.5,122.5C 86.7383,122.81 86.7383,123.31 85.5,124C 84.5,124.333 83.5,124.667 82.5,125C 90.5,125.667 98.5,125.667 106.5,125C 105.167,124.333 103.833,123.667 102.5,123C 103.448,122.517 104.448,122.351 105.5,122.5C 107.23,123.912 108.73,123.578 110,121.5C 110.025,94.6702 109.525,68.0035 108.5,41.5C 107.657,39.8267 106.324,38.66 104.5,38C 87.5,37.3333 70.5,37.3333 53.5,38C 52.0692,38.4652 50.9025,39.2986 50,40.5C 49.5,61.164 49.3334,81.8306 49.5,102.5C 48.2353,103.514 47.5687,105.014 47.5,107C 47.725,109.528 48.0584,112.028 48.5,114.5C 49.5,114.5 50.5,114.5 51.5,114.5C 51.6641,117.187 51.4974,119.854 51,122.5C 50.5034,120.19 50.3367,117.857 50.5,115.5C 49.5,115.5 48.5,115.5 47.5,115.5C 47.8016,118.059 47.4682,120.393 46.5,122.5C 45.3363,94.3363 45.1696,66.003 46,37.5C 47.1667,36.3333 48.3333,35.1667 49.5,34C 69.1667,33.3333 88.8333,33.3333 108.5,34C 109.416,34.3742 110.25,34.8742 111,35.5C 112.65,64.7472 112.983,94.0805 112,123.5C 111.167,124.333 110.333,125.167 109.5,126C 89.5,126.667 69.5,126.667 49.5,126C 48.5842,125.722 47.9175,125.222 47.5,124.5 Z"/></g>
<g><path style="opacity:1" fill="#edd819" d="M 85.5,122.5 C 85.1667,122.5 84.8333,122.5 84.5,122.5C 82.2776,122.822 80.4443,122.155 79,120.5C 78.0218,117.331 78.5218,114.497 80.5,112C 84.8444,110.524 87.1778,112.024 87.5,116.5C 85.5,115.833 83.5,115.167 81.5,114.5C 81.5,116.167 81.5,117.833 81.5,119.5C 83.5988,118.769 85.5988,118.769 87.5,119.5C 86.8075,120.518 86.1408,121.518 85.5,122.5 Z"/></g>
<g><path style="opacity:1" fill="#ebd61f" d="M 105.5,122.5 C 103.25,121.959 100.916,121.626 98.5,121.5C 99.4877,118.55 100.321,115.55 101,112.5C 102.667,111.167 104.333,111.167 106,112.5C 106.943,115.824 107.776,119.157 108.5,122.5C 107.5,122.5 106.5,122.5 105.5,122.5 Z"/></g>
<g><path style="opacity:1" fill="#e9d520" d="M 67.5,122.5 C 68.4955,119.179 69.4955,115.846 70.5,112.5C 72.0453,111.548 73.712,111.215 75.5,111.5C 76.0078,115.197 76.6745,118.864 77.5,122.5C 74.1906,121.373 70.8573,121.373 67.5,122.5 Z"/></g>
<g><path style="opacity:1" fill="#79a06e" d="M 72.5,115.5 C 73.7759,116.386 73.7759,117.386 72.5,118.5C 71.4376,117.575 71.4376,116.575 72.5,115.5 Z"/></g>
<g><path style="opacity:1" fill="#749f6f" d="M 102.5,115.5 C 104.465,115.948 104.798,116.948 103.5,118.5C 102.614,117.675 102.281,116.675 102.5,115.5 Z"/></g>
<g><path style="opacity:1" fill="#57977a" d="M 58.5,111.5 C 58.8333,111.5 59.1667,111.5 59.5,111.5C 59.5,115.167 59.5,118.833 59.5,122.5C 58.5269,120.052 58.1936,117.385 58.5,114.5C 57.5,114.5 56.5,114.5 55.5,114.5C 56.9002,113.9 57.9002,112.9 58.5,111.5 Z"/></g>
<g><path style="opacity:1" fill="#e8d620" d="M 90.5,111.5 C 92.7925,111.244 94.9592,111.577 97,112.5C 97.7805,113.944 97.6139,115.277 96.5,116.5C 95.1502,115.05 93.4835,114.383 91.5,114.5C 91.5,116.167 91.5,117.833 91.5,119.5C 93.5,119.167 95.5,118.833 97.5,118.5C 97.67,119.822 97.3366,120.989 96.5,122C 91.5152,123.757 88.8485,122.09 88.5,117C 88.3948,114.822 89.0615,112.988 90.5,111.5 Z"/></g>
<g><path style="opacity:1" fill="#e7d526" d="M 59.5,111.5 C 62.4475,111.223 65.2809,111.556 68,112.5C 68.6514,114.235 68.4847,115.902 67.5,117.5C 65.7086,118.17 64.0419,118.837 62.5,119.5C 62.5,120.833 62.5,122.167 62.5,123.5C 61.209,123.737 60.209,123.404 59.5,122.5C 59.5,118.833 59.5,115.167 59.5,111.5 Z"/></g>
<g><path style="opacity:1" fill="#77987c" d="M 61.5,113.5 C 62.5,113.5 63.5,113.5 64.5,113.5C 64.5,114.5 64.5,115.5 64.5,116.5C 63.5,116.5 62.5,116.5 61.5,116.5C 61.5,115.5 61.5,114.5 61.5,113.5 Z"/></g>
<g><path style="opacity:1" fill="#efd912" d="M 58.5,111.5 C 57.9002,112.9 56.9002,113.9 55.5,114.5C 55.5,114.833 55.5,115.167 55.5,115.5C 55.5,117.833 55.5,120.167 55.5,122.5C 54.5,122.5 53.5,122.5 52.5,122.5C 52.5,119.5 52.5,116.5 52.5,113.5C 51.325,113.719 50.325,113.386 49.5,112.5C 52.4281,111.516 55.4281,111.183 58.5,111.5 Z"/></g>
<g><path style="opacity:1" fill="#eef1f4" d="M 108.5,41.5 C 108.667,62.5026 108.5,83.5026 108,104.5C 107.25,105.126 106.416,105.626 105.5,106C 87.8333,106.667 70.1667,106.667 52.5,106C 51.2899,104.961 50.2899,103.794 49.5,102.5C 49.3334,81.8306 49.5,61.164 50,40.5C 50.9025,39.2986 52.0692,38.4652 53.5,38C 70.5,37.3333 87.5,37.3333 104.5,38C 106.324,38.66 107.657,39.8267 108.5,41.5 Z"/></g>
<g><path style="opacity:1" fill="#88ac67" d="M 55.5,41.5 C 55.5,41.8333 55.5,42.1667 55.5,42.5C 55.5,46.5 55.5,50.5 55.5,54.5C 61.5,54.5 67.5,54.5 73.5,54.5C 73.5,64.1667 73.5,73.8333 73.5,83.5C 77.5,83.5 81.5,83.5 85.5,83.5C 81.3656,84.4849 77.0323,84.8182 72.5,84.5C 72.5,80.5 72.5,76.5 72.5,72.5C 72.5,67.8333 72.5,63.1667 72.5,58.5C 72.5,57.5 72.5,56.5 72.5,55.5C 66.5,55.5 60.5,55.5 54.5,55.5C 54.1805,50.6367 54.5139,45.97 55.5,41.5 Z"/></g>
<g><path style="opacity:1" fill="#0877ad" d="M 72.5,58.5 C 72.5,63.1667 72.5,67.8333 72.5,72.5C 71.1779,72.33 70.0113,72.6634 69,73.5C 68.2009,78.0868 68.3676,82.5868 69.5,87C 80.8284,87.4999 92.1618,87.6665 103.5,87.5C 103.5,92.1667 103.5,96.8333 103.5,101.5C 89.496,101.667 75.496,101.5 61.5,101C 57.8345,99.332 55.6678,96.4987 55,92.5C 54.3333,83.8333 54.3333,75.1667 55,66.5C 58.466,59.0663 64.2994,56.3996 72.5,58.5 Z"/></g>
<g><path style="opacity:1" fill="#78adc3" d="M 103.5,41.5 C 104.486,45.97 104.819,50.6367 104.5,55.5C 80.5,56.1667 80.5,56.8333 104.5,57.5C 104.819,62.3633 104.486,67.03 103.5,71.5C 98.0247,72.4889 92.358,72.8222 86.5,72.5C 86.5,76.8333 86.5,81.1667 86.5,85.5C 81.6367,85.8195 76.97,85.4861 72.5,84.5C 77.0323,84.8182 81.3656,84.4849 85.5,83.5C 85.5,73.8333 85.5,64.1667 85.5,54.5C 91.1667,54.5 96.8333,54.5 102.5,54.5C 103.485,50.3656 103.818,46.0323 103.5,41.5 Z"/></g>
<g><path style="opacity:1" fill="#0076ac" d="M 103.5,71.5 C 97.8333,71.5 92.1667,71.5 86.5,71.5C 86.5,67.1667 86.5,62.8333 86.5,58.5C 92.1667,58.5 97.8333,58.5 103.5,58.5C 103.5,62.8333 103.5,67.1667 103.5,71.5 Z"/></g>
<g><path style="opacity:1" fill="#fbdc00" d="M 55.5,42.5 C 71.1667,42.5 86.8333,42.5 102.5,42.5C 102.5,46.5 102.5,50.5 102.5,54.5C 96.8333,54.5 91.1667,54.5 85.5,54.5C 85.5,64.1667 85.5,73.8333 85.5,83.5C 81.5,83.5 77.5,83.5 73.5,83.5C 73.5,73.8333 73.5,64.1667 73.5,54.5C 67.5,54.5 61.5,54.5 55.5,54.5C 55.5,50.5 55.5,46.5 55.5,42.5 Z"/></g>
<g><path style="opacity:1" fill="#c7c623" d="M 55.5,42.5 C 55.5,42.1667 55.5,41.8333 55.5,41.5C 71.5,41.5 87.5,41.5 103.5,41.5C 103.818,46.0323 103.485,50.3656 102.5,54.5C 102.5,50.5 102.5,46.5 102.5,42.5C 86.8333,42.5 71.1667,42.5 55.5,42.5 Z"/></g>
</svg>
