<?xml version="1.0" encoding="UTF-8"?>
<!DOCTYPE svg PUBLIC "-//W3C//DTD SVG 1.1//EN" "http://www.w3.org/Graphics/SVG/1.1/DTD/svg11.dtd">
<svg xmlns="http://www.w3.org/2000/svg" version="1.1" width="160px" height="160px" style="shape-rendering:geometricPrecision; text-rendering:geometricPrecision; image-rendering:optimizeQuality; fill-rule:evenodd; clip-rule:evenodd" xmlns:xlink="http://www.w3.org/1999/xlink">
<g><path style="opacity:1" fill="#01447a" d="M -0.5,-0.5 C 52.8333,-0.5 106.167,-0.5 159.5,-0.5C 159.5,52.8333 159.5,106.167 159.5,159.5C 106.167,159.5 52.8333,159.5 -0.5,159.5C -0.5,106.167 -0.5,52.8333 -0.5,-0.5 Z"/></g>
<g><path style="opacity:1" fill="#b2c5d6" d="M 57.5,69.5 C 61.97,68.5139 66.6367,68.1805 71.5,68.5C 71.7373,69.791 71.404,70.791 70.5,71.5C 66.6273,69.5698 62.294,68.9031 57.5,69.5 Z"/></g>
<g><path style="opacity:1" fill="#a3bace" d="M 105.5,69.5 C 110.015,68.1876 114.682,68.1876 119.5,69.5C 119.376,70.1067 119.043,70.44 118.5,70.5C 114.366,69.5151 110.032,69.1818 105.5,69.5 Z"/></g>
<g><path style="opacity:1" fill="#f4f6f9" d="M 44.5,75.5 C 42.1432,75.3367 39.8098,75.5034 37.5,76C 43.0099,75.64 44.3432,77.4734 41.5,81.5C 38.3107,82.1661 34.9773,82.8328 31.5,83.5C 29.4465,90.0058 25.1131,92.0058 18.5,89.5C 21.0138,81.9433 25.3472,75.7766 31.5,71C 36.6591,68.5841 41.9924,68.0841 47.5,69.5C 46.4867,71.5266 45.4867,73.5266 44.5,75.5 Z"/></g>
<g><path style="opacity:1" fill="#f9fafc" d="M 57.5,69.5 C 62.294,68.9031 66.6273,69.5698 70.5,71.5C 69.9717,72.7206 69.305,73.8873 68.5,75C 65.1667,75.3333 61.8333,75.6667 58.5,76C 61.992,75.9296 64.992,76.7629 67.5,78.5C 66.6091,79.2613 65.9424,80.2613 65.5,81.5C 61.8776,82.3253 58.211,82.8253 54.5,83C 57.3508,84.2886 60.3508,84.7886 63.5,84.5C 63.5,85.5 63.5,86.5 63.5,87.5C 62.7326,88.172 62.0659,89.0053 61.5,90C 57.1667,90.6667 52.8333,90.6667 48.5,90C 45.921,88.9243 44.2543,87.091 43.5,84.5C 43.1289,80.9966 44.1289,77.9966 46.5,75.5C 49.4,72.2145 53.0666,70.2145 57.5,69.5 Z"/></g>
<g><path style="opacity:1" fill="#f3f6f9" d="M 92.5,77.5 C 86.1278,88.5099 76.4611,92.8433 63.5,90.5C 63.5,89.5 63.5,88.5 63.5,87.5C 64.3909,86.7387 65.0576,85.7387 65.5,84.5C 68.7848,83.6764 72.1182,83.1764 75.5,83C 72.5,82.6667 69.5,82.3333 66.5,82C 67.305,80.8873 67.9717,79.7206 68.5,78.5C 75.3054,69.6714 84.3054,66.338 95.5,68.5C 95.4139,70.677 94.7472,72.677 93.5,74.5C 89.8776,75.3253 86.211,75.8253 82.5,76C 86.0252,76.1787 89.3586,76.6787 92.5,77.5 Z"/></g>
<g><path style="opacity:1" fill="#f5f7fa" d="M 105.5,69.5 C 110.032,69.1818 114.366,69.5151 118.5,70.5C 118.167,71.8333 117.833,73.1667 117.5,74.5C 113.134,75.0715 108.801,75.9048 104.5,77C 102.771,78.7889 102.104,80.9556 102.5,83.5C 105.898,83.1796 109.232,83.513 112.5,84.5C 111.627,86.4134 110.627,88.2467 109.5,90C 103.903,91.0909 98.5698,90.4242 93.5,88C 91.1823,84.7182 90.849,81.2182 92.5,77.5C 95.7972,73.2129 100.131,70.5462 105.5,69.5 Z"/></g>
<g><path style="opacity:1" fill="#f6f8fa" d="M 114.5,82.5 C 112.343,81.5933 110.01,80.9267 107.5,80.5C 107.842,79.6618 108.508,79.3284 109.5,79.5C 115.34,81.4343 121.34,82.2676 127.5,82C 121.163,81.1632 121.497,80.4966 128.5,80C 120.833,79.1872 121.166,78.5205 129.5,78C 126.657,77.5539 123.824,77.0539 121,76.5C 119.624,76.3158 118.791,75.6491 118.5,74.5C 125.232,67.7318 132.398,67.0651 140,72.5C 141.227,78.877 139.061,83.7103 133.5,87C 128.415,90.2801 123.081,90.9468 117.5,89C 115.081,87.4912 114.081,85.3245 114.5,82.5 Z"/></g>
<g><path style="opacity:1" fill="#8ca8c1" d="M 117.5,74.5 C 117.833,74.5 118.167,74.5 118.5,74.5C 118.791,75.6491 119.624,76.3158 121,76.5C 123.824,77.0539 126.657,77.5539 129.5,78C 121.166,78.5205 120.833,79.1872 128.5,80C 121.497,80.4966 121.163,81.1632 127.5,82C 121.34,82.2676 115.34,81.4343 109.5,79.5C 108.402,78.603 108.402,77.7697 109.5,77C 112.675,77.0533 115.342,76.22 117.5,74.5 Z"/></g>
<g><path style="opacity:1" fill="#537ca2" d="M 44.5,75.5 C 45.1667,75.5 45.8333,75.5 46.5,75.5C 44.1289,77.9966 43.1289,80.9966 43.5,84.5C 42.8333,83.5 42.1667,82.5 41.5,81.5C 44.3432,77.4734 43.0099,75.64 37.5,76C 39.8098,75.5034 42.1432,75.3367 44.5,75.5 Z"/></g>
<g><path style="opacity:1" fill="#92aec5" d="M 107.5,80.5 C 110.01,80.9267 112.343,81.5933 114.5,82.5C 111.813,82.6641 109.146,82.4974 106.5,82C 107.056,81.6174 107.389,81.1174 107.5,80.5 Z"/></g>
<g><path style="opacity:1" fill="#658bad" d="M 67.5,78.5 C 67.8333,78.5 68.1667,78.5 68.5,78.5C 67.9717,79.7206 67.305,80.8873 66.5,82C 69.5,82.3333 72.5,82.6667 75.5,83C 72.1182,83.1764 68.7848,83.6764 65.5,84.5C 65.0576,85.7387 64.3909,86.7387 63.5,87.5C 63.5,86.5 63.5,85.5 63.5,84.5C 60.3508,84.7886 57.3508,84.2886 54.5,83C 58.211,82.8253 61.8776,82.3253 65.5,81.5C 65.9424,80.2613 66.6091,79.2613 67.5,78.5 Z"/></g>
</svg>
