<?xml version="1.0" encoding="UTF-8"?>
<!DOCTYPE svg PUBLIC "-//W3C//DTD SVG 1.1//EN" "http://www.w3.org/Graphics/SVG/1.1/DTD/svg11.dtd">
<svg xmlns="http://www.w3.org/2000/svg" version="1.1" width="160px" height="160px" style="shape-rendering:geometricPrecision; text-rendering:geometricPrecision; image-rendering:optimizeQuality; fill-rule:evenodd; clip-rule:evenodd" xmlns:xlink="http://www.w3.org/1999/xlink">
<g><path style="opacity:1" fill="#016104" d="M -0.5,-0.5 C 52.8333,-0.5 106.167,-0.5 159.5,-0.5C 159.5,52.8333 159.5,106.167 159.5,159.5C 106.167,159.5 52.8333,159.5 -0.5,159.5C -0.5,106.167 -0.5,52.8333 -0.5,-0.5 Z"/></g>
<g><path style="opacity:1" fill="#85b386" d="M 69.5,54.5 C 59.4422,53.86 49.7755,54.5267 40.5,56.5C 39.596,55.791 39.2627,54.791 39.5,53.5C 49.6806,53.1726 59.6806,53.506 69.5,54.5 Z"/></g>
<g><path style="opacity:1" fill="#f9fbf9" d="M 69.5,54.5 C 83.6145,54.5466 93.2811,61.0466 98.5,74C 96.3621,72.8956 94.3621,71.229 92.5,69C 90.2827,67.7246 87.9494,66.7246 85.5,66C 74.8888,64.6254 64.2221,64.1254 53.5,64.5C 54.8822,74.9112 56.7155,85.2446 59,95.5C 60.3782,100.208 63.2115,103.708 67.5,106C 55.0187,104.814 47.5187,97.9806 45,85.5C 43.4332,75.8348 41.9332,66.1682 40.5,56.5C 49.7755,54.5267 59.4422,53.86 69.5,54.5 Z"/></g>
<g><path style="opacity:1" fill="#74a773" d="M 100.5,78.5 C 106.31,77.5104 112.31,77.1771 118.5,77.5C 118.784,79.4147 118.451,81.0813 117.5,82.5C 117.5,81.1667 117.5,79.8333 117.5,78.5C 111.833,78.5 106.167,78.5 100.5,78.5 Z"/></g>
<g><path style="opacity:1" fill="#f1f6f1" d="M 71.5,79.5 C 73.6282,78.3709 75.9615,78.2042 78.5,79C 80.2907,81.414 81.9574,83.914 83.5,86.5C 85.5224,84.4687 87.1891,82.1354 88.5,79.5C 90.7649,78.3526 93.0982,78.1859 95.5,79C 92.8269,83.3497 90.1602,87.683 87.5,92C 89.9515,96.6203 92.6182,101.12 95.5,105.5C 93.5787,106.641 91.5787,106.808 89.5,106C 88.0506,102.727 86.0506,99.8937 83.5,97.5C 81.3328,99.8302 79.6662,102.497 78.5,105.5C 76.1667,106.833 73.8333,106.833 71.5,105.5C 74.5513,101.231 77.2179,96.7313 79.5,92C 77.4388,87.3609 74.7722,83.1942 71.5,79.5 Z"/></g>
<g><path style="opacity:1" fill="#f3f7f3" d="M 100.5,78.5 C 106.167,78.5 111.833,78.5 117.5,78.5C 117.5,79.8333 117.5,81.1667 117.5,82.5C 113.03,83.4861 108.363,83.8195 103.5,83.5C 103.215,85.288 103.548,86.9547 104.5,88.5C 114.969,85.9674 119.469,89.9674 118,100.5C 114.723,106.109 109.89,107.942 103.5,106C 100.441,104.401 98.4415,101.901 97.5,98.5C 100.885,97.0173 103.552,97.8506 105.5,101C 111.493,102.668 113.993,100.502 113,94.5C 111.701,93.0203 110.034,92.3536 108,92.5C 105.042,93.8589 101.876,94.5256 98.5,94.5C 98.1557,88.9016 98.8224,83.5683 100.5,78.5 Z"/></g>
</svg>
