<?xml version="1.0" encoding="UTF-8"?>
<!DOCTYPE svg PUBLIC "-//W3C//DTD SVG 1.1//EN" "http://www.w3.org/Graphics/SVG/1.1/DTD/svg11.dtd">
<svg xmlns="http://www.w3.org/2000/svg" version="1.1" width="160px" height="160px" style="shape-rendering:geometricPrecision; text-rendering:geometricPrecision; image-rendering:optimizeQuality; fill-rule:evenodd; clip-rule:evenodd" xmlns:xlink="http://www.w3.org/1999/xlink">
<g><path style="opacity:0.012" fill="#10466c" d="M 93.5,-0.5 C 95.1667,-0.5 96.8333,-0.5 98.5,-0.5C 98.5,-0.166667 98.5,0.166667 98.5,0.5C 96.5853,0.784479 94.9187,0.451145 93.5,-0.5 Z"/></g>
<g><path style="opacity:0.039" fill="#0b3089" d="M 98.5,0.5 C 102.693,0.952575 106.693,2.11924 110.5,4C 109.552,4.48278 108.552,4.64945 107.5,4.5C 106.791,3.59603 105.791,3.26269 104.5,3.5C 103.791,2.59603 102.791,2.26269 101.5,2.5C 100.5,1.83333 99.5,1.16667 98.5,0.5 Z"/></g>
<g><path style="opacity:0.039" fill="#052b86" d="M 51.5,4.5 C 47.7787,4.20738 47.9454,3.54072 52,2.5C 52.5,2.66667 53,2.83333 53.5,3C 52.5842,3.27842 51.9175,3.77842 51.5,4.5 Z"/></g>
<g><path style="opacity:0.024" fill="#0a306b" d="M 46.5,6.5 C 45.5084,6.32842 44.8417,6.66175 44.5,7.5C 42.6214,7.60682 42.2881,7.10682 43.5,6C 44.7494,5.25988 45.7494,5.42654 46.5,6.5 Z"/></g>
<g><path style="opacity:0.035" fill="#1e4594" d="M 118.5,9.5 C 119.497,8.28749 120.497,8.45415 121.5,10C 120.906,10.4643 120.239,10.631 119.5,10.5C 119.5,9.83333 119.167,9.5 118.5,9.5 Z"/></g>
<g><path style="opacity:0.016" fill="#083c91" d="M 38.5,10.5 C 37.8333,10.5 37.5,10.8333 37.5,11.5C 36.8333,11.5 36.1667,11.5 35.5,11.5C 36.221,9.61818 37.221,9.28485 38.5,10.5 Z"/></g>
<g><path style="opacity:0.016" fill="#043280" d="M 35.5,11.5 C 35.5,11.8333 35.5,12.1667 35.5,12.5C 34.8333,12.5 34.5,12.8333 34.5,13.5C 32.2071,12.6987 32.5404,12.032 35.5,11.5 Z"/></g>
<g><path style="opacity:0.012" fill="#16406f" d="M 31.5,15.5 C 30.8333,15.5 30.5,15.8333 30.5,16.5C 28.0248,16.2533 28.0248,15.5866 30.5,14.5C 31.1067,14.6236 31.44,14.9569 31.5,15.5 Z"/></g>
<g><path style="opacity:0.02" fill="#08337d" d="M 128.5,16.5 C 129.497,15.2875 130.497,15.4542 131.5,17C 130.906,17.4643 130.239,17.631 129.5,17.5C 129.5,16.8333 129.167,16.5 128.5,16.5 Z"/></g>
<g><path style="opacity:0.907" fill="#0c3981" d="M 74.5,-0.5 C 77.8333,-0.5 81.1667,-0.5 84.5,-0.5C 90.018,0.600635 95.6847,1.60064 101.5,2.5C 102.209,3.40397 103.209,3.73731 104.5,3.5C 105.209,4.40397 106.209,4.73731 107.5,4.5C 110.979,6.40312 114.646,8.06979 118.5,9.5C 119.167,9.5 119.5,9.83333 119.5,10.5C 122.477,12.4667 125.477,14.4667 128.5,16.5C 129.167,16.5 129.5,16.8333 129.5,17.5C 142.267,28.7054 151.267,42.3721 156.5,58.5C 156.676,61.7273 157.343,64.7273 158.5,67.5C 158.5,75.5 158.5,83.5 158.5,91.5C 157.549,92.9187 157.216,94.5853 157.5,96.5C 156.566,97.5676 156.232,98.901 156.5,100.5C 155.596,101.209 155.263,102.209 155.5,103.5C 154.596,104.209 154.263,105.209 154.5,106.5C 153.596,107.209 153.263,108.209 153.5,109.5C 152.662,109.842 152.328,110.508 152.5,111.5C 151.662,111.842 151.328,112.508 151.5,113.5C 150.662,113.842 150.328,114.508 150.5,115.5C 149.662,115.842 149.328,116.508 149.5,117.5C 148.662,117.842 148.328,118.508 148.5,119.5C 147.833,119.5 147.5,119.833 147.5,120.5C 145.179,123.796 142.846,127.129 140.5,130.5C 139.833,130.5 139.5,130.833 139.5,131.5C 138.833,131.5 138.5,131.833 138.5,132.5C 137.833,132.5 137.5,132.833 137.5,133.5C 136.167,134.167 135.167,135.167 134.5,136.5C 133.833,136.5 133.5,136.833 133.5,137.5C 132.833,137.5 132.5,137.833 132.5,138.5C 131.833,138.5 131.5,138.833 131.5,139.5C 130.833,139.5 130.5,139.833 130.5,140.5C 128.246,141.124 126.579,142.457 125.5,144.5C 124.508,144.328 123.842,144.662 123.5,145.5C 122.833,145.5 122.5,145.833 122.5,146.5C 119.669,147.079 117.336,148.412 115.5,150.5C 114.508,150.328 113.842,150.662 113.5,151.5C 112.508,151.328 111.842,151.662 111.5,152.5C 110.209,152.263 109.209,152.596 108.5,153.5C 107.508,153.328 106.842,153.662 106.5,154.5C 105.209,154.263 104.209,154.596 103.5,155.5C 101.901,155.232 100.568,155.566 99.5,156.5C 97.901,156.232 96.5676,156.566 95.5,157.5C 93.2646,157.205 91.2646,157.539 89.5,158.5C 82.8333,158.5 76.1667,158.5 69.5,158.5C 65.0152,157.216 60.3485,156.216 55.5,155.5C 53.1098,153.98 50.4432,152.98 47.5,152.5C 44.0012,150.25 40.3346,148.25 36.5,146.5C 34.1401,144.147 31.4735,142.147 28.5,140.5C 28.5,139.833 28.1667,139.5 27.5,139.5C 23.1759,134.875 18.8426,130.208 14.5,125.5C 14.0679,124.29 13.4013,123.29 12.5,122.5C 12.0679,121.29 11.4013,120.29 10.5,119.5C 10.6716,118.508 10.3382,117.842 9.5,117.5C 8.20323,113.917 6.53657,110.584 4.5,107.5C 4.73731,106.209 4.40397,105.209 3.5,104.5C 3.27852,101.933 2.61185,99.5994 1.5,97.5C 1.78448,95.5853 1.45115,93.9187 0.5,92.5C 0.810002,89.2869 0.476669,86.2869 -0.5,83.5C -0.5,80.5 -0.5,77.5 -0.5,74.5C 0.476669,71.7131 0.810002,68.7131 0.5,65.5C 1.7682,63.0948 2.43487,60.4282 2.5,57.5C 3.73838,55.7857 4.40505,53.7857 4.5,51.5C 10.0863,37.5755 18.7529,25.9089 30.5,16.5C 31.1667,16.5 31.5,16.1667 31.5,15.5C 32.7095,15.0679 33.7095,14.4013 34.5,13.5C 35.1667,13.5 35.5,13.1667 35.5,12.5C 36.4916,12.6716 37.1583,12.3382 37.5,11.5C 38.1667,11.5 38.5,11.1667 38.5,10.5C 40.8185,10.0075 42.8185,9.00751 44.5,7.5C 45.4916,7.67158 46.1583,7.33825 46.5,6.5C 48.403,6.20414 50.0697,5.53747 51.5,4.5C 59.1468,2.17265 66.8134,0.505988 74.5,-0.5 Z"/></g>
<g><path style="opacity:1" fill="#7cc310" d="M 69.5,5.5 C 105.993,3.48781 132.159,18.8211 148,51.5C 158.365,82.8488 152.199,110.349 129.5,134C 98.8024,158.398 67.1357,159.731 34.5,138C 7.19563,113.72 -0.304366,84.2203 12,49.5C 23.8513,25.1347 43.018,10.468 69.5,5.5 Z"/></g>
<g><path style="opacity:1" fill="#fafbfb" d="M 69.5,19.5 C 100.77,17.2113 122.937,30.2113 136,58.5C 144.347,87.7912 136.514,111.625 112.5,130C 81.3793,146.86 54.2126,142.026 31,115.5C 12.3646,84.5673 16.1979,56.734 42.5,32C 50.8307,26.1648 59.8307,21.9982 69.5,19.5 Z"/></g>
<g><path style="opacity:1" fill="#000177" d="M 77.5,42.5 C 69.6841,43.4924 61.6841,43.8257 53.5,43.5C 53.5,69.1667 53.5,94.8333 53.5,120.5C 52.5022,94.672 52.1689,68.672 52.5,42.5C 60.8333,42.5 69.1667,42.5 77.5,42.5 Z"/></g>
<g><path style="opacity:1" fill="#063980" d="M 77.5,42.5 C 78.6517,47.9846 78.8184,53.6513 78,59.5C 76.6439,60.3802 75.1439,60.7135 73.5,60.5C 73.5,64.5 73.5,68.5 73.5,72.5C 75.1439,72.2865 76.6439,72.6198 78,73.5C 78.4994,79.1569 78.6661,84.8236 78.5,90.5C 76.8333,90.5 75.1667,90.5 73.5,90.5C 73.6665,100.506 73.4998,110.506 73,120.5C 66.4013,121.826 59.9013,121.826 53.5,120.5C 53.5,94.8333 53.5,69.1667 53.5,43.5C 61.6841,43.8257 69.6841,43.4924 77.5,42.5 Z"/></g>
<g><path style="opacity:1" fill="#0e3c82" d="M 82.5,42.5 C 91.3178,43.4933 100.318,43.8266 109.5,43.5C 109.5,48.8333 109.5,54.1667 109.5,59.5C 100.676,60.6573 91.6762,60.824 82.5,60C 81.1747,54.0677 81.1747,48.2343 82.5,42.5 Z"/></g>
<g><path style="opacity:1" fill="#00057a" d="M 82.5,42.5 C 91.8333,42.5 101.167,42.5 110.5,42.5C 110.822,48.358 110.489,54.0247 109.5,59.5C 109.5,54.1667 109.5,48.8333 109.5,43.5C 100.318,43.8266 91.3178,43.4933 82.5,42.5 Z"/></g>
<g><path style="opacity:0.016" fill="#163f5f" d="M 4.5,51.5 C 4.16667,51.5 3.83333,51.5 3.5,51.5C 3.83333,47.5 4.16667,47.5 4.5,51.5 Z"/></g>
<g><path style="opacity:0.016" fill="#0a2f80" d="M 3.5,51.5 C 3.63101,52.2389 3.46434,52.9056 3,53.5C 2.30831,52.5632 2.47498,51.8966 3.5,51.5 Z"/></g>
<g><path style="opacity:0.016" fill="#1d4093" d="M 2.5,57.5 C 2.16667,57.5 1.83333,57.5 1.5,57.5C 1.83333,53.5 2.16667,53.5 2.5,57.5 Z"/></g>
<g><path style="opacity:0.012" fill="#162f5a" d="M 157.5,58.5 C 157.167,58.5 156.833,58.5 156.5,58.5C 156.833,53.1667 157.167,53.1667 157.5,58.5 Z"/></g>
<g><path style="opacity:0.016" fill="#093380" d="M 1.5,57.5 C 1.64945,58.552 1.48278,59.552 1,60.5C 0.259877,59.2506 0.426544,58.2506 1.5,57.5 Z"/></g>
<g><path style="opacity:0.016" fill="#093380" d="M 157.5,58.5 C 158.573,59.2506 158.74,60.2506 158,61.5C 157.517,60.552 157.351,59.552 157.5,58.5 Z"/></g>
<g><path style="opacity:0.016" fill="#083a88" d="M -0.5,61.5 C 0.434475,62.5676 0.767809,63.901 0.5,65.5C 0.166667,65.5 -0.166667,65.5 -0.5,65.5C -0.5,64.1667 -0.5,62.8333 -0.5,61.5 Z"/></g>
<g><path style="opacity:0.016" fill="#0f3b9d" d="M 159.5,62.5 C 159.5,64.1667 159.5,65.8333 159.5,67.5C 159.167,67.5 158.833,67.5 158.5,67.5C 158.216,65.5853 158.549,63.9187 159.5,62.5 Z"/></g>
<g><path style="opacity:1" fill="#0e3b82" d="M 107.5,73.5 C 106.512,78.6405 106.179,83.9738 106.5,89.5C 98.3159,89.1743 90.3159,89.5076 82.5,90.5C 81.1747,84.7657 81.1747,78.9323 82.5,73C 91.0104,72.1768 99.3437,72.3434 107.5,73.5 Z"/></g>
<g><path style="opacity:1" fill="#00006f" d="M 107.5,73.5 C 107.5,79.1667 107.5,84.8333 107.5,90.5C 99.1667,90.5 90.8333,90.5 82.5,90.5C 90.3159,89.5076 98.3159,89.1743 106.5,89.5C 106.179,83.9738 106.512,78.6405 107.5,73.5 Z"/></g>
<g><path style="opacity:0.016" fill="#113c5b" d="M 158.5,91.5 C 158.833,91.5 159.167,91.5 159.5,91.5C 159.5,93.1667 159.5,94.8333 159.5,96.5C 159.167,96.5 158.833,96.5 158.5,96.5C 158.5,94.8333 158.5,93.1667 158.5,91.5 Z"/></g>
<g><path style="opacity:0.016" fill="#1d3ca1" d="M -0.5,92.5 C -0.166667,92.5 0.166667,92.5 0.5,92.5C 0.5,94.1667 0.5,95.8333 0.5,97.5C 0.166667,97.5 -0.166667,97.5 -0.5,97.5C -0.5,95.8333 -0.5,94.1667 -0.5,92.5 Z"/></g>
<g><path style="opacity:0.016" fill="#1a4497" d="M 157.5,96.5 C 157.833,96.5 158.167,96.5 158.5,96.5C 158.768,98.099 158.434,99.4324 157.5,100.5C 157.5,99.1667 157.5,97.8333 157.5,96.5 Z"/></g>
<g><path style="opacity:0.016" fill="#123c54" d="M 0.5,97.5 C 0.833333,97.5 1.16667,97.5 1.5,97.5C 1.16667,102.833 0.833333,102.833 0.5,97.5 Z"/></g>
<g><path style="opacity:0.016" fill="#0a388a" d="M 156.5,100.5 C 156.833,100.5 157.167,100.5 157.5,100.5C 157.737,101.791 157.404,102.791 156.5,103.5C 156.5,102.5 156.5,101.5 156.5,100.5 Z"/></g>
<g><path style="opacity:0.016" fill="#0b2680" d="M 155.5,103.5 C 155.833,103.5 156.167,103.5 156.5,103.5C 156.737,104.791 156.404,105.791 155.5,106.5C 155.5,105.5 155.5,104.5 155.5,103.5 Z"/></g>
<g><path style="opacity:0.016" fill="#123568" d="M 3.5,104.5 C 3.5,105.5 3.5,106.5 3.5,107.5C 2.16667,106.5 2.16667,105.5 3.5,104.5 Z"/></g>
<g><path style="opacity:0.016" fill="#123568" d="M 154.5,106.5 C 154.833,106.5 155.167,106.5 155.5,106.5C 155.737,107.791 155.404,108.791 154.5,109.5C 154.5,108.5 154.5,107.5 154.5,106.5 Z"/></g>
<g><path style="opacity:0.012" fill="#0b4e63" d="M 3.5,107.5 C 3.83333,107.5 4.16667,107.5 4.5,107.5C 4.16667,110.167 3.83333,110.167 3.5,107.5 Z"/></g>
<g><path style="opacity:0.008" fill="#0a1c80" d="M 153.5,109.5 C 153.833,109.5 154.167,109.5 154.5,109.5C 154.672,110.492 154.338,111.158 153.5,111.5C 153.5,110.833 153.5,110.167 153.5,109.5 Z"/></g>
<g><path style="opacity:0.008" fill="#116a80" d="M 152.5,111.5 C 152.833,111.5 153.167,111.5 153.5,111.5C 153.672,112.492 153.338,113.158 152.5,113.5C 152.5,112.833 152.5,112.167 152.5,111.5 Z"/></g>
<g><path style="opacity:0.012" fill="#0f5570" d="M 151.5,113.5 C 151.833,113.5 152.167,113.5 152.5,113.5C 152.672,114.492 152.338,115.158 151.5,115.5C 151.5,114.833 151.5,114.167 151.5,113.5 Z"/></g>
<g><path style="opacity:0.008" fill="#116a80" d="M 150.5,115.5 C 150.833,115.5 151.167,115.5 151.5,115.5C 151.672,116.492 151.338,117.158 150.5,117.5C 150.5,116.833 150.5,116.167 150.5,115.5 Z"/></g>
<g><path style="opacity:0.012" fill="#17396e" d="M 9.5,117.5 C 9.5,118.167 9.5,118.833 9.5,119.5C 8.16667,118.833 8.16667,118.167 9.5,117.5 Z"/></g>
<g><path style="opacity:0.004" fill="#1429d3" d="M 149.5,117.5 C 149.833,117.5 150.167,117.5 150.5,117.5C 150.672,118.492 150.338,119.158 149.5,119.5C 149.5,118.833 149.5,118.167 149.5,117.5 Z"/></g>
<g><path style="opacity:0.016" fill="#003f80" d="M 148.5,119.5 C 148.833,119.5 149.167,119.5 149.5,119.5C 149.315,120.17 148.981,120.17 148.5,119.5 Z"/></g>
<g><path style="opacity:0.008" fill="#0a1c80" d="M 9.5,119.5 C 9.83333,119.5 10.1667,119.5 10.5,119.5C 10.1667,122.167 9.83333,122.167 9.5,119.5 Z"/></g>
<g><path style="opacity:0.012" fill="#2a498b" d="M 147.5,120.5 C 147.833,120.5 148.167,120.5 148.5,120.5C 148.167,123.167 147.833,123.167 147.5,120.5 Z"/></g>
<g><path style="opacity:0.008" fill="#265981" d="M 12.5,122.5 C 12.631,123.239 12.4643,123.906 12,124.5C 11.3083,123.563 11.475,122.897 12.5,122.5 Z"/></g>
<g><path style="opacity:0.004" fill="#1731e2" d="M 14.5,125.5 C 14.631,126.239 14.4643,126.906 14,127.5C 13.3083,126.563 13.475,125.897 14.5,125.5 Z"/></g>
<g><path style="opacity:0.016" fill="#003f80" d="M 140.5,130.5 C 141.833,131.167 141.833,131.167 140.5,130.5 Z"/></g>
<g><path style="opacity:0.004" fill="#252c67" d="M 139.5,131.5 C 139.833,131.5 140.167,131.5 140.5,131.5C 140.315,133.196 139.481,134.529 138,135.5C 137.536,134.906 137.369,134.239 137.5,133.5C 138.167,133.5 138.5,133.167 138.5,132.5C 139.167,132.5 139.5,132.167 139.5,131.5 Z"/></g>
<g><path style="opacity:0.004" fill="#271baa" d="M 134.5,136.5 C 135.239,136.369 135.906,136.536 136.5,137C 135.529,138.481 134.196,139.315 132.5,139.5C 132.5,139.167 132.5,138.833 132.5,138.5C 133.167,138.5 133.5,138.167 133.5,137.5C 134.167,137.5 134.5,137.167 134.5,136.5 Z"/></g>
<g><path style="opacity:0.004" fill="#1d1c50" d="M 27.5,139.5 C 28.1667,139.5 28.5,139.833 28.5,140.5C 27.5029,141.713 26.5029,141.546 25.5,140C 26.0944,139.536 26.7611,139.369 27.5,139.5 Z"/></g>
<g><path style="opacity:0.016" fill="#003f80" d="M 131.5,139.5 C 131.833,139.5 132.167,139.5 132.5,139.5C 132.315,140.17 131.981,140.17 131.5,139.5 Z"/></g>
<g><path style="opacity:0.016" fill="#003f80" d="M 130.5,140.5 C 130.833,140.5 131.167,140.5 131.5,140.5C 131.315,141.17 130.981,141.17 130.5,140.5 Z"/></g>
<g><path style="opacity:0.016" fill="#003f80" d="M 125.5,144.5 C 126.833,145.167 126.833,145.167 125.5,144.5 Z"/></g>
<g><path style="opacity:0.008" fill="#000080" d="M 123.5,146.5 C 123.5,146.167 123.5,145.833 123.5,145.5C 124.167,145.5 124.833,145.5 125.5,145.5C 125.158,146.338 124.492,146.672 123.5,146.5 Z"/></g>
<g><path style="opacity:0.016" fill="#122b54" d="M 36.5,146.5 C 36.5,146.833 36.5,147.167 36.5,147.5C 33.8333,147.167 33.8333,146.833 36.5,146.5 Z"/></g>
<g><path style="opacity:0.016" fill="#003f80" d="M 122.5,146.5 C 122.833,146.5 123.167,146.5 123.5,146.5C 123.315,147.17 122.981,147.17 122.5,146.5 Z"/></g>
<g><path style="opacity:0.012" fill="#005554" d="M 36.5,147.5 C 37.8333,148.167 37.8333,148.167 36.5,147.5 Z"/></g>
<g><path style="opacity:0.004" fill="#1429d3" d="M 115.5,151.5 C 115.5,151.167 115.5,150.833 115.5,150.5C 118.167,150.833 118.167,151.167 115.5,151.5 Z"/></g>
<g><path style="opacity:0.004" fill="#1429d3" d="M 113.5,152.5 C 113.5,152.167 113.5,151.833 113.5,151.5C 114.167,151.5 114.833,151.5 115.5,151.5C 115.158,152.338 114.492,152.672 113.5,152.5 Z"/></g>
<g><path style="opacity:0.016" fill="#0a2f80" d="M 47.5,152.5 C 47.5,152.833 47.5,153.167 47.5,153.5C 44.8333,153.167 44.8333,152.833 47.5,152.5 Z"/></g>
<g><path style="opacity:0.004" fill="#1429d3" d="M 111.5,153.5 C 111.5,153.167 111.5,152.833 111.5,152.5C 112.167,152.5 112.833,152.5 113.5,152.5C 113.158,153.338 112.492,153.672 111.5,153.5 Z"/></g>
<g><path style="opacity:0.016" fill="#1338a8" d="M 47.5,153.5 C 48.2389,153.369 48.9056,153.536 49.5,154C 48.5632,154.692 47.8966,154.525 47.5,153.5 Z"/></g>
<g><path style="opacity:0.012" fill="#182e72" d="M 108.5,154.5 C 108.5,154.167 108.5,153.833 108.5,153.5C 109.5,153.5 110.5,153.5 111.5,153.5C 110.791,154.404 109.791,154.737 108.5,154.5 Z"/></g>
<g><path style="opacity:0.008" fill="#0a1c80" d="M 106.5,155.5 C 106.5,155.167 106.5,154.833 106.5,154.5C 107.167,154.5 107.833,154.5 108.5,154.5C 108.158,155.338 107.492,155.672 106.5,155.5 Z"/></g>
<g><path style="opacity:0.012" fill="#153f7c" d="M 55.5,155.5 C 55.5,155.833 55.5,156.167 55.5,156.5C 51.5,156.167 51.5,155.833 55.5,155.5 Z"/></g>
<g><path style="opacity:0.012" fill="#113b4a" d="M 103.5,156.5 C 103.5,156.167 103.5,155.833 103.5,155.5C 104.5,155.5 105.5,155.5 106.5,155.5C 105.791,156.404 104.791,156.737 103.5,156.5 Z"/></g>
<g><path style="opacity:0.012" fill="#133a72" d="M 55.5,156.5 C 56.552,156.351 57.552,156.517 58.5,157C 57.2506,157.74 56.2506,157.573 55.5,156.5 Z"/></g>
<g><path style="opacity:0.004" fill="#15253d" d="M 99.5,157.5 C 99.5,157.167 99.5,156.833 99.5,156.5C 100.833,156.5 102.167,156.5 103.5,156.5C 102.432,157.434 101.099,157.768 99.5,157.5 Z"/></g>
<g><path style="opacity:0.016" fill="#1e4da1" d="M 95.5,158.5 C 95.5,158.167 95.5,157.833 95.5,157.5C 96.8333,157.5 98.1667,157.5 99.5,157.5C 98.4324,158.434 97.099,158.768 95.5,158.5 Z"/></g>
<g><path style="opacity:0.016" fill="#173c74" d="M 63.5,159.5 C 65.2646,158.539 67.2646,158.205 69.5,158.5C 69.5,158.833 69.5,159.167 69.5,159.5C 67.5,159.5 65.5,159.5 63.5,159.5 Z"/></g>
<g><path style="opacity:0.016" fill="#1a387b" d="M 89.5,159.5 C 89.5,159.167 89.5,158.833 89.5,158.5C 91.5,158.5 93.5,158.5 95.5,158.5C 95.5,158.833 95.5,159.167 95.5,159.5C 93.5,159.5 91.5,159.5 89.5,159.5 Z"/></g>
</svg>
