<?xml version="1.0" encoding="UTF-8"?>
<!DOCTYPE svg PUBLIC "-//W3C//DTD SVG 1.1//EN" "http://www.w3.org/Graphics/SVG/1.1/DTD/svg11.dtd">
<svg xmlns="http://www.w3.org/2000/svg" version="1.1" width="160px" height="160px" style="shape-rendering:geometricPrecision; text-rendering:geometricPrecision; image-rendering:optimizeQuality; fill-rule:evenodd; clip-rule:evenodd" xmlns:xlink="http://www.w3.org/1999/xlink">
<g><path style="opacity:1" fill="#214189" d="M -0.5,-0.5 C 52.8333,-0.5 106.167,-0.5 159.5,-0.5C 159.5,6.83333 159.5,14.1667 159.5,21.5C 106.167,21.5 52.8333,21.5 -0.5,21.5C -0.5,14.1667 -0.5,6.83333 -0.5,-0.5 Z"/></g>
<g><path style="opacity:1" fill="#1c408e" d="M -0.5,21.5 C 52.8333,21.5 106.167,21.5 159.5,21.5C 159.5,57.1667 159.5,92.8333 159.5,128.5C 106.167,128.5 52.8333,128.5 -0.5,128.5C -0.5,92.8333 -0.5,57.1667 -0.5,21.5 Z"/></g>
<g><path style="opacity:1" fill="#f8f9f8" d="M 121.5,60.5 C 126.214,60.1734 130.88,60.5067 135.5,61.5C 135.167,62.1667 134.833,62.8333 134.5,63.5C 139.536,63.878 144.203,65.378 148.5,68C 151.824,73.6891 150.491,78.0224 144.5,81C 138.652,84.5253 132.318,86.3587 125.5,86.5C 125.5,87.5 125.5,88.5 125.5,89.5C 120.833,89.5 116.167,89.5 111.5,89.5C 111.5,88.5 111.5,87.5 111.5,86.5C 105.8,86.5311 100.967,84.5311 97,80.5C 95.8426,74.6491 98.0093,70.4824 103.5,68C 108.522,65.4375 113.855,64.1041 119.5,64C 120.305,62.8873 120.972,61.7206 121.5,60.5 Z"/></g>
<g><path style="opacity:1" fill="#f7f8f8" d="M 25.5,62.5 C 34.5246,62.1685 43.5246,62.5018 52.5,63.5C 51.8153,65.5473 50.6486,67.2139 49,68.5C 39.9835,66.1817 31.6502,67.515 24,72.5C 22.4178,74.6237 22.2512,76.7904 23.5,79C 25.5,80 27.5,81 29.5,82C 35.8714,82.4838 42.2047,82.4838 48.5,82C 36.0239,88.9491 23.3572,89.2824 10.5,83C 6.15067,77.4171 6.81733,72.4171 12.5,68C 16.7598,65.7029 21.0931,63.8696 25.5,62.5 Z"/></g>
<g><path style="opacity:1" fill="#8b9dc3" d="M 57.5,63.5 C 62.3477,62.1863 67.3477,62.1863 72.5,63.5C 72.3764,64.1067 72.0431,64.44 71.5,64.5C 67.03,63.5139 62.3633,63.1805 57.5,63.5 Z"/></g>
<g><path style="opacity:1" fill="#8596c1" d="M 85.5,63.5 C 91.0129,62.1843 96.6796,62.1843 102.5,63.5C 102.376,64.1067 102.043,64.44 101.5,64.5C 96.3595,63.5119 91.0262,63.1786 85.5,63.5 Z"/></g>
<g><path style="opacity:1" fill="#f8f9f8" d="M 57.5,63.5 C 62.3633,63.1805 67.03,63.5139 71.5,64.5C 70.9,67.298 69.9,69.9646 68.5,72.5C 68.8333,72.8333 69.1667,73.1667 69.5,73.5C 74.5849,69.7442 79.9182,66.4109 85.5,63.5C 91.0262,63.1786 96.3595,63.5119 101.5,64.5C 95.8606,67.6546 90.1939,70.8212 84.5,74C 88.3705,77.7023 92.0371,81.5357 95.5,85.5C 90.6946,86.4872 85.6946,86.8205 80.5,86.5C 76.5066,82.5332 72.5066,78.5332 68.5,74.5C 66.8102,78.5906 65.1436,82.5906 63.5,86.5C 58.6367,86.8195 53.97,86.4861 49.5,85.5C 49.84,83.321 50.84,81.4877 52.5,80C 56.4849,78.3948 60.4849,76.8948 64.5,75.5C 65.3764,75.6309 66.0431,75.2975 66.5,74.5C 62.2172,73.5078 57.8839,73.1744 53.5,73.5C 54.3208,69.8733 55.6541,66.54 57.5,63.5 Z"/></g>
<g><path style="opacity:1" fill="#25408e" d="M 132.5,69.5 C 135.955,70.1284 137.122,72.1284 136,75.5C 134.261,77.7411 132.094,79.4078 129.5,80.5C 129.673,76.8254 130.673,73.1587 132.5,69.5 Z"/></g>
<g><path style="opacity:1" fill="#213d8c" d="M 115.5,69.5 C 116.552,69.3505 117.552,69.5172 118.5,70C 116.608,73.4269 114.941,76.9269 113.5,80.5C 110.154,78.4384 109.654,75.7718 112,72.5C 113.518,71.8366 114.685,70.8366 115.5,69.5 Z"/></g>
<g><path style="opacity:1" fill="#8695bf" d="M 53.5,73.5 C 57.8839,73.1744 62.2172,73.5078 66.5,74.5C 66.0431,75.2975 65.3764,75.6309 64.5,75.5C 60.8333,74.8333 57.1667,74.1667 53.5,73.5 Z"/></g>
<g><path style="opacity:1" fill="#96a7c8" d="M 49.5,85.5 C 53.97,86.4861 58.6367,86.8195 63.5,86.5C 58.6523,87.8137 53.6523,87.8137 48.5,86.5C 48.6236,85.8933 48.9569,85.56 49.5,85.5 Z"/></g>
<g><path style="opacity:1" fill="#a0accd" d="M 95.5,85.5 C 96.0431,85.56 96.3764,85.8933 96.5,86.5C 91.0136,87.8147 85.6803,87.8147 80.5,86.5C 85.6946,86.8205 90.6946,86.4872 95.5,85.5 Z"/></g>
<g><path style="opacity:1" fill="#204189" d="M -0.5,128.5 C 52.8333,128.5 106.167,128.5 159.5,128.5C 159.5,138.833 159.5,149.167 159.5,159.5C 106.167,159.5 52.8333,159.5 -0.5,159.5C -0.5,149.167 -0.5,138.833 -0.5,128.5 Z"/></g>
</svg>
