<?xml version="1.0" encoding="UTF-8"?>
<!DOCTYPE svg PUBLIC "-//W3C//DTD SVG 1.1//EN" "http://www.w3.org/Graphics/SVG/1.1/DTD/svg11.dtd">
<svg xmlns="http://www.w3.org/2000/svg" version="1.1" width="160px" height="160px" style="shape-rendering:geometricPrecision; text-rendering:geometricPrecision; image-rendering:optimizeQuality; fill-rule:evenodd; clip-rule:evenodd" xmlns:xlink="http://www.w3.org/1999/xlink">
<g><path style="opacity:1" fill="#f4f4f4" d="M -0.5,-0.5 C 52.8333,-0.5 106.167,-0.5 159.5,-0.5C 159.5,52.8333 159.5,106.167 159.5,159.5C 106.167,159.5 52.8333,159.5 -0.5,159.5C -0.5,106.167 -0.5,52.8333 -0.5,-0.5 Z"/></g>
<g><path style="opacity:1" fill="#c90119" d="M 34.5,34.5 C 64.5,34.5 94.5,34.5 124.5,34.5C 124.5,39.1667 124.5,43.8333 124.5,48.5C 110.997,49.6875 97.6634,51.8542 84.5,55C 82.9372,57.4763 83.6038,58.9763 86.5,59.5C 98.9925,56.3344 111.659,54.3344 124.5,53.5C 124.5,77.1667 124.5,100.833 124.5,124.5C 94.5,124.5 64.5,124.5 34.5,124.5C 34.3334,109.163 34.5001,93.8297 35,78.5C 42.3976,74.8104 49.8976,71.3104 57.5,68C 59,65.8333 58.5,64.3333 56,63.5C 49.108,66.3626 42.2747,69.3626 35.5,72.5C 34.5009,59.8508 34.1676,47.1842 34.5,34.5 Z"/></g>
<g><path style="opacity:1" fill="#f4eaeb" d="M 74.5,54.5 C 76.1439,54.2865 77.6439,54.6198 79,55.5C 80.1898,58.1944 80.3565,60.8611 79.5,63.5C 73.8928,65.5411 68.2261,67.0411 62.5,68C 60.8399,65.3669 60.3399,62.5335 61,59.5C 65.6679,58.0506 70.1679,56.384 74.5,54.5 Z"/></g>
</svg>
