<svg data-name="Слой 1" xmlns="http://www.w3.org/2000/svg" viewBox="0 0 48 48"><path fill="#00375e" d="M0 0h48v48H0z"/><path d="M18.93 23.91l-.62.09a2.36 2.36 0 00-.63.18.85.85 0 00-.41.41 1.49 1.49 0 00-.12.62v3.3a14.69 14.69 0 01-2.56.89 10.63 10.63 0 01-2.51.31 6.69 6.69 0 01-2.54-.49 6.33 6.33 0 01-2.13-1.4A6.75 6.75 0 016 25.58a7.66 7.66 0 01-.54-2.94A8 8 0 016 19.72a6.91 6.91 0 011.44-2.32 6.45 6.45 0 012.19-1.51 6.93 6.93 0 012.72-.54 6.54 6.54 0 012 .28 7.35 7.35 0 011.52.68l.4-.66h.77l.09 4.8h-.79a13.57 13.57 0 00-.5-1.56 5.45 5.45 0 00-.78-1.38 3.57 3.57 0 00-1.16-1 3.44 3.44 0 00-1.63-.36 4 4 0 00-1.85.42A4 4 0 009 17.85a5.93 5.93 0 00-.91 2 10.44 10.44 0 00-.32 2.68A9.34 9.34 0 008.11 25 6.23 6.23 0 009 27a4.37 4.37 0 001.5 1.36 4.19 4.19 0 002 .49 4.41 4.41 0 001.55-.26 2.8 2.8 0 001-.55 7.18 7.18 0 00.08-1V25.4a2.15 2.15 0 00-.11-.72.77.77 0 00-.46-.46 3.15 3.15 0 00-.87-.22l-.86-.09v-.71h6zm12.25-4.53h-.67a4.59 4.59 0 00-.32-.83 7.51 7.51 0 00-.51-.9 4.57 4.57 0 00-.64-.78 1.26 1.26 0 00-.66-.38c-.2 0-.45 0-.76-.06h-1.4v11a1.26 1.26 0 00.14.58.9.9 0 00.47.41 5.69 5.69 0 00.73.18 5.22 5.22 0 00.87.13v.69H22v-.72l.83-.08a3.18 3.18 0 00.77-.15.93.93 0 00.47-.36 1.17 1.17 0 00.15-.63V16.41h-1.36c-.3 0-.58 0-.85.06a1.18 1.18 0 00-.66.38 5.18 5.18 0 00-.63.78 6.62 6.62 0 00-.51.92 5.66 5.66 0 00-.31.81h-.68v-3.71h12zM43.3 25.3l-.3 4.08H32.28v-.68l.67-.07a2.31 2.31 0 00.61-.13.83.83 0 00.42-.37 1.3 1.3 0 00.13-.62v-9.83a1.42 1.42 0 00-.11-.58.85.85 0 00-.44-.41 3.3 3.3 0 00-.62-.23 3.6 3.6 0 00-.66-.13v-.69h5.8v.69a4.49 4.49 0 00-.7.1 5.27 5.27 0 00-.62.15.72.72 0 00-.45.4 1.49 1.49 0 00-.12.6v9.22a6 6 0 00.06 1 .88.88 0 00.29.55 1.34 1.34 0 00.66.23 10.77 10.77 0 001.23.05h.75a6.53 6.53 0 00.74-.08 3.73 3.73 0 00.62-.16 1 1 0 00.42-.26 8.68 8.68 0 00.92-1.35 9.54 9.54 0 00.73-1.47z" fill="#fff"/></svg>