<?xml version="1.0" encoding="UTF-8"?>
<!DOCTYPE svg PUBLIC "-//W3C//DTD SVG 1.1//EN" "http://www.w3.org/Graphics/SVG/1.1/DTD/svg11.dtd">
<svg xmlns="http://www.w3.org/2000/svg" version="1.1" width="160px" height="160px" style="shape-rendering:geometricPrecision; text-rendering:geometricPrecision; image-rendering:optimizeQuality; fill-rule:evenodd; clip-rule:evenodd" xmlns:xlink="http://www.w3.org/1999/xlink">
<g><path style="opacity:1" fill="#024990" d="M -0.5,-0.5 C 52.8333,-0.5 106.167,-0.5 159.5,-0.5C 159.5,52.8333 159.5,106.167 159.5,159.5C 106.167,159.5 52.8333,159.5 -0.5,159.5C -0.5,106.167 -0.5,52.8333 -0.5,-0.5 Z"/></g>
<g><path style="opacity:1" fill="#b7cadf" d="M 67.5,50.5 C 77.008,49.1775 86.6746,49.1775 96.5,50.5C 96.3764,51.1067 96.0431,51.44 95.5,51.5C 86.3483,50.5064 77.015,50.1731 67.5,50.5 Z"/></g>
<g><path style="opacity:1" fill="#f8fafc" d="M 67.5,50.5 C 77.015,50.1731 86.3483,50.5064 95.5,51.5C 94.8324,54.6674 93.1657,57.1674 90.5,59C 81.5,59.3333 72.5,59.6667 63.5,60C 49.9817,63.8486 41.6483,72.5153 38.5,86C 39.4486,95.9415 44.9486,100.442 55,99.5C 66.9118,99.2945 76.4118,94.4612 83.5,85C 77.1406,84.8306 70.8072,84.3306 64.5,83.5C 65.5466,80.5698 67.2132,78.0698 69.5,76C 86.5,75.3333 103.5,75.3333 120.5,76C 119.206,79.2811 117.206,81.9477 114.5,84C 109.136,84.1705 103.802,84.6705 98.5,85.5C 84.0949,104.471 65.0949,111.971 41.5,108C 27.6236,103.42 22.1236,93.92 25,79.5C 33.8397,62.1801 48.0063,52.5134 67.5,50.5 Z"/></g>
<g><path style="opacity:1" fill="#f7f9fb" d="M 129.5,58.5 C 119.442,59.14 109.775,58.4733 100.5,56.5C 101.435,54.1386 102.768,51.9719 104.5,50C 114.494,49.5002 124.494,49.3335 134.5,49.5C 134.116,53.2725 132.45,56.2725 129.5,58.5 Z"/></g>
<g><path style="opacity:1" fill="#c8d7e7" d="M 100.5,56.5 C 109.775,58.4733 119.442,59.14 129.5,58.5C 119.681,59.494 109.681,59.8274 99.5,59.5C 99.2627,58.209 99.596,57.209 100.5,56.5 Z"/></g>
</svg>
