<svg xmlns="http://www.w3.org/2000/svg" viewBox="0 0 48 48"><path fill="#0093ab" d="M0 0h48v48H0z"/><path d="M34.41 24.48h-9.93v8.59a3.72 3.72 0 0 0 3.72 3.72h9.92V28.2a3.72 3.72 0 0 0-3.71-3.72zm1.5 10.09H28.2a1.5 1.5 0 0 1-1.5-1.5v-1.56a8 8 0 0 0 4.77-4.81h2.93a1.5 1.5 0 0 1 1.5 1.5zM19.8 11.21H9.87v8.59a3.72 3.72 0 0 0 3.72 3.72h9.92v-8.59a3.72 3.72 0 0 0-3.71-3.72zm-3.38 10.08h-2.83a1.5 1.5 0 0 1-1.5-1.5v-6.36h7.7a1.5 1.5 0 0 1 1.5 1.5v1.52a8 8 0 0 0-4.87 4.84zM28.2 11.21a3.72 3.72 0 0 0-3.72 3.72v8.59h9.92a3.72 3.72 0 0 0 3.72-3.72v-8.59zm7.7 8.59a1.5 1.5 0 0 1-1.5 1.5h-2.92a8 8 0 0 0-4.77-4.81v-1.56a1.5 1.5 0 0 1 1.5-1.5h7.7zM16 24.48h-2.41a3.72 3.72 0 0 0-3.72 3.72v8.59h9.93a3.72 3.72 0 0 0 3.72-3.72v-8.59zm5.34 8.59a1.5 1.5 0 0 1-1.5 1.5h-7.7V28.2a1.5 1.5 0 0 1 1.5-1.5h2.82a8 8 0 0 0 4.88 4.84z" fill="#fff"/></svg>