<?xml version="1.0" encoding="UTF-8"?>
<!DOCTYPE svg PUBLIC "-//W3C//DTD SVG 1.1//EN" "http://www.w3.org/Graphics/SVG/1.1/DTD/svg11.dtd">
<svg xmlns="http://www.w3.org/2000/svg" version="1.1" width="160px" height="160px" style="shape-rendering:geometricPrecision; text-rendering:geometricPrecision; image-rendering:optimizeQuality; fill-rule:evenodd; clip-rule:evenodd" xmlns:xlink="http://www.w3.org/1999/xlink">
<g><path style="opacity:1" fill="#002664" d="M -0.5,-0.5 C 52.8333,-0.5 106.167,-0.5 159.5,-0.5C 159.5,52.8333 159.5,106.167 159.5,159.5C 106.167,159.5 52.8333,159.5 -0.5,159.5C -0.5,106.167 -0.5,52.8333 -0.5,-0.5 Z"/></g>
<g><path style="opacity:1" fill="#eaecf2" d="M 29.5,88.5 C 22.2668,93.3283 16.1002,92.3283 11,85.5C 9.83422,71.6736 15.6676,67.5069 28.5,73C 32.17,77.8855 32.5033,83.0521 29.5,88.5 Z"/></g>
<g><path style="opacity:1" fill="#e4e7ee" d="M 29.5,88.5 C 34.9363,82.5619 40.603,76.7286 46.5,71C 48.4727,70.5045 50.4727,70.3379 52.5,70.5C 52.5,73.8333 52.5,77.1667 52.5,80.5C 51.1667,80.5 49.8333,80.5 48.5,80.5C 48.6621,78.4727 48.4955,76.4727 48,74.5C 42.9492,80.0954 37.7825,85.5954 32.5,91C 29.457,91.8625 28.457,91.0291 29.5,88.5 Z"/></g>
<g><path style="opacity:1" fill="#a5b2c8" d="M 55.5,71.5 C 55.5,77.8333 55.5,84.1667 55.5,90.5C 56.5,90.5 57.5,90.5 58.5,90.5C 57.4324,91.4345 56.099,91.7678 54.5,91.5C 54.176,84.6457 54.5093,77.979 55.5,71.5 Z"/></g>
<g><path style="opacity:1" fill="#e7eaf0" d="M 58.5,90.5 C 57.5,90.5 56.5,90.5 55.5,90.5C 55.5,84.1667 55.5,77.8333 55.5,71.5C 56.209,70.596 57.209,70.2627 58.5,70.5C 58.335,73.8499 58.5017,77.1832 59,80.5C 61.4626,77.0354 64.2959,73.8688 67.5,71C 68.9437,70.2195 70.277,70.3861 71.5,71.5C 68.8333,74.5 66.1667,77.5 63.5,80.5C 65.9383,84.4416 68.9383,87.9416 72.5,91C 70.8333,91.6667 69.1667,91.6667 67.5,91C 64.7839,87.7391 61.9506,84.5724 59,81.5C 58.502,84.4816 58.3354,87.4816 58.5,90.5 Z"/></g>
<g><path style="opacity:1" fill="#f1f3f6" d="M 77.5,67.5 C 86.3298,66.1621 89.8298,69.8288 88,78.5C 83.884,83.2491 79.5506,83.5825 75,79.5C 72.5112,74.7565 73.3445,70.7565 77.5,67.5 Z"/></g>
<g><path style="opacity:1" fill="#7085a8" d="M 84.5,71.5 C 82.2646,71.2053 80.2646,71.5386 78.5,72.5C 77.7109,72.2172 77.0442,71.7172 76.5,71C 79.367,70.1993 82.0336,70.3659 84.5,71.5 Z"/></g>
<g><path style="opacity:1" fill="#042160" d="M 78.5,72.5 C 80.2646,71.5386 82.2646,71.2053 84.5,71.5C 84.7845,73.4147 84.4511,75.0813 83.5,76.5C 82.4154,74.4131 80.7488,73.0798 78.5,72.5 Z"/></g>
<g><path style="opacity:1" fill="#072865" d="M 17.5,74.5 C 26.8053,73.9514 29.472,77.7848 25.5,86C 17.2463,89.0813 13.7463,86.2479 15,77.5C 16.045,76.6266 16.8783,75.6266 17.5,74.5 Z"/></g>
<g><path style="opacity:1" fill="#63799f" d="M 84.5,71.5 C 85.6341,73.9664 85.8007,76.633 85,79.5C 83.9614,78.7562 83.4614,77.7562 83.5,76.5C 84.4511,75.0813 84.7845,73.4147 84.5,71.5 Z"/></g>
<g><path style="opacity:1" fill="#e1e5ed" d="M 43.5,83.5 C 46.2869,82.5233 49.2869,82.19 52.5,82.5C 52.6646,85.5184 52.498,88.5184 52,91.5C 50.5871,87.2518 47.7538,84.5852 43.5,83.5 Z"/></g>
<g><path style="opacity:1" fill="#4b628f" d="M 94.5,83.5 C 97.9792,82.01 101.312,82.3433 104.5,84.5C 104.44,85.0431 104.107,85.3764 103.5,85.5C 102.833,84.8333 102.167,84.1667 101.5,83.5C 100.271,86.1987 100.271,88.8654 101.5,91.5C 100.833,91.5 100.167,91.5 99.5,91.5C 99.5,88.8333 99.5,86.1667 99.5,83.5C 97.8333,83.5 96.1667,83.5 94.5,83.5 Z"/></g>
<g><path style="opacity:1" fill="#cfd6e2" d="M 110.5,82.5 C 116.643,83.0262 117.976,85.8595 114.5,91C 109.504,91.6643 107.67,89.4977 109,84.5C 109.717,83.9558 110.217,83.2891 110.5,82.5 Z"/></g>
<g><path style="opacity:1" fill="#eff1f5" d="M 127.5,83.5 C 129.167,83.5 130.833,83.5 132.5,83.5C 132.663,85.8568 132.497,88.1902 132,90.5C 131.505,88.5273 131.338,86.5273 131.5,84.5C 130.5,84.5 129.5,84.5 128.5,84.5C 128.5,85.8333 128.5,87.1667 128.5,88.5C 128.157,90.2252 127.157,90.7252 125.5,90C 126.117,87.723 126.784,85.5563 127.5,83.5 Z"/></g>
<g><path style="opacity:1" fill="#f5f6f9" d="M 146.5,83.5 C 147.38,85.1368 148.046,86.9701 148.5,89C 148.43,89.7648 148.097,90.2648 147.5,90.5C 145.833,90.5 144.167,90.5 142.5,90.5C 142.5,88.1667 142.5,85.8333 142.5,83.5C 143.833,83.5 145.167,83.5 146.5,83.5 Z"/></g>
<g><path style="opacity:1" fill="#596d97" d="M 127.5,83.5 C 131.833,82.1667 136.167,82.1667 140.5,83.5C 138.5,83.5 136.5,83.5 134.5,83.5C 134.5,85.8333 134.5,88.1667 134.5,90.5C 136.5,90.5 138.5,90.5 140.5,90.5C 137.375,91.4794 134.042,91.8128 130.5,91.5C 130.662,89.4727 130.495,87.4727 130,85.5C 129.768,86.7375 129.268,87.7375 128.5,88.5C 128.5,87.1667 128.5,85.8333 128.5,84.5C 129.5,84.5 130.5,84.5 131.5,84.5C 131.338,86.5273 131.505,88.5273 132,90.5C 132.497,88.1902 132.663,85.8568 132.5,83.5C 130.833,83.5 129.167,83.5 127.5,83.5 Z"/></g>
<g><path style="opacity:1" fill="#f2f4f7" d="M 140.5,83.5 C 139.282,84.1614 137.949,84.8281 136.5,85.5C 137.376,86.2508 138.376,86.7508 139.5,87C 138.376,87.2492 137.376,87.7492 136.5,88.5C 137.949,89.1719 139.282,89.8386 140.5,90.5C 138.5,90.5 136.5,90.5 134.5,90.5C 134.5,88.1667 134.5,85.8333 134.5,83.5C 136.5,83.5 138.5,83.5 140.5,83.5 Z"/></g>
<g><path style="opacity:1" fill="#f7f8fa" d="M 123.5,83.5 C 124.103,86.0409 124.103,88.3743 123.5,90.5C 121.833,90.5 120.167,90.5 118.5,90.5C 118.5,88.1667 118.5,85.8333 118.5,83.5C 120.167,83.5 121.833,83.5 123.5,83.5 Z"/></g>
<g><path style="opacity:1" fill="#5d6f99" d="M 119.5,84.5 C 120.675,84.281 121.675,84.6143 122.5,85.5C 120.948,86.7979 119.948,86.4646 119.5,84.5 Z"/></g>
<g><path style="opacity:1" fill="#a3b0c6" d="M 146.5,83.5 C 145.167,83.5 143.833,83.5 142.5,83.5C 142.5,85.8333 142.5,88.1667 142.5,90.5C 144.167,90.5 145.833,90.5 147.5,90.5C 145.735,91.4614 143.735,91.7947 141.5,91.5C 141.5,88.5 141.5,85.5 141.5,82.5C 143.415,82.2155 145.081,82.5489 146.5,83.5 Z"/></g>
<g><path style="opacity:1" fill="#5e6f99" d="M 143.5,84.5 C 144.675,84.281 145.675,84.6143 146.5,85.5C 144.948,86.7979 143.948,86.4646 143.5,84.5 Z"/></g>
<g><path style="opacity:1" fill="#d3d8e4" d="M 94.5,83.5 C 96.1667,83.5 97.8333,83.5 99.5,83.5C 99.5,86.1667 99.5,88.8333 99.5,91.5C 98.1411,90.9935 97.1411,89.9935 96.5,88.5C 95.7132,89.2421 95.0465,90.0754 94.5,91C 92.0254,90.7431 92.0254,89.7431 94.5,88C 91.894,86.3499 91.894,84.8499 94.5,83.5 Z"/></g>
<g><path style="opacity:1" fill="#2e457b" d="M 95.5,84.5 C 97.337,84.6395 97.6704,85.3061 96.5,86.5C 95.7025,86.0431 95.3691,85.3764 95.5,84.5 Z"/></g>
<g><path style="opacity:1" fill="#132b68" d="M 111.5,84.5 C 114.389,84.999 115.056,86.499 113.5,89C 112.552,89.4828 111.552,89.6495 110.5,89.5C 110.366,87.7085 110.699,86.0418 111.5,84.5 Z"/></g>
<g><path style="opacity:1" fill="#9ca9c2" d="M 123.5,83.5 C 121.833,83.5 120.167,83.5 118.5,83.5C 118.5,85.8333 118.5,88.1667 118.5,90.5C 120.167,90.5 121.833,90.5 123.5,90.5C 121.735,91.4614 119.735,91.7947 117.5,91.5C 117.5,88.5 117.5,85.5 117.5,82.5C 119.735,82.2053 121.735,82.5386 123.5,83.5 Z"/></g>
<g><path style="opacity:1" fill="#334b7f" d="M 143.5,87.5 C 144.675,87.281 145.675,87.6143 146.5,88.5C 144.948,89.7979 143.948,89.4646 143.5,87.5 Z"/></g>
<g><path style="opacity:1" fill="#d9dee7" d="M 104.5,84.5 C 105.251,83.4265 106.251,83.2599 107.5,84C 105.078,85.888 105.078,87.888 107.5,90C 105.953,90.3334 104.62,89.8334 103.5,88.5C 102.824,89.6016 102.158,90.6016 101.5,91.5C 100.271,88.8654 100.271,86.1987 101.5,83.5C 102.167,84.1667 102.833,84.8333 103.5,85.5C 104.107,85.3764 104.44,85.0431 104.5,84.5 Z"/></g>
<g><path style="opacity:1" fill="#334c7f" d="M 119.5,87.5 C 120.675,87.281 121.675,87.6143 122.5,88.5C 120.948,89.7979 119.948,89.4646 119.5,87.5 Z"/></g>
</svg>
