<svg viewBox="0 0 48 48" fill="none" xmlns="http://www.w3.org/2000/svg"><path fill-rule="evenodd" clip-rule="evenodd" d="M0 0h48v48H0V0z" fill="#F2F3F4"/><path fill-rule="evenodd" clip-rule="evenodd" d="M25.3 14.4S21 24.7 20.9 25.2c-.2.5-.5 4.7 4.4 4.7 5.1 0 4.6-4.8 4.7-4.7-.2-.5-4.7-10.8-4.7-10.8z" fill="#000"/><path fill-rule="evenodd" clip-rule="evenodd" d="M31.5 25.3c0 1.2-.3 6-6.1 6-6.5 0-6-5.6-5.8-6.3.2-.4 3.1-7.1 4.7-10.8h-.5C17.8 14.2 13 19 13 25c0 5.9 4.8 10.7 10.8 10.7 5.8 0 10.6-4.6 10.7-10.4h-3z" fill="#025FB0"/><path fill-rule="evenodd" clip-rule="evenodd" d="M23.8 12c7.2 0 13 5.8 13 13 0 7.1-5.8 13-13 13s-13-5.9-13-13c0-7.2 5.8-13 13-13zm0 .7C30.6 12.7 36 18.2 36 25c0 6.7-5.4 12.2-12.2 12.2-6.8 0-12.3-5.5-12.3-12.2 0-6.8 5.5-12.3 12.3-12.3z" fill="#000"/><path fill-rule="evenodd" clip-rule="evenodd" d="M25.3 14.2s-1.7-1.4-.9-3.3c.6-1.7 2.4-2.2 2.4-2.2s-.1.3 0 .7c0 .7.7 1.4.4 2.7-.4 1.4-1.9 2.1-1.9 2.1z" fill="#EF2B2F"/></svg>