<svg id="LOGO_6" xmlns="http://www.w3.org/2000/svg" viewBox="0 0 48 48"><defs><style>.cls-2{fill:#f4cb0b;fill-rule:evenodd}.cls-5{fill:#00a4d7}</style></defs><g id="KCHE"><path fill="#f0f1f2" d="M0 0h48v48H0z"/><path class="cls-2" d="M21.91 18.4a2 2 0 000 .79h.43v-.95h.14v.12h-.09v.05h.1-.06.35v-.05h.06v.12h-.07.2-.06v.02h2.35a2.12 2.12 0 00-3.68 1zm.75 0zm2.59-.91zm-.59.61zm.07-.06zm0 0zm0-.15h.07-.06zm0-.09zm-.09.16h.08-.08zm0 0zm-.29.25zm-.15-.16zm0-.06zm-.19-.07zm.06.18zM24 18zm0-.1zm-.07 0H24h-.05zm0 0zm0 .27zm-.06.17zm0 0zm0-.12zm0-.34zm0 .37zm0-.29zm0 .44zm-.41.08zm.28-.13zm0 0zm0 0zm0-.07zm0-.57zm0 .05zm0 0zm0-.07zm0 0zm0 .06zm0 0zm0 0zm0 0zm0 0zm0 0zm0 0zm0 0zm0 0zm0 0zm-.06-.11zm0 .05zm0 0zm0 0zm0 0zm0 0zm0-.06zm-.25.54h.41-.34zm-.15.11z"/><path class="cls-2" d="M26 18.19a2.11 2.11 0 00-.36-.72h.11v.14h.06v.13h-.25v-.17.15h-.17v.07h.29v.43h-.13v.05H25v.09h-1.23v1.24-.05H22.3v.06h-.17v.08a2.12 2.12 0 003.87-1.5zm-.25 0zm-.37.78zm.5.24h-.06.26zm.14-.52zm0 .06zm-.14-.55v.01-.01zm-1.16 3.64l2.41-3.37-.02-.03-.02-.03-.02-.02-.02-.02-2.25 3.15v.06l-.01.03-.01.04-.01.04-.02.04-.01.05-.02.06zm-3.43-2.37l.03.03.02.02.02.02.01.02.43-.59-.01-.09v-.1l-.5.69zm.72 1.02l.26-.35-.02-.02-.02-.03-.04-.05-.3.43.05.01.05.01h.02zm2.74.93l.75-1.04-.08.07-.07.06-.08.06-.09.05-.68.95.03-.02.02-.02.03-.02.02-.01.02-.02.02-.01.01-.02.02-.01.01-.01h.02l.01-.01h.04zm-2.97-.96l.36-.5-.04-.06-.03-.05-.43.6.07.01h.07zm1.15.58l.18-.25-.05-.03-.03-.01-.02-.01-.24.33.03-.01.02-.01h.05l.03-.01h.03zm-.61.78l-.04.04-.04.03-.03.04-.03.03-.03.03-.03.02-.03.03-.03.02-.18.26h.03l.03.01.03.01H22l.72-1-.03.02-.02.03-.03.02-.02.03-.04.06-.04.06-.05.06-.02.04-.03.03-.02.03-.03.03-.03.04-.04.03zm-.51.33l-.04.01h-.04l-.07.09.03.01.03.01.06.02.1-.15-.03.01h-.04zm-.23-1.04h-.06l-.03.01h-.04l-.01.01h-.03l-.01.01h-.02.01l.01.01.02.01.02.01.03.02.04.01.07-.09zm.46-.29l-.05.04-.04.04-.04.03-.04.03-.03.03-.04.02-.04.03-.03.02-.13.17.03.01.03.01h.04l.03.01.31-.44zm-.07.45h.01l.59-.82-.04-.04-.05-.04-.16.23-.07.09-.41.58h.13zm.95-.57l-.05-.04-.05-.02-.39.54.05-.02.05-.02.04-.01.05-.01.3-.42zm-.51-.39l-.04-.05-.04-.04-.21.3.03.01.03.01.03.01.02.01.18-.25zm.8.52l-.17.22h.02l.02.01h.01l.01.01h.02v.01h-.01l-.01.01-.02.01-.03.02-.03.01-.03.02-.04.03-.82 1.15h.03l.04-.01h.04l.05-.01 1.03-1.44-.06-.02-.03-.01-.02-.01zm1.56 0L24 21.92l-.01.04-.01.04v.14l1-1.4-.05.02-.05.03-.11.04zm-.47.12l-.07.01h-.08l-.26.37.01-.01h.02l.04-.01h.03l.03-.01h.03l.25-.35zm.31-.07l-.08.03-.09.02-.27.37h.05l.01.01h.02l-.01.01h-.01v.01l-.01.01-.01.02-.01.02-.02.02-.01.02-.02.02-.01.03-.01.03-.02.03-.01.04-.02.03-.01.04.54-.76zm-1.19.01l-.99 1.39.04-.01.04-.01.05-.01.04-.02.94-1.3-.03-.01-.03-.01-.06-.02zm.23.06l-.88 1.22.05-.02.05-.02.06-.03.05-.03.8-1.11-.07-.01h-.06z"/><path class="cls-2" d="M23.99 20.97h-.1l-.65.91.07-.06.06-.06.06-.06.05-.06.06-.05.05-.05.04-.04.05-.04.35-.49h-.04zm-1.25-.39l-.05-.03-.05-.04-.52.74.08-.02h.04l.04-.02.46-.63zm2.85.37v.01h.01v.01l1.22-1.7v-.01.01l.46-.64-.05-.04-.04-.04-2.58 3.61-.01.05-.01.06v.11l1-1.4v-.03zm-2.84-5.15l.23-.32-.03.03-.04.03-.03.03-.03.03-.03.04-.01.02-.01.03-.01.02-.01.03-.01.03-.02.03zm5.52 3.46h-.01l-.01-.01-.16.23.03.01h.03l.03.01.03.02.13-.18-.04-.04-.03-.04zm-.82-.51l-.05-.03-.05-.03-.44.61.03.01.02.01.06.02.43-.59zm.46.25l-.32.46.06.01h.07l.29-.4-.05-.04-.05-.03zm-3.15 3.88l.62-.86.02-.06.01-.02.02-.03.01-.03.02-.04.02-.04.01-.04.01-.04.02-.04.02-.09-.85 1.19.01.02.02.03.02.02.02.03zm3.33-3.76l-.26.36h.15l.2-.29-.04-.04-.05-.03zm-.55-.33l-.42.59.06.02.03.01h.03l.4-.56-.05-.03-.05-.03zm.19.11l-.39.53.13.02.36-.49-.05-.03-.05-.03zm-3.13 3.63l.01.04.01.04.01.03.01.04.95-1.33.01-.07v-.03l.01-.03v-.1l-1.01 1.41zm-2.68-7.04h-.12v.01l.01.01v.01l.01.02.01.01.01.03v.02l.08-.11zm-.35 6.73l.03-.04h-.1l-.01.01h-.02.02l.01.01h.01l.02.01h.02l.02.01zm5.31-1.05l-.17.25.02.03.02.02.01.02.03.02.13-.2-.01-.03-.01-.03-.01-.04-.01-.04zm.09.24l-.09.14h.22l.01-.01h.01-.01l-.01-.01h-.01l-.01-.01-.01-.01-.02-.01-.02-.02-.02-.02-.02-.02-.02-.03zm-6.72-2.48l.06-.08-.02-.01h-.02l-.01-.01h-.02l-.02-.01-.01-.01h-.01l-.01-.01h-.02v-.01.01l.01.01v.01l.02.02.01.03.02.03.02.03zm.85-2.37v-.02l.01-.02v-.02h.01-.01v.01l-.01.01-.02.02-.02.03-.02.02-.02.04-.03.03-.02.04-.03.05-.03.05-.03.05-.02.05-.03.06-.02.06-.02.06.28-.38v-.06l.01-.04.01-.02.01-.02zM24.94 23l.29-.41-.01-.02.01-.03v-.06l.01-.07.01-.06-.42.59.05.03.03.01.03.02zm.2.07l.02.01.02.01h.01l.01.01h.01v-.03l.01-.03v-.12l.01-.05v-.11l-.2.27.03.01.04.01.02.01.02.01zm1.7-2.2l-.26.35.02.03.01.02.03.04v.01h.01v.01l.21-.3-.01-.08-.01-.08zm-.07-.59v-.04l-.43.6.03.05.04.05.38-.54-.01-.06-.01-.06zm-.82.36l-.28.39.02.03.02.02.02.02.02.03.22-.31v-.05l-.01-.03v-.08l-.01-.02zm-.12.66l.01.02v.04l.11-.14.01-.06.01-.07.01-.06v-.05l-.18.24.02.04.01.04zm.88-1.35l-.52.72.04.04.02.02.02.03.47-.66-.01-.04v-.04l-.01-.04-.01-.03zm-.09-.24l-.62.86h.03l.02.01.02.01h.01l.02.01.02.01.55-.77-.01-.04-.01-.03-.03-.06zm.23-.31l-.19.25h.03l.02.01.03.02.04.02.11-.17-.01-.03v-.01l-.01-.01v-.02l-.01-.02-.01-.02v-.02zm-5.94-1.39l.49-.68-.05-.03-.03-.01-.02-.02-.44.61.02.07.03.06zm-.15.74l-.28.4.02.01.02.02h.03l.03.01.01.01.32-.45h-.15zm-.36.34l.23-.32-.01.01h-.03l-.03.01-.02.01-.04.01-.03.02-.03.01-.12.17.03.04.05.04zm6.41 1.46l-.35.47.04.06.03.05.3-.41-.01-.04v-.04l-.01-.05v-.04zm-4.56-3.88l-1.19 1.66.03.06.03.06 1.15-1.61v-.04l-.01-.04-.01-.04v-.05zm-1.13 2.68l.04.02.02.01.02.02h.01l.01.01.57-.8.02-.13v-.05l.01-.06-.7.98zM28.3 17l-.03.04h.07v-.01l-.01-.01h-.01l-.01-.01-.01-.01zm-7.01 1.94l-.01-.03-.02-.02-.01-.03-.03-.02-.31.43.03.01.03.01.06.02.26-.37zm-.15-.15l-.02-.01-.03-.01-.04-.01h-.03l-.33.46.03.01h.03l.06.02.33-.46zm4.62-1.34l.55-.76-.04-.01h-.03l-.04-.01h-.02l-.49.69.03.05.04.04zm-5.26 2.4l-.36.5.06.03.02.01.03.01.44-.61-.04.01-.05.02-.05.02-.05.01zm-.28.03l-.26.36.05.03.05.03.3-.43-.07.01h-.07zm5.85-3.23v-.01h-.01v-.03l.01-.01.01-.01.01-.01.01-.01h.01l.02-.01.02-.01.1-.15h-.06l-.04-.01h-.03l-.58.81.02.02.02.02.04.04.45-.63zm-6.3 3.13l-.09.13.01.02.02.03.02.02.02.03.13-.19-.06-.02-.03-.01-.02-.01zm1.32-.19h-.03l-.03.01-.03.01-.02.01-.05.02-.04.03-.54.75.04.01h.04l.03.01h.02l.61-.85zm3.74-3.41h-.01v-.01l-.01-.01-.01-.01v-.01l-.01-.02-.01-.02-.01-.02-.38.52.06.01.03.01.04.01.39-.55-.03.02-.02.03-.02.03-.01.02zm1.78 1.35l-.48.68.01.07.02.08.55-.77-.02-.01-.01-.01-.02-.01-.02-.01h-.01l-.01-.01-.01-.01zm-6.63 2.32l-.17.23.02.03.02.02.02.02.02.02.21-.3-.06-.01-.06-.01zm4.01-3.28h.05l.79-1.11h-.01l-.01.01-.08.02-.08.02-.75 1.06h.09zm2.31-.07l.05-.02h.03l.02-.01h.04l.01-.01h.05l.01-.01h.02-.03l-.02-.01h-.02l-.03-.01-.04-.01h-.03l-.06.08zm.47 1l.53-.73-.07-.01h-.07l-.53.74h.14zm.5.4l-.02-.02-.02-.02-.02-.02-.03-.02-.14.2.05-.01.05-.01.04-.01.03-.01.06-.08zm-2.99-1.31l.52-.72.01-.02v-.01l.01-.02.01-.02.03-.04.03-.04.03-.04.02-.03.02-.03.03-.03.01-.02.02-.03.02-.02.01-.03.02-.04.02-.05.01-.02v-.02h-.01l-.01.01h-.02l-.02.01-.02.01-.03.01-.83 1.17h.06l.03.01.03.01zm-3.07 2.99l-.61.86.07.01h.06l.62-.85-.03-.01h-.03l-.04-.01h-.04zm6.67-2.54l.13-.17-.05-.03-.06-.02-.16.23h.07l.07-.01zm-8.31 2.64l-.01-.01-.01-.01h-.01v.01l.01.01.01.02.01.03.01.02.02.03.02.04.06-.09-.04-.01-.03-.02-.02-.01-.02-.01zm4.2-3.1l.73-1.03-.08.02-.05.01-.04.02-.72 1 .08-.01.08-.01zm4.38.46l.06-.09-.03-.01-.02-.01h-.02l-.02-.02h-.02l-.1.13h.15zm-3.03-.16l.81-1.13-.04.01h-.04l-.08.02-.75 1.04.05.03.05.03zm2.24.4l.02-.04.02-.04.03-.03.02-.03.03-.03.02-.01.02-.01.02-.01.03-.01h.02l.02-.01.19-.27-.03-.01-.03-.01h-.03l-.03-.01-.49.69.03-.01.02-.02.03-.01.02-.02.02-.03.02-.02.02-.03.01-.03zm-2.42-.5l.69-.98-.08.02-.09.01-.64.9.03.01.03.01.03.01.03.02zm.36.21l.37-.51-.01-.01-.01-.02v-.02l-.01-.02v-.02l.01-.03.01-.02.01-.03.01-.02.02-.02.02-.03.03-.03.04-.02.03-.03.03-.01.04-.02.04-.02.43-.59v-.03.01h-.01l-.01.02-.01.01-.01.01-.01.02-.02.02-.04.03-.04.03-.02.02-.03.02-.02.01-.03.01-.02.01h-.01l-.87 1.22.04.03.05.03zm1.74.49l.53-.72h-.05l-.05.01h-.06l-.52.73h.04l.05-.01h.03l.03-.01zm-.06.82l-.02-.01-.02-.02-.05-.03-.75 1.05-.03.1-.03.09-.04.1-.03.09.97-1.37zm-5.12-2.35l.24-.33-.04-.04-.02-.02-.03-.02-.14.19v.16l-.01.06zm-.73 1.03l-.01-.02-.01-.02v-.04l-.01-.04-.01-.02-.34.47v.19l.38-.52zm3.6-.29l.59-.82-.05.02-.05.02-.05.02-.05.02-.5.71.05.01.06.02zm-3.91 1.08l.41-.57-.02-.02-.02-.03-.01-.02-.02-.03-.38.53.02.07.02.07zm5.05-1.4l-.49.69.04.03.02.02.02.02.54-.75-.03-.01h-.1zm.22 1.72l.96-1.35h-.06l-.04-.01h-.03l-.88 1.22.03.07.01.03.01.04zm-4.86.56l2.52-3.52v-.14l-.01-.04-2.56 3.59.01.03.02.03.01.03.01.02zm-.27-.53l.02.06.04.05 1.22-1.72.01-.06v-.06l.01-.05.01-.06-.7.98v.06l.01.02v.04l.01.02v.01h-.02l-.01-.01h-.02l-.01-.01h-.02l-.03-.01-.52.74zm5.04-.27l.81-1.13h-.1l-.04-.01-.73 1.02.03.06.03.06zm-3.31-.86l.83-1.17v-.08l.01-.02v-.03l.01-.03.01-.03.01-.03.02-.03.02-.04.01-.03.02-.02-2.35 3.28.01.02v.02l.01.01v.04l.01.03v.03l.58-.8.02-.08.03-.08.04-.09.04-.07.04-.08.04-.08.05-.07.05-.07.05-.07.05-.07.06-.07.06-.06.06-.06.07-.06.07-.05.07-.06zm-.81 2.4l-.76 1.07.07-.01h.07l.66-.92-.02-.07-.02-.07zm4.3-.89l.01.09.01.08.71-.99-.06-.02-.05-.03-.62.87zm-3.93-2.57l-.62.87-.01.07-.02.07-.01.07-.01.06.71-.98-.01-.04-.01-.04-.01-.04-.01-.04zm1.41-1.22l-1.07 1.49v.01l-.02.08-.02.07-.02.08-.02.07 1.2-1.68-.02-.04-.01-.02v-.01l-.01-.02-.01-.01v-.02zm-1.85 4.4l-.96 1.34h.07l.07.01.85-1.19-.01-.08-.02-.08zm4.01-1.57l.03.05.04.05.66-.93-.06-.01-.07-.01-.6.85zm-3.8 2.21l-.03-.06-.02-.06-.59.82h.14l.5-.7zm5.08-1.98l-.02-.01-.02-.01-.03-.02-.03-.01-.8 1.12v.05l-.01.06v.06l-.01.05.63-.88-.03-.01-.02-.01h-.01l-.01-.01h-.01v-.01h.01l.01-.01.01-.01.03-.01h.01l.02-.01.01-.01.02-.01.02-.01.02-.01.21-.29zm-4.94-2.06l-.38.52-.02.08-.03.08-.02.08-.02.09.53-.74-.03-.06-.02-.03-.01-.02zm1.31.92l.69-.97-.03.01-.04.02-.04.03-.05.02-.04.02-.03.03-.64.89.05-.02.04-.01.09-.02zm.15-.58l-.01-.02-.02-.03-.02-.03-.01-.03-.65.91.05-.03.06-.03.05-.02.06-.03.49-.69zm3.39 3.76H27v-.01l-.01-.02v-.01l-.01-.03-.02-.04-.03-.07-.08.12.03.02.03.01.03.01.02.01h.01l.01.01h.03zm1.43-.25l-.01-.03-.01-.04-.01-.03-.02-.03-.1.13v.01h.01l.02.02.03.02.02.01.02.02.01.01.01.01h.01l.01.01.01.01h.01l.01.01v-.08l-.01-.02-.01-.03z"/><path d="M23.62 18.39V19a.33.33 0 010 .17.27.27 0 01-.12.11.42.42 0 01-.18 0 .36.36 0 01-.25-.08.29.29 0 01-.09-.23v-.57h.21v.6q0 .14.13.14a.13.13 0 00.1 0 .17.17 0 000-.12v-.57zm.67.5H24v.21h.39v.16h-.6v-.87h.6v.16H24v.18h.33zm.59.11a.09.09 0 000-.07l-.11-.05-.13-.05a.25.25 0 01-.17-.23.21.21 0 010-.13.27.27 0 01.12-.09.46.46 0 01.17 0 .41.41 0 01.17 0 .27.27 0 01.12.1.25.25 0 010 .14h-.21a.11.11 0 000-.08.13.13 0 00-.09 0 .14.14 0 00-.09 0 .07.07 0 000 .12l.13.06.15.06a.25.25 0 01.14.22.21.21 0 01-.09.18.38.38 0 01-.24.07.47.47 0 01-.19 0 .29.29 0 01-.13-.1.27.27 0 010-.15h.21a.13.13 0 000 .1.17.17 0 00.12 0h.08a.07.07 0 00.04-.1z" fill="#f4cb0b"/><path d="M24 13.25C13.17 13.25 4.39 18.06 4.39 24S13.17 34.75 24 34.75 43.61 29.94 43.61 24 34.83 13.25 24 13.25zm1.59 21a29.66 29.66 0 01-13.92-2.65L15 27.77l.65 1 .72-.88.81 1.26.83-.95 1.92 2.43 2.82-4.15.61 1.26.83-1.17 1.26 2.1.87-1.67 3 3.79 2.21-3.11.63 1.42.77-1.1.95 1.51.81-1.24 2.13 2.31.53.57a29.56 29.56 0 01-11.76 3.12zm11.48-3.91l-2.53-2.74-.69 1-1-1.37-.69.94-.64-1.42L29.23 30l-3-3.64-.78 1.64-1.14-2-.9 1-.54-1.3-3 4.13L18 27.67l-.71.85-1-1.3-.53.9-.6-1.12-3.41 3.85C9 29.06 7.23 26.7 7.23 24.09c0-5.46 7.54-9.88 16.84-9.88s16.84 4.42 16.84 9.88c0 2.38-1.44 4.56-3.83 6.27z" fill="#d72b29"/><path class="cls-5" d="M24 13.83c-10 0-18.17 4.58-18.17 10.24 0 2.86 2.08 5.45 5.44 7.3L15.16 27l.67 1.15.53-.9 1 1.3.71-.85 1.81 2.19 3-4.13.54 1.3.9-1 1.14 2 .78-1.62 3 3.64 2.32-3.25.64 1.42.69-.94 1 1.37.69-1 2.53 2.75.45.49c2.87-1.81 4.61-4.2 4.61-6.81 0-5.7-8.17-10.28-18.17-10.28zm13.34 16.34l-4.39-4.79-.57.63-.52-.55-2.93 3.9L25 23.89l-.5.52-.56-.52-4 5.34-2.73-3.74-.37.33-.61-.56-4.72 5.39c-2.63-1.74-4.25-4-4.25-6.55 0-5.46 7.54-9.88 16.84-9.88s16.84 4.42 16.84 9.88c-.03 2.29-1.37 4.39-3.6 6.07z"/><path class="cls-5" d="M15.73 32.35l-.63-.18v-.71l-.19.2-.12.4-.56-.18.59-1.88.52.16-.24.78.56-.68.57.16-.72.77q.1.57.22 1.16z"/><path class="cls-5" d="M17 32.68l-.5-.12v-.14a.33.33 0 01-.18.09.47.47 0 01-.21 0 .43.43 0 01-.28-.21.48.48 0 010-.37.46.46 0 01.21-.3.44.44 0 01.34 0 .52.52 0 01.18.09.29.29 0 01.11.15v-.12a.21.21 0 000-.17.23.23 0 00-.15-.1.53.53 0 00-.34.05l-.08-.36a.64.64 0 01.3-.08 1.18 1.18 0 01.33 0 .72.72 0 01.39.22.44.44 0 01.08.4zm-.58-.42a.15.15 0 00.17-.05v-.13a.15.15 0 00-.12-.13q-.13 0-.17.12c.04.1.07.17.16.19zm2.49.79l-.5-.09.12-.65-.35.61H18q0-.35-.09-.69l-.13.65-.51-.11.32-1.42.58.12q0 .32.08.64l.33-.56.57.1zm.46-1.4l.49.08-.08.54q0 .1.08.12a.28.28 0 00.15 0l.08-.61.49.06-.18 1.45-.51-.07.07-.47a.54.54 0 01-.35 0c-.27 0-.39-.18-.35-.41zm2.5 1.77h-.51v-.14a.33.33 0 01-.16.11.46.46 0 01-.21 0 .43.43 0 01-.31-.16.48.48 0 01-.08-.37.46.46 0 01.16-.33.43.43 0 01.33-.09.51.51 0 01.19.06.28.28 0 01.13.13v-.13a.21.21 0 000-.16.23.23 0 00-.16-.07.52.52 0 00-.33.1l-.14-.37a.63.63 0 01.29-.12 1.16 1.16 0 01.33 0 .71.71 0 01.42.16.44.44 0 01.14.38zm-.64-.33a.15.15 0 00.16-.08v-.14a.15.15 0 00-.14-.11q-.14 0-.15.15c0 .09.04.17.13.17zm1.55.38h-.51l.07-1h-.24v-.41l1 .06v.41h-.23zm1.01.08a.62.62 0 01-.49-.22.8.8 0 01-.16-.56.83.83 0 01.2-.55.6.6 0 01.48-.2.8.8 0 01.25 0 .52.52 0 01.17.09l-.14.37a.3.3 0 00-.18-.08.22.22 0 00-.19.09.49.49 0 000 .5.22.22 0 00.19.1.29.29 0 00.19-.08l.14.37a.64.64 0 01-.46.17zm2.59-.05c-.33 0-.55-.17-.66-.57l.43-.17q0 .28.2.27c.11 0 .17-.13.17-.36h-.54v-.46h.53q-.06-.32-.21-.31a.13.13 0 00-.11.07.53.53 0 00-.06.19l-.45-.16a1.63 1.63 0 01.06-.2 1.05 1.05 0 01.1-.18.44.44 0 01.17-.15.61.61 0 01.25-.06.64.64 0 01.58.24 1.35 1.35 0 01.25.74 1.28 1.28 0 01-.14.77.67.67 0 01-.57.34zm2.43-.27l-.57.07-.09-.8h-.3l.08.8-.57.06-.18-2 .54-.05.08.74h.3l-.1-.75.53-.07zm1.35-.23l-1.08.17-.28-2 1-.16.08.46-.49.08v.29l.47-.08.08.46-.48.08.05.32.5-.08zm.84-.13l-.57.11L30 31l.67-.13a.64.64 0 01.53.09.7.7 0 01.27.43.67.67 0 01-.07.5.65.65 0 01-.46.3h-.14zm-.14-1.13a.17.17 0 00.12-.08.22.22 0 000-.16.22.22 0 00-.08-.14.17.17 0 00-.14 0h-.08l.08.41zm1.68.78l-.56.14-.46-2 1-.25.12.45-.48.12zm1.9-.8a.75.75 0 01-1.14.34 1.27 1.27 0 01-.39-.68 1.35 1.35 0 010-.78.72.72 0 011.09-.33 1.34 1.34 0 01.42.66 1.27 1.27 0 01.02.79zm-1-.5q.16.55.36.49t0-.6q-.17-.55-.36-.49t.02.6z"/><path fill="#ca2f3d" d="M24.37 29.74h.49v.34h-.49z"/><path class="cls-5" d="M25.32 32.69l.32-.65h-.54l-.22.54V29h-.11v-.35h-.28V29h-.11v4.55h.51v-.31L25 33l.17.5h.56zm-.84-3.34h.28v.73h-.28zm0 1.18h.28v.18h-.28z"/></g></svg>