<svg version="1.0" id="Слой_1" xmlns="http://www.w3.org/2000/svg" x="0" y="0" viewBox="0 0 48 48" xml:space="preserve"><style>.st1{fill:#fff}.st3{fill:#0038a7}.st5{fill:none}</style><path fill="#f2f3f4" d="M0 0h48v48H0z"/><circle class="st1" cx="24" cy="23.4" r="9.6"/><path d="M32.3 20.9h-.1.1zm-5.1 16l10.5-14.8-.1-.1v-.1l-.1-.1-.1-.1-9.9 13.8v.4l-.1.1v.2l-.1.2-.1.2zM12.1 26.5l.1.1.1.1.1.1.1.1 1.8-2.6v-.8zm3.2 4.5l1.1-1.6-.1-.1-.1-.1-.1-.2-1.4 1.9h.5l.1.1zm12 4l3.3-4.5-.4.3-.3.2-.3.3-.4.2-3 4.2.1-.1.1-.1.1-.1h.1l.1-.1.1-.1h.1v-.1h.2l.1-.1h.1zm-13.1-4.2l1.6-2.2-.1-.2-.2-.2-1.9 2.6h.3zm5.1 2.6l.8-1.1-.2-.1-.1-.1-.2-.1-1 1.5h.1l.1-.1h.4zm-2.7 3.4l-.2.1-.1.2-.2.2-.1.1-.1.1-.2.1-.1.1-.1.2-.8 1.1h.3l.1.1h.1l3.2-4.4-.1.1-.1.1-.2.1-.1.1-.1.3-.2.3-.2.2-.1.2-.1.1-.1.2-.2.1-.1.1zm-2.2 1.5H14l-.3.4h.2l.1.1.2.1.5-.7h-.1zm-1-4.6h-.6l-.1.1h-.2.1v.1h.1l.1.1h.1l.2.1zm2-1.3l-.2.2-.2.1-.2.2-.1.1-.2.1-.2.2-.1.1H14l-.5.8.1.1h.4zm-.3 2h.1l2.5-3.6-.2-.2-.2-.2-.7 1-.3.4-1.8 2.6h.4zm4.2-2.5l-.3-.2-.2-.1-1.7 2.4.2-.1.2-.1h.2l.2-.1zM17 30.2l-.1-.2-.2-.2-1 1.3h.2l.1.1h.1l.1.1zm3.5 2.2l-.7 1h.1l.1.1h.2-.1v.1H20l-.2.1-.1.1-.1.1-.2.1-3.6 5h.5l.2-.1 4.5-6.3-.2-.1h-.2zm6.9.1L24 37.2v.2l-.1.2v.6l4.4-6.1-.2.1-.3.1zm-2.1.5h-.6l-1.2 1.6h.3l.2-.1h.2zm1.4-.3l-.4.1-.4.1-1.1 1.6h.2l.1.1H25v.1l-.1.1v.1h-.1l-.1.1v.1l-.1.2-.1.1v.1l-.1.2v.1l-.1.2zm-5.3 0l-4.3 6.1h.2l.2-.1h.2l.2-.1 4.1-5.7-.2-.1h-.1zm1.1.3l-3.9 5.3h.2l.3-.2.2-.1.2-.1L23 33h-.4zm1.5.1h-.5L20.7 37l.3-.2.2-.3.3-.2.2-.3.3-.2.2-.2.2-.2.2-.2 1.5-2.1zm-5.5-1.7l-.2-.2-.2-.2-2.4 3.3.4-.1h.2l.2-.1zM31 33l5.4-7.4 2-2.8-.2-.2-.2-.2-11.3 15.9-.1.2v.8l4.4-6.2V33zM18.5 10.4l1-1.4-.1.1-.2.1-.1.2-.1.1-.2.2v.1l-.1.1v.1l-.1.1v.1zm24.2 15.2v-.1l-.7 1 .1.1h.2l.2.1.5-.8-.1-.2zm-3.6-2.3l-.2-.1-.2-.2-1.9 2.7.1.1h.1l.2.1zm2.1 1.1l-1.5 2 .3.1h.3l1.3-1.8-.2-.1zm-13.9 17l2.7-3.7.2-.3v-.1l.1-.1v-.1l.1-.2.1-.2v-.2l.1-.1.1-.2.1-.4L27 41l.1.1.1.1v.1zm14.6-16.5l-1.1 1.6h.6l1-1.3-.2-.1zm-2.4-1.4l-1.8 2.6.2.1h.3l1.8-2.4-.3-.2zm.9.5l-1.7 2.3.5.1 1.6-2.2-.2-.1zM26.6 39.9l.1.2v.1l.1.2v.2l4.2-5.9v-.4l.1-.1v-.5zM14.9 9h-.6l.1.1v.1l.1.1v.2zm-1.6 29.6l.2-.2h-.6.1l.1.1h.1zM36.7 34l-.8 1 .1.2v.1l.1.1h.1l.6-.8v-.2l-.1-.1v-.2zm.3 1l-.4.6h1.1-.1v-.1h-.1v-.1h-.1l-.1-.1-.1-.1-.1-.1zM7.6 24.1l.2-.3-.1-.1h-.2l-.1-.1h-.1l-.1-.1v.1h.1v.1l.1.2.1.1zm3.7-10.4v-.3.1l-.1.1-.1.1-.1.2-.1.1-.1.2-.1.1-.1.2-.2.2-.1.3-.1.2-.1.3-.1.2-.1.3 1.2-1.7v-.1l.1-.1v-.3zM28.1 42l1.3-1.8v-.8l.1-.3-1.8 2.6.2.1.1.1zm.9.3h.1l.1.1h.1v-.6l.1-.2v-.7l-.9 1.2.2.1h.2zm7.5-9.7l-1.2 1.6.1.1.1.1.1.2.9-1.3V33zm-.3-2.6l-.1-.1-1.8 2.6.1.2.2.2 1.6-2.3v-.3zm-3.6 1.6l-1.3 1.7.1.1.1.1.1.1.1.2.9-1.4v-.7zm-.6 2.9l.1.1v.2l.4-.7.1-.2v-.3l.1-.3v-.2l-.8 1 .1.2zm3.9-5.9l-2.3 3.2.2.1.1.1.1.1 2-2.8v-.4l-.1-.2zm-.4-1l-2.7 3.7h.1l.1.1h.1l.1.1h.1l2.4-3.4v-.2l-.1-.1zm1-1.4l-.8 1.1h.2l.1.1.2.1.5-.8-.1-.1v-.2l-.1-.1zm-26.1-6.1l2.2-3-.2-.1-.2-.1-.1-.1-1.9 2.7.1.3zm-.6 3.2l-1.3 1.8h.1l.2.1h.1l.1.1 1.4-2h-.3zm-1.6 1.5l1-1.4h-.1l-.1.1h-.2l-.1.1-.2.1h-.1l-.6.8.2.2zm28.1 6.4l-1.5 2.1.2.2.1.3 1.3-1.8v-.4l-.1-.2zm-20-17l-5.2 7.3.2.2.1.3 5-7.1v-.3l-.1-.2zM11.4 26h.1l.1.1.1.1h.1l2.5-3.5.1-.5v-.3l.1-.3zm31.5-10.4l-.2.2h.3v-.1h-.1zm-30.8 8.6V24l-.1-.1-.1-.1-.1-.1-1.4 1.9.2.1h.1l.3.1zm-.6-.7l-.2-.1h-.4l-1.4 2h.2l.3.1zm20.2-5.9l2.4-3.3-.1-.1h-.5l-2.1 3 .2.2zM8.6 28.1l-1.5 2.3.2.1h.1l.2.1 1.9-2.7h-.2l-.2.1-.2.1zm-1.2.2l-1.1 1.5.2.2.2.1L8 28.3h-.4zm25.7-14.2L33 14v-.1h.1v-.1h.1l.1-.1h.1l.5-.7h-.6l-2.6 3.5.1.1.1.1.2.2zM5.4 27.8l-.4.6.1.1.1.1v.1l.1.1.6-.8-.2-.1h-.2zm5.8-.8h-.1l-.1.1h-.2l-.1.1h-.2l-.1.2L8 30.7h.6zm16.4-15l-.1-.1-.1-.1v-.2l-1.7 2.3.3.1h.3l1.7-2.4-.1.1-.1.1-.1.1zm7.9 6l-2.2 2.9.1.4.1.3 2.4-3.4h-.1l-.1-.1h-.1V18h-.1zM6.4 28.2l-.8 1 .1.1.1.1.1.1.1.1.9-1.3-.3-.1zM24 13.7h.2l3.4-4.8h-.1l-.3.1-.4.1-3.3 4.6h.4zm10.1-.3h.3l.1-.1h.5l.1-.1h-.3l-.1-.1h-.4zm2.1 4.4l2.3-3.2h-.6l-2.3 3.2h.4zm2.2 1.8l-.1-.1-.1-.1h-.1l-.1-.1-.6.8h.2l.2-.1h.3zm-13.2-5.8l2.3-3.1v-.1l.1-.1.1-.1.1-.2.1-.2.1-.1.1-.2.1-.1.1-.1.1-.1.1-.2.1-.1V9l.1-.2.1-.2v-.2.1h-.2l-.1.1h-.1l-3.7 5.1.3.1h.1zM11.8 27l-2.7 3.8h.6l2.7-3.8h-.5zM41 15.8l.6-.7-.2-.1-.3-.1-.7 1h.3zM4.6 27.4h-.1v-.1h-.1v.1h.1v.1l.1.1v.1l.1.2.1.1.2-.4h-.1l-.1-.1h-.1zM23 13.8l3.2-4.5-.4.1h-.2l-.2.1-3.1 4.4.3-.1zm19.2 2l.3-.4h-.2v-.1h-.2l-.1-.1-.4.6h.5zm-13.3-.7l3.6-4.9h-.4l-.3.1-3.3 4.6.2.1zm9.9 1.8v-.2l.1-.2.1-.1.2-.1.1-.2h.1l.1-.1h.1l.1-.1h.2l.8-1.2h-.1l-.2-.1h-.2l-2.2 3h.1l.1-.1.1-.1.1-.1.1-.1.1-.1.1-.1zm-10.7-2.2l3.1-4.3h-.4l-.4.1-2.8 4h.3l.1.1zm1.6.9l1.6-2.2v-.1l-.1-.1v-.3l.1-.2v-.1l.1-.1.2-.2.1-.1.1-.1.2-.1.1-.1.2-.1.2-.1 1.9-2.6V9h-.1v.1l-.1.1v.1h-.1v.1l-.2.1-.2.2-.1.1h-.1l-.1.1h-.1l-.1.1h-.1l-3.8 5.3.2.2zm7.7 2.2l2.3-3.2H39l-2.3 3.2h.5zm-.3 3.6l-.1-.1-.1-.1-.2-.1-3.3 4.6-.1.4-.2.4-.1.4-.2.5zM14.6 11l1.1-1.4-.2-.2-.1-.1-.1-.1-.6.9v.7zm-3.2 4.6v-.1l-.1-.1v-.3l-.1-.2L9.7 17v.9zm15.8-1.3l2.6-3.6-.2.1-.3.1h-.2l-.2.1-2.2 3.1.3.1zM10.1 19l1.7-2.5v-.1l-.1-.1-.1-.1-.1-.1-1.6 2.3.1.3zm22.1-6.1l-2.1 3 .1.1.1.1.1.1 2.4-3.3h-.5zm1 7.5l4.2-5.9h-.6L33 19.8l.1.3v.2zm-21.3 2.5l11-15.5v-.7L11.6 22.4l.1.1v.2l.1.1zm-1.3-2.4l.2.3.1.3 5.4-7.6v-.8l.1-.2-3.1 4.3v.3h.1v.4-.1h-.3v-.1H13zm22.2-1.1l3.5-5h-.6l-3.2 4.5.1.2zm-14.6-3.8l3.7-5.1v-.6l.1-.1v-.2l.1-.1.1-.1v-.2l.1-.1.1-.1-10.3 14.4v.2l.1.1v.3l2.5-3.5.1-.3.2-.4.1-.4.2-.3.2-.3.2-.4.2-.3.2-.3.2-.3.3-.3.2-.3.3-.3.3-.3.2-.2.3-.3zm-3.5 10.5l-3.4 4.7h.7l2.9-4.1-.1-.3zm18.9-3.9v.8l3.2-4.4-.3-.1-.2-.1zM16.3 11l-2.7 3.8-.1.3v.3l-.1.3v.2l3.1-4.2v-.2l-.1-.2v-.2zm6.2-5.4l-4.7 6.5v.1l-.1.3v.4l-.1.3-.1.3 5.2-7.4V6l-.1-.1v-.2h-.1v-.1zm-8.1 19.3l-4.2 5.9h.6l3.7-5.2v-.4zM32 18l.1.2.2.3 2.9-4.1-.3-.1h-.3zm-16.7 9.7l-.1-.2-.1-.3-2.6 3.6h.6zM37.6 19h-.1l-.1-.1h-.1l-.1-.1-3.6 4.9v1l2.7-3.9h-.1l-.1-.1H36v-.1h.1l.1-.1h.2v-.1h.2l.1-.1zm-21.7-9l-1.6 2.3-.1.3-.1.4-.1.3-.1.4 2.3-3.2-.1-.3-.1-.1zm5.8 4l3-4.2h-.1l-.2.1-.2.1-.2.1-.2.1-.1.1-2.8 3.9h.2l.2-.1zm.6-2.5v-.1l-.1-.1-.1-.2V11l-2.9 4 .2-.1.3-.2.2-.1.3-.1zM37.2 28v-.1h-.1v-.2l-.1-.2-.1-.3-.4.5.1.1h.2l.1.1h.1v.1h.2zm6.3-1.1v-.2l-.1-.1-.1-.2v-.1l-.5.6.2.1.1.1.1.1h.1v.1h.1v.1h.2v.1-.3l-.1-.1V27z" fill="#e56b05"/><path class="st3" d="M31.2 23.3v-.7l-6.1-2.1-.8-3.5-.2-.7h-.3l-.2.7-.8 3.5-6.1 2.1v.6h5.6l-.5 2.2-.4.4.3.3-.3 1.4.6.1.1-.4.2.3 1.8-1 2.1 1.1v-.1l.6-.1-1-4.2 5.4.1zm-6 .1l.4 1.5-1.2-.9.8-.6zM24 18.3l.5 2-.5-.2-.5.2.5-2zm-.6 2.7l.6-.2.6.2.4 1.7h-2l.4-1.7zm1 2.2l-.4.3-.4-.3h.8zm-.9.7l-1 .8.3-1.4.7.6zm-4.9-1.3l4.1-1.4-.3 1.4h-3.8zM22 27l.3-1.2 1.1.5-1.4.7zm2-1.1l-1.2-.6 1.2-1 1.2 1-1.2.6zm1.8 0L26 27l-1.3-.8 1-.5.1.2zm-.2-3.3l-.3-1.4 4.2 1.4h-3.9z"/><path d="M31.2 24h-3v3.2H23v-1h-.7l-.4-4.7h-.8l-.4 4.7h-.5l-.4-6.4H19l-.4 6.4h-1.3c1.5 3.7 5.8 5.5 9.5 4 2.5-1 4.2-3.4 4.4-6.2z" fill="#0038a7" stroke="#fff" stroke-width=".278" stroke-miterlimit="10"/><path class="st5" d="M28.8 28.2v-.4h.7l.2-.2h-.8v-.4h1v.2c.2-.4.4-.7.6-1.1h-.3v-.4h.4l.1-.2h-.5v-.4h.7c0-.2.1-.4.1-.6h-2.5v3h-5.2v3h.5c.7 0 1.3-.1 2-.3h-.5v-.6h1.4v.2c.3-.1.7-.3 1-.5H27v-.6h1.5c.2-.2.5-.4.7-.7h-.4zm0-3.1h1v.4h-1v-.4zm0 .7h1v.4h-1v-.4zm0 .6h1v.4h-1v-.4zm-3.9 3.9h-1.4v-.6h1.4v.6zm0-.9h-1.4v-.6h1.4v.6zm0-.8h-1.4V28h1.4v.6zm1.7.8h-1.4v-.6h1.4v.6zm0-.8h-1.4V28h1.4v.6zm1.8 0H27V28h1.5l-.1.6z"/><path class="st1" d="M23.4 28h1.4v.6h-1.4zm1.8 0h1.4v.6h-1.4zm1.7 0h1.4v.6h-1.4zm1.9-2.9h1v.4h-1zm0 .7h1v.4h-1zm1.3-.3h.5c0-.1.1-.3.1-.4H30l.1.4zm0 .7h.3c.1-.1.1-.3.2-.4h-.4v.4zm-1.3.2h1v.4h-1zm0 .7v.4h.8l.2-.2v-.2h-1zm0 1.1h.3c.1-.1.2-.3.4-.4h-.7v.4zm-5.4.7h1.4v.6h-1.4zm0 .8h1.4v.6h-1.4zm1.8 0v.6h.5l.9-.3v-.2l-1.4-.1zm0-.8h1.4v.6h-1.4zm1.7 0v.6h.7c.3-.2.5-.4.8-.6h-1.5z"/><path class="st5" d="M21.6 19.7c-.3 0-.5-.1-.7-.2-.3-.2-.6-.3-1-.3-.2 0-.4.1-.5.2m0 0l-.1.4h3.2l.1-.3c-.3.1-.6.2-.9.2l-2.3-.3zm1.8-.8c.5.2 1.1.2 1.6-.1l.1-.4c-.2.2-.5.4-.9.4h-.3c-.2 0-.3-.1-.5-.2-.1-.1-.3-.2-.4-.2-.2-.1-.4-.1-.6-.1-.2 0-.3.1-.5.1l-.1.4c.1-.1.2-.1.4-.1.4-.2.8-.1 1.2.2z"/><path class="st5" d="M20.1 17.6c.3 0 .5 0 .8.1.2.1.3.1.4.2.1.1.2.1.4.2.3.1.5.1 1.2-.5v-.1h-3.1v.2c.1 0 .2-.1.3-.1zm1 1.6c.5.2 1.1.2 1.5-.1l.1-.3c-.3.1-.7.2-1 .2-.3 0-.5-.1-.7-.2-.3-.2-.6-.3-1-.3-.2 0-.4.1-.5.2l-.1.3c.1-.1.3-.1.4-.1.5-.1.9.1 1.3.3z"/><path class="st3" d="M20 18.5c.4-.1.7 0 1 .3.2.1.5.2.7.2.3 0 .6-.1.9-.2l.1-.4c-.5.3-1.1.4-1.6.1-.3-.3-.8-.4-1.2-.3-.1 0-.3.1-.4.1l-.1.4c.2-.1.4-.1.6-.2z"/><path class="st3" d="M21.1 19.2c-.3-.3-.8-.4-1.2-.3-.2 0-.3.1-.4.1l-.1.3v.1c.1-.1.2-.1.2-.2.1 0 .2-.1.3-.1.4-.1.7 0 1 .3.2.1.5.2.7.2.3 0 .6-.1.8-.2l.1-.4c-.4.5-1 .5-1.4.2zm-.9-1.3c.2 0 .4 0 .6.1.1.1.3.1.4.2.1.1.3.2.5.2h.3c.3 0 .6-.2.9-.4l.1-.4c-.7.6-.9.6-1.2.5-.1 0-.3-.1-.4-.2-.1-.1-.3-.2-.4-.2-.2-.1-.5-.1-.8-.1-.1 0-.2 0-.4.1l-.1.3c.1-.1.3-.1.5-.1z"/><path class="st5" d="M26.2 19.7c.3 0 .5-.1.7-.2.3-.2.6-.3 1-.3.2 0 .4.1.5.2m.1 0l.1.4h-3.1l-.1-.3c.3.1.6.2.8.2l2.3-.3zm-1.8-.8c-.5.3-1.1.2-1.6-.1l-.1-.4c.2.2.5.4.9.4h.3c.2 0 .3-.1.5-.2.1-.1.3-.2.4-.2.2-.1.4-.1.6-.1.2 0 .3.1.5.1l.1.4c-.1-.1-.2-.1-.4-.1-.4-.2-.9-.1-1.2.2z"/><path class="st5" d="M27.7 17.6c-.3 0-.5 0-.8.1-.2.1-.3.1-.4.2-.1.1-.2.1-.4.2-.3.1-.5.1-1.2-.5v-.1h3.2v.2c-.1 0-.3-.1-.4-.1zm-.9 1.6c-.5.2-1.1.2-1.5-.1l-.1-.3c.3.1.6.2.9.2.3 0 .5-.1.7-.2.3-.2.6-.3 1-.3.2 0 .4.1.5.2l.1.3c-.1-.1-.3-.1-.4-.1-.4-.1-.9.1-1.2.3z"/><path class="st3" d="M27.9 18.5c-.4-.1-.7 0-1 .3-.2.2-.5.2-.8.2-.3 0-.6-.1-.9-.2l-.1-.4c.5.3 1.1.4 1.6.1.3-.3.8-.4 1.2-.3.1 0 .3.1.4.1l.1.4c-.2-.1-.3-.1-.5-.2z"/><path class="st3" d="M26.8 19.2c.3-.3.8-.4 1.2-.3.2 0 .3.1.4.1l.1.3v.1c-.1-.1-.2-.1-.2-.2-.1 0-.2-.1-.3-.1-.4-.1-.7 0-1 .3-.2.1-.5.2-.7.2-.3 0-.6-.1-.8-.2l-.1-.4c.4.5.9.5 1.4.2zm.9-1.3c-.2 0-.4 0-.6.1-.1.1-.3.1-.4.2-.1.1-.3.2-.4.2H26c-.3 0-.6-.2-.9-.4l-.1-.4c.7.6.9.6 1.2.5.1 0 .3-.1.4-.2.1-.1.3-.2.4-.2.2-.1.5-.1.8-.1.1 0 .2 0 .4.1l.1.3c-.2 0-.4-.1-.6-.1z"/><path class="st5" d="M21.6 19.7c-.3 0-.5-.1-.7-.2-.3-.2-.6-.3-1-.3-.2 0-.4.1-.5.2m0 0l-.1.4h3.2l.1-.3c-.3.1-.6.2-.9.2l-2.3-.3zm1.8-.8c.5.2 1.1.2 1.6-.1l.1-.4c-.2.2-.5.4-.9.4h-.3c-.2 0-.3-.1-.5-.2-.1-.1-.3-.2-.4-.2-.2-.1-.4-.1-.6-.1-.2 0-.3.1-.5.1l-.1.4c.1-.1.2-.1.4-.1.4-.2.8-.1 1.2.2z"/><path class="st5" d="M20.1 17.6c.3 0 .5 0 .8.1.2.1.3.1.4.2.1.1.2.1.4.2.3.1.5.1 1.2-.5v-.1h-3.1v.2c.1 0 .2-.1.3-.1zm1 1.6c.5.2 1.1.2 1.5-.1l.1-.3c-.3.1-.7.2-1 .2-.3 0-.5-.1-.7-.2-.3-.2-.6-.3-1-.3-.2 0-.4.1-.5.2l-.1.3c.1-.1.3-.1.4-.1.5-.1.9.1 1.3.3z"/><path class="st3" d="M20 18.5c.4-.1.7 0 1 .3.2.1.5.2.7.2.3 0 .6-.1.9-.2l.1-.4c-.5.3-1.1.4-1.6.1-.3-.3-.8-.4-1.2-.3-.1 0-.3.1-.4.1l-.1.4c.2-.1.4-.1.6-.2z"/><path class="st3" d="M20.2 17.9c.2 0 .4 0 .6.1.1.1.3.1.4.2.1.1.3.2.5.2h.3c.3 0 .6-.2.9-.4l.1-.4c-.7.6-.9.6-1.2.5-.1 0-.3-.1-.4-.2-.1-.1-.3-.2-.4-.2-.2-.1-.5-.1-.8-.1-.1 0-.2 0-.4.1l-.1.3c.1-.1.3-.1.5-.1z"/><path class="st3" d="M23.9 14c-5.2 0-9.4 4.2-9.4 9.4s4.2 9.4 9.4 9.4 9.4-4.2 9.4-9.4-4.2-9.4-9.4-9.4zm0 16.8c-4.1 0-7.5-3.3-7.5-7.5 0-4.1 3.3-7.5 7.5-7.5 4.1 0 7.5 3.3 7.5 7.5s-3.3 7.6-7.5 7.5c0 .1 0 .1 0 0z"/></svg>