<?xml version="1.0" encoding="UTF-8"?>
<!DOCTYPE svg PUBLIC "-//W3C//DTD SVG 1.1//EN" "http://www.w3.org/Graphics/SVG/1.1/DTD/svg11.dtd">
<svg xmlns="http://www.w3.org/2000/svg" version="1.1" width="160px" height="160px" style="shape-rendering:geometricPrecision; text-rendering:geometricPrecision; image-rendering:optimizeQuality; fill-rule:evenodd; clip-rule:evenodd" xmlns:xlink="http://www.w3.org/1999/xlink">
<g><path style="opacity:1" fill="#0b3563" d="M -0.5,-0.5 C 52.8333,-0.5 106.167,-0.5 159.5,-0.5C 159.5,52.8333 159.5,106.167 159.5,159.5C 106.167,159.5 52.8333,159.5 -0.5,159.5C -0.5,106.167 -0.5,52.8333 -0.5,-0.5 Z"/></g>
<g><path style="opacity:1" fill="#ebeef2" d="M 130.5,50.5 C 109.497,50.3334 88.4974,50.5 67.5,51C 68.5266,51.5133 69.5266,52.0133 70.5,52.5C 80.1327,58.425 85.1327,67.0916 85.5,78.5C 102.167,78.5 118.833,78.5 135.5,78.5C 135.5,79.5 135.5,80.5 135.5,81.5C 118.833,81.5 102.167,81.5 85.5,81.5C 84.8273,92.5244 79.8273,100.858 70.5,106.5C 69.5266,106.987 68.5266,107.487 67.5,108C 88.4974,108.5 109.497,108.667 130.5,108.5C 116.85,109.833 102.85,110.499 88.5,110.5C 74.5,110.333 60.5,110.167 46.5,110C 28.5915,103.36 21.0915,90.5269 24,71.5C 27.5,60 35,52.5 46.5,49C 60.5,48.8333 74.5,48.6667 88.5,48.5C 102.85,48.5007 116.85,49.1674 130.5,50.5 Z"/></g>
<g><path style="opacity:1" fill="#6a84a0" d="M 130.5,50.5 C 110.5,51.1667 90.5,51.8333 70.5,52.5C 69.5266,52.0133 68.5266,51.5133 67.5,51C 88.4974,50.5 109.497,50.3334 130.5,50.5 Z"/></g>
<g><path style="opacity:1" fill="#123966" d="M 45.5,51.5 C 61.6789,48.5085 73.5122,54.1752 81,68.5C 85.4919,96.3425 73.6585,109.176 45.5,107C 29.6858,99.8731 23.5191,87.7065 27,70.5C 30.6871,61.6475 36.8538,55.3141 45.5,51.5 Z"/></g>
<g><path style="opacity:1" fill="#718aa4" d="M 52.5,55.5 C 53.2679,56.2625 53.7679,57.2625 54,58.5C 55.7985,58.2795 57.6318,57.9461 59.5,57.5C 59.7365,58.2472 60.0698,59.0805 60.5,60C 62.1667,60.3333 63.8333,60.6667 65.5,61C 64.6721,61.9147 63.6721,62.5814 62.5,63C 63.8333,63.6667 63.8333,64.3333 62.5,65C 67.0976,66.7913 67.2642,68.2913 63,69.5C 62.6667,70.8333 62.3333,72.1667 62,73.5C 60.8525,72.5419 59.8525,72.8753 59,74.5C 58.7811,75.938 58.2811,77.2713 57.5,78.5C 56.8128,76.4453 55.6461,74.7786 54,73.5C 52.7367,75.7969 50.9034,76.6302 48.5,76C 51.2764,74.2213 50.9431,73.2213 47.5,73C 47.8333,72.6667 48.1667,72.3333 48.5,72C 46.2852,71.8295 44.2852,71.1628 42.5,70C 46.8065,69.1339 47.1399,68.1339 43.5,67C 44.624,66.7508 45.624,66.2508 46.5,65.5C 45.5153,63.9017 45.3486,62.235 46,60.5C 46.3333,60.8333 46.6667,61.1667 47,61.5C 47.8661,57.1935 48.8661,56.8601 50,60.5C 50.3661,58.5483 51.1995,56.8816 52.5,55.5 Z"/></g>
<g><path style="opacity:1" fill="#f9fafb" d="M 52.5,60.5 C 60.2943,61.2516 61.9609,64.7516 57.5,71C 51.6625,72.4798 48.8292,70.3132 49,64.5C 49.6897,62.6498 50.8564,61.3164 52.5,60.5 Z"/></g>
<g><path style="opacity:1" fill="#eff2f5" d="M 47.5,94.5 C 47.3284,95.4916 47.6618,96.1583 48.5,96.5C 47.7961,98.3442 46.4628,98.8442 44.5,98C 43.1192,91.9801 42.4526,92.1468 42.5,98.5C 41.1667,98.5 39.8333,98.5 38.5,98.5C 38.5,92.8333 38.5,87.1667 38.5,81.5C 39.8333,81.5 41.1667,81.5 42.5,81.5C 42.4511,86.5388 43.1177,86.7055 44.5,82C 45.8333,81.3333 47.1667,81.3333 48.5,82C 46.2518,85.9967 45.9185,90.1634 47.5,94.5 Z"/></g>
<g><path style="opacity:1" fill="#ebeef2" d="M 49.5,95.5 C 49.5,91.8333 49.5,88.1667 49.5,84.5C 50.4615,80.8539 52.7949,79.6872 56.5,81C 58.2785,83.1354 58.9452,85.6354 58.5,88.5C 57.1667,88.5 55.8333,88.5 54.5,88.5C 53.1554,88.5744 53.1554,89.5744 54.5,91.5C 55.8333,91.5 57.1667,91.5 58.5,91.5C 59.1686,97.0001 56.8353,99.1667 51.5,98C 50.244,97.5831 49.5774,96.7498 49.5,95.5 Z"/></g>
<g><path style="opacity:1" fill="#f3f5f7" d="M 60.5,81.5 C 61.8333,81.5 63.1667,81.5 64.5,81.5C 64.3443,87.3125 65.011,87.6459 66.5,82.5C 67.723,81.3861 69.0563,81.2195 70.5,82C 69.3358,83.9939 68.6692,86.1605 68.5,88.5C 69.3797,91.8015 70.0463,95.1349 70.5,98.5C 69.1667,98.5 67.8333,98.5 66.5,98.5C 65.2004,89.2756 64.5338,89.2756 64.5,98.5C 63.1667,98.5 61.8333,98.5 60.5,98.5C 60.5,92.8333 60.5,87.1667 60.5,81.5 Z"/></g>
<g><path style="opacity:1" fill="#8da1b6" d="M 49.5,84.5 C 49.5,88.1667 49.5,91.8333 49.5,95.5C 48.8333,95.5 48.5,95.8333 48.5,96.5C 47.6618,96.1583 47.3284,95.4916 47.5,94.5C 48.1667,91.1667 48.8333,87.8333 49.5,84.5 Z"/></g>
<g><path style="opacity:1" fill="#6a84a0" d="M 70.5,106.5 C 90.5,107.167 110.5,107.833 130.5,108.5C 109.497,108.667 88.4974,108.5 67.5,108C 68.5266,107.487 69.5266,106.987 70.5,106.5 Z"/></g>
</svg>
