<?xml version="1.0" encoding="UTF-8"?>
<!DOCTYPE svg PUBLIC "-//W3C//DTD SVG 1.1//EN" "http://www.w3.org/Graphics/SVG/1.1/DTD/svg11.dtd">
<svg xmlns="http://www.w3.org/2000/svg" version="1.1" width="160px" height="160px" style="shape-rendering:geometricPrecision; text-rendering:geometricPrecision; image-rendering:optimizeQuality; fill-rule:evenodd; clip-rule:evenodd" xmlns:xlink="http://www.w3.org/1999/xlink">
<g><path style="opacity:1" fill="#0f53a0" d="M -0.5,-0.5 C 52.8333,-0.5 106.167,-0.5 159.5,-0.5C 159.5,52.8333 159.5,106.167 159.5,159.5C 106.167,159.5 52.8333,159.5 -0.5,159.5C -0.5,106.167 -0.5,52.8333 -0.5,-0.5 Z"/></g>
<g><path style="opacity:1" fill="#f6f8fb" d="M 65.5,24.5 C 66.937,25.7255 68.6036,26.7255 70.5,27.5C 74.7956,28.3275 79.1289,28.8275 83.5,29C 84.6872,30.0195 85.6872,31.1861 86.5,32.5C 84.7256,33.1867 83.0589,34.0201 81.5,35C 82.938,35.2189 84.2713,35.7189 85.5,36.5C 85.2907,37.086 84.9574,37.586 84.5,38C 80.174,38.2255 76.0073,39.0589 72,40.5C 71.502,43.4816 71.3354,46.4816 71.5,49.5C 76.449,50.0411 81.1156,49.2078 85.5,47C 92.856,46.1687 100.189,46.3354 107.5,47.5C 104.662,50.7426 101.329,53.2426 97.5,55C 93.4896,55.3568 89.4896,55.1901 85.5,54.5C 87.0059,70.5178 92.0059,85.3512 100.5,99C 99.2186,102.044 96.8852,103.21 93.5,102.5C 93.5,101.5 93.5,100.5 93.5,99.5C 90.5448,98.8413 87.5448,98.5079 84.5,98.5C 81.8183,90.9857 76.6516,85.9857 69,83.5C 71.2173,86.1071 73.2173,89.1071 75,92.5C 78.8406,91.0052 80.174,92.3385 79,96.5C 77.6124,97.5536 76.1124,97.7203 74.5,97C 72.1698,94.8328 69.5032,93.1662 66.5,92C 64.6667,88.8333 62.1667,86.3333 59,84.5C 58.6667,83.1667 58.3333,81.8333 58,80.5C 55.6255,78.461 53.6255,76.1277 52,73.5C 51.9006,61.4408 52.9006,49.4408 55,37.5C 58.5481,33.2818 62.0481,28.9485 65.5,24.5 Z"/></g>
<g><path style="opacity:1" fill="#80a2cc" d="M 72.5,29.5 C 74.337,29.6395 74.6704,30.3061 73.5,31.5C 72.7025,31.0431 72.3691,30.3764 72.5,29.5 Z"/></g>
<g><path style="opacity:1" fill="#4d7eb8" d="M 67.5,40.5 C 68.8001,42.223 69.4668,44.3897 69.5,47C 69.3333,49.1667 69.1667,51.3333 69,53.5C 67.6326,49.3004 67.1326,44.9671 67.5,40.5 Z"/></g>
<g><path style="opacity:1" fill="#6c95c5" d="M 75.5,52.5 C 74.5,52.5 73.5,52.5 72.5,52.5C 72.5,54.1667 72.5,55.8333 72.5,57.5C 71.5386,55.7354 71.2053,53.7354 71.5,51.5C 73.099,51.2322 74.4324,51.5655 75.5,52.5 Z"/></g>
<g><path style="opacity:1" fill="#205aa4" d="M 75.5,52.5 C 83.4214,52.635 86.2547,56.635 84,64.5C 83.5348,65.9308 82.7014,67.0975 81.5,68C 83.4206,69.2408 83.754,70.7408 82.5,72.5C 81.0878,71.1936 79.4211,70.3603 77.5,70C 78.5536,68.6124 78.7203,67.1124 78,65.5C 75.946,62.9528 74.1126,60.2861 72.5,57.5C 72.5,55.8333 72.5,54.1667 72.5,52.5C 73.5,52.5 74.5,52.5 75.5,52.5 Z"/></g>
<g><path style="opacity:1" fill="#2d63a9" d="M 69.5,64.5 C 74.1225,63.4082 75.9558,65.0748 75,69.5C 74.6322,70.91 73.7989,71.91 72.5,72.5C 72.761,69.6373 71.761,66.9706 69.5,64.5 Z"/></g>
<g><path style="opacity:1" fill="#2e63a9" d="M 58.5,68.5 C 62.0298,70.5105 65.6964,72.3438 69.5,74C 65.6825,76.1706 62.1825,75.6706 59,72.5C 58.51,71.2068 58.3433,69.8734 58.5,68.5 Z"/></g>
<g><path style="opacity:1" fill="#4974b3" d="M 89.5,83.5 C 85.7678,81.8287 84.4345,79.1621 85.5,75.5C 87.7765,77.6433 89.1099,80.3099 89.5,83.5 Z"/></g>
<g><path style="opacity:1" fill="#2d62a8" d="M 78.5,77.5 C 80.649,79.0456 82.8156,80.7122 85,82.5C 86.6828,86.168 88.0162,89.8347 89,93.5C 84.9648,89.7998 81.2981,85.7998 78,81.5C 77.4209,80.0715 77.5876,78.7382 78.5,77.5 Z"/></g>
<g><path style="opacity:1" fill="#5f88be" d="M 89.5,83.5 C 91.6408,84.7551 92.3074,86.4218 91.5,88.5C 89.7826,87.3315 89.1159,85.6648 89.5,83.5 Z"/></g>
<g><path style="opacity:1" fill="#3c70b0" d="M 62.5,79.5 C 63.3764,79.3691 64.0431,79.7025 64.5,80.5C 66.0224,83.1921 67.1891,85.8588 68,88.5C 65.4742,85.8327 63.6409,82.8327 62.5,79.5 Z"/></g>
<g><path style="opacity:1" fill="#4d7eb8" d="M 93.5,93.5 C 95.0878,94.6353 95.4212,95.9686 94.5,97.5C 93.5713,96.3112 93.238,94.9778 93.5,93.5 Z"/></g>
<g><path style="opacity:1" fill="#f1f5f9" d="M 41.5,106.5 C 66.8333,106.5 92.1667,106.5 117.5,106.5C 117.5,107.5 117.5,108.5 117.5,109.5C 92.1667,109.5 66.8333,109.5 41.5,109.5C 41.5,108.5 41.5,107.5 41.5,106.5 Z"/></g>
<g><path style="opacity:1" fill="#f7f9fc" d="M 42.5,116.5 C 44.1667,116.5 45.8333,116.5 47.5,116.5C 47.3379,118.527 47.5045,120.527 48,122.5C 49.8333,120.667 51.6667,118.833 53.5,117C 54.9437,116.219 56.277,116.386 57.5,117.5C 53.8964,121.211 53.7297,125.211 57,129.5C 59.1912,125.427 60.6912,121.094 61.5,116.5C 63.4672,116.261 65.3005,116.594 67,117.5C 68.1449,120.432 68.9782,123.432 69.5,126.5C 69.9867,127.473 70.4867,128.473 71,129.5C 71.499,125.179 71.6657,120.846 71.5,116.5C 73.8333,116.5 76.1667,116.5 78.5,116.5C 80.1766,128.479 81.8433,128.479 83.5,116.5C 85.8333,116.5 88.1667,116.5 90.5,116.5C 90.3343,120.846 90.501,125.179 91,129.5C 91.7914,128.255 92.2914,126.922 92.5,125.5C 93.2261,122.821 94.0594,120.154 95,117.5C 96.6995,116.594 98.5328,116.261 100.5,116.5C 101.493,121.313 102.993,125.98 105,130.5C 106.371,126.927 107.871,123.427 109.5,120C 107.866,119.506 106.199,119.34 104.5,119.5C 104.5,118.5 104.5,117.5 104.5,116.5C 108.5,116.5 112.5,116.5 116.5,116.5C 115.031,121.574 113.364,126.574 111.5,131.5C 113.5,131.5 115.5,131.5 117.5,131.5C 117.5,132.5 117.5,133.5 117.5,134.5C 110.382,134.931 103.382,134.264 96.5,132.5C 92.9682,133.967 89.3016,134.634 85.5,134.5C 85.6787,124.1 84.6787,124.1 82.5,134.5C 80.8333,134.5 79.1667,134.5 77.5,134.5C 75.3213,124.1 74.3213,124.1 74.5,134.5C 70.6984,134.634 67.0318,133.967 63.5,132.5C 59.9624,134.137 56.2957,134.637 52.5,134C 49.2971,124.049 47.6305,124.215 47.5,134.5C 45.8333,134.5 44.1667,134.5 42.5,134.5C 42.5,128.5 42.5,122.5 42.5,116.5 Z"/></g>
<g><path style="opacity:1" fill="#7da2cc" d="M 71.5,116.5 C 71.6657,120.846 71.499,125.179 71,129.5C 70.4867,128.473 69.9867,127.473 69.5,126.5C 70.1667,123.167 70.8333,119.833 71.5,116.5 Z"/></g>
<g><path style="opacity:1" fill="#5e8cc0" d="M 90.5,116.5 C 91.1667,119.5 91.8333,122.5 92.5,125.5C 92.2914,126.922 91.7914,128.255 91,129.5C 90.501,125.179 90.3343,120.846 90.5,116.5 Z"/></g>
<g><path style="opacity:1" fill="#84a7ce" d="M 42.5,116.5 C 42.5,122.5 42.5,128.5 42.5,134.5C 44.1667,134.5 45.8333,134.5 47.5,134.5C 45.7354,135.461 43.7354,135.795 41.5,135.5C 41.1765,128.978 41.5098,122.645 42.5,116.5 Z"/></g>
<g><path style="opacity:1" fill="#3c6bae" d="M 95.5,125.5 C 97.1207,125.787 98.1207,126.787 98.5,128.5C 97.675,129.386 96.675,129.719 95.5,129.5C 95.5,128.167 95.5,126.833 95.5,125.5 Z"/></g>
<g><path style="opacity:1" fill="#3f6caf" d="M 62.5,125.5 C 64.1765,126.183 64.8432,127.517 64.5,129.5C 63.448,129.649 62.448,129.483 61.5,129C 62.3366,127.989 62.67,126.822 62.5,125.5 Z"/></g>
</svg>
