<?xml version="1.0" encoding="UTF-8"?>
<!DOCTYPE svg PUBLIC "-//W3C//DTD SVG 1.1//EN" "http://www.w3.org/Graphics/SVG/1.1/DTD/svg11.dtd">
<svg xmlns="http://www.w3.org/2000/svg" version="1.1" width="160px" height="160px" style="shape-rendering:geometricPrecision; text-rendering:geometricPrecision; image-rendering:optimizeQuality; fill-rule:evenodd; clip-rule:evenodd" xmlns:xlink="http://www.w3.org/1999/xlink">
<g><path style="opacity:1" fill="#26231f" d="M -0.5,-0.5 C 52.8333,-0.5 106.167,-0.5 159.5,-0.5C 159.5,52.8333 159.5,106.167 159.5,159.5C 106.167,159.5 52.8333,159.5 -0.5,159.5C -0.5,106.167 -0.5,52.8333 -0.5,-0.5 Z"/></g>
<g><path style="opacity:1" fill="#fbfbfa" d="M 74.5,58.5 C 74.5,58.8333 74.5,59.1667 74.5,59.5C 73.8333,59.5 73.1667,59.5 72.5,59.5C 65.9519,61.7725 59.6186,64.6058 53.5,68C 54.448,68.4828 55.448,68.6495 56.5,68.5C 55.063,69.7255 53.3964,70.7255 51.5,71.5C 51.1667,70.8333 50.8333,70.1667 50.5,69.5C 49.2613,69.9424 48.2613,70.6091 47.5,71.5C 41.4126,73.3782 35.746,76.0448 30.5,79.5C 29.7611,79.631 29.0944,79.4643 28.5,79C 30.3359,77.581 32.3359,76.4143 34.5,75.5C 39.8021,38.3524 60.4687,24.8524 96.5,35C 106.781,40.2814 114.781,47.948 120.5,58C 111.587,62.7063 102.753,67.5397 94,72.5C 94.4035,65.3747 92.2369,59.2081 87.5,54C 81.0718,51.1059 75.7385,52.4392 71.5,58C 72.448,58.4828 73.448,58.6495 74.5,58.5 Z"/></g>
<g><path style="opacity:1" fill="#555350" d="M 72.5,59.5 C 72.5,59.8333 72.5,60.1667 72.5,60.5C 71.5,61.1667 70.5,61.8333 69.5,62.5C 67.4471,62.4021 65.7804,63.0687 64.5,64.5C 61.5152,65.3257 58.8485,66.659 56.5,68.5C 55.448,68.6495 54.448,68.4828 53.5,68C 59.6186,64.6058 65.9519,61.7725 72.5,59.5 Z"/></g>
<g><path style="opacity:1" fill="#cacac8" d="M 72.5,60.5 C 79.5796,59.6823 83.5796,62.6823 84.5,69.5C 84.5,72.8333 84.5,76.1667 84.5,79.5C 84.5,81.1667 84.5,82.8333 84.5,84.5C 83.6618,84.1583 83.3284,83.4916 83.5,82.5C 83.6659,77.4889 83.4993,72.4889 83,67.5C 82.4257,65.508 81.259,64.008 79.5,63C 76.854,62.5026 74.1873,62.3359 71.5,62.5C 70.8333,62.5 70.1667,62.5 69.5,62.5C 70.5,61.8333 71.5,61.1667 72.5,60.5 Z"/></g>
<g><path style="opacity:1" fill="#d4d3d3" d="M 69.5,62.5 C 68.2196,63.9313 66.5529,64.5979 64.5,64.5C 65.7804,63.0687 67.4471,62.4021 69.5,62.5 Z"/></g>
<g><path style="opacity:1" fill="#2b2824" d="M 72.5,60.5 C 72.5,60.1667 72.5,59.8333 72.5,59.5C 73.1667,59.5 73.8333,59.5 74.5,59.5C 84.3016,59.6494 88.3016,64.6494 86.5,74.5C 85.8333,72.8333 85.1667,71.1667 84.5,69.5C 83.5796,62.6823 79.5796,59.6823 72.5,60.5 Z"/></g>
<g><path style="opacity:1" fill="#3d3a37" d="M 80.5,82.5 C 79.1451,89.3887 79.3118,96.3887 81,103.5C 82.514,105.766 84.6807,106.932 87.5,107C 84.9009,107.769 82.4009,107.602 80,106.5C 78.5962,100.956 78.0962,95.2896 78.5,89.5C 78.7951,82.7743 78.4617,76.1077 77.5,69.5C 75.808,68.0314 73.808,67.3647 71.5,67.5C 69.1417,67.7529 66.8083,68.0862 64.5,68.5C 68.3631,65.8019 72.6964,64.9686 77.5,66C 78.7014,66.9025 79.5348,68.0692 80,69.5C 80.499,73.8206 80.6657,78.1539 80.5,82.5 Z"/></g>
<g><path style="opacity:1" fill="#dad9d9" d="M 72.5,63.5 C 76.0254,63.3459 78.8587,64.6792 81,67.5C 81.4997,74.8258 81.6663,82.1591 81.5,89.5C 80.5318,87.3926 80.1984,85.0593 80.5,82.5C 80.6657,78.1539 80.499,73.8206 80,69.5C 79.5348,68.0692 78.7014,66.9025 77.5,66C 72.6964,64.9686 68.3631,65.8019 64.5,68.5C 63.448,68.6495 62.448,68.4828 61.5,68C 65.1574,66.1776 68.8241,64.6776 72.5,63.5 Z"/></g>
<g><path style="opacity:1" fill="#34312d" d="M 77.5,85.5 C 77.1667,85.5 76.8333,85.5 76.5,85.5C 79.0202,72.0065 74.0202,67.6732 61.5,72.5C 61.8333,71.8333 62.1667,71.1667 62.5,70.5C 65.4877,69.8389 68.4877,69.1722 71.5,68.5C 74.006,68.3352 75.8393,69.3352 77,71.5C 77.4992,76.1548 77.6658,80.8215 77.5,85.5 Z"/></g>
<g><path style="opacity:1" fill="#dfdede" d="M 78.5,89.5 C 77.5655,88.4324 77.2322,87.099 77.5,85.5C 77.6658,80.8215 77.4992,76.1548 77,71.5C 75.8393,69.3352 74.006,68.3352 71.5,68.5C 68.4877,69.1722 65.4877,69.8389 62.5,70.5C 63.1667,69.8333 63.8333,69.1667 64.5,68.5C 66.8083,68.0862 69.1417,67.7529 71.5,67.5C 73.808,67.3647 75.808,68.0314 77.5,69.5C 78.4617,76.1077 78.7951,82.7743 78.5,89.5 Z"/></g>
<g><path style="opacity:1" fill="#34312e" d="M 85.5,112.5 C 85.5,112.833 85.5,113.167 85.5,113.5C 78.5851,115.328 74.2518,112.994 72.5,106.5C 72.6256,97.4906 72.959,88.4906 73.5,79.5C 71.8098,73.8246 68.1432,72.1579 62.5,74.5C 66.149,71.3313 69.9823,70.9979 74,73.5C 74.3333,84.8333 74.6667,96.1667 75,107.5C 77.061,111.981 80.561,113.648 85.5,112.5 Z"/></g>
<g><path style="opacity:1" fill="#8a8986" d="M 69.5,62.5 C 70.1667,62.5 70.8333,62.5 71.5,62.5C 71.5,63.1667 71.8333,63.5 72.5,63.5C 68.8241,64.6776 65.1574,66.1776 61.5,68C 62.448,68.4828 63.448,68.6495 64.5,68.5C 63.8333,69.1667 63.1667,69.8333 62.5,70.5C 62.1667,71.1667 61.8333,71.8333 61.5,72.5C 58.7417,73.9665 59.075,74.6332 62.5,74.5C 61.3998,75.5585 60.0664,76.3918 58.5,77C 59.448,77.4828 60.448,77.6495 61.5,77.5C 60.4958,79.6773 61.1625,80.0107 63.5,78.5C 64.1667,79.1667 64.8333,79.8333 65.5,80.5C 60.9097,81.0303 56.5763,82.3637 52.5,84.5C 53.463,83.6365 53.463,82.9698 52.5,82.5C 48.6972,84.7376 44.6972,86.4043 40.5,87.5C 41.9649,86.2632 43.6316,85.2632 45.5,84.5C 49.1401,82.6799 52.8068,80.8466 56.5,79C 54.6992,78.6827 54.3659,78.016 55.5,77C 52.1009,77.6347 48.7676,78.8013 45.5,80.5C 44.8076,79.9747 44.3076,79.3081 44,78.5C 42.2467,79.627 40.4134,80.627 38.5,81.5C 37.3044,81.1543 37.3044,80.6543 38.5,80C 37.9056,79.5357 37.2389,79.369 36.5,79.5C 40.7705,77.0269 45.1039,74.5269 49.5,72C 48.9056,71.5357 48.2389,71.369 47.5,71.5C 48.2613,70.6091 49.2613,69.9424 50.5,69.5C 50.8333,70.1667 51.1667,70.8333 51.5,71.5C 53.3964,70.7255 55.063,69.7255 56.5,68.5C 58.8485,66.659 61.5152,65.3257 64.5,64.5C 66.5529,64.5979 68.2196,63.9313 69.5,62.5 Z"/></g>
<g><path style="opacity:1" fill="#aeacab" d="M 73.5,79.5 C 72.8333,82.1667 72.1667,84.8333 71.5,87.5C 71.6653,83.8183 71.4986,80.1516 71,76.5C 67.5621,75.0173 64.3955,75.3506 61.5,77.5C 60.448,77.6495 59.448,77.4828 58.5,77C 60.0664,76.3918 61.3998,75.5585 62.5,74.5C 68.1432,72.1579 71.8098,73.8246 73.5,79.5 Z"/></g>
<g><path style="opacity:1" fill="#bbbab8" d="M 70.5,81.5 C 69.8333,84.5 69.1667,87.5 68.5,90.5C 68.6653,86.8183 68.4986,83.1516 68,79.5C 66.6439,78.6198 65.1439,78.2865 63.5,78.5C 61.1625,80.0107 60.4958,79.6773 61.5,77.5C 66.0988,75.3631 69.0988,76.6964 70.5,81.5 Z"/></g>
<g><path style="opacity:1" fill="#615e5b" d="M 84.5,69.5 C 85.1667,71.1667 85.8333,72.8333 86.5,74.5C 86.634,76.2915 86.3007,77.9582 85.5,79.5C 85.1667,79.5 84.8333,79.5 84.5,79.5C 84.5,76.1667 84.5,72.8333 84.5,69.5 Z"/></g>
<g><path style="opacity:1" fill="#54514e" d="M 47.5,71.5 C 42.0263,74.7384 36.3596,77.7384 30.5,80.5C 30.5,80.1667 30.5,79.8333 30.5,79.5C 35.746,76.0448 41.4126,73.3782 47.5,71.5 Z"/></g>
<g><path style="opacity:1" fill="#d1d1d0" d="M 47.5,71.5 C 48.2389,71.369 48.9056,71.5357 49.5,72C 45.1039,74.5269 40.7705,77.0269 36.5,79.5C 32.9073,79.7956 32.2406,80.7956 34.5,82.5C 31.1667,83.8333 27.8333,85.1667 24.5,86.5C 25.0577,85.2101 26.0577,84.3768 27.5,84C 27.1667,83.6667 26.8333,83.3333 26.5,83C 27.6934,81.9054 29.0267,81.072 30.5,80.5C 36.3596,77.7384 42.0263,74.7384 47.5,71.5 Z"/></g>
<g><path style="opacity:1" fill="#f9f9f9" d="M 65.5,80.5 C 66.1174,80.6107 66.6174,80.944 67,81.5C 67.1667,83 67.3333,84.5 67.5,86C 66.4769,94.4841 66.3103,102.984 67,111.5C 69.9081,119.151 75.4081,121.651 83.5,119C 93.1601,116.71 102.66,113.877 112,110.5C 112.5,110.833 113,111.167 113.5,111.5C 107.725,119.9 99.7254,125.067 89.5,127C 62.9372,131.062 45.6039,120.396 37.5,95C 38.0077,93.1074 39.0077,91.6074 40.5,90.5C 42.3797,90.7709 43.713,90.1042 44.5,88.5C 47.4848,87.6743 50.1515,86.341 52.5,84.5C 56.5763,82.3637 60.9097,81.0303 65.5,80.5 Z"/></g>
<g><path style="opacity:1" fill="#f2f2f1" d="M 70.5,81.5 C 69.9895,90.1583 69.6562,98.825 69.5,107.5C 69.1667,107.5 68.8333,107.5 68.5,107.5C 68.5,101.833 68.5,96.1667 68.5,90.5C 69.1667,87.5 69.8333,84.5 70.5,81.5 Z"/></g>
<g><path style="opacity:1" fill="#383632" d="M 71.5,62.5 C 74.1873,62.3359 76.854,62.5026 79.5,63C 81.259,64.008 82.4257,65.508 83,67.5C 83.4993,72.4889 83.6659,77.4889 83.5,82.5C 82.1667,88.1667 82.1667,93.8333 83.5,99.5C 83.4142,100.496 83.7476,101.329 84.5,102C 87.8678,102.543 91.2011,102.376 94.5,101.5C 92.8185,103.008 90.8185,104.008 88.5,104.5C 85.9556,104.896 83.7889,104.229 82,102.5C 81.501,98.1794 81.3343,93.8461 81.5,89.5C 81.6663,82.1591 81.4997,74.8258 81,67.5C 78.8587,64.6792 76.0254,63.3459 72.5,63.5C 71.8333,63.5 71.5,63.1667 71.5,62.5 Z"/></g>
<g><path style="opacity:1" fill="#5c5a57" d="M 34.5,82.5 C 32.0156,84.795 28.6823,86.795 24.5,88.5C 23.4937,87.6043 23.4937,86.9377 24.5,86.5C 27.8333,85.1667 31.1667,83.8333 34.5,82.5 Z"/></g>
<g><path style="opacity:1" fill="#cfcfce" d="M 76.5,85.5 C 76.0074,87.8056 75.6741,90.139 75.5,92.5C 75.161,97.9302 75.661,103.264 77,108.5C 78.6477,110.028 80.6477,110.695 83,110.5C 84.7067,110.492 86.2067,110.158 87.5,109.5C 89.5,109.167 91.5,108.833 93.5,108.5C 90.9209,110.025 88.2542,111.359 85.5,112.5C 80.561,113.648 77.061,111.981 75,107.5C 74.6667,96.1667 74.3333,84.8333 74,73.5C 69.9823,70.9979 66.149,71.3313 62.5,74.5C 59.075,74.6332 58.7417,73.9665 61.5,72.5C 74.0202,67.6732 79.0202,72.0065 76.5,85.5 Z"/></g>
<g><path style="opacity:1" fill="#d5d4d4" d="M 74.5,59.5 C 74.5,59.1667 74.5,58.8333 74.5,58.5C 77.1873,58.3359 79.854,58.5026 82.5,59C 84.6667,59.8333 86.1667,61.3333 87,63.5C 87.7077,73.0156 87.541,82.5156 86.5,92C 86.6667,93.5 86.8333,95 87,96.5C 87.3879,97.428 88.0546,98.0946 89,98.5C 107.604,87.831 126.104,77.331 144.5,67C 128.098,77.7295 111.432,88.0628 94.5,98C 96.5979,97.9678 98.5979,97.3011 100.5,96C 113.754,87.7879 127.254,79.9546 141,72.5C 141.617,73.4491 141.451,74.2825 140.5,75C 128.671,81.4138 117.004,88.0804 105.5,95C 117.04,90.1445 128.206,84.3112 139,77.5C 139.617,78.4491 139.451,79.2825 138.5,80C 126.603,86.448 114.603,92.6146 102.5,98.5C 103.463,97.6365 103.463,96.9698 102.5,96.5C 99.432,97.6913 96.7654,99.358 94.5,101.5C 91.2011,102.376 87.8678,102.543 84.5,102C 83.7476,101.329 83.4142,100.496 83.5,99.5C 83.5,98.8333 83.8333,98.5 84.5,98.5C 84.5587,100.722 85.7253,101.722 88,101.5C 89.6268,101.375 91.1268,100.875 92.5,100C 90.236,99.7638 88.0693,99.2638 86,98.5C 85.5005,92.1754 85.3338,85.8421 85.5,79.5C 86.3007,77.9582 86.634,76.2915 86.5,74.5C 88.3016,64.6494 84.3016,59.6494 74.5,59.5 Z"/></g>
<g><path style="opacity:1" fill="#a6a4a3" d="M 45.5,84.5 C 45.44,83.9569 45.1067,83.6236 44.5,83.5C 36.2621,87.7863 27.9287,91.7863 19.5,95.5C 21.8331,93.2434 23.4997,90.9101 24.5,88.5C 28.6823,86.795 32.0156,84.795 34.5,82.5C 32.2406,80.7956 32.9073,79.7956 36.5,79.5C 37.2389,79.369 37.9056,79.5357 38.5,80C 37.3044,80.6543 37.3044,81.1543 38.5,81.5C 40.4134,80.627 42.2467,79.627 44,78.5C 44.3076,79.3081 44.8076,79.9747 45.5,80.5C 48.7676,78.8013 52.1009,77.6347 55.5,77C 54.3659,78.016 54.6992,78.6827 56.5,79C 52.8068,80.8466 49.1401,82.6799 45.5,84.5 Z"/></g>
<g><path style="opacity:1" fill="#35322e" d="M 44.5,88.5 C 43.713,90.1042 42.3797,90.7709 40.5,90.5C 41.5137,89.3263 42.847,88.6596 44.5,88.5 Z"/></g>
<g><path style="opacity:1" fill="#dddcdc" d="M 107.5,100.5 C 104.594,101.787 101.594,102.787 98.5,103.5C 110.996,95.9187 123.996,89.4187 137.5,84C 136.5,85 135.5,86 134.5,87C 125.16,91.0032 116.16,95.5032 107.5,100.5 Z"/></g>
<g><path style="opacity:1" fill="#e6e6e5" d="M 45.5,84.5 C 43.6316,85.2632 41.9649,86.2632 40.5,87.5C 34.8489,89.6588 29.5156,92.3255 24.5,95.5C 22.323,95.5861 20.323,96.2528 18.5,97.5C 17.6002,96.643 17.9336,95.9763 19.5,95.5C 27.9287,91.7863 36.2621,87.7863 44.5,83.5C 45.1067,83.6236 45.44,83.9569 45.5,84.5 Z"/></g>
<g><path style="opacity:1" fill="#a9a8a6" d="M 52.5,84.5 C 50.1515,86.341 47.4848,87.6743 44.5,88.5C 42.847,88.6596 41.5137,89.3263 40.5,90.5C 32.1394,94.1782 23.8061,98.1782 15.5,102.5C 14.1667,101.833 14.1667,101.167 15.5,100.5C 18.7235,99.0591 21.7235,97.3924 24.5,95.5C 29.5156,92.3255 34.8489,89.6588 40.5,87.5C 44.6972,86.4043 48.6972,84.7376 52.5,82.5C 53.463,82.9698 53.463,83.6365 52.5,84.5 Z"/></g>
<g><path style="opacity:1" fill="#8f8d8b" d="M 83.5,82.5 C 83.3284,83.4916 83.6618,84.1583 84.5,84.5C 84.5,89.1667 84.5,93.8333 84.5,98.5C 83.8333,98.5 83.5,98.8333 83.5,99.5C 82.1667,93.8333 82.1667,88.1667 83.5,82.5 Z"/></g>
<g><path style="opacity:1" fill="#d3d2d2" d="M 107.5,102.5 C 106.494,102.062 106.494,101.396 107.5,100.5C 116.549,96.8773 125.549,93.3773 134.5,90C 125.749,94.709 116.749,98.8757 107.5,102.5 Z"/></g>
<g><path style="opacity:1" fill="#2f2c29" d="M 84.5,79.5 C 84.8333,79.5 85.1667,79.5 85.5,79.5C 85.3338,85.8421 85.5005,92.1754 86,98.5C 88.0693,99.2638 90.236,99.7638 92.5,100C 91.1268,100.875 89.6268,101.375 88,101.5C 85.7253,101.722 84.5587,100.722 84.5,98.5C 84.5,93.8333 84.5,89.1667 84.5,84.5C 84.5,82.8333 84.5,81.1667 84.5,79.5 Z"/></g>
<g><path style="opacity:1" fill="#aaa9a8" d="M 80.5,82.5 C 80.1984,85.0593 80.5318,87.3926 81.5,89.5C 81.3343,93.8461 81.501,98.1794 82,102.5C 83.7889,104.229 85.9556,104.896 88.5,104.5C 89.2625,105.268 90.2625,105.768 91.5,106C 90.5842,106.278 89.9175,106.778 89.5,107.5C 88.8333,108.167 88.1667,108.833 87.5,109.5C 82.228,110.451 78.728,108.451 77,103.5C 76.8227,99.6437 76.3227,95.977 75.5,92.5C 75.6741,90.139 76.0074,87.8056 76.5,85.5C 76.8333,85.5 77.1667,85.5 77.5,85.5C 77.2322,87.099 77.5655,88.4324 78.5,89.5C 78.0962,95.2896 78.5962,100.956 80,106.5C 82.4009,107.602 84.9009,107.769 87.5,107C 84.6807,106.932 82.514,105.766 81,103.5C 79.3118,96.3887 79.1451,89.3887 80.5,82.5 Z"/></g>
<g><path style="opacity:1" fill="#ececec" d="M 73.5,79.5 C 72.959,88.4906 72.6256,97.4906 72.5,106.5C 72.5,107.167 72.1667,107.5 71.5,107.5C 71.5,100.833 71.5,94.1667 71.5,87.5C 72.1667,84.8333 72.8333,82.1667 73.5,79.5 Z"/></g>
<g><path style="opacity:1" fill="#5e5b58" d="M 102.5,98.5 C 99.8333,99.5 97.1667,100.5 94.5,101.5C 96.7654,99.358 99.432,97.6913 102.5,96.5C 103.463,96.9698 103.463,97.6365 102.5,98.5 Z"/></g>
<g><path style="opacity:1" fill="#d4d4d3" d="M 102.5,98.5 C 99.8981,100.81 96.8981,102.643 93.5,104C 94.448,104.483 95.448,104.649 96.5,104.5C 94.5739,106.293 92.2406,107.293 89.5,107.5C 89.9175,106.778 90.5842,106.278 91.5,106C 90.2625,105.768 89.2625,105.268 88.5,104.5C 90.8185,104.008 92.8185,103.008 94.5,101.5C 97.1667,100.5 99.8333,99.5 102.5,98.5 Z"/></g>
<g><path style="opacity:1" fill="#83817f" d="M 107.5,100.5 C 106.494,101.396 106.494,102.062 107.5,102.5C 105.574,103.486 103.574,104.486 101.5,105.5C 101.44,104.957 101.107,104.624 100.5,104.5C 97.9409,105.608 95.6076,106.941 93.5,108.5C 91.5,108.833 89.5,109.167 87.5,109.5C 88.1667,108.833 88.8333,108.167 89.5,107.5C 92.2406,107.293 94.5739,106.293 96.5,104.5C 96.8417,103.662 97.5084,103.328 98.5,103.5C 101.594,102.787 104.594,101.787 107.5,100.5 Z"/></g>
<g><path style="opacity:1" fill="#d2d2d1" d="M 92.5,111.5 C 93.8333,110.5 95.1667,109.5 96.5,108.5C 107.828,104.667 118.994,100.334 130,95.5C 130.5,95.8333 131,96.1667 131.5,96.5C 118.709,102.096 105.709,107.096 92.5,111.5 Z"/></g>
<g><path style="opacity:1" fill="#3a3733" d="M 71.5,87.5 C 71.5,94.1667 71.5,100.833 71.5,107.5C 72.9424,113.281 76.609,115.948 82.5,115.5C 83.1667,115.5 83.5,115.833 83.5,116.5C 75.4125,118.471 70.7459,115.471 69.5,107.5C 69.6562,98.825 69.9895,90.1583 70.5,81.5C 69.0988,76.6964 66.0988,75.3631 61.5,77.5C 64.3955,75.3506 67.5621,75.0173 71,76.5C 71.4986,80.1516 71.6653,83.8183 71.5,87.5 Z"/></g>
<g><path style="opacity:1" fill="#312e2a" d="M 75.5,92.5 C 76.3227,95.977 76.8227,99.6437 77,103.5C 78.728,108.451 82.228,110.451 87.5,109.5C 86.2067,110.158 84.7067,110.492 83,110.5C 80.6477,110.695 78.6477,110.028 77,108.5C 75.661,103.264 75.161,97.9302 75.5,92.5 Z"/></g>
<g><path style="opacity:1" fill="#dad9d8" d="M 101.5,105.5 C 99.6316,106.263 97.9649,107.263 96.5,108.5C 95.5,108.5 94.5,108.5 93.5,108.5C 95.6076,106.941 97.9409,105.608 100.5,104.5C 101.107,104.624 101.44,104.957 101.5,105.5 Z"/></g>
<g><path style="opacity:1" fill="#bdbcbb" d="M 72.5,106.5 C 74.2518,112.994 78.5851,115.328 85.5,113.5C 85.246,114.332 84.246,114.999 82.5,115.5C 76.609,115.948 72.9424,113.281 71.5,107.5C 72.1667,107.5 72.5,107.167 72.5,106.5 Z"/></g>
<g><path style="opacity:1" fill="#cccbca" d="M 68.5,107.5 C 68.8333,107.5 69.1667,107.5 69.5,107.5C 70.7459,115.471 75.4125,118.471 83.5,116.5C 85.403,116.204 87.0697,115.537 88.5,114.5C 102.015,110.412 115.348,105.745 128.5,100.5C 129.604,101.631 129.271,102.465 127.5,103C 111.301,109.178 94.8009,114.344 78,118.5C 71.6085,117.76 68.4419,114.093 68.5,107.5 Z"/></g>
<g><path style="opacity:1" fill="#757370" d="M 93.5,108.5 C 94.5,108.5 95.5,108.5 96.5,108.5C 95.1667,109.5 93.8333,110.5 92.5,111.5C 90.9236,112.143 89.5903,113.143 88.5,114.5C 87.0697,115.537 85.403,116.204 83.5,116.5C 83.5,115.833 83.1667,115.5 82.5,115.5C 84.246,114.999 85.246,114.332 85.5,113.5C 85.5,113.167 85.5,112.833 85.5,112.5C 88.2542,111.359 90.9209,110.025 93.5,108.5 Z"/></g>
</svg>
