<?xml version="1.0" encoding="UTF-8"?>
<!DOCTYPE svg PUBLIC "-//W3C//DTD SVG 1.1//EN" "http://www.w3.org/Graphics/SVG/1.1/DTD/svg11.dtd">
<svg xmlns="http://www.w3.org/2000/svg" version="1.1" width="160px" height="160px" style="shape-rendering:geometricPrecision; text-rendering:geometricPrecision; image-rendering:optimizeQuality; fill-rule:evenodd; clip-rule:evenodd" xmlns:xlink="http://www.w3.org/1999/xlink">
<g><path style="opacity:1" fill="#9f0000" d="M -0.5,-0.5 C 52.8333,-0.5 106.167,-0.5 159.5,-0.5C 159.5,52.8333 159.5,106.167 159.5,159.5C 106.167,159.5 52.8333,159.5 -0.5,159.5C -0.5,106.167 -0.5,52.8333 -0.5,-0.5 Z"/></g>
<g><path style="opacity:1" fill="#896232" d="M 68.5,46.5 C 88.8476,45.4029 108.181,49.2362 126.5,58C 146.98,73.5281 146.313,88.1947 124.5,102C 94.486,115.998 64.486,115.998 34.5,102C 14.0005,90.0128 12.3339,76.0128 29.5,60C 41.5886,52.5826 54.5886,48.0826 68.5,46.5 Z"/></g>
<g><path style="opacity:1" fill="#fcf8f8" d="M 105.5,104.5 C 101.767,105.977 97.7665,106.811 93.5,107C 72.5936,109.68 52.5936,106.68 33.5,98C 15.7362,86.8242 15.0695,74.8242 31.5,62C 51.1199,52.5295 71.7866,49.1962 93.5,52C 110.383,52.8654 124.883,59.0321 137,70.5C 140.495,77.0435 140.161,83.3768 136,89.5C 127.648,98.0926 117.481,103.093 105.5,104.5 Z"/></g>
<g><path style="opacity:1" fill="#b03127" d="M 115.5,94.5 C 115.062,94.5654 114.728,94.3988 114.5,94C 116.037,92.8904 116.703,91.3904 116.5,89.5C 116.762,88.0222 116.429,86.6888 115.5,85.5C 113.962,87.2433 112.962,89.2433 112.5,91.5C 111.833,91.5 111.5,91.8333 111.5,92.5C 110.027,96.7789 108.027,100.779 105.5,104.5C 104.508,104.672 103.842,104.338 103.5,103.5C 107.099,97.5929 110.432,91.4262 113.5,85C 116.557,84.0191 118.557,85.0191 119.5,88C 118.774,90.6339 117.441,92.8005 115.5,94.5 Z"/></g>
<g><path style="opacity:1" fill="#ad2922" d="M 122.5,94.5 C 121.791,95.404 120.791,95.7373 119.5,95.5C 119.619,90.8098 120.952,86.4765 123.5,82.5C 117.833,81.1667 112.167,81.1667 106.5,82.5C 108.804,86.3277 109.137,90.3277 107.5,94.5C 106.833,94.1667 106.167,93.8333 105.5,93.5C 106.302,88.9418 106.635,84.4418 106.5,80C 112.825,79.5005 119.158,79.3338 125.5,79.5C 124.443,84.3985 122.777,89.0651 120.5,93.5C 120.957,94.2975 121.624,94.6309 122.5,94.5 Z"/></g>
<g><path style="opacity:1" fill="#b1332b" d="M 95.5,89.5 C 95.5,90.1667 95.1667,90.5 94.5,90.5C 91.7774,87.8215 92.1107,85.3215 95.5,83C 91.4065,82.2327 87.4065,82.566 83.5,84C 83.0426,84.414 82.7093,84.914 82.5,85.5C 83.8333,86.1667 85.1667,86.8333 86.5,87.5C 85.1622,90.1756 83.8289,92.8422 82.5,95.5C 82.1667,95 81.8333,94.5 81.5,94C 82.7912,91.9497 83.2912,89.783 83,87.5C 81.1514,90.0336 79.4847,92.7003 78,95.5C 77.5,95 77,94.5 76.5,94C 78.8592,91.5742 80.0258,88.7409 80,85.5C 78.6703,86.5822 77.1703,87.2488 75.5,87.5C 82.5289,81.4232 90.5289,79.9232 99.5,83C 95.6414,83.9087 94.3081,86.0754 95.5,89.5 Z"/></g>
<g><path style="opacity:1" fill="#fcf6f6" d="M 116.5,89.5 C 114.938,89.7329 113.605,90.3995 112.5,91.5C 112.962,89.2433 113.962,87.2433 115.5,85.5C 116.429,86.6888 116.762,88.0222 116.5,89.5 Z"/></g>
<g><path style="opacity:1" fill="#ae2b23" d="M 75.5,87.5 C 75.0825,88.2216 74.4158,88.7216 73.5,89C 74.624,89.2492 75.624,89.7492 76.5,90.5C 75.9851,92.2251 75.3184,93.8917 74.5,95.5C 74.0028,93.784 73.6694,92.1173 73.5,90.5C 72.3333,92.1667 71.1667,93.8333 70,95.5C 69.7898,92.7314 70.6231,90.2314 72.5,88C 72.1667,87.8333 71.8333,87.6667 71.5,87.5C 70.081,89.3359 68.9143,91.3359 68,93.5C 67.1627,95.0074 65.9961,95.5074 64.5,95C 66.2095,93.0843 67.5428,90.9176 68.5,88.5C 65.6434,87.0449 64.9768,85.0449 66.5,82.5C 70.3282,80.6393 71.9949,81.9726 71.5,86.5C 72.9587,86.4326 74.2921,86.7659 75.5,87.5 Z"/></g>
<g><path style="opacity:1" fill="#fcf6f6" d="M 66.5,82.5 C 68.3442,83.2039 68.8442,84.5372 68,86.5C 66.8118,85.4366 66.3118,84.1033 66.5,82.5 Z"/></g>
<g><path style="opacity:1" fill="#ab251c" d="M 64.5,78.5 C 66.5273,78.3379 68.5273,78.5045 70.5,79C 68.1116,79.3034 65.9449,80.1367 64,81.5C 61.6597,85.5209 60.3264,89.8543 60,94.5C 58.4431,91.7055 58.1098,88.7055 59,85.5C 60.371,82.7339 62.2043,80.4006 64.5,78.5 Z"/></g>
<g><path style="opacity:1" fill="#b63e38" d="M 49.5,77.5 C 48.9862,79.3664 48.3195,81.1997 47.5,83C 47.8361,84.0299 48.5028,84.5299 49.5,84.5C 48.791,85.404 47.791,85.7373 46.5,85.5C 46.0181,82.1694 47.0181,79.5027 49.5,77.5 Z"/></g>
<g><path style="opacity:1" fill="#ac271f" d="M 110.5,68.5 C 109.986,70.3664 109.32,72.1997 108.5,74C 109.243,76.8821 108.243,77.2155 105.5,75C 106.914,73.0065 107.914,70.8398 108.5,68.5C 109.396,67.4937 110.062,67.4937 110.5,68.5 Z"/></g>
<g><path style="opacity:1" fill="#da9897" d="M 97.5,70.5 C 97.8333,70.5 98.1667,70.5 98.5,70.5C 97.8505,72.4352 97.5172,74.4352 97.5,76.5C 96.8333,75.8333 96.1667,75.1667 95.5,74.5C 96.1667,73.1667 96.8333,71.8333 97.5,70.5 Z"/></g>
<g><path style="opacity:1" fill="#af2f25" d="M 61.5,74.5 C 60.3646,76.2132 58.698,76.8799 56.5,76.5C 56.6495,75.448 56.4828,74.448 56,73.5C 54.4725,76.4167 53.1392,79.4167 52,82.5C 51.2917,83.3805 50.4584,84.0472 49.5,84.5C 51.4538,77.7942 54.4538,71.6275 58.5,66C 60.3668,65.2888 61.8668,65.7888 63,67.5C 63.2393,69.9595 62.7393,72.2928 61.5,74.5 Z"/></g>
<g><path style="opacity:1" fill="#b43633" d="M 42.5,70.5 C 37.8894,74.0488 35.0561,78.7155 34,84.5C 33.5089,77.8157 36.3422,73.149 42.5,70.5 Z"/></g>
<g><path style="opacity:1" fill="#ab241d" d="M 104.5,67.5 C 105.376,67.3691 106.043,67.7025 106.5,68.5C 105.5,70.5 104.5,72.5 103.5,74.5C 104.609,76.2141 103.942,76.8808 101.5,76.5C 102.213,73.4061 103.213,70.4061 104.5,67.5 Z"/></g>
<g><path style="opacity:1" fill="#a71b15" d="M 97.5,76.5 C 97.5172,74.4352 97.8505,72.4352 98.5,70.5C 98.9166,68.3548 99.9166,67.6882 101.5,68.5C 100.786,70.8111 99.7865,72.9777 98.5,75C 99.7119,76.1068 99.3786,76.6068 97.5,76.5 Z"/></g>
<g><path style="opacity:1" fill="#b43831" d="M 93.5,63.5 C 95.7645,63.4406 96.0978,64.2739 94.5,66C 96.0997,67.1233 97.0997,68.6233 97.5,70.5C 96.8333,71.8333 96.1667,73.1667 95.5,74.5C 93.5497,76.7528 91.2163,77.0861 88.5,75.5C 90.1654,71.505 91.8321,67.505 93.5,63.5 Z"/></g>
<g><path style="opacity:1" fill="#f3dbda" d="M 94.5,68.5 C 95.8927,71.2515 95.226,73.5848 92.5,75.5C 92.1667,75 91.8333,74.5 91.5,74C 92.3393,72.016 93.3393,70.1826 94.5,68.5 Z"/></g>
<g><path style="opacity:1" fill="#dc9d9b" d="M 115.5,65.5 C 121.175,65.8597 121.842,67.8597 117.5,71.5C 114.61,70.1627 113.943,68.1627 115.5,65.5 Z"/></g>
<g><path style="opacity:1" fill="#dfa09d" d="M 110.5,68.5 C 110.062,67.4937 109.396,67.4937 108.5,68.5C 108.5,67.1667 108.5,65.8333 108.5,64.5C 113.175,63.1735 113.842,64.5069 110.5,68.5 Z"/></g>
<g><path style="opacity:1" fill="#f7e8e8" d="M 93.5,63.5 C 91.8321,67.505 90.1654,71.505 88.5,75.5C 88.5,76.1667 88.1667,76.5 87.5,76.5C 87.1961,75.8501 86.8627,75.1835 86.5,74.5C 88.4545,72.3316 89.1212,69.9983 88.5,67.5C 87.5,68.8333 86.5,70.1667 85.5,71.5C 84.8869,70.0202 84.5536,68.6869 84.5,67.5C 82.9539,70.6317 80.9539,73.2983 78.5,75.5C 77.5,75.5 76.5,75.5 75.5,75.5C 75.4355,71.301 76.7689,67.6343 79.5,64.5C 77.9826,64.5106 76.8159,65.1772 76,66.5C 74.5437,69.0756 73.377,71.7423 72.5,74.5C 72.1667,75.5 71.5,76.1667 70.5,76.5C 70.278,73.6097 70.9447,70.943 72.5,68.5C 66.4098,66.5734 63.4098,68.9067 63.5,75.5C 62.8333,75.1667 62.1667,74.8333 61.5,74.5C 62.7393,72.2928 63.2393,69.9595 63,67.5C 61.8668,65.7888 60.3668,65.2888 58.5,66C 54.4538,71.6275 51.4538,77.7942 49.5,84.5C 48.5028,84.5299 47.8361,84.0299 47.5,83C 48.3195,81.1997 48.9862,79.3664 49.5,77.5C 50.4778,77.189 51.1445,76.5223 51.5,75.5C 50.8333,75.1667 50.1667,74.8333 49.5,74.5C 51.4779,71.9567 51.8113,69.2901 50.5,66.5C 59.1083,63.7452 67.9417,62.0785 77,61.5C 82.5169,62.0885 88.0169,62.7552 93.5,63.5 Z"/></g>
<g><path style="opacity:1" fill="#ad2920" d="M 87.5,76.5 C 86.325,76.719 85.325,76.3857 84.5,75.5C 85.5896,74.3914 85.5896,73.3914 84.5,72.5C 82.8888,73.3202 82.2222,74.6536 82.5,76.5C 81.0413,76.5674 79.7079,76.2341 78.5,75.5C 80.9539,73.2983 82.9539,70.6317 84.5,67.5C 84.5536,68.6869 84.8869,70.0202 85.5,71.5C 86.5,70.1667 87.5,68.8333 88.5,67.5C 89.1212,69.9983 88.4545,72.3316 86.5,74.5C 86.8627,75.1835 87.1961,75.8501 87.5,76.5 Z"/></g>
<g><path style="opacity:1" fill="#a92018" d="M 79.5,64.5 C 76.7689,67.6343 75.4355,71.301 75.5,75.5C 76.5,75.5 77.5,75.5 78.5,75.5C 76.3619,76.8081 74.3619,76.4748 72.5,74.5C 73.377,71.7423 74.5437,69.0756 76,66.5C 76.8159,65.1772 77.9826,64.5106 79.5,64.5 Z"/></g>
<g><path style="opacity:1" fill="#a71a14" d="M 70.5,76.5 C 69.2438,76.5386 68.2438,76.0386 67.5,75C 68.6919,73.0876 69.6919,71.0876 70.5,69C 68.1122,68.1349 66.6122,68.9683 66,71.5C 65.2797,73.1124 65.4464,74.6124 66.5,76C 65.2506,76.7401 64.2506,76.5735 63.5,75.5C 63.4098,68.9067 66.4098,66.5734 72.5,68.5C 70.9447,70.943 70.278,73.6097 70.5,76.5 Z"/></g>
<g><path style="opacity:1" fill="#f5e1e1" d="M 59.5,66.5 C 61.7737,69.6364 61.2737,72.6364 58,75.5C 57.3828,74.5509 57.5494,73.7175 58.5,73C 57.6919,72.6924 57.0253,72.1924 56.5,71.5C 57.2599,69.6396 58.2599,67.973 59.5,66.5 Z"/></g>
<g><path style="opacity:1" fill="#b43933" d="M 79.5,64.5 C 80.209,63.596 81.209,63.2627 82.5,63.5C 82.7852,65.288 82.4519,66.9547 81.5,68.5C 80.4104,67.6086 80.4104,66.6086 81.5,65.5C 81.0431,64.7025 80.3764,64.3691 79.5,64.5 Z"/></g>
<g><path style="opacity:1" fill="#b43b31" d="M 93.5,63.5 C 88.0169,62.7552 82.5169,62.0885 77,61.5C 67.9417,62.0785 59.1083,63.7452 50.5,66.5C 64.4081,58.5066 78.7415,57.5066 93.5,63.5 Z"/></g>
<g><path style="opacity:1" fill="#ac271e" d="M 50.5,66.5 C 51.8113,69.2901 51.4779,71.9567 49.5,74.5C 50.1667,74.8333 50.8333,75.1667 51.5,75.5C 51.1445,76.5223 50.4778,77.189 49.5,77.5C 47.3449,75.0938 47.3449,72.4271 49.5,69.5C 49.1667,69.1667 48.8333,68.8333 48.5,68.5C 46.3489,72.8022 44.1822,77.1356 42,81.5C 40.8867,83.3293 39.3867,84.1626 37.5,84C 40.2134,80.0758 42.5468,75.9091 44.5,71.5C 44.0431,70.7025 43.3764,70.3691 42.5,70.5C 45.6663,68.846 47.333,66.1794 47.5,62.5C 43.774,62.8226 40.1073,62.4892 36.5,61.5C 41.1196,60.5067 45.7863,60.1734 50.5,60.5C 50.528,62.5824 49.8613,64.4157 48.5,66C 49.0944,66.4643 49.7611,66.631 50.5,66.5 Z"/></g>
<g><path style="opacity:1" fill="#b63e34" d="M 122.5,94.5 C 124.374,91.851 125.374,89.1843 125.5,86.5C 126.845,87.3467 127.845,88.5134 128.5,90C 126.911,92.0948 124.911,93.5948 122.5,94.5 Z"/></g>
<g><path style="opacity:1" fill="#af2e26" d="M 87.5,86.5 C 88.5862,86.62 89.2528,87.2867 89.5,88.5C 88.7733,90.953 87.7733,93.2864 86.5,95.5C 86.1667,95 85.8333,94.5 85.5,94C 86.8713,91.6813 87.5379,89.1813 87.5,86.5 Z"/></g>
<g><path style="opacity:1" fill="#db9a98" d="M 116.5,89.5 C 116.703,91.3904 116.037,92.8904 114.5,94C 114.728,94.3988 115.062,94.5654 115.5,94.5C 114.791,95.404 113.791,95.7373 112.5,95.5C 112.737,94.209 112.404,93.209 111.5,92.5C 111.5,91.8333 111.833,91.5 112.5,91.5C 113.605,90.3995 114.938,89.7329 116.5,89.5 Z"/></g>
<g><path style="opacity:1" fill="#bd4f46" d="M 105.5,93.5 C 106.167,93.8333 106.833,94.1667 107.5,94.5C 105.356,97.122 104.023,100.122 103.5,103.5C 102.317,101.154 102.65,98.8209 104.5,96.5C 101.702,94.2317 98.7021,93.8983 95.5,95.5C 95.6495,94.448 95.4828,93.448 95,92.5C 93.0782,95.0892 90.9115,95.5892 88.5,94C 89.5842,91.1751 90.7508,91.0085 92,93.5C 93.045,92.6266 93.8783,91.6266 94.5,90.5C 95.1667,90.5 95.5,90.1667 95.5,89.5C 97.2572,88.708 98.5905,87.3747 99.5,85.5C 99.3204,88.1026 99.3204,90.7692 99.5,93.5C 100.105,90.6936 101.438,88.3603 103.5,86.5C 103.833,86.6667 104.167,86.8333 104.5,87C 102.536,89.3122 102.203,91.8122 103.5,94.5C 104.183,94.1373 104.85,93.8039 105.5,93.5 Z"/></g>
</svg>
