<svg id="LOGO_6" xmlns="http://www.w3.org/2000/svg" viewBox="0 0 48 48"><defs><style>.cls-6,.cls-7,.cls-8{stroke-miterlimit:10;fill:none;stroke:#2d2da0}.cls-6{stroke-width:.07px}.cls-7{stroke-width:.04px}.cls-8{stroke-width:.02px}</style></defs><g id="KUBE"><path fill="#f0f1f2" d="M0 0h48v48H0z"/><path d="M9.2 34.3h-.32v1.53h-.43v-3.4h.43v1.5h.26l1-1.5h.53l-1.12 1.64 1.16 1.76h-.52zm2.9.04l.61-1.91h.5l-1 2.83a1.7 1.7 0 01-.19.38.6.6 0 01-.2.17.66.66 0 01-.3.06.58.58 0 01-.2 0v-.37h.18q.19 0 .27-.23l.11-.33-.88-2.51h.48zm3.39-1.54h-1.34v1h.69a1 1 0 01.72.27 1 1 0 01.26.73 1 1 0 01-.26.74 1 1 0 01-.73.27h-1.1v-3.4h1.77zm-1.34 1.39v1.28h.68a.49.49 0 00.41-.18.74.74 0 00.14-.48.68.68 0 00-.14-.46.51.51 0 00-.41-.17zm3.85.75h-1.2l-.26.89h-.44l1.1-3.4h.37l1.1 3.4h-.44zm-1-.37h.93L17.38 33zm4.35 1.26h-.43v-1.57h-1.37v1.57h-.43v-3.4h.43v1.46h1.37v-1.46h.43zm1.16-2.01h.69a1 1 0 01.72.27 1 1 0 01.26.73 1 1 0 01-.26.74 1 1 0 01-.73.27h-1.1v-3.4h.43zm0 .37v1.28h.68a.49.49 0 00.41-.18.74.74 0 00.14-.48.68.68 0 00-.14-.46.51.51 0 00-.41-.17zm2.62.56a1.07 1.07 0 00.21.6.6.6 0 00.45.16.57.57 0 00.51-.31 1.76 1.76 0 00.19-.89H25.4V34h1.1a1.68 1.68 0 00-.2-.88.61.61 0 00-.55-.32.52.52 0 00-.43.18 1.15 1.15 0 00-.2.6h-.42a1.39 1.39 0 01.33-.85 1 1 0 01.73-.29 1 1 0 01.85.43 1.93 1.93 0 01.32 1.13v.32a2.26 2.26 0 01-.14.82 1.24 1.24 0 01-.4.55 1 1 0 01-.6.2 1 1 0 01-.76-.29 1.35 1.35 0 01-.34-.84zm4.65 1.08h-.43v-1.57H28v1.57h-.43v-3.4H28v1.46h1.37v-1.46h.43zm2.37-1.57h-1.2v1.21h1.4v.37h-1.83v-3.4h1.81v.37h-1.38v1.1h1.2zm1.17.24v1.33h-.43v-3.4H34a1 1 0 01.75.28 1.21 1.21 0 010 1.51 1 1 0 01-.73.27zm0-.37H34a.55.55 0 00.44-.17.71.71 0 00.15-.49.74.74 0 00-.16-.49.53.53 0 00-.43-.18h-.66zm4.02-1.33H36v3h-.43v-3.4h1.77zm2.6 1.63a1.7 1.7 0 01-.3 1.07 1 1 0 01-.84.38 1 1 0 01-.83-.37 1.62 1.62 0 01-.32-1v-.64a1.7 1.7 0 01.3-1.07 1 1 0 01.84-.39 1 1 0 01.84.37 1.67 1.67 0 01.31 1.06zm-.43-.6a1.46 1.46 0 00-.18-.8.68.68 0 00-1.07 0 1.41 1.41 0 00-.18.79v.61a1.44 1.44 0 00.18.79.68.68 0 001.07 0 1.42 1.42 0 00.18-.77z" stroke="#383386" stroke-width=".22" stroke-miterlimit="10" fill="#383386"/><path d="M20.29 21.92H8.06v.48h12.47l-.24-.48zm-.34-.69l.13-.27H8.06v.48h11.99l-.1-.21zm1.08-2.19H8.06v.48h12.73l.24-.48zm-.26 3.84H8.06v.48h12.95l-.24-.48zM20.55 20H8.06v.48h12.26l.23-.48zm3.33-6.7V17h11.78a.55.55 0 010 1.11H23.88v.47h15.43a9.06 9.06 0 00-8.67-6.44h-14.1v1.43a.55.55 0 01-1.11 0v-1.45H8.06v6.44h13.21zm0 8.14h15.8v-.48h-15.8zm0-.96h15.78V20H23.88zm0 3.78h11.78a.55.55 0 010 1.11H23.88v3.78l-2.63-5.31H8.06v6.39h7.37v-1.41a.56.56 0 011.11 0v1.41h14.09a9.06 9.06 0 008.65-6.39h-15.4zm0-5.26v.48h15.66q0-.24-.1-.48zm0 3.4h15.73q0-.24.05-.48H23.88zm0 .96h15.54q.06-.24.11-.48H23.88z" fill="#383386"/><circle cx="28.32" cy="21.46" r="3.6" fill="#fecb2f"/><path d="M28.32 18a3.55 3.55 0 11-3.55 3.55A3.55 3.55 0 0128.32 18m-7.07 5.94a1.92 1.92 0 001.22.56 16.43 16.43 0 012.33 0 2.28 2.28 0 01.58.23c-.84.25-.53.72-1.57.92a2.48 2.48 0 001.94 0 4 4 0 011-.15 2.25 2.25 0 00-.89.7 2.25 2.25 0 01-1.77 1.17c.31.48 1.27.27 1.69.15a3 3 0 001.33-.75l.37-.38a2.18 2.18 0 01.32-.28 1.72 1.72 0 01.46-.2 1.56 1.56 0 01.39 0h0s-.09.14-.15.23a2 2 0 00-.28 1c0 .17-.06.46-.06.46.44-.41.73-1.18 1.28-1.46a.43.43 0 01.19 0c0 .55-.38 1-.38 1.56a1.23 1.23 0 001.05 1.28 3.87 3.87 0 010-1.14c.13-.52.41-1 .57-1.57a2.24 2.24 0 000-.87c.15 0 .53.69.51.78 0-.19.12-.53.14-.76a2.25 2.25 0 00-.1-.77 1.43 1.43 0 01.68.49 4.88 4.88 0 01.28.41c.16.26.3.64.57.81a.88.88 0 00.51 0 1.12 1.12 0 01-.32-.37 3.4 3.4 0 01-.14-1.27 3.29 3.29 0 00-.42-1.72.83.83 0 01.42.15c.07 0 .23.18.32.13-.16-.15-.11-.44-.19-.64L33 22.4a1.64 1.64 0 01.36.17 2.49 2.49 0 00.87.16 3.25 3.25 0 011.31.22l.24.18a1 1 0 000-.36 1.48 1.48 0 00-.57-.65 6.15 6.15 0 00-.9-.51 4.28 4.28 0 01-.55-.39 5.07 5.07 0 00-.83-.75 1 1 0 01.16-.09c.26-.11.56-.11.82-.23-.33-.49-.9-.42-1.27-.77a2.94 2.94 0 00.73 0c.41 0 .47-.18.67-.47a.82.82 0 01.2-.21 3.41 3.41 0 011.44-.1 3.68 3.68 0 00-1.13-.5c-1.36-.17-1.88.31-2.78-.14-.1 0 .44-.36.76-.37a2 2 0 00-.62-.18 1.25 1.25 0 00-.8.33.6.6 0 01.27-.61c.15-.1.46-.17.58-.25a1.07 1.07 0 00.28-.44 2 2 0 000-.46 1 1 0 01-.6.44s-1.16.22-1.43.32a2 2 0 00-.58.4.31.31 0 010-.18c0-.13.61-1.25.53-1.19s-.45.16-.68.24a9.15 9.15 0 00-1.06.36c-.45.2-.72.65-.76.59a.77.77 0 01-.16-.38 1.94 1.94 0 01.24-.7 1.14 1.14 0 00-.06-1.18 12.26 12.26 0 00-1.31 1.48 10.29 10.29 0 00-.5 1.14l-.34 1a1.13 1.13 0 01-.17-.18 1.29 1.29 0 010-.46 1.62 1.62 0 00-.41-1.61.57.57 0 00-.35-.1.74.74 0 01.12.42 2.62 2.62 0 01-.08.48l-.26 1a5.35 5.35 0 00-.16 1.33 1 1 0 01-.77-.75 6.6 6.6 0 010-.79 2.23 2.23 0 00-.55 1.85 5.16 5.16 0 00.67 1.59 3.21 3.21 0 01.24.69.79.79 0 00-.58-.31c-.38 0-.91.33-1.24.13l-.12-.06.08.16c.35.57.8.47 1.33.72a1.51 1.51 0 01.66.5 1.26 1.26 0 00-.68 0c-.24.09-.45.27-.71.36a2.1 2.1 0 01-1.55-.02l-.29-.16a1.35 1.35 0 00.08.18 5.64 5.64 0 00.45.62" stroke="#f0f1f2" stroke-width=".35" fill="#fecb2f" stroke-miterlimit="10"/><path class="cls-6" d="M27.65 21.34l.28 1.38-1.04 1.97-.16-.08.92-3.27.73-3.96m.2 3.85l-.65 1.49.93 2.3"/><path class="cls-6" d="M29.08 21.7v1.15l.67 2h.07l-.78-3.11-.7-4.32.2 3.86.37 3.72.21-2.16-.53-1.63"/><path class="cls-7" d="M29.33 18.24l.04.06-.77.43-.04-.26.77-.23zm0 0l-.81-.02m-1 .81l-.07-.05.7-.37-.04.24-.59.18zm.68-.69l-.75.64m2.68.2h-1.65l.04.38.2-.08 1.41-.3z"/><path class="cls-7" d="M30.13 19.18l.05.09-1.39.63-.07-.42m-.7-.13l-1.25.95.01.01 1.17-.61.07-.35z"/><path class="cls-8" d="M28.29 17.86l.12.15-.2.29.23.19-.35.43.39.26-.53.52-.08.42-1.04.26-.05-.07m1.45-1.99l.18-.1"/><path class="cls-8" d="M28.52 19.56l-.57.14.56.2-.71.6.72.2-.87.67.93-.24-.86-.2.81-.65-.65-.2.6-.54-.46-.24.44-.45-.3-.27.26-.36"/><path class="cls-8" d="M28.51 18.18l-.08.16.13.13-.41.14m.29-.08l.16.2m-.12.14l.18.26m-.17.05l.13-.3m-.16-.05l.11-.22m.03-.15l.23.15.08-.24.09.11.2-.09-.27-.03.2-.06.07.07m-1.35.56l-.09-.11-.08.16-.06-.07m.32-.18l.11.13-.27-.06m-.39 1.04v.15l.17.21.06-.3.23.18m.04-.16l-.24-.06"/><path class="cls-8" d="M27.53 19.92l-.12-.11.52-.1m-.38.47l-.48-.02.09.14m-.25-.05l.06.09.1-.17m1.72-.71l.46-.28v.19l.14-.05-.12-.14"/><path class="cls-8" d="M28.58 19.54l.54.19-.23-.29.36-.07-.16.39m.92-.42l-.06-.12-.22.24-.48-.07m.14.22l-.15-.24m.5.09l-.13-.17m-1.79 1.2l.69-.19m-.77.61l.81-.22m-.53-1.39l.46-.12m.1 1.95l.44.21-.47-.6.32-.27-.32-.17.27-.21-.31-.2.26-.1-.23-.24"/><path class="cls-8" d="M28.58 21.16l.38-.22-.4-.23m.44.22l-.42-.59v-.42l.32.51m-.39-.88l.29.44m.62 3.07l-.72-.5-1.48.31"/><path class="cls-8" d="M27.42 22.14l.38-.07-.6.87.3.56m-.5.18l.46-.07m-.52.25l.12.5m1.49-.1l.3.02h.13l-.2-.8-.23.75"/><path class="cls-8" d="M28.24 23.48h.54l.27.09-.35-1.01-.46.92zm.4-1.63l-.36.08.42.63m.72.53l-.01.63.2.2.04.51"/></g></svg>