<?xml version="1.0" encoding="UTF-8"?>
<!DOCTYPE svg PUBLIC "-//W3C//DTD SVG 1.1//EN" "http://www.w3.org/Graphics/SVG/1.1/DTD/svg11.dtd">
<svg xmlns="http://www.w3.org/2000/svg" version="1.1" width="160px" height="160px" style="shape-rendering:geometricPrecision; text-rendering:geometricPrecision; image-rendering:optimizeQuality; fill-rule:evenodd; clip-rule:evenodd" xmlns:xlink="http://www.w3.org/1999/xlink">
<g><path style="opacity:1" fill="#015f4b" d="M -0.5,-0.5 C 52.8333,-0.5 106.167,-0.5 159.5,-0.5C 159.5,52.8333 159.5,106.167 159.5,159.5C 106.167,159.5 52.8333,159.5 -0.5,159.5C -0.5,106.167 -0.5,52.8333 -0.5,-0.5 Z"/></g>
<g><path style="opacity:1" fill="#f0f5f4" d="M 80.5,22.5 C 81.9423,34.154 83.2757,45.8206 84.5,57.5C 81.5,57.5 78.5,57.5 75.5,57.5C 76.4989,46.838 77.4989,36.1713 78.5,25.5C 79.1667,24.5 79.8333,23.5 80.5,22.5 Z"/></g>
<g><path style="opacity:1" fill="#8fb9af" d="M 80.5,22.5 C 79.8333,23.5 79.1667,24.5 78.5,25.5C 78.523,23.0733 79.023,20.74 80,18.5C 80.49,19.7932 80.6567,21.1266 80.5,22.5 Z"/></g>
<g><path style="opacity:1" fill="#f4f8f7" d="M 36.5,56.5 C 44.2482,55.7485 47.9149,59.2485 47.5,67C 46.677,75.4755 42.8436,82.3088 36,87.5C 36.6487,83.5536 36.9821,79.5536 37,75.5C 34.4598,74.1235 32.4598,74.7902 31,77.5C 28.043,69.2101 29.8763,62.2101 36.5,56.5 Z"/></g>
<g><path style="opacity:1" fill="#f4f8f7" d="M 115.5,56.5 C 123.244,55.4064 127.744,58.7397 129,66.5C 129.913,70.3616 129.58,74.0283 128,77.5C 126.54,74.7902 124.54,74.1235 122,75.5C 122.018,79.5536 122.351,83.5536 123,87.5C 114.347,80.8699 110.681,72.2032 112,61.5C 112.997,59.6769 114.164,58.0103 115.5,56.5 Z"/></g>
<g><path style="opacity:1" fill="#fefefe" d="M 65.5,62.5 C 74.8333,62.5 84.1667,62.5 93.5,62.5C 93.5,66.1667 93.5,69.8333 93.5,73.5C 84.1667,73.5 74.8333,73.5 65.5,73.5C 65.5,69.8333 65.5,66.1667 65.5,62.5 Z"/></g>
<g><path style="opacity:1" fill="#f9fbfb" d="M 51.5,64.5 C 56.14,71.6371 54.9733,77.9704 48,83.5C 45.3448,88.6559 46.1782,92.9893 50.5,96.5C 51.4975,104.138 51.8308,111.804 51.5,119.5C 33.7219,119.553 27.8885,111.219 34,94.5C 38.6233,88.2079 43.6233,82.2079 49,76.5C 50.7827,72.7018 51.6161,68.7018 51.5,64.5 Z"/></g>
<g><path style="opacity:1" fill="#fafcfb" d="M 106.5,64.5 C 107.343,68.4687 108.509,72.4687 110,76.5C 115.377,82.2079 120.377,88.2079 125,94.5C 131.149,111.188 125.315,119.521 107.5,119.5C 107.169,111.804 107.503,104.138 108.5,96.5C 112.822,92.9893 113.655,88.6559 111,83.5C 104.396,78.2716 102.896,71.9383 106.5,64.5 Z"/></g>
<g><path style="opacity:1" fill="#98beb6" d="M 65.5,62.5 C 74.9856,61.5062 84.6522,61.1729 94.5,61.5C 94.5,65.8333 94.5,70.1667 94.5,74.5C 84.6522,74.8271 74.9856,74.4938 65.5,73.5C 74.8333,73.5 84.1667,73.5 93.5,73.5C 93.5,69.8333 93.5,66.1667 93.5,62.5C 84.1667,62.5 74.8333,62.5 65.5,62.5 Z"/></g>
<g><path style="opacity:1" fill="#fdfdfd" d="M 59.5,77.5 C 72.8333,77.5 86.1667,77.5 99.5,77.5C 99.5,83.1667 99.5,88.8333 99.5,94.5C 86.1667,94.5 72.8333,94.5 59.5,94.5C 59.5,88.8333 59.5,83.1667 59.5,77.5 Z"/></g>
<g><path style="opacity:1" fill="#609b8f" d="M 54.5,98.5 C 71.3251,97.5034 88.3251,97.1701 105.5,97.5C 105.5,105.167 105.5,112.833 105.5,120.5C 88.3251,120.83 71.3251,120.497 54.5,119.5C 71.1667,119.5 87.8333,119.5 104.5,119.5C 104.5,112.5 104.5,105.5 104.5,98.5C 87.8333,98.5 71.1667,98.5 54.5,98.5 Z"/></g>
<g><path style="opacity:1" fill="#fefefe" d="M 54.5,98.5 C 71.1667,98.5 87.8333,98.5 104.5,98.5C 104.5,105.5 104.5,112.5 104.5,119.5C 87.8333,119.5 71.1667,119.5 54.5,119.5C 54.5,112.5 54.5,105.5 54.5,98.5 Z"/></g>
</svg>
