<?xml version="1.0" encoding="UTF-8"?>
<!DOCTYPE svg PUBLIC "-//W3C//DTD SVG 1.1//EN" "http://www.w3.org/Graphics/SVG/1.1/DTD/svg11.dtd">
<svg xmlns="http://www.w3.org/2000/svg" version="1.1" width="160px" height="160px" style="shape-rendering:geometricPrecision; text-rendering:geometricPrecision; image-rendering:optimizeQuality; fill-rule:evenodd; clip-rule:evenodd" xmlns:xlink="http://www.w3.org/1999/xlink">
<g><path style="opacity:1" fill="#e31e24" d="M -0.5,-0.5 C 52.8333,-0.5 106.167,-0.5 159.5,-0.5C 159.5,52.8333 159.5,106.167 159.5,159.5C 106.167,159.5 52.8333,159.5 -0.5,159.5C -0.5,106.167 -0.5,52.8333 -0.5,-0.5 Z"/></g>
<g><path style="opacity:1" fill="#fef8f8" d="M 56.5,102.5 C 73.338,103.827 90.338,103.827 107.5,102.5C 107.376,101.893 107.043,101.56 106.5,101.5C 103.304,92.4176 99.8041,83.4176 96,74.5C 95.3333,71.8333 95.3333,69.1667 96,66.5C 99.6386,58.7073 104.139,51.5407 109.5,45C 114.84,44.0112 117.34,46.1778 117,51.5C 112.836,57.662 109.336,64.162 106.5,71C 111.984,84.7975 117.318,98.6308 122.5,112.5C 99.3393,113.498 76.006,113.831 52.5,113.5C 48.9326,112.932 46.5993,110.932 45.5,107.5C 44.5238,87.546 44.1905,67.546 44.5,47.5C 47.8774,43.5222 51.3774,43.5222 55,47.5C 55.1683,66.0046 55.6683,84.3379 56.5,102.5 Z"/></g>
<g><path style="opacity:1" fill="#fef7f7" d="M 64.5,44.5 C 67.3646,44.0548 69.8646,44.7215 72,46.5C 72.3333,59.8333 72.6667,73.1667 73,86.5C 75.0342,89.859 77.3676,90.1924 80,87.5C 80.3333,74.1667 80.6667,60.8333 81,47.5C 84.286,43.5149 87.6193,43.5149 91,47.5C 91.6667,60.8333 91.6667,74.1667 91,87.5C 87.4578,98.2436 80.2911,101.744 69.5,98C 66.598,95.7602 64.4313,92.9269 63,89.5C 62.3333,75.1667 62.3333,60.8333 63,46.5C 63.7172,45.9558 64.2172,45.2891 64.5,44.5 Z"/></g>
<g><path style="opacity:1" fill="#e8484c" d="M 44.5,47.5 C 44.1905,67.546 44.5238,87.546 45.5,107.5C 44.8826,107.389 44.3826,107.056 44,106.5C 43.1709,86.6624 43.3376,66.9957 44.5,47.5 Z"/></g>
<g><path style="opacity:1" fill="#ec6166" d="M 106.5,101.5 C 107.043,101.56 107.376,101.893 107.5,102.5C 90.338,103.827 73.338,103.827 56.5,102.5C 73.3417,102.83 90.0084,102.497 106.5,101.5 Z"/></g>
<g><path style="opacity:1" fill="#e95156" d="M 122.5,112.5 C 123.043,112.56 123.376,112.893 123.5,113.5C 99.6701,114.829 76.0034,114.829 52.5,113.5C 76.006,113.831 99.3393,113.498 122.5,112.5 Z"/></g>
</svg>
