<?xml version="1.0" encoding="UTF-8"?>
<!DOCTYPE svg PUBLIC "-//W3C//DTD SVG 1.1//EN" "http://www.w3.org/Graphics/SVG/1.1/DTD/svg11.dtd">
<svg xmlns="http://www.w3.org/2000/svg" version="1.1" width="160px" height="160px" style="shape-rendering:geometricPrecision; text-rendering:geometricPrecision; image-rendering:optimizeQuality; fill-rule:evenodd; clip-rule:evenodd" xmlns:xlink="http://www.w3.org/1999/xlink">
<g><path style="opacity:1" fill="#d9b138" d="M -0.5,-0.5 C 52.8333,-0.5 106.167,-0.5 159.5,-0.5C 159.5,52.8333 159.5,106.167 159.5,159.5C 106.167,159.5 52.8333,159.5 -0.5,159.5C -0.5,106.167 -0.5,52.8333 -0.5,-0.5 Z"/></g>
<g><path style="opacity:1" fill="#fdfdfa" d="M 37.5,34.5 C 65.502,34.3334 93.502,34.5 121.5,35C 122.416,35.3742 123.25,35.8742 124,36.5C 124.667,65.1667 124.667,93.8333 124,122.5C 123.5,123 123,123.5 122.5,124C 93.8333,124.667 65.1667,124.667 36.5,124C 36,123.5 35.5,123 35,122.5C 34.3333,93.8333 34.3333,65.1667 35,36.5C 35.9947,35.9341 36.828,35.2674 37.5,34.5 Z"/></g>
<g><path style="opacity:1" fill="#d8b03a" d="M 76.5,46.5 C 78.9892,46.2978 81.3225,46.7978 83.5,48C 86.5568,50.7226 89.8901,53.056 93.5,55C 96.1924,56.8799 97.3591,59.3799 97,62.5C 94.1667,65.3333 91.3333,68.1667 88.5,71C 94.1667,71.3333 99.8333,71.6667 105.5,72C 106,72.5 106.5,73 107,73.5C 108.333,80.1667 109.667,86.8333 111,93.5C 111.784,96.7603 111.617,99.9269 110.5,103C 104.386,106.057 98.0525,108.557 91.5,110.5C 89.8927,110.363 88.5594,109.696 87.5,108.5C 86.4772,104.887 85.6438,101.221 85,97.5C 82.3333,101.5 79.6667,105.5 77,109.5C 76.196,110.804 75.0293,111.471 73.5,111.5C 64.2721,109.038 55.4387,105.704 47,101.5C 46.1324,93.5746 47.1324,85.9079 50,78.5C 54.3097,77.5287 58.4763,78.1953 62.5,80.5C 62.8333,80.1667 63.1667,79.8333 63.5,79.5C 60.1857,74.8841 58.0191,69.8841 57,64.5C 63.6964,58.6339 70.1964,52.6339 76.5,46.5 Z"/></g>
<g><path style="opacity:1" fill="#fcfaf2" d="M 80.5,77.5 C 81.4283,80.5888 82.4283,83.7555 83.5,87C 80.2673,86.8931 77.2673,85.8931 74.5,84C 76.7059,81.9633 78.7059,79.7966 80.5,77.5 Z"/></g>
</svg>
