<?xml version="1.0" encoding="UTF-8"?>
<!DOCTYPE svg PUBLIC "-//W3C//DTD SVG 1.1//EN" "http://www.w3.org/Graphics/SVG/1.1/DTD/svg11.dtd">
<svg xmlns="http://www.w3.org/2000/svg" version="1.1" width="160px" height="160px" style="shape-rendering:geometricPrecision; text-rendering:geometricPrecision; image-rendering:optimizeQuality; fill-rule:evenodd; clip-rule:evenodd" xmlns:xlink="http://www.w3.org/1999/xlink">
<g><path style="opacity:1" fill="#292c67" d="M -0.5,-0.5 C 52.8333,-0.5 106.167,-0.5 159.5,-0.5C 159.5,52.8333 159.5,106.167 159.5,159.5C 106.167,159.5 52.8333,159.5 -0.5,159.5C -0.5,106.167 -0.5,52.8333 -0.5,-0.5 Z"/></g>
<g><path style="opacity:1" fill="#7f80a4" d="M 75.5,26.5 C 74.8333,26.8333 74.1667,27.1667 73.5,27.5C 72.314,25.8058 72.4807,24.1392 74,22.5C 74.4101,23.9007 74.9101,25.234 75.5,26.5 Z"/></g>
<g><path style="opacity:1" fill="#555786" d="M 73.5,31.5 C 71.9379,35.3918 69.6046,38.7251 66.5,41.5C 68.0621,37.6082 70.3954,34.2749 73.5,31.5 Z"/></g>
<g><path style="opacity:1" fill="#d1d1de" d="M 54.5,39.5 C 52.0362,39.9377 51.8696,38.9377 54,36.5C 54.4828,37.448 54.6495,38.448 54.5,39.5 Z"/></g>
<g><path style="opacity:1" fill="#e2e3eb" d="M 75.5,26.5 C 74.8333,28.1667 74.1667,29.8333 73.5,31.5C 70.3954,34.2749 68.0621,37.6082 66.5,41.5C 64.5491,42.7158 63.0491,44.3825 62,46.5C 61.6012,46.2716 61.4346,45.9382 61.5,45.5C 65.1077,39.228 69.1077,33.228 73.5,27.5C 74.1667,27.1667 74.8333,26.8333 75.5,26.5 Z"/></g>
<g><path style="opacity:1" fill="#5c5e8b" d="M 83.5,37.5 C 84.6226,36.2426 85.2893,36.5759 85.5,38.5C 84.5667,41.3702 82.9,43.7036 80.5,45.5C 81.5566,43.0587 82.89,40.7254 84.5,38.5C 84.3764,37.8933 84.0431,37.56 83.5,37.5 Z"/></g>
<g><path style="opacity:1" fill="#dbdbe5" d="M 54.5,39.5 C 55.3764,39.3691 56.0431,39.7025 56.5,40.5C 54.3107,42.8867 52.6441,45.5534 51.5,48.5C 50.9033,48.2648 50.5699,47.7648 50.5,47C 51.9784,44.5413 53.3118,42.0413 54.5,39.5 Z"/></g>
<g><path style="opacity:1" fill="#4f5182" d="M 70.5,40.5 C 70.573,42.0269 69.9063,43.0269 68.5,43.5C 68.427,41.9731 69.0937,40.9731 70.5,40.5 Z"/></g>
<g><path style="opacity:1" fill="#dcdde6" d="M 78.5,43.5 C 77.0937,43.9731 76.427,44.9731 76.5,46.5C 74.8921,48.0846 73.2254,49.2513 71.5,50C 72.7577,48.2591 73.7577,46.4258 74.5,44.5C 76.0987,42.3962 77.932,40.3962 80,38.5C 79.8657,40.1893 79.3657,41.856 78.5,43.5 Z"/></g>
<g><path style="opacity:1" fill="#d6d6e2" d="M 103.5,41.5 C 104.712,40.7701 105.712,39.7701 106.5,38.5C 106.833,38.8333 107.167,39.1667 107.5,39.5C 106.376,40.914 105.376,42.414 104.5,44C 103.833,44.6667 103.167,44.6667 102.5,44C 103.252,43.3292 103.586,42.4959 103.5,41.5 Z"/></g>
<g><path style="opacity:1" fill="#dddde7" d="M 103.5,41.5 C 101.1,43.2964 99.4333,45.6298 98.5,48.5C 97.0937,48.9731 96.427,49.9731 96.5,51.5C 95.399,52.7997 94.0657,53.2997 92.5,53C 93.8228,52.1841 94.4894,51.0174 94.5,49.5C 97.4926,46.4988 100.159,43.1654 102.5,39.5C 103.298,39.9569 103.631,40.6236 103.5,41.5 Z"/></g>
<g><path style="opacity:1" fill="#62638f" d="M 66.5,41.5 C 65.3307,44.5113 63.664,47.178 61.5,49.5C 60.3143,48.0387 60.3143,46.7054 61.5,45.5C 61.4346,45.9382 61.6012,46.2716 62,46.5C 63.0491,44.3825 64.5491,42.7158 66.5,41.5 Z"/></g>
<g><path style="opacity:1" fill="#dedfe8" d="M 86.5,46.5 C 84.8546,47.4787 83.5213,48.812 82.5,50.5C 81.7025,50.0431 81.3691,49.3764 81.5,48.5C 85.6293,44.2657 89.2959,39.5991 92.5,34.5C 92.8333,34.8333 93.1667,35.1667 93.5,35.5C 90.7189,38.9343 88.3856,42.6009 86.5,46.5 Z"/></g>
<g><path style="opacity:1" fill="#505282" d="M 78.5,43.5 C 78.573,45.0269 77.9063,46.0269 76.5,46.5C 76.427,44.9731 77.0937,43.9731 78.5,43.5 Z"/></g>
<g><path style="opacity:1" fill="#e1e2ea" d="M 72.5,42.5 C 73.8333,42.5 74.5,43.1667 74.5,44.5C 72.159,46.6563 70.159,49.1563 68.5,52C 67.8333,52.6667 67.1667,52.6667 66.5,52C 69.1461,49.1984 71.1461,46.0317 72.5,42.5 Z"/></g>
<g><path style="opacity:1" fill="#e3e3eb" d="M 81.5,48.5 C 80.5768,49.3029 79.5768,49.4696 78.5,49C 79.8228,48.1841 80.4894,47.0174 80.5,45.5C 82.9,43.7036 84.5667,41.3702 85.5,38.5C 86.4584,38.0472 87.2917,37.3805 88,36.5C 88.1667,36.8333 88.3333,37.1667 88.5,37.5C 85.8955,41.0539 83.5622,44.7205 81.5,48.5 Z"/></g>
<g><path style="opacity:1" fill="#dedee8" d="M 83.5,37.5 C 84.0431,37.56 84.3764,37.8933 84.5,38.5C 82.89,40.7254 81.5566,43.0587 80.5,45.5C 78.6121,46.9397 76.9454,48.6064 75.5,50.5C 75.1667,50.3333 74.8333,50.1667 74.5,50C 75.8228,49.1841 76.4894,48.0174 76.5,46.5C 77.9063,46.0269 78.573,45.0269 78.5,43.5C 80.6326,41.9095 82.2993,39.9095 83.5,37.5 Z"/></g>
<g><path style="opacity:1" fill="#dbdce6" d="M 88.5,48.5 C 87.399,49.7997 86.0657,50.2997 84.5,50C 85.8228,49.1841 86.4894,48.0174 86.5,46.5C 89.523,43.8216 90.1897,44.4882 88.5,48.5 Z"/></g>
<g><path style="opacity:1" fill="#d9dae4" d="M 53.5,50.5 C 51.5491,51.7158 50.0491,53.3825 49,55.5C 48.3333,54.5 48.3333,53.5 49,52.5C 50.4813,51.5291 51.3146,50.1958 51.5,48.5C 53.5497,46.7632 55.383,44.7632 57,42.5C 56.1595,45.1933 54.9929,47.8599 53.5,50.5 Z"/></g>
<g><path style="opacity:1" fill="#e2e2ea" d="M 94.5,49.5 C 93.2058,50.2899 92.0391,51.2899 91,52.5C 90.5357,51.9056 90.369,51.2389 90.5,50.5C 91.9063,50.0269 92.573,49.0269 92.5,47.5C 94.7188,45.4245 96.7188,43.0912 98.5,40.5C 98.8333,40.6667 99.1667,40.8333 99.5,41C 97.432,43.6418 95.7653,46.4752 94.5,49.5 Z"/></g>
<g><path style="opacity:1" fill="#545685" d="M 68.5,43.5 C 67.5667,46.3702 65.9,48.7036 63.5,50.5C 64.4333,47.6298 66.1,45.2964 68.5,43.5 Z"/></g>
<g><path style="opacity:1" fill="#d9d9e4" d="M 92.5,47.5 C 91.0937,47.9731 90.427,48.9731 90.5,50.5C 87.5426,52.0251 86.8759,51.3584 88.5,48.5C 90.7188,46.4245 92.7188,44.0912 94.5,41.5C 94.8333,41.6667 95.1667,41.8333 95.5,42C 94.2423,43.7409 93.2423,45.5742 92.5,47.5 Z"/></g>
<g><path style="opacity:1" fill="#505283" d="M 92.5,47.5 C 92.573,49.0269 91.9063,50.0269 90.5,50.5C 90.427,48.9731 91.0937,47.9731 92.5,47.5 Z"/></g>
<g><path style="opacity:1" fill="#4b4d7f" d="M 98.5,48.5 C 98.573,50.0269 97.9063,51.0269 96.5,51.5C 96.427,49.9731 97.0937,48.9731 98.5,48.5 Z"/></g>
<g><path style="opacity:1" fill="#8182a6" d="M 42.5,54.5 C 41.5,55.1667 40.5,55.8333 39.5,56.5C 39.0275,54.0295 39.8608,51.6962 42,49.5C 41.4742,51.2275 41.6409,52.8941 42.5,54.5 Z"/></g>
<g><path style="opacity:1" fill="#33356e" d="M 72.5,42.5 C 71.1461,46.0317 69.1461,49.1984 66.5,52C 67.1667,52.6667 67.8333,52.6667 68.5,52C 70.159,49.1563 72.159,46.6563 74.5,44.5C 73.7577,46.4258 72.7577,48.2591 71.5,50C 73.2254,49.2513 74.8921,48.0846 76.5,46.5C 76.4894,48.0174 75.8228,49.1841 74.5,50C 74.8333,50.1667 75.1667,50.3333 75.5,50.5C 76.9454,48.6064 78.6121,46.9397 80.5,45.5C 80.4894,47.0174 79.8228,48.1841 78.5,49C 79.5768,49.4696 80.5768,49.3029 81.5,48.5C 81.3691,49.3764 81.7025,50.0431 82.5,50.5C 83.5213,48.812 84.8546,47.4787 86.5,46.5C 86.4894,48.0174 85.8228,49.1841 84.5,50C 86.0657,50.2997 87.399,49.7997 88.5,48.5C 86.8759,51.3584 87.5426,52.0251 90.5,50.5C 90.369,51.2389 90.5357,51.9056 91,52.5C 92.0391,51.2899 93.2058,50.2899 94.5,49.5C 94.4894,51.0174 93.8228,52.1841 92.5,53C 94.0657,53.2997 95.399,52.7997 96.5,51.5C 95.9717,52.8474 95.805,54.1807 96,55.5C 97.0491,53.3825 98.5491,51.7158 100.5,50.5C 99.0707,52.6778 98.2373,55.0111 98,57.5C 99.0491,55.3825 100.549,53.7158 102.5,52.5C 101.071,54.6778 100.237,57.0111 100,59.5C 101.049,57.3825 102.549,55.7158 104.5,54.5C 103.071,56.6778 102.237,59.0111 102,61.5C 103.946,58.5798 106.113,55.9131 108.5,53.5C 106.654,56.7932 105.154,60.1266 104,63.5C 105.946,60.5798 108.113,57.9131 110.5,55.5C 108.952,59.0607 106.952,62.394 104.5,65.5C 104.667,65.8333 104.833,66.1667 105,66.5C 105.708,65.6195 106.542,64.9528 107.5,64.5C 107.297,66.0443 106.63,67.3777 105.5,68.5C 105.957,69.2975 106.624,69.6309 107.5,69.5C 106.588,70.7382 106.421,72.0715 107,73.5C 108.049,71.3825 109.549,69.7158 111.5,68.5C 110.007,71.1401 108.84,73.8067 108,76.5C 109.617,74.2368 111.45,72.2368 113.5,70.5C 111.952,74.0607 109.952,77.394 107.5,80.5C 107.667,80.8333 107.833,81.1667 108,81.5C 108.708,80.6195 109.542,79.9528 110.5,79.5C 109.007,82.1401 107.84,84.8067 107,87.5C 108.617,85.2368 110.45,83.2368 112.5,81.5C 106.548,90.7822 100.215,99.7822 93.5,108.5C 94.2423,106.574 95.2423,104.741 96.5,103C 95.8333,102.333 95.1667,102.333 94.5,103C 93.8366,104.518 92.8366,105.685 91.5,106.5C 91.44,105.957 91.1067,105.624 90.5,105.5C 89.4822,106.193 88.4822,106.859 87.5,107.5C 86.8333,106.167 86.1667,106.167 85.5,107.5C 84.8333,107.833 84.1667,108.167 83.5,108.5C 83.44,107.957 83.1067,107.624 82.5,107.5C 81.4822,108.193 80.4822,108.859 79.5,109.5C 79.6309,108.624 79.2975,107.957 78.5,107.5C 76.7188,110.091 74.7188,112.425 72.5,114.5C 73.4348,112.139 74.7682,109.972 76.5,108C 76.1667,107.833 75.8333,107.667 75.5,107.5C 73.159,110.198 70.8257,112.865 68.5,115.5C 69.9929,112.86 71.1595,110.193 72,107.5C 70.383,109.763 68.5497,111.763 66.5,113.5C 67.4348,111.139 68.7682,108.972 70.5,107C 69.8333,106.333 69.1667,106.333 68.5,107C 67.8366,108.518 66.8366,109.685 65.5,110.5C 64.7095,109.599 63.7095,108.932 62.5,108.5C 63.1667,107.167 64.1667,106.167 65.5,105.5C 65.5,104.167 64.8333,103.5 63.5,103.5C 63.1034,102.475 62.4368,102.308 61.5,103C 59.636,105.688 57.636,108.188 55.5,110.5C 55.1667,110.5 54.8333,110.5 54.5,110.5C 56.9249,107.411 58.9249,104.078 60.5,100.5C 60.1667,99.5 59.5,98.8333 58.5,98.5C 58.5,97.8333 58.1667,97.5 57.5,97.5C 57.44,96.9569 57.1067,96.6236 56.5,96.5C 55.4822,97.1925 54.4822,97.8592 53.5,98.5C 53.7031,96.9557 54.3698,95.6223 55.5,94.5C 55.0431,93.7025 54.3764,93.3691 53.5,93.5C 53.6495,92.448 53.4828,91.448 53,90.5C 51.629,93.2661 49.7957,95.5994 47.5,97.5C 49.346,94.2068 50.846,90.8734 52,87.5C 50.0539,90.4202 47.8872,93.0869 45.5,95.5C 47.6724,91.8776 49.5057,88.2109 51,84.5C 48.6356,87.6902 46.1356,90.6902 43.5,93.5C 43.7329,91.9382 44.3995,90.6049 45.5,89.5C 45.5,89.1667 45.5,88.8333 45.5,88.5C 47.0987,86.3962 48.932,84.3962 51,82.5C 51.6667,81.5 51.6667,80.5 51,79.5C 50.2917,80.3805 49.4584,81.0472 48.5,81.5C 48.6854,79.8042 49.5187,78.4709 51,77.5C 51.6667,76.5 51.6667,75.5 51,74.5C 49.0539,77.4202 46.8872,80.0869 44.5,82.5C 44.6716,81.5084 44.3382,80.8417 43.5,80.5C 43.5,79.8333 43.8333,79.5 44.5,79.5C 48.1574,76.1512 51.1574,72.1512 53.5,67.5C 53.0302,66.537 52.3635,66.537 51.5,67.5C 54.7651,61.2987 58.7651,55.6321 63.5,50.5C 62.5652,52.8614 61.2318,55.0281 59.5,57C 60.1667,57.6667 60.8333,57.6667 61.5,57C 65.0301,51.9822 68.6968,47.1489 72.5,42.5 Z"/></g>
<g><path style="opacity:1" fill="#dadae4" d="M 104.5,49.5 C 103.094,49.9731 102.427,50.9731 102.5,52.5C 100.549,53.7158 99.0491,55.3825 98,57.5C 98.2373,55.0111 99.0707,52.6778 100.5,50.5C 101.712,49.7701 102.712,48.7701 103.5,47.5C 104.298,47.9569 104.631,48.6236 104.5,49.5 Z"/></g>
<g><path style="opacity:1" fill="#494c7e" d="M 104.5,49.5 C 104.573,51.0269 103.906,52.0269 102.5,52.5C 102.427,50.9731 103.094,49.9731 104.5,49.5 Z"/></g>
<g><path style="opacity:1" fill="#e2e2eb" d="M 70.5,40.5 C 69.0937,40.9731 68.427,41.9731 68.5,43.5C 66.1,45.2964 64.4333,47.6298 63.5,50.5C 58.7651,55.6321 54.7651,61.2987 51.5,67.5C 50.0937,67.9731 49.427,68.9731 49.5,70.5C 47.4503,72.2368 45.617,74.2368 44,76.5C 44.1343,74.8107 44.6343,73.144 45.5,71.5C 48.6046,68.7251 50.9379,65.3918 52.5,61.5C 54.9,59.7036 56.5667,57.3702 57.5,54.5C 59.0627,53.0552 60.396,51.3885 61.5,49.5C 63.664,47.178 65.3307,44.5113 66.5,41.5C 69.6046,38.7251 71.9379,35.3918 73.5,31.5C 74.4584,31.0472 75.2917,30.3805 76,29.5C 76.1667,29.8333 76.3333,30.1667 76.5,30.5C 74.0478,33.606 72.0478,36.9393 70.5,40.5 Z"/></g>
<g><path style="opacity:1" fill="#dadae5" d="M 104.5,54.5 C 102.549,55.7158 101.049,57.3825 100,59.5C 100.237,57.0111 101.071,54.6778 102.5,52.5C 103.906,52.0269 104.573,51.0269 104.5,49.5C 105.458,49.0472 106.292,48.3805 107,47.5C 107.167,47.8333 107.333,48.1667 107.5,48.5C 105.962,50.2433 104.962,52.2433 104.5,54.5 Z"/></g>
<g><path style="opacity:1" fill="#e0e0e9" d="M 50.5,59.5 C 49.8333,59.8333 49.1667,60.1667 48.5,60.5C 50.1201,57.1933 51.7867,53.86 53.5,50.5C 54.4584,50.0472 55.2917,49.3805 56,48.5C 56.1667,48.8333 56.3333,49.1667 56.5,49.5C 54.0478,52.606 52.0478,55.9393 50.5,59.5 Z"/></g>
<g><path style="opacity:1" fill="#d4d4e1" d="M 72.5,42.5 C 68.6968,47.1489 65.0301,51.9822 61.5,57C 60.8333,57.6667 60.1667,57.6667 59.5,57C 61.2318,55.0281 62.5652,52.8614 63.5,50.5C 65.9,48.7036 67.5667,46.3702 68.5,43.5C 69.9063,43.0269 70.573,42.0269 70.5,40.5C 73.523,37.8216 74.1897,38.4882 72.5,42.5 Z"/></g>
<g><path style="opacity:1" fill="#f2f2f6" d="M 86.5,78.5 C 87.968,79.7791 88.6347,81.4458 88.5,83.5C 87.1667,83.5 85.8333,83.5 84.5,83.5C 73.7168,80.3058 68.5501,72.9725 69,61.5C 58.4129,70.0587 56.7462,80.0587 64,91.5C 70.9023,98.5614 79.069,100.395 88.5,97C 97.6008,91.2926 101.101,83.126 99,72.5C 95.8041,63.9807 89.6374,59.4807 80.5,59C 79.5939,57.3005 79.2606,55.4672 79.5,53.5C 97.2003,55.6992 105.7,65.6992 105,83.5C 100.245,98.4566 90.078,105.29 74.5,104C 55.9701,96.7421 50.4701,83.9088 58,65.5C 61.9467,59.4473 67.4467,55.7806 74.5,54.5C 73.872,60.7624 74.7054,66.7624 77,72.5C 79.2734,75.9446 82.4401,77.9446 86.5,78.5 Z"/></g>
<g><path style="opacity:1" fill="#dedee7" d="M 126.5,52.5 C 127.471,53.9621 127.138,55.2954 125.5,56.5C 125.062,56.5654 124.728,56.3988 124.5,56C 125.305,54.8873 125.972,53.7206 126.5,52.5 Z"/></g>
<g><path style="opacity:1" fill="#dedfe8" d="M 100.5,50.5 C 98.5491,51.7158 97.0491,53.3825 96,55.5C 95.805,54.1807 95.9717,52.8474 96.5,51.5C 97.9063,51.0269 98.573,50.0269 98.5,48.5C 100.203,47.3398 100.869,48.0065 100.5,50.5 Z"/></g>
<g><path style="opacity:1" fill="#e2e3eb" d="M 108.5,53.5 C 106.113,55.9131 103.946,58.5798 102,61.5C 102.237,59.0111 103.071,56.6778 104.5,54.5C 105.712,53.7701 106.712,52.7701 107.5,51.5C 108.298,51.9569 108.631,52.6236 108.5,53.5 Z"/></g>
<g><path style="opacity:1" fill="#dcdce6" d="M 124.5,52.5 C 123.345,55.4749 121.678,58.1416 119.5,60.5C 119.103,61.525 118.437,61.6917 117.5,61C 118.252,60.3292 118.586,59.4959 118.5,58.5C 119.906,58.0269 120.573,57.0269 120.5,55.5C 121.637,54.2112 122.97,53.2112 124.5,52.5 Z"/></g>
<g><path style="opacity:1" fill="#5c5e8b" d="M 124.5,52.5 C 125.167,52.5 125.833,52.5 126.5,52.5C 125.972,53.7206 125.305,54.8873 124.5,56C 124.728,56.3988 125.062,56.5654 125.5,56.5C 124.017,58.0938 122.517,59.7605 121,61.5C 120.617,60.944 120.117,60.6107 119.5,60.5C 121.678,58.1416 123.345,55.4749 124.5,52.5 Z"/></g>
<g><path style="opacity:1" fill="#c5c6d6" d="M 129.5,53.5 C 130.688,55.4959 130.021,56.3293 127.5,56C 128.381,55.2917 129.047,54.4584 129.5,53.5 Z"/></g>
<g><path style="opacity:1" fill="#dadbe5" d="M 120.5,55.5 C 119.094,55.9731 118.427,56.9731 118.5,58.5C 117.167,59.1667 116.167,60.1667 115.5,61.5C 114.957,61.44 114.624,61.1067 114.5,60.5C 115.63,59.3777 116.297,58.0443 116.5,56.5C 118.145,55.5213 119.479,54.188 120.5,52.5C 121.087,53.2334 121.087,54.2334 120.5,55.5 Z"/></g>
<g><path style="opacity:1" fill="#4e5182" d="M 120.5,55.5 C 120.573,57.0269 119.906,58.0269 118.5,58.5C 118.427,56.9731 119.094,55.9731 120.5,55.5 Z"/></g>
<g><path style="opacity:1" fill="#d8d9e3" d="M 42.5,54.5 C 41.8333,56.1667 41.1667,57.8333 40.5,59.5C 36.8987,61.4612 36.5654,60.4612 39.5,56.5C 40.5,55.8333 41.5,55.1667 42.5,54.5 Z"/></g>
<g><path style="opacity:1" fill="#d8d9e4" d="M 116.5,56.5 C 114.1,58.2964 112.433,60.6298 111.5,63.5C 110.094,63.9731 109.427,64.9731 109.5,66.5C 108.094,66.9731 107.427,67.9731 107.5,69.5C 106.624,69.6309 105.957,69.2975 105.5,68.5C 106.63,67.3777 107.297,66.0443 107.5,64.5C 109.9,62.7036 111.567,60.3702 112.5,57.5C 114.388,56.0603 116.055,54.3936 117.5,52.5C 117.833,52.6667 118.167,52.8333 118.5,53C 117.177,53.8159 116.511,54.9826 116.5,56.5 Z"/></g>
<g><path style="opacity:1" fill="#595b89" d="M 57.5,54.5 C 56.5667,57.3702 54.9,59.7036 52.5,61.5C 53.4333,58.6298 55.1,56.2964 57.5,54.5 Z"/></g>
<g><path style="opacity:1" fill="#e4e5ec" d="M 110.5,55.5 C 108.113,57.9131 105.946,60.5798 104,63.5C 105.154,60.1266 106.654,56.7932 108.5,53.5C 111.523,50.8216 112.19,51.4882 110.5,55.5 Z"/></g>
<g><path style="opacity:1" fill="#505282" d="M 50.5,59.5 C 50.573,61.0269 49.9063,62.0269 48.5,62.5C 48.5,61.8333 48.5,61.1667 48.5,60.5C 49.1667,60.1667 49.8333,59.8333 50.5,59.5 Z"/></g>
<g><path style="opacity:1" fill="#e5e5ed" d="M 40.5,59.5 C 41.4584,59.0472 42.2917,58.3805 43,57.5C 42.2677,60.2988 40.9343,62.9655 39,65.5C 38.678,63.3111 39.178,61.3111 40.5,59.5 Z"/></g>
<g><path style="opacity:1" fill="#e0e0e9" d="M 112.5,57.5 C 110.1,59.2964 108.433,61.6298 107.5,64.5C 106.542,64.9528 105.708,65.6195 105,66.5C 104.833,66.1667 104.667,65.8333 104.5,65.5C 106.952,62.394 108.952,59.0607 110.5,55.5C 111.712,54.7701 112.712,53.7701 113.5,52.5C 113.833,52.8333 114.167,53.1667 114.5,53.5C 113.37,54.6223 112.703,55.9557 112.5,57.5 Z"/></g>
<g><path style="opacity:1" fill="#505283" d="M 112.5,57.5 C 111.567,60.3702 109.9,62.7036 107.5,64.5C 108.433,61.6298 110.1,59.2964 112.5,57.5 Z"/></g>
<g><path style="opacity:1" fill="#5a5b89" d="M 116.5,56.5 C 116.297,58.0443 115.63,59.3777 114.5,60.5C 114.624,61.1067 114.957,61.44 115.5,61.5C 115.389,62.1174 115.056,62.6174 114.5,63C 115.416,63.2784 116.082,63.7784 116.5,64.5C 114.846,65.7503 113.179,67.0837 111.5,68.5C 111.92,66.9064 112.586,65.4064 113.5,64C 113.317,62.3164 112.65,62.1498 111.5,63.5C 112.433,60.6298 114.1,58.2964 116.5,56.5 Z"/></g>
<g><path style="opacity:1" fill="#e6e6ed" d="M 44.5,59.5 C 45.0431,59.56 45.3764,59.8933 45.5,60.5C 43.8619,63.3041 42.0285,65.9708 40,68.5C 40.7263,65.2286 42.2263,62.2286 44.5,59.5 Z"/></g>
<g><path style="opacity:1" fill="#e1e1ea" d="M 57.5,54.5 C 55.1,56.2964 53.4333,58.6298 52.5,61.5C 49.3954,64.2749 47.0621,67.6082 45.5,71.5C 42.477,74.1784 41.8103,73.5118 43.5,69.5C 45.9,67.7036 47.5667,65.3702 48.5,62.5C 49.9063,62.0269 50.573,61.0269 50.5,59.5C 52.8872,57.0869 55.0539,54.4202 57,51.5C 57.4828,52.448 57.6495,53.448 57.5,54.5 Z"/></g>
<g><path style="opacity:1" fill="#484b7d" d="M 111.5,63.5 C 111.573,65.0269 110.906,66.0269 109.5,66.5C 109.427,64.9731 110.094,63.9731 111.5,63.5 Z"/></g>
<g><path style="opacity:1" fill="#545685" d="M 52.5,61.5 C 50.9379,65.3918 48.6046,68.7251 45.5,71.5C 47.0621,67.6082 49.3954,64.2749 52.5,61.5 Z"/></g>
<g><path style="opacity:1" fill="#d0d0de" d="M 111.5,68.5 C 109.549,69.7158 108.049,71.3825 107,73.5C 106.421,72.0715 106.588,70.7382 107.5,69.5C 108.906,69.0269 109.573,68.0269 109.5,66.5C 110.906,66.0269 111.573,65.0269 111.5,63.5C 112.65,62.1498 113.317,62.3164 113.5,64C 112.586,65.4064 111.92,66.9064 111.5,68.5 Z"/></g>
<g><path style="opacity:1" fill="#555786" d="M 48.5,62.5 C 47.5667,65.3702 45.9,67.7036 43.5,69.5C 44.4333,66.6298 46.1,64.2964 48.5,62.5 Z"/></g>
<g><path style="opacity:1" fill="#b0b2c7" d="M 119.5,66.5 C 121.337,66.6395 121.67,67.3061 120.5,68.5C 119.702,68.0431 119.369,67.3764 119.5,66.5 Z"/></g>
<g><path style="opacity:1" fill="#474a7d" d="M 51.5,67.5 C 51.573,69.0269 50.9063,70.0269 49.5,70.5C 49.427,68.9731 50.0937,67.9731 51.5,67.5 Z"/></g>
<g><path style="opacity:1" fill="#474a7c" d="M 109.5,66.5 C 109.573,68.0269 108.906,69.0269 107.5,69.5C 107.427,67.9731 108.094,66.9731 109.5,66.5 Z"/></g>
<g><path style="opacity:1" fill="#dfdfe8" d="M 48.5,60.5 C 48.5,61.1667 48.5,61.8333 48.5,62.5C 46.1,64.2964 44.4333,66.6298 43.5,69.5C 42.5416,69.9528 41.7083,70.6195 41,71.5C 40.3333,70.8333 40.3333,70.1667 41,69.5C 43.0608,65.9883 45.5608,62.9883 48.5,60.5 Z"/></g>
<g><path style="opacity:1" fill="#e3e3eb" d="M 116.5,64.5 C 115.471,66.5168 114.471,68.5168 113.5,70.5C 111.45,72.2368 109.617,74.2368 108,76.5C 108.84,73.8067 110.007,71.1401 111.5,68.5C 113.179,67.0837 114.846,65.7503 116.5,64.5 Z"/></g>
<g><path style="opacity:1" fill="#dedfe8" d="M 44.5,79.5 C 46.4203,76.6612 48.0869,73.6612 49.5,70.5C 50.9063,70.0269 51.573,69.0269 51.5,67.5C 52.3635,66.537 53.0302,66.537 53.5,67.5C 51.1574,72.1512 48.1574,76.1512 44.5,79.5 Z"/></g>
<g><path style="opacity:1" fill="#cecfdd" d="M 119.5,66.5 C 117.674,68.1475 116.34,70.1475 115.5,72.5C 113.1,74.2964 111.433,76.6298 110.5,79.5C 109.542,79.9528 108.708,80.6195 108,81.5C 107.833,81.1667 107.667,80.8333 107.5,80.5C 109.952,77.394 111.952,74.0607 113.5,70.5C 115.339,69.4923 116.672,67.9923 117.5,66C 118.437,65.3083 119.103,65.475 119.5,66.5 Z"/></g>
<g><path style="opacity:1" fill="#565887" d="M 115.5,72.5 C 114.567,75.3702 112.9,77.7036 110.5,79.5C 111.433,76.6298 113.1,74.2964 115.5,72.5 Z"/></g>
<g><path style="opacity:1" fill="#dedee7" d="M 116.5,80.5 C 113.395,83.2749 111.062,86.6082 109.5,90.5C 106.395,93.2749 104.062,96.6082 102.5,100.5C 99.3954,103.275 97.0621,106.608 95.5,110.5C 93.2043,112.401 91.371,114.734 90,117.5C 89.678,115.311 90.178,113.311 91.5,111.5C 92.9063,111.027 93.573,110.027 93.5,108.5C 100.215,99.7822 106.548,90.7822 112.5,81.5C 113.906,81.0269 114.573,80.0269 114.5,78.5C 116.108,76.9154 117.775,75.7487 119.5,75C 118.242,76.7409 117.242,78.5742 116.5,80.5 Z"/></g>
<g><path style="opacity:1" fill="#d2d2df" d="M 38.5,81.5 C 37.2876,82.2299 36.2876,83.2299 35.5,84.5C 35.1667,84.1667 34.8333,83.8333 34.5,83.5C 35.624,82.086 36.624,80.586 37.5,79C 38.1667,78.3333 38.8333,78.3333 39.5,79C 38.7476,79.6708 38.4142,80.5041 38.5,81.5 Z"/></g>
<g><path style="opacity:1" fill="#898aab" d="M 86.5,78.5 C 87.5,78.5 88.5,78.5 89.5,78.5C 89.5,80.5 89.5,82.5 89.5,84.5C 87.5853,84.7845 85.9187,84.4511 84.5,83.5C 85.8333,83.5 87.1667,83.5 88.5,83.5C 88.6347,81.4458 87.968,79.7791 86.5,78.5 Z"/></g>
<g><path style="opacity:1" fill="#dedfe8" d="M 115.5,72.5 C 116.239,72.369 116.906,72.5357 117.5,73C 116.242,74.7409 115.242,76.5742 114.5,78.5C 113.094,78.9731 112.427,79.9731 112.5,81.5C 110.45,83.2368 108.617,85.2368 107,87.5C 107.84,84.8067 109.007,82.1401 110.5,79.5C 112.9,77.7036 114.567,75.3702 115.5,72.5 Z"/></g>
<g><path style="opacity:1" fill="#4c4f80" d="M 114.5,78.5 C 114.573,80.0269 113.906,81.0269 112.5,81.5C 112.427,79.9731 113.094,78.9731 114.5,78.5 Z"/></g>
<g><path style="opacity:1" fill="#e7e7ee" d="M 33.5,79.5 C 35.6569,80.0533 35.4903,81.0533 33,82.5C 32.5304,81.4232 32.6971,80.4232 33.5,79.5 Z"/></g>
<g><path style="opacity:1" fill="#d1d1de" d="M 42.5,80.5 C 41.0937,80.9731 40.427,81.9731 40.5,83.5C 37.477,86.1784 36.8103,85.5118 38.5,81.5C 39.7124,80.7701 40.7124,79.7701 41.5,78.5C 42.2975,78.9569 42.6309,79.6236 42.5,80.5 Z"/></g>
<g><path style="opacity:1" fill="#4f5282" d="M 42.5,80.5 C 42.573,82.0269 41.9063,83.0269 40.5,83.5C 40.427,81.9731 41.0937,80.9731 42.5,80.5 Z"/></g>
<g><path style="opacity:1" fill="#e0e0e9" d="M 124.5,83.5 C 120.168,87.532 119.502,86.8654 122.5,81.5C 125.523,78.8216 126.19,79.4882 124.5,83.5 Z"/></g>
<g><path style="opacity:1" fill="#dadae5" d="M 48.5,81.5 C 47.0937,81.9731 46.427,82.9731 46.5,84.5C 45.5178,85.1408 44.5178,85.8075 43.5,86.5C 42.8933,86.3764 42.56,86.0431 42.5,85.5C 43.9063,85.0269 44.573,84.0269 44.5,82.5C 46.8872,80.0869 49.0539,77.4202 51,74.5C 51.6667,75.5 51.6667,76.5 51,77.5C 49.5187,78.4709 48.6854,79.8042 48.5,81.5 Z"/></g>
<g><path style="opacity:1" fill="#4d4f81" d="M 48.5,81.5 C 48.573,83.0269 47.9063,84.0269 46.5,84.5C 46.427,82.9731 47.0937,81.9731 48.5,81.5 Z"/></g>
<g><path style="opacity:1" fill="#e0e1e9" d="M 122.5,81.5 C 120.549,82.7158 119.049,84.3825 118,86.5C 117.805,85.1807 117.972,83.8474 118.5,82.5C 120.145,81.5213 121.479,80.188 122.5,78.5C 123.087,79.2334 123.087,80.2334 122.5,81.5 Z"/></g>
<g><path style="opacity:1" fill="#dddde7" d="M 42.5,80.5 C 42.8333,80.5 43.1667,80.5 43.5,80.5C 44.3382,80.8417 44.6716,81.5084 44.5,82.5C 43.0937,82.9731 42.427,83.9731 42.5,85.5C 41.1667,85.5 40.5,84.8333 40.5,83.5C 41.9063,83.0269 42.573,82.0269 42.5,80.5 Z"/></g>
<g><path style="opacity:1" fill="#4e5181" d="M 44.5,82.5 C 44.573,84.0269 43.9063,85.0269 42.5,85.5C 42.427,83.9731 43.0937,82.9731 44.5,82.5 Z"/></g>
<g><path style="opacity:1" fill="#dddde7" d="M 126.5,85.5 C 125.399,86.7997 124.066,87.2997 122.5,87C 123.823,86.1841 124.489,85.0174 124.5,83.5C 127.523,80.8216 128.19,81.4882 126.5,85.5 Z"/></g>
<g><path style="opacity:1" fill="#d7d8e3" d="M 45.5,88.5 C 45.0618,88.5654 44.7284,88.3988 44.5,88C 45.8228,87.1841 46.4894,86.0174 46.5,84.5C 47.9063,84.0269 48.573,83.0269 48.5,81.5C 49.4584,81.0472 50.2917,80.3805 51,79.5C 51.6667,80.5 51.6667,81.5 51,82.5C 48.932,84.3962 47.0987,86.3962 45.5,88.5 Z"/></g>
<g><path style="opacity:1" fill="#d5d6e2" d="M 132.5,86.5 C 129.477,89.1784 128.81,88.5118 130.5,84.5C 132.203,83.3398 132.869,84.0065 132.5,86.5 Z"/></g>
<g><path style="opacity:1" fill="#505282" d="M 116.5,80.5 C 114.938,84.3918 112.605,87.7251 109.5,90.5C 111.062,86.6082 113.395,83.2749 116.5,80.5 Z"/></g>
<g><path style="opacity:1" fill="#d2d2df" d="M 130.5,84.5 C 128.855,85.4787 127.521,86.812 126.5,88.5C 125.913,87.7666 125.913,86.7666 126.5,85.5C 127.712,84.7701 128.712,83.7701 129.5,82.5C 130.298,82.9569 130.631,83.6236 130.5,84.5 Z"/></g>
<g><path style="opacity:1" fill="#e1e2ea" d="M 118.5,82.5 C 116.1,84.2964 114.433,86.6298 113.5,89.5C 112.094,89.9731 111.427,90.9731 111.5,92.5C 109.1,94.2964 107.433,96.6298 106.5,99.5C 101.344,105.808 96.677,112.475 92.5,119.5C 91.0937,119.973 90.427,120.973 90.5,122.5C 89.5416,122.953 88.7083,123.619 88,124.5C 87.8333,124.167 87.6667,123.833 87.5,123.5C 90.4396,119.278 93.1063,114.945 95.5,110.5C 98.6046,107.725 100.938,104.392 102.5,100.5C 105.605,97.7251 107.938,94.3918 109.5,90.5C 112.605,87.7251 114.938,84.3918 116.5,80.5C 118.108,78.9154 119.775,77.7487 121.5,77C 120.242,78.7409 119.242,80.5742 118.5,82.5 Z"/></g>
<g><path style="opacity:1" fill="#b5b5cb" d="M 132.5,86.5 C 135.608,85.6095 136.775,86.9428 136,90.5C 134.373,89.4677 133.207,88.1344 132.5,86.5 Z"/></g>
<g><path style="opacity:1" fill="#dddee7" d="M 113.5,89.5 C 114.458,89.0472 115.292,88.3805 116,87.5C 116.329,90.0211 115.496,90.6878 113.5,89.5 Z"/></g>
<g><path style="opacity:1" fill="#dcdde6" d="M 45.5,89.5 C 44.3995,90.6049 43.7329,91.9382 43.5,93.5C 42.0937,93.9731 41.427,94.9731 41.5,96.5C 39.8921,98.0846 38.2254,99.2513 36.5,100C 37.7577,98.2591 38.7577,96.4258 39.5,94.5C 41.3043,92.5047 43.3043,90.8381 45.5,89.5 Z"/></g>
<g><path style="opacity:1" fill="#8585a8" d="M 22.5,90.5 C 23.9733,91.072 25.3066,91.9054 26.5,93C 24.0316,94.7578 22.6982,93.9244 22.5,90.5 Z"/></g>
<g><path style="opacity:1" fill="#e2e3eb" d="M 45.5,95.5 C 43.6121,96.9397 41.9454,98.6064 40.5,100.5C 40.1667,100.333 39.8333,100.167 39.5,100C 40.8228,99.1841 41.4894,98.0174 41.5,96.5C 42.9063,96.0269 43.573,95.0269 43.5,93.5C 46.1356,90.6902 48.6356,87.6902 51,84.5C 49.5057,88.2109 47.6724,91.8776 45.5,95.5 Z"/></g>
<g><path style="opacity:1" fill="#dddde7" d="M 30.5,93.5 C 31.2389,93.369 31.9056,93.5357 32.5,94C 31.2567,95.1545 30.2567,96.4878 29.5,98C 28.8333,98.6667 28.1667,98.6667 27.5,98C 28.8825,96.7292 29.8825,95.2292 30.5,93.5 Z"/></g>
<g><path style="opacity:1" fill="#4f5282" d="M 43.5,93.5 C 43.573,95.0269 42.9063,96.0269 41.5,96.5C 41.427,94.9731 42.0937,93.9731 43.5,93.5 Z"/></g>
<g><path style="opacity:1" fill="#474a7d" d="M 53.5,93.5 C 53.573,95.0269 52.9063,96.0269 51.5,96.5C 51.427,94.9731 52.0937,93.9731 53.5,93.5 Z"/></g>
<g><path style="opacity:1" fill="#dddee7" d="M 27.5,93.5 C 28.6878,95.4959 28.0211,96.3293 25.5,96C 26.3805,95.2917 27.0472,94.4584 27.5,93.5 Z"/></g>
<g><path style="opacity:1" fill="#dedee8" d="M 34.5,92.5 C 35.2389,92.369 35.9056,92.5357 36.5,93C 34.6667,95.5 32.8333,98 31,100.5C 31.3799,97.5791 32.5466,94.9124 34.5,92.5 Z"/></g>
<g><path style="opacity:1" fill="#e1e1ea" d="M 47.5,97.5 C 43.1683,101.532 42.5016,100.865 45.5,95.5C 47.8872,93.0869 50.0539,90.4202 52,87.5C 50.846,90.8734 49.346,94.2068 47.5,97.5 Z"/></g>
<g><path style="opacity:1" fill="#4f5182" d="M 109.5,90.5 C 107.938,94.3918 105.605,97.7251 102.5,100.5C 104.062,96.6082 106.395,93.2749 109.5,90.5 Z"/></g>
<g><path style="opacity:1" fill="#e4e4ec" d="M 108.5,101.5 C 105.543,103.025 104.876,102.358 106.5,99.5C 108.9,97.7036 110.567,95.3702 111.5,92.5C 112.65,91.1498 113.317,91.3164 113.5,93C 111.439,95.6256 109.772,98.4589 108.5,101.5 Z"/></g>
<g><path style="opacity:1" fill="#dcdce6" d="M 53.5,93.5 C 52.0937,93.9731 51.427,94.9731 51.5,96.5C 50.0937,96.9731 49.427,97.9731 49.5,99.5C 46.5426,101.025 45.8759,100.358 47.5,97.5C 49.7957,95.5994 51.629,93.2661 53,90.5C 53.4828,91.448 53.6495,92.448 53.5,93.5 Z"/></g>
<g><path style="opacity:1" fill="#cccddb" d="M 53.5,93.5 C 54.3764,93.3691 55.0431,93.7025 55.5,94.5C 54.3698,95.6223 53.7031,96.9557 53.5,98.5C 52.2876,99.2299 51.2876,100.23 50.5,101.5C 49.7025,101.043 49.3691,100.376 49.5,99.5C 50.9063,99.0269 51.573,98.0269 51.5,96.5C 52.9063,96.0269 53.573,95.0269 53.5,93.5 Z"/></g>
<g><path style="opacity:1" fill="#4e5081" d="M 51.5,96.5 C 51.573,98.0269 50.9063,99.0269 49.5,99.5C 49.427,97.9731 50.0937,96.9731 51.5,96.5 Z"/></g>
<g><path style="opacity:1" fill="#d5d6e1" d="M 57.5,97.5 C 56.1667,98.1667 55.1667,99.1667 54.5,100.5C 54.1034,101.525 53.4368,101.692 52.5,101C 53.2524,100.329 53.5858,99.4959 53.5,98.5C 54.4822,97.8592 55.4822,97.1925 56.5,96.5C 57.1067,96.6236 57.44,96.9569 57.5,97.5 Z"/></g>
<g><path style="opacity:1" fill="#595b89" d="M 111.5,92.5 C 110.567,95.3702 108.9,97.7036 106.5,99.5C 107.433,96.6298 109.1,94.2964 111.5,92.5 Z"/></g>
<g><path style="opacity:1" fill="#e4e5ec" d="M 39.5,94.5 C 37.4503,96.2368 35.617,98.2368 34,100.5C 35.3664,96.4165 37.6997,92.7499 41,89.5C 40.8657,91.1893 40.3657,92.856 39.5,94.5 Z"/></g>
<g><path style="opacity:1" fill="#60618e" d="M 57.5,97.5 C 58.1667,97.5 58.5,97.8333 58.5,98.5C 59.5,98.8333 60.1667,99.5 60.5,100.5C 59.5,101.167 58.5,101.833 57.5,102.5C 56.2223,102.218 55.2223,101.551 54.5,100.5C 55.1667,99.1667 56.1667,98.1667 57.5,97.5 Z"/></g>
<g><path style="opacity:1" fill="#e9e9ef" d="M 58.5,98.5 C 58.5386,99.7562 58.0386,100.756 57,101.5C 56.4153,100.002 56.9153,99.0024 58.5,98.5 Z"/></g>
<g><path style="opacity:1" fill="#dedee7" d="M 110.5,103.5 C 109.348,104.625 108.348,104.625 107.5,103.5C 108.338,103.158 108.672,102.492 108.5,101.5C 110.55,99.7632 112.383,97.7632 114,95.5C 113.16,98.1933 111.993,100.86 110.5,103.5 Z"/></g>
<g><path style="opacity:1" fill="#d4d5e1" d="M 112.5,105.5 C 109.543,107.025 108.876,106.358 110.5,103.5C 112.451,102.284 113.951,100.618 115,98.5C 114.763,100.989 113.929,103.322 112.5,105.5 Z"/></g>
<g><path style="opacity:1" fill="#dcdce6" d="M 65.5,105.5 C 66.3635,104.537 67.0302,104.537 67.5,105.5C 65.3915,109.424 64.7249,109.424 65.5,105.5 Z"/></g>
<g><path style="opacity:1" fill="#4f5182" d="M 102.5,100.5 C 100.938,104.392 98.6046,107.725 95.5,110.5C 97.0621,106.608 99.3954,103.275 102.5,100.5 Z"/></g>
<g><path style="opacity:1" fill="#e7e7ee" d="M 104.5,106.5 C 103.728,107.694 102.728,108.694 101.5,109.5C 101.795,107.577 102.628,105.91 104,104.5C 104.464,105.094 104.631,105.761 104.5,106.5 Z"/></g>
<g><path style="opacity:1" fill="#e4e4ec" d="M 112.5,105.5 C 113.458,105.047 114.292,104.381 115,103.5C 114.602,105.631 113.602,107.631 112,109.5C 111.805,108.181 111.972,106.847 112.5,105.5 Z"/></g>
<g><path style="opacity:1" fill="#dadbe5" d="M 63.5,103.5 C 64.8333,103.5 65.5,104.167 65.5,105.5C 64.1667,106.167 63.1667,107.167 62.5,108.5C 62.1034,109.525 61.4368,109.692 60.5,109C 61.7577,107.259 62.7577,105.426 63.5,103.5 Z"/></g>
<g><path style="opacity:1" fill="#d7d7e2" d="M 63.5,103.5 C 61.159,105.656 59.159,108.156 57.5,111C 56.5632,111.692 55.8966,111.525 55.5,110.5C 57.636,108.188 59.636,105.688 61.5,103C 62.4368,102.308 63.1034,102.475 63.5,103.5 Z"/></g>
<g><path style="opacity:1" fill="#4f5182" d="M 91.5,106.5 C 91.573,108.027 90.9063,109.027 89.5,109.5C 89.427,107.973 90.0937,106.973 91.5,106.5 Z"/></g>
<g><path style="opacity:1" fill="#e3e3eb" d="M 85.5,107.5 C 85.9382,107.435 86.2716,107.601 86.5,108C 85.2986,108.903 84.4652,110.069 84,111.5C 83.31,112.738 82.81,112.738 82.5,111.5C 83.1098,110.609 83.4431,109.609 83.5,108.5C 84.1667,108.167 84.8333,107.833 85.5,107.5 Z"/></g>
<g><path style="opacity:1" fill="#d3d4e0" d="M 52.5,109.5 C 51.399,110.8 50.0657,111.3 48.5,111C 49.6667,109.833 50.8333,108.667 52,107.5C 52.4643,108.094 52.631,108.761 52.5,109.5 Z"/></g>
<g><path style="opacity:1" fill="#dedee7" d="M 60.5,100.5 C 58.9249,104.078 56.9249,107.411 54.5,110.5C 53.3774,111.757 52.7107,111.424 52.5,109.5C 54.5475,107.45 56.2141,105.117 57.5,102.5C 58.5,101.833 59.5,101.167 60.5,100.5 Z"/></g>
<g><path style="opacity:1" fill="#d1d2df" d="M 83.5,108.5 C 81.8546,109.479 80.5213,110.812 79.5,112.5C 78.913,111.767 78.913,110.767 79.5,109.5C 80.4822,108.859 81.4822,108.193 82.5,107.5C 83.1067,107.624 83.44,107.957 83.5,108.5 Z"/></g>
<g><path style="opacity:1" fill="#dcdce6" d="M 93.5,108.5 C 92.0937,108.973 91.427,109.973 91.5,111.5C 90.399,112.8 89.0657,113.3 87.5,113C 88.8228,112.184 89.4894,111.017 89.5,109.5C 90.9063,109.027 91.573,108.027 91.5,106.5C 92.8366,105.685 93.8366,104.518 94.5,103C 95.1667,102.333 95.8333,102.333 96.5,103C 95.2423,104.741 94.2423,106.574 93.5,108.5 Z"/></g>
<g><path style="opacity:1" fill="#4e5181" d="M 93.5,108.5 C 93.573,110.027 92.9063,111.027 91.5,111.5C 91.427,109.973 92.0937,108.973 93.5,108.5 Z"/></g>
<g><path style="opacity:1" fill="#c8c8d8" d="M 115.5,106.5 C 116.805,109.38 115.805,110.88 112.5,111C 113.883,109.729 114.883,108.229 115.5,106.5 Z"/></g>
<g><path style="opacity:1" fill="#9898b5" d="M 103.5,109.5 C 104.776,110.386 104.776,111.386 103.5,112.5C 102.438,111.575 102.438,110.575 103.5,109.5 Z"/></g>
<g><path style="opacity:1" fill="#e4e4ec" d="M 68.5,115.5 C 66.031,118.144 63.6976,120.977 61.5,124C 60.5632,124.692 59.8966,124.525 59.5,123.5C 62.6046,120.725 64.9379,117.392 66.5,113.5C 68.5497,111.763 70.383,109.763 72,107.5C 71.1595,110.193 69.9929,112.86 68.5,115.5 Z"/></g>
<g><path style="opacity:1" fill="#eaebf0" d="M 115.5,111.5 C 116.713,112.497 116.546,113.497 115,114.5C 114.53,113.423 114.697,112.423 115.5,111.5 Z"/></g>
<g><path style="opacity:1" fill="#d6d6e2" d="M 79.5,109.5 C 77.3497,111.76 75.1831,114.093 73,116.5C 72.5357,115.906 72.369,115.239 72.5,114.5C 74.7188,112.425 76.7188,110.091 78.5,107.5C 79.2975,107.957 79.6309,108.624 79.5,109.5 Z"/></g>
<g><path style="opacity:1" fill="#e1e1e9" d="M 91.5,106.5 C 90.0937,106.973 89.427,107.973 89.5,109.5C 86.112,113.249 82.9454,117.249 80,121.5C 79.8782,119.718 80.3782,118.052 81.5,116.5C 84.2411,114.025 86.2411,111.025 87.5,107.5C 88.4822,106.859 89.4822,106.193 90.5,105.5C 91.1067,105.624 91.44,105.957 91.5,106.5 Z"/></g>
<g><path style="opacity:1" fill="#dfdfe8" d="M 72.5,114.5 C 70.1891,117.147 67.8558,119.814 65.5,122.5C 65.1667,122.333 64.8333,122.167 64.5,122C 66.2318,120.028 67.5652,117.861 68.5,115.5C 70.8257,112.865 73.159,110.198 75.5,107.5C 75.8333,107.667 76.1667,107.833 76.5,108C 74.7682,109.972 73.4348,112.139 72.5,114.5 Z"/></g>
<g><path style="opacity:1" fill="#626490" d="M 85.5,107.5 C 86.1667,106.167 86.8333,106.167 87.5,107.5C 86.2411,111.025 84.2411,114.025 81.5,116.5C 80.9569,116.44 80.6236,116.107 80.5,115.5C 80.9943,113.974 81.661,112.641 82.5,111.5C 82.81,112.738 83.31,112.738 84,111.5C 84.4652,110.069 85.2986,108.903 86.5,108C 86.2716,107.601 85.9382,107.435 85.5,107.5 Z"/></g>
<g><path style="opacity:1" fill="#dfe0e9" d="M 66.5,113.5 C 63.3954,116.275 61.0621,119.608 59.5,123.5C 58.5178,124.141 57.5178,124.807 56.5,125.5C 55.8933,125.376 55.56,125.043 55.5,124.5C 59.3118,120.223 62.6452,115.557 65.5,110.5C 66.8366,109.685 67.8366,108.518 68.5,107C 69.1667,106.333 69.8333,106.333 70.5,107C 68.7682,108.972 67.4348,111.139 66.5,113.5 Z"/></g>
<g><path style="opacity:1" fill="#515383" d="M 106.5,99.5 C 104.876,102.358 105.543,103.025 108.5,101.5C 108.672,102.492 108.338,103.158 107.5,103.5C 106.1,104.1 105.1,105.1 104.5,106.5C 104.631,105.761 104.464,105.094 104,104.5C 102.628,105.91 101.795,107.577 101.5,109.5C 100.833,110.5 100.167,111.5 99.5,112.5C 99.5654,112.062 99.3988,111.728 99,111.5C 97.0539,114.42 94.8872,117.087 92.5,119.5C 96.677,112.475 101.344,105.808 106.5,99.5 Z"/></g>
<g><path style="opacity:1" fill="#535585" d="M 66.5,113.5 C 64.9379,117.392 62.6046,120.725 59.5,123.5C 61.0621,119.608 63.3954,116.275 66.5,113.5 Z"/></g>
<g><path style="opacity:1" fill="#dfdfe8" d="M 99.5,112.5 C 98.5,114.5 97.5,116.5 96.5,118.5C 95.0937,118.973 94.427,119.973 94.5,121.5C 92.1128,123.913 89.9461,126.58 88,129.5C 88.2373,127.011 89.0707,124.678 90.5,122.5C 91.9063,122.027 92.573,121.027 92.5,119.5C 94.8872,117.087 97.0539,114.42 99,111.5C 99.3988,111.728 99.5654,112.062 99.5,112.5 Z"/></g>
<g><path style="opacity:1" fill="#484b7d" d="M 96.5,118.5 C 96.573,120.027 95.9063,121.027 94.5,121.5C 94.427,119.973 95.0937,118.973 96.5,118.5 Z"/></g>
<g><path style="opacity:1" fill="#4d5081" d="M 92.5,119.5 C 92.573,121.027 91.9063,122.027 90.5,122.5C 90.427,120.973 91.0937,119.973 92.5,119.5 Z"/></g>
<g><path style="opacity:1" fill="#d4d5e1" d="M 55.5,124.5 C 54.5768,125.303 53.5768,125.47 52.5,125C 53.6217,122.876 55.1217,121.043 57,119.5C 56.8657,121.189 56.3657,122.856 55.5,124.5 Z"/></g>
<g><path style="opacity:1" fill="#9192b1" d="M 49.5,123.5 C 51.337,123.639 51.6704,124.306 50.5,125.5C 49.7025,125.043 49.3691,124.376 49.5,123.5 Z"/></g>
<g><path style="opacity:1" fill="#e2e2ea" d="M 93.5,127.5 C 92.017,129.094 90.517,130.76 89,132.5C 88.8333,132.167 88.6667,131.833 88.5,131.5C 90.9522,128.394 92.9522,125.061 94.5,121.5C 95.9063,121.027 96.573,120.027 96.5,118.5C 97.3635,117.537 98.0302,117.537 98.5,118.5C 97.0626,121.716 95.3959,124.716 93.5,127.5 Z"/></g>
<g><path style="opacity:1" fill="#d3d3e0" d="M 93.5,132.5 C 92.5,132.833 91.8333,133.5 91.5,134.5C 90.9569,134.44 90.6236,134.107 90.5,133.5C 92.0383,131.757 93.0383,129.757 93.5,127.5C 94.6499,126.15 95.3166,126.316 95.5,128C 94.5862,129.406 93.9195,130.906 93.5,132.5 Z"/></g>
<g><path style="opacity:1" fill="#797aa0" d="M 91.5,134.5 C 91.8333,133.5 92.5,132.833 93.5,132.5C 95.3531,131.386 95.8531,132.052 95,134.5C 93.8545,135.684 92.6879,135.684 91.5,134.5 Z"/></g>
</svg>
