<?xml version="1.0" encoding="UTF-8"?>
<!DOCTYPE svg PUBLIC "-//W3C//DTD SVG 1.1//EN" "http://www.w3.org/Graphics/SVG/1.1/DTD/svg11.dtd">
<svg xmlns="http://www.w3.org/2000/svg" version="1.1" width="160px" height="160px" style="shape-rendering:geometricPrecision; text-rendering:geometricPrecision; image-rendering:optimizeQuality; fill-rule:evenodd; clip-rule:evenodd" xmlns:xlink="http://www.w3.org/1999/xlink">
<g><path style="opacity:1" fill="#e01d42" d="M -0.5,-0.5 C 52.8333,-0.5 106.167,-0.5 159.5,-0.5C 159.5,52.8333 159.5,106.167 159.5,159.5C 106.167,159.5 52.8333,159.5 -0.5,159.5C -0.5,106.167 -0.5,52.8333 -0.5,-0.5 Z"/></g>
<g><path style="opacity:1" fill="#fefcfc" d="M 28.5,60.5 C 37.8333,60.5 47.1667,60.5 56.5,60.5C 56.6664,69.5062 56.4998,78.5062 56,87.5C 53.2865,91.0916 50.4532,94.5916 47.5,98C 38.1726,98.4998 28.8393,98.6665 19.5,98.5C 19.3336,89.4938 19.5002,80.4938 20,71.5C 23.0726,67.9387 25.9059,64.272 28.5,60.5 Z"/></g>
<g><path style="opacity:1" fill="#fef9fa" d="M 70.5,60.5 C 79.8333,60.5 89.1667,60.5 98.5,60.5C 98.6664,69.5062 98.4998,78.5062 98,87.5C 94.9294,90.6475 92.0961,93.9809 89.5,97.5C 79.8563,98.4984 70.1896,98.8318 60.5,98.5C 60.3336,89.4938 60.5002,80.4938 61,71.5C 64.1744,67.802 67.3411,64.1353 70.5,60.5 Z"/></g>
<g><path style="opacity:1" fill="#fefafb" d="M 111.5,60.5 C 120.833,60.5 130.167,60.5 139.5,60.5C 139.666,69.5062 139.5,78.5062 139,87.5C 136.333,90.8333 133.667,94.1667 131,97.5C 121.25,98.4856 111.416,98.819 101.5,98.5C 101.334,89.8269 101.5,81.1603 102,72.5C 105.381,68.625 108.547,64.625 111.5,60.5 Z"/></g>
<g><path style="opacity:1" fill="#e3324e" d="M 70.5,76.5 C 74.5443,75.9579 78.211,76.7912 81.5,79C 80.646,80.0217 79.646,80.8551 78.5,81.5C 74.575,79.5372 71.9083,80.5372 70.5,84.5C 70.637,86.1073 71.3036,87.4406 72.5,88.5C 74.7928,89.2357 77.1261,89.4024 79.5,89C 80.8333,90 80.8333,91 79.5,92C 69.4457,94.7094 65.279,90.8761 67,80.5C 68.3756,79.2949 69.5423,77.9616 70.5,76.5 Z"/></g>
<g><path style="opacity:1" fill="#e22c4b" d="M 117.5,88.5 C 115.833,88.5 114.167,88.5 112.5,88.5C 112.5,89.8333 112.5,91.1667 112.5,92.5C 111.167,92.5 109.833,92.5 108.5,92.5C 108.5,87.1667 108.5,81.8333 108.5,76.5C 111.85,76.335 115.183,76.5017 118.5,77C 122.213,78.6912 123.379,81.5245 122,85.5C 120.871,87.1412 119.371,88.1412 117.5,88.5 Z"/></g>
<g><path style="opacity:1" fill="#e2304d" d="M 27.5,76.5 C 31.5,76.5 35.5,76.5 39.5,76.5C 39.5,81.8333 39.5,87.1667 39.5,92.5C 38.1667,92.5 36.8333,92.5 35.5,92.5C 35.5,88.5 35.5,84.5 35.5,80.5C 34.1667,80.5 32.8333,80.5 31.5,80.5C 31.8158,83.9783 31.3158,87.3117 30,90.5C 28.4157,91.8613 26.5824,92.528 24.5,92.5C 24.2746,90.2841 25.1079,88.6174 27,87.5C 27.4986,83.8484 27.6653,80.1817 27.5,76.5 Z"/></g>
<g><path style="opacity:1" fill="#fef3f5" d="M 113.5,80.5 C 115.948,80.0101 117.615,80.8434 118.5,83C 118.164,84.0299 117.497,84.5299 116.5,84.5C 115.5,84.5 114.5,84.5 113.5,84.5C 113.5,83.1667 113.5,81.8333 113.5,80.5 Z"/></g>
<g><path style="opacity:1" fill="#f29bab" d="M 113.5,80.5 C 113.5,81.8333 113.5,83.1667 113.5,84.5C 114.5,84.5 115.5,84.5 116.5,84.5C 115.432,85.4345 114.099,85.7678 112.5,85.5C 112.216,83.5853 112.549,81.9187 113.5,80.5 Z"/></g>
<g><path style="opacity:1" fill="#f298a8" d="M 117.5,88.5 C 116.432,89.4345 115.099,89.7678 113.5,89.5C 113.737,90.791 113.404,91.791 112.5,92.5C 112.5,91.1667 112.5,89.8333 112.5,88.5C 114.167,88.5 115.833,88.5 117.5,88.5 Z"/></g>
</svg>
