<svg id="LOGO_6" xmlns="http://www.w3.org/2000/svg" viewBox="0 0 48 48"><defs><style>.cls-2{fill:#efd101}.cls-3{fill:#e50000}</style></defs><g id="MAGE"><path fill="#0092f3" d="M0 0h48v48H0z"/><path class="cls-2" d="M28.44 21l-2 2.35v1.5l2.34-.36zm-3.44.53l-4.57 1.72.53 1.24 4.86-.23z"/><rect class="cls-3" x="20.55" y="16.36" width="2.11" height="15.3" rx="1.06" ry="1.06" transform="rotate(-18.74 21.592 24.013)"/><rect class="cls-3" x="17.75" y="16.65" width="2.11" height="11.4" rx="1.06" ry="1.06" transform="rotate(7.98 18.777 22.389)"/><path class="cls-2" d="M23.06 18.33a11.38 11.38 0 00-6.41 1.75l2.77 1.42a6.3 6.3 0 013.57-1c2.53 0 4.57 1.17 4.57 2.61s-2 2.61-4.57 2.61a6.3 6.3 0 01-3.57-1l-2.77 1.42a11.38 11.38 0 006.41 1.75c4.58 0 8.29-2.15 8.29-4.8s-3.71-4.76-8.29-4.76z"/><rect class="cls-3" x="24.82" y="16.37" width="2.11" height="15.3" rx="1.06" ry="1.06" transform="rotate(19.04 25.883 24.014)"/><rect class="cls-3" x="27.7" y="16.68" width="2.11" height="11.4" rx="1.06" ry="1.06" transform="rotate(-8.34 28.773 22.367)"/><path class="cls-2" d="M21.92 21.63l-4.38 2h5.09z"/><path d="M13 26.35l.11.11.09.11.11.15L15 24.27v-.78l-2 2.85zm2.92 4.23h-.09l-.21-.06h-.19l1.22-1.76.15.19.15.21-1 1.44zM27 34.44h-.18l-.11.06-.3.24-.39.32 2.75-3.95.34-.21.34-.26.3-.26.32-.3-3 4.34zm-12.11-4l1.46-2.08-.13-.21-.13-.21-1.76 2.49h.56zm4.7 2.43l.73-1.05-.21-.11-.21-.11L19 33l.24-.06h.17zm-2.49 3.22l.13-.13.13-.15.13-.13.11-.13.19-.26L18 35l.17-.24.09-.13.09-.11.17-.24.11-.11.13-.11-2.92 4.16h-.24l-.28-.06.75-1.05.24-.19.24-.24.26-.28.32-.3zm-2.06 1.4h-.36l-.24.36.21.09.24.09.43-.62h-.28zm-1-4.36l-.41.06h-.37l.17.09.26.13.28-.41zM16 32l-.69.56-.28.24-.15.09-.15.09-.52.73.26.06h.26L16 32zm-.28 1.85l2.38-3.39-.1-.2-.17-.17-.67 1-.26.36-1.7 2.4h.54zm3.84-2.38l-1.22 1.74-.34.09-.41.13 1.57-2.25.41.26zm-2.06-1.61l-.32-.39-.86 1.27.24.06.21.09.73-1zM20.76 32l.21.06.24.09-4.19 6-.34.06h-.3l3.35-4.79.69-.43h-.33l.67-.92zm6.35 0L24 36.5v.92l4.06-5.8-.41.19-.43.17zm-1.91.49l-1 1.46h-.6l1-1.5h.62zm1.27-.28l-.34.11-.34.09-1.09 1.55h.21L25 34l-.06.09-.09.11-.11.15-.11.19-.11.24-.13.28-.09.32 2.19-3.16zm-4.85 0l.24.09.26.06-3.8 5.41-.36.11-.36.09 4-5.75zm.92.21h.54l-3.24 4.59-.43.24-.45.19 3.58-5.11zm1.46.18h-.42l-2.64 3.76.52-.49.47-.47.37-.4.39-.36 1.4-2zM18.85 31L17 33.58l-.34.09-.32.06 2.12-3.07.39.3zm11.59 1.55l4.91-7 1.87-2.66-.34-.34-10.5 15v.92l4.06-5.84v-.09zM18.91 11.09l.09-.24.11-.21v-.09l.06-.09.11-.17.11-.13.06-.06.06-.06.28-.24-.92 1.29zm22.41 14.4l.15.15.13.17-.52.71h-.48l.64-.94h.06zM38 23.35l-1.74 2.49-.26-.09-.21-.09 1.8-2.58.19.15.19.11zm1.87 1.07l.21.13.09.06.09.06-1.16 1.67h-.54l1.31-1.89zm-12.8 16.07l-.15-.21-.09-.09-.06-.11 3.48-5-.11.39-.11.37-.13.32-.13.28v.11l-.06.11-.11.24-2.49 3.56zm13.52-15.6l-1 1.48h.58l.83-1.18-.22-.19-.19-.15zm-2.25-1.35l.21.13.21.11-1.63 2.34-.23-.12h-.24l1.67-2.45zm.77.43l-1.55 2.21.52.09 1.44-2-.41-.27zM26.43 39.06l.06.3v.3l3.86-5.52v-.94l-4.1 5.86zM15.54 9.87H15l.06.13.06.15.06.19.32-.43zm-1.46 27.9l.13-.17h-.5l.36.15zm21.62-4.34v.3l.09.28-.56.82-.06-.09-.09-.09-.09-.11.01-.12.73-1zm.36 1l.17.21.06.09.09.06.11.09.06.06h.09-.99l.41-.58zM8.76 24.12l.24-.35h-.2l-.15-.06h-.11l-.11-.06.11.19.17.26zm3.41-9.85l.09-.26-.15.19-.15.21-.21.28-.09.17-.13.17-.11.21-.11.21-.19.45-.11.26-.09.26L12 14.85v-.26l.09-.32zM27.78 41h-.11l-.11-.06-.19-.11 1.7-2.47-.06.26v.76L27.78 41zm.86.32l.21.09V40l-.79 1.12.28.11.19.09zm6.89-9.16v.68l-.84 1.24-.09-.19-.13-.17 1.05-1.48zm-.3-2.43l.09.52-1.55 2.21-.15-.21-.15-.25 1.76-2.49v.17zm-3.31 1.5v.3L32 32l-.9 1.27-.17-.27-.15-.19 1.14-1.61zm-.47 2.73l-.06-.17-.09-.17.71-1v.76l-.06.26-.39.58v-.24zM35 28.35l.06.28.06.34-1.89 2.73-.17-.19-.17-.17 2.1-3zm-.39-1l.13.24v.13l.06.15-2.25 3.22-.09-.09h-.35l2.49-3.54zm.94-1.35v.17l.06.15.09.21-.49.69-.13-.06-.08-.02h-.22l.75-1zm-24.13-5.7l2-2.81-.19-.13-.11-.06-.12-.07-1.76 2.53.09.28.11.26zm-.6 3.07L9.66 25l.11.06h.31l1.29-1.87h-.28zm-1.48 1.41l-.17-.17-.17-.17.52-.73.26-.09.34-.13h.15l-.92 1.31zm26 6.05l.09.71-1.2 1.7-.1-.24-.13-.19 1.37-2zM16.85 14.74v.39l.06.32-4.61 6.65-.3-.47 4.81-6.89zm-4.57 11.12l2.85-4.1v1.01l-2.32 3.35-.15-.11-.17-.09zm29.17-9.77l-.13.17h.3l-.11-.09zM13 24.16l-1.07 1.52-.24-.09-.26-.06 1.27-1.8.09.11.09.11.06.11.06.11zm-.62-.64L11 25.43l-.24-.06-.26-.06 1.35-1.89h.5zM31.13 18l-.13-.21-.17-.21 2-2.83h.54L31.13 18zM9.75 28l.43-.13.34-.15-1.76 2.47-.24-.09-.21-.1 1.44-2.06zm-1.14.13l-1 1.46.36.28L9.19 28h-.58zm23.78-13.48v-.13l.06-.06.11-.09.13-.06.43-.62h-.54l-2.36 3.35.17.17.17.17 1.82-2.6zm-25.63 13l.13.06H7l.21.09-.52.77-.17-.21-.13-.21.36-.54zm5.39-.77l-.26.06h-.2l-.11.06h-.09l-.17.11-2.17 3.19.34.06h.2l2.47-3.54zM27.33 12.7l.06-.11.06-.11.09-.11.11-.09-1.57 2.25-.26-.06h-.24l1.5-2.17.09.19v.12l.09.11zm7.25 5.6h.09l.28.15-2.23 3.2-.13-.64 2-2.79zM7.64 27.94l.49.09-.86 1.22-.17-.17-.1-.18.69-1zM24 14.29h.17l3.2-4.59-.34.11h-.32l-3 4.36zm9.34-.29l.21-.06h.69-.19l-.21-.06-.28-.06-.21.34zm1.91 4.14l2.13-3-.54-.06-2.15 3.07h.56zm2 1.67l-.26.34-.69.15.58-.79.19.15.17.15zm-12.11-5.44l2.08-3 .06-.13.09-.15.43-.62.19-.26.15-.21.11-.19.09-.17v-.39l-.34.21-3.4 4.85h.54zM12.67 26.8l-2.51 3.58h.56l2.49-3.56h-.54zm27.08-10.52l.52-.73-.43-.19-.67.92h.58zM6 27.23h-.06v.2l.06.11.13.28.24-.34-.37-.25zm17.06-12.9l3-4.25-.34.09-.36.11-2.92 4.14h.66zm17.77 1.93h-.58l.41-.58h.43l-.26.36zm-12.28-.69l3.26-4.68-.32.06-.32.06-3 4.34.43.21zm9.1 1.67l-.06.13-.09.13-.06.11-.09.09-.09.09-.11.06-.11.06h-.11l2-2.83h.5l-.77 1.14h-.19l-.17.09-.15.09h-.06l-.06.06-.06.06v.06l-.06.06v.06l-.09.17-.06.15zm-9.87-2.08l-.11-.06h-.11l-.23-.1 2.6-3.73.34-.06.34-.06-2.83 4.06zm1.48.9l1.5-2.12v-.72l.11-.15.11-.15.13-.11.13-.11.13-.09.15-.06.32-.15 1.71-2.4v-.13l-.09.11-.09.13-.13.13-.15.15-.17.15-.09.06-.11.06-.19.09-.15.06-3.54 5 .39.26zm7.08 2h-.6l2.1-3h.62l-2.12 3zm-.24 3.39l-4 5.67.15-.39.15-.39.06-.19.06-.19.11-.43 3-4.36.19.15.19.13zm-20.81-9.72v-.88l.58-.82.17.15.17.17-1 1.37zM12.3 16l-1.52 2.17v-.83l1.37-2 .17.62zM27 14.8l2.36-3.37-.19.06-.21.06-.19.09-.19.11-2 2.92.24.06.24.06zm-15.9 4.51L11 19l-.09-.28 1.55-2.23.06.13.06.11.06.11.09.11-1.65 2.36zm20.5-5.84l-2 2.85.17.15.11.09.06.09 2.19-3.13h-.56zm.92 7.13l3.84-5.6h-.52l-3.56 5.07.09.28.11.26zm-19.79 2.34L23 8.34v-.75l-10.5 14.9.24.45zm-1.12-2.21l2.15-3.07.17.06h.24v-.64L17 13.11v.96l-5 7.15-.28-.22-.11-.26zm20.48-1.09L35.38 15h-.55l-2.94 4.23.11.26.11.24zm-13.46-3.57l-.28.21-.26.24-.28.24-.24.26-.26.26-.24.28-.21.28-.21.28-.19.3-.19.3-.17.28-.17.32-.15.32-.15.34-.13.34-.11.34L13.05 24v-.49l-.06-.15 9.46-13.58-.11.24-.15.28-.09.24v.35L22 11v.2l-3.41 4.87zM15.35 26l.19.58-2.7 3.84h-.58L15.35 26zm17.49-3.71l2.51-3.56.21.09h.11l.13.06L32.91 23v-.72zm-16-10.62l-2.5 3.63-.09.56-.09.52 2.83-4L17 12l-.09-.34zm20.67 8.48zm-15-13.59l-4.36 6.22v.32l-.09.3-.09.3v.3l4.83-6.88-.13-.32-.06-.13v-.11zm-7.42 18.31l.06.32.06.32-3.46 4.94h-.58l3.91-5.56zm16.27-6.55l.28.43 2.73-3.86-.56-.06-2.45 3.5zm-15.43 9.21l-.11-.26-.1-.27-2.38 3.39h.58l2-2.9zm20.65-8.22l-.84 1.2-.32.13-.21.11h-.06l.3.15-2.53 3.63v-.93l3.26-4.61h.11l.13.06.17.11zm-20.09-8.59L15 12.91l-.11.3-.09.34-.17.71 2.12-3.07-.13-.19-.06-.13-.06-.11zm5.34 3.82l-.36.11-.36.11 2.58-3.69.15-.11.17-.09.34-.19.15-.09.15-.06-2.81 4zm.6-2.38l-2 2.85-.11.06h-.13l-.21.11-.24.11-.21.13 2.64-3.78.13.28.13.19zm13.76 15.6H36l-.19-.09-.24-.13.34-.47.11.28.09.26.09.19zM42 26.72v-.26l-.11-.28-.41.56.19.15.17.13.3.21v-.53zm-15.1 9.44l9.79-14-.16-.16-.09-.09-.06-.09-9.14 13v.31l-.06.3-.11.36-.15.41z" fill="#f0d354" fill-rule="evenodd"/></g></svg>