<?xml version="1.0" encoding="UTF-8"?>
<!DOCTYPE svg PUBLIC "-//W3C//DTD SVG 1.1//EN" "http://www.w3.org/Graphics/SVG/1.1/DTD/svg11.dtd">
<svg xmlns="http://www.w3.org/2000/svg" version="1.1" width="160px" height="160px" style="shape-rendering:geometricPrecision; text-rendering:geometricPrecision; image-rendering:optimizeQuality; fill-rule:evenodd; clip-rule:evenodd" xmlns:xlink="http://www.w3.org/1999/xlink">
<g><path style="opacity:1" fill="#e30512" d="M -0.5,-0.5 C 23.8333,-0.5 48.1667,-0.5 72.5,-0.5C 30.9759,6.02388 6.64253,30.0239 -0.5,71.5C -0.5,47.5 -0.5,23.5 -0.5,-0.5 Z"/></g>
<g><path style="opacity:1" fill="#eb0100" d="M 72.5,-0.5 C 77.5,-0.5 82.5,-0.5 87.5,-0.5C 127.6,6.26671 151.6,29.6 159.5,69.5C 159.5,75.5 159.5,81.5 159.5,87.5C 152.367,128.967 128.033,152.967 86.5,159.5C 81.5,159.5 76.5,159.5 71.5,159.5C 30.033,152.367 6.03302,128.033 -0.5,86.5C -0.5,81.5 -0.5,76.5 -0.5,71.5C 6.64253,30.0239 30.9759,6.02388 72.5,-0.5 Z"/></g>
<g><path style="opacity:1" fill="#e30512" d="M 87.5,-0.5 C 111.5,-0.5 135.5,-0.5 159.5,-0.5C 159.5,22.8333 159.5,46.1667 159.5,69.5C 151.6,29.6 127.6,6.26671 87.5,-0.5 Z"/></g>
<g><path style="opacity:1" fill="#fffbfb" d="M 55.5,34.5 C 78.5,34.5 101.5,34.5 124.5,34.5C 124.5,39.1667 124.5,43.8333 124.5,48.5C 102.164,48.3334 79.8308,48.5 57.5,49C 53.3333,50.5 50.5,53.3333 49,57.5C 48.9295,68.2389 48.2629,78.9055 47,89.5C 44.3654,94.5669 40.1988,97.2336 34.5,97.5C 34.3334,83.496 34.5001,69.496 35,55.5C 38.6854,45.3158 45.5187,38.3158 55.5,34.5 Z"/></g>
<g><path style="opacity:1" fill="#fffbfb" d="M 60.5,62.5 C 64.1817,62.3347 67.8484,62.5014 71.5,63C 73.8204,66.4847 76.4871,69.6513 79.5,72.5C 82.3918,69.729 85.0584,66.729 87.5,63.5C 91.1073,62.5108 94.774,62.1774 98.5,62.5C 98.5,74.1667 98.5,85.8333 98.5,97.5C 94.8333,97.5 91.1667,97.5 87.5,97.5C 87.6661,91.8236 87.4994,86.1569 87,80.5C 85.0218,83.6452 82.5218,86.3119 79.5,88.5C 76.7774,86.0658 74.2774,83.3991 72,80.5C 71.5006,86.1569 71.3339,91.8236 71.5,97.5C 67.8333,97.5 64.1667,97.5 60.5,97.5C 60.5,85.8333 60.5,74.1667 60.5,62.5 Z"/></g>
<g><path style="opacity:1" fill="#fffbfb" d="M 120.5,61.5 C 121.833,61.5 123.167,61.5 124.5,61.5C 124.667,75.504 124.5,89.504 124,103.5C 120.947,115.22 113.447,122.054 101.5,124C 79.1692,124.5 56.8358,124.667 34.5,124.5C 34.5,119.833 34.5,115.167 34.5,110.5C 56.8358,110.667 79.1692,110.5 101.5,110C 105.693,108.474 108.526,105.641 110,101.5C 110.333,91.8333 110.667,82.1667 111,72.5C 112.599,67.406 115.766,63.7393 120.5,61.5 Z"/></g>
<g><path style="opacity:1" fill="#e30512" d="M 159.5,87.5 C 159.5,111.5 159.5,135.5 159.5,159.5C 135.167,159.5 110.833,159.5 86.5,159.5C 128.033,152.967 152.367,128.967 159.5,87.5 Z"/></g>
<g><path style="opacity:1" fill="#e30512" d="M -0.5,86.5 C 6.03302,128.033 30.033,152.367 71.5,159.5C 47.5,159.5 23.5,159.5 -0.5,159.5C -0.5,135.167 -0.5,110.833 -0.5,86.5 Z"/></g>
</svg>
