<?xml version="1.0" encoding="UTF-8"?>
<!DOCTYPE svg PUBLIC "-//W3C//DTD SVG 1.1//EN" "http://www.w3.org/Graphics/SVG/1.1/DTD/svg11.dtd">
<svg xmlns="http://www.w3.org/2000/svg" version="1.1" width="160px" height="160px" style="shape-rendering:geometricPrecision; text-rendering:geometricPrecision; image-rendering:optimizeQuality; fill-rule:evenodd; clip-rule:evenodd" xmlns:xlink="http://www.w3.org/1999/xlink">
<g><path style="opacity:1" fill="#5287b8" d="M -0.5,-0.5 C 52.8333,-0.5 106.167,-0.5 159.5,-0.5C 159.5,52.8333 159.5,106.167 159.5,159.5C 106.167,159.5 52.8333,159.5 -0.5,159.5C -0.5,106.167 -0.5,52.8333 -0.5,-0.5 Z"/></g>
<g><path style="opacity:1" fill="#fafbfd" d="M 68.5,30.5 C 71.5719,30.1826 74.5719,30.5159 77.5,31.5C 80.5,36.8333 83.5,42.1667 86.5,47.5C 86.0233,48.4776 85.3567,49.3109 84.5,50C 70.7057,49.8204 57.039,48.3204 43.5,45.5C 50.4782,38.1802 58.8116,33.1802 68.5,30.5 Z"/></g>
<g><path style="opacity:1" fill="#f9fbfc" d="M 82.5,31.5 C 95.2776,30.8856 105.944,35.5523 114.5,45.5C 109.125,47.5775 103.625,49.2441 98,50.5C 96.2252,49.7297 94.7252,48.563 93.5,47C 91.8659,46.5065 90.1992,46.3398 88.5,46.5C 87.2656,41.117 85.2656,36.117 82.5,31.5 Z"/></g>
<g><path style="opacity:1" fill="#fbfcfd" d="M 38.5,51.5 C 53.8728,51.9304 69.2062,52.9304 84.5,54.5C 67.0352,65.4035 49.3686,76.0702 31.5,86.5C 28.8472,73.7637 31.1806,62.097 38.5,51.5 Z"/></g>
<g><path style="opacity:1" fill="#f8fafc" d="M 114.5,50.5 C 116.199,50.3398 117.866,50.5065 119.5,51C 127.202,61.3838 129.702,72.8838 127,85.5C 117,76.1667 107,66.8333 97,57.5C 96.4054,56.1011 96.5721,54.7678 97.5,53.5C 103.317,52.5662 108.984,51.5662 114.5,50.5 Z"/></g>
<g><path style="opacity:1" fill="#fbfcfd" d="M 84.5,57.5 C 86.2252,57.8425 86.7252,58.8425 86,60.5C 75.9683,80.8956 65.6349,101.229 55,121.5C 43.9874,114.988 36.4874,105.654 32.5,93.5C 49.8623,81.4902 67.1956,69.4902 84.5,57.5 Z"/></g>
<g><path style="opacity:1" fill="#fbfcfd" d="M 93.5,58.5 C 104.633,69.8015 115.633,81.3015 126.5,93C 122.837,103.656 116.504,112.323 107.5,119C 105.975,120.009 104.308,120.509 102.5,120.5C 99.2809,99.8536 96.2809,79.1869 93.5,58.5 Z"/></g>
<g><path style="opacity:1" fill="#fbfcfd" d="M 88.5,59.5 C 89.9311,59.8807 90.7645,60.8807 91,62.5C 92.841,83.2093 95.0076,103.876 97.5,124.5C 88.3591,127.225 79.0257,128.058 69.5,127C 66.2796,126.284 63.2796,125.117 60.5,123.5C 70.0416,102.191 79.3749,80.8576 88.5,59.5 Z"/></g>
</svg>
