<svg id="Слой_1" data-name="Слой 1" xmlns="http://www.w3.org/2000/svg" viewBox="0 0 48 48"><defs><style>.cls-1{fill:#0d3891}.cls-4{fill:#fff}</style></defs><g id="MRKK"><path class="cls-1" d="M0 0h48v48H0z"/><path d="M31.81 21.06l-.01.02.03.03-.01-.03-.01-.02zm-4.82 15.12l10-14-.08-.11-.07-.1-.08-.1-.07-.07-9.36 13.06v.12l-.01.13-.03.14-.04.15-.05.18-.06.18-.07.2-.08.22zm-14.24-9.82l.11.1.09.1.07.08.06.07 1.77-2.44-.03-.39-.01-.38-2.06 2.86zm3 4.24l1.05-1.46-.08-.1-.08-.1-.15-.21-1.26 1.77.22.03.2.04.06.01h.02l.02.02zm11.39 3.86l3.09-4.34-.31.28-.33.27-.34.24-.35.23-2.83 3.96.12-.1.11-.08.09-.08.09-.07.09-.06.07-.06.07-.05.06-.05.06-.03.06-.03.05-.03.04-.01.05-.01h.03l.04.01.04.01zm-12.38-3.99l1.51-2.1-.15-.22-.13-.22-1.8 2.5.29.02.28.02zm4.8 2.41l.75-1.05-.22-.1-.11-.05-.11-.06-.99 1.37.12-.03.12-.03.1-.02.09-.01.13-.01.12-.01zm-2.54 3.22l-.17.16-.15.15-.15.14-.13.13-.12.12-.12.12-.11.1-.12.1-.76 1.06.13.03.13.03.13.02.12.01 2.98-4.16-.11.1-.11.11-.1.11-.09.12-.18.24-.17.25-.19.26-.09.13-.1.14-.12.13-.12.13-.13.14-.15.13zm-2.11 1.4l-.2.03-.08.01-.08.01-.26.36.11.05.12.04.24.08.44-.62-.15.02-.14.02zm-.98-4.35l-.13.02-.11.01-.1.01-.08.02-.08.01-.07.01-.06.01-.04.01-.04.01-.04.01h-.02l-.01.01h-.02v.01h.02l.03.02.03.02.07.04.1.05.13.06.14.07.28-.4zm1.93-1.17l-.2.15-.18.15-.16.14-.16.13-.15.11-.15.11-.15.09-.15.08-.52.74.12.03.13.03.13.03.14.02 1.3-1.81zm-.28 1.84h.04l2.44-3.39-.19-.17-.17-.16-.67.94-.28.38-1.73 2.42h.41l.15-.02zm3.93-2.38l-.21-.13-.21-.12-1.61 2.25.21-.07.2-.06.18-.06.18-.06 1.26-1.75zm-2.1-1.62l-.17-.18-.17-.19-.89 1.26.13.04.13.03.11.05.11.04.75-1.05zm3.29 2.17l-.67.93.07.01.07.02.06.01.04.02.04.01.03.01.01.01h.01-.01l-.01.01-.01.01-.02.02-.06.03-.08.05-.1.06-.12.07-.14.09-.15.09-3.43 4.8.14-.02.15-.02.18-.03.18-.04 4.29-5.98-.24-.08-.11-.04-.12-.04zm6.51.02l-3.22 4.51-.03.16-.03.17-.02.18v.41l4.16-5.8-.21.09-.21.1-.44.18zm-1.95.49l-.31.04-.32.02-1.07 1.51.03-.02h.03l.05-.02.15-.02.14-.03.13-.01h.13l1.04-1.47zm1.29-.28l-.36.09-.35.09-1.12 1.55.06.01.06.01h.06l.04.01.04.01H25l.02.01-.02.02-.02.03-.03.04-.04.05-.05.06-.05.07-.05.08-.06.1-.06.1-.06.11-.06.12-.06.14-.06.14-.05.15-.05.16 2.25-3.15zm-4.97.05l-4.11 5.75.17-.04.18-.04.19-.05.19-.06 3.89-5.43-.14-.03-.12-.03-.25-.07zm.95.21l-3.66 5.11.22-.1.23-.1.22-.11.22-.12 3.31-4.61-.28-.03-.13-.01-.13-.03zm1.44.11h-.21l-.22-.01-2.7 3.77.28-.25.26-.25.24-.24.23-.23.22-.21.21-.2.2-.19.2-.18 1.43-2.01h-.14zm-5.21-1.63l-.19-.14-.2-.15-2.19 3.07.34-.06.17-.04.17-.05 1.9-2.63zm11.84 1.56h.01l.01.01.02.01.02.03 5.04-7.05v-.04.02l.01.01 1.91-2.67-.18-.16-.18-.17-10.74 15.02-.04.22-.02.23-.01.23v.25l4.16-5.85v-.05l-.01-.03v-.01zM18.82 11.09l.95-1.31-.15.12-.14.12-.13.13-.12.14-.11.16-.05.09-.06.09-.05.1-.04.11-.05.12-.05.13zm22.92 14.39l-.03-.01-.04-.03-.67.97.13.01.11.03.12.03.13.06.53-.72-.13-.17-.15-.17zm-3.4-2.13l-.21-.12-.2-.14-1.84 2.57.11.04.11.05.24.08 1.79-2.48zm1.9 1.06l-1.34 1.9.27.03.29.02 1.19-1.69-.2-.13-.21-.13zm-13.08 16.1l2.55-3.58.11-.22.06-.12.05-.1.07-.13.07-.15.06-.16.06-.17.06-.18.06-.18.1-.38-3.55 4.95.07.11.07.11.07.1.09.1zM40.99 24.9l-1.06 1.47.05.01.06.01h.48l.86-1.21-.19-.15-.2-.13zm-2.3-1.36l-1.73 2.44.25.08.12.02.11.03 1.68-2.33-.22-.12-.21-.12zm.79.43l-1.59 2.22.54.07 1.47-2.04-.21-.13-.21-.12zM26.5 39.08l.03.15.03.15.05.15.05.14 3.95-5.52.04-.28.01-.13.02-.12.01-.12.01-.11v-.2l-4.2 5.89zM15.37 9.84l-.25-.04h-.14l-.12.01v.01l.01.03.02.03.02.06.03.06.04.08.03.1.04.1.32-.44zm-1.49 27.95l.13-.19-.12.01-.11.01h-.09l-.07.01h-.12l.01.01h.02l.03.02.04.01.06.03.06.03.08.02.08.04zm22.1-4.36l-.74 1.01.09.13.08.1.08.09.08.08.58-.83-.05-.14-.04-.14-.04-.14-.04-.16zm.38.97l-.41.59.05.01.06.01h.46l.11-.01.09-.01h.07l.06-.01.05-.01h.02l.02-.01h.01-.01l-.01-.01-.02-.01-.04-.02-.03-.02-.05-.04-.05-.03-.06-.05-.07-.07-.09-.09-.08-.1-.08-.12zM8.43 24.11l.23-.33-.09-.03-.05-.02-.05-.02-.09-.04-.07-.02-.06-.03-.05-.03-.04-.01-.02-.01-.02-.01-.02-.01-.01-.01v.01l.01.03.02.03.02.05.06.09.06.11.08.12.09.13zm3.51-9.86l.03-.08.02-.07.01-.04.01-.03.01-.01V14v.01l-.01.01-.01.01-.02.02-.05.05-.06.08-.08.1-.08.12-.1.13-.11.16-.11.16-.11.19-.12.2-.11.21-.1.23-.11.23-.09.25-.09.26 1.15-1.59.01-.11.02-.14.05-.15.02-.09.03-.09zm15.95 26.76l1.2-1.68-.01-.11.01-.12.02-.25.04-.26.06-.27-1.75 2.46.2.12.11.05.12.06zm.86.31l.08.03.06.03.05.02.04.02.03.01.01.01.01.01h.01v-.1l.01-.07v-.18l.01-.11.01-.13.01-.19.01-.21v-.22l.01-.23-.82 1.13.14.06.13.04.11.04.09.04zm7.05-9.16l-1.06 1.47.06.09.05.1.1.18.02.02.02.02.01.02.02.02.86-1.24-.04-.34-.04-.34zm-.29-2.44l-.01-.08-.01-.09-1.78 2.5.15.19.14.21 1.59-2.22-.04-.25-.04-.26zm-3.39 1.51l-1.17 1.62.08.09.07.09.09.1.08.11.91-1.28-.01-.23-.01-.1-.01-.1-.01-.09-.01-.08v-.07l-.01-.06zm-.5 2.73l.01.06.01.06.03.11.41-.59.05-.24.05-.26.02-.25.02-.24-.73.99.07.18.06.18zm3.65-5.62l-2.16 3.01.16.17.09.09.09.09 1.95-2.73-.04-.17-.04-.17-.03-.15-.02-.14zm-.39-.98l-2.55 3.56.09.02.12.03.06.02.06.03.07.04.07.04 2.3-3.23-.05-.14-.05-.13-.12-.24zm.95-1.32l-.76 1.05.09.02.11.05.13.05.13.08.49-.7-.05-.11-.01-.05-.02-.04-.03-.08-.03-.09-.03-.09-.02-.09zM11.16 20.3l2.02-2.82-.21-.13-.1-.07-.09-.07-1.82 2.55.09.27.11.27zm-.61 3.07l-1.19 1.65.1.06.1.05.12.04.1.03h.03l.01.02 1.32-1.87-.29.01-.3.01zm-1.52 1.42l.95-1.33-.03.01H9.9l-.08.03-.1.04-.09.03-.15.05-.14.05-.13.04-.52.74.16.17.18.17zm26.63 6.05l-1.42 1.97.14.23.13.21 1.23-1.7-.02-.18-.02-.18-.01-.17-.03-.18zM16.73 14.73l-4.93 6.89.13.24.12.23 4.77-6.66-.02-.15-.03-.18-.02-.18-.02-.19zm-4.69 11.12l.17.09.07.05.08.06.04.02.05.04 2.38-3.35.05-.5.04-.25.04-.25-2.92 4.09zm29.81-9.76l-.11.16h.06l.06-.01h.18v-.01l-.01-.01-.01-.01-.02-.02-.03-.03-.05-.03-.07-.04zm-29.09 8.06l-.06-.1-.07-.11-.07-.11-.1-.1-1.29 1.81.12.02.12.04.24.08 1.11-1.53zm-.64-.63l-.1-.05-.13-.03-.13-.02-.14-.02-1.38 1.91.13.03.13.03.25.05 1.37-1.9zm19.19-5.55l2.28-3.18-.16-.03-.14-.02-.13-.01-.12-.01L31 17.57l.16.2.15.2zM9.46 27.93l-1.49 2.09.22.1.12.05.12.04 1.8-2.54-.16.07-.18.06-.2.07-.23.06zm-1.17.13l-1.07 1.48.2.14.2.13 1.27-1.78-.29.02-.15.01h-.16zM32.6 14.64l-.02-.03-.02-.04-.01-.04.01-.05.02-.04.02-.03.03-.03.04-.03.04-.03.06-.04.07-.03.08-.04.44-.62-.12-.01h-.14l-.15-.03-.15-.01-2.42 3.37.09.08.09.09.17.17 1.87-2.61zM6.41 27.63l-.38.54.07.1.07.1.07.11.09.11.54-.79-.23-.07-.11-.05-.12-.05zm5.5-.79l-.13.03-.13.03-.11.04-.1.04-.19.1-.17.1-2.24 3.13.17.03.17.02h.11l.05.01.05.01 2.52-3.54zm15.52-14.16v-.01l-.03-.02-.02-.04-.04-.04-.03-.06-.05-.07-.03-.09-.04-.09-1.55 2.17.25.05.13.03.12.03 1.62-2.27-.1.1-.1.1-.07.11-.06.1zm7.41 5.61l-2.01 2.81.07.31.08.32 2.29-3.2-.08-.04-.08-.04-.06-.03-.06-.04-.05-.02-.04-.03-.03-.02-.03-.02zM7.29 27.93l-.7.97.07.1.09.09.08.08.1.09.89-1.23-.27-.05-.26-.05zm16.68-13.64h.18l3.29-4.61-.04.03-.04.02-.34.1-.33.08-3.12 4.38h.4zm9.6-.28l.21-.06.09-.03.09-.02.09-.01.07-.01.07-.01.06-.01.06-.02.05-.01h.05l.03-.01h.06l-.01-.01h-.04l-.06-.01-.09-.03-.09-.03-.12-.02-.14-.03-.16-.03-.22.35zm1.95 4.14l2.18-3.02-.27-.03-.29-.02-2.2 3.07h.58zm2.08 1.67l-.08-.07-.08-.07-.1-.08-.11-.08-.58.8.21-.05.18-.04.17-.03.14-.03.25-.35zm-12.42-5.46l2.14-2.97.03-.07.03-.06.04-.07.04-.08.13-.17.12-.17.1-.15.1-.13.1-.13.09-.12.08-.11.07-.1.06-.1.06-.1.09-.18.07-.19.03-.1.02-.1h-.01l-.02.01-.03.01-.05.02-.06.02-.08.03-.1.04-.11.04-3.48 4.86.27.03.13.02.14.02zM12.43 26.81L9.87 30.4l.28.02.29.01 2.54-3.55-.11-.03-.13-.02-.15-.01-.16-.01zm27.69-10.54l.55-.74-.23-.1-.23-.09-.68.95h.29l.3-.02zM5.6 27.23l-.06-.04-.05-.03-.03-.02v.01l.02.03.03.06.03.07.05.1.05.11.07.13.08.14.24-.35-.13-.07-.12-.05-.1-.05-.08-.04zm17.44-12.9l3.06-4.28-.37.09-.18.06-.19.06-2.98 4.15.33-.05.33-.03zm18.19 1.92l.26-.36-.12-.06-.07-.03-.08-.02-.09-.05-.08-.03-.42.57h.31l.15-.01.14-.01zm-12.56-.68l3.35-4.68-.16.03-.16.02-.35.06-3.1 4.35.21.11.21.11zm9.31 1.68l.07-.16.08-.16.1-.14.12-.12.13-.12.07-.04.08-.05.09-.03.09-.04.1-.03.11-.02.78-1.13-.12-.04-.13-.02-.13-.02-.12-.02-2.05 2.84.11-.04.11-.06.1-.07.1-.08.08-.09.09-.11.07-.12.07-.13zm-10.09-2.09l2.89-4.06-.35.07-.34.06-2.66 3.73.11.05.12.04.11.05.12.06zm1.51.9l1.53-2.12-.04-.06-.03-.08-.02-.07-.01-.09v-.09l.02-.1.03-.1.06-.12.05-.09.06-.07.11-.15.12-.12.13-.09.14-.09.15-.08.16-.07.17-.07 1.77-2.47.01-.04v-.08.01l-.01.02-.03.03-.03.05-.05.06-.05.06-.06.06-.06.07-.16.15-.17.14-.1.07-.1.06-.11.05-.11.04-.07.03-.07.03-3.62 5.06.2.13.19.13zm7.24 2.04l2.18-3.02h-.11l-.1.01-.21.03h-.11l-.11.01-2.16 3.02h.17l.17-.01.15-.02.13-.02zm-.25 3.4l-.09-.07-.09-.07-.21-.14-3.12 4.37-.11.41-.13.4-.15.39-.15.38 4.05-5.67zm-21.27-9.78l.99-1.37-.18-.17-.09-.08-.1-.08-.59.81.01.21v.22l-.01.22-.03.24zm-3.06 4.29l-.02-.1-.03-.09-.04-.15-.03-.14-.04-.13-1.41 1.96-.01.2v.21l.01.2.01.21 1.56-2.17zm14.98-1.2l2.43-3.4-.21.06-.21.08-.2.09-.2.09-2.08 2.93.23.08.24.07zM10.79 19.3l1.7-2.37-.09-.1-.07-.11-.07-.11-.05-.11-1.59 2.21.08.3.09.29zm20.97-5.84l-2.03 2.86.18.15.09.08.09.09 2.24-3.15-.15-.02-.15-.01h-.27zm.93 7.14l3.98-5.57-.26-.03-.13-.01-.15-.01-3.65 5.07.1.28.05.14.06.13zM12.5 22.95L22.98 8.31v-.28l-.01-.16-.02-.15-.03-.14-10.66 14.91.07.13.06.12.06.11.05.1zm-1.15-2.23l.12.26.13.23 5.1-7.14.01-.25.02-.25.02-.24.05-.23h.02v-.01l-2.91 4.07v.26l.02.09.01.1.02.07.01.05v.07l-.03-.01-.03-.01-.06-.01-.06-.02-.07-.03-.08-.03-.09-.04-2.2 3.07zm20.94-1.09l3.37-4.7h-.23l-.17-.02-.17-.01-3.02 4.24.11.24.11.25zm-13.75-3.57l3.48-4.88-.01-.1v-.1l.01-.11.01-.12.02-.11.04-.12.04-.13.06-.12.07-.14.06-.14.07-.12.06-.11-9.74 13.63.02.08.03.08.01.07.01.07.01.1.02.09.01.09.01.08 2.38-3.34.12-.35.13-.34.14-.34.16-.33.17-.32.19-.32.19-.3.2-.3.22-.29.23-.28.24-.27.25-.27.26-.25.27-.24.28-.23.28-.22zm-3.37 9.95l-3.15 4.44.29-.01.29-.01 2.77-3.85-.11-.28-.09-.29zm17.89-3.7l.04.36.03.36 2.96-4.12-.24-.1-.22-.1-2.57 3.6zM16.74 11.66l-2.59 3.62-.05.28-.06.28-.04.27-.04.25 2.91-4.04-.01-.16-.03-.17-.04-.17-.05-.16zm5.84-5.11l-4.46 6.22v.04l-.05.33-.08.31-.09.3-.09.29 4.98-6.95-.07-.17-.04-.08-.02-.07-.03-.06-.02-.06-.02-.05-.01-.05zm-7.67 18.31l-3.98 5.57.14.01h.15l.29.01 3.53-4.95-.06-.32-.07-.32zm16.65-6.55l.14.22.14.22 2.78-3.88-.29-.03-.27-.03-2.5 3.5zm-15.78 9.21l-.12-.24-.11-.25-2.43 3.4h.58l2.08-2.91zm21.1-8.22l-.08-.05-.1-.05-.12-.06-.12-.05-3.33 4.63-.01.24-.01.24-.02.22-.03.23 2.6-3.64-.13-.06-.05-.03-.05-.02-.03-.02-.03-.02h-.02v-.02l.03-.01.04-.04.07-.04.08-.04.06-.03.07-.04.07-.03.07-.03.09-.03.09-.04.86-1.21zm-20.54-8.59l-1.56 2.19-.1.31-.1.34-.09.35-.09.35 2.19-3.07-.11-.24-.07-.12-.07-.11zm5.47 3.84l2.87-4.03-.15.06-.15.08-.19.1-.17.1-.17.09-.15.1-2.64 3.71.18-.06.19-.05.38-.1zm.62-2.41l-.06-.08-.07-.11-.07-.12-.07-.15-2.7 3.78.22-.12.23-.11.23-.11.24-.1 2.05-2.88zm14.06 15.63v-.01l-.02-.04-.03-.06-.03-.08-.04-.12-.06-.14-.12-.29-.35.48.13.07.12.06.11.04.09.05.05.01.04.01.03.01h.03l.04.01h.01zm5.98-1.06l-.05-.13-.05-.13-.06-.14-.06-.14-.41.57v.01l.01.01.12.08.09.08.09.06.08.06.05.04.05.04.05.02.03.03.06.04.04.03.01.01.02.01v.01-.09l-.01-.07-.01-.08-.01-.09-.02-.11-.02-.12z" fill="#c3864d" fill-rule="evenodd"/><path class="cls-1" d="M32.8 23.45a8.84 8.84 0 01-.18 1.79 8.63 8.63 0 01-.36 1.26 8.86 8.86 0 01-4.85 5.08l-.42.17a8.69 8.69 0 01-.89.27l-.46.1a8.78 8.78 0 01-1.24.15h-.86a9 9 0 01-1-.11l-.45-.09a8.7 8.7 0 01-1.29-.39l-.42-.17a8.86 8.86 0 01-4.7-5 8.46 8.46 0 01-.27-.89v-.16q-.05-.22-.09-.45a8.91 8.91 0 01-.08-2.56q0-.24.07-.48v-.23a8.78 8.78 0 01.92-2.53q.14-.26.3-.51t.41-.58q.18-.24.38-.46t.49-.51l.44-.4A8.85 8.85 0 0120 15.56l.44-.21a8.71 8.71 0 011.51-.5l.46-.1a8.79 8.79 0 011.13-.13h.63a8.82 8.82 0 011.15.1l.47.09a8.76 8.76 0 011.53.47l.44.2a8.87 8.87 0 011.78 1.13L30 17a8.78 8.78 0 01.72.75q.19.23.37.47l.27.38q.16.25.31.5a8.76 8.76 0 01.76 1.76 8.48 8.48 0 01.22.87v.23c0 .16 0 .32.07.48a8.86 8.86 0 01.08 1.01z"/><path d="M32.68 22a19.56 19.56 0 01-3-.42l.32-.28a13.29 13.29 0 002.65.43 8.48 8.48 0 00-.22-.87 11.57 11.57 0 01-1.64-.44 9.86 9.86 0 00.88-1.32q-.15-.26-.31-.5a9.31 9.31 0 01-1.08 1.63l-.13-.05a10.58 10.58 0 00.94-2q-.18-.24-.37-.47a10.1 10.1 0 01-1 2.23l-.58-.29A12 12 0 0030 17l-.44-.39a11.72 11.72 0 01-.9 2.83 11.82 11.82 0 01-2.38-1.87 10.42 10.42 0 001.49-2.08l-.44-.2a10 10 0 01-1.38 1.93 11.73 11.73 0 01-.95-1.14 11.93 11.93 0 00.74-1.28l-.47-.09c-.17.33-.35.65-.55 1a11.55 11.55 0 01-.6-1.05h-.63a11.62 11.62 0 01-.6 1c-.19-.3-.37-.6-.53-.92l-.46.1a11.93 11.93 0 00.72 1.23 11.73 11.73 0 01-.89 1.12 10.06 10.06 0 01-1.34-1.85l-.44.21a10.43 10.43 0 001.44 2 11.8 11.8 0 01-2.33 1.84 11.71 11.71 0 01-.86-2.68l-.44.4a11.91 11.91 0 00.85 2.53l-.36.19a10.22 10.22 0 01-1-2.2q-.2.23-.38.46a10.59 10.59 0 00.91 2l-.31.14a9.31 9.31 0 01-1-1.51q-.16.25-.3.51a9.82 9.82 0 00.8 1.19 11.69 11.69 0 01-1.5.43 8.72 8.72 0 00-.23.9 13.32 13.32 0 002.52-.45l.26.25a19.44 19.44 0 01-2.82.43q0 .24-.07.48a19.92 19.92 0 003.34-.53 8.7 8.7 0 003.37 1.68 6.19 6.19 0 002.87.33l-.37-.25.91.16a6.45 6.45 0 001.44-.49 8.8 8.8 0 002.53-1.41 20 20 0 003.47.52c.04-.19.02-.35-.01-.47zm-2.21-1.18a12 12 0 001.42.42 12.94 12.94 0 01-1.55-.29zm-.57-.23h.07l-.17.18zm-14.09.65a12.06 12.06 0 001.53-.46l.13.15a12.84 12.84 0 01-1.66.27zm2.2-.47l-.18-.19.25-.11.16.23zm7.99-2.9a12.25 12.25 0 002.49 2l-.2.37a12.49 12.49 0 01-2.86-1.77c.16-.23.35-.41.57-.6zm-3 .53q.43-.39.81-.81.39.42.82.81-.39.32-.82.62-.38-.3-.81-.62zm.39.9A16 16 0 0120 21l-.27-.39a12.89 12.89 0 002.92-1.84c.22.18.45.36.68.53zm.92-.05c.24-.17.46-.35.68-.53a12.88 12.88 0 003 1.86l-.27.39a16 16 0 01-3.45-1.67zm.42-2.78a12.1 12.1 0 00.86 1.06q-.29.3-.61.58a12.11 12.11 0 01-.86-.85q.36-.39.66-.79zM23.85 15a12.33 12.33 0 00.65 1.09q-.3.43-.65.84-.34-.4-.65-.84a12.17 12.17 0 00.65-1.09zm-.92 1.49q.29.4.62.78a12.11 12.11 0 01-.86.85q-.32-.28-.61-.58a12.1 12.1 0 00.85-1.07zm-1.19 1.4c.18.19.38.37.58.55a12.47 12.47 0 01-2.81 1.75l-.21-.38a12.24 12.24 0 002.45-1.94zM18.86 20l.18.32-.3.12-.19-.28zm-.18 1.32l-.3-.27h.14l.24.3zm.62-.18l-.3-.27.25-.1v.07l.2.29zm.37.39h.15a7.17 7.17 0 00.74.79 7.34 7.34 0 01-.88-.74zm4.21 1.61a4.71 4.71 0 01-3.54-1.84 16.2 16.2 0 003.51-1.75 16.27 16.27 0 003.56 1.77 4.7 4.7 0 01-3.52 1.87zm2.69-.33h-.13a6.55 6.55 0 001.49-1.36l.37.12a6.92 6.92 0 01-1.73 1.29zm2.11-1.59l-.45-.13.21-.31.56.22zm.57-.68l-.54-.2.18-.32.54.27z" fill="#96999c"/><path class="cls-4" d="M15.46 25.81l6.3-3.81 2.17 1.3 2-1.3 6.61 3.61-.12.43-5.73-2.84.48.91-2.75-.49 1.77 1.19-3.51-1.08-.73.43-.36-.5-1.72.87.21-.87-4.51 2.44z"/><path class="cls-4" d="M32.26 26.5l.15-.45-.7-.83a13.65 13.65 0 00-7.82 2.55l-.34-.23a16.36 16.36 0 00-6.91-2.43l-.64.38a16.08 16.08 0 017.51 2.57l-.57.46a14.82 14.82 0 00-3.87-2.08 15.06 15.06 0 00-3.33-.8l-.29.18a3.37 3.37 0 00.22.68 12.58 12.58 0 011.63.47 11.94 11.94 0 014.41 2.78 13 13 0 00-1.34 1.78l.42.17A12.69 12.69 0 0122 30.05a10 10 0 01.69.85 10.72 10.72 0 00-.63 1.17l.45.09q.21-.44.46-.86a9 9 0 01.55 1h.86a8.5 8.5 0 01.53-1.19 9.76 9.76 0 01.71 1l.46-.1q-.19-.33-.41-.65c-.16-.24-.34-.47-.52-.7a8.59 8.59 0 01.51-.73A9.78 9.78 0 0127 31.75l.42-.17a10.15 10.15 0 00-1.43-2 9 9 0 016.27-3.08zm-.58-.84a11.36 11.36 0 00-6.89 2.79l-.52-.45a13.22 13.22 0 017.41-2.34zm-7.79 2.66l.57.44q-.28.27-.55.56-.29-.27-.61-.53zM22 29.4a12.38 12.38 0 00-4.56-2.87 13.09 13.09 0 00-1.26-.39 14.63 14.63 0 012.73.71 14.35 14.35 0 013.68 2q-.29.25-.59.55zm1 1.1q-.3-.4-.65-.78.31-.33.64-.63c.23.18.45.37.66.56q-.38.42-.65.86zm1 1.63a9.54 9.54 0 00-.72-1.25 10.58 10.58 0 01.69-.93q.37.36.69.74a8.89 8.89 0 00-.66 1.45zm.9-1.83q-.3-.35-.64-.68.27-.3.56-.57c.2.18.39.36.58.55q-.29.34-.53.7zm.79-1.05q-.25-.26-.53-.5a10.91 10.91 0 016.44-2.63 9.43 9.43 0 00-5.93 3.13zm6.82-3.6l-.09.37.1-.36z"/></g></svg>