<?xml version="1.0" encoding="UTF-8"?>
<!DOCTYPE svg PUBLIC "-//W3C//DTD SVG 1.1//EN" "http://www.w3.org/Graphics/SVG/1.1/DTD/svg11.dtd">
<svg xmlns="http://www.w3.org/2000/svg" version="1.1" width="160px" height="160px" style="shape-rendering:geometricPrecision; text-rendering:geometricPrecision; image-rendering:optimizeQuality; fill-rule:evenodd; clip-rule:evenodd" xmlns:xlink="http://www.w3.org/1999/xlink">
<g><path style="opacity:1" fill="#0365a8" d="M -0.5,-0.5 C 52.8333,-0.5 106.167,-0.5 159.5,-0.5C 159.5,52.8333 159.5,106.167 159.5,159.5C 106.167,159.5 52.8333,159.5 -0.5,159.5C -0.5,106.167 -0.5,52.8333 -0.5,-0.5 Z"/></g>
<g><path style="opacity:1" fill="#fbfdfd" d="M 101.5,35.5 C 101.443,36.609 101.11,37.609 100.5,38.5C 98.5956,38.7376 97.2623,39.7376 96.5,41.5C 74.2001,57.2624 53.0335,74.5958 33,93.5C 26.6089,68.4566 34.4422,49.2899 56.5,36C 71.3921,28.9661 86.3921,28.7995 101.5,35.5 Z"/></g>
<g><path style="opacity:1" fill="#9cc1dc" d="M 101.5,35.5 C 103.23,36.0256 104.564,37.0256 105.5,38.5C 104.5,39.1667 103.5,39.8333 102.5,40.5C 102.5,39.1667 101.833,38.5 100.5,38.5C 101.11,37.609 101.443,36.609 101.5,35.5 Z"/></g>
<g><path style="opacity:1" fill="#f9fbfd" d="M 105.5,38.5 C 105.938,38.4346 106.272,38.6012 106.5,39C 105.418,40.3297 104.751,41.8297 104.5,43.5C 88.1456,68.8628 73.8123,95.5294 61.5,123.5C 59.8125,124.568 58.1459,124.401 56.5,123C 53.2436,121.541 50.5769,119.374 48.5,116.5C 55.6865,103.445 63.3532,90.7785 71.5,78.5C 81.8266,65.8388 92.1599,53.1722 102.5,40.5C 103.5,39.8333 104.5,39.1667 105.5,38.5 Z"/></g>
<g><path style="opacity:1" fill="#68a2ca" d="M 100.5,38.5 C 99.7377,40.2624 98.4044,41.2624 96.5,41.5C 97.2623,39.7376 98.5956,38.7376 100.5,38.5 Z"/></g>
<g><path style="opacity:1" fill="#f8fbfc" d="M 100.5,38.5 C 101.833,38.5 102.5,39.1667 102.5,40.5C 90.4158,51.9147 79.4158,64.248 69.5,77.5C 60.9789,89.2063 51.9789,100.54 42.5,111.5C 38.6714,107.844 36.5047,103.51 36,98.5C 46.1366,87.3626 56.6366,76.5293 67.5,66C 77.6087,58.2902 87.2754,50.1236 96.5,41.5C 98.4044,41.2624 99.7377,40.2624 100.5,38.5 Z"/></g>
<g><path style="opacity:1" fill="#f8fbfc" d="M 109.5,41.5 C 98.0544,69.0058 88.8877,97.3392 82,126.5C 80.3023,127.733 78.3023,128.4 76,128.5C 73.135,128.316 70.3016,127.982 67.5,127.5C 71.4775,113.874 76.3109,100.541 82,87.5C 89.3563,72.6761 96.8563,58.0094 104.5,43.5C 105.885,42.4264 107.051,41.0931 108,39.5C 108.717,40.0442 109.217,40.7109 109.5,41.5 Z"/></g>
<g><path style="opacity:1" fill="#fbfcfd" d="M 109.5,41.5 C 129.258,58.2181 133.758,78.5514 123,102.5C 115.288,116.043 103.788,124.376 88.5,127.5C 90.0061,116.125 91.8395,104.792 94,93.5C 98.9768,76.1207 104.143,58.7874 109.5,41.5 Z"/></g>
<g><path style="opacity:1" fill="#2f78b3" d="M 102.5,40.5 C 92.1599,53.1722 81.8266,65.8388 71.5,78.5C 70.8333,78.1667 70.1667,77.8333 69.5,77.5C 79.4158,64.248 90.4158,51.9147 102.5,40.5 Z"/></g>
</svg>
