<?xml version="1.0" encoding="UTF-8"?>
<!DOCTYPE svg PUBLIC "-//W3C//DTD SVG 1.1//EN" "http://www.w3.org/Graphics/SVG/1.1/DTD/svg11.dtd">
<svg xmlns="http://www.w3.org/2000/svg" version="1.1" width="160px" height="160px" style="shape-rendering:geometricPrecision; text-rendering:geometricPrecision; image-rendering:optimizeQuality; fill-rule:evenodd; clip-rule:evenodd" xmlns:xlink="http://www.w3.org/1999/xlink">
<g><path style="opacity:1" fill="#035998" d="M -0.5,-0.5 C 52.8333,-0.5 106.167,-0.5 159.5,-0.5C 159.5,52.8333 159.5,106.167 159.5,159.5C 106.167,159.5 52.8333,159.5 -0.5,159.5C -0.5,106.167 -0.5,52.8333 -0.5,-0.5 Z"/></g>
<g><path style="opacity:1" fill="#61737e" d="M 74.5,33.5 C 74.631,32.7611 74.4643,32.0944 74,31.5C 73.34,33.3237 72.1733,34.657 70.5,35.5C 70.5,34.8333 70.5,34.1667 70.5,33.5C 71.6801,31.9855 72.6801,30.3188 73.5,28.5C 75.3788,30.0697 75.7122,31.7363 74.5,33.5 Z"/></g>
<g><path style="opacity:1" fill="#597180" d="M 73.5,35.5 C 73.5979,37.5529 72.9313,39.2196 71.5,40.5C 70.5,41.1667 69.5,41.8333 68.5,42.5C 69.7859,39.883 71.4525,37.5496 73.5,35.5 Z"/></g>
<g><path style="opacity:1" fill="#537081" d="M 65.5,38.5 C 63.8532,41.4735 61.8532,44.1401 59.5,46.5C 59.6349,42.3729 61.6349,39.7062 65.5,38.5 Z"/></g>
<g><path style="opacity:1" fill="#6a767c" d="M 52.5,43.5 C 51.4884,44.8717 50.4884,46.205 49.5,47.5C 48.2857,45.192 48.2857,42.8587 49.5,40.5C 51.2131,40.8793 52.2131,41.8793 52.5,43.5 Z"/></g>
<g><path style="opacity:1" fill="#8f8170" d="M 86.5,53.5 C 85.5768,54.3029 84.5768,54.4696 83.5,54C 85.0074,53.1627 85.5074,51.9961 85,50.5C 83.647,51.6853 82.4803,53.0186 81.5,54.5C 80.7025,54.0431 80.3691,53.3764 80.5,52.5C 79.5178,53.1408 78.5178,53.8075 77.5,54.5C 76.8933,54.3764 76.56,54.0431 76.5,53.5C 78.2624,52.7377 79.2624,51.4044 79.5,49.5C 80.9063,49.0269 81.573,48.0269 81.5,46.5C 83.2624,45.7377 84.2624,44.4044 84.5,42.5C 85.8267,41.1999 87.16,39.8665 88.5,38.5C 89.1924,39.0253 89.6924,39.6919 90,40.5C 90.8373,38.9926 92.0039,38.4926 93.5,39C 90.77,41.1301 88.77,43.7968 87.5,47C 88.3081,47.3076 88.9747,47.8076 89.5,48.5C 88.0476,49.9397 87.0476,51.6064 86.5,53.5 Z"/></g>
<g><path style="opacity:1" fill="#7b7b77" d="M 102.5,45.5 C 100.984,48.5331 98.984,51.1997 96.5,53.5C 96.7031,51.9557 97.3698,50.6223 98.5,49.5C 98.3333,49.1667 98.1667,48.8333 98,48.5C 97.2917,49.3805 96.4584,50.0472 95.5,50.5C 95.427,48.9731 96.0937,47.9731 97.5,47.5C 99.1454,46.5213 100.479,45.188 101.5,43.5C 102.298,43.9569 102.631,44.6236 102.5,45.5 Z"/></g>
<g><path style="opacity:1" fill="#4d6d83" d="M 84.5,42.5 C 84.2624,44.4044 83.2624,45.7377 81.5,46.5C 81.7376,44.5956 82.7376,43.2623 84.5,42.5 Z"/></g>
<g><path style="opacity:1" fill="#9b866b" d="M 107.5,46.5 C 106.662,46.1583 106.328,45.4916 106.5,44.5C 107.837,43.6851 108.837,42.5185 109.5,41C 110.167,40.3333 110.833,40.3333 111.5,41C 110.335,42.9917 109.002,44.825 107.5,46.5 Z"/></g>
<g><path style="opacity:1" fill="#5b7180" d="M 106.5,44.5 C 106.328,45.4916 106.662,46.1583 107.5,46.5C 106.685,47.8366 105.518,48.8366 104,49.5C 103.601,49.2716 103.435,48.9382 103.5,48.5C 103.738,46.5956 104.738,45.2623 106.5,44.5 Z"/></g>
<g><path style="opacity:1" fill="#4c6e83" d="M 81.5,46.5 C 81.573,48.0269 80.9063,49.0269 79.5,49.5C 79.427,47.9731 80.0937,46.9731 81.5,46.5 Z"/></g>
<g><path style="opacity:1" fill="#a0876a" d="M 97.5,47.5 C 96.0937,47.9731 95.427,48.9731 95.5,50.5C 93.7376,51.2623 92.7376,52.5956 92.5,54.5C 89.477,57.1784 88.8103,56.5118 90.5,52.5C 92.841,50.3437 94.841,47.8437 96.5,45C 97.1667,44.3333 97.8333,44.3333 98.5,45C 97.7476,45.6708 97.4142,46.5041 97.5,47.5 Z"/></g>
<g><path style="opacity:1" fill="#a0876a" d="M 106.5,44.5 C 104.738,45.2623 103.738,46.5956 103.5,48.5C 101.453,50.5496 99.7859,52.883 98.5,55.5C 94.1683,59.532 93.5016,58.8654 96.5,53.5C 98.984,51.1997 100.984,48.5331 102.5,45.5C 103.482,44.8592 104.482,44.1925 105.5,43.5C 106.107,43.6236 106.44,43.9569 106.5,44.5 Z"/></g>
<g><path style="opacity:1" fill="#62737e" d="M 71.5,47.5 C 72.609,47.5569 73.609,47.8902 74.5,48.5C 73.8333,49.8333 72.8333,50.8333 71.5,51.5C 71.2252,49.1582 70.3919,49.1582 69,51.5C 68.7207,49.5878 69.5541,48.2544 71.5,47.5 Z"/></g>
<g><path style="opacity:1" fill="#557081" d="M 48.5,52.5 C 47.1667,51.8333 47.1667,51.1667 48.5,50.5C 49.4584,50.0472 50.2917,49.3805 51,48.5C 51.2793,50.4122 50.4459,51.7456 48.5,52.5 Z"/></g>
<g><path style="opacity:1" fill="#4e6e83" d="M 80.5,52.5 C 80.6854,50.8042 81.5187,49.4709 83,48.5C 83.2793,50.4122 82.4459,51.7456 80.5,52.5 Z"/></g>
<g><path style="opacity:1" fill="#9c866b" d="M 84.5,42.5 C 82.7376,43.2623 81.7376,44.5956 81.5,46.5C 80.0937,46.9731 79.427,47.9731 79.5,49.5C 78.2058,50.2899 77.0391,51.2899 76,52.5C 75.6667,51.8333 75.3333,51.1667 75,50.5C 73.5187,51.4709 72.6854,52.8042 72.5,54.5C 71.5416,54.9528 70.7083,55.6195 70,56.5C 69.5357,55.9056 69.369,55.2389 69.5,54.5C 70.9063,54.0269 71.573,53.0269 71.5,51.5C 72.8333,50.8333 73.8333,49.8333 74.5,48.5C 75.8421,45.8342 77.6755,43.5008 80,41.5C 80.4643,42.0944 80.631,42.7611 80.5,43.5C 82.1454,42.5213 83.4787,41.188 84.5,39.5C 85.087,40.2334 85.087,41.2334 84.5,42.5 Z"/></g>
<g><path style="opacity:1" fill="#4c6e83" d="M 80.5,43.5 C 80.5386,44.7562 80.0386,45.7562 79,46.5C 78.4153,45.0024 78.9153,44.0024 80.5,43.5 Z"/></g>
<g><path style="opacity:1" fill="#4e6e83" d="M 71.5,51.5 C 71.573,53.0269 70.9063,54.0269 69.5,54.5C 69.427,52.9731 70.0937,51.9731 71.5,51.5 Z"/></g>
<g><path style="opacity:1" fill="#506f83" d="M 95.5,50.5 C 95.2624,52.4044 94.2624,53.7377 92.5,54.5C 92.7376,52.5956 93.7376,51.2623 95.5,50.5 Z"/></g>
<g><path style="opacity:1" fill="#516e82" d="M 52.5,51.5 C 52.2624,53.4044 51.2624,54.7377 49.5,55.5C 49.7376,53.5956 50.7376,52.2623 52.5,51.5 Z"/></g>
<g><path style="opacity:1" fill="#797a77" d="M 79.5,49.5 C 79.2624,51.4044 78.2624,52.7377 76.5,53.5C 75.5178,54.1408 74.5178,54.8075 73.5,55.5C 72.8933,55.3764 72.56,55.0431 72.5,54.5C 72.6854,52.8042 73.5187,51.4709 75,50.5C 75.3333,51.1667 75.6667,51.8333 76,52.5C 77.0391,51.2899 78.2058,50.2899 79.5,49.5 Z"/></g>
<g><path style="opacity:1" fill="#a0876a" d="M 90.5,52.5 C 89.2876,53.2299 88.2876,54.2299 87.5,55.5C 86.7025,55.0431 86.3691,54.3764 86.5,53.5C 87.7942,52.7101 88.9609,51.7101 90,50.5C 90.4643,51.0944 90.631,51.7611 90.5,52.5 Z"/></g>
<g><path style="opacity:1" fill="#537081" d="M 58.5,52.5 C 58.369,53.2389 58.5357,53.9056 59,54.5C 59.6543,53.3044 60.1543,53.3044 60.5,54.5C 58.7188,57.0912 56.7188,59.4245 54.5,61.5C 54.631,60.7611 54.4643,60.0944 54,59.5C 53.2917,60.3805 52.4584,61.0472 51.5,61.5C 51.427,59.9731 52.0937,58.9731 53.5,58.5C 56.545,57.6057 58.2116,55.6057 58.5,52.5 Z"/></g>
<g><path style="opacity:1" fill="#a38869" d="M 96.5,53.5 C 94.8546,54.4787 93.5213,55.812 92.5,57.5C 91.913,56.7666 91.913,55.7666 92.5,54.5C 94.2624,53.7377 95.2624,52.4044 95.5,50.5C 96.4584,50.0472 97.2917,49.3805 98,48.5C 98.1667,48.8333 98.3333,49.1667 98.5,49.5C 97.3698,50.6223 96.7031,51.9557 96.5,53.5 Z"/></g>
<g><path style="opacity:1" fill="#4b6d84" d="M 108.5,57.5 C 107.206,58.2899 106.039,59.2899 105,60.5C 104.833,60.1667 104.667,59.8333 104.5,59.5C 106.185,57.4293 107.852,55.4293 109.5,53.5C 110.423,52.6971 111.423,52.5304 112.5,53C 110.959,54.3712 109.625,55.8712 108.5,57.5 Z"/></g>
<g><path style="opacity:1" fill="#396b96" d="M 86.5,53.5 C 86.3691,54.3764 86.7025,55.0431 87.5,55.5C 88.2876,54.2299 89.2876,53.2299 90.5,52.5C 88.8103,56.5118 89.477,57.1784 92.5,54.5C 91.913,55.7666 91.913,56.7666 92.5,57.5C 93.5213,55.812 94.8546,54.4787 96.5,53.5C 93.5016,58.8654 94.1683,59.532 98.5,55.5C 97.6343,57.144 97.1343,58.8107 97,60.5C 99.1734,57.723 99.6734,57.8897 98.5,61C 100.333,62.1667 101.833,63.6667 103,65.5C 104,64.5 105,63.5 106,62.5C 105.667,64.1667 105.333,65.8333 105,67.5C 105.708,66.6195 106.542,65.9528 107.5,65.5C 107.489,67.0174 106.823,68.1841 105.5,69C 106.044,69.7172 106.711,70.2172 107.5,70.5C 107.433,71.9587 107.766,73.2921 108.5,74.5C 108.56,75.0431 108.893,75.3764 109.5,75.5C 110.518,74.8075 111.518,74.1408 112.5,73.5C 111.952,75.3936 110.952,77.0603 109.5,78.5C 110.274,79.7112 111.107,79.7112 112,78.5C 112.115,80.1068 111.615,81.6068 110.5,83C 110.683,84.6836 111.35,84.8502 112.5,83.5C 112.08,85.0936 111.414,86.5936 110.5,88C 110.683,89.6836 111.35,89.8502 112.5,88.5C 111.551,90.7772 110.218,92.7772 108.5,94.5C 110.554,68.3884 98.5536,55.8884 72.5,57C 52.7102,65.0836 46.3769,79.2503 53.5,99.5C 54.2565,100.773 54.9232,100.773 55.5,99.5C 60.0704,100.441 64.737,100.774 69.5,100.5C 69.5,100.833 69.5,101.167 69.5,101.5C 63.5,101.5 57.5,101.5 51.5,101.5C 51.8693,99.0065 51.2027,98.3398 49.5,99.5C 51.19,95.8127 50.69,95.146 48,97.5C 47.8333,97.1667 47.6667,96.8333 47.5,96.5C 49.3788,94.9303 49.7122,93.2637 48.5,91.5C 48.7373,90.209 48.404,89.209 47.5,88.5C 48.6857,87.0387 48.6857,85.7054 47.5,84.5C 49.4239,76.6508 53.0906,69.3174 58.5,62.5C 61.1148,60.6212 63.2814,58.2879 65,55.5C 65.3333,56.1667 65.6667,56.8333 66,57.5C 67.0391,56.2899 68.2058,55.2899 69.5,54.5C 69.369,55.2389 69.5357,55.9056 70,56.5C 70.7083,55.6195 71.5416,54.9528 72.5,54.5C 72.56,55.0431 72.8933,55.3764 73.5,55.5C 74.5178,54.8075 75.5178,54.1408 76.5,53.5C 76.56,54.0431 76.8933,54.3764 77.5,54.5C 78.5178,53.8075 79.5178,53.1408 80.5,52.5C 80.3691,53.3764 80.7025,54.0431 81.5,54.5C 82.4803,53.0186 83.647,51.6853 85,50.5C 85.5074,51.9961 85.0074,53.1627 83.5,54C 84.5768,54.4696 85.5768,54.3029 86.5,53.5 Z"/></g>
<g><path style="opacity:1" fill="#9b866b" d="M 52.5,43.5 C 53.7736,44.1894 53.7736,45.0228 52.5,46C 53.3081,46.3076 53.9747,46.8076 54.5,47.5C 53.3698,48.6223 52.7031,49.9557 52.5,51.5C 50.7376,52.2623 49.7376,53.5956 49.5,55.5C 47.7376,56.2623 46.7376,57.5956 46.5,59.5C 45.6365,60.463 44.9698,60.463 44.5,59.5C 45.8611,57.1495 47.1944,54.8162 48.5,52.5C 50.4459,51.7456 51.2793,50.4122 51,48.5C 50.2917,49.3805 49.4584,50.0472 48.5,50.5C 48.5569,49.391 48.8902,48.391 49.5,47.5C 50.4884,46.205 51.4884,44.8717 52.5,43.5 Z"/></g>
<g><path style="opacity:1" fill="#96846e" d="M 74.5,33.5 C 74.1667,34.1667 73.8333,34.8333 73.5,35.5C 71.4525,37.5496 69.7859,39.883 68.5,42.5C 69.5,41.8333 70.5,41.1667 71.5,40.5C 70.8333,42.1667 70.1667,43.8333 69.5,45.5C 71.2027,44.3398 71.8693,45.0065 71.5,47.5C 69.5541,48.2544 68.7207,49.5878 69,51.5C 70.3919,49.1582 71.2252,49.1582 71.5,51.5C 70.0937,51.9731 69.427,52.9731 69.5,54.5C 68.2058,55.2899 67.0391,56.2899 66,57.5C 65.6667,56.8333 65.3333,56.1667 65,55.5C 63.2814,58.2879 61.1148,60.6212 58.5,62.5C 58.6068,60.6214 58.1068,60.2881 57,61.5C 52.6514,66.8784 48.8181,72.5451 45.5,78.5C 43.7376,79.2623 42.7376,80.5956 42.5,82.5C 41.399,83.7997 40.0657,84.2997 38.5,84C 40.1412,82.871 41.1412,81.371 41.5,79.5C 43.2624,78.7377 44.2624,77.4044 44.5,75.5C 45.9063,75.0269 46.573,74.0269 46.5,72.5C 48.2624,71.7377 49.2624,70.4044 49.5,68.5C 51.2624,67.7377 52.2624,66.4044 52.5,64.5C 53.9063,64.0269 54.573,63.0269 54.5,61.5C 56.7188,59.4245 58.7188,57.0912 60.5,54.5C 60.1543,53.3044 59.6543,53.3044 59,54.5C 58.5357,53.9056 58.369,53.2389 58.5,52.5C 59.3382,52.1583 59.6716,51.4916 59.5,50.5C 58.3143,49.2946 58.3143,47.9613 59.5,46.5C 61.8532,44.1401 63.8532,41.4735 65.5,38.5C 66.8333,36.5 68.5,34.8333 70.5,33.5C 70.5,34.1667 70.5,34.8333 70.5,35.5C 72.1733,34.657 73.34,33.3237 74,31.5C 74.4643,32.0944 74.631,32.7611 74.5,33.5 Z"/></g>
<g><path style="opacity:1" fill="#4f6e83" d="M 59.5,50.5 C 59.6854,48.8042 60.5187,47.4709 62,46.5C 62.2793,48.4122 61.4459,49.7456 59.5,50.5 Z"/></g>
<g><path style="opacity:1" fill="#526f82" d="M 66.5,45.5 C 66.3146,47.1958 65.4813,48.5291 64,49.5C 63.7207,47.5878 64.5541,46.2544 66.5,45.5 Z"/></g>
<g><path style="opacity:1" fill="#4e6e83" d="M 69.5,45.5 C 69.5386,46.7562 69.0386,47.7562 68,48.5C 67.4153,47.0024 67.9153,46.0024 69.5,45.5 Z"/></g>
<g><path style="opacity:1" fill="#4d6e83" d="M 68.5,42.5 C 68.573,44.0269 67.9063,45.0269 66.5,45.5C 66.427,43.9731 67.0937,42.9731 68.5,42.5 Z"/></g>
<g><path style="opacity:1" fill="#4c6e83" d="M 67.5,39.5 C 67.5386,40.7562 67.0386,41.7562 66,42.5C 65.4153,41.0024 65.9153,40.0024 67.5,39.5 Z"/></g>
<g><path style="opacity:1" fill="#4d6e83" d="M 70.5,35.5 C 70.2624,37.4044 69.2624,38.7377 67.5,39.5C 67.7376,37.5956 68.7376,36.2623 70.5,35.5 Z"/></g>
<g><path style="opacity:1" fill="#4e6e83" d="M 49.5,55.5 C 49.2624,57.4044 48.2624,58.7377 46.5,59.5C 46.7376,57.5956 47.7376,56.2623 49.5,55.5 Z"/></g>
<g><path style="opacity:1" fill="#105d9b" d="M 108.5,94.5 C 108.263,95.791 108.596,96.791 109.5,97.5C 107.833,100.167 106.167,102.833 104.5,105.5C 103.833,105.5 103.167,105.5 102.5,105.5C 91.5519,103.843 80.5519,102.509 69.5,101.5C 69.5,101.167 69.5,100.833 69.5,100.5C 64.737,100.774 60.0704,100.441 55.5,99.5C 48.1285,80.4195 53.7951,66.9195 72.5,59C 90.1436,56.4013 101.644,63.568 107,80.5C 108.09,89.2309 105.923,97.0642 100.5,104C 101.996,104.507 103.163,104.007 104,102.5C 105.605,99.8085 107.105,97.1418 108.5,94.5 Z"/></g>
<g><path style="opacity:1" fill="#908270" d="M 109.5,53.5 C 107.852,55.4293 106.185,57.4293 104.5,59.5C 104.667,59.8333 104.833,60.1667 105,60.5C 106.039,59.2899 107.206,58.2899 108.5,57.5C 109.874,57.7921 111.207,58.1254 112.5,58.5C 111.094,58.9731 110.427,59.9731 110.5,61.5C 108.738,62.2623 107.738,63.5956 107.5,65.5C 106.542,65.9528 105.708,66.6195 105,67.5C 105.333,65.8333 105.667,64.1667 106,62.5C 105,63.5 104,64.5 103,65.5C 101.833,63.6667 100.333,62.1667 98.5,61C 99.6734,57.8897 99.1734,57.723 97,60.5C 97.1343,58.8107 97.6343,57.144 98.5,55.5C 99.6879,54.3157 100.855,54.3157 102,55.5C 104.265,52.4144 106.765,51.7477 109.5,53.5 Z"/></g>
<g><path style="opacity:1" fill="#a18869" d="M 128.5,61.5 C 127.185,62.4756 125.852,63.4756 124.5,64.5C 123.893,64.3764 123.56,64.0431 123.5,63.5C 125.262,62.7377 126.262,61.4044 126.5,59.5C 129.457,57.9749 130.124,58.6416 128.5,61.5 Z"/></g>
<g><path style="opacity:1" fill="#516f82" d="M 126.5,57.5 C 128.292,57.366 129.958,57.6993 131.5,58.5C 131.047,59.4584 130.381,60.2917 129.5,61C 130.094,61.4643 130.761,61.631 131.5,61.5C 130.5,62.8333 129.5,62.8333 128.5,61.5C 130.124,58.6416 129.457,57.9749 126.5,59.5C 126.5,58.8333 126.5,58.1667 126.5,57.5 Z"/></g>
<g><path style="opacity:1" fill="#486d84" d="M 112.5,58.5 C 112.573,60.0269 111.906,61.0269 110.5,61.5C 110.427,59.9731 111.094,58.9731 112.5,58.5 Z"/></g>
<g><path style="opacity:1" fill="#747979" d="M 114.5,57.5 C 116.384,57.063 118.384,57.063 120.5,57.5C 119.567,60.3702 117.9,62.7036 115.5,64.5C 117.19,60.8127 116.69,60.146 114,62.5C 113.667,60.9532 114.167,59.6199 115.5,58.5C 115.376,57.8933 115.043,57.56 114.5,57.5 Z"/></g>
<g><path style="opacity:1" fill="#a18869" d="M 126.5,57.5 C 126.5,58.1667 126.5,58.8333 126.5,59.5C 124.738,60.2623 123.738,61.5956 123.5,63.5C 121.612,64.9397 119.945,66.6064 118.5,68.5C 117.913,67.7666 117.913,66.7666 118.5,65.5C 119.906,65.0269 120.573,64.0269 120.5,62.5C 122.262,61.7377 123.262,60.4044 123.5,58.5C 124.391,57.8902 125.391,57.5569 126.5,57.5 Z"/></g>
<g><path style="opacity:1" fill="#a88a67" d="M 131.5,58.5 C 131.833,58.5 132.167,58.5 132.5,58.5C 132.443,59.609 132.11,60.609 131.5,61.5C 130.761,61.631 130.094,61.4643 129.5,61C 130.381,60.2917 131.047,59.4584 131.5,58.5 Z"/></g>
<g><path style="opacity:1" fill="#4d6d84" d="M 123.5,58.5 C 123.262,60.4044 122.262,61.7377 120.5,62.5C 120.738,60.5956 121.738,59.2623 123.5,58.5 Z"/></g>
<g><path style="opacity:1" fill="#70777a" d="M 132.5,58.5 C 136.522,60.3686 136.189,61.3686 131.5,61.5C 132.11,60.609 132.443,59.609 132.5,58.5 Z"/></g>
<g><path style="opacity:1" fill="#516f82" d="M 126.5,59.5 C 126.262,61.4044 125.262,62.7377 123.5,63.5C 123.738,61.5956 124.738,60.2623 126.5,59.5 Z"/></g>
<g><path style="opacity:1" fill="#97846d" d="M 53.5,58.5 C 52.0937,58.9731 51.427,59.9731 51.5,61.5C 52.4584,61.0472 53.2917,60.3805 54,59.5C 54.4643,60.0944 54.631,60.7611 54.5,61.5C 53.0937,61.9731 52.427,62.9731 52.5,64.5C 50.7376,65.2623 49.7376,66.5956 49.5,68.5C 47.7376,69.2623 46.7376,70.5956 46.5,72.5C 45.0937,72.9731 44.427,73.9731 44.5,75.5C 42.7376,76.2623 41.7376,77.5956 41.5,79.5C 40.2058,80.2899 39.0391,81.2899 38,82.5C 37.5357,81.9056 37.369,81.2389 37.5,80.5C 36.596,79.791 36.2627,78.791 36.5,77.5C 35.596,76.791 35.2627,75.791 35.5,74.5C 34.596,73.791 34.2627,72.791 34.5,71.5C 36.5,69.5 38.5,67.5 40.5,65.5C 41.9663,66.347 42.7996,67.6803 43,69.5C 44.7498,67.2657 46.2498,64.9324 47.5,62.5C 46.5416,62.9528 45.7083,63.6195 45,64.5C 44.8333,64.1667 44.6667,63.8333 44.5,63.5C 45.6302,62.3777 46.2969,61.0443 46.5,59.5C 48.2624,58.7377 49.2624,57.4044 49.5,55.5C 51.2624,54.7377 52.2624,53.4044 52.5,51.5C 53.3635,50.537 54.0302,50.537 54.5,51.5C 54.3769,53.8357 54.0435,56.1691 53.5,58.5 Z"/></g>
<g><path style="opacity:1" fill="#4f6e83" d="M 47.5,62.5 C 47.6854,60.8042 48.5187,59.4709 50,58.5C 50.2793,60.4122 49.4459,61.7456 47.5,62.5 Z"/></g>
<g><path style="opacity:1" fill="#496d84" d="M 54.5,61.5 C 54.573,63.0269 53.9063,64.0269 52.5,64.5C 52.427,62.9731 53.0937,61.9731 54.5,61.5 Z"/></g>
<g><path style="opacity:1" fill="#9e876b" d="M 114.5,57.5 C 115.043,57.56 115.376,57.8933 115.5,58.5C 114.167,59.6199 113.667,60.9532 114,62.5C 116.69,60.146 117.19,60.8127 115.5,64.5C 113.738,65.2623 112.738,66.5956 112.5,68.5C 111.399,69.7997 110.066,70.2997 108.5,70C 110.007,69.1627 110.507,67.9961 110,66.5C 108.519,67.4709 107.685,68.8042 107.5,70.5C 106.711,70.2172 106.044,69.7172 105.5,69C 106.823,68.1841 107.489,67.0174 107.5,65.5C 109.262,64.7377 110.262,63.4044 110.5,61.5C 111.906,61.0269 112.573,60.0269 112.5,58.5C 113.167,58.1667 113.833,57.8333 114.5,57.5 Z"/></g>
<g><path style="opacity:1" fill="#4f6e83" d="M 51.5,61.5 C 51.2624,63.4044 50.2624,64.7377 48.5,65.5C 48.7376,63.5956 49.7376,62.2623 51.5,61.5 Z"/></g>
<g><path style="opacity:1" fill="#4e6e83" d="M 110.5,61.5 C 110.262,63.4044 109.262,64.7377 107.5,65.5C 107.738,63.5956 108.738,62.2623 110.5,61.5 Z"/></g>
<g><path style="opacity:1" fill="#4c6e83" d="M 120.5,62.5 C 120.573,64.0269 119.906,65.0269 118.5,65.5C 118.427,63.9731 119.094,62.9731 120.5,62.5 Z"/></g>
<g><path style="opacity:1" fill="#6f777a" d="M 40.5,65.5 C 38.5,67.5 36.5,69.5 34.5,71.5C 31.4755,66.4133 32.3088,61.7467 37,57.5C 37.6172,58.4491 37.4506,59.2825 36.5,60C 38.4422,61.3819 39.7755,63.2152 40.5,65.5 Z"/></g>
<g><path style="opacity:1" fill="#4d6e83" d="M 115.5,64.5 C 115.262,66.4044 114.262,67.7377 112.5,68.5C 112.738,66.5956 113.738,65.2623 115.5,64.5 Z"/></g>
<g><path style="opacity:1" fill="#4f6e83" d="M 52.5,64.5 C 52.2624,66.4044 51.2624,67.7377 49.5,68.5C 49.7376,66.5956 50.7376,65.2623 52.5,64.5 Z"/></g>
<g><path style="opacity:1" fill="#496d84" d="M 48.5,65.5 C 48.5386,66.7562 48.0386,67.7562 47,68.5C 46.4153,67.0024 46.9153,66.0024 48.5,65.5 Z"/></g>
<g><path style="opacity:1" fill="#4d6e83" d="M 49.5,68.5 C 49.2624,70.4044 48.2624,71.7377 46.5,72.5C 46.7376,70.5956 47.7376,69.2623 49.5,68.5 Z"/></g>
<g><path style="opacity:1" fill="#a28869" d="M 120.5,57.5 C 121.791,57.2627 122.791,57.596 123.5,58.5C 121.738,59.2623 120.738,60.5956 120.5,62.5C 119.094,62.9731 118.427,63.9731 118.5,65.5C 116.738,66.2623 115.738,67.5956 115.5,69.5C 113.738,70.2623 112.738,71.5956 112.5,73.5C 111.518,74.1408 110.518,74.8075 109.5,75.5C 108.893,75.3764 108.56,75.0431 108.5,74.5C 110.326,72.8525 111.66,70.8525 112.5,68.5C 114.262,67.7377 115.262,66.4044 115.5,64.5C 117.9,62.7036 119.567,60.3702 120.5,57.5 Z"/></g>
<g><path style="opacity:1" fill="#4e6e83" d="M 35.5,74.5 C 35.6854,72.8042 36.5187,71.4709 38,70.5C 38.2793,72.4122 37.4459,73.7456 35.5,74.5 Z"/></g>
<g><path style="opacity:1" fill="#747979" d="M 112.5,68.5 C 111.66,70.8525 110.326,72.8525 108.5,74.5C 107.766,73.2921 107.433,71.9587 107.5,70.5C 107.685,68.8042 108.519,67.4709 110,66.5C 110.507,67.9961 110.007,69.1627 108.5,70C 110.066,70.2997 111.399,69.7997 112.5,68.5 Z"/></g>
<g><path style="opacity:1" fill="#4e6e83" d="M 115.5,69.5 C 115.262,71.4044 114.262,72.7377 112.5,73.5C 112.738,71.5956 113.738,70.2623 115.5,69.5 Z"/></g>
<g><path style="opacity:1" fill="#e2ecf3" d="M 108.5,94.5 C 107.105,97.1418 105.605,99.8085 104,102.5C 103.163,104.007 101.996,104.507 100.5,104C 105.923,97.0642 108.09,89.2309 107,80.5C 101.644,63.568 90.1436,56.4013 72.5,59C 53.7951,66.9195 48.1285,80.4195 55.5,99.5C 54.9232,100.773 54.2565,100.773 53.5,99.5C 46.3769,79.2503 52.7102,65.0836 72.5,57C 98.5536,55.8884 110.554,68.3884 108.5,94.5 Z"/></g>
<g><path style="opacity:1" fill="#f4f8fa" d="M 77.5,66.5 C 78.3382,66.8417 78.6716,67.5084 78.5,68.5C 78.5,69.8333 79.1667,70.5 80.5,70.5C 81.1667,70.5 81.8333,70.5 82.5,70.5C 86.8461,70.3343 91.1794,70.501 95.5,71C 93.5643,71.813 91.5643,72.313 89.5,72.5C 87.192,71.2857 84.8587,71.2857 82.5,72.5C 83.2427,73.1818 83.9094,73.8485 84.5,74.5C 83.8333,74.5 83.5,74.8333 83.5,75.5C 83.6716,76.4916 83.3382,77.1583 82.5,77.5C 81.0694,76.579 79.7361,75.579 78.5,74.5C 79.5,74.5 80.5,74.5 81.5,74.5C 81.5,73.5 81.5,72.5 81.5,71.5C 79.5168,71.1568 78.1834,71.8235 77.5,73.5C 77.1583,74.3382 76.4916,74.6716 75.5,74.5C 75.1667,74.5 74.8333,74.5 74.5,74.5C 75.0906,73.8485 75.7573,73.1818 76.5,72.5C 73.8438,71.3855 71.1771,71.3855 68.5,72.5C 66.4357,72.313 64.4357,71.813 62.5,71C 67.4889,70.5007 72.4889,70.3341 77.5,70.5C 77.5,69.1667 77.5,67.8333 77.5,66.5 Z"/></g>
<g><path style="opacity:1" fill="#b9d0e3" d="M 82.5,70.5 C 81.8333,70.5 81.1667,70.5 80.5,70.5C 80.8693,68.0065 80.2027,67.3398 78.5,68.5C 78.6716,67.5084 78.3382,66.8417 77.5,66.5C 77.8781,63.9779 78.7114,61.6446 80,59.5C 80.9949,63.1451 81.8283,66.8117 82.5,70.5 Z"/></g>
<g><path style="opacity:1" fill="#1a69a3" d="M 80.5,70.5 C 79.1667,70.5 78.5,69.8333 78.5,68.5C 80.2027,67.3398 80.8693,68.0065 80.5,70.5 Z"/></g>
<g><path style="opacity:1" fill="#a5c2da" d="M 74.5,74.5 C 72.3024,74.1249 70.3024,73.4582 68.5,72.5C 71.1771,71.3855 73.8438,71.3855 76.5,72.5C 75.7573,73.1818 75.0906,73.8485 74.5,74.5 Z"/></g>
<g><path style="opacity:1" fill="#3e78ad" d="M 78.5,74.5 C 78.5,73.8333 78.1667,73.5 77.5,73.5C 78.1834,71.8235 79.5168,71.1568 81.5,71.5C 81.5,72.5 81.5,73.5 81.5,74.5C 80.5,74.5 79.5,74.5 78.5,74.5 Z"/></g>
<g><path style="opacity:1" fill="#b0cadf" d="M 89.5,72.5 C 88.0697,73.5375 86.403,74.2041 84.5,74.5C 83.9094,73.8485 83.2427,73.1818 82.5,72.5C 84.8587,71.2857 87.192,71.2857 89.5,72.5 Z"/></g>
<g><path style="opacity:1" fill="#4c6e83" d="M 46.5,72.5 C 46.573,74.0269 45.9063,75.0269 44.5,75.5C 44.427,73.9731 45.0937,72.9731 46.5,72.5 Z"/></g>
<g><path style="opacity:1" fill="#516f82" d="M 40.5,76.5 C 40.6854,74.8042 41.5187,73.4709 43,72.5C 43.2793,74.4122 42.4459,75.7456 40.5,76.5 Z"/></g>
<g><path style="opacity:1" fill="#97846d" d="M 115.5,69.5 C 116.833,69.5 117.5,70.1667 117.5,71.5C 118.895,70.1854 119.895,70.5188 120.5,72.5C 118.1,74.2964 116.433,76.6298 115.5,79.5C 113.738,80.2623 112.738,81.5956 112.5,83.5C 111.35,84.8502 110.683,84.6836 110.5,83C 111.615,81.6068 112.115,80.1068 112,78.5C 111.107,79.7112 110.274,79.7112 109.5,78.5C 110.952,77.0603 111.952,75.3936 112.5,73.5C 114.262,72.7377 115.262,71.4044 115.5,69.5 Z"/></g>
<g><path style="opacity:1" fill="#4c6e83" d="M 117.5,71.5 C 117.539,72.7562 117.039,73.7562 116,74.5C 115.415,73.0024 115.915,72.0024 117.5,71.5 Z"/></g>
<g><path style="opacity:1" fill="#a0876a" d="M 120.5,72.5 C 123.012,73.2162 123.012,74.2162 120.5,75.5C 119.913,74.7666 119.913,73.7666 120.5,72.5 Z"/></g>
<g><path style="opacity:1" fill="#4e6e83" d="M 36.5,77.5 C 36.6854,75.8042 37.5187,74.4709 39,73.5C 39.2793,75.4122 38.4459,76.7456 36.5,77.5 Z"/></g>
<g><path style="opacity:1" fill="#777978" d="M 58.5,62.5 C 53.0906,69.3174 49.4239,76.6508 47.5,84.5C 47.2624,86.4044 46.2624,87.7377 44.5,88.5C 44.5394,87.4168 44.8728,86.4168 45.5,85.5C 45.0302,84.537 44.3635,84.537 43.5,85.5C 44.7778,83.2009 46.1111,80.8676 47.5,78.5C 47.0302,77.537 46.3635,77.537 45.5,78.5C 48.8181,72.5451 52.6514,66.8784 57,61.5C 58.1068,60.2881 58.6068,60.6214 58.5,62.5 Z"/></g>
<g><path style="opacity:1" fill="#526f82" d="M 44.5,75.5 C 44.2624,77.4044 43.2624,78.7377 41.5,79.5C 41.7376,77.5956 42.7376,76.2623 44.5,75.5 Z"/></g>
<g><path style="opacity:1" fill="#4e6e83" d="M 40.5,76.5 C 40.2624,78.4044 39.2624,79.7377 37.5,80.5C 37.7376,78.5956 38.7376,77.2623 40.5,76.5 Z"/></g>
<g><path style="opacity:1" fill="#d2e1ed" d="M 77.5,73.5 C 78.1667,73.5 78.5,73.8333 78.5,74.5C 79.7361,75.579 81.0694,76.579 82.5,77.5C 83.3382,77.1583 83.6716,76.4916 83.5,75.5C 88.5111,75.3341 93.5111,75.5007 98.5,76C 94.514,77.2301 90.514,78.3968 86.5,79.5C 85.6236,79.3691 84.9569,79.7025 84.5,80.5C 88.9822,81.1669 93.3155,81.8336 97.5,82.5C 94.36,83.7769 91.1933,83.7769 88,82.5C 87.1667,82.6667 86.3333,82.8333 85.5,83C 86.8333,83.3333 88.1667,83.6667 89.5,84C 88.552,84.4828 87.552,84.6495 86.5,84.5C 87.7773,89.4972 88.6107,94.4972 89,99.5C 86.0553,95.9334 82.8886,92.6001 79.5,89.5C 76.1446,93.1867 72.8113,96.8534 69.5,100.5C 70.5118,95.4715 71.3452,90.4715 72,85.5C 68.5772,84.2689 65.0772,83.2689 61.5,82.5C 65.6845,81.8336 70.0178,81.1669 74.5,80.5C 74.0431,79.7025 73.3764,79.3691 72.5,79.5C 68.2134,78.274 63.8801,77.1074 59.5,76C 65.0158,75.8267 70.3491,75.3267 75.5,74.5C 76.4916,74.6716 77.1583,74.3382 77.5,73.5 Z"/></g>
<g><path style="opacity:1" fill="#075c9b" d="M 82.5,77.5 C 82.0296,78.6935 81.0296,79.3601 79.5,79.5C 78.5,79.1667 77.5,78.8333 76.5,78.5C 78.396,77.5344 80.396,77.2011 82.5,77.5 Z"/></g>
<g><path style="opacity:1" fill="#546f82" d="M 45.5,78.5 C 45.2624,80.4044 44.2624,81.7377 42.5,82.5C 42.7376,80.5956 43.7376,79.2623 45.5,78.5 Z"/></g>
<g><path style="opacity:1" fill="#6299c0" d="M 72.5,79.5 C 73.3764,79.3691 74.0431,79.7025 74.5,80.5C 70.0178,81.1669 65.6845,81.8336 61.5,82.5C 60.2438,82.5386 59.2438,82.0386 58.5,81C 63.3514,80.8255 68.0181,80.3255 72.5,79.5 Z"/></g>
<g><path style="opacity:1" fill="#689cc2" d="M 86.5,79.5 C 90.9819,80.3255 95.6486,80.8255 100.5,81C 99.7562,82.0386 98.7562,82.5386 97.5,82.5C 93.3155,81.8336 88.9822,81.1669 84.5,80.5C 84.9569,79.7025 85.6236,79.3691 86.5,79.5 Z"/></g>
<g><path style="opacity:1" fill="#a28869" d="M 43.5,85.5 C 42.5416,85.9528 41.7083,86.6195 41,87.5C 40.6012,87.2716 40.4346,86.9382 40.5,86.5C 41.6005,85.3951 42.2671,84.0618 42.5,82.5C 44.2624,81.7377 45.2624,80.4044 45.5,78.5C 46.3635,77.537 47.0302,77.537 47.5,78.5C 46.1111,80.8676 44.7778,83.2009 43.5,85.5 Z"/></g>
<g><path style="opacity:1" fill="#536f82" d="M 115.5,79.5 C 115.262,81.4044 114.262,82.7377 112.5,83.5C 112.738,81.5956 113.738,80.2623 115.5,79.5 Z"/></g>
<g><path style="opacity:1" fill="#a48968" d="M 117.5,81.5 C 115.738,82.2623 114.738,83.5956 114.5,85.5C 113.094,85.9731 112.427,86.9731 112.5,88.5C 111.35,89.8502 110.683,89.6836 110.5,88C 111.414,86.5936 112.08,85.0936 112.5,83.5C 114.262,82.7377 115.262,81.4044 115.5,79.5C 117.203,78.3398 117.869,79.0065 117.5,81.5 Z"/></g>
<g><path style="opacity:1" fill="#a18869" d="M 120.5,82.5 C 118.738,83.2623 117.738,84.5956 117.5,86.5C 115.738,87.2623 114.738,88.5956 114.5,90.5C 112.738,91.2623 111.738,92.5956 111.5,94.5C 110.094,94.9731 109.427,95.9731 109.5,97.5C 108.596,96.791 108.263,95.791 108.5,94.5C 110.218,92.7772 111.551,90.7772 112.5,88.5C 113.906,88.0269 114.573,87.0269 114.5,85.5C 116.262,84.7377 117.262,83.4044 117.5,81.5C 119.196,79.871 120.196,80.2043 120.5,82.5 Z"/></g>
<g><path style="opacity:1" fill="#125f9d" d="M 75.5,82.5 C 78.5719,82.1826 81.5719,82.5159 84.5,83.5C 82.7536,84.3953 80.9203,85.062 79,85.5C 77.0503,85.2926 75.8836,84.2926 75.5,82.5 Z"/></g>
<g><path style="opacity:1" fill="#4d6d83" d="M 117.5,81.5 C 117.262,83.4044 116.262,84.7377 114.5,85.5C 114.738,83.5956 115.738,82.2623 117.5,81.5 Z"/></g>
<g><path style="opacity:1" fill="#516f82" d="M 120.5,82.5 C 120.262,84.4044 119.262,85.7377 117.5,86.5C 117.738,84.5956 118.738,83.2623 120.5,82.5 Z"/></g>
<g><path style="opacity:1" fill="#1f66a1" d="M 74.5,86.5 C 75.9778,86.238 77.3112,86.5713 78.5,87.5C 76.476,89.6898 74.6427,92.0232 73,94.5C 72.8552,91.7393 73.3552,89.0726 74.5,86.5 Z"/></g>
<g><path style="opacity:1" fill="#2267a2" d="M 80.5,86.5 C 82.1667,86.5 83.8333,86.5 85.5,86.5C 85.8511,88.8695 86.0178,91.2028 86,93.5C 83.5464,91.5588 81.713,89.2254 80.5,86.5 Z"/></g>
<g><path style="opacity:1" fill="#4c6e83" d="M 114.5,85.5 C 114.573,87.0269 113.906,88.0269 112.5,88.5C 112.427,86.9731 113.094,85.9731 114.5,85.5 Z"/></g>
<g><path style="opacity:1" fill="#567080" d="M 43.5,85.5 C 43.2624,87.4044 42.2624,88.7377 40.5,89.5C 40.44,88.9569 40.1067,88.6236 39.5,88.5C 38.4822,89.1925 37.4822,89.8592 36.5,90.5C 37.1157,89.2022 37.1157,88.2022 36.5,87.5C 37.7931,87.1254 39.1264,86.7921 40.5,86.5C 40.4346,86.9382 40.6012,87.2716 41,87.5C 41.7083,86.6195 42.5416,85.9528 43.5,85.5 Z"/></g>
<g><path style="opacity:1" fill="#4f6e83" d="M 125.5,85.5 C 125.262,87.4044 124.262,88.7377 122.5,89.5C 122.738,87.5956 123.738,86.2623 125.5,85.5 Z"/></g>
<g><path style="opacity:1" fill="#91826f" d="M 129.5,86.5 C 129.296,88.6854 128.63,90.6854 127.5,92.5C 126.341,93.4558 125.174,94.4558 124,95.5C 122.765,94.3845 121.598,94.3845 120.5,95.5C 119.702,95.0431 119.369,94.3764 119.5,93.5C 121.262,92.7377 122.262,91.4044 122.5,89.5C 124.262,88.7377 125.262,87.4044 125.5,85.5C 126.962,84.5291 128.295,84.8624 129.5,86.5 Z"/></g>
<g><path style="opacity:1" fill="#4e6e83" d="M 117.5,86.5 C 117.262,88.4044 116.262,89.7377 114.5,90.5C 114.738,88.5956 115.738,87.2623 117.5,86.5 Z"/></g>
<g><path style="opacity:1" fill="#827d74" d="M 33.5,90.5 C 30.7324,92.8429 28.0657,92.5095 25.5,89.5C 25.8333,88.5 26.5,87.8333 27.5,87.5C 29.5,87.5 31.5,87.5 33.5,87.5C 34.087,88.2334 34.087,89.2334 33.5,90.5 Z"/></g>
<g><path style="opacity:1" fill="#a18869" d="M 44.5,88.5 C 42.7376,89.2623 41.7376,90.5956 41.5,92.5C 40.2058,93.2899 39.0391,94.2899 38,95.5C 37.5357,94.9056 37.369,94.2389 37.5,93.5C 39.2624,92.7377 40.2624,91.4044 40.5,89.5C 42.2624,88.7377 43.2624,87.4044 43.5,85.5C 44.3635,84.537 45.0302,84.537 45.5,85.5C 44.8728,86.4168 44.5394,87.4168 44.5,88.5 Z"/></g>
<g><path style="opacity:1" fill="#4b6e83" d="M 47.5,88.5 C 47.573,90.0269 46.9063,91.0269 45.5,91.5C 45.427,89.9731 46.0937,88.9731 47.5,88.5 Z"/></g>
<g><path style="opacity:1" fill="#a18869" d="M 130.5,88.5 C 131.833,88.5 132.5,89.1667 132.5,90.5C 131.094,90.9731 130.427,91.9731 130.5,93.5C 127.479,96.4841 126.479,96.1507 127.5,92.5C 129.262,91.7377 130.262,90.4044 130.5,88.5 Z"/></g>
<g><path style="opacity:1" fill="#a0876a" d="M 36.5,87.5 C 37.1157,88.2022 37.1157,89.2022 36.5,90.5C 35.2876,91.2299 34.2876,92.2299 33.5,93.5C 32.913,92.7666 32.913,91.7666 33.5,90.5C 34.7281,89.6935 35.7281,88.6935 36.5,87.5 Z"/></g>
<g><path style="opacity:1" fill="#a18869" d="M 40.5,89.5 C 38.7376,90.2623 37.7376,91.5956 37.5,93.5C 36.6365,94.463 35.9698,94.463 35.5,93.5C 36.1272,92.5832 36.4606,91.5832 36.5,90.5C 37.4822,89.8592 38.4822,89.1925 39.5,88.5C 40.1067,88.6236 40.44,88.9569 40.5,89.5 Z"/></g>
<g><path style="opacity:1" fill="#4e6e83" d="M 40.5,89.5 C 40.2624,91.4044 39.2624,92.7377 37.5,93.5C 37.7376,91.5956 38.7376,90.2623 40.5,89.5 Z"/></g>
<g><path style="opacity:1" fill="#506f82" d="M 44.5,88.5 C 44.2624,90.4044 43.2624,91.7377 41.5,92.5C 41.7376,90.5956 42.7376,89.2623 44.5,88.5 Z"/></g>
<g><path style="opacity:1" fill="#a28869" d="M 47.5,88.5 C 48.404,89.209 48.7373,90.209 48.5,91.5C 47.0937,91.9731 46.427,92.9731 46.5,94.5C 45.2058,95.2899 44.0391,96.2899 43,97.5C 42.5357,96.9056 42.369,96.2389 42.5,95.5C 44.2624,94.7377 45.2624,93.4044 45.5,91.5C 46.9063,91.0269 47.573,90.0269 47.5,88.5 Z"/></g>
<g><path style="opacity:1" fill="#4d6e83" d="M 122.5,89.5 C 122.262,91.4044 121.262,92.7377 119.5,93.5C 119.738,91.5956 120.738,90.2623 122.5,89.5 Z"/></g>
<g><path style="opacity:1" fill="#546f82" d="M 129.5,86.5 C 130.338,86.8417 130.672,87.5084 130.5,88.5C 130.262,90.4044 129.262,91.7377 127.5,92.5C 128.63,90.6854 129.296,88.6854 129.5,86.5 Z"/></g>
<g><path style="opacity:1" fill="#9f876a" d="M 122.5,84.5 C 124.196,82.871 125.196,83.2043 125.5,85.5C 123.738,86.2623 122.738,87.5956 122.5,89.5C 120.738,90.2623 119.738,91.5956 119.5,93.5C 118.026,94.4363 117.026,95.7697 116.5,97.5C 115.399,98.7997 114.066,99.2997 112.5,99C 113.823,98.1841 114.489,97.0174 114.5,95.5C 112.1,97.2964 110.433,99.6298 109.5,102.5C 108.078,103.925 106.411,104.925 104.5,105.5C 106.167,102.833 107.833,100.167 109.5,97.5C 110.906,97.0269 111.573,96.0269 111.5,94.5C 113.262,93.7377 114.262,92.4044 114.5,90.5C 116.262,89.7377 117.262,88.4044 117.5,86.5C 119.262,85.7377 120.262,84.4044 120.5,82.5C 122.203,81.3398 122.869,82.0065 122.5,84.5 Z"/></g>
<g><path style="opacity:1" fill="#4f6f82" d="M 122.5,84.5 C 122.539,85.7562 122.039,86.7562 121,87.5C 120.415,86.0024 120.915,85.0024 122.5,84.5 Z"/></g>
<g><path style="opacity:1" fill="#4a6d84" d="M 132.5,90.5 C 132.573,92.0269 131.906,93.0269 130.5,93.5C 130.427,91.9731 131.094,90.9731 132.5,90.5 Z"/></g>
<g><path style="opacity:1" fill="#a38869" d="M 132.5,90.5 C 133.376,90.3691 134.043,90.7025 134.5,91.5C 133.37,92.6223 132.703,93.9557 132.5,95.5C 129.543,97.0251 128.876,96.3584 130.5,93.5C 131.906,93.0269 132.573,92.0269 132.5,90.5 Z"/></g>
<g><path style="opacity:1" fill="#9f876a" d="M 47.5,84.5 C 48.6857,85.7054 48.6857,87.0387 47.5,88.5C 46.0937,88.9731 45.427,89.9731 45.5,91.5C 43.7376,92.2623 42.7376,93.5956 42.5,95.5C 41.5,95.8333 40.8333,96.5 40.5,97.5C 39.9569,97.44 39.6236,97.1067 39.5,96.5C 40.6302,95.3777 41.2969,94.0443 41.5,92.5C 43.2624,91.7377 44.2624,90.4044 44.5,88.5C 46.2624,87.7377 47.2624,86.4044 47.5,84.5 Z"/></g>
<g><path style="opacity:1" fill="#4c6e83" d="M 48.5,91.5 C 48.573,93.0269 47.9063,94.0269 46.5,94.5C 46.427,92.9731 47.0937,91.9731 48.5,91.5 Z"/></g>
<g><path style="opacity:1" fill="#4d6d84" d="M 114.5,90.5 C 114.262,92.4044 113.262,93.7377 111.5,94.5C 111.738,92.5956 112.738,91.2623 114.5,90.5 Z"/></g>
<g><path style="opacity:1" fill="#516e82" d="M 45.5,91.5 C 45.2624,93.4044 44.2624,94.7377 42.5,95.5C 42.7376,93.5956 43.7376,92.2623 45.5,91.5 Z"/></g>
<g><path style="opacity:1" fill="#516f82" d="M 114.5,95.5 C 114.685,93.8042 115.519,92.4709 117,91.5C 117.279,93.4122 116.446,94.7456 114.5,95.5 Z"/></g>
<g><path style="opacity:1" fill="#a48968" d="M 135.5,96.5 C 134.209,96.7373 133.209,96.404 132.5,95.5C 133.794,94.7101 134.961,93.7101 136,92.5C 136.195,93.8193 136.028,95.1526 135.5,96.5 Z"/></g>
<g><path style="opacity:1" fill="#4b6d83" d="M 111.5,94.5 C 111.573,96.0269 110.906,97.0269 109.5,97.5C 109.427,95.9731 110.094,94.9731 111.5,94.5 Z"/></g>
<g><path style="opacity:1" fill="#99856c" d="M 135.5,96.5 C 136.458,96.0472 137.292,95.3805 138,94.5C 138.483,95.448 138.649,96.448 138.5,97.5C 137.209,97.7373 136.209,97.404 135.5,96.5 Z"/></g>
<g><path style="opacity:1" fill="#6d767b" d="M 46.5,94.5 C 44.984,97.5331 42.984,100.2 40.5,102.5C 41.1157,101.202 41.1157,100.202 40.5,99.5C 40.5,98.8333 40.5,98.1667 40.5,97.5C 40.8333,96.5 41.5,95.8333 42.5,95.5C 42.369,96.2389 42.5357,96.9056 43,97.5C 44.0391,96.2899 45.2058,95.2899 46.5,94.5 Z"/></g>
<g><path style="opacity:1" fill="#96846d" d="M 48.5,91.5 C 49.7122,93.2637 49.3788,94.9303 47.5,96.5C 47.6667,96.8333 47.8333,97.1667 48,97.5C 50.69,95.146 51.19,95.8127 49.5,99.5C 48.2106,101.248 46.7106,101.581 45,100.5C 43.955,101.373 43.1217,102.373 42.5,103.5C 42.1667,103.5 41.8333,103.5 41.5,103.5C 40.8333,103.5 40.5,103.167 40.5,102.5C 42.984,100.2 44.984,97.5331 46.5,94.5C 47.9063,94.0269 48.573,93.0269 48.5,91.5 Z"/></g>
<g><path style="opacity:1" fill="#a18869" d="M 40.5,99.5 C 41.1157,100.202 41.1157,101.202 40.5,102.5C 39.5,102.833 38.8333,103.5 38.5,104.5C 37.6618,104.158 37.3284,103.492 37.5,102.5C 38.7281,101.694 39.7281,100.694 40.5,99.5 Z"/></g>
<g><path style="opacity:1" fill="#95846d" d="M 51.5,101.5 C 50.8333,101.5 50.1667,101.5 49.5,101.5C 49.5,100.833 49.5,100.167 49.5,99.5C 51.2027,98.3398 51.8693,99.0065 51.5,101.5 Z"/></g>
<g><path style="opacity:1" fill="#867e73" d="M 114.5,95.5 C 114.489,97.0174 113.823,98.1841 112.5,99C 114.066,99.2997 115.399,98.7997 116.5,97.5C 121.996,100.664 121.662,101.664 115.5,100.5C 115.5,101.5 115.5,102.5 115.5,103.5C 114.577,104.303 113.577,104.47 112.5,104C 114.007,103.163 114.507,101.996 114,100.5C 112.647,101.685 111.48,103.019 110.5,104.5C 109.702,104.043 109.369,103.376 109.5,102.5C 110.433,99.6298 112.1,97.2964 114.5,95.5 Z"/></g>
<g><path style="opacity:1" fill="#4b7293" d="M 49.5,99.5 C 49.5,100.167 49.5,100.833 49.5,101.5C 47.4006,102.612 45.0673,103.279 42.5,103.5C 43.1217,102.373 43.955,101.373 45,100.5C 46.7106,101.581 48.2106,101.248 49.5,99.5 Z"/></g>
<g><path style="opacity:1" fill="#edf3f8" d="M 30.5,109.5 C 29.7611,109.631 29.0944,109.464 28.5,109C 29.4158,108.722 30.0825,108.222 30.5,107.5C 33.4432,107.02 36.1098,106.02 38.5,104.5C 39.791,104.737 40.791,104.404 41.5,103.5C 41.8333,103.5 42.1667,103.5 42.5,103.5C 45.0673,103.279 47.4006,102.612 49.5,101.5C 50.1667,101.5 50.8333,101.5 51.5,101.5C 57.5,101.5 63.5,101.5 69.5,101.5C 80.5519,102.509 91.5519,103.843 102.5,105.5C 107.874,106.497 113.208,106.164 118.5,104.5C 127.756,103.193 136.756,100.86 145.5,97.5C 146.696,97.8457 146.696,98.3457 145.5,99C 129.948,107.861 113.282,111.195 95.5,109C 73.7153,102.976 52.0486,103.143 30.5,109.5 Z"/></g>
<g><path style="opacity:1" fill="#a28869" d="M 37.5,102.5 C 36.2058,103.29 35.0391,104.29 34,105.5C 33.5357,104.906 33.369,104.239 33.5,103.5C 34.8267,102.2 36.16,100.867 37.5,99.5C 38.087,100.233 38.087,101.233 37.5,102.5 Z"/></g>
<g><path style="opacity:1" fill="#306b98" d="M 40.5,102.5 C 40.5,103.167 40.8333,103.5 41.5,103.5C 40.791,104.404 39.791,104.737 38.5,104.5C 38.8333,103.5 39.5,102.833 40.5,102.5 Z"/></g>
<g><path style="opacity:1" fill="#9e876a" d="M 33.5,103.5 C 31.7376,104.262 30.7376,105.596 30.5,107.5C 29.7611,107.631 29.0944,107.464 28.5,107C 29.3862,105.385 30.3862,103.885 31.5,102.5C 34.0233,99.7607 34.6899,100.094 33.5,103.5 Z"/></g>
<g><path style="opacity:1" fill="#50748f" d="M 37.5,102.5 C 37.3284,103.492 37.6618,104.158 38.5,104.5C 36.1098,106.02 33.4432,107.02 30.5,107.5C 30.7376,105.596 31.7376,104.262 33.5,103.5C 33.369,104.239 33.5357,104.906 34,105.5C 35.0391,104.29 36.2058,103.29 37.5,102.5 Z"/></g>
<g><path style="opacity:1" fill="#587d98" d="M 115.5,103.5 C 116.391,104.11 117.391,104.443 118.5,104.5C 113.208,106.164 107.874,106.497 102.5,105.5C 103.167,105.5 103.833,105.5 104.5,105.5C 106.411,104.925 108.078,103.925 109.5,102.5C 109.369,103.376 109.702,104.043 110.5,104.5C 111.48,103.019 112.647,101.685 114,100.5C 114.507,101.996 114.007,103.163 112.5,104C 113.577,104.47 114.577,104.303 115.5,103.5 Z"/></g>
<g><path style="opacity:1" fill="#618096" d="M 31.5,102.5 C 30.3862,103.885 29.3862,105.385 28.5,107C 29.0944,107.464 29.7611,107.631 30.5,107.5C 30.0825,108.222 29.4158,108.722 28.5,109C 29.0944,109.464 29.7611,109.631 30.5,109.5C 28.3916,110.775 26.0583,111.275 23.5,111C 24.4158,110.722 25.0825,110.222 25.5,109.5C 26.5294,107.483 27.5294,105.483 28.5,103.5C 29.209,102.596 30.209,102.263 31.5,102.5 Z"/></g>
<g><path style="opacity:1" fill="#7c7b76" d="M 28.5,103.5 C 27.5294,105.483 26.5294,107.483 25.5,109.5C 21.9458,107.622 18.9458,104.955 16.5,101.5C 17.0016,100.479 17.6683,100.312 18.5,101C 20.1397,102.395 21.6397,103.895 23,105.5C 24.3086,103.109 25.3086,103.109 26,105.5C 26.7083,104.619 27.5416,103.953 28.5,103.5 Z"/></g>
</svg>
