<svg id="Слой_1" data-name="Слой 1" xmlns="http://www.w3.org/2000/svg" viewBox="0 0 48 48"><defs><style>.cls-3{fill:#e56b05;stroke:#515149;stroke-miterlimit:10;stroke-width:.04px}</style></defs><g id="MRSB"><path fill="#f2f3f4" d="M0 0h48v48H0z"/><path d="M31.5 21.18l-.01.02.03.02-.01-.02-.01-.02zm-4.63 14.51l9.6-13.44-.08-.1-.07-.1-.07-.09-.07-.08-8.98 12.54v.12l-.02.12-.02.14-.04.15-.05.16-.06.18-.06.19-.08.21zM13.2 26.27l.11.09.08.1.07.08.05.06 1.7-2.35-.02-.37-.01-.36-1.98 2.75zm2.88 4.06l1.01-1.4-.08-.09-.07-.1-.15-.2-1.21 1.7.21.03.2.04.05.01h.02l.02.01zm10.93 3.71l2.97-4.17-.3.28-.31.25-.32.24-.34.22-2.72 3.79.11-.09.1-.08.1-.07.08-.07.08-.06.08-.06.06-.05.06-.04.06-.04.05-.02.05-.02.04-.02.05-.01h.03l.04.01.03.01zm-11.88-3.83l1.44-2.02-.13-.21-.13-.21-1.73 2.41.28.02.27.01zm4.61 2.32l.72-1.02-.21-.09-.11-.05-.1-.06-.95 1.32.11-.03.11-.03.1-.02.09-.01h.12l.12-.01zm-2.44 3.09l-.16.15-.15.15-.14.13-.12.13-.12.11-.11.11-.11.1-.12.09-.73 1.02.13.03.12.03.13.02.11.01 2.87-3.99-.11.09-.1.11-.1.1-.09.12-.17.23-.17.24-.17.25-.1.13-.1.12-.1.13-.12.13-.13.13-.14.13zm-2.03 1.34l-.18.02L15 37l-.07.01-.25.34.1.05.11.04.24.08.42-.6-.14.02-.14.02zm-.93-4.18l-.13.02-.11.01-.09.02-.08.01-.08.01-.06.01-.06.01-.04.01-.04.01-.03.01h-.02l-.02.01h-.02.01l.02.01.02.01.03.03.07.04.09.05.13.05.13.07.28-.39zm1.84-1.12l-.18.15-.18.14-.15.14-.15.11-.15.12-.15.09-.14.1-.14.07-.5.71.11.03.13.03.12.03.14.02 1.24-1.74zm-.27 1.77h.05l2.34-3.26-.18-.16-.17-.15-.64.9-.27.36-1.66 2.33h.26l.13-.01.14-.01zm3.78-2.29l-.2-.12-.2-.11-1.55 2.15.2-.06.19-.06.18-.06.17-.06 1.21-1.68zm-2.02-1.55l-.16-.18-.17-.18-.85 1.21.13.04.12.03.11.04.1.05.72-1.01zm3.17 2.08l-.65.89.07.02.07.01.05.01.04.02.04.01.02.01.02.01-.01.01-.01.01-.02.01-.06.03-.08.05-.1.06-.11.07-.13.08-.15.09-3.29 4.61.13-.01.15-.03.17-.03.17-.03 4.13-5.74-.24-.08-.11-.04-.1-.04zm6.24.02l-3.09 4.33-.03.16-.03.16-.01.17-.01.18v.21l4-5.57-.21.09-.2.09-.42.18zm-1.87.47l-.3.04-.31.02-1.03 1.45.04-.02.02-.01.05-.01.14-.02.14-.02.13-.02h.12l1-1.41zm1.24-.27l-.34.09-.35.08-1.07 1.49.06.01.06.01h.05l.04.01.04.01h.02l.02.01-.02.02-.02.03-.03.03-.04.05-.05.06-.04.07-.05.08-.06.09-.06.1-.05.1-.06.12-.06.13-.05.14-.06.14-.05.16 2.17-3.03zm-4.77.05l-3.95 5.52.17-.04.17-.04.18-.05.18-.05 3.74-5.22-.13-.03-.12-.03-.24-.06zm.91.2l-3.52 4.9.22-.09.21-.1.22-.1.21-.11 3.18-4.44-.27-.02-.13-.02-.12-.02zm1.39.11h-.21l-.21-.01-2.59 3.62.26-.25.25-.23.23-.23.23-.22.21-.21.2-.19.19-.19.19-.16 1.38-1.93h-.13zm-5.01-1.56l-.18-.15-.2-.13-2.1 2.94.33-.05.16-.04.17-.05 1.82-2.52zm11.37 1.49l.01.01.03.01.02.02 4.83-6.76v-.03.01l.01.01 1.83-2.56-.17-.16-.17-.16-10.32 14.42-.03.21-.02.22-.01.23.01.23 3.99-5.61-.01-.03v-.06zM19.03 11.61l.91-1.26-.14.12-.14.11-.12.13-.12.13-.11.15-.05.08-.05.09-.05.1-.04.11-.05.11-.04.13zm22 13.82l-.03-.02-.03-.02-.65.92.12.02.11.02.12.04.12.04.51-.68-.13-.17-.14-.15zm-3.27-2.05l-.2-.12-.18-.13-1.77 2.46.1.05.11.04.22.08 1.72-2.38zm1.83 1.02l-1.29 1.81.27.03.27.03 1.14-1.63-.18-.13-.21-.11zM27.03 39.85l2.45-3.44.11-.21.05-.11.06-.1.06-.13.06-.14.07-.16.05-.16.06-.17.05-.17.1-.37-3.4 4.76.06.1.07.11.07.09.08.1zm13.28-14.99l-1.02 1.42.05.01h.52l.83-1.16-.19-.14-.19-.13zm-2.21-1.3l-1.66 2.34.24.07.12.03.11.03 1.6-2.24-.21-.11-.2-.12zm.76.41l-1.52 2.13.51.07 1.42-1.96-.21-.12-.2-.12zM26.4 38.47l.03.15.03.14.04.15.05.14 3.79-5.3.04-.27.02-.13.01-.12.01-.11.01-.11v-.18l-4.03 5.64zM15.71 10.4l-.24-.03h-.12l-.13.01v.01l.02.02.02.04.02.05.03.06.03.08.03.09.03.1.31-.43zm-1.42 26.83l.12-.17h-.12l-.11.01-.08.01h-.07l-.05.01h-.06.01l.02.01.02.01.05.02.05.02.06.03.08.02.08.03zm21.21-4.18l-.71.97.08.12.08.1.08.09.08.07.55-.79-.04-.13-.04-.14-.05-.14-.03-.15zm.36.94l-.39.56.05.01.06.01h.44l.11-.01.08-.01h.07l.06-.01.04-.01h.03l.01-.01h.01-.02l-.02-.02-.03-.02-.04-.02-.04-.03-.05-.04-.06-.04-.07-.07-.08-.08-.08-.1-.08-.11zM9.06 24.1l.22-.31-.09-.03-.05-.02-.05-.02-.08-.03-.07-.03-.06-.03-.05-.02-.03-.02h-.03l-.02-.01-.01-.01-.01-.01v.03l.02.04.03.04.05.09.06.11.07.11.1.12zm3.37-9.46l.02-.08.02-.06.01-.04.01-.03.01-.02v-.01.01h-.01l-.01.02-.02.02-.04.05-.07.07-.07.1-.08.11-.1.13-.1.15-.1.16-.11.18-.11.19-.11.2-.1.22-.1.23-.09.23-.08.25 1.09-1.52.01-.11.03-.13.04-.15.03-.08.03-.09zm15.3 25.69l1.15-1.61v-.23l.03-.24.04-.25.05-.26-1.68 2.37.2.11.1.06.11.05zm.83.3l.08.03.06.03.05.01.03.02.03.02.01.01h.02v-.16l.01-.08v-.1l.01-.1v-.12l.02-.19v-.2l.01-.21v-.22l-.78 1.08.14.06.12.04.1.04.09.04zm6.77-8.8l-1.02 1.41.06.1.04.08.1.18.02.02.02.02.01.02.02.02.83-1.19-.04-.33-.04-.33zm-.28-2.34l-.01-.08-.01-.09-1.71 2.4.14.19.14.21 1.52-2.14-.03-.24-.04-.25zm-3.26 1.45l-1.11 1.56.07.08.07.09.08.09.08.11.88-1.23-.02-.22-.01-.1-.01-.09-.01-.08v-.08L31.8 31l-.01-.06zm-.48 2.62l.01.06.02.06.02.11.4-.57.05-.24.04-.24.03-.24.01-.24-.7.96.07.17.05.17zm3.51-5.39l-2.08 2.88.16.17.08.08.09.1 1.87-2.63-.03-.16-.04-.17-.03-.14-.02-.13zm-.37-.94l-2.46 3.42.1.01.1.03.06.02.06.03.07.04.07.04 2.21-3.1-.05-.14-.05-.12-.11-.23zm.91-1.27l-.74 1.01.09.02.11.04.12.06.13.07.47-.68-.05-.1-.01-.05-.02-.04-.02-.08-.03-.08-.03-.08-.02-.09zm-23.68-5.51l1.94-2.71-.2-.13-.1-.06-.1-.07-1.74 2.45.09.26.11.26zm-.59 2.95l-1.14 1.58.09.06.1.04.11.04.1.03h.02v.01l.01.01 1.28-1.79h-.28l-.29.02zm-1.46 1.36l.91-1.27h-.03l-.05.01-.08.02-.09.03-.08.04-.15.05-.14.05-.12.03-.5.71.15.16.18.17zm25.57 5.8l-1.37 1.9.13.21.13.21 1.18-1.63-.02-.18-.01-.16-.02-.17-.02-.18zM17.02 15.1l-4.73 6.62.12.23.12.22 4.58-6.4-.03-.14-.02-.17-.02-.17-.02-.19zm-4.5 10.68l.16.08.07.05.07.05.05.03.04.04 2.28-3.22.06-.48.03-.24.04-.24-2.8 3.93zm28.62-9.37l-.11.15h.06l.06-.01h.16v-.02l-.01-.01-.02-.02-.03-.02-.05-.03-.06-.04zm-27.93 7.73l-.06-.09-.06-.11-.08-.1-.08-.1-1.25 1.73.12.03.11.04.24.08 1.06-1.48zm-.61-.6l-.1-.04-.12-.04-.13-.02-.14-.01-1.32 1.82.13.04.12.03.24.05 1.32-1.83zm18.42-5.33l2.18-3.05-.14-.03-.14-.01-.13-.02-.11-.01-1.95 2.74.15.19.14.19zm-20.98 9.56l-1.43 2 .21.11.12.04.11.04 1.73-2.44-.15.07-.18.06-.19.06-.22.06zm-1.12.13l-1.03 1.42.19.13.19.13 1.22-1.71-.28.02h-.14l-.15.01zm23.34-12.88l-.03-.03-.01-.04-.01-.04.01-.05.01-.04.03-.02.02-.03.04-.03.04-.03.06-.04.07-.03.07-.04.42-.59-.11-.02h-.14l-.14-.02-.14-.01-2.32 3.23.08.08.09.09.16.16 1.8-2.5zM7.11 27.48l-.36.52.06.1.07.1.07.11.08.1.52-.76-.21-.07-.12-.05-.11-.05zm5.28-.75l-.13.03-.11.03-.11.03-.1.04-.18.09-.17.1-2.14 3.01.16.03.16.02h.16l.05.02 2.41-3.4zm14.9-13.6v-.01l-.02-.02-.03-.03-.03-.04-.04-.06-.04-.07-.03-.08-.03-.09-1.5 2.09.25.05.12.02.11.03 1.56-2.19-.1.1-.09.11-.07.09-.06.1zm7.12 5.39l-1.93 2.7.07.3.07.3 2.2-3.07-.08-.04-.07-.04-.06-.03-.06-.03-.05-.03-.04-.02-.03-.02-.02-.02zM7.96 27.77l-.68.93.08.1.07.08.09.09.09.08.85-1.18-.25-.05-.25-.05zm16.01-13.1h.17l3.16-4.41-.03.02-.05.02-.32.09-.32.08-2.99 4.2h.38zm9.22-.26l.2-.06.09-.03.08-.01.09-.02.07-.01.06-.01.06-.01.06-.01.05-.01h.04l.03-.01h.06l-.01-.01h-.04l-.05-.01-.09-.03-.09-.03-.12-.02-.13-.03-.15-.03-.21.34zm1.87 3.97l2.09-2.9-.26-.02-.27-.03-2.12 2.95h.12l.13.01h.15l.16-.01zm2 1.61l-.08-.07-.08-.07-.1-.08-.1-.08-.56.77.2-.04.18-.04.16-.03.14-.03.24-.33zm-11.93-5.24l2.06-2.85.02-.07.04-.06.03-.07.04-.07.13-.17.11-.16.1-.14.1-.13.09-.13.08-.11.08-.1.07-.1.06-.1.05-.09.1-.18.06-.18.03-.09.01-.1-.02.01-.03.01-.05.01-.06.03-.07.03-.1.03-.11.05-3.33 4.66.25.03.13.02.13.02zM12.89 26.7l-2.46 3.44.28.02.27.01 2.45-3.41-.11-.02-.13-.02-.14-.02h-.16zm26.59-10.12l.52-.71-.22-.09-.22-.09-.65.9h.28l.29-.01zM6.34 27.1l-.06-.04-.05-.03-.02-.01-.01-.01v.01l.02.03.03.06.03.07.04.09.06.11.06.12.07.14.24-.34-.13-.06-.11-.06-.09-.04-.08-.04zm16.74-12.38l2.93-4.11-.35.09-.18.05-.17.06-2.87 3.98.32-.04.32-.03zm17.46 1.84l.25-.34-.12-.06-.07-.03-.07-.02-.08-.05-.08-.03-.41.55h.3l.15-.01.13-.01zm-12.06-.65l3.22-4.5-.15.03-.16.03-.33.05-2.98 4.17.2.11.2.11zm8.94 1.61l.07-.16.08-.15.09-.13.11-.12.13-.11.07-.04.08-.05.08-.03.09-.03.09-.03.11-.03.75-1.08-.12-.03-.12-.03-.13-.02-.11-.02-1.97 2.73.11-.04.1-.06.1-.06.09-.08.08-.09.08-.1.07-.11.07-.13zm-9.69-2l2.78-3.9-.33.06-.34.06-2.55 3.59.11.04.11.04.11.05.11.06zm1.46.86l1.46-2.04-.03-.06-.03-.07-.03-.07-.01-.08v-.09l.02-.1.04-.1.05-.11.05-.08.06-.08.11-.13.11-.12.13-.09.13-.09.14-.07.16-.07.16-.06 1.7-2.38v-.04l.01-.02v-.05.01l-.01.02-.03.03-.03.04-.04.06-.05.06-.06.06-.06.06-.15.14-.17.14-.09.06-.1.06-.11.06-.1.04-.07.02-.07.03-3.47 4.86.19.12.19.13zm6.95 1.96l2.09-2.91-.11.01-.1.01-.2.02-.1.01h-.1l-2.08 2.91.16-.01.17-.01.14-.01.13-.02zm-.24 3.26l-.09-.07-.09-.06-.2-.14-3 4.2-.1.39-.13.38-.14.38-.14.37 3.89-5.45zm-20.43-9.39l.95-1.32-.16-.16-.09-.08-.1-.07-.56.78.01.2v.21l-.02.21-.03.23zm-2.93 4.12l-.03-.09-.02-.09-.03-.15-.04-.13-.04-.12-1.35 1.88-.01.19v.2l.01.2.01.2 1.5-2.09zm14.37-1.16l2.34-3.26-.2.07-.2.07-.19.08-.2.1-2 2.81.23.07.22.06zm-15.59 4.32l1.63-2.28-.08-.09-.08-.11-.06-.1-.05-.11-1.53 2.13.08.28.09.28zm20.13-5.61l-1.95 2.75.18.14.08.08.08.08L32 13.91l-.15-.01-.14-.02h-.26zm.89 6.86l3.82-5.36-.25-.02-.13-.01-.13-.01-3.5 4.87.09.27.05.13.05.13zM12.96 23L23.02 8.94v-.27l-.01-.16-.02-.14-.02-.13-10.24 14.31.07.12.06.12.05.11.05.1zm-1.1-2.14l.11.24.12.22 4.9-6.86.01-.23.02-.24.02-.23.05-.22h.02v-.01l-2.8 3.9v.17l.01.08.01.09.02.09.01.07.01.05v.06l.01.01h-.01l-.02-.01-.04-.01-.05-.01-.06-.02-.07-.03-.08-.03-.08-.03-2.11 2.95zm20.1-1.05l3.23-4.52h-.21l-.17-.02-.16-.01-2.91 4.08.12.23.1.24zm-13.2-3.43l3.34-4.69-.01-.09v-.21l.02-.11.02-.11.03-.11.05-.12.05-.12.07-.13.06-.14.06-.11.06-.11-9.35 13.08.02.08.03.08.01.07.01.06.01.1.02.09.01.08.01.08 2.28-3.21.12-.33.12-.33.14-.32.15-.32.16-.31.18-.3.18-.3.2-.29.21-.28.22-.26.23-.26.24-.26.25-.24.26-.23.27-.22.27-.21zm-3.24 9.55L12.5 30.2l.28-.01.28-.02 2.65-3.69-.1-.27-.09-.28zm17.18-3.56l.03.36.03.34 2.84-3.96-.23-.09-.21-.09-2.46 3.44zM17.03 12.15l-2.48 3.48-.06.27-.05.27-.04.26-.04.24 2.8-3.88-.02-.16-.03-.16-.04-.16-.04-.16zm5.61-4.9l-4.28 5.97v.04l-.06.31-.07.3-.08.29-.09.28 4.78-6.67-.07-.17-.03-.07-.03-.07-.03-.06-.02-.06-.02-.05v-.04zm-7.37 17.58l-3.82 5.34.14.01.14.01h.28l3.39-4.75-.06-.3-.07-.31zm15.99-6.29l.13.21.13.21 2.67-3.73-.27-.02-.26-.03-2.4 3.36zm-15.15 8.84l-.12-.24-.1-.23-2.34 3.26h.56l2-2.79zm20.26-7.9l-.08-.04-.09-.05-.12-.06-.12-.05-3.2 4.45v.23l-.02.23-.02.22-.02.21 2.49-3.49-.12-.06-.05-.03-.04-.02-.04-.02-.03-.01-.01-.01h-.01l.01-.01.02-.02.04-.03.07-.04.08-.04.05-.03.07-.03.06-.03.08-.03.08-.03.09-.04.83-1.17zm-19.72-8.24l-1.51 2.1-.09.31-.09.32-.09.33-.08.34 2.1-2.95-.11-.23-.06-.11-.07-.11zm5.25 3.69l2.75-3.87-.14.05-.14.08-.19.1-.16.09-.16.09-.14.09-2.54 3.57.17-.06.18-.05.37-.09zm.6-2.32l-.06-.08-.07-.1-.07-.12-.07-.13-2.59 3.62.22-.11.22-.11.22-.1.22-.1 1.98-2.77zm13.49 15.01v-.01l-.02-.04-.03-.06-.03-.08-.04-.11-.05-.13-.12-.28-.33.46.12.07.12.05.1.05.08.04.05.01.04.01.03.01h.03l.04.01h.01zm5.74-1.02l-.05-.12-.04-.13-.06-.13-.06-.13-.4.54.01.01v.01l.12.08.09.07.09.06.07.06.05.04.05.03.04.03.03.03.06.03.04.03.01.01.02.01v.01-.09l-.01-.06-.01-.08-.01-.09-.02-.1-.02-.12z" fill-rule="evenodd" fill="#e56b05"/><path class="cls-3" d="M26.82 23.33h.33v1.1a.46.46 0 00.32-.09 1.47 1.47 0 00.24-.42 2.35 2.35 0 01.17-.35.54.54 0 01.19-.17.56.56 0 01.28-.07h.2v.29h-.13a.32.32 0 00-.24.08 1.05 1.05 0 00-.18.3 1.29 1.29 0 01-.21.4.66.66 0 01-.21.13.93.93 0 01.48.45l.52.84h-.41l-.42-.68a1.87 1.87 0 00-.29-.39.43.43 0 00-.3-.11v1.18h-.33z"/><path class="cls-3" d="M29.09 25.39l.76.19A2.55 2.55 0 0129 27a2.36 2.36 0 01-1.51.49 2.72 2.72 0 01-1.5-.38 2.35 2.35 0 01-.9-1.11 3.89 3.89 0 01-.3-1.53 3.37 3.37 0 01.34-1.56 2.34 2.34 0 011-1 2.84 2.84 0 011.39-.35 2.35 2.35 0 011.44.44 2.27 2.27 0 01.82 1.23l-.75.18a1.77 1.77 0 00-.58-.91 1.54 1.54 0 00-1-.28 1.85 1.85 0 00-1.1.32 1.67 1.67 0 00-.62.85 3.42 3.42 0 00-.18 1.1 3.49 3.49 0 00.21 1.27 1.58 1.58 0 00.66.81 1.86 1.86 0 001 .27 1.63 1.63 0 001.08-.37 1.88 1.88 0 00.59-1.08z"/><path class="cls-3" d="M26.14 22a2.13 2.13 0 00-.53-1.39 1.75 1.75 0 00-1.34-.51 1.51 1.51 0 00-1.6 1.22l-.76-.2a2.21 2.21 0 01.83-1.25 2.5 2.5 0 011.52-.45A2.57 2.57 0 0126.68 21a3.46 3.46 0 01.3 1.46 3.33 3.33 0 01-.63 2.2 2.42 2.42 0 01-2.06.89 2.32 2.32 0 01-2.44-1.94l.75-.2a1.68 1.68 0 001.75 1.48 1.64 1.64 0 001.29-.57 2.44 2.44 0 00.55-1.55H24V22z"/><path class="cls-3" d="M18.75 24.2v-3.92h.78l.93 2.78.19.58.21-.63.94-2.73h.7v3.92H22v-3.28l-1.15 3.28h-.47l-1.13-3.34v3.34z"/><path d="M24 32.39a8.92 8.92 0 118.92-8.92A8.93 8.93 0 0124 32.39zm0-17.55a8.63 8.63 0 108.63 8.63A8.64 8.64 0 0024 14.84zm0 16.26a7.63 7.63 0 117.63-7.63A7.64 7.64 0 0124 31.1zm0-15a7.34 7.34 0 107.34 7.34A7.34 7.34 0 0024 16.13z" fill="#e56b05"/></g></svg>