<svg viewBox="0 0 48 48" fill="none" xmlns="http://www.w3.org/2000/svg"><path fill-rule="evenodd" clip-rule="evenodd" d="M0 0h48v48H0V0z" fill="#F2F3F4"/><path fill-rule="evenodd" clip-rule="evenodd" d="M34 14.6V19h-3.5L24 23.2 17.5 19h-2.3l.1 3.8h2.6l6.1 3.9 6-3.9h4v10.6h2.5V14.6H34zm-22.5 0v18.8H14V17.8h3.9l6.1 3.8 6.1-3.8h2.7v-3.2h-2.5L24 18.8l-6.2-4.2h-6.3zM24 28.2 17.5 24h-2.2v9.4h2.5v-6l6.2 4.1 6.2-4.1.1 6h2.5V24h-2.4L24 28.2z" fill="url(#paint0_linear)"/><defs><linearGradient id="paint0_linear" x1="17.213" y1="35.736" x2="30.777" y2="12.258" gradientUnits="userSpaceOnUse"><stop stop-color="#AC1A1E"/><stop offset="1" stop-color="#ED1C24"/></linearGradient></defs></svg>