<svg id="Слой_1" data-name="Слой 1" xmlns="http://www.w3.org/2000/svg" viewBox="0 0 48 48"><defs><style>.cls-2{fill:#383736}.cls-3{fill:#1d1d1b}.cls-7{fill:#fff}</style></defs><g id="NFAZ"><path fill="#f2f3f4" d="M0 0h48v48H0z"/><path class="cls-2" d="M11.73 15.11l3.44 8.8a.22.22 0 010 .16l-3.44 8.75a.21.21 0 01-.41-.08V15.19a.21.21 0 01.41-.08z"/><path class="cls-3" d="M11.53 33.1h-.07c-.11 0-.07.51-.1.52a3.24 3.24 0 01-.2-.88c-.25-1.85-.08-6.9-.1-9.13 0 0 0-6.17.1-8.41a2.13 2.13 0 01.06-.37c0-.18.15-.51.23-.5s0 .26.23.54a1 1 0 00.18.2l3.44 8.8a.37.37 0 010 .27l-3.44 8.75a1.36 1.36 0 01-.33.21zm0-18a.06.06 0 00-.05.07v17.57a.06.06 0 00.05.07.06.06 0 00.07 0L15 24l-3.44-8.8a.06.06 0 00-.03-.07z"/><path d="M12 14.06c1.08-.09 2.24-.14 3.46-.15 1.5 0 2.91 0 4.21.15a.53.53 0 01.5.35l2.17 6.08h2v-5.9a.53.53 0 01.53-.53c1.21-.08 2.49-.12 3.84-.13s2.73 0 4 .13a.53.53 0 01.5.34l3.32 8.87a.53.53 0 01-.5.72H15.56a.53.53 0 01-.49-.33l-3.52-8.87a.53.53 0 01.45-.73z" fill="#e6e6e6"/><path class="cls-3" d="M36.09 24.14H15.56a.68.68 0 01-.63-.43l-3.52-8.87a.68.68 0 01.63-.93c1.15-.09 2.31-.14 3.46-.15 1.41 0 2.83 0 4.23.15a.71.71 0 01.38.12.68.68 0 01.25.33l2.13 6h1.77v-5.77a.68.68 0 01.68-.68c1.27-.08 2.56-.12 3.84-.13s2.67 0 4 .13a.74.74 0 01.38.12.68.68 0 01.25.32l3.32 8.87a.68.68 0 01-.64.92zM12 14.21a.38.38 0 00-.35.52l3.52 8.87a.38.38 0 00.35.24h20.57a.38.38 0 00.36-.51l-3.32-8.87a.38.38 0 00-.14-.18.38.38 0 00-.22-.07c-1.3-.08-2.62-.13-3.91-.13h-.07c-1.27 0-2.56 0-3.83.12a.38.38 0 00-.39.38v6h-2.3l-2.2-6.18a.38.38 0 00-.14-.18.38.38 0 00-.22-.07c-1.4-.11-2.82-.16-4.21-.15-1.15 0-2.31.06-3.45.15z"/><path d="M27 20.57l-2.36-6v6.08H27v-.08z" fill="#8c8a8a"/><path d="M32.77 33.87c-1.15.11-2.4.18-3.74.19a41.49 41.49 0 01-4.16-.19.32.32 0 01-.25-.14.31.31 0 010-.29l2.21-5.51a.45.45 0 00-.41-.61h-3.69a.45.45 0 00-.42.3l-2.12 5.95a.45.45 0 01-.42.3 34 34 0 01-4.29.23 34 34 0 01-3.56-.23.47.47 0 01-.37-.2.44.44 0 010-.42l3.58-9a.45.45 0 01.37-.25h20.95a.28.28 0 01.26.38l-3.5 9.19a.48.48 0 01-.44.3z" fill="#a7a6a6"/><path class="cls-3" d="M15.84 34.24h-.36a34.31 34.31 0 01-3.57-.24.62.62 0 01-.48-.26.6.6 0 01-.06-.56l3.58-9a.59.59 0 01.55-.38h20.95a.43.43 0 01.4.58l-3.5 9.19a.63.63 0 01-.58.4c-1.24.12-2.5.18-3.75.19s-2.79-.06-4.17-.19a.46.46 0 01-.36-.2.46.46 0 010-.43l2.21-5.51a.3.3 0 00-.27-.41h-3.7a.3.3 0 00-.28.2l-2.12 5.95a.6.6 0 01-.55.4 34.32 34.32 0 01-3.94.27zm-.34-10.1a.29.29 0 00-.27.19l-3.58 9a.29.29 0 000 .28.32.32 0 00.24.13 34 34 0 003.55.22 34 34 0 004.27-.22.3.3 0 00.28-.2l2.12-5.95a.6.6 0 01.56-.4h3.65a.6.6 0 01.55.82l-2.15 5.49a.16.16 0 000 .15.17.17 0 00.13.07c1.38.13 2.78.19 4.16.19s2.49-.07 3.73-.19a.33.33 0 00.3-.21l3.5-9.19a.13.13 0 00-.12-.18z"/><path class="cls-2" d="M24.41 33.54v-6.21h1.95a.46.46 0 01.43.63l-2.26 5.61a.06.06 0 01-.12-.03z"/><path class="cls-3" d="M24.47 33.68s.06.16 0 .17-.13-.08-.17-.22a.38.38 0 010-.09v-6.29h2a.54.54 0 01.5.74l-2.2 5.61a.14.14 0 01-.07.07zm0-6.28v6.08l2.23-5.55a.39.39 0 00-.36-.53zm12.47-3.57a.48.48 0 010 .33l-.23.63v-1.6z"/><path class="cls-3" d="M36.53 23.69h.24v.3h-.24z"/><path class="cls-7" d="M15.37 24l-.29.11-3.56-9a.78.78 0 010-.34 1.2 1.2 0 01.12-.27l3.66 9.26z"/><path class="cls-7" d="M15.09 23.8l.3.12-3.72 9.44a.25.25 0 000 .14 1.17 1.17 0 01-.12-.31 1.22 1.22 0 010-.3v-.12z"/><rect x="15.03" y="23.84" width="21.62" height=".3" rx=".13" ry=".13" fill="#fcfcfc"/><path class="cls-7" d="M15.54 23.84h-.24l-.11-.28a.39.39 0 00.15.21.38.38 0 00.2.07zm-.33.53v-.23h.2a.47.47 0 00-.16.05.36.36 0 00-.04.18z"/></g></svg>