<?xml version="1.0" encoding="UTF-8"?>
<!DOCTYPE svg PUBLIC "-//W3C//DTD SVG 1.1//EN" "http://www.w3.org/Graphics/SVG/1.1/DTD/svg11.dtd">
<svg xmlns="http://www.w3.org/2000/svg" version="1.1" width="160px" height="160px" style="shape-rendering:geometricPrecision; text-rendering:geometricPrecision; image-rendering:optimizeQuality; fill-rule:evenodd; clip-rule:evenodd" xmlns:xlink="http://www.w3.org/1999/xlink">
<g><path style="opacity:1" fill="#0087c9" d="M -0.5,-0.5 C 52.8333,-0.5 106.167,-0.5 159.5,-0.5C 159.5,52.8333 159.5,106.167 159.5,159.5C 106.167,159.5 52.8333,159.5 -0.5,159.5C -0.5,106.167 -0.5,52.8333 -0.5,-0.5 Z"/></g>
<g><path style="opacity:1" fill="#f9faf9" d="M 49.5,28.5 C 69.1695,28.3334 88.8362,28.5 108.5,29C 117.667,31.5 123.5,37.3333 126,46.5C 126.667,68.5 126.667,90.5 126,112.5C 123.5,121.667 117.667,127.5 108.5,130C 88.8333,130.667 69.1667,130.667 49.5,130C 40.9035,127.071 35.4035,121.237 33,112.5C 32.3333,90.5 32.3333,68.5 33,46.5C 35.5923,37.7446 41.0923,31.7446 49.5,28.5 Z"/></g>
<g><path style="opacity:1" fill="#60a4ce" d="M 76.5,38.5 C 77.5,38.5 78.5,38.5 79.5,38.5C 79.5,39.8333 79.5,41.1667 79.5,42.5C 76.6067,42.9689 74.6067,41.9689 73.5,39.5C 74.391,38.8902 75.391,38.5569 76.5,38.5 Z"/></g>
<g><path style="opacity:1" fill="#56a3d2" d="M 83.5,38.5 C 84.609,38.5569 85.609,38.8902 86.5,39.5C 85.8163,41.1852 84.483,42.1852 82.5,42.5C 82.1667,41.8333 81.8333,41.1667 81.5,40.5C 81.7472,39.2867 82.4138,38.62 83.5,38.5 Z"/></g>
<g><path style="opacity:1" fill="#5faadc" d="M 71.5,41.5 C 73.6168,43.063 75.9501,44.3964 78.5,45.5C 74.6853,46.8077 71.0187,46.8077 67.5,45.5C 67.9568,43.2273 69.2901,41.894 71.5,41.5 Z"/></g>
<g><path style="opacity:1" fill="#cbc7b3" d="M 76.5,38.5 C 78.8333,37.1667 81.1667,37.1667 83.5,38.5C 82.4138,38.62 81.7472,39.2867 81.5,40.5C 81.8333,41.1667 82.1667,41.8333 82.5,42.5C 84.483,42.1852 85.8163,41.1852 86.5,39.5C 88.3797,39.2291 89.713,39.8958 90.5,41.5C 95.1815,44.6964 95.6815,48.6964 92,53.5C 90.5295,54.2666 89.0295,54.9332 87.5,55.5C 85.8984,53.9261 83.8984,53.2594 81.5,53.5C 81.5,54.5 81.5,55.5 81.5,56.5C 82.8333,56.5 84.1667,56.5 85.5,56.5C 84.791,57.404 83.791,57.7373 82.5,57.5C 82.1667,57.5 81.8333,57.5 81.5,57.5C 80.8333,57.5 80.1667,57.5 79.5,57.5C 79.1667,57.5 78.8333,57.5 78.5,57.5C 77.209,57.7373 76.209,57.404 75.5,56.5C 76.8333,56.5 78.1667,56.5 79.5,56.5C 79.5,55.5 79.5,54.5 79.5,53.5C 76.9899,53.0535 74.9899,53.7202 73.5,55.5C 72.2905,55.0679 71.2905,54.4013 70.5,53.5C 73.3084,52.0712 76.3084,51.4045 79.5,51.5C 79.5,50.5 79.5,49.5 79.5,48.5C 75.0293,47.9106 71.0293,48.5772 67.5,50.5C 66.1667,48.8333 66.1667,47.1667 67.5,45.5C 71.0187,46.8077 74.6853,46.8077 78.5,45.5C 75.9501,44.3964 73.6168,43.063 71.5,41.5C 72.1667,40.8333 72.8333,40.1667 73.5,39.5C 74.6067,41.9689 76.6067,42.9689 79.5,42.5C 79.5,41.1667 79.5,39.8333 79.5,38.5C 78.5,38.5 77.5,38.5 76.5,38.5 Z"/></g>
<g><path style="opacity:1" fill="#5aa7d9" d="M 90.5,41.5 C 91.1534,42.8068 91.8201,44.1401 92.5,45.5C 79.3178,47.0502 78.6511,45.7168 90.5,41.5 Z"/></g>
<g><path style="opacity:1" fill="#f3d622" d="M 56.5,55.5 C 54.5208,56.1339 52.3541,56.1339 50,55.5C 48.6244,55.6842 47.7911,56.3509 47.5,57.5C 46.3953,54.1552 44.3953,51.3218 41.5,49C 47.776,48.4765 52.776,50.6432 56.5,55.5 Z"/></g>
<g><path style="opacity:1" fill="#6cadd8" d="M 70.5,53.5 C 69.8333,53.1667 69.1667,52.8333 68.5,52.5C 68.6716,51.5084 68.3382,50.8417 67.5,50.5C 71.0293,48.5772 75.0293,47.9106 79.5,48.5C 79.5,49.5 79.5,50.5 79.5,51.5C 76.3084,51.4045 73.3084,52.0712 70.5,53.5 Z"/></g>
<g><path style="opacity:1" fill="#4a9ed1" d="M 81.5,48.5 C 85.226,48.1774 88.8927,48.5108 92.5,49.5C 92.0142,51.4974 90.8475,52.8307 89,53.5C 86.6813,52.1287 84.1813,51.4621 81.5,51.5C 81.5,50.5 81.5,49.5 81.5,48.5 Z"/></g>
<g><path style="opacity:1" fill="#f5d521" d="M 117.5,50.5 C 114.482,51.855 113.149,54.1884 113.5,57.5C 113.167,57.5 112.833,57.5 112.5,57.5C 109.927,55.1565 106.927,54.8232 103.5,56.5C 105.206,52.6213 108.206,50.1213 112.5,49C 114.5,48.3333 116.5,48.3333 118.5,49C 117.944,49.3826 117.611,49.8826 117.5,50.5 Z"/></g>
<g><path style="opacity:1" fill="#f2ece0" d="M 68.5,52.5 C 69.1667,52.8333 69.8333,53.1667 70.5,53.5C 71.2905,54.4013 72.2905,55.0679 73.5,55.5C 73.8417,56.3382 74.5084,56.6716 75.5,56.5C 76.209,57.404 77.209,57.7373 78.5,57.5C 78.5,70.1667 78.5,82.8333 78.5,95.5C 77.8333,94.8333 77.1667,94.1667 76.5,93.5C 73.2227,90.3741 70.2227,87.0408 67.5,83.5C 69.1667,84.1667 70.8333,84.8333 72.5,85.5C 73.5,86.8333 74.5,88.1667 75.5,89.5C 75.56,90.0431 75.8933,90.3764 76.5,90.5C 77.8077,86.6853 77.8077,83.0187 76.5,79.5C 76.5,79.1667 76.5,78.8333 76.5,78.5C 77.7943,74.0661 77.7943,69.7327 76.5,65.5C 76.5,64.8333 76.1667,64.5 75.5,64.5C 72.5361,62.0381 69.7028,59.3714 67,56.5C 66.5026,59.146 66.3359,61.8127 66.5,64.5C 66.6287,66.2161 66.962,67.8828 67.5,69.5C 66.8333,69.5 66.5,69.8333 66.5,70.5C 66.5,73.1667 66.5,75.8333 66.5,78.5C 64.6642,71.1626 64.4975,63.4959 66,55.5C 67.417,54.9221 68.2504,53.9221 68.5,52.5 Z"/></g>
<g><path style="opacity:1" fill="#58a2cf" d="M 75.5,56.5 C 74.5084,56.6716 73.8417,56.3382 73.5,55.5C 74.9899,53.7202 76.9899,53.0535 79.5,53.5C 79.5,54.5 79.5,55.5 79.5,56.5C 78.1667,56.5 76.8333,56.5 75.5,56.5 Z"/></g>
<g><path style="opacity:1" fill="#489dd0" d="M 87.5,55.5 C 86.5084,55.3284 85.8417,55.6618 85.5,56.5C 84.1667,56.5 82.8333,56.5 81.5,56.5C 81.5,55.5 81.5,54.5 81.5,53.5C 83.8984,53.2594 85.8984,53.9261 87.5,55.5 Z"/></g>
<g><path style="opacity:1" fill="#d0bd8e" d="M 117.5,50.5 C 116.126,52.8583 114.793,55.1917 113.5,57.5C 113.149,54.1884 114.482,51.855 117.5,50.5 Z"/></g>
<g><path style="opacity:1" fill="#fdca02" d="M 56.5,55.5 C 56.5569,56.609 56.8902,57.609 57.5,58.5C 57.5,59.5 57.5,60.5 57.5,61.5C 54.0613,61.7471 50.728,61.4137 47.5,60.5C 47.5,59.5 47.5,58.5 47.5,57.5C 47.7911,56.3509 48.6244,55.6842 50,55.5C 52.3541,56.1339 54.5208,56.1339 56.5,55.5 Z"/></g>
<g><path style="opacity:1" fill="#c1a761" d="M 56.5,55.5 C 57.9063,55.9731 58.573,56.9731 58.5,58.5C 58.1667,58.5 57.8333,58.5 57.5,58.5C 56.8902,57.609 56.5569,56.609 56.5,55.5 Z"/></g>
<g><path style="opacity:1" fill="#e8af31" d="M 93.5,67.5 C 93.5,66.1667 93.5,64.8333 93.5,63.5C 91.2646,63.7947 89.2646,63.4614 87.5,62.5C 89.5065,60.161 91.5065,57.8277 93.5,55.5C 94.8095,59.6493 94.8095,63.6493 93.5,67.5 Z"/></g>
<g><path style="opacity:1" fill="#fbc105" d="M 112.5,57.5 C 112.5,58.8333 112.5,60.1667 112.5,61.5C 111.549,62.9187 111.216,64.5853 111.5,66.5C 108.167,66.5 104.833,66.5 101.5,66.5C 101.5,65.1667 101.5,63.8333 101.5,62.5C 101.259,60.1016 101.926,58.1016 103.5,56.5C 106.927,54.8232 109.927,55.1565 112.5,57.5 Z"/></g>
<g><path style="opacity:1" fill="#f3a60f" d="M 75.5,64.5 C 72.5,64.5 69.5,64.5 66.5,64.5C 66.3359,61.8127 66.5026,59.146 67,56.5C 69.7028,59.3714 72.5361,62.0381 75.5,64.5 Z"/></g>
<g><path style="opacity:1" fill="#f7b40a" d="M 57.5,58.5 C 57.8333,58.5 58.1667,58.5 58.5,58.5C 58.5,59.8333 58.5,61.1667 58.5,62.5C 58.5,64.5 58.5,66.5 58.5,68.5C 55.1667,68.5 51.8333,68.5 48.5,68.5C 48.7845,70.4147 48.4511,72.0813 47.5,73.5C 47.5,69.1667 47.5,64.8333 47.5,60.5C 50.728,61.4137 54.0613,61.7471 57.5,61.5C 57.5,60.5 57.5,59.5 57.5,58.5 Z"/></g>
<g><path style="opacity:1" fill="#f08905" d="M 66.5,64.5 C 69.5,64.5 72.5,64.5 75.5,64.5C 76.1667,64.5 76.5,64.8333 76.5,65.5C 76.5,66.8333 76.5,68.1667 76.5,69.5C 73.8333,69.5 71.1667,69.5 68.5,69.5C 68.1667,69.5 67.8333,69.5 67.5,69.5C 66.962,67.8828 66.6287,66.2161 66.5,64.5 Z"/></g>
<g><path style="opacity:1" fill="#f18f08" d="M 87.5,62.5 C 89.2646,63.4614 91.2646,63.7947 93.5,63.5C 93.5,64.8333 93.5,66.1667 93.5,67.5C 92.5987,68.2905 91.9321,69.2905 91.5,70.5C 91.1667,70.5 90.8333,70.5 90.5,70.5C 88.1667,70.5 85.8333,70.5 83.5,70.5C 83.5,69.5 83.5,68.5 83.5,67.5C 83.6696,64.796 85.0029,63.1293 87.5,62.5 Z"/></g>
<g><path style="opacity:1" fill="#f29d09" d="M 58.5,62.5 C 59.4936,71.6517 59.8269,80.985 59.5,90.5C 55.8333,90.5 52.1667,90.5 48.5,90.5C 48.1667,88.5 47.8333,86.5 47.5,84.5C 50.8309,86.2976 54.4975,86.9643 58.5,86.5C 58.5,82.5 58.5,78.5 58.5,74.5C 54.4975,74.0357 50.8309,74.7024 47.5,76.5C 47.5,75.5 47.5,74.5 47.5,73.5C 48.4511,72.0813 48.7845,70.4147 48.5,68.5C 51.8333,68.5 55.1667,68.5 58.5,68.5C 58.5,66.5 58.5,64.5 58.5,62.5 Z"/></g>
<g><path style="opacity:1" fill="#f3b914" d="M 83.5,70.5 C 85.8333,70.5 88.1667,70.5 90.5,70.5C 87.6603,71.6865 85.4936,73.6865 84,76.5C 83.5357,75.9056 83.369,75.2389 83.5,74.5C 83.5,73.1667 83.5,71.8333 83.5,70.5 Z"/></g>
<g><path style="opacity:1" fill="#d9c599" d="M 76.5,65.5 C 77.7943,69.7327 77.7943,74.0661 76.5,78.5C 72.8781,76.2133 69.5448,73.5466 66.5,70.5C 66.5,69.8333 66.8333,69.5 67.5,69.5C 67.8333,69.5 68.1667,69.5 68.5,69.5C 71.4853,71.255 73.9853,73.5883 76,76.5C 76.4966,74.1902 76.6633,71.8568 76.5,69.5C 76.5,68.1667 76.5,66.8333 76.5,65.5 Z"/></g>
<g><path style="opacity:1" fill="#f5b411" d="M 68.5,69.5 C 71.1667,69.5 73.8333,69.5 76.5,69.5C 76.6633,71.8568 76.4966,74.1902 76,76.5C 73.9853,73.5883 71.4853,71.255 68.5,69.5 Z"/></g>
<g><path style="opacity:1" fill="#bba066" d="M 93.5,67.5 C 94.744,72.2981 94.744,76.9648 93.5,81.5C 93.6653,77.8183 93.4986,74.1516 93,70.5C 92.6174,71.056 92.1174,71.3893 91.5,71.5C 91.5,71.1667 91.5,70.8333 91.5,70.5C 91.9321,69.2905 92.5987,68.2905 93.5,67.5 Z"/></g>
<g><path style="opacity:1" fill="#f09b0d" d="M 66.5,70.5 C 69.5448,73.5466 72.8781,76.2133 76.5,78.5C 76.5,78.8333 76.5,79.1667 76.5,79.5C 76.5,81.5 76.5,83.5 76.5,85.5C 75.1667,85.5 73.8333,85.5 72.5,85.5C 70.8333,84.8333 69.1667,84.1667 67.5,83.5C 66.962,81.8828 66.6287,80.2161 66.5,78.5C 66.5,75.8333 66.5,73.1667 66.5,70.5 Z"/></g>
<g><path style="opacity:1" fill="#e7dbc1" d="M 90.5,70.5 C 90.8333,70.5 91.1667,70.5 91.5,70.5C 91.5,70.8333 91.5,71.1667 91.5,71.5C 89.4985,74.3338 86.9985,76.6671 84,78.5C 83.5172,79.448 83.3505,80.448 83.5,81.5C 82.1667,79.1667 82.1667,76.8333 83.5,74.5C 83.369,75.2389 83.5357,75.9056 84,76.5C 85.4936,73.6865 87.6603,71.6865 90.5,70.5 Z"/></g>
<g><path style="opacity:1" fill="#f18901" d="M 112.5,75.5 C 112.5,78.1667 112.5,80.8333 112.5,83.5C 111.596,84.209 111.263,85.209 111.5,86.5C 108.167,86.5 104.833,86.5 101.5,86.5C 101.5,82.1667 101.5,77.8333 101.5,73.5C 105.502,73.0357 109.169,73.7024 112.5,75.5 Z"/></g>
<g><path style="opacity:1" fill="#f19d0b" d="M 93.5,81.5 C 90.7928,83.8432 88.1261,86.1765 85.5,88.5C 84.8826,88.6107 84.3826,88.944 84,89.5C 83.5026,86.854 83.3359,84.1873 83.5,81.5C 83.3505,80.448 83.5172,79.448 84,78.5C 86.9985,76.6671 89.4985,74.3338 91.5,71.5C 92.1174,71.3893 92.6174,71.056 93,70.5C 93.4986,74.1516 93.6653,77.8183 93.5,81.5 Z"/></g>
<g><path style="opacity:1" fill="#c5af81" d="M 58.5,58.5 C 59.2679,59.2625 59.7679,60.2625 60,61.5C 60.4998,71.1609 60.6665,80.8276 60.5,90.5C 60.1667,90.5 59.8333,90.5 59.5,90.5C 59.8269,80.985 59.4936,71.6517 58.5,62.5C 58.5,61.1667 58.5,59.8333 58.5,58.5 Z"/></g>
<g><path style="opacity:1" fill="#f18b00" d="M 47.5,84.5 C 47.5,81.8333 47.5,79.1667 47.5,76.5C 50.8309,74.7024 54.4975,74.0357 58.5,74.5C 58.5,78.5 58.5,82.5 58.5,86.5C 54.4975,86.9643 50.8309,86.2976 47.5,84.5 Z"/></g>
<g><path style="opacity:1" fill="#be9f50" d="M 76.5,79.5 C 77.8077,83.0187 77.8077,86.6853 76.5,90.5C 75.8933,90.3764 75.56,90.0431 75.5,89.5C 76.4345,88.4324 76.7678,87.099 76.5,85.5C 76.5,83.5 76.5,81.5 76.5,79.5 Z"/></g>
<g><path style="opacity:1" fill="#f09407" d="M 79.5,57.5 C 80.1667,57.5 80.8333,57.5 81.5,57.5C 81.5,69.1667 81.5,80.8333 81.5,92.5C 81.8297,98.8682 81.4963,105.202 80.5,111.5C 79.5005,93.5123 79.1671,75.5123 79.5,57.5 Z"/></g>
<g><path style="opacity:1" fill="#c0a364" d="M 81.5,57.5 C 81.8333,57.5 82.1667,57.5 82.5,57.5C 82.1872,61.0419 82.5206,64.3752 83.5,67.5C 83.5,68.5 83.5,69.5 83.5,70.5C 83.5,71.8333 83.5,73.1667 83.5,74.5C 82.1667,76.8333 82.1667,79.1667 83.5,81.5C 83.3359,84.1873 83.5026,86.854 84,89.5C 84.3826,88.944 84.8826,88.6107 85.5,88.5C 85.5,89.1667 85.5,89.8333 85.5,90.5C 83.8212,90.2852 82.8212,90.9519 82.5,92.5C 82.1667,92.5 81.8333,92.5 81.5,92.5C 81.5,80.8333 81.5,69.1667 81.5,57.5 Z"/></g>
<g><path style="opacity:1" fill="#e6d6b8" d="M 93.5,81.5 C 93.5,82.1667 93.5,82.8333 93.5,83.5C 91.4768,86.5203 88.8102,88.8536 85.5,90.5C 85.5,89.8333 85.5,89.1667 85.5,88.5C 88.1261,86.1765 90.7928,83.8432 93.5,81.5 Z"/></g>
<g><path style="opacity:1" fill="#f0a315" d="M 112.5,61.5 C 112.5,66.1667 112.5,70.8333 112.5,75.5C 109.169,73.7024 105.502,73.0357 101.5,73.5C 101.5,77.8333 101.5,82.1667 101.5,86.5C 104.833,86.5 108.167,86.5 111.5,86.5C 111.263,85.209 111.596,84.209 112.5,83.5C 112.5,85.5 112.5,87.5 112.5,89.5C 111.599,90.2905 110.932,91.2905 110.5,92.5C 106.671,93.069 103.337,92.4023 100.5,90.5C 100.173,80.985 100.506,71.6517 101.5,62.5C 101.5,63.8333 101.5,65.1667 101.5,66.5C 104.833,66.5 108.167,66.5 111.5,66.5C 111.216,64.5853 111.549,62.9187 112.5,61.5 Z"/></g>
<g><path style="opacity:1" fill="#f6ca12" d="M 72.5,85.5 C 73.8333,85.5 75.1667,85.5 76.5,85.5C 76.7678,87.099 76.4345,88.4324 75.5,89.5C 74.5,88.1667 73.5,86.8333 72.5,85.5 Z"/></g>
<g><path style="opacity:1" fill="#bfa161" d="M 93.5,83.5 C 94.647,87.6463 94.8136,91.9796 94,96.5C 93.6174,97.056 93.1174,97.3893 92.5,97.5C 92.5,97.1667 92.5,96.8333 92.5,96.5C 93.2341,95.2921 93.5674,93.9587 93.5,92.5C 93.5,89.5 93.5,86.5 93.5,83.5 Z"/></g>
<g><path style="opacity:1" fill="#e5d9c1" d="M 85.5,90.5 C 85.1667,91.1667 84.8333,91.8333 84.5,92.5C 84.1667,93.1667 83.8333,93.8333 83.5,94.5C 83.1667,94.5 82.8333,94.5 82.5,94.5C 82.5,93.8333 82.5,93.1667 82.5,92.5C 82.8212,90.9519 83.8212,90.2852 85.5,90.5 Z"/></g>
<g><path style="opacity:1" fill="#f3a30b" d="M 93.5,83.5 C 93.5,86.5 93.5,89.5 93.5,92.5C 90.5,92.5 87.5,92.5 84.5,92.5C 84.8333,91.8333 85.1667,91.1667 85.5,90.5C 88.8102,88.8536 91.4768,86.5203 93.5,83.5 Z"/></g>
<g><path style="opacity:1" fill="#f6b811" d="M 48.5,90.5 C 52.1667,90.5 55.8333,90.5 59.5,90.5C 59.8333,90.5 60.1667,90.5 60.5,90.5C 60.6287,92.2161 60.962,93.8828 61.5,95.5C 59.2309,95.6264 56.8976,95.293 54.5,94.5C 52.9704,94.6399 51.9704,95.3065 51.5,96.5C 49.7549,94.9674 48.7549,92.9674 48.5,90.5 Z"/></g>
<g><path style="opacity:1" fill="#f19207" d="M 67.5,83.5 C 70.2227,87.0408 73.2227,90.3741 76.5,93.5C 76.5,94.8333 76.5,96.1667 76.5,97.5C 73.4299,97.6323 70.4299,97.299 67.5,96.5C 66.2057,92.0661 66.2057,87.7327 67.5,83.5 Z"/></g>
<g><path style="opacity:1" fill="#ef8805" d="M 84.5,92.5 C 87.5,92.5 90.5,92.5 93.5,92.5C 93.5674,93.9587 93.2341,95.2921 92.5,96.5C 89.5,96.5 86.5,96.5 83.5,96.5C 83.5,95.8333 83.5,95.1667 83.5,94.5C 83.8333,93.8333 84.1667,93.1667 84.5,92.5 Z"/></g>
<g><path style="opacity:1" fill="#c4a869" d="M 112.5,89.5 C 112.448,92.3462 111.448,94.6796 109.5,96.5C 109.833,95.1667 110.167,93.8333 110.5,92.5C 110.932,91.2905 111.599,90.2905 112.5,89.5 Z"/></g>
<g><path style="opacity:1" fill="#f8c513" d="M 100.5,90.5 C 103.337,92.4023 106.671,93.069 110.5,92.5C 110.167,93.8333 109.833,95.1667 109.5,96.5C 108.094,96.9731 107.427,97.9731 107.5,99.5C 106.5,100.167 105.5,100.833 104.5,101.5C 104.5,100.5 104.5,99.5 104.5,98.5C 102.167,98.5 99.8333,98.5 97.5,98.5C 98.129,95.6027 99.129,92.936 100.5,90.5 Z"/></g>
<g><path style="opacity:1" fill="#f4b51a" d="M 67.5,96.5 C 70.4299,97.299 73.4299,97.6323 76.5,97.5C 76.7947,99.7354 76.4614,101.735 75.5,103.5C 73.2078,100.695 70.5411,98.3619 67.5,96.5 Z"/></g>
<g><path style="opacity:1" fill="#f7d11b" d="M 61.5,95.5 C 63.9511,100.612 67.9511,103.945 73.5,105.5C 65.1548,106.832 57.8215,104.498 51.5,98.5C 51.5,97.8333 51.5,97.1667 51.5,96.5C 51.9704,95.3065 52.9704,94.6399 54.5,94.5C 56.8976,95.293 59.2309,95.6264 61.5,95.5 Z"/></g>
<g><path style="opacity:1" fill="#f3b612" d="M 83.5,96.5 C 86.5,96.5 89.5,96.5 92.5,96.5C 92.5,96.8333 92.5,97.1667 92.5,97.5C 91.8333,97.5 91.5,97.8333 91.5,98.5C 88.8021,98.8449 86.8021,100.178 85.5,102.5C 84.8826,102.611 84.3826,102.944 84,103.5C 83.5034,101.19 83.3367,98.8568 83.5,96.5 Z"/></g>
<g><path style="opacity:1" fill="#baa678" d="M 109.5,96.5 C 111.005,100.43 110.672,104.097 108.5,107.5C 109.258,104.648 109.258,101.981 108.5,99.5C 108.167,99.5 107.833,99.5 107.5,99.5C 107.427,97.9731 108.094,96.9731 109.5,96.5 Z"/></g>
<g><path style="opacity:1" fill="#f6d817" d="M 97.5,98.5 C 99.8333,98.5 102.167,98.5 104.5,98.5C 104.5,99.5 104.5,100.5 104.5,101.5C 98.5744,104.731 92.2411,106.231 85.5,106C 88.6844,105.246 91.3511,103.746 93.5,101.5C 94.8333,100.5 96.1667,99.5 97.5,98.5 Z"/></g>
<g><path style="opacity:1" fill="#eeebe3" d="M 50.5,99.5 C 50.5,98.8333 50.8333,98.5 51.5,98.5C 57.8215,104.498 65.1548,106.832 73.5,105.5C 74.4916,105.672 75.1583,105.338 75.5,104.5C 76.7479,105.334 77.4146,106.667 77.5,108.5C 77.4146,110.333 76.7479,111.666 75.5,112.5C 71.1667,112.448 66.8334,112.114 62.5,111.5C 57.4725,108.473 53.4725,104.473 50.5,99.5 Z"/></g>
<g><path style="opacity:1" fill="#f1efe7" d="M 91.5,98.5 C 91.427,100.027 92.0937,101.027 93.5,101.5C 91.3511,103.746 88.6844,105.246 85.5,106C 92.2411,106.231 98.5744,104.731 104.5,101.5C 105.5,100.833 106.5,100.167 107.5,99.5C 107.833,99.5 108.167,99.5 108.5,99.5C 106.598,104.068 103.598,107.735 99.5,110.5C 97.1353,111.594 94.6353,112.261 92,112.5C 89.1132,111.465 86.2799,111.465 83.5,112.5C 83.2319,108.917 83.8986,105.584 85.5,102.5C 86.8021,100.178 88.8021,98.8449 91.5,98.5 Z"/></g>
<g><path style="opacity:1" fill="#1a5191" d="M 50.5,99.5 C 53.4725,104.473 57.4725,108.473 62.5,111.5C 62.1412,113.766 62.8078,115.599 64.5,117C 63.2068,117.49 61.8734,117.657 60.5,117.5C 53.6336,113.649 50.3002,107.649 50.5,99.5 Z"/></g>
<g><path style="opacity:1" fill="#cbb98b" d="M 76.5,93.5 C 77.1667,94.1667 77.8333,94.8333 78.5,95.5C 78.5,101.167 78.5,106.833 78.5,112.5C 79.8333,112.5 81.1667,112.5 82.5,112.5C 82.5,106.5 82.5,100.5 82.5,94.5C 82.8333,94.5 83.1667,94.5 83.5,94.5C 83.5,95.1667 83.5,95.8333 83.5,96.5C 83.3367,98.8568 83.5034,101.19 84,103.5C 84.3826,102.944 84.8826,102.611 85.5,102.5C 83.8986,105.584 83.2319,108.917 83.5,112.5C 80.8333,113.833 78.1667,113.833 75.5,112.5C 76.7479,111.666 77.4146,110.333 77.5,108.5C 77.4146,106.667 76.7479,105.334 75.5,104.5C 75.5,104.167 75.5,103.833 75.5,103.5C 76.4614,101.735 76.7947,99.7354 76.5,97.5C 76.5,96.1667 76.5,94.8333 76.5,93.5 Z"/></g>
<g><path style="opacity:1" fill="#ddad2f" d="M 78.5,57.5 C 78.8333,57.5 79.1667,57.5 79.5,57.5C 79.1671,75.5123 79.5005,93.5123 80.5,111.5C 81.4963,105.202 81.8297,98.8682 81.5,92.5C 81.8333,92.5 82.1667,92.5 82.5,92.5C 82.5,93.1667 82.5,93.8333 82.5,94.5C 82.5,100.5 82.5,106.5 82.5,112.5C 81.1667,112.5 79.8333,112.5 78.5,112.5C 78.5,106.833 78.5,101.167 78.5,95.5C 78.5,82.8333 78.5,70.1667 78.5,57.5 Z"/></g>
<g><path style="opacity:1" fill="#115396" d="M 108.5,99.5 C 109.258,101.981 109.258,104.648 108.5,107.5C 106.761,110.635 104.761,113.635 102.5,116.5C 101.167,116.833 99.8333,117.167 98.5,117.5C 97.7611,117.631 97.0944,117.464 96.5,117C 98.1654,115.174 99.1654,113.007 99.5,110.5C 103.598,107.735 106.598,104.068 108.5,99.5 Z"/></g>
<g><path style="opacity:1" fill="#a2977c" d="M 108.5,107.5 C 108.209,111.777 106.209,114.777 102.5,116.5C 104.761,113.635 106.761,110.635 108.5,107.5 Z"/></g>
<g><path style="opacity:1" fill="#137cbc" d="M 99.5,110.5 C 99.1654,113.007 98.1654,115.174 96.5,117C 97.0944,117.464 97.7611,117.631 98.5,117.5C 94.6315,118.796 90.6315,118.796 86.5,117.5C 82.0178,121.439 77.5178,121.439 73,117.5C 68.689,118.768 64.5224,118.768 60.5,117.5C 61.8734,117.657 63.2068,117.49 64.5,117C 62.8078,115.599 62.1412,113.766 62.5,111.5C 66.8334,112.114 71.1667,112.448 75.5,112.5C 78.1667,113.833 80.8333,113.833 83.5,112.5C 86.2799,111.465 89.1132,111.465 92,112.5C 94.6353,112.261 97.1353,111.594 99.5,110.5 Z"/></g>
</svg>
