<?xml version="1.0" encoding="UTF-8"?>
<!DOCTYPE svg PUBLIC "-//W3C//DTD SVG 1.1//EN" "http://www.w3.org/Graphics/SVG/1.1/DTD/svg11.dtd">
<svg xmlns="http://www.w3.org/2000/svg" version="1.1" width="160px" height="160px" style="shape-rendering:geometricPrecision; text-rendering:geometricPrecision; image-rendering:optimizeQuality; fill-rule:evenodd; clip-rule:evenodd" xmlns:xlink="http://www.w3.org/1999/xlink">
<g><path style="opacity:1" fill="#233d7a" d="M -0.5,-0.5 C 52.8333,-0.5 106.167,-0.5 159.5,-0.5C 159.5,52.8333 159.5,106.167 159.5,159.5C 106.167,159.5 52.8333,159.5 -0.5,159.5C -0.5,106.167 -0.5,52.8333 -0.5,-0.5 Z"/></g>
<g><path style="opacity:1" fill="#edeff4" d="M 62.5,29.5 C 64.1238,29.3601 65.2904,30.0267 66,31.5C 67.1076,35.0863 67.6076,38.753 67.5,42.5C 66.1667,42.5 64.8333,42.5 63.5,42.5C 64.2155,34.6367 63.0488,33.97 60,40.5C 58.8867,38.6707 57.3867,37.8374 55.5,38C 56.4231,40.0408 56.7564,42.2075 56.5,44.5C 55.5,44.5 54.5,44.5 53.5,44.5C 52.4147,40.2396 51.748,35.9062 51.5,31.5C 54.7845,31.2693 57.2845,32.6026 59,35.5C 59.926,33.3083 61.0927,31.3083 62.5,29.5 Z"/></g>
<g><path style="opacity:1" fill="#e7e9f0" d="M 95.5,29.5 C 99.8526,30.0588 104.186,30.7255 108.5,31.5C 108.5,32.5 108.5,33.5 108.5,34.5C 106.833,34.5 105.167,34.5 103.5,34.5C 103.037,37.4824 102.704,40.4824 102.5,43.5C 101.167,43.5 99.8333,43.5 98.5,43.5C 98.5072,40.9621 98.8405,38.4621 99.5,36C 97.8189,34.0109 96.4856,31.8442 95.5,29.5 Z"/></g>
<g><path style="opacity:1" fill="#f1f2f6" d="M 76.5,32.5 C 88.4341,31.4187 92.4341,36.4187 88.5,47.5C 96.5356,49.4749 104.536,51.6415 112.5,54C 121.883,57.7252 129.05,63.8919 134,72.5C 135.141,79.0841 134.474,85.4174 132,91.5C 119.993,104.288 105.159,111.122 87.5,112C 85.04,113.458 82.8734,115.291 81,117.5C 79.5,116 78,114.5 76.5,113C 62.9131,111.249 50.2464,106.916 38.5,100C 22.5168,86.5705 22.5168,73.2372 38.5,60C 49.4089,52.8082 61.4089,48.8082 74.5,48C 70.2042,42.2636 70.8708,37.097 76.5,32.5 Z"/></g>
<g><path style="opacity:1" fill="#2a437e" d="M 78.5,37.5 C 85.004,37.1377 86.6707,39.6377 83.5,45C 77.5933,45.7465 75.9267,43.2465 78.5,37.5 Z"/></g>
<g><path style="opacity:1" fill="#eceef3" d="M 122.5,37.5 C 127.23,38.3642 131.23,40.5308 134.5,44C 133.139,47.8912 131.139,51.3912 128.5,54.5C 127.28,54.1131 126.613,53.2798 126.5,52C 127.5,49.6667 128.5,47.3333 129.5,45C 128.831,43.1525 127.497,41.9858 125.5,41.5C 123.842,44.1608 122.176,46.8275 120.5,49.5C 119.328,49.0814 118.328,48.4147 117.5,47.5C 119.225,44.1331 120.892,40.7997 122.5,37.5 Z"/></g>
<g><path style="opacity:1" fill="#ebedf3" d="M 34.5,38.5 C 37.6311,41.4878 40.2978,44.9878 42.5,49C 41.5,49.5 40.5,50 39.5,50.5C 34.7525,46.2585 32.7525,47.2585 33.5,53.5C 33.1667,54.5 32.5,55.1667 31.5,55.5C 28.6051,52.7682 26.2718,49.6016 24.5,46C 25.0085,44.8315 25.8419,43.9981 27,43.5C 29.2425,47.2996 31.7425,47.4663 34.5,44C 32.1368,41.9164 32.1368,40.083 34.5,38.5 Z"/></g>
<g><path style="opacity:1" fill="#394e86" d="M 60.5,52.5 C 61.552,52.3505 62.552,52.5172 63.5,53C 57.7815,55.2755 52.6148,58.4421 48,62.5C 46.5806,61.5399 45.0806,60.7065 43.5,60C 49.0319,56.8942 54.6986,54.3942 60.5,52.5 Z"/></g>
<g><path style="opacity:1" fill="#2d457f" d="M 64.5,54.5 C 65.552,54.3505 66.552,54.5172 67.5,55C 63.9668,58.5889 60.8001,62.4223 58,66.5C 55.5867,65.9761 53.4201,64.9761 51.5,63.5C 55.0466,59.2744 59.3799,56.2744 64.5,54.5 Z"/></g>
<g><path style="opacity:1" fill="#2e4680" d="M 94.5,55.5 C 101.049,55.5991 106.715,58.2657 111.5,63.5C 109.129,64.791 106.629,65.791 104,66.5C 101.74,62.0713 98.5728,58.4046 94.5,55.5 Z"/></g>
<g><path style="opacity:1" fill="#374c85" d="M 98.5,53.5 C 105.444,53.8671 112.11,56.0338 118.5,60C 117.335,61.0836 116.002,61.9169 114.5,62.5C 109.727,58.4485 104.394,55.4485 98.5,53.5 Z"/></g>
<g><path style="opacity:1" fill="#7384ab" d="M 68.5,57.5 C 71.6248,56.5206 74.9581,56.1872 78.5,56.5C 78.81,59.7131 78.4767,62.7131 77.5,65.5C 77.5,62.8333 77.5,60.1667 77.5,57.5C 74.5,57.5 71.5,57.5 68.5,57.5 Z"/></g>
<g><path style="opacity:1" fill="#7182a9" d="M 93.5,57.5 C 89.9878,56.9455 86.9878,57.6122 84.5,59.5C 83.596,58.791 83.2627,57.791 83.5,56.5C 87.0419,56.1872 90.3752,56.5206 93.5,57.5 Z"/></g>
<g><path style="opacity:1" fill="#263f7c" d="M 68.5,57.5 C 71.5,57.5 74.5,57.5 77.5,57.5C 77.5,60.1667 77.5,62.8333 77.5,65.5C 77.5,66.8333 77.5,68.1667 77.5,69.5C 72.1869,69.6696 67.0202,69.0029 62,67.5C 62.8742,63.4404 65.0408,60.107 68.5,57.5 Z"/></g>
<g><path style="opacity:1" fill="#26407c" d="M 93.5,57.5 C 97.4582,59.7676 99.6248,63.101 100,67.5C 94.9413,68.695 89.7747,69.3617 84.5,69.5C 84.5,66.1667 84.5,62.8333 84.5,59.5C 86.9878,57.6122 89.9878,56.9455 93.5,57.5 Z"/></g>
<g><path style="opacity:1" fill="#29427d" d="M 40.5,61.5 C 42.7567,61.9617 44.7567,62.9617 46.5,64.5C 43.1262,68.5763 41.4595,73.243 41.5,78.5C 37.5,78.5 33.5,78.5 29.5,78.5C 30.9058,71.3514 34.5725,65.6847 40.5,61.5 Z"/></g>
<g><path style="opacity:1" fill="#29427d" d="M 119.5,61.5 C 126.956,64.7326 131.29,70.3992 132.5,78.5C 128.5,78.5 124.5,78.5 120.5,78.5C 120.666,73.3302 118.999,68.8302 115.5,65C 116.731,63.5952 118.064,62.4286 119.5,61.5 Z"/></g>
<g><path style="opacity:1" fill="#263f7c" d="M 48.5,65.5 C 51.4018,66.7837 54.4018,67.7837 57.5,68.5C 56.9492,71.8067 56.6159,75.1401 56.5,78.5C 52.1667,78.5 47.8333,78.5 43.5,78.5C 43.7732,73.6219 45.4399,69.2886 48.5,65.5 Z"/></g>
<g><path style="opacity:1" fill="#27407c" d="M 112.5,65.5 C 116.369,68.9074 118.369,73.2407 118.5,78.5C 114.167,78.5 109.833,78.5 105.5,78.5C 105.681,75.6029 105.348,72.7695 104.5,70C 106.94,68.0268 109.606,66.5268 112.5,65.5 Z"/></g>
<g><path style="opacity:1" fill="#2b437e" d="M 60.5,69.5 C 65.6762,71.0192 71.0095,71.8525 76.5,72C 77.4231,74.0408 77.7564,76.2075 77.5,78.5C 71.5,78.5 65.5,78.5 59.5,78.5C 59.3677,75.4299 59.701,72.4299 60.5,69.5 Z"/></g>
<g><path style="opacity:1" fill="#29427d" d="M 95.5,70.5 C 101.692,69.5189 104.359,72.1855 103.5,78.5C 97.5,78.5 91.5,78.5 85.5,78.5C 85.5,76.1667 85.5,73.8333 85.5,71.5C 89.0419,71.8128 92.3752,71.4794 95.5,70.5 Z"/></g>
<g><path style="opacity:1" fill="#b8c1d4" d="M 76.5,81.5 C 70.8333,81.5 65.1667,81.5 59.5,81.5C 59.5,82.8333 59.5,84.1667 59.5,85.5C 58.5489,84.0813 58.2155,82.4147 58.5,80.5C 64.69,80.1771 70.69,80.5104 76.5,81.5 Z"/></g>
<g><path style="opacity:1" fill="#b5bed2" d="M 85.5,81.5 C 91.31,80.5104 97.31,80.1771 103.5,80.5C 103.784,82.4147 103.451,84.0813 102.5,85.5C 102.5,84.1667 102.5,82.8333 102.5,81.5C 96.8333,81.5 91.1667,81.5 85.5,81.5 Z"/></g>
<g><path style="opacity:1" fill="#28417c" d="M 40.5,81.5 C 40.8214,87.0262 40.4881,92.3595 39.5,97.5C 34.1522,93.4803 30.8189,88.1469 29.5,81.5C 33.1667,81.5 36.8333,81.5 40.5,81.5 Z"/></g>
<g><path style="opacity:1" fill="#a5b0c8" d="M 40.5,81.5 C 41.8157,87.0129 41.8157,92.6796 40.5,98.5C 39.8933,98.3764 39.56,98.0431 39.5,97.5C 40.4881,92.3595 40.8214,87.0262 40.5,81.5 Z"/></g>
<g><path style="opacity:1" fill="#2b437e" d="M 44.5,82.5 C 48.2984,81.5166 52.2984,81.1832 56.5,81.5C 57.0081,84.1761 57.1747,86.8428 57,89.5C 53.0212,86.7624 48.8546,84.429 44.5,82.5 Z"/></g>
<g><path style="opacity:1" fill="#233e7a" d="M 76.5,81.5 C 76.5,83.5 76.5,85.5 76.5,87.5C 71.3726,87.2917 66.3726,87.9584 61.5,89.5C 60.2949,88.4231 59.6282,87.0898 59.5,85.5C 59.5,84.1667 59.5,82.8333 59.5,81.5C 65.1667,81.5 70.8333,81.5 76.5,81.5 Z"/></g>
<g><path style="opacity:1" fill="#2a427e" d="M 85.5,81.5 C 91.1667,81.5 96.8333,81.5 102.5,81.5C 102.5,82.8333 102.5,84.1667 102.5,85.5C 102.5,86.8333 102.5,88.1667 102.5,89.5C 96.8577,88.6464 91.191,87.9797 85.5,87.5C 85.5,85.5 85.5,83.5 85.5,81.5 Z"/></g>
<g><path style="opacity:1" fill="#2b437e" d="M 105.5,81.5 C 109.514,81.3345 113.514,81.5012 117.5,82C 113.332,84.2497 109.332,86.7497 105.5,89.5C 104.795,86.911 104.795,84.2443 105.5,81.5 Z"/></g>
<g><path style="opacity:1" fill="#26407c" d="M 121.5,81.5 C 125.167,81.5 128.833,81.5 132.5,81.5C 131.261,88.3108 127.761,93.6442 122,97.5C 121.501,92.1771 121.334,86.8437 121.5,81.5 Z"/></g>
<g><path style="opacity:1" fill="#2d447f" d="M 68.5,89.5 C 70.8333,89.5 73.1667,89.5 75.5,89.5C 75.4364,94.8986 72.7697,98.2319 67.5,99.5C 64.3603,98.2656 62.3603,95.9322 61.5,92.5C 63.7639,91.1308 66.0972,90.1308 68.5,89.5 Z"/></g>
<g><path style="opacity:1" fill="#2c447f" d="M 86.5,89.5 C 91.3781,89.6451 96.0448,90.6451 100.5,92.5C 97.9482,100.513 93.7815,101.513 88,95.5C 87.187,93.5643 86.687,91.5643 86.5,89.5 Z"/></g>
<g><path style="opacity:1" fill="#3d5188" d="M 56.5,92.5 C 57.675,92.281 58.675,92.6143 59.5,93.5C 60.373,95.4134 61.373,97.2467 62.5,99C 59.0594,98.6133 56.0594,97.1133 53.5,94.5C 54.6016,93.8243 55.6016,93.1577 56.5,92.5 Z"/></g>
<g><path style="opacity:1" fill="#3e5289" d="M 102.5,92.5 C 104.842,92.5041 106.842,93.3375 108.5,95C 105.77,97.2036 102.77,98.5369 99.5,99C 100.914,97.0065 101.914,94.8398 102.5,92.5 Z"/></g>
<g><path style="opacity:1" fill="#3d5188" d="M 45.5,97.5 C 46.552,97.3505 47.552,97.5172 48.5,98C 51.9559,101.451 55.9559,104.118 60.5,106C 54.26,105.528 48.5934,103.361 43.5,99.5C 44.2427,98.8182 44.9094,98.1515 45.5,97.5 Z"/></g>
<g><path style="opacity:1" fill="#374d85" d="M 113.5,97.5 C 114.93,97.4208 116.264,97.7542 117.5,98.5C 118.833,99.1667 118.833,99.8333 117.5,100.5C 112.646,103.059 107.646,104.892 102.5,106C 106.638,103.685 110.305,100.852 113.5,97.5 Z"/></g>
<g><path style="opacity:1" fill="#eff1f5" d="M 30.5,103.5 C 31.8221,103.33 32.9887,103.663 34,104.5C 34.9876,107.424 35.6543,110.424 36,113.5C 37.0414,111.415 38.5414,109.748 40.5,108.5C 41.5,108.833 42.1667,109.5 42.5,110.5C 40.8966,114.256 38.7299,117.59 36,120.5C 35.228,120.355 34.5613,120.022 34,119.5C 33.1045,116.417 32.1045,113.417 31,110.5C 30.028,112.305 28.8613,113.972 27.5,115.5C 26.3279,115.081 25.3279,114.415 24.5,113.5C 26.5113,110.139 28.5113,106.806 30.5,103.5 Z"/></g>
<g><path style="opacity:1" fill="#eaecf2" d="M 128.5,103.5 C 131.864,102.873 133.864,104.206 134.5,107.5C 133.594,109.747 132.261,111.747 130.5,113.5C 131.04,114.748 131.707,115.915 132.5,117C 131.892,117.87 131.059,118.37 130,118.5C 126.799,115.798 124.299,112.465 122.5,108.5C 124.571,106.815 126.571,105.148 128.5,103.5 Z"/></g>
<g><path style="opacity:1" fill="#2b447f" d="M 127.5,107.5 C 130.548,107.494 131.048,108.494 129,110.5C 127.961,109.756 127.461,108.756 127.5,107.5 Z"/></g>
<g><path style="opacity:1" fill="#e8ebf1" d="M 97.5,115.5 C 99.5,115.5 101.5,115.5 103.5,115.5C 103.5,116.5 103.5,117.5 103.5,118.5C 101.712,118.215 100.045,118.548 98.5,119.5C 100.733,120.742 102.899,122.076 105,123.5C 105.561,126.298 104.394,128.131 101.5,129C 99.8659,129.494 98.1992,129.66 96.5,129.5C 96.5,128.5 96.5,127.5 96.5,126.5C 98.288,126.785 99.9547,126.452 101.5,125.5C 99.0918,124.547 96.9251,123.213 95,121.5C 94.3333,120.5 94.3333,119.5 95,118.5C 96.045,117.627 96.8783,116.627 97.5,115.5 Z"/></g>
<g><path style="opacity:1" fill="#e9ebf1" d="M 64.5,116.5 C 67.5448,116.508 70.5448,116.841 73.5,117.5C 73.6567,118.873 73.49,120.207 73,121.5C 69.5282,118.662 66.6948,119.162 64.5,123C 64.7591,124.261 65.4258,125.261 66.5,126C 68.4727,126.495 70.4727,126.662 72.5,126.5C 72.5,127.5 72.5,128.5 72.5,129.5C 64.2383,131.717 60.4049,128.717 61,120.5C 62.3756,119.295 63.5423,117.962 64.5,116.5 Z"/></g>
</svg>
