<svg id="Слой_1" data-name="Слой 1" xmlns="http://www.w3.org/2000/svg" viewBox="0 0 48 48"><defs><style>.cls-2{fill:#f25119}.cls-3{fill:#6d6e72}</style></defs><g id="ODVA"><path fill="#f2f3f4" d="M0 0h48v48H0z"/><path class="cls-2" d="M15.91 20.6l-1.13 3h-.83l-1.09-3.09v3.94H12V19h1.22l1.18 3.5 1.32-3.5h1.12v5.53h-.94zm1.86-1.6h3.13v.92h-2.19v1.29h1.85v.92h-1.85v1.48h2.22v.92h-3.16zm7.83 4.64h.62v.85h-4.89v-.85h.33a1.38 1.38 0 00.3-.53 4.85 4.85 0 00.2-.92q.08-.57.12-1.36t.09-1.83h3.23zm-.94 0v-3.76h-1.47q0 .74-.06 1.32t-.09 1a7.31 7.31 0 01-.14.8 2.73 2.73 0 01-.21.59zm2.23.85V19h.94v3.91L30 19h1v5.53h-1v-3.9l-2.21 3.9zm6.3-5.49h1.13L36 24.49h-1l-.4-1.34h-1.9l-.4 1.34h-.79zm1.17 3.27L33.68 20 33 22.23z"/><path class="cls-3" d="M13.55 27.43l-.78 1.44h-.7l1.1-2L12.09 25h.8l.76 1.4.75-1.4h.7L14 26.89l1.13 2h-.8z"/><path class="cls-3" d="M16.86 28.92a1.78 1.78 0 01-.68-.13 1.49 1.49 0 01-.55-.38 1.86 1.86 0 01-.37-.63 2.84 2.84 0 010-1.73 1.89 1.89 0 01.37-.63 1.51 1.51 0 01.55-.39 1.74 1.74 0 01.68-.13 1.77 1.77 0 01.68.13 1.52 1.52 0 01.55.38 1.81 1.81 0 01.37.62 2.52 2.52 0 01.14.86 2.57 2.57 0 01-.14.87 1.87 1.87 0 01-.37.63 1.55 1.55 0 01-.55.39 1.71 1.71 0 01-.68.14zm0-.65a1 1 0 00.4-.07.79.79 0 00.31-.23 1.17 1.17 0 00.21-.42 2.65 2.65 0 000-1.26 1.17 1.17 0 00-.21-.42.79.79 0 00-.31-.23 1 1 0 00-.4-.07 1 1 0 00-.39.07.79.79 0 00-.31.23 1.18 1.18 0 00-.21.42 2.66 2.66 0 000 1.26 1.18 1.18 0 00.21.42.79.79 0 00.31.23 1 1 0 00.39.07zm2.4-.7a6.91 6.91 0 00.09-1v-1.61h2.33v3.92H21V25.6h-1V27a5.34 5.34 0 01-.15 1 1.43 1.43 0 01-.33.65.79.79 0 01-.59.22h-.16v-.73h.07a.34.34 0 00.3-.15 1.05 1.05 0 00.12-.42zm6.05.7h.47v.61h-3.65v-.61h.25a1 1 0 00.22-.37 3.3 3.3 0 00.15-.65q.06-.4.09-1t.04-1.25h2.42zm-.71 0V25.6h-1.1v.94q0 .42-.07.74a4.9 4.9 0 01-.1.57 1.87 1.87 0 01-.15.42zm1.68.6V25H27v2.78L28.64 25h.72v3.92h-.71V26.1L27 28.87zm6-1.62h-1.52v1.62h-.7V25h.7v1.6h1.52V25H33v3.92h-.7zM33.67 25h2.12v.65h-1.41v3.27h-.7zm-8.06 8.92h-1.59l1.21 3.02h1.56l-1.18-3.02z"/><path class="cls-2" d="M20.16 11.06l-1.19 3.02h1.57l1.21-3.02h-1.59z"/><path class="cls-3" d="M23.83 36.94l-1.21-3.02h-1.51l1.2 3.02h1.52zm9.55-25.88h-6.26l-1.2 3h7.46a5.06 5.06 0 015.05 5.05v9.73a5.06 5.06 0 01-5.05 5.05h-6.56l1.19 3h5.38a8.08 8.08 0 008.07-8.07v-9.69a8.08 8.08 0 00-8.08-8.07z"/><path class="cls-2" d="M23.15 11.06l-1.21 3.02h1.52l1.2-3.02h-1.51zm-4.5 22.86h-4a5.06 5.06 0 01-5.05-5.05v-9.74a5.06 5.06 0 015.05-5.05h3.14l1.19-3h-4.36a8.08 8.08 0 00-8.07 8.07v9.73a8.08 8.08 0 008.07 8.07h5.23z"/></g></svg>