<?xml version="1.0" encoding="UTF-8"?>
<!DOCTYPE svg PUBLIC "-//W3C//DTD SVG 1.1//EN" "http://www.w3.org/Graphics/SVG/1.1/DTD/svg11.dtd">
<svg xmlns="http://www.w3.org/2000/svg" version="1.1" width="160px" height="160px" style="shape-rendering:geometricPrecision; text-rendering:geometricPrecision; image-rendering:optimizeQuality; fill-rule:evenodd; clip-rule:evenodd" xmlns:xlink="http://www.w3.org/1999/xlink">
<g><path style="opacity:1" fill="#137cbf" d="M -0.5,-0.5 C 52.8333,-0.5 106.167,-0.5 159.5,-0.5C 159.5,52.8333 159.5,106.167 159.5,159.5C 106.167,159.5 52.8333,159.5 -0.5,159.5C -0.5,106.167 -0.5,52.8333 -0.5,-0.5 Z"/></g>
<g><path style="opacity:1" fill="#eff6fb" d="M 93.5,25.5 C 97.1608,27.7598 99.6608,31.0931 101,35.5C 107.551,52.6467 106.551,69.3134 98,85.5C 97.059,87.0614 95.8924,88.3947 94.5,89.5C 81.5962,68.3693 81.2629,47.0359 93.5,25.5 Z"/></g>
<g><path style="opacity:1" fill="#3088c6" d="M 88.5,61.5 C 87.5233,58.7131 87.19,55.7131 87.5,52.5C 87.8465,44.4631 90.1799,37.1298 94.5,30.5C 98.4436,36.1453 100.944,42.4787 102,49.5C 102.667,55.5 102.667,61.5 102,67.5C 101.686,57.9529 99.3529,48.9529 95,40.5C 90.9222,46.9005 88.7556,53.9005 88.5,61.5 Z"/></g>
<g><path style="opacity:1" fill="#f8fbfd" d="M 75.5,56.5 C 77.5,56.5 79.5,56.5 81.5,56.5C 81.5,65.5 81.5,74.5 81.5,83.5C 69.4261,84.4068 62.7594,90.9068 61.5,103C 64.5468,121.687 74.8801,127.687 92.5,121C 98.1088,117.723 99.9422,112.89 98,106.5C 93.6428,99.9967 88.3094,98.9967 82,103.5C 81.5014,99.8484 81.3347,96.1817 81.5,92.5C 90.5,92.5 99.5,92.5 108.5,92.5C 108.666,100.84 108.5,109.173 108,117.5C 93.2565,130.27 77.4232,131.77 60.5,122C 40.9537,102.933 40.6204,83.5994 59.5,64C 64.5571,60.6347 69.8905,58.1347 75.5,56.5 Z"/></g>
<g><path style="opacity:1" fill="#7ab6dc" d="M 87.5,52.5 C 87.19,55.7131 87.5233,58.7131 88.5,61.5C 88.6633,63.8568 88.4966,66.1902 88,68.5C 86.4489,63.0456 86.2822,57.7123 87.5,52.5 Z"/></g>
<g><path style="opacity:1" fill="#2c86c5" d="M 94.5,64.5 C 96.7815,67.524 97.7815,71.024 97.5,75C 96.2021,91.4499 94.2021,91.6165 91.5,75.5C 91.8981,71.6432 92.8981,67.9766 94.5,64.5 Z"/></g>
</svg>
