<!-- by TradingView --><svg xmlns="http://www.w3.org/2000/svg" width="56" height="56"><path fill="#F0F3FA" d="M0 0h56v56H0z"/><path fill-rule="evenodd" d="M22 23.5a3 3 0 100-6 3 3 0 000 6zm0 1.5a4.5 4.5 0 100-9 4.5 4.5 0 000 9z" fill="#E31E24"/><path fill-rule="evenodd" d="M29.5 36.5a3 3 0 100-6 3 3 0 000 6zm0 1.5a4.5 4.5 0 100-9 4.5 4.5 0 000 9z" fill="#00A0E3"/><path d="M11.5 38a4.5 4.5 0 004.47-5H11v1.5h3.33a3 3 0 11-1.17-3.5h2.08a4.5 4.5 0 10-3.74 7zM37 29h-2l.5.5V35a3 3 0 106 0v-6H40v6a1.5 1.5 0 01-3 0v-6z" fill="#00A0E3"/><path fill-rule="evenodd" d="M44.5 29h-2l.5.5V38h1.5v-3.5h1.75a2.75 2.75 0 100-5.5H44.5zm0 1.5V33h1.75a1.25 1.25 0 100-2.5H44.5z" fill="#00A0E3"/><path fill-rule="evenodd" d="M28 16h3.25a2.75 2.75 0 01.22 5.5l2.46 3.5H32.1l-2.45-3.5h-.15V25H28v-8.5l-.5-.5h.5zm1.5 4v-2.5h1.75a1.25 1.25 0 110 2.5H29.5z" fill="#E31E24"/><path fill-rule="evenodd" d="M17.5 29h3.25a2.75 2.75 0 01.22 5.5l2.46 3.5H21.6l-2.45-3.5H19V38h-1.5v-8.5L17 29h.5zm1.5 4v-2.5h1.75a1.25 1.25 0 110 2.5H19z" fill="#00A0E3"/></svg>