<?xml version="1.0" encoding="UTF-8"?>
<!DOCTYPE svg PUBLIC "-//W3C//DTD SVG 1.1//EN" "http://www.w3.org/Graphics/SVG/1.1/DTD/svg11.dtd">
<svg xmlns="http://www.w3.org/2000/svg" version="1.1" width="160px" height="160px" style="shape-rendering:geometricPrecision; text-rendering:geometricPrecision; image-rendering:optimizeQuality; fill-rule:evenodd; clip-rule:evenodd" xmlns:xlink="http://www.w3.org/1999/xlink">
<g><path style="opacity:0.016" fill="#0f51ff" d="M 57.5,-0.5 C 58.5,-0.5 59.5,-0.5 60.5,-0.5C 59.5,0.833333 58.5,0.833333 57.5,-0.5 Z"/></g>
<g><path style="opacity:0.987" fill="#085bfe" d="M 66.5,-0.5 C 75.1667,-0.5 83.8333,-0.5 92.5,-0.5C 107.342,2.58698 120.675,8.92031 132.5,18.5C 132.5,19.1667 132.833,19.5 133.5,19.5C 133.5,20.1667 133.833,20.5 134.5,20.5C 135.5,22.1667 136.833,23.5 138.5,24.5C 138.5,25.1667 138.833,25.5 139.5,25.5C 139.5,26.1667 139.833,26.5 140.5,26.5C 148.003,35.841 153.67,46.1743 157.5,57.5C 157.676,60.7273 158.343,63.7273 159.5,66.5C 159.5,75.1667 159.5,83.8333 159.5,92.5C 158.343,95.2727 157.676,98.2727 157.5,101.5C 156.596,102.209 156.263,103.209 156.5,104.5C 155.596,105.209 155.263,106.209 155.5,107.5C 154.596,108.209 154.263,109.209 154.5,110.5C 153.662,110.842 153.328,111.508 153.5,112.5C 152.662,112.842 152.328,113.508 152.5,114.5C 151.662,114.842 151.328,115.508 151.5,116.5C 150.662,116.842 150.328,117.508 150.5,118.5C 149.662,118.842 149.328,119.508 149.5,120.5C 148.833,120.5 148.5,120.833 148.5,121.5C 146.808,123.205 145.475,125.205 144.5,127.5C 130.833,113.5 117.167,99.5 103.5,85.5C 106.191,76.3857 102.858,70.8857 93.5,69C 82.874,66.8992 74.7074,70.3992 69,79.5C 67.3787,85.5248 68.8787,90.5248 73.5,94.5C 70.9484,115.81 68.6151,137.143 66.5,158.5C 63.4824,158.296 60.4824,157.963 57.5,157.5C 46.1743,153.67 35.841,148.003 26.5,140.5C 26.5,139.833 26.1667,139.5 25.5,139.5C 25.5,138.833 25.1667,138.5 24.5,138.5C 23.5,136.833 22.1667,135.5 20.5,134.5C 20.5,133.833 20.1667,133.5 19.5,133.5C 19.5,132.833 19.1667,132.5 18.5,132.5C 17.1363,130.809 15.803,129.142 14.5,127.5C 13.5254,125.205 12.1921,123.205 10.5,121.5C 10.0679,120.29 9.40128,119.29 8.5,118.5C 8.67158,117.508 8.33825,116.842 7.5,116.5C 7.3404,114.847 6.67373,113.514 5.5,112.5C 5.20414,110.597 4.53747,108.93 3.5,107.5C 3.73731,106.209 3.40397,105.209 2.5,104.5C 1.78665,100.313 0.786653,96.313 -0.5,92.5C -0.5,83.8333 -0.5,75.1667 -0.5,66.5C 2.58698,51.658 8.92031,38.3247 18.5,26.5C 19.1667,26.5 19.5,26.1667 19.5,25.5C 20.1667,25.5 20.5,25.1667 20.5,24.5C 22.1667,23.5 23.5,22.1667 24.5,20.5C 25.1667,20.5 25.5,20.1667 25.5,19.5C 26.1667,19.5 26.5,19.1667 26.5,18.5C 38.3247,8.92031 51.658,2.58698 66.5,-0.5 Z"/></g>
<g><path style="opacity:0.016" fill="#0f51ff" d="M 98.5,-0.5 C 99.5,-0.5 100.5,-0.5 101.5,-0.5C 100.5,0.833333 99.5,0.833333 98.5,-0.5 Z"/></g>
<g><path style="opacity:0.004" fill="#1537ff" d="M 26.5,18.5 C 25.8333,18.5 25.5,18.8333 25.5,19.5C 24.8333,19.5 24.5,19.8333 24.5,20.5C 22.4076,19.7145 22.7409,18.7145 25.5,17.5C 26.1067,17.6236 26.44,17.9569 26.5,18.5 Z"/></g>
<g><path style="opacity:0.004" fill="#1534ff" d="M 132.5,18.5 C 134.07,17.4407 135.403,17.9407 136.5,20C 135.906,20.4643 135.239,20.631 134.5,20.5C 133.833,20.5 133.5,20.1667 133.5,19.5C 132.833,19.5 132.5,19.1667 132.5,18.5 Z"/></g>
<g><path style="opacity:0.004" fill="#143aff" d="M 20.5,24.5 C 19.8333,24.5 19.5,24.8333 19.5,25.5C 18.8333,25.5 18.5,25.8333 18.5,26.5C 17.4407,24.9301 17.9407,23.5968 20,22.5C 20.4643,23.0944 20.631,23.7611 20.5,24.5 Z"/></g>
<g><path style="opacity:0.004" fill="#1437ff" d="M 140.5,26.5 C 139.833,26.5 139.5,26.1667 139.5,25.5C 138.833,25.5 138.5,25.1667 138.5,24.5C 139.286,22.4076 140.286,22.7409 141.5,25.5C 141.376,26.1067 141.043,26.44 140.5,26.5 Z"/></g>
<g><path style="opacity:0.01" fill="#007fff" d="M 158.5,57.5 C 158.167,57.5 157.833,57.5 157.5,57.5C 157.833,53.5 158.167,53.5 158.5,57.5 Z"/></g>
<g><path style="opacity:0.016" fill="#0f51ff" d="M -0.5,57.5 C 0.833333,58.5 0.833333,59.5 -0.5,60.5C -0.5,59.5 -0.5,58.5 -0.5,57.5 Z"/></g>
<g><path style="opacity:1" fill="#f3f5ff" d="M 124.5,58.5 C 126.144,58.2865 127.644,58.6198 129,59.5C 131.357,67.0643 133.19,74.731 134.5,82.5C 128.04,80.2325 121.707,77.5658 115.5,74.5C 115.167,74.8333 114.833,75.1667 114.5,75.5C 116.09,79.0363 116.59,82.703 116,86.5C 114.333,87.8333 112.667,87.8333 111,86.5C 108.127,78.9715 106.627,71.3048 106.5,63.5C 112.5,66.1667 118.5,68.8333 124.5,71.5C 123.613,67.4002 123.613,63.0669 124.5,58.5 Z"/></g>
<g><path style="opacity:0.016" fill="#0f51ff" d="M 158.5,57.5 C 158.833,57.5 159.167,57.5 159.5,57.5C 159.5,58.5 159.5,59.5 159.5,60.5C 158.596,59.791 158.263,58.791 158.5,57.5 Z"/></g>
<g><path style="opacity:1" fill="#fbf3f8" d="M 103.5,85.5 C 95.6386,95.3406 85.6386,98.3406 73.5,94.5C 68.8787,90.5248 67.3787,85.5248 69,79.5C 74.7074,70.3992 82.874,66.8992 93.5,69C 102.858,70.8857 106.191,76.3857 103.5,85.5 Z"/></g>
<g><path style="opacity:1" fill="#f4f5ff" d="M 59.5,75.5 C 60.8333,75.5 62.1667,75.5 63.5,75.5C 61.7557,82.3327 59.4223,88.9994 56.5,95.5C 56.8333,95.8333 57.1667,96.1667 57.5,96.5C 61.0363,94.9101 64.703,94.4101 68.5,95C 69.5536,96.3876 69.7203,97.8876 69,99.5C 61.651,102.046 54.151,104.046 46.5,105.5C 48.2443,98.6673 50.5777,92.0006 53.5,85.5C 53,85.1667 52.5,84.8333 52,84.5C 49.2704,85.8614 46.4371,86.3614 43.5,86C 42.4464,84.6124 42.2797,83.1124 43,81.5C 48.3683,78.9898 53.8683,76.9898 59.5,75.5 Z"/></g>
<g><path style="opacity:1" fill="#f91d54" d="M 82.5,75.5 C 87.2973,75.1211 91.964,75.6211 96.5,77C 97.5914,79.0639 97.7581,81.2305 97,83.5C 90.2823,89.9849 82.9489,90.9849 75,86.5C 74.3333,85.1667 74.3333,83.8333 75,82.5C 77.0147,79.5883 79.5147,77.255 82.5,75.5 Z"/></g>
<g><path style="opacity:1" fill="#f3f5ff" d="M 24.5,84.5 C 39.2974,85.4419 44.1308,92.7752 39,106.5C 33.1463,112.077 26.6463,112.91 19.5,109C 11.686,98.8534 13.3527,90.6868 24.5,84.5 Z"/></g>
<g><path style="opacity:1" fill="#f81155" d="M 103.5,85.5 C 117.167,99.5 130.833,113.5 144.5,127.5C 144.5,127.833 144.5,128.167 144.5,128.5C 143.833,128.5 143.5,128.833 143.5,129.5C 142.833,129.5 142.5,129.833 142.5,130.5C 141.833,130.5 141.5,130.833 141.5,131.5C 140.833,131.5 140.5,131.833 140.5,132.5C 139.662,132.842 139.328,133.508 139.5,134.5C 138.833,134.5 138.5,134.833 138.5,135.5C 137.833,135.5 137.5,135.833 137.5,136.5C 136.833,136.5 136.5,136.833 136.5,137.5C 135.833,137.5 135.5,137.833 135.5,138.5C 134.833,138.5 134.5,138.833 134.5,139.5C 133.508,139.328 132.842,139.662 132.5,140.5C 131.833,140.5 131.5,140.833 131.5,141.5C 130.833,141.5 130.5,141.833 130.5,142.5C 129.833,142.5 129.5,142.833 129.5,143.5C 128.833,143.5 128.5,143.833 128.5,144.5C 127.508,144.328 126.842,144.662 126.5,145.5C 125.833,145.5 125.5,145.833 125.5,146.5C 124.508,146.328 123.842,146.662 123.5,147.5C 122.833,147.5 122.5,147.833 122.5,148.5C 121.508,148.328 120.842,148.662 120.5,149.5C 119.508,149.328 118.842,149.662 118.5,150.5C 116.181,150.992 114.181,151.992 112.5,153.5C 111.508,153.328 110.842,153.662 110.5,154.5C 109.508,154.328 108.842,154.662 108.5,155.5C 107.209,155.263 106.209,155.596 105.5,156.5C 104.209,156.263 103.209,156.596 102.5,157.5C 100.901,157.232 99.5676,157.566 98.5,158.5C 96.5853,158.216 94.9187,158.549 93.5,159.5C 84.5,159.5 75.5,159.5 66.5,159.5C 66.5,159.167 66.5,158.833 66.5,158.5C 68.6151,137.143 70.9484,115.81 73.5,94.5C 85.6386,98.3406 95.6386,95.3406 103.5,85.5 Z"/></g>
<g><path style="opacity:1" fill="#2b5dff" d="M 24.5,91.5 C 31.6686,90.5131 35.1686,93.5131 35,100.5C 31.588,106.15 27.4213,106.817 22.5,102.5C 20.7624,98.3098 21.429,94.6432 24.5,91.5 Z"/></g>
<g><path style="opacity:0.016" fill="#0f51ff" d="M -0.5,98.5 C 0.833333,99.5 0.833333,100.5 -0.5,101.5C -0.5,100.5 -0.5,99.5 -0.5,98.5 Z"/></g>
<g><path style="opacity:0.016" fill="#0f51ff" d="M 159.5,98.5 C 159.5,99.5 159.5,100.5 159.5,101.5C 159.167,101.5 158.833,101.5 158.5,101.5C 158.263,100.209 158.596,99.209 159.5,98.5 Z"/></g>
<g><path style="opacity:0.01" fill="#007fff" d="M 157.5,101.5 C 157.833,101.5 158.167,101.5 158.5,101.5C 158.737,102.791 158.404,103.791 157.5,104.5C 157.5,103.5 157.5,102.5 157.5,101.5 Z"/></g>
<g><path style="opacity:0.012" fill="#1b69ff" d="M 2.5,104.5 C 2.5,105.5 2.5,106.5 2.5,107.5C 1.16667,106.5 1.16667,105.5 2.5,104.5 Z"/></g>
<g><path style="opacity:0.012" fill="#1b69ff" d="M 156.5,104.5 C 156.833,104.5 157.167,104.5 157.5,104.5C 157.737,105.791 157.404,106.791 156.5,107.5C 156.5,106.5 156.5,105.5 156.5,104.5 Z"/></g>
<g><path style="opacity:0.016" fill="#1548ff" d="M 2.5,107.5 C 2.83333,107.5 3.16667,107.5 3.5,107.5C 3.16667,111.5 2.83333,111.5 2.5,107.5 Z"/></g>
<g><path style="opacity:0.016" fill="#1548ff" d="M 155.5,107.5 C 155.833,107.5 156.167,107.5 156.5,107.5C 156.737,108.791 156.404,109.791 155.5,110.5C 155.5,109.5 155.5,108.5 155.5,107.5 Z"/></g>
<g><path style="opacity:0.012" fill="#007fff" d="M 154.5,110.5 C 154.833,110.5 155.167,110.5 155.5,110.5C 155.672,111.492 155.338,112.158 154.5,112.5C 154.5,111.833 154.5,111.167 154.5,110.5 Z"/></g>
<g><path style="opacity:0.012" fill="#014eff" d="M 5.5,112.5 C 5.63101,113.239 5.46434,113.906 5,114.5C 4.30831,113.563 4.47498,112.897 5.5,112.5 Z"/></g>
<g><path style="opacity:0.012" fill="#014eff" d="M 153.5,112.5 C 153.833,112.5 154.167,112.5 154.5,112.5C 154.672,113.492 154.338,114.158 153.5,114.5C 153.5,113.833 153.5,113.167 153.5,112.5 Z"/></g>
<g><path style="opacity:0.012" fill="#0054ff" d="M 152.5,114.5 C 152.833,114.5 153.167,114.5 153.5,114.5C 153.672,115.492 153.338,116.158 152.5,116.5C 152.5,115.833 152.5,115.167 152.5,114.5 Z"/></g>
<g><path style="opacity:0.008" fill="#0a72ff" d="M 7.5,116.5 C 7.5,117.167 7.5,117.833 7.5,118.5C 6.16667,117.833 6.16667,117.167 7.5,116.5 Z"/></g>
<g><path style="opacity:0.008" fill="#0a72ff" d="M 151.5,116.5 C 151.833,116.5 152.167,116.5 152.5,116.5C 152.672,117.492 152.338,118.158 151.5,118.5C 151.5,117.833 151.5,117.167 151.5,116.5 Z"/></g>
<g><path style="opacity:0.004" fill="#30d3ff" d="M 7.5,118.5 C 7.83333,118.5 8.16667,118.5 8.5,118.5C 8.16667,121.167 7.83333,121.167 7.5,118.5 Z"/></g>
<g><path style="opacity:0.004" fill="#30d3ff" d="M 150.5,118.5 C 150.833,118.5 151.167,118.5 151.5,118.5C 151.672,119.492 151.338,120.158 150.5,120.5C 150.5,119.833 150.5,119.167 150.5,118.5 Z"/></g>
<g><path style="opacity:0.016" fill="#007fff" d="M 149.5,120.5 C 149.833,120.5 150.167,120.5 150.5,120.5C 150.315,121.17 149.981,121.17 149.5,120.5 Z"/></g>
<g><path style="opacity:0.012" fill="#0b42ff" d="M 10.5,121.5 C 10.631,122.239 10.4643,122.906 10,123.5C 9.30831,122.563 9.47498,121.897 10.5,121.5 Z"/></g>
<g><path style="opacity:0.012" fill="#0b42ff" d="M 148.5,121.5 C 148.833,121.5 149.167,121.5 149.5,121.5C 149.167,124.167 148.833,124.167 148.5,121.5 Z"/></g>
<g><path style="opacity:0.004" fill="#0b2bff" d="M 14.5,127.5 C 14.631,128.239 14.4643,128.906 14,129.5C 13.3083,128.563 13.475,127.897 14.5,127.5 Z"/></g>
<g><path style="opacity:0.012" fill="#fe0054" d="M 144.5,128.5 C 145.833,129.167 145.833,129.167 144.5,128.5 Z"/></g>
<g><path style="opacity:0.024" fill="#d40054" d="M 143.5,129.5 C 143.833,129.5 144.167,129.5 144.5,129.5C 144.315,130.17 143.981,130.17 143.5,129.5 Z"/></g>
<g><path style="opacity:0.02" fill="#fe0065" d="M 142.5,130.5 C 142.833,130.5 143.167,130.5 143.5,130.5C 143.315,131.17 142.981,131.17 142.5,130.5 Z"/></g>
<g><path style="opacity:0.004" fill="#effd36" d="M 141.5,131.5 C 141.833,131.5 142.167,131.5 142.5,131.5C 142.573,133.027 141.906,134.027 140.5,134.5C 140.5,133.833 140.5,133.167 140.5,132.5C 141.167,132.5 141.5,132.167 141.5,131.5 Z"/></g>
<g><path style="opacity:0.004" fill="#1534ff" d="M 18.5,132.5 C 19.1667,132.5 19.5,132.833 19.5,133.5C 20.1667,133.5 20.5,133.833 20.5,134.5C 19.7145,136.592 18.7145,136.259 17.5,133.5C 17.6236,132.893 17.9569,132.56 18.5,132.5 Z"/></g>
<g><path style="opacity:0.012" fill="#fe0054" d="M 139.5,134.5 C 139.833,134.5 140.167,134.5 140.5,134.5C 140.315,135.17 139.981,135.17 139.5,134.5 Z"/></g>
<g><path style="opacity:0.016" fill="#fe003f" d="M 138.5,135.5 C 138.833,135.5 139.167,135.5 139.5,135.5C 139.315,136.17 138.981,136.17 138.5,135.5 Z"/></g>
<g><path style="opacity:0.016" fill="#fe003f" d="M 137.5,136.5 C 137.833,136.5 138.167,136.5 138.5,136.5C 138.315,137.17 137.981,137.17 137.5,136.5 Z"/></g>
<g><path style="opacity:0.016" fill="#fe003f" d="M 136.5,137.5 C 136.833,137.5 137.167,137.5 137.5,137.5C 137.315,138.17 136.981,138.17 136.5,137.5 Z"/></g>
<g><path style="opacity:0.004" fill="#1437ff" d="M 24.5,138.5 C 25.1667,138.5 25.5,138.833 25.5,139.5C 26.1667,139.5 26.5,139.833 26.5,140.5C 24.9301,141.559 23.5968,141.059 22.5,139C 23.0944,138.536 23.7611,138.369 24.5,138.5 Z"/></g>
<g><path style="opacity:0.016" fill="#fe003f" d="M 135.5,138.5 C 135.833,138.5 136.167,138.5 136.5,138.5C 136.315,139.17 135.981,139.17 135.5,138.5 Z"/></g>
<g><path style="opacity:0.012" fill="#fe0054" d="M 134.5,139.5 C 134.833,139.5 135.167,139.5 135.5,139.5C 135.315,140.17 134.981,140.17 134.5,139.5 Z"/></g>
<g><path style="opacity:0.004" fill="#effd36" d="M 132.5,140.5 C 133.167,140.5 133.833,140.5 134.5,140.5C 134.027,141.906 133.027,142.573 131.5,142.5C 131.5,142.167 131.5,141.833 131.5,141.5C 132.167,141.5 132.5,141.167 132.5,140.5 Z"/></g>
<g><path style="opacity:0.02" fill="#fe0065" d="M 130.5,142.5 C 130.833,142.5 131.167,142.5 131.5,142.5C 131.315,143.17 130.981,143.17 130.5,142.5 Z"/></g>
<g><path style="opacity:0.024" fill="#d40054" d="M 129.5,143.5 C 129.833,143.5 130.167,143.5 130.5,143.5C 130.315,144.17 129.981,144.17 129.5,143.5 Z"/></g>
<g><path style="opacity:0.012" fill="#fe0054" d="M 128.5,144.5 C 128.833,144.5 129.167,144.5 129.5,144.5C 129.315,145.17 128.981,145.17 128.5,144.5 Z"/></g>
<g><path style="opacity:0.004" fill="#fffe2d" d="M 126.5,146.5 C 126.5,146.167 126.5,145.833 126.5,145.5C 127.167,145.5 127.833,145.5 128.5,145.5C 128.158,146.338 127.492,146.672 126.5,146.5 Z"/></g>
<g><path style="opacity:0.02" fill="#fe0065" d="M 125.5,146.5 C 125.833,146.5 126.167,146.5 126.5,146.5C 126.315,147.17 125.981,147.17 125.5,146.5 Z"/></g>
<g><path style="opacity:0.008" fill="#ffff6a" d="M 123.5,148.5 C 123.5,148.167 123.5,147.833 123.5,147.5C 124.167,147.5 124.833,147.5 125.5,147.5C 125.158,148.338 124.492,148.672 123.5,148.5 Z"/></g>
<g><path style="opacity:0.016" fill="#fe003f" d="M 122.5,148.5 C 122.833,148.5 123.167,148.5 123.5,148.5C 123.315,149.17 122.981,149.17 122.5,148.5 Z"/></g>
<g><path style="opacity:0.004" fill="#effd2e" d="M 120.5,150.5 C 120.5,150.167 120.5,149.833 120.5,149.5C 121.167,149.5 121.833,149.5 122.5,149.5C 122.158,150.338 121.492,150.672 120.5,150.5 Z"/></g>
<g><path style="opacity:0.012" fill="#fe0054" d="M 118.5,151.5 C 118.5,151.167 118.5,150.833 118.5,150.5C 119.167,150.5 119.833,150.5 120.5,150.5C 120.158,151.338 119.492,151.672 118.5,151.5 Z"/></g>
<g><path style="opacity:0.016" fill="#fe003f" d="M 118.5,151.5 C 117.833,152.167 117.833,152.167 118.5,151.5 Z"/></g>
<g><path style="opacity:0.016" fill="#fe003f" d="M 115.5,152.5 C 116.833,153.167 116.833,153.167 115.5,152.5 Z"/></g>
<g><path style="opacity:0.016" fill="#ff0027" d="M 112.5,154.5 C 112.5,154.167 112.5,153.833 112.5,153.5C 113.5,153.5 114.5,153.5 115.5,153.5C 114.791,154.404 113.791,154.737 112.5,154.5 Z"/></g>
<g><path style="opacity:0.012" fill="#ff0063" d="M 110.5,155.5 C 110.5,155.167 110.5,154.833 110.5,154.5C 111.167,154.5 111.833,154.5 112.5,154.5C 112.158,155.338 111.492,155.672 110.5,155.5 Z"/></g>
<g><path style="opacity:0.008" fill="#ed0077" d="M 108.5,156.5 C 108.5,156.167 108.5,155.833 108.5,155.5C 109.167,155.5 109.833,155.5 110.5,155.5C 110.158,156.338 109.492,156.672 108.5,156.5 Z"/></g>
<g><path style="opacity:0.016" fill="#df0034" d="M 105.5,157.5 C 105.5,157.167 105.5,156.833 105.5,156.5C 106.5,156.5 107.5,156.5 108.5,156.5C 107.791,157.404 106.791,157.737 105.5,157.5 Z"/></g>
<g><path style="opacity:0.01" fill="#007fff" d="M 57.5,157.5 C 57.5,157.833 57.5,158.167 57.5,158.5C 53.5,158.167 53.5,157.833 57.5,157.5 Z"/></g>
<g><path style="opacity:0.016" fill="#ff0034" d="M 102.5,158.5 C 102.5,158.167 102.5,157.833 102.5,157.5C 103.5,157.5 104.5,157.5 105.5,157.5C 104.791,158.404 103.791,158.737 102.5,158.5 Z"/></g>
<g><path style="opacity:0.016" fill="#0f51ff" d="M 57.5,159.5 C 57.5,159.167 57.5,158.833 57.5,158.5C 58.791,158.263 59.791,158.596 60.5,159.5C 59.5,159.5 58.5,159.5 57.5,159.5 Z"/></g>
<g><path style="opacity:0.016" fill="#ff003f" d="M 98.5,159.5 C 98.5,159.167 98.5,158.833 98.5,158.5C 99.8333,158.5 101.167,158.5 102.5,158.5C 102.5,158.833 102.5,159.167 102.5,159.5C 101.167,159.5 99.8333,159.5 98.5,159.5 Z"/></g>
</svg>
