<?xml version="1.0" encoding="UTF-8"?>
<!DOCTYPE svg PUBLIC "-//W3C//DTD SVG 1.1//EN" "http://www.w3.org/Graphics/SVG/1.1/DTD/svg11.dtd">
<svg xmlns="http://www.w3.org/2000/svg" version="1.1" width="160px" height="160px" style="shape-rendering:geometricPrecision; text-rendering:geometricPrecision; image-rendering:optimizeQuality; fill-rule:evenodd; clip-rule:evenodd" xmlns:xlink="http://www.w3.org/1999/xlink">
<g><path style="opacity:0.998" fill="#0c549a" d="M -0.5,-0.5 C 52.8333,-0.5 106.167,-0.5 159.5,-0.5C 159.5,52.8333 159.5,106.167 159.5,159.5C 106.167,159.5 52.8333,159.5 -0.5,159.5C -0.5,106.167 -0.5,52.8333 -0.5,-0.5 Z"/></g>
<g><path style="opacity:1" fill="#f6f8fb" d="M 65.5,36.5 C 74.6583,34.8346 78.825,38.5013 78,47.5C 74.0865,54.0961 69.0865,55.0961 63,50.5C 60.418,45.1198 61.2514,40.4531 65.5,36.5 Z"/></g>
<g><path style="opacity:1" fill="#f5f8fb" d="M 84.5,36.5 C 94.1566,34.9917 98.3233,38.9917 97,48.5C 94.7195,52.7684 91.2195,54.2684 86.5,53C 79.3559,48.2998 78.6892,42.7998 84.5,36.5 Z"/></g>
<g><path style="opacity:1" fill="#f8fafc" d="M 54.5,51.5 C 63.7051,51.2063 67.2051,55.5396 65,64.5C 58.775,70.372 53.4417,69.7053 49,62.5C 48.1757,57.4818 50.0091,53.8152 54.5,51.5 Z"/></g>
<g><path style="opacity:1" fill="#f8fafc" d="M 98.5,51.5 C 106.986,51.1514 110.82,55.1514 110,63.5C 104.894,69.6176 99.5603,69.9509 94,64.5C 92.243,58.8252 93.743,54.4918 98.5,51.5 Z"/></g>
<g><path style="opacity:1" fill="#f8fafc" d="M 59.5,70.5 C 67.8358,70.3944 71.3358,74.3944 70,82.5C 67.4586,87.0685 63.6253,88.5685 58.5,87C 53.9315,84.4586 52.4315,80.6253 54,75.5C 55.4055,73.2563 57.2389,71.5897 59.5,70.5 Z"/></g>
<g><path style="opacity:1" fill="#f8fafc" d="M 94.5,70.5 C 103.693,70.2148 107.193,74.5481 105,83.5C 99.1898,89.0935 93.8564,88.7602 89,82.5C 88.3333,80.1667 88.3333,77.8333 89,75.5C 90.7297,73.5981 92.563,71.9314 94.5,70.5 Z"/></g>
<g><path style="opacity:1" fill="#f1f5f9" d="M 76.5,78.5 C 86.8104,79.1355 89.9771,84.1355 86,93.5C 79.3791,98.3396 74.3791,97.0063 71,89.5C 70.7102,84.7463 72.5435,81.0796 76.5,78.5 Z"/></g>
<g><path style="opacity:1" fill="#fafbfd" d="M 29.5,90.5 C 41.5944,90.5527 53.261,92.7193 64.5,97C 72.8491,102.2 77.1825,109.7 77.5,119.5C 53.9406,122.263 37.9406,112.596 29.5,90.5 Z"/></g>
<g><path style="opacity:1" fill="#fafbfd" d="M 123.5,90.5 C 125.604,90.2011 127.604,90.5344 129.5,91.5C 125.751,99.8265 120.417,106.993 113.5,113C 103.687,118.946 93.0206,121.112 81.5,119.5C 82.341,107.012 88.6744,98.5116 100.5,94C 108.257,92.4469 115.924,91.2802 123.5,90.5 Z"/></g>
</svg>
