<?xml version="1.0" encoding="UTF-8"?>
<!DOCTYPE svg PUBLIC "-//W3C//DTD SVG 1.1//EN" "http://www.w3.org/Graphics/SVG/1.1/DTD/svg11.dtd">
<svg xmlns="http://www.w3.org/2000/svg" version="1.1" width="160px" height="160px" style="shape-rendering:geometricPrecision; text-rendering:geometricPrecision; image-rendering:optimizeQuality; fill-rule:evenodd; clip-rule:evenodd" xmlns:xlink="http://www.w3.org/1999/xlink">
<g><path style="opacity:1" fill="#ededed" d="M -0.5,-0.5 C 52.8333,-0.5 106.167,-0.5 159.5,-0.5C 159.5,52.8333 159.5,106.167 159.5,159.5C 106.167,159.5 52.8333,159.5 -0.5,159.5C -0.5,106.167 -0.5,52.8333 -0.5,-0.5 Z"/></g>
<g><path style="opacity:1" fill="#9ea0a3" d="M 79.5,33.5 C 83.5016,36.5121 85.0016,40.5121 84,45.5C 79.1528,61.891 74.1528,78.2243 69,94.5C 61.2407,96.7329 53.4073,98.8995 45.5,101C 43.7412,101.798 42.0745,101.631 40.5,100.5C 53.7641,78.3031 66.7641,55.9697 79.5,33.5 Z"/></g>
<g><path style="opacity:1" fill="#f9a738" d="M 87.5,46.5 C 100.807,69.1036 114.14,91.7702 127.5,114.5C 123.878,115.659 120.211,115.825 116.5,115C 103.966,102.134 91.7989,88.9671 80,75.5C 81.7597,65.7071 84.2597,56.0405 87.5,46.5 Z"/></g>
<g><path style="opacity:1" fill="#f9a636" d="M 111.5,114.5 C 85.3386,115.498 59.0053,115.831 32.5,115.5C 33.7769,112.447 35.4436,109.614 37.5,107C 54.7564,102.519 72.0898,98.3526 89.5,94.5C 90.5,94.6667 91.5,94.8333 92.5,95C 99.0635,101.395 105.397,107.895 111.5,114.5 Z"/></g>
<g><path style="opacity:1" fill="#f1d9b7" d="M 111.5,114.5 C 112.043,114.56 112.376,114.893 112.5,115.5C 85.6697,116.829 59.003,116.829 32.5,115.5C 59.0053,115.831 85.3386,115.498 111.5,114.5 Z"/></g>
</svg>
