<?xml version="1.0" encoding="UTF-8"?>
<!DOCTYPE svg PUBLIC "-//W3C//DTD SVG 1.1//EN" "http://www.w3.org/Graphics/SVG/1.1/DTD/svg11.dtd">
<svg xmlns="http://www.w3.org/2000/svg" version="1.1" width="160px" height="160px" style="shape-rendering:geometricPrecision; text-rendering:geometricPrecision; image-rendering:optimizeQuality; fill-rule:evenodd; clip-rule:evenodd" xmlns:xlink="http://www.w3.org/1999/xlink">
<g><path style="opacity:1" fill="#fd0000" d="M -0.5,-0.5 C 52.8333,-0.5 106.167,-0.5 159.5,-0.5C 159.5,52.8333 159.5,106.167 159.5,159.5C 106.167,159.5 52.8333,159.5 -0.5,159.5C -0.5,106.167 -0.5,52.8333 -0.5,-0.5 Z"/></g>
<g><path style="opacity:1" fill="#fefdfd" d="M 103.5,39.5 C 103.5,45.1667 103.5,50.8333 103.5,56.5C 109.31,57.4896 115.31,57.8229 121.5,57.5C 121.5,60.8333 121.5,64.1667 121.5,67.5C 115.5,67.5 109.5,67.5 103.5,67.5C 103.178,73.358 103.511,79.0247 104.5,84.5C 104.712,87.7124 106.379,89.7124 109.5,90.5C 113.298,91.4834 117.298,91.8168 121.5,91.5C 121.5,94.8333 121.5,98.1667 121.5,101.5C 115.5,101.5 109.5,101.5 103.5,101.5C 96.798,99.776 93.1313,95.4426 92.5,88.5C 92.5,72.1667 92.5,55.8333 92.5,39.5C 96.1667,39.5 99.8333,39.5 103.5,39.5 Z"/></g>
<g><path style="opacity:1" fill="#f4bdba" d="M 103.5,39.5 C 99.8333,39.5 96.1667,39.5 92.5,39.5C 92.5,55.8333 92.5,72.1667 92.5,88.5C 91.5035,72.0084 91.1702,55.3417 91.5,38.5C 95.7016,38.1832 99.7016,38.5166 103.5,39.5 Z"/></g>
<g><path style="opacity:1" fill="#f19f9d" d="M 50.5,60.5 C 49.596,59.791 49.2627,58.791 49.5,57.5C 45.8333,57.5 42.1667,57.5 38.5,57.5C 38.5,78.1667 38.5,98.8333 38.5,119.5C 37.5027,98.6733 37.1694,77.6733 37.5,56.5C 41.8333,56.5 46.1667,56.5 50.5,56.5C 50.5,57.8333 50.5,59.1667 50.5,60.5 Z"/></g>
<g><path style="opacity:1" fill="#fdf9f9" d="M 50.5,98.5 C 49.5088,105.313 49.1755,112.313 49.5,119.5C 45.8333,119.5 42.1667,119.5 38.5,119.5C 38.5,98.8333 38.5,78.1667 38.5,57.5C 42.1667,57.5 45.8333,57.5 49.5,57.5C 49.2627,58.791 49.596,59.791 50.5,60.5C 61.7532,52.8811 71.9199,54.2145 81,64.5C 84.8977,72.8465 85.5643,81.5132 83,90.5C 74.8381,104.343 64.0048,107.01 50.5,98.5 Z"/></g>
<g><path style="opacity:1" fill="#f1cbca" d="M 103.5,56.5 C 109.833,56.5 116.167,56.5 122.5,56.5C 122.5,60.1667 122.5,63.8333 122.5,67.5C 122.167,67.5 121.833,67.5 121.5,67.5C 121.5,64.1667 121.5,60.8333 121.5,57.5C 115.31,57.8229 109.31,57.4896 103.5,56.5 Z"/></g>
<g><path style="opacity:1" fill="#fb0905" d="M 56.5,67.5 C 69.4653,66.1097 74.632,71.7763 72,84.5C 68.7156,90.8867 63.5489,93.0534 56.5,91C 50.8819,86.9137 49.0486,81.4137 51,74.5C 51.9668,71.3794 53.8001,69.046 56.5,67.5 Z"/></g>
<g><path style="opacity:1" fill="#e45656" d="M 121.5,67.5 C 121.833,67.5 122.167,67.5 122.5,67.5C 116.69,68.4896 110.69,68.8229 104.5,68.5C 104.5,73.8333 104.5,79.1667 104.5,84.5C 103.511,79.0247 103.178,73.358 103.5,67.5C 109.5,67.5 115.5,67.5 121.5,67.5 Z"/></g>
<g><path style="opacity:1" fill="#ef9192" d="M 50.5,98.5 C 50.5,105.833 50.5,113.167 50.5,120.5C 46.2984,120.817 42.2984,120.483 38.5,119.5C 42.1667,119.5 45.8333,119.5 49.5,119.5C 49.1755,112.313 49.5088,105.313 50.5,98.5 Z"/></g>
<g><path style="opacity:1" fill="#f2b1b0" d="M 109.5,90.5 C 113.833,90.5 118.167,90.5 122.5,90.5C 122.5,94.5 122.5,98.5 122.5,102.5C 115.978,102.823 109.645,102.49 103.5,101.5C 109.5,101.5 115.5,101.5 121.5,101.5C 121.5,98.1667 121.5,94.8333 121.5,91.5C 117.298,91.8168 113.298,91.4834 109.5,90.5 Z"/></g>
</svg>
