<?xml version="1.0" encoding="UTF-8"?>
<!DOCTYPE svg PUBLIC "-//W3C//DTD SVG 1.1//EN" "http://www.w3.org/Graphics/SVG/1.1/DTD/svg11.dtd">
<svg xmlns="http://www.w3.org/2000/svg" version="1.1" width="160px" height="160px" style="shape-rendering:geometricPrecision; text-rendering:geometricPrecision; image-rendering:optimizeQuality; fill-rule:evenodd; clip-rule:evenodd" xmlns:xlink="http://www.w3.org/1999/xlink">
<g><path style="opacity:1" fill="#c3dbef" d="M -0.5,-0.5 C 52.8333,-0.5 106.167,-0.5 159.5,-0.5C 159.5,52.8333 159.5,106.167 159.5,159.5C 106.167,159.5 52.8333,159.5 -0.5,159.5C -0.5,106.167 -0.5,52.8333 -0.5,-0.5 Z"/></g>
<g><path style="opacity:1" fill="#f43539" d="M 80.5,24.5 C 80.7693,28.9315 80.436,33.2648 79.5,37.5C 76.011,43.1387 72.511,48.8054 69,54.5C 67.5093,56.0037 65.676,56.8371 63.5,57C 58.2063,66.4201 53.0396,75.9201 48,85.5C 48,88.1667 48,90.8333 48,93.5C 44.8212,99.1939 41.6546,104.861 38.5,110.5C 37.6618,110.842 37.3284,111.508 37.5,112.5C 33.7991,114.012 30.4658,116.012 27.5,118.5C 26.8333,118.5 26.5,118.167 26.5,117.5C 31.6146,108.775 36.6146,99.9418 41.5,91C 39.2031,89.7367 38.3698,87.9034 39,85.5C 45.9596,73.7484 52.793,61.9151 59.5,50C 62.0075,49.9071 64.1741,49.0738 66,47.5C 70.3333,39.8333 74.6667,32.1667 79,24.5C 79.69,23.2617 80.19,23.2617 80.5,24.5 Z"/></g>
<g><path style="opacity:1" fill="#c23435" d="M 80.5,24.5 C 85.5589,32.2703 90.3923,40.2703 95,48.5C 97.1474,49.1125 99.314,49.7792 101.5,50.5C 108,62.1667 114.5,73.8333 121,85.5C 120.204,88.0297 119.871,90.6963 120,93.5C 124.777,101.393 129.277,109.393 133.5,117.5C 129.38,116.274 125.713,114.274 122.5,111.5C 119.012,105.194 115.512,98.8605 112,92.5C 111.376,90.5355 111.876,88.8689 113.5,87.5C 108.167,77.5 102.833,67.5 97.5,57.5C 95.6587,56.7696 93.8254,56.1029 92,55.5C 88.5504,48.9101 84.3837,42.9101 79.5,37.5C 80.436,33.2648 80.7693,28.9315 80.5,24.5 Z"/></g>
<g><path style="opacity:1" fill="#c1d6ea" d="M 79.5,37.5 C 84.3837,42.9101 88.5504,48.9101 92,55.5C 93.8254,56.1029 95.6587,56.7696 97.5,57.5C 102.833,67.5 108.167,77.5 113.5,87.5C 111.876,88.8689 111.376,90.5355 112,92.5C 115.512,98.8605 119.012,105.194 122.5,111.5C 114.677,112.329 106.677,112.829 98.5,113C 97.8333,113.667 97.1667,114.333 96.5,115C 85.4849,115.832 74.4849,115.666 63.5,114.5C 63.1445,113.478 62.4778,112.811 61.5,112.5C 53.8333,111.833 46.1667,111.167 38.5,110.5C 41.6546,104.861 44.8212,99.1939 48,93.5C 48,90.8333 48,88.1667 48,85.5C 53.0396,75.9201 58.2063,66.4201 63.5,57C 65.676,56.8371 67.5093,56.0037 69,54.5C 72.511,48.8054 76.011,43.1387 79.5,37.5 Z"/></g>
<g><path style="opacity:1" fill="#0c6bb5" d="M 81.5,47.5 C 84.138,52.4831 86.8047,57.4831 89.5,62.5C 91.5668,63.1341 93.4002,64.1341 95,65.5C 98.7066,72.4142 102.54,79.2475 106.5,86C 105.707,87.0852 105.04,88.2519 104.5,89.5C 107.26,94.6935 110.26,99.6935 113.5,104.5C 106.13,101.805 98.4634,100.805 90.5,101.5C 94.3525,100.834 98.3525,100.167 102.5,99.5C 101.253,96.6714 99.7533,94.0048 98,91.5C 98.2248,86.8832 96.8914,82.5499 94,78.5C 92.581,76.6641 91.4143,74.6641 90.5,72.5C 89.0095,71.7564 87.5095,71.0897 86,70.5C 84.3924,66.9439 82.5591,63.6106 80.5,60.5C 80.1818,55.9677 80.5151,51.6344 81.5,47.5 Z"/></g>
<g><path style="opacity:1" fill="#107ec2" d="M 81.5,47.5 C 80.5151,51.6344 80.1818,55.9677 80.5,60.5C 78.1904,63.1019 76.3571,66.1019 75,69.5C 69.0388,73.8333 64.8722,79.6666 62.5,87C 62.7355,87.8732 63.0688,88.7065 63.5,89.5C 61.3735,92.9186 59.3735,96.4186 57.5,100C 62.0195,100.175 66.3528,100.675 70.5,101.5C 62.2361,100.846 54.2361,101.846 46.5,104.5C 49.3229,100.195 52.1563,95.8618 55,91.5C 55.1554,89.144 55.1554,86.8107 55,84.5C 58.6667,77.8333 62.3333,71.1667 66,64.5C 68.5142,63.9115 70.5142,62.5781 72,60.5C 74.9212,55.6587 77.5879,50.6587 80,45.5C 80.7172,46.0442 81.2172,46.7109 81.5,47.5 Z"/></g>
<g><path style="opacity:1" fill="#bed5ea" d="M 80.5,60.5 C 82.5591,63.6106 84.3924,66.9439 86,70.5C 87.5095,71.0897 89.0095,71.7564 90.5,72.5C 91.4143,74.6641 92.581,76.6641 94,78.5C 96.8914,82.5499 98.2248,86.8832 98,91.5C 99.7533,94.0048 101.253,96.6714 102.5,99.5C 98.3525,100.167 94.3525,100.834 90.5,101.5C 84.4474,103.557 78.1141,104.057 71.5,103C 70.944,102.617 70.6107,102.117 70.5,101.5C 66.3528,100.675 62.0195,100.175 57.5,100C 59.3735,96.4186 61.3735,92.9186 63.5,89.5C 63.0688,88.7065 62.7355,87.8732 62.5,87C 64.8722,79.6666 69.0388,73.8333 75,69.5C 76.3571,66.1019 78.1904,63.1019 80.5,60.5 Z"/></g>
<g><path style="opacity:1" fill="#f33136" d="M 78.5,73.5 C 79.4861,77.97 79.8195,82.6367 79.5,87.5C 75.4828,90.2671 71.3161,92.9337 67,95.5C 66.6012,95.2716 66.4346,94.9382 66.5,94.5C 68.7159,91.9635 69.8826,88.9635 70,85.5C 72.1184,80.9059 74.9517,76.9059 78.5,73.5 Z"/></g>
<g><path style="opacity:1" fill="#c63436" d="M 93.5,94.5 C 88.8333,92.1667 84.1667,89.8333 79.5,87.5C 79.8195,82.6367 79.4861,77.97 78.5,73.5C 78.9867,72.5266 79.4867,71.5266 80,70.5C 81.6083,74.0427 83.9416,77.0427 87,79.5C 89.3202,84.4702 91.4869,89.4702 93.5,94.5 Z"/></g>
<g><path style="opacity:1" fill="#a03333" d="M 79.5,87.5 C 84.1667,89.8333 88.8333,92.1667 93.5,94.5C 94.0431,94.56 94.3764,94.8933 94.5,95.5C 84.8333,96.8333 75.1667,96.8333 65.5,95.5C 65.6236,94.8933 65.9569,94.56 66.5,94.5C 66.4346,94.9382 66.6012,95.2716 67,95.5C 71.3161,92.9337 75.4828,90.2671 79.5,87.5 Z"/></g>
<g><path style="opacity:1" fill="#0c55a2" d="M 70.5,101.5 C 70.6107,102.117 70.944,102.617 71.5,103C 78.1141,104.057 84.4474,103.557 90.5,101.5C 98.4634,100.805 106.13,101.805 113.5,104.5C 107.167,105.167 100.833,105.833 94.5,106.5C 93.7326,107.172 93.0659,108.005 92.5,109C 84.1467,109.832 75.8134,109.665 67.5,108.5C 67.1373,107.817 66.8039,107.15 66.5,106.5C 59.8333,105.833 53.1667,105.167 46.5,104.5C 54.2361,101.846 62.2361,100.846 70.5,101.5 Z"/></g>
<g><path style="opacity:1" fill="#5093c8" d="M 46.5,104.5 C 53.1667,105.167 59.8333,105.833 66.5,106.5C 59.4684,106.83 52.4684,106.497 45.5,105.5C 45.6236,104.893 45.9569,104.56 46.5,104.5 Z"/></g>
<g><path style="opacity:1" fill="#4c8dc4" d="M 113.5,104.5 C 114.043,104.56 114.376,104.893 114.5,105.5C 107.866,106.497 101.2,106.83 94.5,106.5C 100.833,105.833 107.167,105.167 113.5,104.5 Z"/></g>
<g><path style="opacity:1" fill="#c49fae" d="M 38.5,110.5 C 46.1667,111.167 53.8333,111.833 61.5,112.5C 53.5,112.5 45.5,112.5 37.5,112.5C 37.3284,111.508 37.6618,110.842 38.5,110.5 Z"/></g>
<g><path style="opacity:1" fill="#9a2a2b" d="M 122.5,111.5 C 125.713,114.274 129.38,116.274 133.5,117.5C 123.833,118.167 114.167,118.833 104.5,119.5C 103.163,120.315 102.163,121.482 101.5,123C 87.1551,123.833 72.8217,123.666 58.5,122.5C 57.8075,121.482 57.1408,120.482 56.5,119.5C 47.0144,118.506 37.3478,118.173 27.5,118.5C 30.4658,116.012 33.7991,114.012 37.5,112.5C 45.5,112.5 53.5,112.5 61.5,112.5C 62.4778,112.811 63.1445,113.478 63.5,114.5C 74.4849,115.666 85.4849,115.832 96.5,115C 97.1667,114.333 97.8333,113.667 98.5,113C 106.677,112.829 114.677,112.329 122.5,111.5 Z"/></g>
<g><path style="opacity:1" fill="#be616a" d="M 26.5,117.5 C 26.5,118.167 26.8333,118.5 27.5,118.5C 37.3478,118.173 47.0144,118.506 56.5,119.5C 46.1452,119.832 35.8119,119.499 25.5,118.5C 25.6236,117.893 25.9569,117.56 26.5,117.5 Z"/></g>
<g><path style="opacity:1" fill="#b16067" d="M 133.5,117.5 C 134.043,117.56 134.376,117.893 134.5,118.5C 124.522,119.499 114.522,119.832 104.5,119.5C 114.167,118.833 123.833,118.167 133.5,117.5 Z"/></g>
</svg>
