<svg id="Слой_1" data-name="Слой 1" xmlns="http://www.w3.org/2000/svg" viewBox="0 0 48 48"><defs><style>.cls-2{fill:#fff}</style></defs><g id="PRMB"><path fill="#a21434" d="M0 0h48v48H0z"/><path class="cls-2" d="M38.75 18.15a16.11 16.11 0 00-4-2.69 24.11 24.11 0 00-6.87-2 11.48 11.48 0 010 2 12.52 12.52 0 01-2.7 6.54 13.77 13.77 0 011.33-.82 14.07 14.07 0 014.69-1.55 10.45 10.45 0 015.2.23 9.83 9.83 0 013.92 2.64 11.27 11.27 0 011.07 1.28 7.17 7.17 0 00-.09-1 8.4 8.4 0 00-2.55-4.63zm-10.25.65a7.5 7.5 0 00.58-2.19 8.19 8.19 0 00.08-1.06 16.68 16.68 0 012.73.58 17.58 17.58 0 013.55 1.55 8.48 8.48 0 011.27.83 14.47 14.47 0 00-5.13-.4 14 14 0 00-3.08.69zM6.69 22.78a7.25 7.25 0 00-.09.94 11.81 11.81 0 011.07-1.25 10 10 0 013.92-2.64 10.45 10.45 0 015.2-.23 14.07 14.07 0 014.69 1.55 13.77 13.77 0 011.32.85 12.52 12.52 0 01-2.66-6.52 11.48 11.48 0 010-2 24.11 24.11 0 00-6.88 2 16.11 16.11 0 00-4 2.69 8.46 8.46 0 00-2.57 4.61zm9.73-4.67a14.47 14.47 0 00-5.13.4 8.48 8.48 0 011.27-.83 17.58 17.58 0 013.55-1.55 16.68 16.68 0 012.73-.58 8.19 8.19 0 00.08 1.06 7.5 7.5 0 00.58 2.19 14 14 0 00-3.09-.69zm24.88 7.56a7.49 7.49 0 00.1-1A10.39 10.39 0 0140.32 26a8.85 8.85 0 01-3.85 2.48 9.11 9.11 0 01-4.75 0 12.69 12.69 0 01-4.19-1.73 6.54 6.54 0 01.1 5.79A5.93 5.93 0 0125 34.95a23 23 0 009.68-2 14 14 0 004-2.69 8.6 8.6 0 002.62-4.59zm-9.07 4.61A13.15 13.15 0 0037 29.9l-1.56.86c-1.11.62-4.75 2-6.13 1.87a3.72 3.72 0 00.44-3.1 8.07 8.07 0 002.48.75zm-22.99.02a14.23 14.23 0 004 2.69 23 23 0 009.68 2 5.93 5.93 0 01-2.6-2.48 6.54 6.54 0 01.1-5.79 12.69 12.69 0 01-4.19 1.73 9.11 9.11 0 01-4.75 0A9 9 0 017.66 26a10.91 10.91 0 01-1.05-1.22 6.41 6.41 0 00.16 1.66 7.7 7.7 0 002.47 3.86zm9-.77a3.72 3.72 0 00.44 3.1c-1.38.15-5-1.26-6.13-1.87L11 29.9a13.15 13.15 0 004.78.38 8.07 8.07 0 002.46-.75zm7.97-16.29a13.75 13.75 0 00-4.43 0A11.07 11.07 0 0024 20.7a11.75 11.75 0 002.21-7.46zm-1.47 2.38A3.29 3.29 0 0124.3 17a5.84 5.84 0 01-.3.53 5.68 5.68 0 01-.28-.5 4.29 4.29 0 01-.53-1.25 4 4 0 010-.91 2 2 0 011.57 0s-.01.41-.03.74zM26 28.38a6.55 6.55 0 00-1.09-2.56 7.6 7.6 0 00-.91-1.11 8 8 0 00-1 1.12 6.3 6.3 0 00-1.23 2.69 5.06 5.06 0 00.3 2.86 2.38 2.38 0 001.28 1.48 1.65 1.65 0 00.91 0c1-.25 1.41-1.42 1.58-1.87a4.88 4.88 0 00.16-2.61zm-1.42 1.81a1.16 1.16 0 01-.26.55.52.52 0 01-.38.22.51.51 0 01-.34-.22 1.2 1.2 0 01-.25-.47 3 3 0 010-2.11 3.37 3.37 0 01.52-.94 4.14 4.14 0 01.5.86 3.52 3.52 0 01.24.72 3.45 3.45 0 01-.06 1.39z"/><path class="cls-2" d="M19.29 22.53a11.56 11.56 0 00-4.46-1.33 8.92 8.92 0 00-3.6.6A5.38 5.38 0 009 23.39a1.52 1.52 0 00-.36.89 1.55 1.55 0 00.39 1 4.71 4.71 0 002.32 1.45 9 9 0 003.92.22 11.07 11.07 0 004.3-1.66 12.82 12.82 0 001.81-1.35 12.16 12.16 0 00-2.09-1.41zm-2.88 2.57a9.13 9.13 0 01-2.79.44 4.39 4.39 0 01-2.37-.54c-.27-.16-.69-.42-.71-.8s.38-.68.66-.88a4.52 4.52 0 012.36-.79 7.61 7.61 0 012.92.4 7.9 7.9 0 012 1 10.46 10.46 0 01-2.07 1.17zm10.15-1.17a12.82 12.82 0 001.81 1.35 11.07 11.07 0 004.3 1.66 9 9 0 003.92-.22 4.71 4.71 0 002.32-1.45 1.55 1.55 0 00.39-1 1.52 1.52 0 00-.36-.89 5.38 5.38 0 00-2.24-1.58 8.92 8.92 0 00-3.6-.6 11.56 11.56 0 00-4.46 1.33 12.16 12.16 0 00-2.08 1.4zm2.86 0a7.9 7.9 0 012-1 7.61 7.61 0 012.92-.4 4.52 4.52 0 012.36.79c.28.2.68.5.66.88s-.44.64-.71.8a4.39 4.39 0 01-2.36.51 9.13 9.13 0 01-2.79-.44 10.46 10.46 0 01-2.08-1.12z"/></g></svg>