<?xml version="1.0" encoding="UTF-8"?>
<!DOCTYPE svg PUBLIC "-//W3C//DTD SVG 1.1//EN" "http://www.w3.org/Graphics/SVG/1.1/DTD/svg11.dtd">
<svg xmlns="http://www.w3.org/2000/svg" version="1.1" width="160px" height="160px" style="shape-rendering:geometricPrecision; text-rendering:geometricPrecision; image-rendering:optimizeQuality; fill-rule:evenodd; clip-rule:evenodd" xmlns:xlink="http://www.w3.org/1999/xlink">
<g><path style="opacity:1" fill="#ff8c01" d="M -0.5,-0.5 C 52.8333,-0.5 106.167,-0.5 159.5,-0.5C 159.5,52.8333 159.5,106.167 159.5,159.5C 106.167,159.5 52.8333,159.5 -0.5,159.5C -0.5,106.167 -0.5,52.8333 -0.5,-0.5 Z"/></g>
<g><path style="opacity:1" fill="#fffdfa" d="M 76.5,98.5 C 77.1667,96.5 77.8333,94.5 78.5,92.5C 80.6198,96.4544 83.6198,99.6211 87.5,102C 95.0574,104.056 102.391,106.722 109.5,110C 112.922,112.719 115.422,115.886 117,119.5C 105.16,109.688 91.6599,106.688 76.5,110.5C 53.9551,108.788 41.9551,96.6215 40.5,74C 42.7983,52.7018 54.6316,41.2018 76,39.5C 98.0888,41.4219 109.922,53.4219 111.5,75.5C 111.535,81.5643 110.035,87.231 107,92.5C 104.706,84.5374 99.539,79.7041 91.5,78C 94.146,77.5026 96.8127,77.3359 99.5,77.5C 98.2633,57.1024 87.5966,48.9358 67.5,53C 52.8855,60.8433 49.0522,72.3433 56,87.5C 60.892,94.6972 67.7253,98.3639 76.5,98.5 Z"/></g>
<g><path style="opacity:1" fill="#fff3e5" d="M 100.5,89.5 C 101.496,89.4142 102.329,89.7476 103,90.5C 103.667,92.1667 103.667,93.8333 103,95.5C 101.337,93.8421 100.504,91.8421 100.5,89.5 Z"/></g>
<g><path style="opacity:1" fill="#ffd39f" d="M 78.5,92.5 C 77.8333,94.5 77.1667,96.5 76.5,98.5C 76.1924,96.076 76.5258,93.7427 77.5,91.5C 78.1067,91.6236 78.44,91.9569 78.5,92.5 Z"/></g>
<g><path style="opacity:1" fill="#fff7ee" d="M 92.5,95.5 C 95.8591,95.6981 97.6924,97.3647 98,100.5C 93.3252,102.334 91.4919,100.667 92.5,95.5 Z"/></g>
</svg>
