<svg id="LOGO_6" xmlns="http://www.w3.org/2000/svg" viewBox="0 0 48 48"><defs><style>.cls-2,.cls-3{fill:#2b2a29;fill-rule:evenodd}.cls-3{fill:#fcfcfc}</style></defs><g id="RGSS"><path fill="#9c2224" d="M0 0h48v48H0z"/><path class="cls-2" d="M22.77 18v.43h2.45V18a1.21 1.21 0 001-1.14.9.9 0 00-.82-1v-.17h-.76l-.06.23h-.29a.42.42 0 00-.11-.61v-.12h.22v-.45h-.22v-.22h-.45v.22h-.22v.45h.22v.12a.42.42 0 00-.11.61h-.29l-.06-.23h-.76v.17a.9.9 0 00-.82 1A1.21 1.21 0 0022.77 18z"/><path class="cls-2" d="M44.1 25.88a12.81 12.81 0 01-6.91-2 4.73 4.73 0 00-2.3-1.51 2.84 2.84 0 00-1.8-1.44 1.25 1.25 0 00-1-.76c-.15 0-.61-.1-.84-.17a2.2 2.2 0 00-1.81-.06c-1.23.61.39 1.82-1.41 2.15a7.06 7.06 0 01.36-.9 5.52 5.52 0 01-1.49-.33 2.14 2.14 0 01.1-.59s.09.23.1.22a1.16 1.16 0 01.26-.54c.27.06 1.25.37 1.37-.3a.94.94 0 01-.6-.12c.23-.11.72-.16.89.09h.07c.34-.69-.46-1-.81-1a.47.47 0 00-.21-.22v-.29a.59.59 0 00.49-.63.5.5 0 00-.47-.56v-.08h-.4v.1h-.14a.21.21 0 000-.12.21.21 0 00-.11-.19v-.09h.13v-.21h-.13v-.13h-.21v.13h-.13v.21h.13v.09a.21.21 0 00-.07.3h-.14v-.1h-.4v.08a.5.5 0 00-.47.56.59.59 0 00.49.62v.29a3.12 3.12 0 01-.87 0 .69.69 0 00.46.53 2.81 2.81 0 01-.6.27s.23.05.21.06a2.13 2.13 0 01-.65.32h.24c-.01 0-.46.28-.46.28H23s-.39-.25-.46-.28.25 0 .24 0a2.14 2.14 0 01-.65-.32s.23-.05.21-.06a2.82 2.82 0 01-.6-.27.69.69 0 00.46-.53 3.12 3.12 0 01-.87 0v-.29a.59.59 0 00.49-.62.5.5 0 00-.47-.57v-.08H21v.1h-.2a.21.21 0 00-.07-.3v-.09h.13v-.21h-.13v-.13h-.21v.13h-.13v.21h.13v.09a.21.21 0 00-.11.19.21.21 0 000 .12h-.11v-.1h-.4v.08a.5.5 0 00-.47.56.59.59 0 00.49.63v.29a.46.46 0 00-.2.22c-.35 0-1.15.29-.81 1h.07c.17-.25.66-.2.89-.09a.94.94 0 01-.6.12c.12.67 1.11.37 1.37.3a1.16 1.16 0 01.26.54s.09-.23.1-.22a2.15 2.15 0 01.1.59 5.52 5.52 0 01-1.49.33 7.06 7.06 0 01.36.9c-1.8-.33-.18-1.54-1.41-2.15a2.2 2.2 0 00-1.81.06c-.23.07-.7.13-.84.17a1.25 1.25 0 00-1 .76 2.84 2.84 0 00-1.8 1.44 4.73 4.73 0 00-2.3 1.51 12.81 12.81 0 01-6.91 2c-.35 0-.58 0-.68.41 0 .68.75.81 1.25.82a1.25 1.25 0 00.05.18c.31.57 1.12.57 1.57.53a1.89 1.89 0 002.16.41 2.86 2.86 0 002.31.45 2.73 2.73 0 001.62.11 1 1 0 01-.93.71v3a.88.88 0 01.93.88h23.64a.88.88 0 01.93-.88v-3a1 1 0 01-.93-.71 2.73 2.73 0 001.62-.11 2.86 2.86 0 002.31-.45 1.89 1.89 0 002.16-.41c.45 0 1.26 0 1.57-.53a1.3 1.3 0 00.05-.18c.5 0 1.25-.14 1.25-.82-.1-.38-.33-.4-.68-.41zm-31.55 2.74a9.89 9.89 0 003.27-1.8.61.61 0 00.85 0c.1.26.24.57.68.44a.76.76 0 00.78.46c.36.36.54.26.7.21a.59.59 0 00.66.08.51.51 0 00.61.11.28.28 0 00.33.06c.2.12.67.38.9.49zm14.2 0c.23-.11.69-.37.9-.49a.28.28 0 00.33-.06.51.51 0 00.61-.11.59.59 0 00.66-.08c.16.05.34.15.7-.21a.76.76 0 00.78-.46c.44.13.58-.18.68-.44a.61.61 0 00.85 0 9.89 9.89 0 003.27 1.8z"/><path class="cls-3" d="M36.48 29.73v2.59a1 1 0 00-.88.82H12.37a1 1 0 00-.88-.82v-2.59a1.25 1.25 0 00.91-.89h9.39a14.61 14.61 0 002.22.79 14.43 14.43 0 002.2-.79h9.35a1.25 1.25 0 00.92.89z"/><path class="cls-3" d="M27.58 26.25v-3.54a2.71 2.71 0 01.33-1.24 5 5 0 01-2.59-1.19h-2.61a5 5 0 01-2.59 1.19 2.71 2.71 0 01.33 1.24v3.54a1.59 1.59 0 01-.45 1.18 9.27 9.27 0 004 1.69 9.25 9.25 0 004-1.69 1.59 1.59 0 01-.42-1.18zM24 28.74a10.5 10.5 0 01-3.46-1.39 1.68 1.68 0 00.28-1.11v-3.5a3.22 3.22 0 00-.21-1 4.89 4.89 0 002.17-1.06h2.43a4.89 4.89 0 002.17 1.06 3.22 3.22 0 00-.21 1v3.5a1.68 1.68 0 00.28 1.11A10.6 10.6 0 0124 28.74z"/><path class="cls-2" d="M35.33 29.23H24.85c-.47.14-.86.24-.86.24l-.86-.24H12.64a1.28 1.28 0 01-.74.74V32a1.05 1.05 0 01.74.7h22.69a1.05 1.05 0 01.74-.7v-2a1.2 1.2 0 01-.74-.74zm-.07.19a1 1 0 00.63.66v1.85a.92.92 0 00-.63.63H12.73a.92.92 0 00-.63-.63v-1.85a1.12 1.12 0 00.63-.66h10.45c.44.14.84.23.84.23l.71-.21z"/><path class="cls-3" d="M28.13 27a6.16 6.16 0 00.15-2.06c-.19.1-.15.09-.35 0v1.28a1.09 1.09 0 00.2.78zm1.41-2.5a3 3 0 01-.64-.62.56.56 0 01-.35.15c.05.07.62.9.99.47zm-.54.24v.06c.13.57.53 1 .85.93a4.38 4.38 0 01-.45-1c-.14.16-.28.05-.4.01zM31 23c0 .15-.07.18-.2.23.11.13 1 .91 1.26.48A11.53 11.53 0 0131 23zm1.78.48c-.14-.12-.93-.49-1.3-.72-.06.15-.1.16-.24.24.49.31 1.14.92 1.54.48zm-1.38.43a2.38 2.38 0 01-.84-.63c0 .08-.14.25-.3.23.3.3.89.83 1.14.4zm-1.4-.36c-.06.13-.33.19-.33.19s.83.91 1.09.47a7.28 7.28 0 01-.76-.66zm-.51.2c0 .17-.23.18-.33.18.09.14.9.93 1.1.52a5.67 5.67 0 01-.77-.7zm-1.24.25c-.05.11-.31.12-.32.11.06.14.57.88.91.5-.05-.02-.58-.61-.59-.61zm-.16-.12l-.16-.21v.27a.23.23 0 00.16-.06zm.59-.08a1.08 1.08 0 00-.28-.33c-.1.16-.18.13-.31.11.18.29.36.35.59.22zm.61-.09c0-.1-.26-.25-.38-.39 0 .14-.13.14-.28.15.1.1.37.46.66.24zm.49-.21c-.07-.14-.26-.23-.36-.34 0 .16-.12.16-.29.18.12.1.47.41.65.16zm.49-.26a2.06 2.06 0 01-.43-.3.22.22 0 01-.07.13.44.44 0 01-.22 0c.08.09.45.55.72.17zm.5-.24c0-.16-.26-.28-.35-.35 0 .19-.2.21-.38.2.14.15.61.41.73.15zm.53-.35l-.42-.34c-.1.2-.32.11-.39.2.1.06.64.59.81.14zm1.52.49a.28.28 0 01.08-.1l.11-.11a4.12 4.12 0 01-1.23-.81c-.12.08-.29.15-.69 0a5.09 5.09 0 001.73 1.02zm1.09-.34c.07-.26-.35-.22-1-.69-.26-.21-.53-.47-.89-.28-.02.04-.02.17-.02.17.43.49 1.27 1.07 1.91.8zm-.59.26a4.52 4.52 0 002.82 1.48c.12-.06.08-.16.06-.26A8.07 8.07 0 0133.94 23a4.9 4.9 0 01-.62.06z"/><path class="cls-3" d="M33.12 23.12l-.16.15a.44.44 0 01.08.31 4.45 4.45 0 002.13 1.16.2.2 0 00.14-.15 6 6 0 01-2.19-1.47zm1.88 1.8a1.27 1.27 0 01-.6-.21c.28.84.97 1.29.6.21zm-.9-.33a3.64 3.64 0 01-.75-.46c.2.4.88 1.89 1.32 1.42a5.29 5.29 0 01-.57-.96zm-1.2-.86c-.12.12-.23.1-.4.11.24.45.71 1.77 1.39 1.59a14 14 0 01-.99-1.7zm-.61.11c-.12.09-.26.23-.42.21.22.33.83 1.8 1.41 1.4a4.16 4.16 0 01-.99-1.61z"/><path class="cls-3" d="M31.62 24a.34.34 0 01-.29.18c.33.92 1.61 2.58 2.49 2.67.06 0 .28 0 .22-.08A8.16 8.16 0 0131.62 24z"/><path class="cls-3" d="M31.12 24.25h-.1c-.06.12-.1.22-.24.26.75 1.8 1.8 2.43 2 2.09a5.19 5.19 0 01-1.66-2.35z"/><path class="cls-3" d="M30.57 24.52a.44.44 0 01-.12 0 .4.4 0 01-.2.22c.13.4 1.2 2.47 1.8 2a5.23 5.23 0 01-1.48-2.22zm.34 1.75c0 .19-.11.47-.14.69.26 0 .37-.16.42-.38zm-.16-.19a4.64 4.64 0 01-.7-1.32.76.76 0 01-.44-.09c.13.61.52 1.55 1.14 1.41zm-.44.13a6.21 6.21 0 01-.29 1.2c.59 0 .56-.71.68-1.13a.56.56 0 01-.39-.07zm-.19-.09S30 26.06 30 26a.58.58 0 01-.07-.1h-.24a5.44 5.44 0 01-.32 1.8c.52.3.63-1.01.75-1.58zm-.62-.21a1.64 1.64 0 01-.47-.36 5.51 5.51 0 01-.33 2.22c.65.45.76-1.52.8-1.86z"/><path class="cls-3" d="M28.79 24.84s-.29.13-.34.08a6.65 6.65 0 01-.15 2.28 2.12 2.12 0 00.28.18 5.56 5.56 0 01-.48.41.15.15 0 000 .06c.85.3.84-2.57.69-3.01zm-.54-.05a2.64 2.64 0 01-.31-.44v.39c.06.09.14.08.31.05zm3.38-4.43A4.72 4.72 0 0030.1 20c-.34 0-.84.3-.86.7.08 1 0 1.41-1.26 1.62a5.35 5.35 0 00-.05 1 .34.34 0 00.2 0c.18 0 0-.2-.11-.43 0 0 .1-.05.14 0a3.23 3.23 0 01.22.28c.11.13.43.08.3-.06s-.26-.29-.25-.35.17 0 .23 0 .33.41.54.27-.2-.33-.2-.38.07-.11.09-.09c.19.17.37.47.63.31.08-.12 0-.23-.3-.47l.14-.11c.11.09.51.52.7.32s-.45-.43-.51-.55l.12-.12c.07 0 .75.55 1 .1a4.44 4.44 0 01-.63-.34c-.06 0 0-.13.05-.17 1.32.79 1.64.36 1.57.24a5.21 5.21 0 01-1.36-.49.39.39 0 010-.22c.12.06 2 1 2 .24a4 4 0 01-1.7-.57c-.06-.06 0-.2.08-.22a2.52 2.52 0 001.92.44c-.18-.47-.8-.48-1.17-.59z"/><path class="cls-3" d="M33.15 21.22c-.18-.08-.32 0-.5 0 .06.08 0 .23 0 .31a4.53 4.53 0 001.3.83.77.77 0 00.58 0c-.21-.7-.8-.85-1.38-1.14zM36.87 24a4.52 4.52 0 00-2-1.39 1.64 1.64 0 01-.67.08.22.22 0 010 .21c.02.1 2.87 1.94 2.67 1.1z"/><path class="cls-3" d="M43.68 26.83c.54 0 .87-.37.71-.52s-.32-.16-.42-.17a13.8 13.8 0 01-6.88-2c-.13.39-.43.27-.67.17 0 .1 0 .19-.07.32a13.73 13.73 0 007.33 2.2z"/><path class="cls-3" d="M43.15 27.09a13.12 13.12 0 01-7-2.3c-.09 0-.3 0-.57-.11 0 0-.14.21-.24.24a1.22 1.22 0 00.06.27c1.25 1.34 7.5 3.29 7.75 1.9z"/><path class="cls-3" d="M41.42 27.77a14.53 14.53 0 01-6.13-2.24c0 .12 0 .51-.52.13a.25.25 0 01-.29.13c.37.64 6.33 3.28 6.94 1.98z"/><path class="cls-3" d="M39.26 28.17A11.88 11.88 0 0134 25.61c-.26 0-.49-.14-.82.11.92 1.28 4.71 3.57 6.08 2.45z"/><path class="cls-3" d="M37.13 28.49A9.51 9.51 0 0134.24 27c-.45.29-.92 0-1.25-.27 0 0-.23 0-.25.1 1.34 1.07 2.92 1.98 4.39 1.66zm-9.75-11.75a.11.11 0 110 .23.11.11 0 110-.23zm-6.75 0a.11.11 0 010 .23.11.11 0 010-.23zm3.1-1.63v-.15h.2v-.19h.15v.19h.19v.15h-.19v.2h-.15v-.2h-.2z"/><circle cx="24" cy="15.74" r=".25" fill="#fcfcfc"/><path class="cls-3" d="M23 18.25v-.17h2v.17zm.88-.38l-.45-1.69h.25l.32 1.25.32-1.24h.25l-.45 1.69z"/><path class="cls-3" d="M24 16.72l-.1-.53h.2zm.88-.75l-.53 1.9h.24l.56-1.9h-.27zm.45.17l-.51 1.73a1.09 1.09 0 001.15-1 .74.74 0 00-.64-.73zm-2.2-.17l.52 1.9h-.23l-.56-1.9h.27zm-.46.17l.51 1.73a1.09 1.09 0 01-1.15-1 .74.74 0 01.64-.73zm4.74.22v.09h.09v.07h-.09v.09h-.07v-.09h-.09v-.07h.09v-.09zm.02.75v.27-.27zm-.05.65c0-.22.11-.43.16-.65h.13l-.22.88h-.14l-.22-.88h.13c.05.22.11.43.16.65zm.51.38v.14h-1v-.14zm-.96-.14l-.24-.9a.36.36 0 00-.35.41.49.49 0 00.59.49zm0-1h-.13l.27 1h.11l-.25-1zm.89 1l.24-.9a.36.36 0 01.35.41.49.49 0 01-.59.49zm.01-1h.13l-.27 1h-.11l.25-1zm-7.17-.64v.09h.09v.07h-.09v.09h-.07v-.09h-.09v-.07h.09v-.09zm.01.75v.27-.27zm-.05.65c0-.22.11-.43.16-.65h.13l-.21.89h-.14l-.22-.88h.13c.05.21.11.42.15.64zm.52.38v.13h-1.03v-.13h1.03zm-.96-.14l-.24-.9a.36.36 0 00-.35.42.49.49 0 00.59.48zm0-1h-.13l.26 1h.11l-.24-1zm.89 1l.24-.9a.36.36 0 01.35.41.49.49 0 01-.59.49zm0-1h.13l-.26 1h-.11l.24-1zm.13 3.7l.08.05-.09.04.01-.09zm1.58-.8h-.28l-.12.14a.26.26 0 01-.05-.19.4.4 0 01.45.05zm-.33-.25c-.21.18-.66-.09-.71-.21.16 0 .19-.06.27-.07a.57.57 0 01.44.28zm-.64.72h.08l-.09.05a.12.12 0 00.01-.05zm-.14-.29c.27 0 .36-.1.32-.26.09 0 .14.11.27.31l-.18.14a1 1 0 01-.41-.19zm-.57.13a.27.27 0 00.21-.25.48.48 0 01.19.68c-.16.11-.38-.26-.4-.43zm-.25-.76c.16 0 .22-.21.24-.3.11.07.3.27.23.42s-.32-.04-.47-.12zm.39.27a.21.21 0 00.22-.29.47.47 0 01.36.48c-.1.09-.5-.03-.58-.19zm.76-.48c-.2.15-.47.13-.8-.22a.92.92 0 01.8.22zm-.09-.65a.6.6 0 01-.62.28 3.82 3.82 0 00-1.17 0v-.1c.1-.5 1.38-.06 1.79-.18zm-2.27 1.14a.8.8 0 00.54-.18c0-.08-.17-.21-.24-.24a1 1 0 00-.89 0c-.09-.41.53-.51.89-.51.12.36.45.58.67.88-.04.05-.81.25-.97.05zm1.01-.31a1.57 1.57 0 01-.46-.45h.09a.59.59 0 00.23.2l.17-.2h.24c-.01.29-.09.32-.27.45zm.1.3c.1 0 .11 0 .14-.12l.15.13a.36.36 0 01.08.39c-.23-.02-.31-.22-.37-.4zM19.88 27a6.21 6.21 0 01-.15-2.07c.19.07.15 0 .35 0v1.31a1.31 1.31 0 01-.2.76zm-1.41-2.5a3 3 0 00.64-.62.56.56 0 00.35.15c-.05.08-.63.91-.99.47zm.53.25l.09.05c-.13.57-.53 1-.85.93a4.37 4.37 0 00.45-1c.06.17.2.06.31.02zM17 23c0 .15.07.18.2.23-.11.13-1 .91-1.26.48A11.43 11.43 0 0017 23zm-1.78.49c.14-.12.93-.49 1.3-.72.06.15.1.16.24.24-.48.31-1.14.92-1.54.48zm1.38.43a2.38 2.38 0 00.84-.63c0 .08.14.25.3.23-.29.29-.89.83-1.14.4zm1.4-.36c.06.13.33.19.33.19s-.83.91-1.09.47a7.28 7.28 0 00.76-.66zm.51.2c0 .17.23.18.33.18-.09.14-.9.93-1.1.52a5.65 5.65 0 00.77-.7zm1.24.24c.05.11.31.12.32.11-.06.14-.57.88-.91.5.06-.02.59-.61.59-.61zm.16-.12l.16-.21v.27a.23.23 0 01-.16-.06zm-.58-.07a1.09 1.09 0 01.28-.33c.1.16.18.13.31.11-.19.29-.36.35-.59.22zm-.62-.09c0-.1.26-.25.38-.39 0 .14.13.14.28.15-.09.1-.37.46-.66.24zm-.48-.21c.07-.14.26-.23.36-.34 0 .16.12.16.29.18-.12.1-.48.4-.65.16zm-.49-.26a2.07 2.07 0 00.43-.3.22.22 0 00.07.13.43.43 0 00.22 0c-.09.08-.46.55-.72.17zm-.51-.25c0-.16.26-.28.35-.35 0 .19.2.21.38.2-.13.15-.61.42-.73.15zm-.53-.34l.42-.34c.1.2.32.11.39.2-.09.06-.63.59-.81.14zm-1.51.49a.28.28 0 00-.08-.1l-.11-.11a4.13 4.13 0 001.23-.81c.12.08.29.15.69 0a5.09 5.09 0 01-1.73 1.02zm-1.1-.35c-.07-.26.35-.22 1-.69.26-.21.53-.47.89-.28.06 0 .06.14.06.22-.46.45-1.31 1.03-1.95.75zm.6.26a4.52 4.52 0 01-2.82 1.48c-.12-.06-.08-.16-.06-.26A8.07 8.07 0 0014.06 23a4.83 4.83 0 00.63.06z"/><path class="cls-3" d="M14.88 23.13l.16.15a.44.44 0 00-.08.31 4.45 4.45 0 01-2.13 1.16.2.2 0 01-.14-.15 6 6 0 002.19-1.47zM13 24.93a1.27 1.27 0 00.6-.21c-.27.84-.96 1.28-.6.21zm.91-.34a3.64 3.64 0 00.75-.46c-.2.4-.88 1.89-1.32 1.42a5.28 5.28 0 00.57-.96zm1.19-.85c.12.12.23.1.4.11-.24.45-.71 1.77-1.39 1.59a14 14 0 00.99-1.7zm.61.11c.12.09.26.23.42.21-.22.33-.83 1.8-1.41 1.4a4.16 4.16 0 00.99-1.61z"/><path class="cls-3" d="M16.38 24.06a.34.34 0 00.29.18c-.33.92-1.61 2.58-2.49 2.67-.06 0-.28 0-.22-.08a8.16 8.16 0 002.42-2.77z"/><path class="cls-3" d="M16.88 24.26h.1c.06.12.1.22.24.26-.75 1.8-1.8 2.43-2 2.09a5.19 5.19 0 001.66-2.35z"/><path class="cls-3" d="M17.43 24.52a.44.44 0 00.12 0 .4.4 0 00.2.22c-.13.4-1.2 2.47-1.8 2a5.22 5.22 0 001.48-2.22zm-.34 1.75c0 .19.11.47.14.69-.26 0-.37-.16-.42-.38zm.16-.18a4.64 4.64 0 00.7-1.32.76.76 0 00.44-.09c-.13.61-.51 1.54-1.14 1.41zm.45.13a6.22 6.22 0 00.29 1.2c-.59 0-.56-.71-.68-1.13a.56.56 0 00.39-.07zm.19-.09s.11-.07.11-.13a.59.59 0 00.07-.1h.24a5.44 5.44 0 00.32 1.8c-.51.3-.63-1.01-.74-1.57zm.61-.22a1.64 1.64 0 00.47-.36 5.51 5.51 0 00.33 2.22c-.65.45-.76-1.51-.8-1.86z"/><path class="cls-3" d="M19.22 24.85s.29.13.34.08a6.66 6.66 0 00.15 2.28 2.12 2.12 0 01-.28.18 5.63 5.63 0 00.48.41.15.15 0 010 .06c-.85.3-.85-2.57-.69-3.01zm.53-.05a2.66 2.66 0 00.31-.44v.39c-.06.08-.13.08-.31.05zm-3.38-4.43a4.72 4.72 0 011.53-.32c.34 0 .84.3.86.7-.08 1 0 1.41 1.26 1.62a5.33 5.33 0 01.05 1 .34.34 0 01-.2 0c-.18 0 0-.2.11-.43 0 0-.1-.05-.14 0a3.27 3.27 0 00-.22.28c-.11.13-.43.08-.3-.06s.26-.29.25-.35-.17 0-.23 0-.33.41-.54.27.23-.42.26-.47-.07-.11-.09-.09c-.19.17-.37.47-.63.31-.08-.12 0-.23.3-.47l-.14-.11c-.11.09-.51.52-.7.32s.45-.43.51-.55l-.12-.02c-.07 0-.75.55-1 .1a4.41 4.41 0 00.63-.34c.06 0 0-.13-.05-.17-1.32.79-1.64.36-1.57.24a5.21 5.21 0 001.36-.49.39.39 0 000-.22c-.12.06-2 1-2 .24a4 4 0 001.7-.57c.06-.06 0-.2-.08-.22a2.52 2.52 0 01-1.92.44c.12-.52.74-.53 1.11-.64zm-1.52.86c.18-.08.32 0 .5 0-.06.08 0 .23 0 .31a4.54 4.54 0 01-1.3.83.77.77 0 01-.58 0c.21-.7.8-.85 1.38-1.14zM11.13 24a4.52 4.52 0 012-1.39 1.64 1.64 0 00.67.08.22.22 0 000 .21c-.02.1-2.87 1.95-2.67 1.1z"/><path class="cls-3" d="M4.32 26.84c-.54 0-.87-.37-.71-.52s.32-.16.42-.17a13.8 13.8 0 006.88-2c.13.39.43.27.67.17 0 .1 0 .19.07.32a13.73 13.73 0 01-7.33 2.2z"/><path class="cls-3" d="M4.86 27.09a13.12 13.12 0 007-2.3c.09 0 .3 0 .57-.11 0 0 .14.21.24.24a1.21 1.21 0 01-.07.27c-1.24 1.35-7.5 3.29-7.74 1.9z"/><path class="cls-3" d="M6.58 27.78a14.53 14.53 0 006.13-2.24c0 .12 0 .51.52.13a.25.25 0 00.29.13c-.37.64-6.32 3.28-6.94 1.98z"/><path class="cls-3" d="M8.75 28.18A11.88 11.88 0 0014 25.62c.26 0 .49-.14.82.11-.92 1.27-4.71 3.57-6.07 2.45z"/><path class="cls-3" d="M10.87 28.49a9.51 9.51 0 002.9-1.49c.45.29.92 0 1.25-.27 0 0 .23 0 .25.1-1.35 1.08-2.93 1.99-4.4 1.66zM26.8 20.7l-.07.05.09.04-.02-.09zm-1.57-.8h.28l.12.14a.26.26 0 00.05-.19.4.4 0 00-.45.05zm.32-.25c.21.18.66-.09.71-.21-.16 0-.19-.06-.27-.07a.57.57 0 00-.44.28zm.65.72h-.08l.09.05a.12.12 0 01-.01-.05zm.14-.29c-.27 0-.36-.1-.32-.26-.09 0-.14.11-.27.31l.18.14a1 1 0 00.41-.19zm.57.13a.27.27 0 01-.21-.25.48.48 0 00-.19.68c.16.11.38-.26.4-.43zm.25-.76c-.16 0-.22-.21-.24-.3-.11.07-.3.27-.23.42s.31-.04.47-.12zm-.39.27a.21.21 0 01-.22-.29.47.47 0 00-.36.48c.1.09.5-.03.58-.19zm-.77-.48c.2.15.47.13.8-.22a.92.92 0 00-.8.22zm.1-.65a.6.6 0 00.62.28 3.82 3.82 0 011.17 0v-.1c-.11-.5-1.38-.06-1.79-.18zm2.27 1.14a.8.8 0 01-.54-.18c0-.08.17-.21.24-.24a1 1 0 01.89 0c.09-.41-.53-.51-.89-.51-.12.36-.45.58-.67.88.04.05.81.25.97.05zm-1.02-.31a1.57 1.57 0 00.46-.45h-.09a.59.59 0 01-.23.2l-.17-.2h-.24c.02.29.09.32.27.45zm-.09.3c-.1 0-.11 0-.14-.12l-.15.13a.36.36 0 00-.08.39c.23-.02.31-.22.37-.4z"/><path class="cls-2" d="M34.46 30.13H34l-.22.72h-.11l-.22-.72h-.42l.31.91-.34.93h.42l.24-.73h.11l.24.73h.42l-.28-.97.31-.91zM32 32v-.43h-.46V32H31l.18-1.84h1l.19 1.84zm-.41-1.45l-.06.62h.39l-.06-.62zm-1.19.89h-.84V32h-.39v-1.87h1.24v1.29zm-.4-.92h-.45V31H30v-.5zm-1.56 0H28V32h-.39v-1.48h-.42v-.39h1.24v.39zm-1.91.18h-.39v-.18h-.37v1.05h.37v-.18h.39V32h-1.17v-1.87h1.16v.57zm-2 0h-.39v-.18h-.37v1.05h.37v-.18h.39V32h-1.15v-1.87h1.16v.57zM22.6 32h-1.23v-1.87h1.23V32zm-.39-1.45h-.45v1.05h.45v-1.08zm-1.49 0h-.64V32h-.39v-1.87h1v.39zm-1.85.18h-.39v-.18h-.38v1.05h.37v-.18h.39V32h-1.15v-1.87h1.16v.57zm-2 1.27h-1.26v-1.87h1.24V32zm-.39-1.45H16v1.05h.45v-1.08zm-1.63.89H14V32h-.39v-1.87h1.24v1.29zm-.39-.89H14V31h.45z"/><path d="M24 28.75a10.5 10.5 0 01-3.46-1.39 1.68 1.68 0 00.28-1.11v-3.5a3.22 3.22 0 00-.21-1 4.89 4.89 0 002.17-1.06h2.43a4.89 4.89 0 002.17 1.06 3.22 3.22 0 00-.21 1v3.5a1.69 1.69 0 00.28 1.11A10.6 10.6 0 0124 28.75z" fill-rule="evenodd" fill="#9c2224"/><path class="cls-3" d="M22.55 22v5.29h.76v-2.45h2.13V22zm2.88 4.21h-.72v.71h.72v.38h-1.11v-1.47h1.11v.37zm-1.37-.63v1.71h-.5v-2.2h1.87v.49zm.63-1.51H23.3v-1.34h1.39z"/></g></svg>