<?xml version="1.0" encoding="UTF-8"?>
<!DOCTYPE svg PUBLIC "-//W3C//DTD SVG 1.1//EN" "http://www.w3.org/Graphics/SVG/1.1/DTD/svg11.dtd">
<svg xmlns="http://www.w3.org/2000/svg" version="1.1" width="160px" height="160px" style="shape-rendering:geometricPrecision; text-rendering:geometricPrecision; image-rendering:optimizeQuality; fill-rule:evenodd; clip-rule:evenodd" xmlns:xlink="http://www.w3.org/1999/xlink">
<g><path style="opacity:1" fill="#153799" d="M -0.5,-0.5 C 52.8333,-0.5 106.167,-0.5 159.5,-0.5C 159.5,52.8333 159.5,106.167 159.5,159.5C 106.167,159.5 52.8333,159.5 -0.5,159.5C -0.5,106.167 -0.5,52.8333 -0.5,-0.5 Z"/></g>
<g><path style="opacity:1" fill="#f08734" d="M 69.5,33.5 C 70.2389,33.369 70.9056,33.5357 71.5,34C 58.8996,45.4445 45.8996,56.2779 32.5,66.5C 38.4449,48.3575 50.7783,37.3575 69.5,33.5 Z"/></g>
<g><path style="opacity:1" fill="#f27b31" d="M 69.5,33.5 C 75.1667,32.1667 80.8333,32.1667 86.5,33.5C 82.4582,35.3623 78.7916,37.8623 75.5,41C 61.2971,54.205 46.7971,67.0383 32,79.5C 31.5065,81.1341 31.3398,82.8008 31.5,84.5C 30.161,78.5273 30.4944,72.5273 32.5,66.5C 45.8996,56.2779 58.8996,45.4445 71.5,34C 70.9056,33.5357 70.2389,33.369 69.5,33.5 Z"/></g>
<g><path style="opacity:1" fill="#f2692d" d="M 86.5,33.5 C 88.7354,33.2053 90.7354,33.5386 92.5,34.5C 72.7057,51.1233 53.039,67.9567 33.5,85C 32.6198,86.3561 32.2865,87.8561 32.5,89.5C 31.5489,88.0813 31.2155,86.4147 31.5,84.5C 31.3398,82.8008 31.5065,81.1341 32,79.5C 46.7971,67.0383 61.2971,54.205 75.5,41C 78.7916,37.8623 82.4582,35.3623 86.5,33.5 Z"/></g>
<g><path style="opacity:1" fill="#ef5c2d" d="M 92.5,34.5 C 94.3547,34.272 95.1881,34.9387 95,36.5C 91.011,42.3175 86.511,47.6508 81.5,52.5C 81.1034,51.475 80.4368,51.3083 79.5,52C 63.6016,65.4082 48.2682,79.2415 33.5,93.5C 32.5655,92.4324 32.2322,91.099 32.5,89.5C 32.2865,87.8561 32.6198,86.3561 33.5,85C 53.039,67.9567 72.7057,51.1233 92.5,34.5 Z"/></g>
<g><path style="opacity:1" fill="#eb2e26" d="M 105.5,35.5 C 121.841,35.649 127.341,43.3156 122,58.5C 115.459,64.1264 108.292,64.9597 100.5,61C 92.526,50.525 94.1927,42.025 105.5,35.5 Z"/></g>
<g><path style="opacity:1" fill="#eb3628" d="M 91.5,57.5 C 92.6218,59.0518 93.1218,60.7184 93,62.5C 80.6283,75.3696 68.4616,88.3696 56.5,101.5C 54.5976,100.489 52.5976,100.322 50.5,101C 46.9722,103.39 44.6389,106.557 43.5,110.5C 41.1097,109.109 39.4431,107.109 38.5,104.5C 38.33,103.178 38.6634,102.011 39.5,101C 54.8333,87.6667 70.1667,74.3333 85.5,61C 87.4048,59.5787 89.4048,58.412 91.5,57.5 Z"/></g>
<g><path style="opacity:1" fill="#e82025" d="M 93.5,82.5 C 92.448,82.3505 91.448,82.5172 90.5,83C 78.1411,94.0287 65.8077,105.029 53.5,116C 51.8034,116.384 50.1368,116.218 48.5,115.5C 46.5,114.167 44.8333,112.5 43.5,110.5C 44.6389,106.557 46.9722,103.39 50.5,101C 52.5976,100.322 54.5976,100.489 56.5,101.5C 70.7373,90.1052 84.5706,78.1052 98,65.5C 100.984,67.069 103.817,68.7357 106.5,70.5C 102.172,74.4937 97.8392,78.4937 93.5,82.5 Z"/></g>
<g><path style="opacity:1" fill="#de1e27" d="M 126.5,69.5 C 125.797,71.7157 124.464,73.549 122.5,75C 104.204,90.2936 86.2043,105.96 68.5,122C 66.9751,123.009 65.3084,123.509 63.5,123.5C 57.7403,122.122 52.7403,119.455 48.5,115.5C 50.1368,116.218 51.8034,116.384 53.5,116C 65.8077,105.029 78.1411,94.0287 90.5,83C 91.448,82.5172 92.448,82.3505 93.5,82.5C 87.9084,87.9843 82.2417,93.4843 76.5,99C 76.8333,99.1667 77.1667,99.3333 77.5,99.5C 92.976,87.858 108.309,76.0247 123.5,64C 124.332,63.3123 124.998,63.479 125.5,64.5C 126.309,66.0709 126.643,67.7376 126.5,69.5 Z"/></g>
<g><path style="opacity:1" fill="#d31d29" d="M 126.5,69.5 C 127.738,76.358 127.738,83.358 126.5,90.5C 111.945,101.049 98.2787,112.716 85.5,125.5C 80.6842,126.65 75.6842,126.816 70.5,126C 67.8958,125.61 65.5625,124.776 63.5,123.5C 65.3084,123.509 66.9751,123.009 68.5,122C 86.2043,105.96 104.204,90.2936 122.5,75C 124.464,73.549 125.797,71.7157 126.5,69.5 Z"/></g>
<g><path style="opacity:1" fill="#ed492a" d="M 81.5,52.5 C 75.2127,60.6259 68.7127,68.6259 62,76.5C 60.3983,78.3687 59.3983,80.3687 59,82.5C 69.3333,72.1667 79.6667,61.8333 90,51.5C 90.5046,53.5183 91.0046,55.5183 91.5,57.5C 89.4048,58.412 87.4048,59.5787 85.5,61C 70.1667,74.3333 54.8333,87.6667 39.5,101C 38.6634,102.011 38.33,103.178 38.5,104.5C 36.0431,101.249 34.3764,97.5821 33.5,93.5C 48.2682,79.2415 63.6016,65.4082 79.5,52C 80.4368,51.3083 81.1034,51.475 81.5,52.5 Z"/></g>
<g><path style="opacity:1" fill="#c91e2b" d="M 126.5,90.5 C 120.508,111.158 106.842,122.825 85.5,125.5C 98.2787,112.716 111.945,101.049 126.5,90.5 Z"/></g>
</svg>
