<?xml version="1.0" encoding="UTF-8"?>
<!DOCTYPE svg PUBLIC "-//W3C//DTD SVG 1.1//EN" "http://www.w3.org/Graphics/SVG/1.1/DTD/svg11.dtd">
<svg xmlns="http://www.w3.org/2000/svg" version="1.1" width="160px" height="160px" style="shape-rendering:geometricPrecision; text-rendering:geometricPrecision; image-rendering:optimizeQuality; fill-rule:evenodd; clip-rule:evenodd" xmlns:xlink="http://www.w3.org/1999/xlink">
<g><path style="opacity:1" fill="#e7eef0" d="M -0.5,-0.5 C 52.8333,-0.5 106.167,-0.5 159.5,-0.5C 159.5,52.8333 159.5,106.167 159.5,159.5C 106.167,159.5 52.8333,159.5 -0.5,159.5C -0.5,106.167 -0.5,52.8333 -0.5,-0.5 Z"/></g>
<g><path style="opacity:1" fill="#a31235" d="M 49.5,31.5 C 59.8387,31.3335 70.172,31.5002 80.5,32C 89.9604,33.1276 94.9604,38.4609 95.5,48C 93.3935,70.7676 80.8935,81.2676 58,79.5C 55.7164,89.0846 53.883,98.7513 52.5,108.5C 46.1667,108.5 39.8333,108.5 33.5,108.5C 38.8305,82.8394 44.1639,57.1727 49.5,31.5 Z"/></g>
<g><path style="opacity:1" fill="#e6e9ec" d="M 65.5,45.5 C 73.8285,44.6636 76.9952,48.3302 75,56.5C 72.8492,62.8349 68.3492,65.5015 61.5,64.5C 62.8329,58.1689 64.1662,51.8356 65.5,45.5 Z"/></g>
<g><path style="opacity:1" fill="#04497a" d="M 106.5,50.5 C 112.868,50.1703 119.202,50.5037 125.5,51.5C 119.549,76.6916 114.215,102.025 109.5,127.5C 103.5,127.5 97.5,127.5 91.5,127.5C 92.6006,116.664 94.6006,105.997 97.5,95.5C 93.2846,94.2023 89.1179,94.2023 85,95.5C 82.6384,106.141 80.4718,116.808 78.5,127.5C 72.5,127.5 66.5,127.5 60.5,127.5C 62.7046,111.644 65.8713,95.977 70,80.5C 77.9588,79.1872 84.6254,75.5205 90,69.5C 89.712,72.7912 89.212,76.1246 88.5,79.5C 92.8333,79.5 97.1667,79.5 101.5,79.5C 102.783,69.7546 104.449,60.088 106.5,50.5 Z"/></g>
</svg>
