<?xml version="1.0" encoding="UTF-8"?>
<!DOCTYPE svg PUBLIC "-//W3C//DTD SVG 1.1//EN" "http://www.w3.org/Graphics/SVG/1.1/DTD/svg11.dtd">
<svg xmlns="http://www.w3.org/2000/svg" version="1.1" width="160px" height="160px" style="shape-rendering:geometricPrecision; text-rendering:geometricPrecision; image-rendering:optimizeQuality; fill-rule:evenodd; clip-rule:evenodd" xmlns:xlink="http://www.w3.org/1999/xlink">
<g><path style="opacity:1" fill="#667175" d="M -0.5,-0.5 C 52.8333,-0.5 106.167,-0.5 159.5,-0.5C 159.5,52.8333 159.5,106.167 159.5,159.5C 106.167,159.5 52.8333,159.5 -0.5,159.5C -0.5,106.167 -0.5,52.8333 -0.5,-0.5 Z"/></g>
<g><path style="opacity:1" fill="#fafbfb" d="M 142.5,87.5 C 130.495,87.3335 118.495,87.5001 106.5,88C 107.044,88.7172 107.711,89.2172 108.5,89.5C 108.833,90.5 109.5,91.1667 110.5,91.5C 120.653,92.4942 130.986,92.8276 141.5,92.5C 141.5,93.8333 141.5,95.1667 141.5,96.5C 133.14,96.1688 124.807,96.5021 116.5,97.5C 116.624,98.1067 116.957,98.44 117.5,98.5C 117.953,99.4584 118.619,100.292 119.5,101C 127.159,101.5 134.826,101.666 142.5,101.5C 142.5,102.833 142.5,104.167 142.5,105.5C 134.16,105.666 125.827,105.5 117.5,105C 101.015,87.6812 84.3483,70.5146 67.5,53.5C 68.0347,51.8987 69.0347,51.3987 70.5,52C 80.8333,62.3333 91.1667,72.6667 101.5,83C 115.163,83.4999 128.829,83.6666 142.5,83.5C 142.5,84.8333 142.5,86.1667 142.5,87.5 Z"/></g>
<g><path style="opacity:1" fill="#f7f7f8" d="M 64.5,55.5 C 81.2508,71.7499 97.9174,88.2499 114.5,105C 112.833,105.667 111.167,105.667 109.5,105C 94.3333,89.8333 79.1667,74.6667 64,59.5C 63.4209,58.0715 63.5876,56.7382 64.5,55.5 Z"/></g>
<g><path style="opacity:1" fill="#f8f8f8" d="M 59.5,60.5 C 60.552,60.3505 61.552,60.5172 62.5,61C 77.1667,75.6667 91.8333,90.3333 106.5,105C 104.833,105.667 103.167,105.667 101.5,105C 87.6667,91.1667 73.8333,77.3333 60,63.5C 59.5172,62.552 59.3505,61.552 59.5,60.5 Z"/></g>
<g><path style="opacity:1" fill="#f5f6f6" d="M 61.5,68.5 C 58.5,69.8333 55.5,69.8333 52.5,68.5C 53.4787,66.8546 54.812,65.5213 56.5,64.5C 58.1856,65.8569 59.8523,67.1902 61.5,68.5 Z"/></g>
<g><path style="opacity:1" fill="#a7adb0" d="M 52.5,68.5 C 55.5,69.8333 58.5,69.8333 61.5,68.5C 62.0431,68.56 62.3764,68.8933 62.5,69.5C 58.8333,70.8333 55.1667,70.8333 51.5,69.5C 51.6236,68.8933 51.9569,68.56 52.5,68.5 Z"/></g>
<g><path style="opacity:1" fill="#eff0f0" d="M 48.5,72.5 C 54.5092,72.3338 60.5092,72.5005 66.5,73C 66.9574,73.414 67.2907,73.914 67.5,74.5C 60.5237,75.6644 53.5237,75.8311 46.5,75C 47.3805,74.2917 48.0472,73.4584 48.5,72.5 Z"/></g>
<g><path style="opacity:1" fill="#eeeff0" d="M 71.5,78.5 C 61.8333,79.8333 52.1667,79.8333 42.5,78.5C 52.1667,77.1667 61.8333,77.1667 71.5,78.5 Z"/></g>
<g><path style="opacity:1" fill="#b6bbbd" d="M 42.5,78.5 C 52.1667,79.8333 61.8333,79.8333 71.5,78.5C 72.0431,78.56 72.3764,78.8933 72.5,79.5C 62.1667,80.8333 51.8333,80.8333 41.5,79.5C 41.6236,78.8933 41.9569,78.56 42.5,78.5 Z"/></g>
<g><path style="opacity:1" fill="#fbfcfc" d="M 83.5,104.5 C 82.6782,102.272 81.3448,101.605 79.5,102.5C 79.9767,103.478 80.6433,104.311 81.5,105C 72.3238,105.824 63.3238,105.657 54.5,104.5C 56.332,103.86 56.6653,102.86 55.5,101.5C 51.6237,105.336 46.957,106.503 41.5,105C 45.0695,101.989 47.7362,98.822 49.5,95.5C 46.0154,98.484 42.682,101.651 39.5,105C 36.1667,105.667 32.8333,105.667 29.5,105C 33.6329,99.8656 38.1329,95.0323 43,90.5C 43.6667,89.8333 43.6667,89.1667 43,88.5C 37.5,94 32,99.5 26.5,105C 23.1667,105.667 19.8333,105.667 16.5,105C 23.5,98 30.5,91 37.5,84C 50.8333,83.3333 64.1667,83.3333 77.5,84C 84.5,91 91.5,98 98.5,105C 96.5,105.667 94.5,105.667 92.5,105C 89.9782,102.478 87.4782,99.9782 85,97.5C 83.7425,97.8499 83.4092,98.5165 84,99.5C 85.8333,101.333 87.6667,103.167 89.5,105C 87.4024,105.678 85.4024,105.511 83.5,104.5 Z"/></g>
<g><path style="opacity:1" fill="#b0b6b8" d="M 142.5,87.5 C 131.167,88.1667 119.833,88.8333 108.5,89.5C 107.711,89.2172 107.044,88.7172 106.5,88C 118.495,87.5001 130.495,87.3335 142.5,87.5 Z"/></g>
<g><path style="opacity:1" fill="#d9dcdd" d="M 110.5,91.5 C 121.167,91.5 131.833,91.5 142.5,91.5C 142.5,93.1667 142.5,94.8333 142.5,96.5C 142.167,96.5 141.833,96.5 141.5,96.5C 141.5,95.1667 141.5,93.8333 141.5,92.5C 130.986,92.8276 120.653,92.4942 110.5,91.5 Z"/></g>
<g><path style="opacity:1" fill="#9ca3a6" d="M 141.5,96.5 C 141.833,96.5 142.167,96.5 142.5,96.5C 134.167,97.1667 125.833,97.8333 117.5,98.5C 116.957,98.44 116.624,98.1067 116.5,97.5C 124.807,96.5021 133.14,96.1688 141.5,96.5 Z"/></g>
<g><path style="opacity:1" fill="#828b8e" d="M 83.5,104.5 C 78.5797,105.78 73.413,106.447 68,106.5C 63.1667,106.167 58.3333,105.833 53.5,105.5C 53.6236,104.893 53.9569,104.56 54.5,104.5C 63.3238,105.657 72.3238,105.824 81.5,105C 80.6433,104.311 79.9767,103.478 79.5,102.5C 81.3448,101.605 82.6782,102.272 83.5,104.5 Z"/></g>
</svg>
