<?xml version="1.0" encoding="UTF-8"?>
<!DOCTYPE svg PUBLIC "-//W3C//DTD SVG 1.1//EN" "http://www.w3.org/Graphics/SVG/1.1/DTD/svg11.dtd">
<svg xmlns="http://www.w3.org/2000/svg" version="1.1" width="160px" height="160px" style="shape-rendering:geometricPrecision; text-rendering:geometricPrecision; image-rendering:optimizeQuality; fill-rule:evenodd; clip-rule:evenodd" xmlns:xlink="http://www.w3.org/1999/xlink">
<g><path style="opacity:1" fill="#fefefe" d="M -0.5,-0.5 C 52.8333,-0.5 106.167,-0.5 159.5,-0.5C 159.5,52.8333 159.5,106.167 159.5,159.5C 106.167,159.5 52.8333,159.5 -0.5,159.5C -0.5,106.167 -0.5,52.8333 -0.5,-0.5 Z"/></g>
<g><path style="opacity:1" fill="#232327" d="M 31.5,31.5 C 60.5,31.5 89.5,31.5 118.5,31.5C 118.5,49.1667 118.5,66.8333 118.5,84.5C 111.159,84.6663 103.826,84.4997 96.5,84C 100.37,79.3883 102.037,74.055 101.5,68C 99.8292,51.7031 90.6626,43.2031 74,42.5C 55.9684,44.524 47.3017,54.524 48,72.5C 48.4994,77.0117 50.3327,80.845 53.5,84C 46.1742,84.4997 38.8409,84.6663 31.5,84.5C 31.5,66.8333 31.5,49.1667 31.5,31.5 Z"/></g>
<g><path style="opacity:1" fill="#ff6060" d="M 65.5,67.5 C 64.5029,87.3264 64.1695,107.326 64.5,127.5C 63.3373,106.671 63.1707,85.6707 64,64.5C 65.0386,65.2438 65.5386,66.2438 65.5,67.5 Z"/></g>
<g><path style="opacity:1" fill="#ff0803" d="M 65.5,67.5 C 77.0733,96.2392 97.4067,116.073 126.5,127C 105.836,127.5 85.1694,127.667 64.5,127.5C 64.1695,107.326 64.5029,87.3264 65.5,67.5 Z"/></g>
</svg>
