<?xml version="1.0" encoding="UTF-8"?>
<!DOCTYPE svg PUBLIC "-//W3C//DTD SVG 1.1//EN" "http://www.w3.org/Graphics/SVG/1.1/DTD/svg11.dtd">
<svg xmlns="http://www.w3.org/2000/svg" version="1.1" width="160px" height="160px" style="shape-rendering:geometricPrecision; text-rendering:geometricPrecision; image-rendering:optimizeQuality; fill-rule:evenodd; clip-rule:evenodd" xmlns:xlink="http://www.w3.org/1999/xlink">
<g><path style="opacity:1" fill="#f4f4f5" d="M -0.5,-0.5 C 52.8333,-0.5 106.167,-0.5 159.5,-0.5C 159.5,52.8333 159.5,106.167 159.5,159.5C 106.167,159.5 52.8333,159.5 -0.5,159.5C -0.5,106.167 -0.5,52.8333 -0.5,-0.5 Z"/></g>
<g><path style="opacity:1" fill="#5d5c5c" d="M 96.5,60.5 C 91.2844,63.9343 86.2844,67.601 81.5,71.5C 70.6682,77.7504 60.3349,84.7504 50.5,92.5C 51.6016,93.1757 52.6016,93.8423 53.5,94.5C 50.8333,94.5 48.1667,94.5 45.5,94.5C 56.7313,71.7042 68.2313,49.0375 80,26.5C 85.7836,37.7329 91.2836,49.0662 96.5,60.5 Z"/></g>
<g><path style="opacity:1" fill="#b8b8b9" d="M 105.5,78.5 C 108.405,83.3065 111.072,88.3065 113.5,93.5C 106.687,94.4912 99.6866,94.8245 92.5,94.5C 91.8662,90.663 91.1995,86.8297 90.5,83C 95.053,80.1104 100.053,78.6104 105.5,78.5 Z"/></g>
<g><path style="opacity:1" fill="#757474" d="M 81.5,71.5 C 83.1734,74.9524 84.1734,78.7857 84.5,83C 79.3103,85.1298 73.9769,86.6298 68.5,87.5C 68.5,89.5 68.5,91.5 68.5,93.5C 70.099,93.2322 71.4324,93.5655 72.5,94.5C 66.1667,94.5 59.8333,94.5 53.5,94.5C 52.6016,93.8423 51.6016,93.1757 50.5,92.5C 60.3349,84.7504 70.6682,77.7504 81.5,71.5 Z"/></g>
<g><path style="opacity:1" fill="#929292" d="M 96.5,60.5 C 100.008,66.1823 103.008,72.1823 105.5,78.5C 100.053,78.6104 95.053,80.1104 90.5,83C 91.1995,86.8297 91.8662,90.663 92.5,94.5C 85.8333,94.5 79.1667,94.5 72.5,94.5C 71.4324,93.5655 70.099,93.2322 68.5,93.5C 68.5,91.5 68.5,89.5 68.5,87.5C 73.9769,86.6298 79.3103,85.1298 84.5,83C 84.1734,78.7857 83.1734,74.9524 81.5,71.5C 86.2844,67.601 91.2844,63.9343 96.5,60.5 Z"/></g>
<g><path style="opacity:1" fill="#d7d7d8" d="M 113.5,93.5 C 114.043,93.56 114.376,93.8933 114.5,94.5C 91.3368,95.8286 68.3368,95.8286 45.5,94.5C 48.1667,94.5 50.8333,94.5 53.5,94.5C 59.8333,94.5 66.1667,94.5 72.5,94.5C 79.1667,94.5 85.8333,94.5 92.5,94.5C 99.6866,94.8245 106.687,94.4912 113.5,93.5 Z"/></g>
<g><path style="opacity:1" fill="#cb8a26" d="M 62.5,104.5 C 66.1667,104.5 69.8333,104.5 73.5,104.5C 77.3245,119.024 84.3245,120.524 94.5,109C 96.8864,107.807 99.2198,106.64 101.5,105.5C 102.239,105.369 102.906,105.536 103.5,106C 96.8247,111.376 90.8247,117.376 85.5,124C 78.2142,125.73 73.7142,122.896 72,115.5C 71.2825,114.549 70.4491,114.383 69.5,115C 68.607,119.023 67.607,123.023 66.5,127C 67.2524,127.671 67.5858,128.504 67.5,129.5C 64.5,129.5 61.5,129.5 58.5,129.5C 60.589,121.299 61.9223,112.966 62.5,104.5 Z"/></g>
<g><path style="opacity:1" fill="#d79527" d="M 73.5,104.5 C 82.8333,104.5 92.1667,104.5 101.5,104.5C 101.5,104.833 101.5,105.167 101.5,105.5C 99.2198,106.64 96.8864,107.807 94.5,109C 84.3245,120.524 77.3245,119.024 73.5,104.5 Z"/></g>
<g><path style="opacity:1" fill="#c38024" d="M 101.5,105.5 C 101.5,105.167 101.5,104.833 101.5,104.5C 105.884,104.174 110.217,104.508 114.5,105.5C 115.496,110.322 116.996,114.988 119,119.5C 121.632,122.751 124.799,124.084 128.5,123.5C 129.752,125.339 129.752,127.172 128.5,129C 123.511,129.499 118.511,129.666 113.5,129.5C 113.042,121.98 110.542,115.313 106,109.5C 98.4624,114.533 92.9624,121.2 89.5,129.5C 82.1667,129.5 74.8333,129.5 67.5,129.5C 67.5858,128.504 67.2524,127.671 66.5,127C 67.607,123.023 68.607,119.023 69.5,115C 70.4491,114.383 71.2825,114.549 72,115.5C 73.7142,122.896 78.2142,125.73 85.5,124C 90.8247,117.376 96.8247,111.376 103.5,106C 102.906,105.536 102.239,105.369 101.5,105.5 Z"/></g>
<g><path style="opacity:1" fill="#dba941" d="M 41.5,104.5 C 66.9967,103.337 92.6634,103.17 118.5,104C 121.974,110.448 125.307,116.948 128.5,123.5C 124.799,124.084 121.632,122.751 119,119.5C 116.996,114.988 115.496,110.322 114.5,105.5C 110.217,104.508 105.884,104.174 101.5,104.5C 92.1667,104.5 82.8333,104.5 73.5,104.5C 69.8333,104.5 66.1667,104.5 62.5,104.5C 61.1667,104.5 59.8333,104.5 58.5,104.5C 57.8333,104.5 57.1667,104.5 56.5,104.5C 52.5,104.5 48.5,104.5 44.5,104.5C 43.5,104.5 42.5,104.5 41.5,104.5 Z"/></g>
<g><path style="opacity:1" fill="#d9a52b" d="M 58.5,104.5 C 59.8333,104.5 61.1667,104.5 62.5,104.5C 61.9223,112.966 60.589,121.299 58.5,129.5C 54.5,129.5 50.5,129.5 46.5,129.5C 44.0097,126.529 42.0097,123.196 40.5,119.5C 38.9288,117.585 36.9288,116.585 34.5,116.5C 36.1667,113.167 37.8333,109.833 39.5,106.5C 40.4584,106.953 41.2917,107.619 42,108.5C 43.6667,112.833 45.3333,117.167 47,121.5C 50.3113,125.527 53.3113,125.193 56,120.5C 57.4385,115.264 58.2719,109.931 58.5,104.5 Z"/></g>
<g><path style="opacity:1" fill="#ae691e" d="M 113.5,129.5 C 105.5,129.5 97.5,129.5 89.5,129.5C 92.9624,121.2 98.4624,114.533 106,109.5C 110.542,115.313 113.042,121.98 113.5,129.5 Z"/></g>
<g><path style="opacity:1" fill="#e1b32e" d="M 41.5,104.5 C 42.5,104.5 43.5,104.5 44.5,104.5C 45.8149,108.084 46.9816,111.751 48,115.5C 50.6659,119.522 52.9992,119.189 55,114.5C 56.0429,111.243 56.5429,107.91 56.5,104.5C 57.1667,104.5 57.8333,104.5 58.5,104.5C 58.2719,109.931 57.4385,115.264 56,120.5C 53.3113,125.193 50.3113,125.527 47,121.5C 45.3333,117.167 43.6667,112.833 42,108.5C 41.2917,107.619 40.4584,106.953 39.5,106.5C 39.8333,105.5 40.5,104.833 41.5,104.5 Z"/></g>
<g><path style="opacity:1" fill="#ebc330" d="M 44.5,104.5 C 48.5,104.5 52.5,104.5 56.5,104.5C 56.5429,107.91 56.0429,111.243 55,114.5C 52.9992,119.189 50.6659,119.522 48,115.5C 46.9816,111.751 45.8149,108.084 44.5,104.5 Z"/></g>
<g><path style="opacity:1" fill="#cc8f27" d="M 34.5,116.5 C 36.9288,116.585 38.9288,117.585 40.5,119.5C 42.0097,123.196 44.0097,126.529 46.5,129.5C 40.9066,129.807 35.4066,129.473 30,128.5C 30.6123,124.256 32.1123,120.256 34.5,116.5 Z"/></g>
</svg>
