<?xml version="1.0" encoding="UTF-8"?>
<!DOCTYPE svg PUBLIC "-//W3C//DTD SVG 1.1//EN" "http://www.w3.org/Graphics/SVG/1.1/DTD/svg11.dtd">
<svg xmlns="http://www.w3.org/2000/svg" version="1.1" width="160px" height="160px" style="shape-rendering:geometricPrecision; text-rendering:geometricPrecision; image-rendering:optimizeQuality; fill-rule:evenodd; clip-rule:evenodd" xmlns:xlink="http://www.w3.org/1999/xlink">
<g><path style="opacity:1" fill="#fdc436" d="M -0.5,-0.5 C 52.8333,-0.5 106.167,-0.5 159.5,-0.5C 159.5,52.8333 159.5,106.167 159.5,159.5C 106.167,159.5 52.8333,159.5 -0.5,159.5C -0.5,106.167 -0.5,52.8333 -0.5,-0.5 Z"/></g>
<g><path style="opacity:1" fill="#3f3f3e" d="M 89.5,51.5 C 88.5386,53.2646 88.2053,55.2646 88.5,57.5C 93.5,57.5 98.5,57.5 103.5,57.5C 103.5,60.1667 103.5,62.8333 103.5,65.5C 98.5,65.5 93.5,65.5 88.5,65.5C 88.5,73.8333 88.5,82.1667 88.5,90.5C 85.5,90.5 82.5,90.5 79.5,90.5C 79.5,82.5 79.5,74.5 79.5,66.5C 77.3926,65.5318 75.0593,65.1984 72.5,65.5C 72.5,62.8333 72.5,60.1667 72.5,57.5C 74.8333,57.5 77.1667,57.5 79.5,57.5C 78.3435,51.614 80.0102,46.7807 84.5,43C 92.3888,41.5648 100.389,41.0648 108.5,41.5C 108.5,44.1667 108.5,46.8333 108.5,49.5C 102.491,49.3338 96.4908,49.5005 90.5,50C 89.944,50.3826 89.6107,50.8826 89.5,51.5 Z"/></g>
<g><path style="opacity:1" fill="#41403e" d="M 118.5,41.5 C 127.868,39.1992 130.868,42.5325 127.5,51.5C 125.224,52.2132 122.891,52.7132 120.5,53C 119.333,53.5 118.5,54.3333 118,55.5C 117.5,67.4954 117.333,79.4954 117.5,91.5C 114.5,91.5 111.5,91.5 108.5,91.5C 108.5,80.1667 108.5,68.8333 108.5,57.5C 111.099,57.4506 113.266,56.4506 115,54.5C 116.946,50.382 118.113,46.0486 118.5,41.5 Z"/></g>
<g><path style="opacity:1" fill="#42413e" d="M 40.5,53.5 C 47.2569,53.1226 53.9236,53.6226 60.5,55C 65.4759,56.8016 68.1425,60.3016 68.5,65.5C 62.0481,63.8276 55.3814,62.4942 48.5,61.5C 46.1667,61.6667 43.8333,61.8333 41.5,62C 39.4732,63.3957 39.1398,65.0624 40.5,67C 48.696,67.8557 56.696,69.5224 64.5,72C 71.1669,80.8306 69.1669,87.1639 58.5,91C 52.1667,91.6667 45.8333,91.6667 39.5,91C 33.4296,89.4364 30.0962,85.603 29.5,79.5C 34.1224,78.9094 38.1224,80.0761 41.5,83C 46.5,83.6667 51.5,83.6667 56.5,83C 59.8163,81.7488 60.1496,80.0821 57.5,78C 52.2305,76.8938 46.8972,76.2272 41.5,76C 32.6527,74.4751 29.1527,69.3084 31,60.5C 33.529,57.1151 36.6956,54.7818 40.5,53.5 Z"/></g>
<g><path style="opacity:1" fill="#b28f3a" d="M 89.5,51.5 C 89.5,53.1667 89.5,54.8333 89.5,56.5C 94.3633,56.1805 99.03,56.5139 103.5,57.5C 98.5,57.5 93.5,57.5 88.5,57.5C 88.2053,55.2646 88.5386,53.2646 89.5,51.5 Z"/></g>
<g><path style="opacity:1" fill="#a5853a" d="M 72.5,57.5 C 72.5,60.1667 72.5,62.8333 72.5,65.5C 75.0593,65.1984 77.3926,65.5318 79.5,66.5C 76.8333,66.5 74.1667,66.5 71.5,66.5C 71.19,63.2869 71.5233,60.2869 72.5,57.5 Z"/></g>
<g><path style="opacity:1" fill="#8c753b" d="M 103.5,65.5 C 99.03,66.4861 94.3633,66.8195 89.5,66.5C 89.5,74.8333 89.5,83.1667 89.5,91.5C 85.9581,91.8128 82.6248,91.4794 79.5,90.5C 82.5,90.5 85.5,90.5 88.5,90.5C 88.5,82.1667 88.5,73.8333 88.5,65.5C 93.5,65.5 98.5,65.5 103.5,65.5 Z"/></g>
<g><path style="opacity:1" fill="#60563d" d="M 46.5,100.5 C 47.4511,101.919 47.7845,103.585 47.5,105.5C 46.1667,105.5 44.8333,105.5 43.5,105.5C 43.5,103.5 43.5,101.5 43.5,99.5C 44.791,99.2627 45.791,99.596 46.5,100.5 Z"/></g>
<g><path style="opacity:1" fill="#8f773c" d="M 30.5,99.5 C 31.2679,100.263 31.7679,101.263 32,102.5C 32.8333,101.5 33.6667,100.5 34.5,99.5C 35.8333,101.5 35.8333,103.5 34.5,105.5C 33.4826,102.972 32.3159,102.972 31,105.5C 30.5045,103.527 30.3379,101.527 30.5,99.5 Z"/></g>
<g><path style="opacity:1" fill="#65593d" d="M 60.5,100.5 C 61.5676,99.5655 62.901,99.2322 64.5,99.5C 64.5,99.8333 64.5,100.167 64.5,100.5C 63.6981,101.952 63.1981,103.618 63,105.5C 62.9504,103.256 62.1171,101.589 60.5,100.5 Z"/></g>
<g><path style="opacity:1" fill="#9b7f3b" d="M 64.5,100.5 C 64.5,100.167 64.5,99.8333 64.5,99.5C 65.5,99.5 66.5,99.5 67.5,99.5C 67.678,103.102 68.678,103.102 70.5,99.5C 71.8333,101.5 71.8333,103.5 70.5,105.5C 69.8076,104.975 69.3076,104.308 69,103.5C 68.3109,104.357 67.4776,105.023 66.5,105.5C 65.8302,103.709 65.1635,102.042 64.5,100.5 Z"/></g>
<g><path style="opacity:1" fill="#9e813a" d="M 89.5,104.5 C 89.5,103.167 89.5,101.833 89.5,100.5C 90.787,101.768 91.787,101.435 92.5,99.5C 93.8333,102.167 95.1667,102.167 96.5,99.5C 97.8333,101.5 97.8333,103.5 96.5,105.5C 95.1667,102.833 93.8333,102.833 92.5,105.5C 91.787,103.565 90.787,103.232 89.5,104.5 Z"/></g>
<g><path style="opacity:1" fill="#957a3b" d="M 115.5,102.5 C 115.585,103.995 114.919,104.995 113.5,105.5C 112.167,103.5 112.167,101.5 113.5,99.5C 114.176,100.602 114.842,101.602 115.5,102.5 Z"/></g>
<g><path style="opacity:1" fill="#f4bd36" d="M 89.5,100.5 C 89.5,101.833 89.5,103.167 89.5,104.5C 85.5,103.167 85.5,101.833 89.5,100.5 Z"/></g>
<g><path style="opacity:1" fill="#685b3d" d="M 108.5,102.5 C 105.833,103.167 105.833,103.833 108.5,104.5C 107.791,105.404 106.791,105.737 105.5,105.5C 105.338,103.473 105.505,101.473 106,99.5C 106.698,100.691 107.531,101.691 108.5,102.5 Z"/></g>
<g><path style="opacity:1" fill="#7e6b3d" d="M 36.5,99.5 C 38.0394,101.982 39.5394,101.982 41,99.5C 41.6667,101.5 41.6667,103.5 41,105.5C 39.6667,102.833 38.3333,102.833 37,105.5C 36.5045,103.527 36.3379,101.527 36.5,99.5 Z"/></g>
<g><path style="opacity:1" fill="#bf9839" d="M 46.5,100.5 C 46.762,101.978 46.4287,103.311 45.5,104.5C 45.1667,103.833 44.8333,103.167 44.5,102.5C 44.7472,101.287 45.4138,100.62 46.5,100.5 Z"/></g>
<g><path style="opacity:1" fill="#9a7e3c" d="M 49.5,99.5 C 53.0681,99.7593 54.4015,101.759 53.5,105.5C 48.7398,105.799 47.4064,103.799 49.5,99.5 Z"/></g>
<g><path style="opacity:1" fill="#8f763c" d="M 60.5,100.5 C 59.4324,101.434 58.099,101.768 56.5,101.5C 56.281,102.675 56.6143,103.675 57.5,104.5C 58.3957,103.494 59.0623,103.494 59.5,104.5C 55.9856,106.265 54.4856,105.265 55,101.5C 56.4875,99.1695 58.3209,98.8362 60.5,100.5 Z"/></g>
<g><path style="opacity:1" fill="#8e753c" d="M 79.5,99.5 C 80.2679,100.263 80.7679,101.263 81,102.5C 81.8333,101.5 82.6667,100.5 83.5,99.5C 84.8333,101.5 84.8333,103.5 83.5,105.5C 82.4826,102.972 81.3159,102.972 80,105.5C 79.5045,103.527 79.3379,101.527 79.5,99.5 Z"/></g>
<g><path style="opacity:1" fill="#7d693d" d="M 98.5,99.5 C 100.039,101.982 101.539,101.982 103,99.5C 103.667,101.5 103.667,103.5 103,105.5C 101.667,102.833 100.333,102.833 99,105.5C 98.5045,103.527 98.3379,101.527 98.5,99.5 Z"/></g>
<g><path style="opacity:1" fill="#947a3b" d="M 115.5,102.5 C 115.415,101.005 116.081,100.005 117.5,99.5C 118.833,101.5 118.833,103.5 117.5,105.5C 116.824,104.398 116.158,103.398 115.5,102.5 Z"/></g>
<g><path style="opacity:1" fill="#ba943c" d="M 108.5,102.5 C 109.833,103.167 109.833,103.833 108.5,104.5C 105.833,103.833 105.833,103.167 108.5,102.5 Z"/></g>
<g><path style="opacity:1" fill="#58503d" d="M 72.5,99.5 C 73.4511,100.919 73.7845,102.585 73.5,104.5C 74.5,104.5 75.5,104.5 76.5,104.5C 76.3398,102.801 76.5065,101.134 77,99.5C 77.6139,101.879 77.9472,104.212 78,106.5C 76.3005,105.594 74.4672,105.261 72.5,105.5C 72.5,103.5 72.5,101.5 72.5,99.5 Z"/></g>
<g><path style="opacity:1" fill="#73633d" d="M 89.5,100.5 C 85.5,101.833 85.5,103.167 89.5,104.5C 87.3161,105.983 85.9827,105.316 85.5,102.5C 85.9827,99.6837 87.3161,99.0171 89.5,100.5 Z"/></g>
<g><path style="opacity:1" fill="#997d3b" d="M 46.5,115.5 C 46.5,115.833 46.5,116.167 46.5,116.5C 45.0014,115.322 44.0014,113.655 43.5,111.5C 42.8333,113.167 42.1667,114.833 41.5,116.5C 40.8933,116.376 40.56,116.043 40.5,115.5C 41.4511,114.081 41.7845,112.415 41.5,110.5C 43.1667,110.5 44.8333,110.5 46.5,110.5C 46.5,112.167 46.5,113.833 46.5,115.5 Z"/></g>
<g><path style="opacity:1" fill="#947a3b" d="M 51.5,116.5 C 52.1667,116.5 52.5,116.167 52.5,115.5C 53.1635,113.958 53.8302,112.291 54.5,110.5C 55.5174,113.028 56.6841,113.028 58,110.5C 58.6667,112.5 58.6667,114.5 58,116.5C 57.5756,112.81 56.7423,112.643 55.5,116C 54.0544,117.298 52.7211,117.465 51.5,116.5 Z"/></g>
<g><path style="opacity:1" fill="#90773b" d="M 66.5,110.5 C 67.8734,110.343 69.2068,110.51 70.5,111C 69.0798,112.53 68.0798,114.363 67.5,116.5C 66.5344,114.604 66.2011,112.604 66.5,110.5 Z"/></g>
<g><path style="opacity:1" fill="#85703c" d="M 40.5,115.5 C 37.7649,117.135 35.7649,116.469 34.5,113.5C 34.8555,112.478 35.5222,111.811 36.5,111.5C 39.8281,110.149 41.1614,111.483 40.5,115.5 Z"/></g>
<g><path style="opacity:1" fill="#f2bc36" d="M 36.5,111.5 C 39.8606,112.203 40.1939,113.537 37.5,115.5C 36.5713,114.311 36.238,112.978 36.5,111.5 Z"/></g>
<g><path style="opacity:1" fill="#be9839" d="M 48.5,110.5 C 49.209,111.404 50.209,111.737 51.5,111.5C 51.5,112.833 51.5,114.167 51.5,115.5C 50.0413,115.567 48.7079,115.234 47.5,114.5C 47.2322,112.901 47.5655,111.568 48.5,110.5 Z"/></g>
<g><path style="opacity:1" fill="#7d6a3d" d="M 60.5,110.5 C 62.0394,112.982 63.5394,112.982 65,110.5C 65.6667,112.5 65.6667,114.5 65,116.5C 63.6667,113.833 62.3333,113.833 61,116.5C 60.5045,114.527 60.3379,112.527 60.5,110.5 Z"/></g>
<g><path style="opacity:1" fill="#947a3c" d="M 29.5,111.5 C 30.5659,110.308 31.3992,110.641 32,112.5C 32.4226,111.044 33.2559,110.544 34.5,111C 33.1667,112.667 33.1667,114.333 34.5,116C 33.2559,116.456 32.4226,115.956 32,114.5C 31.5774,115.956 30.7441,116.456 29.5,116C 30.8009,114.384 30.8009,112.884 29.5,111.5 Z"/></g>
<g><path style="opacity:1" fill="#64583d" d="M 48.5,110.5 C 49.8333,110.5 51.1667,110.5 52.5,110.5C 52.5,112.167 52.5,113.833 52.5,115.5C 52.5,116.167 52.1667,116.5 51.5,116.5C 49.5248,116.822 47.8582,116.822 46.5,116.5C 46.5,116.167 46.5,115.833 46.5,115.5C 47.1667,115.5 47.5,115.167 47.5,114.5C 48.7079,115.234 50.0413,115.567 51.5,115.5C 51.5,114.167 51.5,112.833 51.5,111.5C 50.209,111.737 49.209,111.404 48.5,110.5 Z"/></g>
</svg>
