<?xml version="1.0" encoding="UTF-8"?>
<!DOCTYPE svg PUBLIC "-//W3C//DTD SVG 1.1//EN" "http://www.w3.org/Graphics/SVG/1.1/DTD/svg11.dtd">
<svg xmlns="http://www.w3.org/2000/svg" version="1.1" width="160px" height="160px" style="shape-rendering:geometricPrecision; text-rendering:geometricPrecision; image-rendering:optimizeQuality; fill-rule:evenodd; clip-rule:evenodd" xmlns:xlink="http://www.w3.org/1999/xlink">
<g><path style="opacity:1" fill="#149344" d="M -0.5,-0.5 C 52.8333,-0.5 106.167,-0.5 159.5,-0.5C 159.5,52.8333 159.5,106.167 159.5,159.5C 106.167,159.5 52.8333,159.5 -0.5,159.5C -0.5,106.167 -0.5,52.8333 -0.5,-0.5 Z"/></g>
<g><path style="opacity:1" fill="#eef7f1" d="M 112.5,68.5 C 113.254,73.4635 113.587,78.4635 113.5,83.5C 107.954,99.2127 97.2873,109.713 81.5,115C 72.0901,115.894 63.7568,113.227 56.5,107C 50.5136,101.348 45.6802,94.8484 42,87.5C 38.7401,77.1954 40.4068,67.862 47,59.5C 53.4737,51.6729 61.3071,45.8396 70.5,42C 77.8161,40.8591 84.8161,41.8591 91.5,45C 96.3333,49.1667 101.167,53.3333 106,57.5C 108.421,61.0709 110.587,64.7375 112.5,68.5 Z"/></g>
<g><path style="opacity:1" fill="#2e9651" d="M 107.5,70.5 C 108.114,74.1352 108.448,77.8019 108.5,81.5C 108.125,83.6976 107.458,85.6976 106.5,87.5C 105.503,87.5299 104.836,87.0299 104.5,86C 105.774,81.3564 105.774,76.8564 104.5,72.5C 100.843,65.3333 95.8433,59.1666 89.5,54C 76.3742,48.3833 65.5408,51.2166 57,62.5C 49.0797,69.9134 47.413,78.58 52,88.5C 57.2073,95.3747 63.374,101.208 70.5,106C 76.0047,106.796 81.338,106.129 86.5,104C 91.4018,98.9921 96.4018,94.1587 101.5,89.5C 103.598,88.0857 104.598,88.7524 104.5,91.5C 100.039,97.1285 95.0392,102.295 89.5,107C 80.6684,110.573 72.0017,110.24 63.5,106C 58.973,101.473 54.473,96.973 50,92.5C 42.9963,79.8584 44.663,68.5251 55,58.5C 62.2449,49.7868 71.4116,45.9535 82.5,47C 93.5997,51.9343 101.933,59.7676 107.5,70.5 Z"/></g>
<g><path style="opacity:1" fill="#edf6f0" d="M 104.5,72.5 C 105.11,78.5058 104.11,84.1725 101.5,89.5C 96.4018,94.1587 91.4018,98.9921 86.5,104C 81.338,106.129 76.0047,106.796 70.5,106C 63.374,101.208 57.2073,95.3747 52,88.5C 47.413,78.58 49.0797,69.9134 57,62.5C 65.5408,51.2166 76.3742,48.3833 89.5,54C 95.8433,59.1666 100.843,65.3333 104.5,72.5 Z"/></g>
<g><path style="opacity:1" fill="#25954c" d="M 72.5,55.5 C 78.0264,54.711 83.0264,55.8777 87.5,59C 91.7016,62.8666 95.5349,67.0332 99,71.5C 101.447,80.4305 98.9473,87.5971 91.5,93C 88.4432,95.7226 85.1099,98.056 81.5,100C 77.8333,100.667 74.1667,100.667 70.5,100C 63.9071,95.4084 58.7404,89.5751 55,82.5C 54.3901,78.7636 54.7235,75.0969 56,71.5C 61.038,65.6278 66.538,60.2944 72.5,55.5 Z"/></g>
<g><path style="opacity:1" fill="#eff7f2" d="M 70.5,61.5 C 72.4841,61.484 73.4841,62.484 73.5,64.5C 70.8162,68.4994 67.6496,72.1661 64,75.5C 63.2156,82.7158 66.3823,85.8824 73.5,85C 75.403,82.5946 77.7363,80.7612 80.5,79.5C 81.7199,79.8869 82.3865,80.7202 82.5,82C 76.5185,91.6398 69.3518,92.8065 61,85.5C 58.2073,81.3391 57.874,77.0058 60,72.5C 63.7316,68.9378 67.2316,65.2712 70.5,61.5 Z"/></g>
<g><path style="opacity:1" fill="#9bd2b1" d="M 107.5,70.5 C 109.569,74.0437 109.902,77.7104 108.5,81.5C 108.448,77.8019 108.114,74.1352 107.5,70.5 Z"/></g>
<g><path style="opacity:1" fill="#82c398" d="M 112.5,68.5 C 113.991,71.1864 114.657,74.1864 114.5,77.5C 114.495,79.6965 114.162,81.6965 113.5,83.5C 113.587,78.4635 113.254,73.4635 112.5,68.5 Z"/></g>
<g><path style="opacity:1" fill="#e9f4ed" d="M 77.5,66.5 C 92.6028,65.0838 97.7695,71.4171 93,85.5C 89.6514,89.0158 86.1514,92.3492 82.5,95.5C 80.876,94.1311 80.376,92.4645 81,90.5C 83.6667,87.8333 86.3333,85.1667 89,82.5C 92.3671,74.7223 89.8671,70.889 81.5,71C 78.7294,73.3579 76.0628,75.8579 73.5,78.5C 72.3036,77.4406 71.637,76.1073 71.5,74.5C 73.1397,71.5319 75.1397,68.8652 77.5,66.5 Z"/></g>
<g><path style="opacity:1" fill="#4ea26c" d="M 104.5,72.5 C 105.774,76.8564 105.774,81.3564 104.5,86C 104.836,87.0299 105.503,87.5299 106.5,87.5C 106.34,89.153 105.674,90.4863 104.5,91.5C 104.598,88.7524 103.598,88.0857 101.5,89.5C 104.11,84.1725 105.11,78.5058 104.5,72.5 Z"/></g>
</svg>
