<?xml version="1.0" encoding="UTF-8"?>
<!DOCTYPE svg PUBLIC "-//W3C//DTD SVG 1.1//EN" "http://www.w3.org/Graphics/SVG/1.1/DTD/svg11.dtd">
<svg xmlns="http://www.w3.org/2000/svg" version="1.1" width="160px" height="160px" style="shape-rendering:geometricPrecision; text-rendering:geometricPrecision; image-rendering:optimizeQuality; fill-rule:evenodd; clip-rule:evenodd" xmlns:xlink="http://www.w3.org/1999/xlink">
<g><path style="opacity:1" fill="#147ec2" d="M -0.5,-0.5 C 52.8333,-0.5 106.167,-0.5 159.5,-0.5C 159.5,52.8333 159.5,106.167 159.5,159.5C 106.167,159.5 52.8333,159.5 -0.5,159.5C -0.5,106.167 -0.5,52.8333 -0.5,-0.5 Z"/></g>
<g><path style="opacity:1" fill="#e2eff7" d="M 102.5,73.5 C 101.012,68.6407 100.345,63.6407 100.5,58.5C 101.317,60.9686 101.817,63.6353 102,66.5C 104.095,53.3577 101.595,41.3577 94.5,30.5C 90.7472,37.0104 88.4139,44.0104 87.5,51.5C 86.4183,57.0099 86.4183,62.6765 87.5,68.5C 86.8333,68.5 86.5,68.8333 86.5,69.5C 85.7321,68.7375 85.2321,67.7375 85,66.5C 83.2121,51.1945 86.5454,37.1945 95,24.5C 105.234,39.8042 107.734,56.1375 102.5,73.5 Z"/></g>
<g><path style="opacity:1" fill="#2e87c6" d="M 100.5,58.5 C 99.745,52.4782 97.9116,46.8115 95,41.5C 90.7401,47.4471 88.5735,54.1138 88.5,61.5C 87.5206,58.3752 87.1872,55.0419 87.5,51.5C 88.4139,44.0104 90.7472,37.0104 94.5,30.5C 101.595,41.3577 104.095,53.3577 102,66.5C 101.817,63.6353 101.317,60.9686 100.5,58.5 Z"/></g>
<g><path style="opacity:1" fill="#f4f9fc" d="M 100.5,58.5 C 100.345,63.6407 101.012,68.6407 102.5,73.5C 101.102,79.5376 98.4352,84.8709 94.5,89.5C 90.0795,83.5791 87.4128,76.9124 86.5,69.5C 86.5,68.8333 86.8333,68.5 87.5,68.5C 88.4682,66.3926 88.8016,64.0593 88.5,61.5C 88.5735,54.1138 90.7401,47.4471 95,41.5C 97.9116,46.8115 99.745,52.4782 100.5,58.5 Z"/></g>
<g><path style="opacity:1" fill="#7ab6dc" d="M 87.5,51.5 C 87.1872,55.0419 87.5206,58.3752 88.5,61.5C 88.8016,64.0593 88.4682,66.3926 87.5,68.5C 86.4183,62.6765 86.4183,57.0099 87.5,51.5 Z"/></g>
<g><path style="opacity:1" fill="#f9fcfd" d="M 75.5,56.5 C 77.5,56.5 79.5,56.5 81.5,56.5C 81.5,65.5 81.5,74.5 81.5,83.5C 69.4,84.4334 62.7333,90.9334 61.5,103C 64.5708,121.698 74.9041,127.698 92.5,121C 98.1088,117.723 99.9422,112.89 98,106.5C 93.6428,99.9967 88.3094,98.9967 82,103.5C 81.5014,99.8484 81.3347,96.1817 81.5,92.5C 90.1667,92.5 98.8333,92.5 107.5,92.5C 107.666,101.173 107.5,109.84 107,118.5C 87.8499,133.015 69.8499,131.682 53,114.5C 41.0073,95.2561 43.5073,78.0895 60.5,63C 65.3813,60.2176 70.3813,58.051 75.5,56.5 Z"/></g>
<g><path style="opacity:1" fill="#2d87c6" d="M 94.5,64.5 C 98.3085,71.9269 98.4752,79.5936 95,87.5C 90.6475,79.8677 90.4809,72.201 94.5,64.5 Z"/></g>
</svg>
