<svg id="LOGO_6" xmlns="http://www.w3.org/2000/svg" viewBox="0 0 48 48"><defs><style>.cls-2{fill:#243789}.cls-5{fill:#ffd529}.cls-7{fill:#e3010f}</style></defs><g id="SLEN"><path fill="#f0f1f2" d="M0 0h48v48H0z"/><path class="cls-2" d="M17.68 27.88l7.71-7.73h-9.77l-7.71 7.73 12.62 12.56h9.78L17.68 27.88z"/><path class="cls-2" d="M7 27.88l7.71-7.73h-1.39l-7.71 7.73 12.61 12.58h1.39L7 27.88z"/><path d="M15.22 24.07l.38-.54v-.17l-.44.63zm.65.94h-.11l.24-.41-.23.32zm2.46.85h-.08l-.07.05-.09.07.61-.87h.08l.08-.06.07-.06.07-.09-.67 1zM15.66 25l.32-.46-.39.55h.12zm1 .54l.16-.23-.21.3h.15zm-.55.71v-.22l-.65.92h-.11l.17-.23h.05l.05-.05.06-.06.07-.07zm-.46.31h-.08l-.05.08h.05l.09-.14zm-.21-1h-.16.06l.06-.09zm.42-.26l-.15.12-.06.05-.11.16h.11l.28-.4zm-.06.41l.53-.75-.15.21-.06.08-.38.53h.12zm.85-.53l-.27.38h-.17l.35-.5.09.06zm-.46-.36l-.07-.09L16 25l.16-.23zm.72.48h.05l-.93 1.32H16l.74-1.06.15-.09h-.09l.15-.2zm1.4 0l-.69 1v.2l.9-1.28h-.18zm-.42.11l-.22.32h-.14l.23-.33h.14zm.28-.06h-.16l-.24.34h.06v.18l.48-.7zm-1.07 0h.11l-.84 1.2h-.16l.89-1.27zm.2 0h.12l-.72 1-.09.05h-.1l.79-1.13zm.31 0h-.09l-.58.83.11-.11.1-.1.09-.09.09-.08.31-.44zm-1.13-.36l-.41.58h-.08.01l.47-.68.09.07zm2.56.34l1.09-1.56.41-.59-.08-.08-2.26 3.44v.2l.9-1.29zm-2.51-4.63v-.05l.06-.05-.2.28zm5 3.18l-.11.16h-.1l.14-.21zm-.74-.47l-.38.55h-.05l.4-.57zm.41.24l-.26.37h-.12l.29-.42zm-2.86 3.55L19 26v.35l-.55.79zm3-3.45l-.23.33h.13l.19-.26zm-.5-.3l-.36.52h-.1l.37-.54zm.17.09l-.34.49h.11l.32-.45-.1-.04zm-2.81 3.34V27l.85-1.22v-.21l-.91 1.3zm-2.41-6.46h-.11v.1l.07-.09zm-.32 6.17h-.11.08zm4.78-1v.13l-.12.18.16-.22zm.08.21h-.19l.09-.13zm-6-2.27v-.08h-.11v.06zM15 21.4v-.06.28l.25-.35v-.13zm3.45 5.91l.37-.55v.22l-.26.37zm.19.07v-.32l-.18.25h.06zm1.52-2v.15l-.19.28.23-.33zm-.07-.54v.11l-.34.49.39-.55zm-.73.33v.16l-.2.28.25-.36zm-.1.6l.16-.22v.22l-.09.13v-.05zm.78-1.24v.14l-.42.6.47-.66zm-.04-.24v.11l-.5.71h-.08l.55-.78zm.21-.29v.07l-.11.15H20l.17-.23zm-5.34-1.27l.44-.62-.39.56v.12zm-.13.68l-.26.37h.1l.28-.41h-.13zm-.33.31l.11-.16h.14l-.2.29zm5.76 1.34v.16l-.27.37.3-.44zm-4.1-3.56v.16l-1 1.47L15 23l1.06-1.52zm-1 2.46l.63-.91v.22l-.51.74zm6.45-2.16h.05zm-6.29 1.78l-.24.34h-.11l.28-.4zm-.14-.14l-.3.42h-.11l.3-.42h.11zm4.15-1.22l.44-.63h.12l-.49.7zm-4.73 2.2h.17l-.39.56h-.05l.32-.46zm-.25 0l-.23.32.08.06.28-.39h-.13zm5.26-3l.09-.14h-.12L19 22l.4-.57zm-5.67 2.87h.05l-.11.17.08-.12zm1.15-.11h-.1l-.48.69h.12l.55-.78zm3.36-3.13l-.35.5H18l.33-.48zM20 22.29h.06l-.46.71v-.14l.43-.62zm-6 2.13h.11l-.19.27.15-.21zm3.61-3l.71-1h-.15l-.67 1zm2.07-.06v.08zm.42.92l.47-.66h-.07l-.47.68h.12zm.45.37l-.06.08h-.15l.13-.18zm-2.69-1.21l.46-.65.09-.14v-.35h-.09l-.75 1.07h.12zm-2.76 2.75l-.5.81h.12l.55-.79h-.12zm6-2.33l.11-.16h-.09l-.15.2h.13zm-7.47 2.42v.13l.05-.08h-.09zm3.77-2.85l.66-.94h-.16l-.65.92h.15zm3.93.43h-.13l.09-.13h.09l-.06.08zm-2.72-.15l.72-1h-.14l-.67 1h.09zm2 .37h-.07l.44-.63h.11l-.17.25h-.08zm-2.11-.48h-.05l.57-.83h.15l-.63.9zm.33.2l.33-.47v-.13h.07l.38-.55-.78 1.12.09.06zm1.57.45h-.13l.47-.66h.14l-.47.67zm-.05.75l-.88 1.25v-.34l.67-1zm-4.6-2.16v-.19l.13-.18-.21.3zm-.66.95l-.34.48v-.19l.3-.43v.14zm3.24-.27l.52-.75h-.09l-.45.65h.1zm-3.52 1v-.13l.34-.49v.1l-.37.52zm4.53-1.29l-.44.63.48-.69h-.12zm.2 1.58l.86-1.23h-.11l-.79 1.12v.12zm-4.37.52l2.27-3.23v-.17l-2.31 3.29.05.1zm-.25-.49l.47-.68h.09V22l.63-.9v.21L15 22.94v-.11zm4.53-.24l.73-1h-.12l-.65.94v.11zm-3-.79h-.06l-.06.05-.06.05-.05.06-.06.06-.05.06v.71l-.52.74v-.14l2.11-3v.31l-.75 1.08zm-.7 2.19v.13l-.6.85h-.13l.68-1zm3.87-.82l.56-.79h.05l-.64.91v-.16zm-3.53-2.35l-.56.8v.23l.63-.89v-.15zm4.57 1.87zm-3.31-3l-1 1.38v.28l1.08-1.53v-.12zm-1.66 4v.14L15 25h-.13l.86-1.23zm3.6-1.45l.06.09.6-.85h-.12l-.54.77zm-3.41 2v-.11l-.58.86h.13l.45-.64zm4.57-1.82l-.19.27h-.07.07l-.56.8v-.2l.72-1h.05zM16 20.61l-.34.48v.31l.47-.68v-.1zm1.18.84h-.16l.57-.82h.08l-.62.89zm.13-.53l-.44.63h-.1l.58-.84v.06zm3 3.45h-.05l.08-.1v.12zm1.29-.23v-.12l-.09.12h.07v-.12zm-3.3 2.1l2.16-3.09-2 2.89v.29z" fill="#f0d354" fill-rule="evenodd"/><circle cx="17.66" cy="23.41" r="1.83" fill="#0070b9"/><g id="State_Outline" data-name="State Outline"><path id="polygon81" class="cls-5" d="M16.97 22.33l.01.01.01-.01.01-.01.02-.01v.01h.01l.01-.01.01-.01h.02l.02.01-.02.02v.01l-.01.01-.01.01h-.04l-.01.01-.02-.01-.01-.02v-.01z"/><path id="polygon83" class="cls-5" d="M16.93 22.35l-.03-.01-.01.01-.01.01-.01-.01h-.03v.02l.01.02h.01l-.01.01-.01-.01h-.01l-.01-.01h-.02l-.01-.01-.01.02h.01l-.02.01v.02l.01.01-.01.01h.01l.01.02v.01l.01.01.02.01.01.01h.04v-.02l-.01-.01.01-.01.01.02.02-.03.01-.02.01.01.02-.01v-.01l-.01-.01-.01.01-.02-.01-.01-.02-.01-.01v-.01l.01-.01v.03l.01.01h.04l.01-.01v-.01l-.01-.01v-.01l.01-.01h-.02z"/><path id="polygon85" class="cls-5" d="M16.92 22.51h-.01v.02l.01.02.01-.02.01-.01-.01-.01h-.01z"/><path id="polygon87" class="cls-5" d="M16.96 22.53l-.02.01.01.01v.04l.01-.02h.02l.02-.01.03-.01-.01-.02H17l-.02-.02-.01.01-.01.01z"/><path id="polygon89" class="cls-5" d="M16.76 22.46l-.01-.01h-.01l.01.01v.02h.01v-.02z"/><path id="polygon91" class="cls-5" d="M16.25 22.73l-.02.02v.01h.02v.01h.01l.02-.01v-.02l-.02-.01h-.01z"/><path id="polygon93" class="cls-5" d="M16.94 22.2v.01h.01l-.01-.01z"/><path id="polygon95" class="cls-5" d="M16.83 22.58h-.03l.01.01.01.01.01-.01v-.01z"/><path id="polygon191" class="cls-5" d="M17.7 24.02l-.01.01-.01.01v.01h.02v.01l.01-.01.01-.01-.01-.02h-.01z"/><path id="path193" class="cls-5" d="M18 24v.13h.11v.07-.12.12z"/><path id="polygon195" class="cls-5" d="M18.6 24.54v.04h.01v-.01l.01-.01v-.02h-.02z"/><path id="polygon197" class="cls-5" d="M18.66 24.56v.01l.01.01v-.02h-.01z"/><path id="polygon199" class="cls-5" d="M18.64 24.49l.01-.01v-.03l.01-.01v-.02h-.01l-.01.02v.05z"/><path id="polygon201" class="cls-5" d="M18.68 24.38h-.01l.01.02v-.02z"/><path id="polygon203" class="cls-5" d="M18.7 24.33l.01-.03-.01-.01.01-.01.01-.01v.05l-.01.01h-.01z"/><path id="polygon205" class="cls-5" d="M18.43 22.95l-.01.02v.01l.01.01v.03h.01V23l.01-.02v-.03l-.01-.01-.01.01z"/><path id="polygon207" class="cls-5" d="M18.74 23.09h-.01v.02h.03l.02.01.01-.01-.01-.01h-.02l-.02-.01z"/><path id="polygon209" class="cls-5" d="M18.7 23.73l-.01.02-.01.01.01.01v.03l-.01.01.01.01h.01l.01-.02.01-.01-.01-.02-.01-.01.01-.01-.01-.02z"/><path id="polygon211" class="cls-5" d="M18.71 23.88v.01h.02l-.02-.01z"/><path id="polygon213" class="cls-5" d="M18.74 24.14v.03h.01v-.03h-.01z"/><path id="polygon215" class="cls-5" d="M18.82 23.06l-.01.01h.02l.01-.01h-.02z"/><path id="polygon217" class="cls-5" d="M17.86 21.84h-.02l-.01.01-.02.01v.06l.01.02.01.01.02-.01.01-.01-.01-.02.02-.01v-.05l-.01-.01z"/></g><g id="Subjects_Outline" data-name="Subjects Outline"><path id="AMU" class="cls-5" d="M17.59 24.68h-.18v-.06h-.19.4v.05h-.02v.08z"/><path id="YEV" class="cls-5" d="M17.83 24.63h-.07v-.08h.07z"/><path id="PRI" class="cls-5" d="M18.09 24.6v.03l.01.04v.07l-.01.03-.01.02v.04l-.01.05-.01.03v.04l-.01.05-.01.02-.02.03-.02.03-.02.02h-.01l-.03.01h-.03v-.02l-.01-.01-.01.02v.02l-.01-.01-.01-.02v.01l-.01.03v.01l-.01.02-.01.01v.03l-.02-.01-.01-.01.01-.02.02-.02v-.05l-.02-.02-.01-.01-.01-.03-.01-.02-.02-.01v-.02l.02-.01.01-.01.01-.02.01-.01h.03l.02-.01.01-.01-.01-.03.01-.02v-.05l-.01-.02v-.04l.02.01v-.01l-.01-.02v-.01l.03-.02h.01v.01h.01l.01-.01.02.01v-.01h.02l.02-.01.01-.03-.01-.01v-.01l.03-.01.01-.01v-.04h-.01l-.01.01H18v-.02h-.02v-.02l.03-.01.01-.03h.01l.01.02.01.01h.02v.01l-.01.01.02.02.02-.01-.01.03z"/><path id="MAG" class="cls-5" d="M18.2 22.88v.3h.05-.16.06v-.34h.17z"/><g id="SAK"><path id="path297" class="cls-5" d="M18 24v.13h.11v.07-.12.12z"/><path id="polygon299" class="cls-5" d="M18.6 24.54v.04h.01v-.01l.01-.01v-.02h-.02z"/><path id="polygon301" class="cls-5" d="M18.66 24.56v.01l.01.01v-.02h-.01z"/><path id="polygon303" class="cls-5" d="M18.64 24.49l.01-.01v-.03l.01-.01v-.02h-.01l-.01.02v.05z"/><path id="polygon305" class="cls-5" d="M18.68 24.38h-.01l.01.02v-.02z"/><path id="polygon307" class="cls-5" d="M18.7 24.33l.01-.03-.01-.01.01-.01.01-.01v.05l-.01.01h-.01z"/><path id="polygon309" class="cls-5" d="M18.74 24.14v.03h.01v-.03h-.01z"/></g><g id="KAM"><path id="path312" class="cls-5" d="M18.36 23.45v-.27h-.05V23h.05v-.21h-.14v-.06H18h.08v.35z"/><path id="polygon314" class="cls-5" d="M18.43 22.95l-.01.02v.01l.01.01v.03h.01V23l.01-.02v-.03l-.01-.01-.01.01z"/><path id="polygon316" class="cls-5" d="M18.74 23.09h-.01v.02h.03l.02.01.01-.01-.01-.01h-.02l-.02-.01z"/><path id="polygon318" class="cls-5" d="M18.7 23.73l-.01.02-.01.01.01.01v.03l-.01.01.01.01h.01l.01-.02.01-.01-.01-.02-.01-.01.01-.01-.01-.02z"/><path id="polygon320" class="cls-5" d="M18.71 23.88v.01h.02l-.02-.01z"/><path id="polygon322" class="cls-5" d="M18.82 23.06l-.01.01h.02l.01-.01h-.02z"/></g><g id="CHU"><path id="path325" class="cls-5" d="M18.47 22.45v-.16h-.2v-.09h.13-.48.07v.06h.31v.06h.14z"/><path id="polygon327" class="cls-5" d="M17.86 21.84h-.02l-.01.01-.02.01v.06l.01.02.01.01.02-.01.01-.01-.01-.02.02-.01v-.05l-.01-.01z"/></g><g id="KHA"><path id="polygon355" class="cls-5" d="M17.7 24.02l-.01.01-.01.01v.01h.02v.01l.01-.01.01-.01-.01-.02h-.01z"/><path id="path357" class="cls-5" d="M17.37 24.13v-.06h.43v.26V24v.07h.2v.26h-.15v-.08h.06v-.05h-.18z"/></g><g id="SA"><path id="polygon441" class="cls-5" d="M16.97 22.33l.01.01.01-.01.01-.01.02-.01v.01h.01l.01-.01.01-.01h.02l.02.01-.02.02v.01l-.01.01-.01.01h-.04l-.01.01-.02-.01-.01-.02v-.01z"/><path id="polygon443" class="cls-5" d="M16.93 22.35l-.03-.01-.01.01-.01.01-.01-.01h-.03v.02l.01.02h.01l-.01.01-.01-.01h-.01l-.01-.01h-.02l-.01-.01-.01.02h.01l-.02.01v.02l.01.01-.01.01h.01l.01.02v.01l.01.01.02.01.01.01h.04v-.02l-.01-.01.01-.01.01.02.02-.03.01-.02.01.01.02-.01v-.01l-.01-.01-.01.01-.02-.01-.01-.02-.01-.01v-.01l.01-.01v.03l.01.01h.04l.01-.01v-.01l-.01-.01v-.01l.01-.01h-.02z"/><path id="polygon445" class="cls-5" d="M16.92 22.51h-.01v.02l.01.02.01-.02.01-.01-.01-.01h-.01z"/><path id="polygon447" class="cls-5" d="M16.96 22.53l-.02.01.01.01v.04l.01-.02h.02l.02-.01.03-.01-.01-.02H17l-.02-.02-.01.01-.01.01z"/><path id="polygon449" class="cls-5" d="M16.76 22.46l-.01-.01h-.01l.01.01v.02h.01v-.02z"/><path id="polygon451" class="cls-5" d="M16.25 22.73l-.02.02v.01h.02v.01h.01l.02-.01v-.02l-.02-.01h-.01z"/><path id="polygon453" class="cls-5" d="M16.94 22.2v.01h.01l-.01-.01z"/><path id="polygon455" class="cls-5" d="M16.83 22.58h-.03l.01.01.01.01.01-.01v-.01z"/><path id="path457" class="cls-5" d="M17.67 22.42h-.42v.05h-.35v.07h-.08v.07h-.16v.57h.11v.16h.15v.06h.42v-.06h.19v-.04h.06v-.46h-.08v-.06h-.07z"/></g></g><path d="M16.36 23.22v.2h-.14v-.59h.36a.19.19 0 01.08.07.19.19 0 010 .1.17.17 0 01-.06.14.26.26 0 01-.17.05zm0-.11h.15a.08.08 0 000-.06.1.1 0 000-.07.08.08 0 00-.06 0h-.1zm.64.2h-.2v.11h-.15l.22-.59H17l.22.59h-.15zm-.16-.11H17l-.08-.2zm.91-.06a.35.35 0 010 .15.24.24 0 01-.09.1.25.25 0 01-.13 0 .26.26 0 01-.13 0 .24.24 0 01-.09-.1.34.34 0 010-.15.35.35 0 010-.15.24.24 0 01.09-.1.26.26 0 01.14 0 .25.25 0 01.13 0 .24.24 0 01.09.1.34.34 0 010 .15zm-.15 0a.25.25 0 000-.13.09.09 0 00-.08 0q-.11 0-.11.16a.26.26 0 000 .13.09.09 0 00.09 0 .09.09 0 00.08 0 .25.25 0 000-.13zm.53.08a.09.09 0 00.1.1.09.09 0 00.08 0 .2.2 0 000-.11h-.16v-.11h.16a.19.19 0 000-.11.09.09 0 00-.07 0 .11.11 0 00-.08 0 .11.11 0 000 .08H18a.22.22 0 01.07-.16.26.26 0 01.17-.06.24.24 0 01.13 0 .23.23 0 01.09.1.36.36 0 010 .15.31.31 0 01-.07.21.23.23 0 01-.18.08h-.13a.2.2 0 01-.09-.07.22.22 0 010-.11zm.87 0a.22.22 0 010 .11.2.2 0 01-.09.07h-.13a.23.23 0 01-.18-.08.31.31 0 01-.07-.21.36.36 0 010-.15.23.23 0 01.09-.1.24.24 0 01.13 0 .26.26 0 01.17.06.22.22 0 01.08.08h-.14a.11.11 0 000-.08.11.11 0 00-.08 0 .09.09 0 00-.08 0 .26.26 0 000 .13.28.28 0 000 .14.09.09 0 00.08 0 .11.11 0 00.08 0 .1.1 0 000-.07zm-2.8.78v-.45h.16a.23.23 0 01.13 0 .12.12 0 010 .15h.05a.1.1 0 010 .06.12.12 0 010 .1.2.2 0 01-.12 0zm.11-.26h.11-.11zm0 .07v.11h.12l-.06-.06zm.69-.02a.27.27 0 010 .12.18.18 0 01-.07.08.19.19 0 01-.1 0h-.1a.18.18 0 01-.07-.08.26.26 0 010-.11.27.27 0 010-.12.18.18 0 01.07-.08.21.21 0 01.21 0 .18.18 0 01.07.08.26.26 0 010 .12zm-.11 0a.19.19 0 000-.1.07.07 0 00-.06 0q-.08 0-.09.12a.19.19 0 000 .1.07.07 0 00.07 0 .07.07 0 00.06 0 .19.19 0 000-.1zm.52.06a.16.16 0 010 .08.15.15 0 01-.06.06h-.1a.18.18 0 01-.14-.06.24.24 0 01-.05-.16.27.27 0 010-.12.17.17 0 01.07-.08.18.18 0 01.1 0 .19.19 0 01.13 0 .17.17 0 01.06.12h-.11a.08.08 0 000-.06h-.06a.06.06 0 00-.06 0 .2.2 0 000 .1.21.21 0 000 .1.07.07 0 00.06 0h.06a.08.08 0 000-.06zm.4-.21h-.14V24h-.11v-.37h-.13v-.08h.38zm.42.15a.27.27 0 010 .12.18.18 0 01-.07.08.19.19 0 01-.1 0h-.1a.18.18 0 01-.07-.08.26.26 0 010-.11.27.27 0 010-.12.18.18 0 01.07-.08.21.21 0 01.21 0 .18.18 0 01.07.08.26.26 0 010 .12zm-.11 0a.19.19 0 000-.1.07.07 0 00-.06 0q-.08 0-.09.12a.19.19 0 000 .1.07.07 0 00.07 0 .07.07 0 00.06 0 .19.19 0 000-.1zm.32.04h-.05V24h-.11v-.45h.11v.17l.09-.17h.13l-.12.21.14.24h-.13zm.51.09h-.15V24h-.12l.17-.45h.1l.17.45H19zm-.12-.08h.1v-.16z" stroke="#fff" stroke-width=".03" fill="#243789"/><path class="cls-7" d="M27.49 7.54h-1.42l12.57 12.61-7.69 7.68h1.42l7.69-7.68L27.49 7.54z"/><path class="cls-7" d="M42.39 20.15L29.82 7.54H28.4l12.57 12.61-7.68 7.68h1.41l7.69-7.68z"/><path class="cls-7" d="M25.18 7.54h-7.45L30.21 20.1h-2.22l-3.66 3.61h2.35l-4.14 4.12h7.45l7.73-7.68L25.18 7.54z"/><text transform="translate(13.39 19.26)" stroke-width=".13" font-family="RobotoCondensed-Regular,Roboto Condensed" font-size="2.99" stroke="#243789" fill="#243789">САХ<tspan x="5.06" y="0" letter-spacing=".01em">А</tspan><tspan x="6.8" y="0" letter-spacing="0">ЛИН</tspan></text><text transform="translate(22.11 30.84)" font-size="2.83" stroke="#e3010f" stroke-width=".13" font-family="RobotoCondensed-Regular,Roboto Condensed" fill="#e3010f">Э Н Е Р Г О</text></g></svg>