<?xml version="1.0" encoding="UTF-8"?>
<!DOCTYPE svg PUBLIC "-//W3C//DTD SVG 1.1//EN" "http://www.w3.org/Graphics/SVG/1.1/DTD/svg11.dtd">
<svg xmlns="http://www.w3.org/2000/svg" version="1.1" width="160px" height="160px" style="shape-rendering:geometricPrecision; text-rendering:geometricPrecision; image-rendering:optimizeQuality; fill-rule:evenodd; clip-rule:evenodd" xmlns:xlink="http://www.w3.org/1999/xlink">
<g><path style="opacity:0.995" fill="#dddfe3" d="M -0.5,-0.5 C 52.8333,-0.5 106.167,-0.5 159.5,-0.5C 159.5,52.8333 159.5,106.167 159.5,159.5C 106.167,159.5 52.8333,159.5 -0.5,159.5C -0.5,106.167 -0.5,52.8333 -0.5,-0.5 Z"/></g>
<g><path style="opacity:1" fill="#dadbdc" d="M 71.5,46.5 C 83.844,47.1195 96.1773,48.7862 108.5,51.5C 114.702,53.2678 120.369,56.1012 125.5,60C 127.79,61.7772 129.457,63.9438 130.5,66.5C 134.5,74.5 134.5,82.5 130.5,90.5C 124.161,99.3491 115.494,104.682 104.5,106.5C 84.039,111.438 64.039,110.104 44.5,102.5C 28.1701,96.3864 22.3368,85.0531 27,68.5C 31.8841,61.8072 38.0508,56.6405 45.5,53C 53.9626,49.8843 62.6293,47.7177 71.5,46.5 Z"/></g>
<g><path style="opacity:1" fill="#cabba4" d="M 71.5,46.5 C 84.3206,45.6427 96.6539,47.3094 108.5,51.5C 96.1773,48.7862 83.844,47.1195 71.5,46.5 Z"/></g>
<g><path style="opacity:1" fill="#0d58a1" d="M 117.5,59.5 C 92.5,60.8333 67.5,60.8333 42.5,59.5C 67.4041,46.3183 92.4041,46.3183 117.5,59.5 Z"/></g>
<g><path style="opacity:1" fill="#afc1d5" d="M 42.5,59.5 C 67.5,60.8333 92.5,60.8333 117.5,59.5C 118.043,59.56 118.376,59.8933 118.5,60.5C 92.8333,61.8333 67.1667,61.8333 41.5,60.5C 41.6236,59.8933 41.9569,59.56 42.5,59.5 Z"/></g>
<g><path style="opacity:1" fill="#b6986a" d="M 47.5,85.5 C 51.6344,86.4849 55.9677,86.8182 60.5,86.5C 60.5,88.5 60.5,90.5 60.5,92.5C 52.16,92.6664 43.8267,92.4997 35.5,92C 28.5336,82.3308 28.867,72.9975 36.5,64C 44.8267,63.5003 53.16,63.3336 61.5,63.5C 61.5,65.8333 61.5,68.1667 61.5,70.5C 56.8215,70.3342 52.1548,70.5008 47.5,71C 43.5803,75.8724 43.5803,80.7058 47.5,85.5 Z"/></g>
<g><path style="opacity:1" fill="#b59667" d="M 73.5,63.5 C 73.5,67.1667 73.5,70.8333 73.5,74.5C 77.8333,74.5 82.1667,74.5 86.5,74.5C 86.5,70.8333 86.5,67.1667 86.5,63.5C 89.5,63.5 92.5,63.5 95.5,63.5C 95.5,73.1667 95.5,82.8333 95.5,92.5C 92.5,92.5 89.5,92.5 86.5,92.5C 86.5,88.5 86.5,84.5 86.5,80.5C 82.1667,80.5 77.8333,80.5 73.5,80.5C 73.5,84.5 73.5,88.5 73.5,92.5C 70.5,92.5 67.5,92.5 64.5,92.5C 64.5,82.8333 64.5,73.1667 64.5,63.5C 67.5,63.5 70.5,63.5 73.5,63.5 Z"/></g>
<g><path style="opacity:1" fill="#b7996b" d="M 98.5,63.5 C 106.507,63.3336 114.507,63.5003 122.5,64C 124.351,65.6837 126.018,67.5171 127.5,69.5C 122.88,70.4933 118.214,70.8266 113.5,70.5C 113.5,77.8333 113.5,85.1667 113.5,92.5C 108.5,92.5 103.5,92.5 98.5,92.5C 98.5,82.8333 98.5,73.1667 98.5,63.5 Z"/></g>
<g><path style="opacity:1" fill="#cfc4b3" d="M 73.5,63.5 C 74.4794,66.6248 74.8128,69.9581 74.5,73.5C 78.1667,73.5 81.8333,73.5 85.5,73.5C 85.1872,69.9581 85.5206,66.6248 86.5,63.5C 86.5,67.1667 86.5,70.8333 86.5,74.5C 82.1667,74.5 77.8333,74.5 73.5,74.5C 73.5,70.8333 73.5,67.1667 73.5,63.5 Z"/></g>
<g><path style="opacity:1" fill="#d1c8b8" d="M 130.5,66.5 C 135.122,71.215 136.622,76.8816 135,83.5C 133.974,86.2387 132.474,88.572 130.5,90.5C 134.5,82.5 134.5,74.5 130.5,66.5 Z"/></g>
<g><path style="opacity:1" fill="#cbbea8" d="M 47.5,85.5 C 52.1667,85.5 56.8333,85.5 61.5,85.5C 61.8016,88.0593 61.4682,90.3926 60.5,92.5C 60.5,90.5 60.5,88.5 60.5,86.5C 55.9677,86.8182 51.6344,86.4849 47.5,85.5 Z"/></g>
<g><path style="opacity:1" fill="#cec3b1" d="M 86.5,92.5 C 85.5184,89.0381 85.185,85.3714 85.5,81.5C 81.8333,81.5 78.1667,81.5 74.5,81.5C 74.815,85.3714 74.4816,89.0381 73.5,92.5C 73.5,88.5 73.5,84.5 73.5,80.5C 77.8333,80.5 82.1667,80.5 86.5,80.5C 86.5,84.5 86.5,88.5 86.5,92.5 Z"/></g>
<g><path style="opacity:1" fill="#b6986a" d="M 40.5,96.5 C 66.6635,95.3365 92.9968,95.1698 119.5,96C 93.2517,111.038 66.9184,111.205 40.5,96.5 Z"/></g>
<g><path style="opacity:1" fill="#cabba4" d="M 44.5,102.5 C 64.039,110.104 84.039,111.438 104.5,106.5C 100.163,108.401 95.4966,109.568 90.5,110C 76.8877,111.384 63.5544,110.051 50.5,106C 48.1209,105.284 46.1209,104.117 44.5,102.5 Z"/></g>
</svg>
