<?xml version="1.0" encoding="UTF-8"?>
<!DOCTYPE svg PUBLIC "-//W3C//DTD SVG 1.1//EN" "http://www.w3.org/Graphics/SVG/1.1/DTD/svg11.dtd">
<svg xmlns="http://www.w3.org/2000/svg" version="1.1" width="160px" height="160px" style="shape-rendering:geometricPrecision; text-rendering:geometricPrecision; image-rendering:optimizeQuality; fill-rule:evenodd; clip-rule:evenodd" xmlns:xlink="http://www.w3.org/1999/xlink">
<g><path style="opacity:1" fill="#000000" d="M -0.5,-0.5 C 52.8333,-0.5 106.167,-0.5 159.5,-0.5C 159.5,52.8333 159.5,106.167 159.5,159.5C 106.167,159.5 52.8333,159.5 -0.5,159.5C -0.5,106.167 -0.5,52.8333 -0.5,-0.5 Z"/></g>
<g><path style="opacity:1" fill="#050300" d="M 69.5,49.5 C 65.306,51.1831 61.4727,53.5164 58,56.5C 57.2086,55.255 56.7086,53.9217 56.5,52.5C 56.3259,50.139 55.9926,47.8056 55.5,45.5C 55.5,43.1667 55.5,40.8333 55.5,38.5C 56.1809,34.9885 58.3475,32.9885 62,32.5C 68.9998,34.3187 74.4998,38.3187 78.5,44.5C 75.2856,45.9368 72.2856,47.6035 69.5,49.5 Z"/></g>
<g><path style="opacity:1" fill="#d89a0a" d="M 85.5,43.5 C 88.4701,43.7458 89.8034,45.4124 89.5,48.5C 88.325,48.281 87.325,48.6143 86.5,49.5C 88.7788,53.0608 90.7788,56.7274 92.5,60.5C 92.7373,61.791 92.404,62.791 91.5,63.5C 88.7329,59.4828 86.0663,55.3161 83.5,51C 81.8333,50.3333 80.1667,50.3333 78.5,51C 76.5932,52.122 74.5932,52.9553 72.5,53.5C 72.4456,51.368 71.4456,50.0347 69.5,49.5C 72.2856,47.6035 75.2856,45.9368 78.5,44.5C 74.4998,38.3187 68.9998,34.3187 62,32.5C 58.3475,32.9885 56.1809,34.9885 55.5,38.5C 55.1575,36.7748 54.1575,36.2748 52.5,37C 48.5613,38.7911 45.228,41.2911 42.5,44.5C 42.0895,25.0657 50.4229,19.899 67.5,29C 72.8333,33 77.5,37.6667 81.5,43C 82.7932,43.49 84.1266,43.6567 85.5,43.5 Z"/></g>
<g><path style="opacity:1" fill="#d57810" d="M 85.5,43.5 C 90.6405,42.5119 95.9738,42.1786 101.5,42.5C 102.417,45.0048 102.417,47.3382 101.5,49.5C 97.5662,48.6403 93.5662,48.307 89.5,48.5C 89.8034,45.4124 88.4701,43.7458 85.5,43.5 Z"/></g>
<g><path style="opacity:1" fill="#ebc805" d="M 55.5,45.5 C 55.9926,47.8056 56.3259,50.139 56.5,52.5C 55.7321,51.7375 55.2321,50.7375 55,49.5C 48.6503,56.8096 49.9836,62.4763 59,66.5C 59.3988,66.2716 59.5654,65.9382 59.5,65.5C 60.9313,66.7804 61.5979,68.4471 61.5,70.5C 53.0175,72.4559 47.5175,68.7893 45,59.5C 44.4173,52.3312 47.2506,46.9979 53.5,43.5C 54.1818,44.2427 54.8485,44.9094 55.5,45.5 Z"/></g>
<g><path style="opacity:1" fill="#c84b16" d="M 109.5,44.5 C 113.724,46.0572 117.057,48.7239 119.5,52.5C 120.077,79.0546 108.744,98.5546 85.5,111C 76.5842,114.95 67.2509,116.783 57.5,116.5C 50.3393,114.921 45.0059,110.921 41.5,104.5C 72.9769,113.846 95.4769,103.513 109,73.5C 111.99,63.8473 112.156,54.1806 109.5,44.5 Z"/></g>
<g><path style="opacity:1" fill="#070300" d="M 89.5,48.5 C 93.5662,48.307 97.5662,48.6403 101.5,49.5C 108.046,53.3479 110.212,59.0146 108,66.5C 106.681,70.4723 104.847,74.1389 102.5,77.5C 99.4323,71.7011 96.099,66.0344 92.5,60.5C 90.7788,56.7274 88.7788,53.0608 86.5,49.5C 87.325,48.6143 88.325,48.281 89.5,48.5 Z"/></g>
<g><path style="opacity:1" fill="#030100" d="M 91.5,63.5 C 93.6544,68.4785 95.8211,73.4785 98,78.5C 98.6667,79.8333 98.6667,81.1667 98,82.5C 92.6744,88.1598 86.5078,92.6598 79.5,96C 77.1599,96.7484 75.1599,96.2484 73.5,94.5C 72.2262,91.2402 70.5595,88.2402 68.5,85.5C 67.6743,82.5152 66.341,79.8485 64.5,77.5C 63.7362,74.9823 62.7362,72.649 61.5,70.5C 61.5979,68.4471 60.9313,66.7804 59.5,65.5C 59.393,63.0968 60.393,61.2635 62.5,60C 66.0085,57.9703 69.3419,55.8036 72.5,53.5C 74.5932,52.9553 76.5932,52.122 78.5,51C 80.1667,50.3333 81.8333,50.3333 83.5,51C 86.0663,55.3161 88.7329,59.4828 91.5,63.5 Z"/></g>
<g><path style="opacity:1" fill="#b94315" d="M 119.5,52.5 C 121.588,54.3356 122.921,56.6689 123.5,59.5C 122.882,78.0687 115.382,93.0687 101,104.5C 100.517,105.448 100.351,106.448 100.5,107.5C 97.5279,109.322 94.5279,111.156 91.5,113C 92.0442,113.717 92.7109,114.217 93.5,114.5C 89.2398,119.825 83.5731,122.492 76.5,122.5C 75.1634,121.685 74.1634,120.518 73.5,119C 67.9019,118.933 62.5686,118.099 57.5,116.5C 67.2509,116.783 76.5842,114.95 85.5,111C 108.744,98.5546 120.077,79.0546 119.5,52.5 Z"/></g>
<g><path style="opacity:1" fill="#ecd902" d="M 56.5,52.5 C 56.7086,53.9217 57.2086,55.255 58,56.5C 61.4727,53.5164 65.306,51.1831 69.5,49.5C 71.4456,50.0347 72.4456,51.368 72.5,53.5C 69.3419,55.8036 66.0085,57.9703 62.5,60C 60.393,61.2635 59.393,63.0968 59.5,65.5C 59.5654,65.9382 59.3988,66.2716 59,66.5C 49.9836,62.4763 48.6503,56.8096 55,49.5C 55.2321,50.7375 55.7321,51.7375 56.5,52.5 Z"/></g>
<g><path style="opacity:1" fill="#e5b508" d="M 55.5,38.5 C 55.5,40.8333 55.5,43.1667 55.5,45.5C 54.8485,44.9094 54.1818,44.2427 53.5,43.5C 47.2506,46.9979 44.4173,52.3312 45,59.5C 47.5175,68.7893 53.0175,72.4559 61.5,70.5C 62.7362,72.649 63.7362,74.9823 64.5,77.5C 63.8515,79.5864 62.3515,80.5864 60,80.5C 56.499,79.7663 52.999,79.0997 49.5,78.5C 49.5,78.1667 49.5,77.8333 49.5,77.5C 47.3384,76.8724 45.6718,75.539 44.5,73.5C 46.7322,69.569 46.5655,65.569 44,61.5C 42.971,55.8769 42.471,50.2102 42.5,44.5C 45.228,41.2911 48.5613,38.7911 52.5,37C 54.1575,36.2748 55.1575,36.7748 55.5,38.5 Z"/></g>
<g><path style="opacity:1" fill="#cd5615" d="M 101.5,42.5 C 104.327,42.5838 106.994,43.2504 109.5,44.5C 112.156,54.1806 111.99,63.8473 109,73.5C 95.4769,103.513 72.9769,113.846 41.5,104.5C 40.8902,103.609 40.5569,102.609 40.5,101.5C 64.0019,109.05 83.5019,103.383 99,84.5C 99.4955,82.5273 99.6621,80.5273 99.5,78.5C 100.791,78.7373 101.791,78.404 102.5,77.5C 104.847,74.1389 106.681,70.4723 108,66.5C 110.212,59.0146 108.046,53.3479 101.5,49.5C 102.417,47.3382 102.417,45.0048 101.5,42.5 Z"/></g>
<g><path style="opacity:1" fill="#120a01" d="M 49.5,77.5 C 49.5,77.8333 49.5,78.1667 49.5,78.5C 50.5587,81.6179 51.8921,84.6179 53.5,87.5C 54.4097,90.9922 56.0764,93.9922 58.5,96.5C 58.5394,97.5832 58.8728,98.5832 59.5,99.5C 52.0532,99.7512 47.3866,96.0845 45.5,88.5C 45.3012,84.0794 46.6345,80.4128 49.5,77.5 Z"/></g>
<g><path style="opacity:1" fill="#da8f0d" d="M 44.5,73.5 C 45.6718,75.539 47.3384,76.8724 49.5,77.5C 46.6345,80.4128 45.3012,84.0794 45.5,88.5C 41.6426,88.3103 39.976,86.3103 40.5,82.5C 41.0421,79.0878 42.3754,76.0878 44.5,73.5 Z"/></g>
<g><path style="opacity:1" fill="#dd960c" d="M 64.5,77.5 C 66.341,79.8485 67.6743,82.5152 68.5,85.5C 67.7703,87.045 66.437,87.8784 64.5,88C 60.7789,88.6781 57.1122,88.5114 53.5,87.5C 51.8921,84.6179 50.5587,81.6179 49.5,78.5C 52.999,79.0997 56.499,79.7663 60,80.5C 62.3515,80.5864 63.8515,79.5864 64.5,77.5 Z"/></g>
<g><path style="opacity:1" fill="#cd6612" d="M 92.5,60.5 C 96.099,66.0344 99.4323,71.7011 102.5,77.5C 101.791,78.404 100.791,78.7373 99.5,78.5C 99.6621,80.5273 99.4955,82.5273 99,84.5C 83.5019,103.383 64.0019,109.05 40.5,101.5C 37.8485,95.0789 37.8485,88.7456 40.5,82.5C 39.976,86.3103 41.6426,88.3103 45.5,88.5C 47.3866,96.0845 52.0532,99.7512 59.5,99.5C 58.8728,98.5832 58.5394,97.5832 58.5,96.5C 63.6133,96.5693 68.6133,95.9026 73.5,94.5C 75.1599,96.2484 77.1599,96.7484 79.5,96C 86.5078,92.6598 92.6744,88.1598 98,82.5C 98.6667,81.1667 98.6667,79.8333 98,78.5C 95.8211,73.4785 93.6544,68.4785 91.5,63.5C 92.404,62.791 92.7373,61.791 92.5,60.5 Z"/></g>
<g><path style="opacity:1" fill="#d47c0f" d="M 68.5,85.5 C 70.5595,88.2402 72.2262,91.2402 73.5,94.5C 68.6133,95.9026 63.6133,96.5693 58.5,96.5C 56.0764,93.9922 54.4097,90.9922 53.5,87.5C 57.1122,88.5114 60.7789,88.6781 64.5,88C 66.437,87.8784 67.7703,87.045 68.5,85.5 Z"/></g>
<g><path style="opacity:1" fill="#0c0300" d="M 93.5,114.5 C 92.7109,114.217 92.0442,113.717 91.5,113C 94.5279,111.156 97.5279,109.322 100.5,107.5C 101.458,107.047 102.292,106.381 103,105.5C 104.421,113.582 101.255,116.582 93.5,114.5 Z"/></g>
<g><path style="opacity:1" fill="#a63714" d="M 123.5,59.5 C 126.601,75.6864 121.767,89.353 109,100.5C 109.55,107.447 109.55,114.447 109,121.5C 107.59,130.595 102.423,134.762 93.5,134C 86.7631,131.64 81.0964,127.807 76.5,122.5C 83.5731,122.492 89.2398,119.825 93.5,114.5C 101.255,116.582 104.421,113.582 103,105.5C 102.292,106.381 101.458,107.047 100.5,107.5C 100.351,106.448 100.517,105.448 101,104.5C 115.382,93.0687 122.882,78.0687 123.5,59.5 Z"/></g>
</svg>
