<svg data-name="Слой 1" xmlns="http://www.w3.org/2000/svg" viewBox="0 0 48 48"><path fill="#f2f3f4" d="M0 0h48v48H0z"/><path d="M24 9.74A14.2 14.2 0 0018.22 11l1.63 3.45-8.34-2.95L14 13.89 34.11 34A14.26 14.26 0 0024 9.74z" fill="#003d6c"/><path d="M28.19 33.49l8.24 3L34.11 34 14 13.89A14.25 14.25 0 0029.85 37z" fill="#e9841a"/><path d="M14.57 27.2h-1.35l1.14-5.46h-1.92l.23-1.1h5.16l-.23 1.1h-1.9zm5.71-3.81h2.06a1.72 1.72 0 00-.42-1.29 1.37 1.37 0 00-1-.41A1.45 1.45 0 0020 22a1.43 1.43 0 00-.49.74l-1.3-.28a2.24 2.24 0 01.94-1.36 3 3 0 011.85-.56 2.73 2.73 0 012 .73 2.84 2.84 0 01.75 2.13 4.2 4.2 0 01-1 2.76 3.21 3.21 0 01-2.62 1.16 2.23 2.23 0 01-2.4-2l1.27-.43a1.25 1.25 0 001.28 1.3 1.74 1.74 0 001.09-.42 2.56 2.56 0 00.8-1.29h-2.08zm8.47 1.45l1.36.2a3.5 3.5 0 01-1.19 1.69 3.07 3.07 0 01-1.86.58 2.44 2.44 0 01-1.88-.72 3 3 0 01-.68-2.1 4.59 4.59 0 01.45-2 3.29 3.29 0 013-1.91 2.53 2.53 0 011.72.57 2.34 2.34 0 01.77 1.55l-1.29.13a1.37 1.37 0 00-.41-.83 1.23 1.23 0 00-.82-.26 1.79 1.79 0 00-1 .34 2.3 2.3 0 00-.78 1.06 3.84 3.84 0 00-.29 1.44 1.78 1.78 0 00.38 1.21 1.2 1.2 0 00.94.43 1.53 1.53 0 001-.34 2 2 0 00.58-1.04zM32 20.65h1.34l-.59 2.78a1 1 0 00.59-.16 3.72 3.72 0 00.65-.92 9 9 0 01.72-1.12 1.54 1.54 0 01.58-.44 2.6 2.6 0 011-.14h.36l-.29 1h-.22a.73.73 0 00-.38.08 1.07 1.07 0 00-.3.39 7.09 7.09 0 01-.85 1.32 1.42 1.42 0 01-.69.43 1.43 1.43 0 01.89 1.13v.1l.59 2.06H34l-.55-2-.16-.43a.76.76 0 00-.75-.39L32 27.2h-1.36z" fill="#fff"/></svg>