<?xml version="1.0" encoding="UTF-8"?>
<!DOCTYPE svg PUBLIC "-//W3C//DTD SVG 1.1//EN" "http://www.w3.org/Graphics/SVG/1.1/DTD/svg11.dtd">
<svg xmlns="http://www.w3.org/2000/svg" version="1.1" width="160px" height="160px" style="shape-rendering:geometricPrecision; text-rendering:geometricPrecision; image-rendering:optimizeQuality; fill-rule:evenodd; clip-rule:evenodd" xmlns:xlink="http://www.w3.org/1999/xlink">
<g><path style="opacity:1" fill="#ffdd2e" d="M -0.5,-0.5 C 52.8333,-0.5 106.167,-0.5 159.5,-0.5C 159.5,52.8333 159.5,106.167 159.5,159.5C 106.167,159.5 52.8333,159.5 -0.5,159.5C -0.5,106.167 -0.5,52.8333 -0.5,-0.5 Z"/></g>
<g><path style="opacity:1" fill="#f1eeea" d="M 80.5,15.5 C 82.1477,16.8098 83.8144,18.1431 85.5,19.5C 86.8333,18.8333 88.1667,18.1667 89.5,17.5C 90.1348,19.7827 91.4682,21.4493 93.5,22.5C 95.4731,21.6689 97.4731,21.5022 99.5,22C 97.4552,24.5864 95.7885,27.4198 94.5,30.5C 99.1432,30.0314 103.81,30.5314 108.5,32C 112.026,34.0261 114.693,36.8595 116.5,40.5C 118.267,37.9632 119.767,35.2966 121,32.5C 125.664,36.8263 127.83,42.1596 127.5,48.5C 132.925,48.3784 137.592,50.2117 141.5,54C 143.833,54.3333 146.167,54.6667 148.5,55C 146.833,60.6667 143.167,64.3333 137.5,66C 141.131,68.2435 145.131,69.0768 149.5,68.5C 148.992,75.8611 145.325,80.8611 138.5,83.5C 140.528,87.5278 143.528,90.5278 147.5,92.5C 144.644,98.6783 139.811,101.678 133,101.5C 130.72,106.318 131.22,110.818 134.5,115C 130.731,117.515 126.731,118.015 122.5,116.5C 117.82,122.77 111.487,125.603 103.5,125C 105.377,126.185 107.377,127.185 109.5,128C 105.66,130.421 101.66,132.588 97.5,134.5C 96.7379,135.628 96.0712,136.795 95.5,138C 84.9755,141.639 74.6422,141.305 64.5,137C 64.9574,136.586 65.2907,136.086 65.5,135.5C 60.6834,133.259 56.0167,130.759 51.5,128C 53.8333,127 56.1667,126 58.5,125C 50.3711,125.851 43.8711,123.018 39,116.5C 35.4914,117.766 31.9914,117.599 28.5,116C 29.5347,111.347 29.5347,106.514 28.5,101.5C 25.8929,100.682 23.2263,100.182 20.5,100C 17.4797,97.9768 15.1464,95.3102 13.5,92C 17.9627,90.9416 20.9627,88.2749 22.5,84C 16.5478,80.7093 12.8811,75.7093 11.5,69C 14.5,68.6667 17.5,68.3333 20.5,68C 22.0441,67.7104 23.3774,67.0437 24.5,66C 18.4369,65.1054 14.7702,61.6054 13.5,55.5C 15.7662,54.6858 18.0995,54.1858 20.5,54C 22.8333,52.3333 25.1667,50.6667 27.5,49C 29.8098,48.5034 32.1432,48.3367 34.5,48.5C 33.623,41.9219 35.7896,36.5885 41,32.5C 42.2328,35.4171 43.7328,38.0837 45.5,40.5C 50.0406,31.0666 57.374,27.8999 67.5,31C 66.0648,28.0568 64.3981,25.2234 62.5,22.5C 64.7808,21.8153 67.1141,21.6487 69.5,22C 70.376,20.414 71.376,18.914 72.5,17.5C 75.9481,20.3551 78.6148,19.6885 80.5,15.5 Z"/></g>
<g><path style="opacity:1" fill="#382b1d" d="M 91.5,29.5 C 91.6309,30.3764 91.2975,31.0431 90.5,31.5C 83.8333,27.5 77.1667,27.5 70.5,31.5C 69.2319,29.6957 68.5652,27.6957 68.5,25.5C 70.9165,25.0391 72.7498,23.7058 74,21.5C 76.9309,23.08 79.2642,22.4134 81,19.5C 82.9346,22.3676 85.4346,23.2009 88.5,22C 89.3758,24.3757 91.0425,25.8757 93.5,26.5C 93.0576,27.7387 92.3909,28.7387 91.5,29.5 Z"/></g>
<g><path style="opacity:1" fill="#eeecea" d="M 91.5,29.5 C 84.8056,26.94 78.1389,26.94 71.5,29.5C 71.1667,29 70.8333,28.5 70.5,28C 71.6351,24.4736 73.8018,23.3069 77,24.5C 78.605,23.8993 79.9384,22.8993 81,21.5C 82.588,24.3087 84.7546,24.9753 87.5,23.5C 89.503,25.1331 90.8363,27.1331 91.5,29.5 Z"/></g>
<g><path style="opacity:1" fill="#382b1d" d="M 110.5,121.5 C 108.265,121.795 106.265,121.461 104.5,120.5C 105.687,115.05 107.354,109.716 109.5,104.5C 107.377,102.255 106.377,99.5879 106.5,96.5C 111.352,96.4951 115.352,94.6618 118.5,91C 115.5,90.6667 112.5,90.3333 109.5,90C 108.09,89.6322 107.09,88.7989 106.5,87.5C 114.396,80.9639 115.563,73.2972 110,64.5C 106.419,60.2477 102.252,56.7477 97.5,54C 91.728,48.9101 92.5613,45.0768 100,42.5C 100.93,39.15 100.097,36.3167 97.5,34C 106.819,31.8615 112.153,35.3615 113.5,44.5C 116.97,43.7124 119.637,41.7124 121.5,38.5C 125.71,41.7132 126.543,45.7132 124,50.5C 122.786,52.0488 121.286,53.2155 119.5,54C 120.833,54.6667 122.167,55.3333 123.5,56C 127.887,60.3874 132.221,64.7208 136.5,69C 139.648,70.6047 142.981,71.6047 146.5,72C 144.835,77.5068 141.168,80.0068 135.5,79.5C 135.865,82.6249 136.698,85.6249 138,88.5C 140.035,90.2404 141.869,92.0738 143.5,94C 142.48,96.0257 140.813,97.3591 138.5,98C 135.869,98.1067 133.369,98.2734 131,98.5C 129.244,103.797 129.077,109.13 130.5,114.5C 127.421,114.74 124.421,114.407 121.5,113.5C 119.712,115.791 117.712,117.957 115.5,120C 113.975,121.009 112.308,121.509 110.5,121.5 Z"/></g>
<g><path style="opacity:1" fill="#f4f3f2" d="M 100.5,35.5 C 107.796,34.4501 111.463,37.7834 111.5,45.5C 116.28,46.3591 119.78,44.6925 122,40.5C 123.422,43.0301 123.755,45.6967 123,48.5C 121.265,50.6112 119.432,52.6112 117.5,54.5C 123.931,58.0966 129.264,62.93 133.5,69C 136.438,71.2574 139.771,72.424 143.5,72.5C 142.443,77.5307 139.443,79.1974 134.5,77.5C 133.397,84.3354 135.731,89.8354 141.5,94C 138.003,97.14 134.336,97.3066 130.5,94.5C 128.279,100.283 127.279,106.283 127.5,112.5C 124.348,113.041 121.848,112.041 120,109.5C 118.666,117.356 114.166,120.689 106.5,119.5C 106.43,113.194 108.764,108.028 113.5,104C 109.717,103.391 108.05,101.224 108.5,97.5C 114.696,97.319 119.03,94.319 121.5,88.5C 121.167,88.1667 120.833,87.8333 120.5,87.5C 116.654,90.0235 112.987,90.0235 109.5,87.5C 117.482,78.4684 117.316,69.4684 109,60.5C 104.627,56.8231 100.293,53.1565 96,49.5C 95.3333,48.5 95.3333,47.5 96,46.5C 98.172,45.4147 100.172,44.0814 102,42.5C 102.826,39.7884 102.326,37.4551 100.5,35.5 Z"/></g>
<g><path style="opacity:1" fill="#4d4132" d="M 107.5,52.5 C 106.244,52.5386 105.244,52.0386 104.5,51C 107.5,50.3333 110.5,50.3333 113.5,51C 111.292,51.1909 109.292,51.6909 107.5,52.5 Z"/></g>
<g><path style="opacity:1" fill="#413528" d="M 128.5,50.5 C 132.286,50.3932 135.286,51.8932 137.5,55C 139.804,55.8952 142.138,56.7285 144.5,57.5C 142.239,62.1077 138.572,63.6077 133.5,62C 131.308,58.3078 128.308,55.4745 124.5,53.5C 125.901,52.4793 127.235,51.4793 128.5,50.5 Z"/></g>
<g><path style="opacity:1" fill="#f2f0ef" d="M 128.5,52.5 C 129.873,52.3433 131.207,52.51 132.5,53C 135.228,55.3922 138.228,57.3922 141.5,59C 140.003,61.207 138.003,61.8736 135.5,61C 132.553,58.5644 130.22,55.7311 128.5,52.5 Z"/></g>
<g><path style="opacity:1" fill="#35281a" d="M 29.5,50.5 C 31.6547,50.372 33.6547,50.872 35.5,52C 36.4506,52.7175 36.6172,53.5509 36,54.5C 32.8699,56.628 30.0366,59.128 27.5,62C 22.6189,63.6805 19.2856,62.1805 17.5,57.5C 22.4742,56.6848 26.4742,54.3515 29.5,50.5 Z"/></g>
<g><path style="opacity:1" fill="#e9e7e5" d="M 29.5,52.5 C 30.9778,52.238 32.3112,52.5713 33.5,53.5C 31.3501,56.1506 29.0168,58.6506 26.5,61C 23.788,61.7381 21.4547,61.0714 19.5,59C 23.4109,57.5558 26.7442,55.3891 29.5,52.5 Z"/></g>
<g><path style="opacity:1" fill="#322517" d="M 56.5,65.5 C 61.544,65.8275 66.544,65.4941 71.5,64.5C 71.3764,63.8933 71.0431,63.56 70.5,63.5C 67.3983,58.6445 63.8983,58.3111 60,62.5C 59.2888,60.6332 59.7888,59.1332 61.5,58C 64.6667,56.1667 67.8333,54.3333 71,52.5C 70.7749,46.8203 70.4415,41.1536 70,35.5C 76.5875,30.5588 83.4208,30.2255 90.5,34.5C 91.4981,39.8709 91.1648,45.2042 89.5,50.5C 94.0189,53.9292 98.3522,57.5959 102.5,61.5C 101.426,62.0798 100.426,61.5798 99.5,60C 95.4221,58.8717 92.4221,60.205 90.5,64C 95.5329,64.171 100.533,64.671 105.5,65.5C 104.902,66.7946 104.402,68.1279 104,69.5C 103.952,84.5676 103.285,99.5676 102,114.5C 101.167,116.667 99.6667,118.167 97.5,119C 93.251,120.126 88.9177,120.792 84.5,121C 83.0692,121.465 81.9025,122.299 81,123.5C 80.0975,122.299 78.9308,121.465 77.5,121C 72.2402,121.072 67.2402,120.072 62.5,118C 60.9512,116.786 59.7845,115.286 59,113.5C 58.6667,99.1667 58.3333,84.8333 58,70.5C 57.3923,68.8455 56.8923,67.1789 56.5,65.5 Z"/></g>
<g><path style="opacity:1" fill="#f3f2f1" d="M 72.5,53.5 C 75.2467,54.956 78.08,56.2893 81,57.5C 83.7224,56.5559 86.2224,55.2225 88.5,53.5C 90.3885,54.604 92.0552,55.9373 93.5,57.5C 90.6454,60.5202 87.9787,63.6868 85.5,67C 82.9699,68.4217 80.3033,68.755 77.5,68C 74.1667,64.3333 70.8333,60.6667 67.5,57C 69.3464,55.9702 71.0131,54.8036 72.5,53.5 Z"/></g>
<g><path style="opacity:1" fill="#61574a" d="M 77.5,59.5 C 79.924,59.1924 82.2573,59.5258 84.5,60.5C 82.8955,62.1789 82.2289,64.1789 82.5,66.5C 81.5,66.5 80.5,66.5 79.5,66.5C 79.5321,63.9242 78.8654,61.5909 77.5,59.5 Z"/></g>
<g><path style="opacity:1" fill="#edebe9" d="M 86.5,39.5 C 87.5,39.5 88.5,39.5 89.5,39.5C 89.1417,43.5092 88.6417,47.5092 88,51.5C 86.2467,52.627 84.4134,53.627 82.5,54.5C 81.1667,50.1667 81.1667,45.8333 82.5,41.5C 84.0255,41.0057 85.3588,40.339 86.5,39.5 Z"/></g>
<g><path style="opacity:1" fill="#392d1e" d="M 83.5,44.5 C 86.7973,44.3287 87.1306,44.9954 84.5,46.5C 83.7025,46.0431 83.3691,45.3764 83.5,44.5 Z"/></g>
<g><path style="opacity:1" fill="#ebe9e7" d="M 72.5,39.5 C 75.1123,40.3705 77.779,41.0372 80.5,41.5C 80.5,45.8333 80.5,50.1667 80.5,54.5C 78.0372,54.2189 75.8705,53.2189 74,51.5C 73.3583,47.5092 72.8583,43.5092 72.5,39.5 Z"/></g>
<g><path style="opacity:1" fill="#514536" d="M 75.5,45.5 C 76.209,44.596 77.209,44.2627 78.5,44.5C 78.6495,45.552 78.4828,46.552 78,47.5C 77.2917,46.6195 76.4584,45.9528 75.5,45.5 Z"/></g>
<g><path style="opacity:1" fill="#f1f0ee" d="M 75.5,33.5 C 78.8499,33.335 82.1832,33.5017 85.5,34C 87.2861,34.1962 88.6195,35.0295 89.5,36.5C 86.7358,37.9652 83.9025,39.2986 81,40.5C 77.8338,39.8331 75.0005,38.4998 72.5,36.5C 73.3398,35.265 74.3398,34.265 75.5,33.5 Z"/></g>
<g><path style="opacity:1" fill="#736a5e" d="M 70.5,63.5 C 71.0431,63.56 71.3764,63.8933 71.5,64.5C 66.544,65.4941 61.544,65.8275 56.5,65.5C 61.1667,64.8333 65.8333,64.1667 70.5,63.5 Z"/></g>
<g><path style="opacity:1" fill="#f4dd3a" d="M 78.5,73.5 C 79.7971,75.9157 81.4637,78.0823 83.5,80C 82.8333,80.6667 82.1667,81.3333 81.5,82C 78.1667,82.6667 74.8333,82.6667 71.5,82C 72.1667,81.6667 72.8333,81.3333 73.5,81C 72.4844,80.4806 71.8178,79.6473 71.5,78.5C 72.9816,75.0671 72.815,71.7338 71,68.5C 67.8267,71.4225 66.66,75.0892 67.5,79.5C 66.448,79.3505 65.448,79.5172 64.5,80C 64.9192,83.2752 66.2526,86.1085 68.5,88.5C 73.9091,88.9303 79.2424,88.9303 84.5,88.5C 86.4258,87.7577 88.2591,86.7577 90,85.5C 90.346,87.2182 90.846,88.8849 91.5,90.5C 81.1881,91.4986 70.8548,91.8319 60.5,91.5C 60.8004,83.7767 60.4671,76.1101 59.5,68.5C 64.467,67.3377 69.467,67.1711 74.5,68C 76.4682,69.4615 77.8016,71.2948 78.5,73.5 Z"/></g>
<g><path style="opacity:1" fill="#f5f4f3" d="M 98.5,82.5 C 100.666,84.9979 101.666,87.9979 101.5,91.5C 98.8127,91.6641 96.146,91.4974 93.5,91C 92.4274,86.8078 90.7607,82.9745 88.5,79.5C 87.1927,75.3663 86.1927,75.033 85.5,78.5C 82.9716,77.1152 80.6383,75.4485 78.5,73.5C 78.5,72.5 78.5,71.5 78.5,70.5C 81.7935,70.741 84.7935,69.9076 87.5,68C 92.5,67.3333 97.5,67.3333 102.5,68C 101.856,73.1157 101.189,78.2824 100.5,83.5C 99.8165,83.1373 99.1499,82.8039 98.5,82.5 Z"/></g>
<g><path style="opacity:1" fill="#44382a" d="M 107.5,52.5 C 121.294,59.1366 128.461,70.1366 129,85.5C 128.667,84.8333 128.333,84.1667 128,83.5C 127.399,87.9516 125.899,91.9516 123.5,95.5C 126.997,86.8731 127.164,78.2064 124,69.5C 123.667,71.1667 123.333,72.8333 123,74.5C 122.466,70.2316 121.133,66.2316 119,62.5C 115.562,58.5587 111.729,55.2254 107.5,52.5 Z"/></g>
<g><path style="opacity:1" fill="#e9e7e5" d="M 88.5,79.5 C 88.7989,81.604 88.4656,83.604 87.5,85.5C 86.1451,86.1882 85.1451,87.1882 84.5,88.5C 80.4764,87.9619 76.4764,87.2952 72.5,86.5C 72.5,85.5 72.5,84.5 72.5,83.5C 75.8499,83.665 79.1832,83.4983 82.5,83C 83.9158,80.7355 85.9158,79.5688 88.5,79.5 Z"/></g>
<g><path style="opacity:1" fill="#463a2b" d="M 98.5,82.5 C 96.0425,82.0739 94.8758,80.7406 95,78.5C 96.6268,79.5323 97.7934,80.8656 98.5,82.5 Z"/></g>
<g><path style="opacity:1" fill="#403422" d="M 78.5,73.5 C 80.6383,75.4485 82.9716,77.1152 85.5,78.5C 86.1927,75.033 87.1927,75.3663 88.5,79.5C 85.9158,79.5688 83.9158,80.7355 82.5,83C 79.1832,83.4983 75.8499,83.665 72.5,83.5C 72.5,84.5 72.5,85.5 72.5,86.5C 76.4764,87.2952 80.4764,87.9619 84.5,88.5C 79.2424,88.9303 73.9091,88.9303 68.5,88.5C 66.2526,86.1085 64.9192,83.2752 64.5,80C 65.448,79.5172 66.448,79.3505 67.5,79.5C 66.66,75.0892 67.8267,71.4225 71,68.5C 72.815,71.7338 72.9816,75.0671 71.5,78.5C 71.8178,79.6473 72.4844,80.4806 73.5,81C 72.8333,81.3333 72.1667,81.6667 71.5,82C 74.8333,82.6667 78.1667,82.6667 81.5,82C 82.1667,81.3333 82.8333,80.6667 83.5,80C 81.4637,78.0823 79.7971,75.9157 78.5,73.5 Z"/></g>
<g><path style="opacity:1" fill="#c0bbb6" d="M 69.5,71.5 C 70.4972,71.4701 71.1639,71.9701 71.5,73C 70.8963,75.5838 70.0629,78.0838 69,80.5C 68.2642,77.408 68.4309,74.408 69.5,71.5 Z"/></g>
<g><path style="opacity:1" fill="#edecea" d="M 66.5,81.5 C 70.2518,81.5007 71.2518,83.1674 69.5,86.5C 67.244,85.5791 66.244,83.9124 66.5,81.5 Z"/></g>
<g><path style="opacity:1" fill="#372a1d" d="M 54.5,33.5 C 57.5719,33.1826 60.5719,33.5159 63.5,34.5C 58.8885,39.8371 60.0552,43.5037 67,45.5C 67.7063,47.9712 67.373,50.3046 66,52.5C 58.3333,56.1667 52.6667,61.8333 49,69.5C 48.3333,73.1667 48.3333,76.8333 49,80.5C 50.3333,83.1667 52.3333,85.1667 55,86.5C 55.6667,87.1667 55.6667,87.8333 55,88.5C 51.3967,90.1283 47.5634,90.9616 43.5,91C 46.4646,95.0457 50.4646,96.879 55.5,96.5C 55.4871,99.6903 54.4871,102.524 52.5,105C 54.5,110.649 56.5,116.315 58.5,122C 50.4742,123.069 44.3076,120.235 40,113.5C 37.2305,114.348 34.3971,114.681 31.5,114.5C 32.9049,108.736 32.5715,103.07 30.5,97.5C 24.785,99.7968 20.4517,98.2968 17.5,93C 23.1049,90.3035 26.1049,85.8035 26.5,79.5C 21.0589,80.074 17.3922,77.7407 15.5,72.5C 24.2429,70.5985 30.9096,65.7652 35.5,58C 37.5,56.6667 39.5,55.3333 41.5,54C 35.4751,49.0137 34.9751,43.5137 40,37.5C 41.2915,39.2487 42.4582,41.082 43.5,43C 45.0249,44.0086 46.6916,44.5086 48.5,44.5C 48.171,39.4866 50.171,35.82 54.5,33.5 Z"/></g>
<g><path style="opacity:1" fill="#f3f1f0" d="M 56.5,34.5 C 57.9778,34.238 59.3112,34.5713 60.5,35.5C 59.4557,37.7676 59.289,40.1009 60,42.5C 62.3031,44.393 64.4698,46.393 66.5,48.5C 61.8019,52.9409 56.9686,57.2742 52,61.5C 44.5372,70.4132 44.7039,79.0798 52.5,87.5C 48.701,90.128 44.8677,90.128 41,87.5C 42.0193,94.4593 46.1859,97.7926 53.5,97.5C 53.2007,100.642 51.5341,102.809 48.5,104C 50.3783,105.543 51.8783,107.376 53,109.5C 53.3555,113.146 54.1888,116.646 55.5,120C 48.3649,120.507 43.5315,117.34 41,110.5C 39.005,112.747 36.505,113.747 33.5,113.5C 33.9302,106.99 33.0969,100.656 31,94.5C 27.037,97.2559 23.2037,97.0893 19.5,94C 25.4553,90.5908 28.122,85.4241 27.5,78.5C 22.8273,79.4908 19.494,77.8241 17.5,73.5C 21.8245,72.338 25.8245,70.5047 29.5,68C 33.428,62.2351 38.428,57.7351 44.5,54.5C 39.2022,51.5701 37.5356,47.2368 39.5,41.5C 40.9814,42.4803 42.3147,43.647 43.5,45C 45.4727,45.4955 47.4727,45.6621 49.5,45.5C 49.7611,40.5616 52.0945,36.895 56.5,34.5 Z"/></g>
<g><path style="opacity:1" fill="#4a3e30" d="M 49.5,55.5 C 45.7859,59.0496 42.6193,63.0496 40,67.5C 39.5948,71.2128 39.5948,74.8794 40,78.5C 38.8732,75.6229 38.2065,72.6229 38,69.5C 35.6292,74.9391 34.9625,80.6058 36,86.5C 37.1745,91.0144 38.5078,95.3477 40,99.5C 36.4244,94.7752 34.4244,89.4418 34,83.5C 33.1107,84.8882 32.6107,84.7215 32.5,83C 33.7781,70.9111 39.4448,61.7444 49.5,55.5 Z"/></g>
<g><path style="opacity:1" fill="#54493b" d="M 52.5,53.5 C 52.0269,54.9063 51.0269,55.573 49.5,55.5C 49.9731,54.0937 50.9731,53.427 52.5,53.5 Z"/></g>
<g><path style="opacity:1" fill="#4c4031" d="M 52.5,53.5 C 52.6107,52.8826 52.944,52.3826 53.5,52C 51.8333,51.6667 50.1667,51.3333 48.5,51C 51.5,50.3333 54.5,50.3333 57.5,51C 55.9221,52.0945 54.2554,52.9278 52.5,53.5 Z"/></g>
<g><path style="opacity:1" fill="#f9e137" d="M 94.5,113.5 C 96.6348,113.853 97.9681,113.02 98.5,111C 97.3298,108.332 95.6632,105.998 93.5,104C 89.1794,103.501 84.8461,103.334 80.5,103.5C 80.6734,99.8296 79.0067,97.3296 75.5,96C 72.8243,95.2604 70.1576,94.9271 67.5,95C 69.607,96.2635 70.607,98.0968 70.5,100.5C 69.596,101.209 69.2627,102.209 69.5,103.5C 70.552,103.351 71.552,103.517 72.5,104C 63.5604,105.485 62.2271,109.485 68.5,116C 70.3914,116.309 71.7248,115.475 72.5,113.5C 77.1196,112.507 81.7863,112.173 86.5,112.5C 86.5,113.833 86.5,115.167 86.5,116.5C 85.0328,118.363 83.0328,119.696 80.5,120.5C 74.8308,119.204 69.1641,117.704 63.5,116C 62.5399,114.581 61.7065,113.081 61,111.5C 60.5005,105.175 60.3338,98.8421 60.5,92.5C 74.1667,92.5 87.8333,92.5 101.5,92.5C 101.884,99.5888 101.384,106.589 100,113.5C 98.6487,115.019 97.1487,116.352 95.5,117.5C 94.5713,116.311 94.238,114.978 94.5,113.5 Z"/></g>
<g><path style="opacity:1" fill="#5f5546" d="M 123.5,95.5 C 123.205,97.4233 122.372,99.0899 121,100.5C 120.751,98.332 121.584,96.6653 123.5,95.5 Z"/></g>
<g><path style="opacity:1" fill="#f1f0ee" d="M 94.5,111.5 C 93.928,110.027 93.0946,108.693 92,107.5C 91.4712,109.585 91.9712,111.418 93.5,113C 93.062,114.92 92.3953,116.754 91.5,118.5C 90.7025,118.043 90.3691,117.376 90.5,116.5C 91.8541,113.712 90.8541,111.879 87.5,111C 82.4136,110.761 77.4136,110.595 72.5,110.5C 71.1476,111.518 70.1476,112.851 69.5,114.5C 68.2911,110.286 69.9578,108.286 74.5,108.5C 74.5,106.5 74.5,104.5 74.5,102.5C 72.5168,102.843 71.1834,102.176 70.5,100.5C 72.2327,99.9924 72.566,99.159 71.5,98C 73.8087,97.2438 75.8087,97.7438 77.5,99.5C 78.8895,105.334 82.3895,107 88,104.5C 92.526,104.695 95.6927,106.861 97.5,111C 96.552,111.483 95.552,111.649 94.5,111.5 Z"/></g>
<g><path style="opacity:1" fill="#8a8378" d="M 42.5,102.5 C 44.7565,103.562 45.9232,105.228 46,107.5C 44.1978,106.211 43.0312,104.544 42.5,102.5 Z"/></g>
<g><path style="opacity:1" fill="#554937" d="M 94.5,113.5 C 94.5,112.833 94.5,112.167 94.5,111.5C 95.552,111.649 96.552,111.483 97.5,111C 95.6927,106.861 92.526,104.695 88,104.5C 82.3895,107 78.8895,105.334 77.5,99.5C 75.8087,97.7438 73.8087,97.2438 71.5,98C 72.566,99.159 72.2327,99.9924 70.5,100.5C 70.607,98.0968 69.607,96.2635 67.5,95C 70.1576,94.9271 72.8243,95.2604 75.5,96C 79.0067,97.3296 80.6734,99.8296 80.5,103.5C 84.8461,103.334 89.1794,103.501 93.5,104C 95.6632,105.998 97.3298,108.332 98.5,111C 97.9681,113.02 96.6348,113.853 94.5,113.5 Z"/></g>
<g><path style="opacity:1" fill="#928b81" d="M 117.5,103.5 C 118.043,103.56 118.376,103.893 118.5,104.5C 113.889,109.618 113.556,109.285 117.5,103.5 Z"/></g>
<g><path style="opacity:1" fill="#51442d" d="M 70.5,100.5 C 71.1834,102.176 72.5168,102.843 74.5,102.5C 74.5,104.5 74.5,106.5 74.5,108.5C 69.9578,108.286 68.2911,110.286 69.5,114.5C 70.1476,112.851 71.1476,111.518 72.5,110.5C 77.4136,110.595 82.4136,110.761 87.5,111C 90.8541,111.879 91.8541,113.712 90.5,116.5C 90.1667,116.5 89.8333,116.5 89.5,116.5C 90.5624,115.425 90.5624,114.425 89.5,113.5C 88.8243,114.602 88.1577,115.602 87.5,116.5C 87.1667,116.5 86.8333,116.5 86.5,116.5C 86.5,115.167 86.5,113.833 86.5,112.5C 81.7863,112.173 77.1196,112.507 72.5,113.5C 71.7248,115.475 70.3914,116.309 68.5,116C 62.2271,109.485 63.5604,105.485 72.5,104C 71.552,103.517 70.552,103.351 69.5,103.5C 69.2627,102.209 69.596,101.209 70.5,100.5 Z"/></g>
<g><path style="opacity:1" fill="#e1dfdc" d="M 69.5,105.5 C 70.675,105.281 71.675,105.614 72.5,106.5C 71.3112,107.429 69.9778,107.762 68.5,107.5C 68.719,108.675 68.3857,109.675 67.5,110.5C 66.4173,109.635 66.2506,108.635 67,107.5C 67.9947,106.934 68.828,106.267 69.5,105.5 Z"/></g>
<g><path style="opacity:1" fill="#dedbd8" d="M 89.5,116.5 C 88.8333,119.167 88.1667,119.167 87.5,116.5C 88.1577,115.602 88.8243,114.602 89.5,113.5C 90.5624,114.425 90.5624,115.425 89.5,116.5 Z"/></g>
<g><path style="opacity:1" fill="#867e73" d="M 104.5,120.5 C 106.265,121.461 108.265,121.795 110.5,121.5C 108.307,122.797 105.973,122.797 103.5,121.5C 103.624,120.893 103.957,120.56 104.5,120.5 Z"/></g>
<g><path style="opacity:1" fill="#f1efee" d="M 66.5,124.5 C 67.981,125.421 69.3144,126.588 70.5,128C 69.8994,130.637 68.2327,131.804 65.5,131.5C 64.3998,130.442 63.0664,129.608 61.5,129C 62.3279,128.085 63.3279,127.419 64.5,127C 63.3909,125.187 64.0576,124.354 66.5,124.5 Z"/></g>
<g><path style="opacity:1" fill="#443829" d="M 98.5,130.5 C 97.2196,131.931 95.5529,132.598 93.5,132.5C 93.5,133.833 93.5,135.167 93.5,136.5C 86.358,137.738 79.358,137.738 72.5,136.5C 71.1667,136.5 69.8333,136.5 68.5,136.5C 68.69,134.041 67.69,132.374 65.5,131.5C 68.2327,131.804 69.8994,130.637 70.5,128C 69.3144,126.588 67.981,125.421 66.5,124.5C 71.1822,125.865 75.8489,127.198 80.5,128.5C 84.1062,128.973 87.1062,127.973 89.5,125.5C 92.5683,124.699 95.5683,123.699 98.5,122.5C 99.4519,124.045 99.7852,125.712 99.5,127.5C 104.658,128.838 104.324,129.838 98.5,130.5 Z"/></g>
<g><path style="opacity:1" fill="#f2f1ef" d="M 98.5,130.5 C 96.4884,131.014 94.4884,131.18 92.5,131C 90.6122,127.029 91.9455,124.863 96.5,124.5C 97.063,126.709 98.3964,128.209 100.5,129C 99.5842,129.278 98.9175,129.778 98.5,130.5 Z"/></g>
<g><path style="opacity:1" fill="#524638" d="M 66.5,124.5 C 64.0576,124.354 63.3909,125.187 64.5,127C 63.3279,127.419 62.3279,128.085 61.5,129C 63.0664,129.608 64.3998,130.442 65.5,131.5C 62.8205,131.327 60.4872,130.327 58.5,128.5C 59.6283,127.738 60.7949,127.071 62,126.5C 61.8047,124.874 61.8047,123.207 62,121.5C 63.6516,122.399 65.1516,123.399 66.5,124.5 Z"/></g>
<g><path style="opacity:1" fill="#f4f2f1" d="M 72.5,136.5 C 71.6016,135.842 70.6016,135.176 69.5,134.5C 70.1667,133.167 70.8333,131.833 71.5,130.5C 77.7985,129.504 84.1318,129.17 90.5,129.5C 90.8333,131.5 91.1667,133.5 91.5,135.5C 85.2026,136.32 78.8692,136.653 72.5,136.5 Z"/></g>
</svg>
