<?xml version="1.0" encoding="UTF-8"?>
<!DOCTYPE svg PUBLIC "-//W3C//DTD SVG 1.1//EN" "http://www.w3.org/Graphics/SVG/1.1/DTD/svg11.dtd">
<svg xmlns="http://www.w3.org/2000/svg" version="1.1" width="160px" height="160px" style="shape-rendering:geometricPrecision; text-rendering:geometricPrecision; image-rendering:optimizeQuality; fill-rule:evenodd; clip-rule:evenodd" xmlns:xlink="http://www.w3.org/1999/xlink">
<g><path style="opacity:1" fill="#3a71c3" d="M -0.5,-0.5 C 52.8333,-0.5 106.167,-0.5 159.5,-0.5C 159.5,52.8333 159.5,106.167 159.5,159.5C 106.167,159.5 52.8333,159.5 -0.5,159.5C -0.5,106.167 -0.5,52.8333 -0.5,-0.5 Z"/></g>
<g><path style="opacity:1" fill="#ebf2fa" d="M 58.5,31.5 C 64.6904,38.5601 67.357,46.8934 66.5,56.5C 66.4881,65.8803 63.9881,74.5469 59,82.5C 47.9339,65.53 47.7672,48.53 58.5,31.5 Z"/></g>
<g><path style="opacity:1" fill="#4e7dc8" d="M 64.5,51.5 C 64.7947,53.7354 64.4614,55.7354 63.5,57.5C 62.9085,52.5584 61.4085,47.8918 59,43.5C 55.6246,49.3532 53.6246,55.6866 53,62.5C 51.6898,52.743 53.6898,43.743 59,35.5C 62.2462,40.3304 64.0795,45.6637 64.5,51.5 Z"/></g>
<g><path style="opacity:1" fill="#f6fbfd" d="M 40.5,56.5 C 43.1667,56.5 45.8333,56.5 48.5,56.5C 48.5,63.5 48.5,70.5 48.5,77.5C 33.7231,80.3867 29.5565,88.7201 36,102.5C 44.302,110.432 52.6353,110.432 61,102.5C 63.831,97.005 62.331,93.1717 56.5,91C 53.7431,90.218 51.2431,90.718 49,92.5C 48.5026,89.854 48.3359,87.1873 48.5,84.5C 55.5,84.5 62.5,84.5 69.5,84.5C 69.6662,90.8421 69.4995,97.1754 69,103.5C 52.9828,116.498 38.3161,115.165 25,99.5C 16.1317,79.9321 21.2983,65.5988 40.5,56.5 Z"/></g>
<g><path style="opacity:1" fill="#a6bfe4" d="M 64.5,51.5 C 65.8347,56.0736 65.668,60.7403 64,65.5C 63.5026,62.854 63.3359,60.1873 63.5,57.5C 64.4614,55.7354 64.7947,53.7354 64.5,51.5 Z"/></g>
<g><path style="opacity:1" fill="#4678c6" d="M 58.5,62.5 C 59.2216,62.9175 59.7216,63.5842 60,64.5C 60.888,69.6178 60.5547,74.6178 59,79.5C 55.8945,73.9632 55.7278,68.2965 58.5,62.5 Z"/></g>
<g><path style="opacity:1" fill="#9bb8e1" d="M 89.5,84.5 C 92.9619,83.5184 96.6286,83.185 100.5,83.5C 100.5,84.8333 100.5,86.1667 100.5,87.5C 98.8333,87.5 97.1667,87.5 95.5,87.5C 96.7175,86.8386 98.0508,86.1719 99.5,85.5C 96.2317,84.513 92.8984,84.1796 89.5,84.5 Z"/></g>
<g><path style="opacity:1" fill="#93b2df" d="M 112.5,84.5 C 114.265,83.5386 116.265,83.2053 118.5,83.5C 118.737,84.791 118.404,85.791 117.5,86.5C 116.448,84.744 114.781,84.0773 112.5,84.5 Z"/></g>
<g><path style="opacity:1" fill="#f6fafd" d="M 81.5,87.5 C 80.5076,95.3159 80.1743,103.316 80.5,111.5C 78.8333,111.5 77.1667,111.5 75.5,111.5C 75.5,103.5 75.5,95.5 75.5,87.5C 74.1667,87.5 72.8333,87.5 71.5,87.5C 71.5,86.5 71.5,85.5 71.5,84.5C 75.8333,84.5 80.1667,84.5 84.5,84.5C 84.5,85.5 84.5,86.5 84.5,87.5C 83.5,87.5 82.5,87.5 81.5,87.5 Z"/></g>
<g><path style="opacity:1" fill="#fbfefe" d="M 89.5,84.5 C 92.8984,84.1796 96.2317,84.513 99.5,85.5C 98.0508,86.1719 96.7175,86.8386 95.5,87.5C 94.5076,95.3159 94.1743,103.316 94.5,111.5C 92.8333,111.5 91.1667,111.5 89.5,111.5C 89.5,102.5 89.5,93.5 89.5,84.5 Z"/></g>
<g><path style="opacity:1" fill="#f7fbfd" d="M 112.5,84.5 C 114.781,84.0773 116.448,84.744 117.5,86.5C 116.943,90.1745 116.276,93.8412 115.5,97.5C 117.038,102.397 118.038,107.397 118.5,112.5C 114.488,113.113 112.488,111.446 112.5,107.5C 112.322,104.784 111.822,102.117 111,99.5C 110.501,103.821 110.334,108.154 110.5,112.5C 108.833,112.5 107.167,112.5 105.5,112.5C 105.5,103.167 105.5,93.8333 105.5,84.5C 107.167,84.5 108.833,84.5 110.5,84.5C 110.515,99.0947 111.181,99.0947 112.5,84.5 Z"/></g>
<g><path style="opacity:1" fill="#f8fcfe" d="M 134.5,84.5 C 135.833,84.5 137.167,84.5 138.5,84.5C 138.5,93.5 138.5,102.5 138.5,111.5C 137.167,111.5 135.833,111.5 134.5,111.5C 134.83,104.468 134.497,97.4684 133.5,90.5C 132.893,90.6236 132.56,90.9569 132.5,91.5C 131.414,91.38 130.747,90.7133 130.5,89.5C 131.823,87.8349 133.156,86.1683 134.5,84.5 Z"/></g>
<g><path style="opacity:1" fill="#ceddf1" d="M 134.5,84.5 C 135.919,83.5489 137.585,83.2155 139.5,83.5C 139.5,93.1667 139.5,102.833 139.5,112.5C 137.5,112.5 135.5,112.5 133.5,112.5C 133.825,105.313 133.491,98.3134 132.5,91.5C 132.56,90.9569 132.893,90.6236 133.5,90.5C 134.497,97.4684 134.83,104.468 134.5,111.5C 135.833,111.5 137.167,111.5 138.5,111.5C 138.5,102.5 138.5,93.5 138.5,84.5C 137.167,84.5 135.833,84.5 134.5,84.5 Z"/></g>
<g><path style="opacity:1" fill="#bcd0eb" d="M 81.5,87.5 C 81.5,95.8333 81.5,104.167 81.5,112.5C 79.2646,112.795 77.2646,112.461 75.5,111.5C 77.1667,111.5 78.8333,111.5 80.5,111.5C 80.1743,103.316 80.5076,95.3159 81.5,87.5 Z"/></g>
<g><path style="opacity:1" fill="#aac3e5" d="M 95.5,87.5 C 95.5,95.8333 95.5,104.167 95.5,112.5C 93.2646,112.795 91.2646,112.461 89.5,111.5C 91.1667,111.5 92.8333,111.5 94.5,111.5C 94.1743,103.316 94.5076,95.3159 95.5,87.5 Z"/></g>
<g><path style="opacity:1" fill="#95b2df" d="M 127.5,101.5 C 127.5,100.5 127.5,99.5 127.5,98.5C 125.5,98.5 123.5,98.5 121.5,98.5C 121.5,99.5 121.5,100.5 121.5,101.5C 120.566,100.432 120.232,99.099 120.5,97.5C 123.167,97.5 125.833,97.5 128.5,97.5C 128.768,99.099 128.434,100.432 127.5,101.5 Z"/></g>
<g><path style="opacity:1" fill="#fbfffe" d="M 127.5,101.5 C 125.5,101.5 123.5,101.5 121.5,101.5C 121.5,100.5 121.5,99.5 121.5,98.5C 123.5,98.5 125.5,98.5 127.5,98.5C 127.5,99.5 127.5,100.5 127.5,101.5 Z"/></g>
<g><path style="opacity:1" fill="#7198d4" d="M 112.5,107.5 C 111.833,109.167 111.167,110.833 110.5,112.5C 110.334,108.154 110.501,103.821 111,99.5C 111.822,102.117 112.322,104.784 112.5,107.5 Z"/></g>
</svg>
