<?xml version="1.0" encoding="UTF-8"?>
<!DOCTYPE svg PUBLIC "-//W3C//DTD SVG 1.1//EN" "http://www.w3.org/Graphics/SVG/1.1/DTD/svg11.dtd">
<svg xmlns="http://www.w3.org/2000/svg" version="1.1" width="160px" height="160px" style="shape-rendering:geometricPrecision; text-rendering:geometricPrecision; image-rendering:optimizeQuality; fill-rule:evenodd; clip-rule:evenodd" xmlns:xlink="http://www.w3.org/1999/xlink">
<g><path style="opacity:1" fill="#02517d" d="M -0.5,-0.5 C 52.8333,-0.5 106.167,-0.5 159.5,-0.5C 159.5,52.8333 159.5,106.167 159.5,159.5C 106.167,159.5 52.8333,159.5 -0.5,159.5C -0.5,106.167 -0.5,52.8333 -0.5,-0.5 Z"/></g>
<g><path style="opacity:1" fill="#835b43" d="M 115.5,45.5 C 116.289,45.7828 116.956,46.2828 117.5,47C 116.446,48.3876 116.28,49.8876 117,51.5C 120.316,47.7121 122.483,47.7121 123.5,51.5C 125.098,50.5153 126.765,50.3486 128.5,51C 126.012,52.6852 126.345,54.0186 129.5,55C 132.833,55.3333 136.167,55.6667 139.5,56C 137.058,56.9398 134.725,58.1065 132.5,59.5C 134.991,60.5407 134.991,61.3741 132.5,62C 134.234,64.7003 136.568,66.7003 139.5,68C 133.037,68.0714 130.871,71.238 133,77.5C 135.105,79.0154 134.939,79.5154 132.5,79C 131.696,77.2287 130.529,75.7287 129,74.5C 128.641,77.5443 127.974,77.8776 127,75.5C 126.474,79.6621 125.474,83.6621 124,87.5C 121.447,84.8577 120.78,81.8577 122,78.5C 121.282,79.4506 120.449,79.6172 119.5,79C 120.833,78.3333 120.833,77.6667 119.5,77C 131.828,71.4046 133.162,64.0713 123.5,55C 116.077,53.215 110.41,55.5483 106.5,62C 105.216,62.6838 104.049,62.5171 103,61.5C 102.333,59.1667 102.333,56.8333 103,54.5C 103.833,55.5 104.667,56.5 105.5,57.5C 106.747,54.9399 107.747,52.2732 108.5,49.5C 109.308,51.4233 109.808,53.4233 110,55.5C 111.59,51.9836 113.423,48.6503 115.5,45.5 Z"/></g>
<g><path style="opacity:1" fill="#f5f8fa" d="M 18.5,68.5 C 24.987,67.346 31.6536,67.1794 38.5,68C 39.3333,68.8333 40.1667,69.6667 41,70.5C 41.8319,79.1858 41.6652,87.8525 40.5,96.5C 39.1667,95.5 37.8333,94.5 36.5,93.5C 35.5033,86.8665 35.17,80.1998 35.5,73.5C 31.4862,73.6655 27.4862,73.4988 23.5,73C 21.9625,71.2927 20.2959,69.7927 18.5,68.5 Z"/></g>
<g><path style="opacity:1" fill="#eaf0f4" d="M 49.5,67.5 C 56.175,67.3337 62.8417,67.5004 69.5,68C 65.4359,73.1091 60.1026,74.9424 53.5,73.5C 53.8308,81.1955 53.4975,88.8622 52.5,96.5C 50.2466,95.7469 48.4133,94.4136 47,92.5C 46.3333,85.1667 46.3333,77.8333 47,70.5C 48.045,69.6266 48.8783,68.6266 49.5,67.5 Z"/></g>
<g><path style="opacity:1" fill="#f0f4f7" d="M 77.5,67.5 C 80.1873,67.3359 82.854,67.5026 85.5,68C 81.9848,71.6824 78.3181,75.1824 74.5,78.5C 78.1153,84.1162 82.1153,89.4495 86.5,94.5C 83.8333,95.8333 81.1667,95.8333 78.5,94.5C 75.8482,90.5181 72.8482,86.8514 69.5,83.5C 70.0589,89.5669 67.7256,93.9002 62.5,96.5C 61.1194,91.7494 61.2861,87.0827 63,82.5C 68.009,77.6579 72.8423,72.6579 77.5,67.5 Z"/></g>
<g><path style="opacity:1" fill="#f4f8f9" d="M 95.5,67.5 C 100.511,67.3341 105.511,67.5007 110.5,68C 115.224,70.4353 116.724,74.2686 115,79.5C 113.389,83.2748 110.889,86.2748 107.5,88.5C 106.957,88.56 106.624,88.8933 106.5,89.5C 109.428,90.4841 112.428,90.8174 115.5,90.5C 115.5,92.1667 115.5,93.8333 115.5,95.5C 108.159,95.6663 100.826,95.4997 93.5,95C 98.3333,90.1667 103.167,85.3333 108,80.5C 109.598,78.1055 109.764,75.7721 108.5,73.5C 104.366,72.5151 100.032,72.1818 95.5,72.5C 95.5,70.8333 95.5,69.1667 95.5,67.5 Z"/></g>
<g><path style="opacity:1" fill="#80a8bd" d="M 95.5,67.5 C 95.5,69.1667 95.5,70.8333 95.5,72.5C 100.032,72.1818 104.366,72.5151 108.5,73.5C 103.833,73.5 99.1667,73.5 94.5,73.5C 94.2053,71.2646 94.5386,69.2646 95.5,67.5 Z"/></g>
<g><path style="opacity:1" fill="#fefefe" d="M 94.5,79.5 C 94.5,80.8333 94.5,82.1667 94.5,83.5C 91.8333,83.5 89.1667,83.5 86.5,83.5C 86.5,82.1667 86.5,80.8333 86.5,79.5C 89.1667,79.5 91.8333,79.5 94.5,79.5 Z"/></g>
<g><path style="opacity:1" fill="#a6c2d1" d="M 94.5,79.5 C 91.8333,79.5 89.1667,79.5 86.5,79.5C 86.5,80.8333 86.5,82.1667 86.5,83.5C 89.1667,83.5 91.8333,83.5 94.5,83.5C 91.7131,84.4767 88.7131,84.81 85.5,84.5C 85.5,82.5 85.5,80.5 85.5,78.5C 88.7131,78.19 91.7131,78.5233 94.5,79.5 Z"/></g>
<g><path style="opacity:1" fill="#90b3c6" d="M 107.5,88.5 C 110.167,89.1667 112.833,89.8333 115.5,90.5C 112.428,90.8174 109.428,90.4841 106.5,89.5C 106.624,88.8933 106.957,88.56 107.5,88.5 Z"/></g>
</svg>
