<svg version="1.1" id="лого" xmlns="http://www.w3.org/2000/svg" x="0" y="0" viewBox="0 0 48 48" xml:space="preserve"><style/><g id="TGKD" fill-rule="evenodd" clip-rule="evenodd"><path fill="#f1f2f3" d="M0 0h48v48H0z"/><path d="m25.711 12.363-9.744 13.778L32.146 30.9l-.77 1.133c-1.088 1.539-2.674 2.764-3.852 3.399-1.178.633-4.034 1.36-6.3.725L8.307 32.305c-.77-.227-2.04-1.315-2.174-2.857-.092-.996.09-2.084.588-3.172.271-.635.635-1.268 1.088-1.903 1.223-1.812 6.208-8.883 7.025-9.881.816-.996 2.674-2.129 4.306-2.537 1.63-.454 2.945-.409 3.989-.227 1.04.182 2.582.635 2.582.635zm1.768.543-4.442 6.255 6.89 2.04-4.261 5.981 7.523 2.221 8.7-12.281-14.41-4.216z" fill="#ffdc49" stroke="#00f" stroke-width=".25" stroke-miterlimit="10"/></g></svg>