<?xml version="1.0" encoding="UTF-8"?>
<!DOCTYPE svg PUBLIC "-//W3C//DTD SVG 1.1//EN" "http://www.w3.org/Graphics/SVG/1.1/DTD/svg11.dtd">
<svg xmlns="http://www.w3.org/2000/svg" version="1.1" width="160px" height="160px" style="shape-rendering:geometricPrecision; text-rendering:geometricPrecision; image-rendering:optimizeQuality; fill-rule:evenodd; clip-rule:evenodd" xmlns:xlink="http://www.w3.org/1999/xlink">
<g><path style="opacity:1" fill="#37468f" d="M -0.5,-0.5 C 52.8333,-0.5 106.167,-0.5 159.5,-0.5C 159.5,52.8333 159.5,106.167 159.5,159.5C 106.167,159.5 52.8333,159.5 -0.5,159.5C -0.5,106.167 -0.5,52.8333 -0.5,-0.5 Z"/></g>
<g><path style="opacity:1" fill="#5f69a5" d="M 74.5,23.5 C 76.5518,24.0527 76.8852,25.0527 75.5,26.5C 75.6068,24.6214 75.1068,24.2881 74,25.5C 69.3035,32.3483 64.4701,39.015 59.5,45.5C 58.3143,44.0387 58.3143,42.7054 59.5,41.5C 60.3285,42.3324 61.1618,41.999 62,40.5C 65.6995,34.4101 69.8661,28.7434 74.5,23.5 Z"/></g>
<g><path style="opacity:1" fill="#bcc0da" d="M 50.5,36.5 C 47.953,34.7103 48.2863,33.0436 51.5,31.5C 51.8333,31.8333 52.1667,32.1667 52.5,32.5C 51.3698,33.6223 50.7031,34.9557 50.5,36.5 Z"/></g>
<g><path style="opacity:1" fill="#e6e8f1" d="M 90.5,30.5 C 87.3471,36.1232 83.6804,41.4565 79.5,46.5C 78.479,45.9984 78.3123,45.3317 79,44.5C 82.0887,40.6464 84.922,36.6464 87.5,32.5C 88.2223,31.4489 89.2223,30.7822 90.5,30.5 Z"/></g>
<g><path style="opacity:1" fill="#d3d6e7" d="M 111.5,31.5 C 112.043,31.56 112.376,31.8933 112.5,32.5C 111.139,34.0284 109.972,35.6951 109,37.5C 107.887,39.3293 106.387,40.1626 104.5,40C 106.722,37.0438 109.055,34.2105 111.5,31.5 Z"/></g>
<g><path style="opacity:1" fill="#e5e7f1" d="M 98.5,42.5 C 96.5,43.976 94.8334,45.8094 93.5,48C 92.8333,48.6667 92.1667,48.6667 91.5,48C 94.2997,44.2249 96.9664,40.3916 99.5,36.5C 100.423,35.6971 101.423,35.5304 102.5,36C 100.768,37.9719 99.4348,40.1386 98.5,42.5 Z"/></g>
<g><path style="opacity:1" fill="#e4e6f0" d="M 74.5,23.5 C 69.8661,28.7434 65.6995,34.4101 62,40.5C 61.1618,41.999 60.3285,42.3324 59.5,41.5C 64.0874,34.3983 68.9208,27.3983 74,20.5C 74.4828,21.448 74.6495,22.448 74.5,23.5 Z"/></g>
<g><path style="opacity:1" fill="#e0e2ee" d="M 50.5,36.5 C 51.4584,36.0472 52.2917,35.3805 53,34.5C 52.3578,37.8731 50.6912,40.8731 48,43.5C 47.3333,42.5 47.3333,41.5 48,40.5C 49.4813,39.5291 50.3146,38.1958 50.5,36.5 Z"/></g>
<g><path style="opacity:1" fill="#e2e4ef" d="M 90.5,37.5 C 88.0184,40.4293 85.5184,43.4293 83,46.5C 82.8333,46.1667 82.6667,45.8333 82.5,45.5C 85.8592,40.4822 89.1925,35.4822 92.5,30.5C 93.3635,29.537 94.0302,29.537 94.5,30.5C 93.1389,32.8505 91.8056,35.1838 90.5,37.5 Z"/></g>
<g><path style="opacity:1" fill="#e4e6f0" d="M 75.5,26.5 C 74.075,27.922 73.075,29.5887 72.5,31.5C 61.4784,45.8631 50.8117,60.5297 40.5,75.5C 39.6618,75.1583 39.3284,74.4916 39.5,73.5C 45.5699,66.3653 50.9032,58.6987 55.5,50.5C 57.0627,49.0552 58.396,47.3885 59.5,45.5C 64.4701,39.015 69.3035,32.3483 74,25.5C 75.1068,24.2881 75.6068,24.6214 75.5,26.5 Z"/></g>
<g><path style="opacity:1" fill="#e5e7f1" d="M 109.5,43.5 C 110.239,43.369 110.906,43.5357 111.5,44C 110.619,44.7083 109.953,45.5416 109.5,46.5C 109.167,46.5 108.833,46.5 108.5,46.5C 108.557,45.391 108.89,44.391 109.5,43.5 Z"/></g>
<g><path style="opacity:1" fill="#dfe1ed" d="M 101.5,43.5 C 99.2812,45.5755 97.2812,47.9088 95.5,50.5C 95.1667,50.1667 94.8333,49.8333 94.5,49.5C 96.11,47.2746 97.4434,44.9413 98.5,42.5C 100.826,39.8648 103.159,37.1982 105.5,34.5C 105.833,34.8333 106.167,35.1667 106.5,35.5C 104.311,37.8867 102.644,40.5534 101.5,43.5 Z"/></g>
<g><path style="opacity:1" fill="#e2e4ef" d="M 53.5,38.5 C 54.4646,39.7211 54.298,41.0544 53,42.5C 50.6667,45.5 48.3333,48.5 46,51.5C 45.3333,50.5 45.3333,49.5 46,48.5C 48.7167,45.2896 51.2167,41.9563 53.5,38.5 Z"/></g>
<g><path style="opacity:1" fill="#b0b5d3" d="M 37.5,45.5 C 38.2121,47.7942 37.3787,49.7942 35,51.5C 35.4509,49.4802 36.2843,47.4802 37.5,45.5 Z"/></g>
<g><path style="opacity:1" fill="#6770aa" d="M 128.5,49.5 C 129.348,48.375 130.348,48.375 131.5,49.5C 130.4,50.6049 129.733,51.9382 129.5,53.5C 128.69,56.6462 126.69,58.3129 123.5,58.5C 125.613,55.7835 127.613,52.9502 129.5,50C 129.272,49.6012 128.938,49.4346 128.5,49.5 Z"/></g>
<g><path style="opacity:1" fill="#e8e9f2" d="M 131.5,49.5 C 132.239,49.369 132.906,49.5357 133.5,50C 132.468,51.6268 131.134,52.7934 129.5,53.5C 129.733,51.9382 130.4,50.6049 131.5,49.5 Z"/></g>
<g><path style="opacity:1" fill="#e8eaf2" d="M 122.5,50.5 C 118.19,55.8143 113.857,61.1476 109.5,66.5C 112.416,60.804 116.082,55.1373 120.5,49.5C 121.623,48.2426 122.289,48.5759 122.5,50.5 Z"/></g>
<g><path style="opacity:1" fill="#edeef5" d="M 134.5,50.5 C 136.975,50.7467 136.975,51.4134 134.5,52.5C 133.537,52.0302 133.537,51.3635 134.5,50.5 Z"/></g>
<g><path style="opacity:1" fill="#e6e8f1" d="M 37.5,50.5 C 38.0954,53.3211 36.9287,55.6545 34,57.5C 34.579,55.008 35.7456,52.6747 37.5,50.5 Z"/></g>
<g><path style="opacity:1" fill="#a2a8cb" d="M 137.5,51.5 C 139.975,51.7467 139.975,52.4134 137.5,53.5C 136.537,53.0302 136.537,52.3635 137.5,51.5 Z"/></g>
<g><path style="opacity:1" fill="#e4e5f0" d="M 128.5,49.5 C 128.938,49.4346 129.272,49.6012 129.5,50C 127.613,52.9502 125.613,55.7835 123.5,58.5C 123.44,59.0431 123.107,59.3764 122.5,59.5C 121.479,58.9984 121.312,58.3317 122,57.5C 124.031,54.6447 126.197,51.978 128.5,49.5 Z"/></g>
<g><path style="opacity:1" fill="#dfe1ed" d="M 117.5,48.5 C 118.492,48.3284 119.158,48.6618 119.5,49.5C 115.53,54.3149 111.697,59.3149 108,64.5C 107.333,63.5 107.333,62.5 108,61.5C 111.176,57.1372 114.343,52.8039 117.5,48.5 Z"/></g>
<g><path style="opacity:1" fill="#5b65a3" d="M 54.5,48.5 C 55.3382,48.8417 55.6716,49.5084 55.5,50.5C 50.9032,58.6987 45.5699,66.3653 39.5,73.5C 39.5,73.1667 39.5,72.8333 39.5,72.5C 44.0874,65.3983 48.9208,58.3983 54,51.5C 54.4828,50.552 54.6495,49.552 54.5,48.5 Z"/></g>
<g><path style="opacity:1" fill="#e1e3ee" d="M 117.5,59.5 C 119.252,56.328 121.252,53.328 123.5,50.5C 123.56,49.9569 123.893,49.6236 124.5,49.5C 125.521,50.0016 125.688,50.6683 125,51.5C 122.922,54.7393 120.422,57.406 117.5,59.5 Z"/></g>
<g><path style="opacity:1" fill="#dddfec" d="M 38.5,58.5 C 36.8546,59.4787 35.5213,60.812 34.5,62.5C 34.5623,59.3997 36.0623,56.7331 39,54.5C 39.195,55.8193 39.0283,57.1526 38.5,58.5 Z"/></g>
<g><path style="opacity:1" fill="#e4e6f0" d="M 38.5,58.5 C 39.4584,58.0472 40.2917,57.3805 41,56.5C 40.5327,59.6981 39.0327,62.5314 36.5,65C 35.8333,65.6667 35.1667,65.6667 34.5,65C 36.2318,63.0281 37.5652,60.8614 38.5,58.5 Z"/></g>
<g><path style="opacity:1" fill="#535e9e" d="M 90.5,30.5 C 91.1667,30.5 91.8333,30.5 92.5,30.5C 89.1925,35.4822 85.8592,40.4822 82.5,45.5C 82.6667,45.8333 82.8333,46.1667 83,46.5C 85.5184,43.4293 88.0184,40.4293 90.5,37.5C 90.6596,39.153 91.3263,40.4863 92.5,41.5C 91.2983,43.3925 89.965,45.2258 88.5,47C 89.1667,47.6667 89.8333,47.6667 90.5,47C 93.226,43.7007 95.5593,40.2007 97.5,36.5C 98.1667,36.5 98.8333,36.5 99.5,36.5C 96.9664,40.3916 94.2997,44.2249 91.5,48C 92.1667,48.6667 92.8333,48.6667 93.5,48C 94.8334,45.8094 96.5,43.976 98.5,42.5C 97.4434,44.9413 96.11,47.2746 94.5,49.5C 94.8333,49.8333 95.1667,50.1667 95.5,50.5C 97.2812,47.9088 99.2812,45.5755 101.5,43.5C 95.8417,52.872 96.5084,53.5387 103.5,45.5C 103.833,45.5 104.167,45.5 104.5,45.5C 102.968,48.0574 101.301,50.5574 99.5,53C 100.167,53.6667 100.833,53.6667 101.5,53C 103.211,50.4112 105.045,47.9112 107,45.5C 107.692,44.5632 107.525,43.8966 106.5,43.5C 107.348,42.375 108.348,42.375 109.5,43.5C 108.89,44.391 108.557,45.391 108.5,46.5C 108.833,46.5 109.167,46.5 109.5,46.5C 109.5,47.1667 109.833,47.5 110.5,47.5C 108.552,50.6215 106.385,53.6215 104,56.5C 103.312,57.3317 103.479,57.9984 104.5,58.5C 107.186,55.097 109.853,51.7637 112.5,48.5C 112.833,48.5 113.167,48.5 113.5,48.5C 114.705,47.3143 116.039,47.3143 117.5,48.5C 114.343,52.8039 111.176,57.1372 108,61.5C 107.333,62.5 107.333,63.5 108,64.5C 111.697,59.3149 115.53,54.3149 119.5,49.5C 119.833,49.5 120.167,49.5 120.5,49.5C 116.082,55.1373 112.416,60.804 109.5,66.5C 113.857,61.1476 118.19,55.8143 122.5,50.5C 122.833,50.5 123.167,50.5 123.5,50.5C 121.252,53.328 119.252,56.328 117.5,59.5C 117.5,59.8333 117.5,60.1667 117.5,60.5C 114.041,63.107 111.874,66.4404 111,70.5C 113.364,67.3098 115.864,64.3098 118.5,61.5C 116.638,65.5418 114.138,69.2084 111,72.5C 110.333,73.5 110.333,74.5 111,75.5C 114.411,71.6006 117.578,67.6006 120.5,63.5C 120.833,63.5 121.167,63.5 121.5,63.5C 117.648,68.8566 113.981,74.3566 110.5,80C 110.667,80.5 110.833,81 111,81.5C 113.37,77.4031 116.203,73.7365 119.5,70.5C 119.833,70.5 120.167,70.5 120.5,70.5C 117.252,75.3158 113.752,79.9825 110,84.5C 109.333,85.5 109.333,86.5 110,87.5C 114.472,82.2076 118.305,76.5409 121.5,70.5C 122.5,70.8333 123.167,71.5 123.5,72.5C 112.5,87.1667 101.5,101.833 90.5,116.5C 90.5,116.167 90.5,115.833 90.5,115.5C 93.1229,111.098 96.1229,106.931 99.5,103C 97.6133,102.837 96.1133,103.671 95,105.5C 93.204,108.927 91.0373,112.094 88.5,115C 88.7284,115.399 89.0618,115.565 89.5,115.5C 88.779,117.382 87.779,117.715 86.5,116.5C 88.3534,113.305 90.3534,110.139 92.5,107C 91.8333,106.333 91.1667,106.333 90.5,107C 87.601,111.322 84.601,115.489 81.5,119.5C 81.2235,117.425 80.8901,115.425 80.5,113.5C 81.1667,112.167 82.1667,111.167 83.5,110.5C 83.8333,110.5 84.1667,110.5 84.5,110.5C 82.8872,111.838 82.3872,113.505 83,115.5C 84.3767,113.246 85.8767,111.08 87.5,109C 86.9056,108.536 86.2389,108.369 85.5,108.5C 85.5,107.833 85.1667,107.5 84.5,107.5C 84.1583,106.662 83.4916,106.328 82.5,106.5C 83.209,105.596 84.209,105.263 85.5,105.5C 89.7134,106.25 93.3801,104.916 96.5,101.5C 99.8333,100.167 102.167,97.8333 103.5,94.5C 107.799,89.5851 109.799,83.7518 109.5,77C 109.492,71.4716 107.825,66.6383 104.5,62.5C 103.652,59.1125 101.652,56.7791 98.5,55.5C 97.1979,53.1782 95.1979,51.8449 92.5,51.5C 91.653,50.0337 90.3197,49.2004 88.5,49C 80.634,46.4011 73.3006,47.2344 66.5,51.5C 64.0634,51.886 62.0634,53.0527 60.5,55C 60.7284,55.3988 61.0618,55.5654 61.5,55.5C 60.8333,56.8333 59.8333,57.8333 58.5,58.5C 58.5654,58.0618 58.3988,57.7284 58,57.5C 56.1978,58.7893 55.0312,60.4559 54.5,62.5C 52.1633,64.9647 50.6633,67.9647 50,71.5C 47.9085,84.2955 52.0752,94.2955 62.5,101.5C 65.6827,104.26 69.3494,106.26 73.5,107.5C 73.5,108.167 73.8333,108.5 74.5,108.5C 70.7182,114.122 66.7182,119.622 62.5,125C 62.7284,125.399 63.0618,125.565 63.5,125.5C 62.8333,126.833 62.1667,126.833 61.5,125.5C 64.7741,119.799 68.4407,114.299 72.5,109C 72.1667,108.833 71.8333,108.667 71.5,108.5C 66.5919,114.647 61.9252,120.98 57.5,127.5C 56.8333,127.5 56.1667,127.5 55.5,127.5C 59.1667,122.167 62.8333,116.833 66.5,111.5C 66.1667,111.5 65.8333,111.5 65.5,111.5C 65.5,110.833 65.5,110.167 65.5,109.5C 66.5209,105.849 65.5209,105.516 62.5,108.5C 63.0283,107.153 63.195,105.819 63,104.5C 61.9609,105.71 60.7942,106.71 59.5,107.5C 59.7031,105.956 60.3698,104.622 61.5,103.5C 61.1667,103.167 60.8333,102.833 60.5,102.5C 57.8005,105.4 55.4672,108.567 53.5,112C 53.7284,112.399 54.0618,112.565 54.5,112.5C 53.6522,113.625 52.6522,113.625 51.5,112.5C 53.4482,109.379 55.6148,106.379 58,103.5C 58.6667,102.5 58.6667,101.5 58,100.5C 57.0513,102.093 55.8846,103.426 54.5,104.5C 53.4489,103.778 52.7822,102.778 52.5,101.5C 54.9637,95.634 54.2971,95.3007 50.5,100.5C 50.6236,101.107 50.9569,101.44 51.5,101.5C 50.3774,102.757 49.7107,102.424 49.5,100.5C 50.9293,98.3222 51.7627,95.9889 52,93.5C 49.9098,96.0217 48.0765,98.6884 46.5,101.5C 45.8333,101.5 45.5,101.167 45.5,100.5C 46.7765,98.05 48.2765,95.7167 50,93.5C 50.6667,92.5 50.6667,91.5 50,90.5C 47.7226,94.0804 45.2226,97.4137 42.5,100.5C 42.5,100.167 42.5,99.8333 42.5,99.5C 44.0765,96.6884 45.9098,94.0217 48,91.5C 49.1871,89.9556 49.5205,88.2889 49,86.5C 45.7226,91.4137 42.2226,96.0803 38.5,100.5C 38.1667,100.5 37.8333,100.5 37.5,100.5C 52.1827,78.5329 51.6827,78.1995 36,99.5C 35.3083,100.437 35.475,101.103 36.5,101.5C 35.3774,102.757 34.7107,102.424 34.5,100.5C 36.1931,96.6278 38.5264,93.1278 41.5,90C 40.9056,89.5357 40.2389,89.369 39.5,89.5C 40.1098,88.609 40.4431,87.609 40.5,86.5C 42.4955,82.5155 44.9955,78.8488 48,75.5C 48.6667,74.5 48.6667,73.5 48,72.5C 45.3501,76.9749 42.1834,80.9749 38.5,84.5C 38.7031,82.9557 39.3698,81.6223 40.5,80.5C 40.1667,80.1667 39.8333,79.8333 39.5,79.5C 38.4787,81.188 37.1454,82.5213 35.5,83.5C 36.1103,81.5659 37.1103,79.8993 38.5,78.5C 39.7777,78.2178 40.7777,77.5511 41.5,76.5C 41.3932,78.3786 41.8932,78.7119 43,77.5C 45.6979,73.633 48.1979,69.633 50.5,65.5C 50.1543,64.3044 49.6543,64.3044 49,65.5C 47.0211,69.3003 44.5211,72.6336 41.5,75.5C 41.1667,75.5 40.8333,75.5 40.5,75.5C 50.8117,60.5297 61.4784,45.8631 72.5,31.5C 73.8333,32.8333 73.8333,34.1667 72.5,35.5C 72.631,34.7611 72.4643,34.0944 72,33.5C 67.0988,40.0145 62.7655,46.6812 59,53.5C 63.5194,47.7639 68.0194,42.0972 72.5,36.5C 73.1667,36.5 73.5,36.8333 73.5,37.5C 70.6404,41.3549 67.6404,45.1882 64.5,49C 65.9961,49.5074 67.1627,49.0074 68,47.5C 70.3578,44.7777 72.1911,41.7777 73.5,38.5C 74.1667,38.5 74.8333,38.5 75.5,38.5C 73.8785,41.5672 71.8785,44.4005 69.5,47C 70.635,47.7494 71.635,47.5827 72.5,46.5C 73.709,44.0592 75.3757,42.0592 77.5,40.5C 76.7577,42.4258 75.7577,44.2591 74.5,46C 75.1667,46.6667 75.8333,46.6667 76.5,46C 79.6966,41.317 83.03,36.817 86.5,32.5C 86.8333,32.5 87.1667,32.5 87.5,32.5C 84.922,36.6464 82.0887,40.6464 79,44.5C 78.3123,45.3317 78.479,45.9984 79.5,46.5C 83.6804,41.4565 87.3471,36.1232 90.5,30.5 Z"/></g>
<g><path style="opacity:1" fill="#c1c5dc" d="M 58.5,58.5 C 57.5,60.1667 56.1667,61.5 54.5,62.5C 55.0312,60.4559 56.1978,58.7893 58,57.5C 58.3988,57.7284 58.5654,58.0618 58.5,58.5 Z"/></g>
<g><path style="opacity:1" fill="#bcc0da" d="M 98.5,55.5 C 101.652,56.7791 103.652,59.1125 104.5,62.5C 102.273,60.3932 100.273,58.0599 98.5,55.5 Z"/></g>
<g><path style="opacity:1" fill="#e7e9f2" d="M 113.5,48.5 C 114.239,48.369 114.906,48.5357 115.5,49C 112.833,52.6667 110.167,56.3333 107.5,60C 106.833,60.6667 106.167,60.6667 105.5,60C 108.3,56.2249 110.966,52.3916 113.5,48.5 Z"/></g>
<g><path style="opacity:1" fill="#c9cce1" d="M 92.5,51.5 C 95.1979,51.8449 97.1979,53.1782 98.5,55.5C 96.1475,54.6597 94.1475,53.3264 92.5,51.5 Z"/></g>
<g><path style="opacity:1" fill="#c6cadf" d="M 66.5,51.5 C 65.0552,53.0627 63.3885,54.396 61.5,55.5C 61.0618,55.5654 60.7284,55.3988 60.5,55C 62.0634,53.0527 64.0634,51.886 66.5,51.5 Z"/></g>
<g><path style="opacity:1" fill="#e0e2ee" d="M 110.5,47.5 C 111.492,47.3284 112.158,47.6618 112.5,48.5C 109.853,51.7637 107.186,55.097 104.5,58.5C 103.479,57.9984 103.312,57.3317 104,56.5C 106.385,53.6215 108.552,50.6215 110.5,47.5 Z"/></g>
<g><path style="opacity:1" fill="#e5e7f1" d="M 108.5,46.5 C 107.872,49.09 106.705,51.4234 105,53.5C 104.163,55.0074 102.996,55.5074 101.5,55C 103.698,51.9772 106.031,49.1438 108.5,46.5 Z"/></g>
<g><path style="opacity:1" fill="#3e4b93" d="M 92.5,51.5 C 94.1475,53.3264 96.1475,54.6597 98.5,55.5C 100.273,58.0599 102.273,60.3932 104.5,62.5C 106.525,67.1133 107.858,71.9467 108.5,77C 107.939,83.1802 106.272,89.0136 103.5,94.5C 100.833,96.5 98.5,98.8333 96.5,101.5C 92.9416,103.112 89.2749,104.445 85.5,105.5C 84.209,105.263 83.209,105.596 82.5,106.5C 75.3583,106.606 68.6916,104.94 62.5,101.5C 50.9829,90.4279 48.3162,77.4279 54.5,62.5C 56.1667,61.5 57.5,60.1667 58.5,58.5C 59.8333,57.8333 60.8333,56.8333 61.5,55.5C 63.3885,54.396 65.0552,53.0627 66.5,51.5C 75.1667,48.8333 83.8333,48.8333 92.5,51.5 Z"/></g>
<g><path style="opacity:1" fill="#e2e4ef" d="M 106.5,43.5 C 107.525,43.8966 107.692,44.5632 107,45.5C 105.045,47.9112 103.211,50.4112 101.5,53C 100.833,53.6667 100.167,53.6667 99.5,53C 101.301,50.5574 102.968,48.0574 104.5,45.5C 104.833,44.5 105.5,43.8333 106.5,43.5 Z"/></g>
<g><path style="opacity:1" fill="#b9bed8" d="M 92.5,51.5 C 83.8333,48.8333 75.1667,48.8333 66.5,51.5C 73.3006,47.2344 80.634,46.4011 88.5,49C 90.3197,49.2004 91.653,50.0337 92.5,51.5 Z"/></g>
<g><path style="opacity:1" fill="#daddea" d="M 103.5,45.5 C 96.5084,53.5387 95.8417,52.872 101.5,43.5C 103.203,42.3398 103.869,43.0065 103.5,45.5 Z"/></g>
<g><path style="opacity:1" fill="#e5e7f1" d="M 89.5,40.5 C 90.4646,41.7211 90.298,43.0544 89,44.5C 88.1627,46.0074 86.9961,46.5074 85.5,46C 86.965,44.2258 88.2983,42.3925 89.5,40.5 Z"/></g>
<g><path style="opacity:1" fill="#dfe1ed" d="M 77.5,40.5 C 75.3757,42.0592 73.709,44.0592 72.5,46.5C 71.635,47.5827 70.635,47.7494 69.5,47C 71.8785,44.4005 73.8785,41.5672 75.5,38.5C 76.9335,37.1667 78.2668,35.6667 79.5,34C 80.1667,33.3333 80.8333,33.3333 81.5,34C 79.7682,35.9719 78.4348,38.1386 77.5,40.5 Z"/></g>
<g><path style="opacity:1" fill="#e3e5f0" d="M 73.5,37.5 C 73.5,37.8333 73.5,38.1667 73.5,38.5C 72.1911,41.7777 70.3578,44.7777 68,47.5C 67.1627,49.0074 65.9961,49.5074 64.5,49C 67.6404,45.1882 70.6404,41.3549 73.5,37.5 Z"/></g>
<g><path style="opacity:1" fill="#e1e3ee" d="M 97.5,36.5 C 95.5593,40.2007 93.226,43.7007 90.5,47C 89.8333,47.6667 89.1667,47.6667 88.5,47C 89.965,45.2258 91.2983,43.3925 92.5,41.5C 93.5,39.1667 95.1667,37.5 97.5,36.5 Z"/></g>
<g><path style="opacity:1" fill="#e8eaf2" d="M 72.5,35.5 C 72.5,35.8333 72.5,36.1667 72.5,36.5C 68.0194,42.0972 63.5194,47.7639 59,53.5C 62.7655,46.6812 67.0988,40.0145 72,33.5C 72.4643,34.0944 72.631,34.7611 72.5,35.5 Z"/></g>
<g><path style="opacity:1" fill="#e2e4ef" d="M 86.5,32.5 C 83.03,36.817 79.6966,41.317 76.5,46C 75.8333,46.6667 75.1667,46.6667 74.5,46C 75.7577,44.2591 76.7577,42.4258 77.5,40.5C 79.969,37.8562 82.3024,35.0228 84.5,32C 85.4368,31.3083 86.1034,31.475 86.5,32.5 Z"/></g>
<g><path style="opacity:1" fill="#e0e2ee" d="M 53.5,47.5 C 47.8333,54.8333 42.1667,62.1667 36.5,69.5C 41.5538,60.4186 47.3871,51.7519 54,43.5C 54.5791,44.9285 54.4124,46.2618 53.5,47.5 Z"/></g>
<g><path style="opacity:1" fill="#e4e6f0" d="M 54.5,48.5 C 54.6495,49.552 54.4828,50.552 54,51.5C 48.9208,58.3983 44.0874,65.3983 39.5,72.5C 38.1667,72.5 37.5,71.8333 37.5,70.5C 43.1667,63.1667 48.8333,55.8333 54.5,48.5 Z"/></g>
<g><path style="opacity:1" fill="#e9ebf3" d="M 67.5,60.5 C 75.2717,59.8925 76.6051,59.8925 71.5,60.5C 71.1975,65.43 71.5308,70.2633 72.5,75C 68.1667,75.6667 63.8333,75.6667 59.5,75C 60.4558,71.6064 60.7892,68.1064 60.5,64.5C 58.0929,63.5483 60.4262,63.5483 67.5,64.5C 66.6086,65.5896 65.6086,65.5896 64.5,64.5C 63.513,67.7683 63.1796,71.1016 63.5,74.5C 65.1667,74.5 66.8333,74.5 68.5,74.5C 68.8195,69.6367 68.4861,64.97 67.5,60.5 Z"/></g>
<g><path style="opacity:1" fill="#f6f7fa" d="M 93.5,70.5 C 94.7079,71.2341 96.0413,71.5674 97.5,71.5C 97.6747,69.3792 97.3414,67.3792 96.5,65.5C 96.811,64.5222 97.4777,63.8555 98.5,63.5C 99.4733,67.5551 100.14,71.3885 100.5,75C 98.8333,75.6667 97.1667,75.6667 95.5,75C 98.2297,73.7684 98.063,72.935 95,72.5C 92.7586,72.6801 92.2586,73.5135 93.5,75C 91.8333,75.6667 90.1667,75.6667 88.5,75C 89.3372,71.4191 89.6705,67.9191 89.5,64.5C 90.1667,64.1667 90.8333,63.8333 91.5,63.5C 92.0647,66.5808 92.7313,68.9142 93.5,70.5 Z"/></g>
<g><path style="opacity:1" fill="#5661a0" d="M 53.5,47.5 C 54.1667,47.5 54.5,47.8333 54.5,48.5C 48.8333,55.8333 43.1667,63.1667 37.5,70.5C 36.8333,70.5 36.5,70.1667 36.5,69.5C 42.1667,62.1667 47.8333,54.8333 53.5,47.5 Z"/></g>
<g><path style="opacity:1" fill="#999ec6" d="M 124.5,64.5 C 125.376,64.3691 126.043,64.7025 126.5,65.5C 124.192,66.8734 123.525,66.5401 124.5,64.5 Z"/></g>
<g><path style="opacity:1" fill="#e6e8f1" d="M 117.5,60.5 C 118.167,60.5 118.5,60.8333 118.5,61.5C 115.864,64.3098 113.364,67.3098 111,70.5C 111.874,66.4404 114.041,63.107 117.5,60.5 Z"/></g>
<g><path style="opacity:1" fill="#eaebf3" d="M 74.5,64.5 C 75.6009,63.4017 76.9343,63.235 78.5,64C 77.1575,69.6044 78.1575,69.7711 81.5,64.5C 82.723,63.3861 84.0563,63.2195 85.5,64C 83.5448,64.9533 81.8782,66.2866 80.5,68C 82.1667,70.3333 83.8333,72.6667 85.5,75C 84.2068,75.49 82.8734,75.6567 81.5,75.5C 81.3921,73.2166 80.5588,71.2166 79,69.5C 76.8515,71.5723 77.0182,73.4056 79.5,75C 77.5,75.6667 75.5,75.6667 73.5,75C 74.7201,73.4747 75.3868,71.6413 75.5,69.5C 75.4932,67.6307 75.1599,65.964 74.5,64.5 Z"/></g>
<g><path style="opacity:1" fill="#8e96c0" d="M 96.5,65.5 C 97.3414,67.3792 97.6747,69.3792 97.5,71.5C 96.0413,71.5674 94.7079,71.2341 93.5,70.5C 94.2632,68.6316 95.2632,66.9649 96.5,65.5 Z"/></g>
<g><path style="opacity:1" fill="#e4e5f0" d="M 41.5,76.5 C 41.5,76.1667 41.5,75.8333 41.5,75.5C 44.5211,72.6336 47.0211,69.3003 49,65.5C 49.6543,64.3044 50.1543,64.3044 50.5,65.5C 48.1979,69.633 45.6979,73.633 43,77.5C 41.8932,78.7119 41.3932,78.3786 41.5,76.5 Z"/></g>
<g><path style="opacity:1" fill="#e1e3ee" d="M 118.5,61.5 C 119.833,61.5 120.5,62.1667 120.5,63.5C 117.578,67.6006 114.411,71.6006 111,75.5C 110.333,74.5 110.333,73.5 111,72.5C 114.138,69.2084 116.638,65.5418 118.5,61.5 Z"/></g>
<g><path style="opacity:1" fill="#dcdeec" d="M 119.5,70.5 C 116.203,73.7365 113.37,77.4031 111,81.5C 110.833,81 110.667,80.5 110.5,80C 113.981,74.3566 117.648,68.8566 121.5,63.5C 122.077,62.2267 122.743,62.2267 123.5,63.5C 121.89,65.7254 120.557,68.0587 119.5,70.5 Z"/></g>
<g><path style="opacity:1" fill="#e4e6f0" d="M 120.5,70.5 C 120.833,70.5 121.167,70.5 121.5,70.5C 118.305,76.5409 114.472,82.2076 110,87.5C 109.333,86.5 109.333,85.5 110,84.5C 113.752,79.9825 117.252,75.3158 120.5,70.5 Z"/></g>
<g><path style="opacity:1" fill="#dbdeeb" d="M 40.5,86.5 C 39.1667,86.5 38.5,85.8333 38.5,84.5C 42.1834,80.9749 45.3501,76.9749 48,72.5C 48.6667,73.5 48.6667,74.5 48,75.5C 44.9955,78.8488 42.4955,82.5155 40.5,86.5 Z"/></g>
<g><path style="opacity:1" fill="#bdc1da" d="M 103.5,79.5 C 100.645,78.1968 97.6447,78.1968 94.5,79.5C 95.981,80.944 95.6477,81.6106 93.5,81.5C 93.5,80.8333 93.1667,80.5 92.5,80.5C 92.6716,79.5084 92.3382,78.8417 91.5,78.5C 88.6447,77.1968 85.6447,77.1968 82.5,78.5C 81.0866,81.4563 79.2533,84.123 77,86.5C 76.6672,83.3325 77.5005,80.4991 79.5,78C 75.5138,77.5012 71.5138,77.3345 67.5,77.5C 67.5,78.5 67.5,79.5 67.5,80.5C 67.1667,80.5 66.8333,80.5 66.5,80.5C 65.7321,79.7375 65.2321,78.7375 65,77.5C 64.6012,77.7284 64.4346,78.0618 64.5,78.5C 61.8333,78.5 59.1667,78.5 56.5,78.5C 55.3915,77.71 54.0581,77.21 52.5,77C 70.5,76.3333 88.5,76.3333 106.5,77C 105.309,77.6979 104.309,78.5313 103.5,79.5 Z"/></g>
<g><path style="opacity:1" fill="#3b4991" d="M 91.5,78.5 C 88.9327,88.7629 82.5994,91.9296 72.5,88C 69.8002,86.1433 68.1335,83.6433 67.5,80.5C 67.5,79.5 67.5,78.5 67.5,77.5C 71.5138,77.3345 75.5138,77.5012 79.5,78C 77.5005,80.4991 76.6672,83.3325 77,86.5C 79.2533,84.123 81.0866,81.4563 82.5,78.5C 85.6447,77.1968 88.6447,77.1968 91.5,78.5 Z"/></g>
<g><path style="opacity:1" fill="#f1f2f7" d="M 28.5,78.5 C 30.6569,79.0533 30.4903,80.0533 28,81.5C 27.5304,80.4232 27.6971,79.4232 28.5,78.5 Z"/></g>
<g><path style="opacity:1" fill="#fafafc" d="M 56.5,78.5 C 59.1667,78.5 61.8333,78.5 64.5,78.5C 63.5525,79.9779 62.2191,80.9779 60.5,81.5C 58.549,81.2267 57.049,81.8934 56,83.5C 55.5172,82.552 55.3505,81.552 55.5,80.5C 55.3284,79.5084 55.6618,78.8417 56.5,78.5 Z"/></g>
<g><path style="opacity:1" fill="#e4e5f0" d="M 126.5,76.5 C 127.376,76.3691 128.043,76.7025 128.5,77.5C 126.851,81.1574 124.517,83.4907 121.5,84.5C 123.689,82.1133 125.356,79.4466 126.5,76.5 Z"/></g>
<g><path style="opacity:1" fill="#e7e8f1" d="M 32.5,77.5 C 33.3764,77.3691 34.0431,77.7025 34.5,78.5C 29.3748,85.036 28.7082,84.7026 32.5,77.5 Z"/></g>
<g><path style="opacity:1" fill="#dbddeb" d="M 38.5,78.5 C 37.1103,79.8993 36.1103,81.5659 35.5,83.5C 33.6262,85.0948 32.7929,84.7615 33,82.5C 34.5292,81.2713 35.6959,79.7713 36.5,78C 37.4368,77.3083 38.1034,77.475 38.5,78.5 Z"/></g>
<g><path style="opacity:1" fill="#e5e7f0" d="M 46.5,79.5 C 46.4798,82.838 44.9798,85.838 42,88.5C 42.7263,85.2286 44.2263,82.2286 46.5,79.5 Z"/></g>
<g><path style="opacity:1" fill="#b6bbd6" d="M 54.5,62.5 C 48.3162,77.4279 50.9829,90.4279 62.5,101.5C 52.0752,94.2955 47.9085,84.2955 50,71.5C 50.6633,67.9647 52.1633,64.9647 54.5,62.5 Z"/></g>
<g><path style="opacity:1" fill="#bec2db" d="M 104.5,62.5 C 107.825,66.6383 109.492,71.4716 109.5,77C 109.799,83.7518 107.799,89.5851 103.5,94.5C 106.272,89.0136 107.939,83.1802 108.5,77C 107.858,71.9467 106.525,67.1133 104.5,62.5 Z"/></g>
<g><path style="opacity:1" fill="#d6d8e8" d="M 38.5,84.5 C 36.8041,86.129 35.8041,85.7957 35.5,83.5C 37.1454,82.5213 38.4787,81.188 39.5,79.5C 39.8333,79.8333 40.1667,80.1667 40.5,80.5C 39.3698,81.6223 38.7031,82.9557 38.5,84.5 Z"/></g>
<g><path style="opacity:1" fill="#969dc5" d="M 55.5,80.5 C 55.3505,81.552 55.5172,82.552 56,83.5C 57.049,81.8934 58.549,81.2267 60.5,81.5C 59.0736,82.3412 57.7403,83.3412 56.5,84.5C 55.4138,84.38 54.7472,83.7133 54.5,82.5C 54.5427,81.5836 54.8761,80.9169 55.5,80.5 Z"/></g>
<g><path style="opacity:1" fill="#e2e3ef" d="M 91.5,78.5 C 92.3382,78.8417 92.6716,79.5084 92.5,80.5C 91.6062,83.9566 89.9395,86.9566 87.5,89.5C 80.0089,92.9462 73.5089,91.6129 68,85.5C 66.9914,83.9751 66.4914,82.3084 66.5,80.5C 66.8333,80.5 67.1667,80.5 67.5,80.5C 68.1335,83.6433 69.8002,86.1433 72.5,88C 82.5994,91.9296 88.9327,88.7629 91.5,78.5 Z"/></g>
<g><path style="opacity:1" fill="#e2e4ef" d="M 127.5,85.5 C 125.626,87.0948 124.793,86.7615 125,84.5C 126.62,82.7585 128.12,80.9252 129.5,79C 130.167,78.3333 130.833,78.3333 131.5,79C 129.768,80.9719 128.435,83.1386 127.5,85.5 Z"/></g>
<g><path style="opacity:1" fill="#edeef5" d="M 103.5,79.5 C 102.232,80.787 102.565,81.787 104.5,82.5C 103.687,83.8139 102.687,84.9805 101.5,86C 102.647,88.0846 101.98,89.5846 99.5,90.5C 100.462,92.8833 99.462,93.8833 96.5,93.5C 96.67,94.8221 96.3366,95.9887 95.5,97C 93.0119,98.4618 90.3452,99.4618 87.5,100C 87.8333,100.333 88.1667,100.667 88.5,101C 85.1153,102.199 81.7819,102.366 78.5,101.5C 77.7904,99.2537 77.2904,96.9204 77,94.5C 76.2782,97.2605 76.4448,99.9272 77.5,102.5C 75.629,102.141 74.129,101.141 73,99.5C 71.3141,102.022 69.9808,101.689 69,98.5C 68.586,98.9574 68.086,99.2907 67.5,99.5C 66.2311,97.8199 64.5644,96.6532 62.5,96C 61.8095,94.9326 61.3095,93.7659 61,92.5C 60.3333,93.8333 59.6667,93.8333 59,92.5C 57.8604,89.8981 57.0271,87.2314 56.5,84.5C 57.7403,83.3412 59.0736,82.3412 60.5,81.5C 62.288,81.2148 63.9547,81.5481 65.5,82.5C 64.9747,83.1924 64.3081,83.6924 63.5,84C 67.0282,85.8653 69.5282,88.6986 71,92.5C 74.0469,92.0712 77.2136,92.0712 80.5,92.5C 80.5267,100.394 81.1934,100.394 82.5,92.5C 83.9029,92.3602 85.4029,92.3602 87,92.5C 87.4828,91.552 87.6495,90.552 87.5,89.5C 89.2554,88.9278 90.9221,88.0945 92.5,87C 92.1667,86.6667 91.8333,86.3333 91.5,86C 93.0368,84.8904 93.7035,83.3904 93.5,81.5C 95.6477,81.6106 95.981,80.944 94.5,79.5C 97.6447,78.1968 100.645,78.1968 103.5,79.5 Z"/></g>
<g><path style="opacity:1" fill="#7e86b7" d="M 92.5,80.5 C 93.1667,80.5 93.5,80.8333 93.5,81.5C 93.7035,83.3904 93.0368,84.8904 91.5,86C 91.8333,86.3333 92.1667,86.6667 92.5,87C 90.9221,88.0945 89.2554,88.9278 87.5,89.5C 89.9395,86.9566 91.6062,83.9566 92.5,80.5 Z"/></g>
<g><path style="opacity:1" fill="#daddea" d="M 127.5,85.5 C 129.55,83.7632 131.383,81.7632 133,79.5C 132.653,82.712 131.153,85.3787 128.5,87.5C 127.702,87.0431 127.369,86.3764 127.5,85.5 Z"/></g>
<g><path style="opacity:1" fill="#e6e7f1" d="M 124.5,74.5 C 125.573,75.2506 125.74,76.2506 125,77.5C 122.946,80.0472 121.113,82.7139 119.5,85.5C 113.43,92.6347 108.097,100.301 103.5,108.5C 102.833,108.5 102.5,108.833 102.5,109.5C 97.7774,115.253 93.2774,121.253 89,127.5C 88.5357,126.906 88.369,126.239 88.5,125.5C 89.7515,123.999 90.7515,122.332 91.5,120.5C 102.978,105.557 113.978,90.2237 124.5,74.5 Z"/></g>
<g><path style="opacity:1" fill="#e5e7f1" d="M 134.5,81.5 C 135.239,81.369 135.906,81.5357 136.5,82C 135.36,83.9734 134.027,85.8067 132.5,87.5C 132.167,87.1667 131.833,86.8333 131.5,86.5C 132.763,84.9713 133.763,83.3046 134.5,81.5 Z"/></g>
<g><path style="opacity:1" fill="#e3e5ef" d="M 139.5,84.5 C 138.167,85.1667 137.167,86.1667 136.5,87.5C 135.761,87.631 135.094,87.4643 134.5,87C 135.787,85.5905 136.954,84.0905 138,82.5C 138.717,83.0442 139.217,83.7109 139.5,84.5 Z"/></g>
<g><path style="opacity:1" fill="#7179af" d="M 139.5,84.5 C 140.492,84.3284 141.158,84.6618 141.5,85.5C 140.244,85.4614 139.244,85.9614 138.5,87C 139.577,87.4696 140.577,87.3029 141.5,86.5C 143.088,87.6353 143.421,88.9686 142.5,90.5C 140.68,89.1171 138.68,88.1171 136.5,87.5C 137.167,86.1667 138.167,85.1667 139.5,84.5 Z"/></g>
<g><path style="opacity:1" fill="#e7e9f1" d="M 141.5,85.5 C 141.5,85.8333 141.5,86.1667 141.5,86.5C 140.577,87.3029 139.577,87.4696 138.5,87C 139.244,85.9614 140.244,85.4614 141.5,85.5 Z"/></g>
<g><path style="opacity:1" fill="#e7e9f1" d="M 120.5,87.5 C 120.5,89.5 119.5,90.5 117.5,90.5C 118.167,89.1667 119.167,88.1667 120.5,87.5 Z"/></g>
<g><path style="opacity:1" fill="#e6e8f1" d="M 39.5,89.5 C 40.2389,89.369 40.9056,89.5357 41.5,90C 38.5264,93.1278 36.1931,96.6278 34.5,100.5C 33.5768,101.303 32.5768,101.47 31.5,101C 33.9971,97.0107 36.6638,93.1773 39.5,89.5 Z"/></g>
<g><path style="opacity:1" fill="#8c94bf" d="M 66.5,80.5 C 66.4914,82.3084 66.9914,83.9751 68,85.5C 73.5089,91.6129 80.0089,92.9462 87.5,89.5C 87.6495,90.552 87.4828,91.552 87,92.5C 85.4029,92.3602 83.9029,92.3602 82.5,92.5C 81.1934,100.394 80.5267,100.394 80.5,92.5C 77.2136,92.0712 74.0469,92.0712 71,92.5C 69.5282,88.6986 67.0282,85.8653 63.5,84C 64.3081,83.6924 64.9747,83.1924 65.5,82.5C 63.9547,81.5481 62.288,81.2148 60.5,81.5C 62.2191,80.9779 63.5525,79.9779 64.5,78.5C 64.4346,78.0618 64.6012,77.7284 65,77.5C 65.2321,78.7375 65.7321,79.7375 66.5,80.5 Z"/></g>
<g><path style="opacity:1" fill="#9ea5c9" d="M 120.5,90.5 C 122.337,90.6395 122.67,91.3061 121.5,92.5C 120.702,92.0431 120.369,91.3764 120.5,90.5 Z"/></g>
<g><path style="opacity:1" fill="#e7e8f1" d="M 37.5,100.5 C 37.5,101.167 37.1667,101.5 36.5,101.5C 35.475,101.103 35.3083,100.437 36,99.5C 51.6827,78.1995 52.1827,78.5329 37.5,100.5 Z"/></g>
<g><path style="opacity:1" fill="#e1e3ee" d="M 18.5,92.5 C 20.9752,92.7467 20.9752,93.4134 18.5,94.5C 17.537,94.0302 17.537,93.3635 18.5,92.5 Z"/></g>
<g><path style="opacity:1" fill="#e2e3ef" d="M 42.5,99.5 C 41.5178,100.141 40.5178,100.807 39.5,101.5C 38.8933,101.376 38.56,101.043 38.5,100.5C 42.2226,96.0803 45.7226,91.4137 49,86.5C 49.5205,88.2889 49.1871,89.9556 48,91.5C 45.9098,94.0217 44.0765,96.6884 42.5,99.5 Z"/></g>
<g><path style="opacity:1" fill="#e3e5ef" d="M 117.5,91.5 C 115.923,96.691 112.923,100.691 108.5,103.5C 110.762,98.9103 113.762,94.9103 117.5,91.5 Z"/></g>
<g><path style="opacity:1" fill="#dfe1ee" d="M 21.5,93.5 C 22.2389,93.369 22.9056,93.5357 23.5,94C 20.8521,98.8325 20.1854,98.6659 21.5,93.5 Z"/></g>
<g><path style="opacity:1" fill="#e2e4ef" d="M 35.5,89.5 C 37.6456,89.6964 37.8122,90.6964 36,92.5C 34.0879,94.6572 32.4213,96.9906 31,99.5C 30.1627,101.007 28.9961,101.507 27.5,101C 30.2997,97.2249 32.9664,93.3916 35.5,89.5 Z"/></g>
<g><path style="opacity:1" fill="#dfe1ed" d="M 25.5,93.5 C 26.2389,93.369 26.9056,93.5357 27.5,94C 26.1196,95.9252 24.6196,97.7585 23,99.5C 22.9717,97.2134 23.805,95.2134 25.5,93.5 Z"/></g>
<g><path style="opacity:1" fill="#e6e8f1" d="M 49.5,100.5 C 48.609,101.11 47.609,101.443 46.5,101.5C 48.0765,98.6884 49.9098,96.0217 52,93.5C 51.7627,95.9889 50.9293,98.3222 49.5,100.5 Z"/></g>
<g><path style="opacity:1" fill="#e3e5ef" d="M 29.5,92.5 C 30.2389,92.369 30.9056,92.5357 31.5,93C 30.3333,94.8333 29.1667,96.6667 28,98.5C 27.1627,100.007 25.9961,100.507 24.5,100C 26.3887,97.6182 28.0553,95.1182 29.5,92.5 Z"/></g>
<g><path style="opacity:1" fill="#5863a1" d="M 119.5,85.5 C 119.833,86.1667 120.167,86.8333 120.5,87.5C 119.167,88.1667 118.167,89.1667 117.5,90.5C 117.5,90.8333 117.5,91.1667 117.5,91.5C 113.762,94.9103 110.762,98.9103 108.5,103.5C 107.833,103.5 107.5,103.833 107.5,104.5C 106.167,106.167 104.833,107.833 103.5,109.5C 103.5,109.167 103.5,108.833 103.5,108.5C 108.097,100.301 113.43,92.6347 119.5,85.5 Z"/></g>
<g><path style="opacity:1" fill="#e5e6f1" d="M 45.5,100.5 C 44.3478,101.625 43.3478,101.625 42.5,100.5C 45.2226,97.4137 47.7226,94.0804 50,90.5C 50.6667,91.5 50.6667,92.5 50,93.5C 48.2765,95.7167 46.7765,98.05 45.5,100.5 Z"/></g>
<g><path style="opacity:1" fill="#a5abcd" d="M 78.5,101.5 C 78.5,102.167 78.1667,102.5 77.5,102.5C 76.4448,99.9272 76.2782,97.2605 77,94.5C 77.2904,96.9204 77.7904,99.2537 78.5,101.5 Z"/></g>
<g><path style="opacity:1" fill="#c7cce0" d="M 103.5,94.5 C 102.167,97.8333 99.8333,100.167 96.5,101.5C 98.5,98.8333 100.833,96.5 103.5,94.5 Z"/></g>
<g><path style="opacity:1" fill="#e4e6f0" d="M 123.5,72.5 C 113.236,88.7003 102.236,104.367 90.5,119.5C 90.5,118.5 90.5,117.5 90.5,116.5C 101.5,101.833 112.5,87.1667 123.5,72.5 Z"/></g>
<g><path style="opacity:1" fill="#e5e7f1" d="M 52.5,101.5 C 52.1667,101.5 51.8333,101.5 51.5,101.5C 50.9569,101.44 50.6236,101.107 50.5,100.5C 54.2971,95.3007 54.9637,95.634 52.5,101.5 Z"/></g>
<g><path style="opacity:1" fill="#e6e8f1" d="M 55.5,98.5 C 56.522,99.8917 56.1887,101.225 54.5,102.5C 54.1667,102.167 53.8333,101.833 53.5,101.5C 54.1925,100.482 54.8592,99.4822 55.5,98.5 Z"/></g>
<g><path style="opacity:1" fill="#eaebf3" d="M 117.5,94.5 C 117.434,98.6383 115.601,102.305 112,105.5C 113.494,101.789 115.328,98.1224 117.5,94.5 Z"/></g>
<g><path style="opacity:1" fill="#e4e6f0" d="M 51.5,112.5 C 50.6365,113.463 49.9698,113.463 49.5,112.5C 51.1933,109.816 52.86,107.149 54.5,104.5C 55.8846,103.426 57.0513,102.093 58,100.5C 58.6667,101.5 58.6667,102.5 58,103.5C 55.6148,106.379 53.4482,109.379 51.5,112.5 Z"/></g>
<g><path style="opacity:1" fill="#cbcfe2" d="M 62.5,101.5 C 68.6916,104.94 75.3583,106.606 82.5,106.5C 83.4916,106.328 84.1583,106.662 84.5,107.5C 80.8333,107.5 77.1667,107.5 73.5,107.5C 69.3494,106.26 65.6827,104.26 62.5,101.5 Z"/></g>
<g><path style="opacity:1" fill="#dfe1ee" d="M 117.5,99.5 C 118.376,99.3691 119.043,99.7025 119.5,100.5C 112.729,111.178 112.062,110.845 117.5,99.5 Z"/></g>
<g><path style="opacity:1" fill="#c8cce0" d="M 96.5,101.5 C 93.3801,104.916 89.7134,106.25 85.5,105.5C 89.2749,104.445 92.9416,103.112 96.5,101.5 Z"/></g>
<g><path style="opacity:1" fill="#e4e5f0" d="M 118.5,108.5 C 117.399,109.8 116.066,110.3 114.5,110C 116.123,107.92 117.623,105.754 119,103.5C 119.384,105.197 119.218,106.863 118.5,108.5 Z"/></g>
<g><path style="opacity:1" fill="#dadcea" d="M 62.5,108.5 C 58.1396,112.82 57.1396,112.486 59.5,107.5C 60.7942,106.71 61.9609,105.71 63,104.5C 63.195,105.819 63.0283,107.153 62.5,108.5 Z"/></g>
<g><path style="opacity:1" fill="#d5d8e8" d="M 65.5,109.5 C 63.8041,111.129 62.8041,110.796 62.5,108.5C 65.5209,105.516 66.5209,105.849 65.5,109.5 Z"/></g>
<g><path style="opacity:1" fill="#e3e5ef" d="M 107.5,104.5 C 107.509,106.308 107.009,107.975 106,109.5C 105.023,110.774 104.189,110.774 103.5,109.5C 104.833,107.833 106.167,106.167 107.5,104.5 Z"/></g>
<g><path style="opacity:1" fill="#dfe1ed" d="M 66.5,111.5 C 66.0658,108.834 67.0658,107.667 69.5,108C 68.8366,109.518 67.8366,110.685 66.5,111.5 Z"/></g>
<g><path style="opacity:1" fill="#e1e3ef" d="M 90.5,115.5 C 90.1667,115.5 89.8333,115.5 89.5,115.5C 89.0618,115.565 88.7284,115.399 88.5,115C 91.0373,112.094 93.204,108.927 95,105.5C 96.1133,103.671 97.6133,102.837 99.5,103C 96.1229,106.931 93.1229,111.098 90.5,115.5 Z"/></g>
<g><path style="opacity:1" fill="#c5c8df" d="M 48.5,108.5 C 49.2389,108.369 49.9056,108.536 50.5,109C 48.981,110.351 47.6477,111.851 46.5,113.5C 46.1667,113.167 45.8333,112.833 45.5,112.5C 46.5244,111.148 47.5244,109.815 48.5,108.5 Z"/></g>
<g><path style="opacity:1" fill="#e2e3ef" d="M 59.5,107.5 C 57.6053,108.973 55.9387,110.64 54.5,112.5C 54.0618,112.565 53.7284,112.399 53.5,112C 55.4672,108.567 57.8005,105.4 60.5,102.5C 60.8333,102.833 61.1667,103.167 61.5,103.5C 60.3698,104.622 59.7031,105.956 59.5,107.5 Z"/></g>
<g><path style="opacity:1" fill="#5964a2" d="M 123.5,72.5 C 124.338,72.8417 124.672,73.5084 124.5,74.5C 113.978,90.2237 102.978,105.557 91.5,120.5C 89.7761,120.539 89.4427,120.206 90.5,119.5C 102.236,104.367 113.236,88.7003 123.5,72.5 Z"/></g>
<g><path style="opacity:1" fill="#e2e4ef" d="M 74.5,108.5 C 74.8333,108.5 75.1667,108.5 75.5,108.5C 73.0952,112.973 70.4285,117.306 67.5,121.5C 66.5,123.167 65.1667,124.5 63.5,125.5C 63.0618,125.565 62.7284,125.399 62.5,125C 66.7182,119.622 70.7182,114.122 74.5,108.5 Z"/></g>
<g><path style="opacity:1" fill="#e3e4ef" d="M 86.5,116.5 C 84.1975,118.978 82.0308,121.645 80,124.5C 79.3872,122.505 79.8872,120.838 81.5,119.5C 84.601,115.489 87.601,111.322 90.5,107C 91.1667,106.333 91.8333,106.333 92.5,107C 90.3534,110.139 88.3534,113.305 86.5,116.5 Z"/></g>
<g><path style="opacity:1" fill="#dee0ed" d="M 118.5,108.5 C 119.376,108.369 120.043,108.702 120.5,109.5C 116.703,114.699 116.036,114.366 118.5,108.5 Z"/></g>
<g><path style="opacity:1" fill="#e5e6f0" d="M 77.5,109.5 C 78.2389,109.369 78.9056,109.536 79.5,110C 77.6664,112.663 75.6664,115.163 73.5,117.5C 72.9569,117.44 72.6236,117.107 72.5,116.5C 74.4216,114.313 76.0883,111.98 77.5,109.5 Z"/></g>
<g><path style="opacity:1" fill="#ebedf4" d="M 106.5,110.5 C 107.713,111.497 107.546,112.497 106,113.5C 105.53,112.423 105.697,111.423 106.5,110.5 Z"/></g>
<g><path style="opacity:1" fill="#e2e4ef" d="M 83.5,110.5 C 82.1667,111.167 81.1667,112.167 80.5,113.5C 79.7611,113.631 79.0944,113.464 78.5,113C 79.7256,111.365 81.059,109.865 82.5,108.5C 83.2975,108.957 83.6309,109.624 83.5,110.5 Z"/></g>
<g><path style="opacity:1" fill="#e4e6f0" d="M 85.5,108.5 C 86.2389,108.369 86.9056,108.536 87.5,109C 85.8767,111.08 84.3767,113.246 83,115.5C 82.3872,113.505 82.8872,111.838 84.5,110.5C 84.8333,109.833 85.1667,109.167 85.5,108.5 Z"/></g>
<g><path style="opacity:1" fill="#606aa6" d="M 75.5,108.5 C 76.1667,108.833 76.8333,109.167 77.5,109.5C 76.0883,111.98 74.4216,114.313 72.5,116.5C 72.6236,117.107 72.9569,117.44 73.5,117.5C 72.2921,120.044 70.2921,121.378 67.5,121.5C 70.4285,117.306 73.0952,112.973 75.5,108.5 Z"/></g>
<g><path style="opacity:1" fill="#d5d8e8" d="M 119.5,112.5 C 120.376,112.369 121.043,112.702 121.5,113.5C 118.709,117.589 118.042,117.255 119.5,112.5 Z"/></g>
<g><path style="opacity:1" fill="#e3e5ef" d="M 65.5,111.5 C 65.8333,111.5 66.1667,111.5 66.5,111.5C 62.8333,116.833 59.1667,122.167 55.5,127.5C 55.1583,128.338 54.4916,128.672 53.5,128.5C 56.4737,123.851 59.4737,119.184 62.5,114.5C 63.2719,113.306 64.2719,112.306 65.5,111.5 Z"/></g>
<g><path style="opacity:1" fill="#e5e7f1" d="M 61.5,125.5 C 60.3951,126.6 59.0618,127.267 57.5,127.5C 61.9252,120.98 66.5919,114.647 71.5,108.5C 71.8333,108.667 72.1667,108.833 72.5,109C 68.4407,114.299 64.7741,119.799 61.5,125.5 Z"/></g>
<g><path style="opacity:1" fill="#cdd0e3" d="M 121.5,115.5 C 124.137,117.154 123.803,117.654 120.5,117C 121.056,116.617 121.389,116.117 121.5,115.5 Z"/></g>
<g><path style="opacity:1" fill="#606aa6" d="M 62.5,114.5 C 59.4737,119.184 56.4737,123.851 53.5,128.5C 52.8333,128.5 52.5,128.167 52.5,127.5C 53.5,125.5 54.5,123.5 55.5,121.5C 56.8997,118.1 59.2331,115.767 62.5,114.5 Z"/></g>
<g><path style="opacity:1" fill="#5964a2" d="M 102.5,109.5 C 102.5,110.167 102.5,110.833 102.5,111.5C 97.8333,117.833 93.1667,124.167 88.5,130.5C 87.2801,128.716 87.2801,127.05 88.5,125.5C 88.369,126.239 88.5357,126.906 89,127.5C 93.2774,121.253 97.7774,115.253 102.5,109.5 Z"/></g>
<g><path style="opacity:1" fill="#e4e6f0" d="M 102.5,111.5 C 99.0357,119.078 94.5357,126.078 89,132.5C 88.5357,131.906 88.369,131.239 88.5,130.5C 93.1667,124.167 97.8333,117.833 102.5,111.5 Z"/></g>
<g><path style="opacity:1" fill="#dcdeec" d="M 55.5,121.5 C 54.5,123.5 53.5,125.5 52.5,127.5C 51.609,128.11 50.609,128.443 49.5,128.5C 49.8333,127.833 50.1667,127.167 50.5,126.5C 51.8333,124.5 53.5,122.833 55.5,121.5 Z"/></g>
<g><path style="opacity:1" fill="#8287b9" d="M 50.5,126.5 C 50.1667,127.167 49.8333,127.833 49.5,128.5C 45.6472,126.167 45.9805,125.5 50.5,126.5 Z"/></g>
<g><path style="opacity:1" fill="#e0e2ee" d="M 100.5,118.5 C 101.043,118.56 101.376,118.893 101.5,119.5C 98.6142,125.383 94.9475,130.716 90.5,135.5C 89.479,134.998 89.3123,134.332 90,133.5C 93.7199,128.62 97.2199,123.62 100.5,118.5 Z"/></g>
<g><path style="opacity:1" fill="#d6d8e8" d="M 95.5,135.5 C 94.399,136.8 93.0657,137.3 91.5,137C 93.3333,134.5 95.1667,132 97,129.5C 97.322,131.689 96.822,133.689 95.5,135.5 Z"/></g>
<g><path style="opacity:1" fill="#a4a9cc" d="M 95.5,135.5 C 96.1174,135.389 96.6174,135.056 97,134.5C 97.7975,136.259 97.6309,137.926 96.5,139.5C 94.2997,138.675 93.9663,137.342 95.5,135.5 Z"/></g>
</svg>
