<?xml version="1.0" encoding="UTF-8"?>
<!DOCTYPE svg PUBLIC "-//W3C//DTD SVG 1.1//EN" "http://www.w3.org/Graphics/SVG/1.1/DTD/svg11.dtd">
<svg xmlns="http://www.w3.org/2000/svg" version="1.1" width="160px" height="160px" style="shape-rendering:geometricPrecision; text-rendering:geometricPrecision; image-rendering:optimizeQuality; fill-rule:evenodd; clip-rule:evenodd" xmlns:xlink="http://www.w3.org/1999/xlink">
<g><path style="opacity:0.996" fill="#dcdfe3" d="M -0.5,-0.5 C 52.8333,-0.5 106.167,-0.5 159.5,-0.5C 159.5,52.8333 159.5,106.167 159.5,159.5C 106.167,159.5 52.8333,159.5 -0.5,159.5C -0.5,106.167 -0.5,52.8333 -0.5,-0.5 Z"/></g>
<g><path style="opacity:1" fill="#1d609f" d="M 119.5,39.5 C 124.5,39.5 129.5,39.5 134.5,39.5C 134.141,45.8925 131.474,47.2259 126.5,43.5C 119.24,43.7136 113.406,46.7136 109,52.5C 102.667,62.5 96.3333,72.5 90,82.5C 87.3535,86.3135 84.1868,89.6469 80.5,92.5C 89.6033,79.373 98.1033,65.373 106,50.5C 109.336,45.2685 113.836,41.6018 119.5,39.5 Z"/></g>
<g><path style="opacity:1" fill="#21619f" d="M 71.5,39.5 C 80.4401,38.8387 89.1067,40.0053 97.5,43C 80.0045,39.1199 65.0045,43.4533 52.5,56C 49.7787,56.5682 47.112,56.9015 44.5,57C 51.609,48.1204 60.609,42.2871 71.5,39.5 Z"/></g>
<g><path style="opacity:1" fill="#0d5b9c" d="M 44.5,59.5 C 48.2733,59.2633 51.9399,59.7633 55.5,61C 50.4073,65.0173 48.5739,70.184 50,76.5C 53.9149,90.0826 62.4149,99.5826 75.5,105C 84.1092,108.823 93.1092,110.157 102.5,109C 105.857,107.989 109.191,107.323 112.5,107C 100.238,119.07 85.5711,123.403 68.5,120C 42.7814,110.394 32.948,92.2276 39,65.5C 40.3597,62.9774 42.193,60.9774 44.5,59.5 Z"/></g>
<g><path style="opacity:1" fill="#185a9a" d="M 122.5,82.5 C 119.309,83.0922 116.309,84.2589 113.5,86C 107.5,90.6667 101.5,95.3333 95.5,100C 91.4006,102.09 87.0672,103.256 82.5,103.5C 79.2432,102.538 76.2432,101.038 73.5,99C 77.5,98.6667 81.5,98.3333 85.5,98C 87.1667,97 88.8333,96 90.5,95C 98.8333,86 107.167,77 115.5,68C 121.792,66.3473 128.126,66.1806 134.5,67.5C 130.476,72.5189 126.476,77.5189 122.5,82.5 Z"/></g>
<g><path style="opacity:1" fill="#ec2028" d="M 122.5,82.5 C 127.165,82.1178 131.499,83.1178 135.5,85.5C 129.445,92.3551 122.778,98.5218 115.5,104C 104.307,108.808 93.3074,108.641 82.5,103.5C 87.0672,103.256 91.4006,102.09 95.5,100C 101.5,95.3333 107.5,90.6667 113.5,86C 116.309,84.2589 119.309,83.0922 122.5,82.5 Z"/></g>
</svg>
