<svg id="Слой_1" data-name="Слой 1" xmlns="http://www.w3.org/2000/svg" viewBox="0 0 48 48"><defs><style>.cls-2,.cls-3{fill:#f7652a;fill-rule:evenodd}.cls-3{fill:#fff}</style></defs><g id="TUZA"><path fill="#091c6b" d="M0 0h48v48H0z"/><path class="cls-2" d="M32.19 25.85a.49.49 0 00-.4-.47c-.16 0-.22.13-.57.44s-.65.46-.63.58.48.28.82.18a1.13 1.13 0 00.43-.26c.16-.17.34-.32.35-.47zm-.44-2.16c-.37.05-.48.31-1.12.86a5.33 5.33 0 01-.53.43s-.58.35-.67.54a.45.45 0 000 .09.3.3 0 000 .19.26.26 0 00.17.11.63.63 0 00.37 0 2.86 2.86 0 00.78-.5l.48-.37c.15-.12.17-.14.49-.38a1.24 1.24 0 00.47-.54c0-.08.08-.22 0-.31s-.38-.13-.44-.12zm-3.4 2.96a.36.36 0 00.28 0 1.15 1.15 0 00.37-.16c.12-.07.19-.11.21-.19a.3.3 0 000-.23.29.29 0 00-.21-.17c-.1 0-.14.05-.38.23s-.38.25-.37.35a.23.23 0 00.1.17zM14.62 16.53a.33.33 0 00.42 0l.23-.22a.33.33 0 000-.39.34.34 0 00-.47 0l-.2.18a.33.33 0 00.02.43zm3.17-.94a.22.22 0 00-.08-.12c-.14-.1-.38 0-.47 0a4.1 4.1 0 00-1.32 1.11l-.1.11a.36.36 0 00.08.4.37.37 0 00.49 0 17.55 17.55 0 011.33-1.29.29.29 0 00.07-.21zm3.32-1.35a.43.43 0 00-.51-.13.75.75 0 00-.14.11.67.67 0 00-.13.12.49.49 0 00-.07.21.47.47 0 000 .2c.07.2.51.18.6.14l.14-.07a.24.24 0 00.12-.1.43.43 0 00-.01-.48z"/><path class="cls-2" d="M37.9 14c-.87-1.49-3.13-2.22-5.82-2.23a18.06 18.06 0 00-9.83 3.08 22.13 22.13 0 00-2.66 2l-.53.5a17.35 17.35 0 00-2.71 3.44.36.36 0 11-.62-.37 18.07 18.07 0 012.83-3.58l.06-.06.15-.15.15-.14s.2-.23.11-.38-.26-.12-.32-.12a.68.68 0 00-.17 0l-.11.05a16.84 16.84 0 00-3.89 4.62.31.31 0 01-.54-.31A17.52 17.52 0 0115.66 18a.41.41 0 000-.46c-.14-.15-.58 0-.61 0a20.8 20.8 0 00-1.92 2.34.34.34 0 01-.56-.39 21.48 21.48 0 012-2.43.39.39 0 00-.08-.3.42.42 0 00-.54 0l-.22.22q-.36.38-.7.76c-2.78 3.2-3.84 6.71-2.38 9.08 1.61 2.62 5.83 3.12 10.46 1.59h.15a22.31 22.31 0 004.44-2.21 20.48 20.48 0 006-5.47 5 5 0 00.29-.43 12.82 12.82 0 00.81-1.43v-.05a.26.26 0 01.26 0c.13.06.16.24.17.32.06.42-.34.92-.64 1.32-.9 1.2-.81 1.1-1 1.36a7.65 7.65 0 01-1.28 1.31c-.18.16-.49.43-.44.67a.34.34 0 00.21.23.49.49 0 00.35-.06 1.42 1.42 0 00.3-.17c.38-.28.55-.44.55-.44a9 9 0 00.7-.67 11.55 11.55 0 001-1.23l.44-.61c.39-.53.52-.71.73-.72a.4.4 0 01.37.18.27.27 0 010 .19 6.39 6.39 0 01-1 1.35c-.45.5-.52.55-.53.7s0 .25.13.33.19 0 .4-.05a3.3 3.3 0 001-.82 4.43 4.43 0 00.42-.47c.12-.16.21-.32.3-.46l.19-.32c.25-.43.28-.47.42-.77a1.14 1.14 0 01.59-.67.25.25 0 01.11 0c.06 0 .23 0 .29.07s.09.16-.34.91c-.12.21-.22.37-.29.49a14 14 0 01-1.23 1.55l-.45.51c-.17.19-.22.4-.15.5a.27.27 0 00.16.09c.38.07 1.15-.77 1.15-.77a12 12 0 00.93-1.11 21.57 21.57 0 001.26-1.94A7 7 0 0037.9 14zm-25.3 6.81c-.09.16-.18.33-.26.5a7.77 7.77 0 00-.35.86.37.37 0 01-.35.25h-.12a.37.37 0 01-.24-.47 8.52 8.52 0 01.38-.94c.09-.18.18-.37.28-.54a.37.37 0 01.65.37zm.89 2.27a.46.46 0 000 .1v.06a.31.31 0 01-.31.27.31.31 0 01-.27-.35 1.07 1.07 0 01.13-.38.31.31 0 11.54.31zm.58-1.56a1.5 1.5 0 00-.26.54.34.34 0 01-.33.26h-.08a.34.34 0 01-.25-.41 2.18 2.18 0 01.37-.79.34.34 0 01.55.41zm12.81 2.58c-4 2.78-8.48 3.3-10 1.15s.57-6.14 4.59-8.93 8.48-3.3 10-1.15-.57 6.15-4.59 8.93zm7-6a.74.74 0 01-.29.39s-.28.17-.41.07a.31.31 0 01-.08-.26q.1-.25.18-.49c.1-.23.16-.29.22-.33a.35.35 0 01.33 0c.17.02.09.39.02.59zm1.42.77a.92.92 0 01-.19.41 1.35 1.35 0 01-.3.33c-.14.11-.26.2-.35.16s-.16-.27-.13-.43.08-.15.23-.42.15-.25.21-.36a.31.31 0 01.43-.11c.12.06.08.34.07.39z"/><path class="cls-3" d="M16.3 11.5h-3.1v.57h.91l-1.06 3.36h2.99v-.58h-.8l1.06-3.35zm-5.99 0h-1v.57h1v3.36h1.66v-3.36h.93v-.57h-2.59zm8.32 3.93h1.64l-1.54-3.93h-.84l-1.7 3.93h.56l.22-.51h1.46zm-1.48-.95l.58-1.34.53 1.34z"/><circle cx="23.75" cy="20.36" r="2.32" fill="#fff"/><path fill="#f7652a" d="M9.94 29.78h28.75v.68H9.94z"/><path class="cls-3" d="M37.94 24.81h-3.97v-1.27l-.58-.58h-1.01v6.1h1.59v-2.91h.67v2.91h1.58v-2.91h.68v2.91h1.58v-3.71l-.54-.54zM19.14 36.5h2.24l-2.25-5.67h-.9l-.73 1.55-1.63 3.47-1.77-3.4 2-1.61h-1.2l-2 1.61-.8.65v-2.27H9.94v5.67h2.18v-2.44l.24-.2 1.38 2.64h2.62l.32-.68h2.19zM17 35.16l.88-1.88.75 1.88zm10.36-4.33h-.99L25 33.64l-1.45-2.81h-2.17v5.67h.83v-2.96l1.53 2.96h.84l.92-1.88.67-1.35v3.23h2.38v-5.67h-1.19z"/><path class="cls-3" d="M31.91 36.5h2.24l-2.22-5.67H31l-.68 1.52-1.9 4.15h.7l.31-.68h2.22zm-2.18-1.35l.88-2 .77 2z"/><path class="cls-3" d="M38.6 30.83h-4.63v.86h1.49l-1.47 4.81h4.35v-.85h-1.21l1.47-4.82z"/></g></svg>