<?xml version="1.0" encoding="UTF-8"?>
<!DOCTYPE svg PUBLIC "-//W3C//DTD SVG 1.1//EN" "http://www.w3.org/Graphics/SVG/1.1/DTD/svg11.dtd">
<svg xmlns="http://www.w3.org/2000/svg" version="1.1" width="160px" height="160px" style="shape-rendering:geometricPrecision; text-rendering:geometricPrecision; image-rendering:optimizeQuality; fill-rule:evenodd; clip-rule:evenodd" xmlns:xlink="http://www.w3.org/1999/xlink">
<g><path style="opacity:1" fill="#022a5e" d="M -0.5,-0.5 C 52.8333,-0.5 106.167,-0.5 159.5,-0.5C 159.5,52.8333 159.5,106.167 159.5,159.5C 106.167,159.5 52.8333,159.5 -0.5,159.5C -0.5,106.167 -0.5,52.8333 -0.5,-0.5 Z"/></g>
<g><path style="opacity:1" fill="#f8bb31" d="M 87.5,29.5 C 90.6085,29.2641 93.6085,29.5975 96.5,30.5C 100.863,36.8823 104.863,43.549 108.5,50.5C 109.11,51.391 109.443,52.391 109.5,53.5C 102.5,53.5 95.5,53.5 88.5,53.5C 86.2603,52.7356 83.9269,51.9023 81.5,51C 84.7423,50.7167 85.0756,49.8834 82.5,48.5C 83.1743,46.4835 84.3409,44.8168 86,43.5C 86.7429,41.5594 86.5762,39.7261 85.5,38C 87.9725,36.2015 89.6392,33.8682 90.5,31C 89.2625,30.7679 88.2625,30.2679 87.5,29.5 Z"/></g>
<g><path style="opacity:1" fill="#fbcb50" d="M 87.5,29.5 C 88.2625,30.2679 89.2625,30.7679 90.5,31C 89.6392,33.8682 87.9725,36.2015 85.5,38C 86.5762,39.7261 86.7429,41.5594 86,43.5C 84.3409,44.8168 83.1743,46.4835 82.5,48.5C 85.0756,49.8834 84.7423,50.7167 81.5,51C 83.9269,51.9023 86.2603,52.7356 88.5,53.5C 81.1591,53.6663 73.8258,53.4997 66.5,53C 67.8333,52.3333 67.8333,51.6667 66.5,51C 67.8333,50.6667 69.1667,50.3333 70.5,50C 68.913,49.1376 67.2464,48.4709 65.5,48C 68.1876,47.1437 69.8543,45.3104 70.5,42.5C 71.413,38.0559 72.413,33.7226 73.5,29.5C 78.1667,29.5 82.8333,29.5 87.5,29.5 Z"/></g>
<g><path style="opacity:1" fill="#ebd070" d="M 96.5,30.5 C 93.6085,29.5975 90.6085,29.2641 87.5,29.5C 82.8333,29.5 78.1667,29.5 73.5,29.5C 72.413,33.7226 71.413,38.0559 70.5,42.5C 69.8543,45.3104 68.1876,47.1437 65.5,48C 67.2464,48.4709 68.913,49.1376 70.5,50C 69.1667,50.3333 67.8333,50.6667 66.5,51C 67.8333,51.6667 67.8333,52.3333 66.5,53C 73.8258,53.4997 81.1591,53.6663 88.5,53.5C 95.5,53.5 102.5,53.5 109.5,53.5C 91.3409,54.4968 73.0076,54.8302 54.5,54.5C 52.3352,54.8841 50.6685,54.2174 49.5,52.5C 54.0408,44.584 58.7075,36.7507 63.5,29C 69,28.8333 74.5,28.6667 80,28.5C 85.8762,28.5048 91.3762,29.1714 96.5,30.5 Z"/></g>
<g><path style="opacity:1" fill="#082547" d="M 108.5,50.5 C 109.995,50.4148 110.995,51.0815 111.5,52.5C 110.266,54.5524 108.6,56.219 106.5,57.5C 98.1632,56.1963 89.6632,55.5296 81,55.5C 72.4341,55.516 64.1007,56.1827 56,57.5C 55.4867,56.4734 54.9867,55.4734 54.5,54.5C 73.0076,54.8302 91.3409,54.4968 109.5,53.5C 109.443,52.391 109.11,51.391 108.5,50.5 Z"/></g>
<g><path style="opacity:1" fill="#f8b724" d="M 113.5,60.5 C 113.313,62.5643 112.813,64.5643 112,66.5C 111.781,65.062 111.281,63.7287 110.5,62.5C 109.304,62.8457 109.304,63.3457 110.5,64C 107.021,67.8862 104.521,71.7196 103,75.5C 102.683,73.6992 102.016,73.3659 101,74.5C 100.508,75.549 100.674,76.549 101.5,77.5C 101.154,78.6956 100.654,78.6956 100,77.5C 99.51,78.7932 99.3433,80.1266 99.5,81.5C 98.5,81.5 97.5,81.5 96.5,81.5C 91.9759,74.4517 87.9759,67.1183 84.5,59.5C 94.3478,59.1729 104.014,59.5062 113.5,60.5 Z"/></g>
<g><path style="opacity:1" fill="#f8de76" d="M 69.5,70.5 C 68.2058,66.7771 67.0391,66.7771 66,70.5C 63,69.8333 60,69.1667 57,68.5C 55.7567,69.3363 54.5901,69.003 53.5,67.5C 51.604,66.5344 49.604,66.2011 47.5,66.5C 47.8896,71.4224 46.7229,71.7557 44,67.5C 42.5315,68.9893 41.0315,70.3226 39.5,71.5C 41.3468,67.6415 43.3468,63.8082 45.5,60C 55.1609,59.5002 64.8276,59.3335 74.5,59.5C 73.6421,63.548 71.9755,67.2147 69.5,70.5 Z"/></g>
<g><path style="opacity:1" fill="#f7d162" d="M 69.5,70.5 C 66.321,76.8697 62.6543,82.8697 58.5,88.5C 58.5,86.5 58.5,84.5 58.5,82.5C 55.1155,82.0248 52.7822,83.3582 51.5,86.5C 47.6482,83.8757 43.6482,81.5424 39.5,79.5C 39.6938,81.2633 39.6938,83.0967 39.5,85C 37.4144,85.6266 37.0811,85.1266 38.5,83.5C 37.8333,83.1667 37.1667,82.8333 36.5,82.5C 34.7772,84.2181 32.7772,85.5514 30.5,86.5C 33.1101,81.2329 36.1101,76.2329 39.5,71.5C 41.0315,70.3226 42.5315,68.9893 44,67.5C 46.7229,71.7557 47.8896,71.4224 47.5,66.5C 49.604,66.2011 51.604,66.5344 53.5,67.5C 54.5901,69.003 55.7567,69.3363 57,68.5C 60,69.1667 63,69.8333 66,70.5C 67.0391,66.7771 68.2058,66.7771 69.5,70.5 Z"/></g>
<g><path style="opacity:1" fill="#f9c341" d="M 113.5,60.5 C 115.664,62.822 117.331,65.4887 118.5,68.5C 118.279,69.7348 117.612,70.7348 116.5,71.5C 117.311,72.2164 117.978,73.0497 118.5,74C 117.922,75.8114 117.422,77.6447 117,79.5C 113.508,85.3173 108.675,89.6506 102.5,92.5C 100.5,88.8333 98.5,85.1667 96.5,81.5C 97.5,81.5 98.5,81.5 99.5,81.5C 99.3433,80.1266 99.51,78.7932 100,77.5C 100.654,78.6956 101.154,78.6956 101.5,77.5C 100.674,76.549 100.508,75.549 101,74.5C 102.016,73.3659 102.683,73.6992 103,75.5C 104.521,71.7196 107.021,67.8862 110.5,64C 109.304,63.3457 109.304,62.8457 110.5,62.5C 111.281,63.7287 111.781,65.062 112,66.5C 112.813,64.5643 113.313,62.5643 113.5,60.5 Z"/></g>
<g><path style="opacity:1" fill="#f8cd56" d="M 118.5,68.5 C 121.335,72.1638 123.668,76.1638 125.5,80.5C 125.374,82.1998 124.707,83.6998 123.5,85C 124.233,86.7659 124.567,88.5992 124.5,90.5C 123.022,90.238 121.689,90.5713 120.5,91.5C 119.637,95.3935 117.637,98.5601 114.5,101C 115.308,101.308 115.975,101.808 116.5,102.5C 114.257,103.474 111.924,103.808 109.5,103.5C 106.931,100.039 104.597,96.3723 102.5,92.5C 108.675,89.6506 113.508,85.3173 117,79.5C 117.422,77.6447 117.922,75.8114 118.5,74C 117.978,73.0497 117.311,72.2164 116.5,71.5C 117.612,70.7348 118.279,69.7348 118.5,68.5 Z"/></g>
<g><path style="opacity:1" fill="#f9c648" d="M 58.5,88.5 C 57.2583,92.6553 55.2583,96.322 52.5,99.5C 52.3444,95.8649 51.1777,95.5315 49,98.5C 48.5172,97.552 48.3505,96.552 48.5,95.5C 43.902,96.184 39.2353,96.0174 34.5,95C 32.9238,94.5604 31.5904,93.727 30.5,92.5C 29.4164,93.6651 28.5831,94.9984 28,96.5C 27.6582,94.3808 26.8249,94.0474 25.5,95.5C 26.9166,92.331 28.5832,89.331 30.5,86.5C 32.7772,85.5514 34.7772,84.2181 36.5,82.5C 37.1667,82.8333 37.8333,83.1667 38.5,83.5C 37.0811,85.1266 37.4144,85.6266 39.5,85C 39.6938,83.0967 39.6938,81.2633 39.5,79.5C 43.6482,81.5424 47.6482,83.8757 51.5,86.5C 52.7822,83.3582 55.1155,82.0248 58.5,82.5C 58.5,84.5 58.5,86.5 58.5,88.5 Z"/></g>
<g><path style="opacity:1" fill="#f9d666" d="M 125.5,80.5 C 127.083,82.6626 128.416,84.9959 129.5,87.5C 129.548,90.3128 130.215,92.9795 131.5,95.5C 130.747,97.7534 129.414,99.5867 127.5,101C 128.451,101.718 128.617,102.551 128,103.5C 126.009,105.457 124.009,107.457 122,109.5C 121.111,106.721 119.944,104.055 118.5,101.5C 118.356,104.47 118.023,107.47 117.5,110.5C 117.939,112.104 118.606,113.604 119.5,115C 119.167,115.5 118.833,116 118.5,116.5C 117.735,115.388 116.735,114.721 115.5,114.5C 113.234,110.966 111.234,107.3 109.5,103.5C 111.924,103.808 114.257,103.474 116.5,102.5C 115.975,101.808 115.308,101.308 114.5,101C 117.637,98.5601 119.637,95.3935 120.5,91.5C 121.689,90.5713 123.022,90.238 124.5,90.5C 124.567,88.5992 124.233,86.7659 123.5,85C 124.707,83.6998 125.374,82.1998 125.5,80.5 Z"/></g>
<g><path style="opacity:1" fill="#f7ba2f" d="M 52.5,99.5 C 48.2514,108.339 43.2514,116.672 37.5,124.5C 32.4956,117.162 27.9956,109.496 24,101.5C 23.2615,99.1195 23.7615,97.1195 25.5,95.5C 26.8249,94.0474 27.6582,94.3808 28,96.5C 28.5831,94.9984 29.4164,93.6651 30.5,92.5C 31.5904,93.727 32.9238,94.5604 34.5,95C 39.2353,96.0174 43.902,96.184 48.5,95.5C 48.3505,96.552 48.5172,97.552 49,98.5C 51.1777,95.5315 52.3444,95.8649 52.5,99.5 Z"/></g>
<g><path style="opacity:1" fill="#f5dc75" d="M 129.5,87.5 C 131.394,90.9389 133.56,94.2722 136,97.5C 136.667,98.8333 136.667,100.167 136,101.5C 131.626,109.083 127.126,116.583 122.5,124C 119.438,121.716 117.104,118.55 115.5,114.5C 116.735,114.721 117.735,115.388 118.5,116.5C 118.833,116 119.167,115.5 119.5,115C 118.606,113.604 117.939,112.104 117.5,110.5C 118.023,107.47 118.356,104.47 118.5,101.5C 119.944,104.055 121.111,106.721 122,109.5C 124.009,107.457 126.009,105.457 128,103.5C 128.617,102.551 128.451,101.718 127.5,101C 129.414,99.5867 130.747,97.7534 131.5,95.5C 130.215,92.9795 129.548,90.3128 129.5,87.5 Z"/></g>
<g><path style="opacity:1" fill="#f7ae09" d="M 58.5,100.5 C 62.8333,100.5 67.1667,100.5 71.5,100.5C 71.9234,101.265 72.2568,102.098 72.5,103C 71.2985,105.234 69.9652,107.401 68.5,109.5C 68.8333,110.167 69.1667,110.833 69.5,111.5C 67.9098,113.68 66.5765,116.013 65.5,118.5C 64.2054,119.098 62.8721,119.598 61.5,120C 62.7112,120.893 62.7112,121.726 61.5,122.5C 56.141,124.616 50.8076,124.95 45.5,123.5C 49.4411,115.572 53.7744,107.905 58.5,100.5 Z"/></g>
<g><path style="opacity:1" fill="#f9bb2c" d="M 71.5,100.5 C 78.1667,100.5 84.8333,100.5 91.5,100.5C 92.6602,102.203 91.9935,102.869 89.5,102.5C 89.6076,106.247 89.1076,109.914 88,113.5C 85.5451,114.743 84.3784,116.743 84.5,119.5C 80.6893,119.596 80.6893,120.262 84.5,121.5C 78.5164,123.485 72.5164,124.818 66.5,125.5C 60.1667,125.5 53.8333,125.5 47.5,125.5C 46.325,125.719 45.325,125.386 44.5,124.5C 44.6236,123.893 44.9569,123.56 45.5,123.5C 50.8076,124.95 56.141,124.616 61.5,122.5C 62.7112,121.726 62.7112,120.893 61.5,120C 62.8721,119.598 64.2054,119.098 65.5,118.5C 66.5765,116.013 67.9098,113.68 69.5,111.5C 69.1667,110.833 68.8333,110.167 68.5,109.5C 69.9652,107.401 71.2985,105.234 72.5,103C 72.2568,102.098 71.9234,101.265 71.5,100.5 Z"/></g>
<g><path style="opacity:1" fill="#efcb61" d="M 58.5,100.5 C 72.6722,99.1741 87.0055,99.1741 101.5,100.5C 106.098,108.032 110.432,115.698 114.5,123.5C 105.225,125.473 95.5578,126.14 85.5,125.5C 91.0139,124.833 96.6805,124.167 102.5,123.5C 99.2979,122.765 96.2979,121.598 93.5,120C 96.6525,117.195 98.3192,113.695 98.5,109.5C 99.8333,109.5 101.167,109.5 102.5,109.5C 101.862,107.201 100.862,105.034 99.5,103C 99.9574,102.586 100.291,102.086 100.5,101.5C 97.5719,100.516 94.5719,100.183 91.5,100.5C 84.8333,100.5 78.1667,100.5 71.5,100.5C 67.1667,100.5 62.8333,100.5 58.5,100.5 Z"/></g>
<g><path style="opacity:1" fill="#f9c94d" d="M 91.5,100.5 C 94.5719,100.183 97.5719,100.516 100.5,101.5C 100.291,102.086 99.9574,102.586 99.5,103C 100.862,105.034 101.862,107.201 102.5,109.5C 101.167,109.5 99.8333,109.5 98.5,109.5C 98.3192,113.695 96.6525,117.195 93.5,120C 96.2979,121.598 99.2979,122.765 102.5,123.5C 96.6805,124.167 91.0139,124.833 85.5,125.5C 79.1667,125.5 72.8333,125.5 66.5,125.5C 72.5164,124.818 78.5164,123.485 84.5,121.5C 80.6893,120.262 80.6893,119.596 84.5,119.5C 84.3784,116.743 85.5451,114.743 88,113.5C 89.1076,109.914 89.6076,106.247 89.5,102.5C 91.9935,102.869 92.6602,102.203 91.5,100.5 Z"/></g>
<g><path style="opacity:1" fill="#434d55" d="M 114.5,123.5 C 115.404,124.209 115.737,125.209 115.5,126.5C 92.6605,126.831 69.9939,126.497 47.5,125.5C 53.8333,125.5 60.1667,125.5 66.5,125.5C 72.8333,125.5 79.1667,125.5 85.5,125.5C 95.5578,126.14 105.225,125.473 114.5,123.5 Z"/></g>
</svg>
