<?xml version="1.0" encoding="UTF-8"?>
<!DOCTYPE svg PUBLIC "-//W3C//DTD SVG 1.1//EN" "http://www.w3.org/Graphics/SVG/1.1/DTD/svg11.dtd">
<svg xmlns="http://www.w3.org/2000/svg" version="1.1" width="160px" height="160px" style="shape-rendering:geometricPrecision; text-rendering:geometricPrecision; image-rendering:optimizeQuality; fill-rule:evenodd; clip-rule:evenodd" xmlns:xlink="http://www.w3.org/1999/xlink">
<g><path style="opacity:1" fill="#505c65" d="M -0.5,-0.5 C 52.8333,-0.5 106.167,-0.5 159.5,-0.5C 159.5,52.8333 159.5,106.167 159.5,159.5C 106.167,159.5 52.8333,159.5 -0.5,159.5C -0.5,106.167 -0.5,52.8333 -0.5,-0.5 Z"/></g>
<g><path style="opacity:1" fill="#f8f8f8" d="M 38.5,63.5 C 55.3733,62.9569 60.54,70.2903 54,85.5C 47.3238,92.6126 39.1571,95.7793 29.5,95C 21.79,92.0813 18.9566,86.5813 21,78.5C 24.8885,71.103 30.7219,66.103 38.5,63.5 Z"/></g>
<g><path style="opacity:1" fill="#e32e2c" d="M 74.5,64.5 C 80.3666,63.7368 81.5332,65.4034 78,69.5C 73.8638,74.6381 68.6971,77.8048 62.5,79C 66.7118,74.2932 70.7118,69.4599 74.5,64.5 Z"/></g>
<g><path style="opacity:1" fill="#1b327f" d="M 83.5,64.5 C 84.9311,64.8807 85.7645,65.8807 86,67.5C 88.3278,76.4774 90.4945,85.4774 92.5,94.5C 88.8333,94.5 85.1667,94.5 81.5,94.5C 77.1317,84.1787 77.7984,74.1787 83.5,64.5 Z"/></g>
<g><path style="opacity:1" fill="#193180" d="M 102.5,64.5 C 106.555,64.1758 110.555,64.5091 114.5,65.5C 113.307,69.5068 112.474,73.5068 112,77.5C 116.801,73.701 121.301,69.5343 125.5,65C 129.5,64.3333 133.5,64.3333 137.5,65C 131.771,70.0708 126.104,75.0708 120.5,80C 123.626,84.6301 126.96,89.1301 130.5,93.5C 126.205,94.6609 121.871,94.8275 117.5,94C 115,90.1667 112.5,86.3333 110,82.5C 107.908,86.1968 106.741,90.1968 106.5,94.5C 102.5,94.5 98.5,94.5 94.5,94.5C 96.8533,84.4202 99.52,74.4202 102.5,64.5 Z"/></g>
<g><path style="opacity:1" fill="#535f68" d="M 37.5,71.5 C 46.3034,70.788 49.1368,74.4546 46,82.5C 42.0416,87.3534 37.2083,88.52 31.5,86C 30.3895,83.2628 30.2228,80.4294 31,77.5C 32.914,75.1435 35.0807,73.1435 37.5,71.5 Z"/></g>
<g><path style="opacity:1" fill="#f8f9f9" d="M 60.5,82.5 C 67.852,81.4418 73.5187,83.9418 77.5,90C 73.1667,90.3333 68.8333,90.6667 64.5,91C 63.5,92 62.5,93 61.5,94C 57.5,94.6667 53.5,94.6667 49.5,94C 52.6967,89.6384 56.3634,85.805 60.5,82.5 Z"/></g>
</svg>
