<?xml version="1.0" encoding="UTF-8"?>
<!DOCTYPE svg PUBLIC "-//W3C//DTD SVG 1.1//EN" "http://www.w3.org/Graphics/SVG/1.1/DTD/svg11.dtd">
<svg xmlns="http://www.w3.org/2000/svg" version="1.1" width="160px" height="160px" style="shape-rendering:geometricPrecision; text-rendering:geometricPrecision; image-rendering:optimizeQuality; fill-rule:evenodd; clip-rule:evenodd" xmlns:xlink="http://www.w3.org/1999/xlink">
<g><path style="opacity:1" fill="#00aeed" d="M -0.5,-0.5 C 52.8333,-0.5 106.167,-0.5 159.5,-0.5C 159.5,52.8333 159.5,106.167 159.5,159.5C 106.167,159.5 52.8333,159.5 -0.5,159.5C -0.5,106.167 -0.5,52.8333 -0.5,-0.5 Z"/></g>
<g><path style="opacity:1" fill="#7e807f" d="M 89.5,50.5 C 90.8734,50.3433 92.2068,50.51 93.5,51C 77.4438,58.3897 65.2771,69.8897 57,85.5C 55.2213,91.7227 52.888,97.7227 50,103.5C 46.4472,109.032 41.6139,110.699 35.5,108.5C 34.8076,107.975 34.3076,107.308 34,106.5C 33.3333,102.5 33.3333,98.5 34,94.5C 41.1667,75.3333 54.3333,62.1667 73.5,55C 78.9055,53.2953 84.2388,51.7953 89.5,50.5 Z"/></g>
<g><path style="opacity:1" fill="#007fc1" d="M 112.5,50.5 C 114.199,50.3398 115.866,50.5065 117.5,51C 105.551,56.9495 95.384,65.1162 87,75.5C 81.6148,85.6606 76.6148,95.9939 72,106.5C 68.3926,110.422 64.226,111.255 59.5,109C 57.4896,104.391 56.9896,99.5577 58,94.5C 63.1376,79.3887 72.6376,67.8887 86.5,60C 94.8892,55.7073 103.556,52.5406 112.5,50.5 Z"/></g>
<g><path style="opacity:1" fill="#1f1c1a" d="M 135.5,50.5 C 137.857,50.3367 140.19,50.5034 142.5,51C 128.537,57.3021 117.371,66.8021 109,79.5C 104.945,87.6674 101.278,96.0007 98,104.5C 94.5616,109.081 90.0616,110.581 84.5,109C 81.7596,105.276 80.9262,101.109 82,96.5C 88.3127,76.1863 101.479,62.353 121.5,55C 126.286,53.4784 130.952,51.9784 135.5,50.5 Z"/></g>
</svg>
