<svg data-name="Слой 1" xmlns="http://www.w3.org/2000/svg" viewBox="0 0 48 48"><defs><linearGradient id="a" x1="24.52" y1="35.11" x2="23.74" y2="12.49" gradientUnits="userSpaceOnUse"><stop offset="0" stop-color="#26358c"/><stop offset=".2" stop-color="#29338a" stop-opacity=".96"/><stop offset="1" stop-color="#fff" stop-opacity=".34"/></linearGradient></defs><path fill="#f2f3f4" d="M0 0h48v48H0z"/><path d="M16.36 12.53c0-.07.06-.21.16-.2h4a4.56 4.56 0 01-.21.54c-.39.92-.79 1.85-1.16 2.78-.11.24-.19.49-.32.72-.38.89-.73 1.8-1.12 2.69s-.76 1.84-1.13 2.76c-.38 1-.77 2-1.08 3a11.34 11.34 0 00-.36 1.67v1a4.5 4.5 0 001 2.69c.07.11.19.19.25.3a4.76 4.76 0 001.63 1 5.92 5.92 0 002.94.19 5.79 5.79 0 002.36-1.06A7.65 7.65 0 0025 28.9a17.33 17.33 0 001.23-2.19c1.53-3.09 2.85-6.28 4.21-9.44l2.09-4.94h4.28c-.41.93-.79 1.88-1.19 2.81a724 724 0 01-4.28 9.93c-.39.87-.76 1.74-1.17 2.6a20.68 20.68 0 01-2.36 4.17 9.27 9.27 0 01-3.68 2.94 11.15 11.15 0 01-5.34.86 8.41 8.41 0 01-5.15-2.22 7.78 7.78 0 01-2.26-4.24 10.61 10.61 0 010-3.74 20.07 20.07 0 011.41-4.5c.45-1.08.91-2.16 1.37-3.24.42-1 .85-2 1.27-3 .31-.7.63-1.45.93-2.17z" fill="url(#a)" fill-rule="evenodd"/><path d="M19.67 31.77a6.08 6.08 0 001.31-.1 5.79 5.79 0 002.36-1.06A7.65 7.65 0 0025 28.9a17.33 17.33 0 001.23-2.19c1.53-3.09 2.85-6.28 4.21-9.44l2.09-4.94h4.28c-.41.93-.79 1.88-1.19 2.81a724 724 0 01-4.28 9.93c-.39.87-.76 1.74-1.17 2.6a20.68 20.68 0 01-2.36 4.17 9.27 9.27 0 01-3.68 2.94 11.15 11.15 0 01-5.34.86h-.32.17l1.05-3.86z" fill="#003494" fill-rule="evenodd"/></svg>