<?xml version="1.0" encoding="UTF-8"?>
<!DOCTYPE svg PUBLIC "-//W3C//DTD SVG 1.1//EN" "http://www.w3.org/Graphics/SVG/1.1/DTD/svg11.dtd">
<svg xmlns="http://www.w3.org/2000/svg" version="1.1" width="160px" height="160px" style="shape-rendering:geometricPrecision; text-rendering:geometricPrecision; image-rendering:optimizeQuality; fill-rule:evenodd; clip-rule:evenodd" xmlns:xlink="http://www.w3.org/1999/xlink">
<g><path style="opacity:1" fill="#c8c8c8" d="M -0.5,-0.5 C 52.8333,-0.5 106.167,-0.5 159.5,-0.5C 159.5,52.8333 159.5,106.167 159.5,159.5C 106.167,159.5 52.8333,159.5 -0.5,159.5C -0.5,106.167 -0.5,52.8333 -0.5,-0.5 Z"/></g>
<g><path style="opacity:1" fill="#4b7692" d="M 22.5,57.5 C 53.1667,57.5 83.8333,57.5 114.5,57.5C 114.666,64.175 114.5,70.8417 114,77.5C 107.5,85.3333 101,93.1667 94.5,101C 77.1667,101.667 59.8333,101.667 42.5,101C 36,93.1667 29.5,85.3333 23,77.5C 22.5004,70.8417 22.3337,64.175 22.5,57.5 Z"/></g>
<g><path style="opacity:1" fill="#da5d60" d="M 136.5,57.5 C 130.833,57.5 125.167,57.5 119.5,57.5C 119.824,64.3543 119.491,71.021 118.5,77.5C 118.5,70.5 118.5,63.5 118.5,56.5C 124.69,56.1771 130.69,56.5104 136.5,57.5 Z"/></g>
<g><path style="opacity:1" fill="#e3141b" d="M 136.5,57.5 C 136.5,72.1667 136.5,86.8333 136.5,101.5C 123.989,101.829 111.655,101.495 99.5,100.5C 106.072,93.0176 112.405,85.3509 118.5,77.5C 119.491,71.021 119.824,64.3543 119.5,57.5C 125.167,57.5 130.833,57.5 136.5,57.5 Z"/></g>
<g><path style="opacity:1" fill="#f2f5f6" d="M 36.5,62.5 C 41.5111,62.3341 46.5111,62.5007 51.5,63C 52.3333,63.8333 53.1667,64.6667 54,65.5C 54.8673,69.9558 54.5339,74.2891 53,78.5C 47.5838,79.6389 42.0838,79.8056 36.5,79C 34.0259,76.9589 33.0259,74.2923 33.5,71C 33.0506,67.561 34.0506,64.7276 36.5,62.5 Z"/></g>
<g><path style="opacity:1" fill="#f7f8f9" d="M 60.5,62.5 C 66.1764,62.3339 71.8431,62.5006 77.5,63C 78.8941,63.956 79.5607,65.2894 79.5,67C 78.3133,69.4789 78.3133,71.9789 79.5,74.5C 79.6102,76.374 78.9436,77.874 77.5,79C 71.8431,79.4994 66.1764,79.6661 60.5,79.5C 60.5,73.8333 60.5,68.1667 60.5,62.5 Z"/></g>
<g><path style="opacity:1" fill="#f0f3f5" d="M 84.5,62.5 C 85.8333,62.5 87.1667,62.5 88.5,62.5C 88.5,64.8333 88.5,67.1667 88.5,69.5C 93.7424,70.1058 97.4091,67.9392 99.5,63C 100.793,62.51 102.127,62.3433 103.5,62.5C 103.649,63.552 103.483,64.552 103,65.5C 101.108,67.0542 99.608,68.8876 98.5,71C 99.608,73.1124 101.108,74.9458 103,76.5C 103.483,77.448 103.649,78.448 103.5,79.5C 99.8689,78.3924 96.8689,76.2258 94.5,73C 92.5273,72.5045 90.5273,72.3379 88.5,72.5C 88.5,74.8333 88.5,77.1667 88.5,79.5C 87.1667,79.5 85.8333,79.5 84.5,79.5C 84.5,73.8333 84.5,68.1667 84.5,62.5 Z"/></g>
<g><path style="opacity:1" fill="#4e7894" d="M 38.5,65.5 C 42.1817,65.3347 45.8484,65.5014 49.5,66C 50.6168,69.0731 50.7835,72.2397 50,75.5C 39.1212,79.6379 35.2879,76.3046 38.5,65.5 Z"/></g>
<g><path style="opacity:1" fill="#507a95" d="M 64.5,65.5 C 67.8499,65.335 71.1832,65.5017 74.5,66C 75.8333,67 75.8333,68 74.5,69C 71.1832,69.4983 67.8499,69.665 64.5,69.5C 64.5,68.1667 64.5,66.8333 64.5,65.5 Z"/></g>
<g><path style="opacity:1" fill="#4c7793" d="M 64.5,72.5 C 68.1667,72.5 71.8333,72.5 75.5,72.5C 75.5,73.8333 75.5,75.1667 75.5,76.5C 71.8333,76.5 68.1667,76.5 64.5,76.5C 64.5,75.1667 64.5,73.8333 64.5,72.5 Z"/></g>
<g><path style="opacity:1" fill="#d47c7f" d="M 99.5,100.5 C 111.655,101.495 123.989,101.829 136.5,101.5C 123.994,102.825 111.327,102.825 98.5,101.5C 98.6236,100.893 98.9569,100.56 99.5,100.5 Z"/></g>
</svg>
