<svg data-name="Слой 1" xmlns="http://www.w3.org/2000/svg" viewBox="0 0 48 48"><path fill="#f2f3f4" d="M0 0h48v48H0z"/><path d="M23.66 17.74a3.89 3.89 0 003.89-3.89c0-2.15-3.89-6.61-3.89-8.33 0 1.71-3.89 6.18-3.89 8.33a3.89 3.89 0 003.89 3.89z" fill="#dce53e"/><g data-name="Page-1"><path data-name="Oval" d="M28.88 19.3a3.89 3.89 0 005.46-.7c1.32-1.7 1-7.61 2-9-1 1.35-6.86 2.51-8.18 4.21a3.89 3.89 0 00.72 5.49z" fill="#fff939"/></g><g data-name="Page-1"><path data-name="Oval" d="M19.15 19.42a3.89 3.89 0 00-.33-5.5c-1.61-1.43-7.53-1.47-8.82-2.61 1.28 1.13 2 7 3.65 8.44a3.89 3.89 0 005.5-.33z" fill="#a4c14b"/></g><g data-name="Page-1"><path data-name="Oval" d="M17.3 24.91a3.89 3.89 0 00-3.39-4.33c-2.13-.26-7 3.07-8.74 2.86 1.69.21 5.67 4.61 7.8 4.87a3.89 3.89 0 004.33-3.4z" fill="#51944d"/></g><g data-name="Page-1"><path data-name="Oval" d="M19.32 28.7a3.89 3.89 0 00-5.49.47c-1.38 1.64-1.28 7.57-2.39 8.88 1.1-1.31 7-2.22 8.35-3.87a3.89 3.89 0 00-.47-5.48z" fill="#4e9295"/></g><g data-name="Page-1"><path data-name="Oval" d="M24.38 30.26a3.89 3.89 0 00-3.87 3.91c0 2.15 3.92 6.59 3.93 8.31 0-1.71 3.86-6.2 3.85-8.35a3.89 3.89 0 00-3.91-3.87z" fill="#2e5c9a"/></g><g data-name="Page-1"><path data-name="Oval" d="M28.51 28.16a3.89 3.89 0 00.74 5.45c1.71 1.3 7.62.9 9 1.94-1.36-1-2.57-6.84-4.28-8.14a3.89 3.89 0 00-5.46.75z" fill="#24359d"/></g><path d="M42.84 21.52h-5.48l-1.34 4.18h2.47l1.05-3.29h3l.3-.89zm-9.42 0l-.52 1.65h-1.91l.52-1.65h-2.46l-1.34 4.18h2.47l.52-1.64h1.92l-.53 1.64h2.47l1.33-4.18h-2.47zm-6.26.72c-.14-.32-.49-.43-.84-.53a3.94 3.94 0 00-.83-.14H20.9l-1.34 4.13h3.85a11.76 11.76 0 001.42-.07 5 5 0 001.31-.34 1.3 1.3 0 00.66-.52.64.64 0 00.11-.33.81.81 0 00-.36-.59 1.88 1.88 0 00-.62-.26c-.11 0-.19 0-.19-.06s.3-.08.67-.22.68-.26.8-.56a.72.72 0 00-.05-.51zm-2.78 2.43a.44.44 0 01-.3.16H22.3l.26-.82h.9s.69 0 .85.16a.47.47 0 01.12.22.37.37 0 01-.05.28zm.38-1.7a.41.41 0 01-.28.14h-1.62l.22-.71h.86s.61 0 .76.13a.39.39 0 01.11.19.3.3 0 01-.05.28z" fill="#2f3e91"/></svg>