<?xml version="1.0" encoding="UTF-8"?>
<!DOCTYPE svg PUBLIC "-//W3C//DTD SVG 1.1//EN" "http://www.w3.org/Graphics/SVG/1.1/DTD/svg11.dtd">
<svg xmlns="http://www.w3.org/2000/svg" version="1.1" width="160px" height="160px" style="shape-rendering:geometricPrecision; text-rendering:geometricPrecision; image-rendering:optimizeQuality; fill-rule:evenodd; clip-rule:evenodd" xmlns:xlink="http://www.w3.org/1999/xlink">
<g><path style="opacity:1" fill="#0077ff" d="M -0.5,-0.5 C 52.8333,-0.5 106.167,-0.5 159.5,-0.5C 159.5,52.8333 159.5,106.167 159.5,159.5C 106.167,159.5 52.8333,159.5 -0.5,159.5C -0.5,106.167 -0.5,52.8333 -0.5,-0.5 Z"/></g>
<g><path style="opacity:1" fill="#fbfdff" d="M 56.5,39.5 C 71.5037,39.3334 86.5037,39.5001 101.5,40C 111.553,41.0532 117.386,46.5532 119,56.5C 119.667,71.5 119.667,86.5 119,101.5C 117.833,112 112,117.833 101.5,119C 86.1667,119.667 70.8333,119.667 55.5,119C 45.1585,116.655 39.9918,110.155 40,99.5C 39.3333,85.1667 39.3333,70.8333 40,56.5C 41.68,46.9882 47.18,41.3215 56.5,39.5 Z"/></g>
<g><path style="opacity:1" fill="#70afff" d="M 62.5,66.5 C 59.8555,64.7581 56.8555,64.0914 53.5,64.5C 53.5,65.5 53.5,66.5 53.5,67.5C 52.5655,66.4324 52.2322,65.099 52.5,63.5C 55.8333,63.5 59.1667,63.5 62.5,63.5C 62.5,64.5 62.5,65.5 62.5,66.5 Z"/></g>
<g><path style="opacity:1" fill="#68acff" d="M 95.5,64.5 C 98.2869,63.5233 101.287,63.19 104.5,63.5C 104.737,64.791 104.404,65.791 103.5,66.5C 101.365,64.631 98.6981,63.9644 95.5,64.5 Z"/></g>
<g><path style="opacity:1" fill="#1279ff" d="M 62.5,66.5 C 62.5586,75.2939 66.2253,81.9606 73.5,86.5C 73.56,87.0431 73.8933,87.3764 74.5,87.5C 75.4975,79.8622 75.8308,72.1955 75.5,64.5C 78.1667,64.5 80.8333,64.5 83.5,64.5C 83.5,68.5 83.5,72.5 83.5,76.5C 89.8013,74.8654 93.8013,70.8654 95.5,64.5C 98.6981,63.9644 101.365,64.631 103.5,66.5C 101.646,72.202 98.3128,76.8687 93.5,80.5C 99.662,83.8508 103.662,88.8508 105.5,95.5C 102.713,96.4767 99.7131,96.81 96.5,96.5C 94.3155,90.317 89.9821,86.6503 83.5,85.5C 83.5,89.5 83.5,93.5 83.5,97.5C 64.575,96.5752 54.575,86.5752 53.5,67.5C 53.5,66.5 53.5,65.5 53.5,64.5C 56.8555,64.0914 59.8555,64.7581 62.5,66.5 Z"/></g>
<g><path style="opacity:1" fill="#499aff" d="M 83.5,64.5 C 80.8333,64.5 78.1667,64.5 75.5,64.5C 75.8308,72.1955 75.4975,79.8622 74.5,87.5C 73.8933,87.3764 73.56,87.0431 73.5,86.5C 74.492,79.0182 74.8254,71.3516 74.5,63.5C 77.7131,63.19 80.7131,63.5233 83.5,64.5 Z"/></g>
<g><path style="opacity:1" fill="#5fa7ff" d="M 105.5,95.5 C 106.043,95.56 106.376,95.8933 106.5,96.5C 103.02,97.8056 99.6868,97.8056 96.5,96.5C 99.7131,96.81 102.713,96.4767 105.5,95.5 Z"/></g>
</svg>
