<?xml version="1.0" encoding="UTF-8"?>
<!DOCTYPE svg PUBLIC "-//W3C//DTD SVG 1.1//EN" "http://www.w3.org/Graphics/SVG/1.1/DTD/svg11.dtd">
<svg xmlns="http://www.w3.org/2000/svg" version="1.1" width="160px" height="160px" style="shape-rendering:geometricPrecision; text-rendering:geometricPrecision; image-rendering:optimizeQuality; fill-rule:evenodd; clip-rule:evenodd" xmlns:xlink="http://www.w3.org/1999/xlink">
<g><path style="opacity:0.998" fill="#b7d68f" d="M 66.5,-0.5 C 75.5,-0.5 84.5,-0.5 93.5,-0.5C 94.9187,0.451145 96.5853,0.784479 98.5,0.5C 100.515,1.92381 102.848,2.59047 105.5,2.5C 114.753,6.46046 123.419,11.4605 131.5,17.5C 131.5,18.1667 131.833,18.5 132.5,18.5C 144.035,29.0399 152.369,41.7066 157.5,56.5C 157.565,59.4282 158.232,62.0948 159.5,64.5C 159.5,74.5 159.5,84.5 159.5,94.5C 158.232,96.9052 157.565,99.5718 157.5,102.5C 156.596,103.209 156.263,104.209 156.5,105.5C 155.596,106.209 155.263,107.209 155.5,108.5C 154.662,108.842 154.328,109.508 154.5,110.5C 153.596,111.209 153.263,112.209 153.5,113.5C 152.662,113.842 152.328,114.508 152.5,115.5C 151.662,115.842 151.328,116.508 151.5,117.5C 150.833,117.5 150.5,117.833 150.5,118.5C 149.662,118.842 149.328,119.508 149.5,120.5C 148.662,120.842 148.328,121.508 148.5,122.5C 147.833,122.5 147.5,122.833 147.5,123.5C 146.662,123.842 146.328,124.508 146.5,125.5C 145.833,125.5 145.5,125.833 145.5,126.5C 144.662,126.842 144.328,127.508 144.5,128.5C 143.833,128.5 143.5,128.833 143.5,129.5C 142.833,129.5 142.5,129.833 142.5,130.5C 140.11,131.891 138.443,133.891 137.5,136.5C 136.833,136.5 136.5,136.833 136.5,137.5C 134.77,138.026 133.436,139.026 132.5,140.5C 131.833,140.5 131.5,140.833 131.5,141.5C 130.833,141.5 130.5,141.833 130.5,142.5C 128.246,143.124 126.579,144.457 125.5,146.5C 124.508,146.328 123.842,146.662 123.5,147.5C 122.833,147.5 122.5,147.833 122.5,148.5C 121.508,148.328 120.842,148.662 120.5,149.5C 119.508,149.328 118.842,149.662 118.5,150.5C 117.508,150.328 116.842,150.662 116.5,151.5C 115.508,151.328 114.842,151.662 114.5,152.5C 113.508,152.328 112.842,152.662 112.5,153.5C 111.508,153.328 110.842,153.662 110.5,154.5C 108.447,154.402 106.78,155.069 105.5,156.5C 102.848,156.41 100.515,157.076 98.5,158.5C 96.5853,158.216 94.9187,158.549 93.5,159.5C 84.5,159.5 75.5,159.5 66.5,159.5C 65.0813,158.549 63.4147,158.216 61.5,158.5C 39.7393,152.741 22.7393,140.407 10.5,121.5C 10.6716,120.508 10.3382,119.842 9.5,119.5C 9.06795,118.29 8.40128,117.29 7.5,116.5C 6.92512,113.088 5.59179,110.088 3.5,107.5C 3.73731,106.209 3.40397,105.209 2.5,104.5C 2.76781,102.901 2.43448,101.568 1.5,100.5C 1.76781,98.901 1.43448,97.5676 0.5,96.5C 0.784479,94.5853 0.451145,92.9187 -0.5,91.5C -0.5,83.5 -0.5,75.5 -0.5,67.5C 0.451145,66.0813 0.784479,64.4147 0.5,62.5C 10.1224,28.5445 32.1224,7.54453 66.5,-0.5 Z"/></g>
<g><path style="opacity:0.016" fill="#cece80" d="M 98.5,0.5 C 98.5,0.166667 98.5,-0.166667 98.5,-0.5C 99.5,-0.5 100.5,-0.5 101.5,-0.5C 100.791,0.403972 99.791,0.737305 98.5,0.5 Z"/></g>
<g><path style="opacity:0.012" fill="#c9ff82" d="M 105.5,1.5 C 104.448,1.64945 103.448,1.48278 102.5,1C 103.749,0.259877 104.749,0.426544 105.5,1.5 Z"/></g>
<g><path style="opacity:0.012" fill="#b3e99b" d="M 105.5,2.5 C 105.5,2.16667 105.5,1.83333 105.5,1.5C 108.167,1.83333 108.167,2.16667 105.5,2.5 Z"/></g>
<g><path style="opacity:0.008" fill="#97ff7f" d="M 108.5,3.5 C 108.897,2.47498 109.563,2.30831 110.5,3C 109.906,3.46434 109.239,3.63101 108.5,3.5 Z"/></g>
<g><path style="opacity:0.004" fill="#ddf2cc" d="M 131.5,17.5 C 132.497,16.2875 133.497,16.4542 134.5,18C 133.906,18.4643 133.239,18.631 132.5,18.5C 131.833,18.5 131.5,18.1667 131.5,17.5 Z"/></g>
<g><path style="opacity:1" fill="#33af8a" d="M 82.5,20.5 C 80.9519,20.8212 80.2852,21.8212 80.5,23.5C 82.5,23.5 84.5,23.5 86.5,23.5C 85.791,24.404 84.791,24.7373 83.5,24.5C 82.1667,24.5 80.8333,24.5 79.5,24.5C 78.5,24.5 77.5,24.5 76.5,24.5C 76.5,22.8333 76.5,21.1667 76.5,19.5C 78.7354,19.2053 80.7354,19.5386 82.5,20.5 Z"/></g>
<g><path style="opacity:1" fill="#36b1cb" d="M 82.5,20.5 C 85.5219,20.804 88.5219,21.304 91.5,22C 90.944,22.3826 90.6107,22.8826 90.5,23.5C 89.1667,23.5 87.8333,23.5 86.5,23.5C 84.5,23.5 82.5,23.5 80.5,23.5C 80.2852,21.8212 80.9519,20.8212 82.5,20.5 Z"/></g>
<g><path style="opacity:1" fill="#e2e148" d="M 86.5,23.5 C 87.8333,23.5 89.1667,23.5 90.5,23.5C 91.8333,23.5 93.1667,23.5 94.5,23.5C 94.8242,27.5546 94.4909,31.5546 93.5,35.5C 91.677,36.7472 89.677,37.4139 87.5,37.5C 87.1667,37.5 86.8333,37.5 86.5,37.5C 85.791,36.596 84.791,36.2627 83.5,36.5C 83.5,32.5 83.5,28.5 83.5,24.5C 84.791,24.7373 85.791,24.404 86.5,23.5 Z"/></g>
<g><path style="opacity:1" fill="#286a7c" d="M 60.5,27.5 C 59.7659,28.7079 59.4326,30.0413 59.5,31.5C 57.0504,31.702 54.717,31.3686 52.5,30.5C 50.4352,30.4828 48.4352,30.1495 46.5,29.5C 50.9426,28.1985 55.6093,27.5319 60.5,27.5 Z"/></g>
<g><path style="opacity:1" fill="#55ae3d" d="M 76.5,24.5 C 77.5,24.5 78.5,24.5 79.5,24.5C 77.9732,27.4217 76.9732,30.5884 76.5,34C 77.056,34.3826 77.3893,34.8826 77.5,35.5C 73.7785,35.0889 70.1119,34.4222 66.5,33.5C 65.6314,31.283 65.298,28.9496 65.5,26.5C 69.3597,26.1916 73.0264,25.5249 76.5,24.5 Z"/></g>
<g><path style="opacity:1" fill="#06b0a6" d="M 65.5,33.5 C 65.4,42.1168 65.4,50.7835 65.5,59.5C 62.8333,59.5 60.1667,59.5 57.5,59.5C 58.7708,55.2516 59.4374,50.7516 59.5,46C 59.4855,41.5853 59.1522,37.252 58.5,33C 60.9291,32.2967 63.2625,32.4634 65.5,33.5 Z"/></g>
<g><path style="opacity:1" fill="#94c23b" d="M 79.5,24.5 C 80.8333,24.5 82.1667,24.5 83.5,24.5C 83.5,28.5 83.5,32.5 83.5,36.5C 84.791,36.2627 85.791,36.596 86.5,37.5C 84.139,37.3259 81.8056,36.9926 79.5,36.5C 79.1583,35.6618 78.4916,35.3284 77.5,35.5C 77.3893,34.8826 77.056,34.3826 76.5,34C 76.9732,30.5884 77.9732,27.4217 79.5,24.5 Z"/></g>
<g><path style="opacity:1" fill="#23a86b" d="M 46.5,29.5 C 48.4352,30.1495 50.4352,30.4828 52.5,30.5C 52.6523,40.0062 52.6523,49.6728 52.5,59.5C 51.209,59.2627 50.209,59.596 49.5,60.5C 48.1667,60.5 46.8333,60.5 45.5,60.5C 45.1724,49.9865 45.5058,39.6532 46.5,29.5 Z"/></g>
<g><path style="opacity:1" fill="#18a886" d="M 65.5,26.5 C 65.298,28.9496 65.6314,31.283 66.5,33.5C 66.1667,33.5 65.8333,33.5 65.5,33.5C 63.2625,32.4634 60.9291,32.2967 58.5,33C 59.1522,37.252 59.4855,41.5853 59.5,46C 59.4374,50.7516 58.7708,55.2516 57.5,59.5C 54.9039,60.2653 52.2372,60.5987 49.5,60.5C 50.209,59.596 51.209,59.2627 52.5,59.5C 52.6523,49.6728 52.6523,40.0062 52.5,30.5C 54.717,31.3686 57.0504,31.702 59.5,31.5C 59.4326,30.0413 59.7659,28.7079 60.5,27.5C 62.2161,27.3713 63.8828,27.038 65.5,26.5 Z"/></g>
<g><path style="opacity:1" fill="#19b5c0" d="M 65.5,33.5 C 65.8333,33.5 66.1667,33.5 66.5,33.5C 70.1119,34.4222 73.7785,35.0889 77.5,35.5C 78.4916,35.3284 79.1583,35.6618 79.5,36.5C 77.5,36.5 75.5,36.5 73.5,36.5C 74.0762,44.111 73.4095,51.4444 71.5,58.5C 69.7354,59.4614 67.7354,59.7947 65.5,59.5C 65.4,50.7835 65.4,42.1168 65.5,33.5 Z"/></g>
<g><path style="opacity:1" fill="#1fb4df" d="M 79.5,36.5 C 81.8056,36.9926 84.139,37.3259 86.5,37.5C 86.8333,37.5 87.1667,37.5 87.5,37.5C 88.8333,38.1667 90.1667,38.8333 91.5,39.5C 90.5,39.5 89.5,39.5 88.5,39.5C 88.3342,44.1785 88.5008,48.8452 89,53.5C 89.3333,53.1667 89.6667,52.8333 90,52.5C 90.7083,53.3805 91.5416,54.0472 92.5,54.5C 90.5368,55.8202 88.5368,57.1535 86.5,58.5C 86.1667,58.5 85.8333,58.5 85.5,58.5C 80.8333,58.5 76.1667,58.5 71.5,58.5C 73.4095,51.4444 74.0762,44.111 73.5,36.5C 75.5,36.5 77.5,36.5 79.5,36.5 Z"/></g>
<g><path style="opacity:1" fill="#3898cf" d="M 91.5,39.5 C 98.4864,40.3226 105.153,41.9892 111.5,44.5C 108.669,45.0787 106.336,46.412 104.5,48.5C 101.669,49.0787 99.3356,50.412 97.5,52.5C 95.847,52.6596 94.5137,53.3263 93.5,54.5C 93.1667,54.5 92.8333,54.5 92.5,54.5C 91.5416,54.0472 90.7083,53.3805 90,52.5C 89.6667,52.8333 89.3333,53.1667 89,53.5C 88.5008,48.8452 88.3342,44.1785 88.5,39.5C 89.5,39.5 90.5,39.5 91.5,39.5 Z"/></g>
<g><path style="opacity:1" fill="#e4e24a" d="M 111.5,44.5 C 112.647,48.6463 112.814,52.9796 112,57.5C 109.392,62.3968 106.559,67.0635 103.5,71.5C 103.233,63.7777 103.566,56.111 104.5,48.5C 106.336,46.412 108.669,45.0787 111.5,44.5 Z"/></g>
<g><path style="opacity:1" fill="#a2c63d" d="M 104.5,48.5 C 103.566,56.111 103.233,63.7777 103.5,71.5C 101.75,75.3346 99.7505,79.0012 97.5,82.5C 97.5,72.5 97.5,62.5 97.5,52.5C 99.3356,50.412 101.669,49.0787 104.5,48.5 Z"/></g>
<g><path style="opacity:0.016" fill="#ade974" d="M 158.5,56.5 C 158.167,56.5 157.833,56.5 157.5,56.5C 157.833,52.5 158.167,52.5 158.5,56.5 Z"/></g>
<g><path style="opacity:0.016" fill="#afae80" d="M 158.5,56.5 C 158.833,56.5 159.167,56.5 159.5,56.5C 159.5,57.5 159.5,58.5 159.5,59.5C 158.596,58.791 158.263,57.791 158.5,56.5 Z"/></g>
<g><path style="opacity:0.016" fill="#c4d872" d="M -0.5,58.5 C 0.434475,59.5676 0.767809,60.901 0.5,62.5C 0.166667,62.5 -0.166667,62.5 -0.5,62.5C -0.5,61.1667 -0.5,59.8333 -0.5,58.5 Z"/></g>
<g><path style="opacity:1" fill="#72b739" d="M 97.5,52.5 C 97.5,62.5 97.5,72.5 97.5,82.5C 96.4043,85.0316 95.0709,87.3649 93.5,89.5C 93.5,77.8333 93.5,66.1667 93.5,54.5C 94.5137,53.3263 95.847,52.6596 97.5,52.5 Z"/></g>
<g><path style="opacity:1" fill="#35a839" d="M 92.5,54.5 C 92.8333,54.5 93.1667,54.5 93.5,54.5C 93.5,66.1667 93.5,77.8333 93.5,89.5C 92.0713,92.6963 90.4046,95.6963 88.5,98.5C 87.8164,85.2649 87.1497,71.9316 86.5,58.5C 88.5368,57.1535 90.5368,55.8202 92.5,54.5 Z"/></g>
<g><path style="opacity:1" fill="#138d5b" d="M 85.5,59.5 C 85.227,74.2257 85.5604,88.5591 86.5,102.5C 85.5254,104.795 84.1921,106.795 82.5,108.5C 82.5,92.8333 82.5,77.1667 82.5,61.5C 82.9731,60.0937 83.9731,59.427 85.5,59.5 Z"/></g>
<g><path style="opacity:1" fill="#19984b" d="M 85.5,58.5 C 85.8333,58.5 86.1667,58.5 86.5,58.5C 87.1497,71.9316 87.8164,85.2649 88.5,98.5C 87.8333,99.8333 87.1667,101.167 86.5,102.5C 85.5604,88.5591 85.227,74.2257 85.5,59.5C 85.5,59.1667 85.5,58.8333 85.5,58.5 Z"/></g>
<g><path style="opacity:1" fill="#117670" d="M 82.5,61.5 C 82.5,77.1667 82.5,92.8333 82.5,108.5C 81.2262,111.76 79.5595,114.76 77.5,117.5C 77.1836,99.8772 76.1836,82.5439 74.5,65.5C 76.8485,63.659 79.5152,62.3257 82.5,61.5 Z"/></g>
<g><path style="opacity:1" fill="#1b5f7d" d="M 74.5,65.5 C 76.1836,82.5439 77.1836,99.8772 77.5,117.5C 76.8897,119.434 75.8897,121.101 74.5,122.5C 73.5031,104.007 73.1698,85.3408 73.5,66.5C 73.5,65.8333 73.8333,65.5 74.5,65.5 Z"/></g>
<g><path style="opacity:1" fill="#9bb387" d="M 65.5,70.5 C 65.1692,93.3395 65.5025,116.006 66.5,138.5C 66.44,139.043 66.1067,139.376 65.5,139.5C 64.1714,116.337 64.1714,93.3368 65.5,70.5 Z"/></g>
<g><path style="opacity:1" fill="#17017d" d="M 65.5,70.5 C 65.8333,70.5 66.1667,70.5 66.5,70.5C 66.1694,92.0065 66.5027,113.34 67.5,134.5C 67.1667,135.833 66.8333,137.167 66.5,138.5C 65.5025,116.006 65.1692,93.3395 65.5,70.5 Z"/></g>
<g><path style="opacity:1" fill="#1f4c83" d="M 73.5,66.5 C 73.1698,85.3408 73.5031,104.007 74.5,122.5C 74.2503,124.674 73.2503,126.341 71.5,127.5C 70.8333,107.833 70.1667,88.1667 69.5,68.5C 70.5137,67.3263 71.847,66.6596 73.5,66.5 Z"/></g>
<g><path style="opacity:1" fill="#293a82" d="M 69.5,68.5 C 70.1667,88.1667 70.8333,107.833 71.5,127.5C 70.9213,130.331 69.588,132.664 67.5,134.5C 66.5027,113.34 66.1694,92.0065 66.5,70.5C 67.2905,69.5987 68.2905,68.9321 69.5,68.5 Z"/></g>
<g><path style="opacity:0.016" fill="#c4d872" d="M -0.5,96.5 C -0.166667,96.5 0.166667,96.5 0.5,96.5C 0.5,97.8333 0.5,99.1667 0.5,100.5C 0.166667,100.5 -0.166667,100.5 -0.5,100.5C -0.5,99.1667 -0.5,97.8333 -0.5,96.5 Z"/></g>
<g><path style="opacity:0.016" fill="#afae80" d="M 159.5,99.5 C 159.5,100.5 159.5,101.5 159.5,102.5C 159.167,102.5 158.833,102.5 158.5,102.5C 158.263,101.209 158.596,100.209 159.5,99.5 Z"/></g>
<g><path style="opacity:0.016" fill="#d8ff69" d="M 0.5,100.5 C 0.833333,100.5 1.16667,100.5 1.5,100.5C 1.5,101.833 1.5,103.167 1.5,104.5C 0.565525,103.432 0.232191,102.099 0.5,100.5 Z"/></g>
<g><path style="opacity:0.016" fill="#ade974" d="M 157.5,102.5 C 157.833,102.5 158.167,102.5 158.5,102.5C 158.737,103.791 158.404,104.791 157.5,105.5C 157.5,104.5 157.5,103.5 157.5,102.5 Z"/></g>
<g><path style="opacity:0.012" fill="#9def81" d="M 1.5,104.5 C 1.83333,104.5 2.16667,104.5 2.5,104.5C 2.5,105.5 2.5,106.5 2.5,107.5C 1.59603,106.791 1.26269,105.791 1.5,104.5 Z"/></g>
<g><path style="opacity:0.016" fill="#e0dea0" d="M 156.5,105.5 C 156.833,105.5 157.167,105.5 157.5,105.5C 157.737,106.791 157.404,107.791 156.5,108.5C 156.5,107.5 156.5,106.5 156.5,105.5 Z"/></g>
<g><path style="opacity:0.008" fill="#eaff7f" d="M 2.5,107.5 C 2.83333,107.5 3.16667,107.5 3.5,107.5C 3.16667,110.167 2.83333,110.167 2.5,107.5 Z"/></g>
<g><path style="opacity:0.012" fill="#b3e99b" d="M 155.5,108.5 C 155.833,108.5 156.167,108.5 156.5,108.5C 156.672,109.492 156.338,110.158 155.5,110.5C 155.5,109.833 155.5,109.167 155.5,108.5 Z"/></g>
<g><path style="opacity:0.016" fill="#e2de8e" d="M 154.5,110.5 C 154.833,110.5 155.167,110.5 155.5,110.5C 155.737,111.791 155.404,112.791 154.5,113.5C 154.5,112.5 154.5,111.5 154.5,110.5 Z"/></g>
<g><path style="opacity:0.004" fill="#ecffd5" d="M 153.5,113.5 C 153.833,113.5 154.167,113.5 154.5,113.5C 154.672,114.492 154.338,115.158 153.5,115.5C 153.5,114.833 153.5,114.167 153.5,113.5 Z"/></g>
<g><path style="opacity:0.004" fill="#e0ed54" d="M 152.5,115.5 C 152.833,115.5 153.167,115.5 153.5,115.5C 153.672,116.492 153.338,117.158 152.5,117.5C 152.5,116.833 152.5,116.167 152.5,115.5 Z"/></g>
<g><path style="opacity:0.004" fill="#eefe61" d="M 7.5,116.5 C 7.63101,117.239 7.46434,117.906 7,118.5C 6.30831,117.563 6.47498,116.897 7.5,116.5 Z"/></g>
<g><path style="opacity:0.016" fill="#beff7f" d="M 151.5,117.5 C 151.833,117.5 152.167,117.5 152.5,117.5C 152.315,118.17 151.981,118.17 151.5,117.5 Z"/></g>
<g><path style="opacity:0.016" fill="#7b7a54" d="M 150.5,118.5 C 150.833,118.5 151.167,118.5 151.5,118.5C 151.672,119.492 151.338,120.158 150.5,120.5C 150.5,119.833 150.5,119.167 150.5,118.5 Z"/></g>
<g><path style="opacity:0.012" fill="#c8c59e" d="M 9.5,119.5 C 9.5,120.167 9.5,120.833 9.5,121.5C 8.16667,120.833 8.16667,120.167 9.5,119.5 Z"/></g>
<g><path style="opacity:0.008" fill="#9bea80" d="M 149.5,120.5 C 149.833,120.5 150.167,120.5 150.5,120.5C 150.672,121.492 150.338,122.158 149.5,122.5C 149.5,121.833 149.5,121.167 149.5,120.5 Z"/></g>
<g><path style="opacity:0.004" fill="#ddeedc" d="M 9.5,121.5 C 9.83333,121.5 10.1667,121.5 10.5,121.5C 10.1667,124.167 9.83333,124.167 9.5,121.5 Z"/></g>
<g><path style="opacity:0.02" fill="#98cc98" d="M 148.5,122.5 C 148.833,122.5 149.167,122.5 149.5,122.5C 149.315,123.17 148.981,123.17 148.5,122.5 Z"/></g>
<g><path style="opacity:0.008" fill="#feff7f" d="M 147.5,123.5 C 147.833,123.5 148.167,123.5 148.5,123.5C 148.672,124.492 148.338,125.158 147.5,125.5C 147.5,124.833 147.5,124.167 147.5,123.5 Z"/></g>
<g><path style="opacity:0.02" fill="#98cc98" d="M 146.5,125.5 C 146.833,125.5 147.167,125.5 147.5,125.5C 147.315,126.17 146.981,126.17 146.5,125.5 Z"/></g>
<g><path style="opacity:0.004" fill="#eae9d3" d="M 145.5,126.5 C 145.833,126.5 146.167,126.5 146.5,126.5C 146.672,127.492 146.338,128.158 145.5,128.5C 145.5,127.833 145.5,127.167 145.5,126.5 Z"/></g>
<g><path style="opacity:0.012" fill="#a9ffa9" d="M 144.5,128.5 C 144.833,128.5 145.167,128.5 145.5,128.5C 145.315,129.17 144.981,129.17 144.5,128.5 Z"/></g>
<g><path style="opacity:0.02" fill="#cbcc98" d="M 143.5,129.5 C 143.833,129.5 144.167,129.5 144.5,129.5C 144.315,130.17 143.981,130.17 143.5,129.5 Z"/></g>
<g><path style="opacity:0.02" fill="#98cc98" d="M 142.5,130.5 C 142.833,130.5 143.167,130.5 143.5,130.5C 143.315,131.17 142.981,131.17 142.5,130.5 Z"/></g>
<g><path style="opacity:0.016" fill="#bebf7f" d="M 137.5,136.5 C 138.833,137.167 138.833,137.167 137.5,136.5 Z"/></g>
<g><path style="opacity:0.016" fill="#bebf7f" d="M 136.5,137.5 C 136.833,137.5 137.167,137.5 137.5,137.5C 137.315,138.17 136.981,138.17 136.5,137.5 Z"/></g>
<g><path style="opacity:0.004" fill="#dbf1b1" d="M 132.5,140.5 C 134.793,141.301 134.46,141.968 131.5,142.5C 131.5,142.167 131.5,141.833 131.5,141.5C 132.167,141.5 132.5,141.167 132.5,140.5 Z"/></g>
<g><path style="opacity:0.02" fill="#cbcc98" d="M 130.5,142.5 C 130.833,142.5 131.167,142.5 131.5,142.5C 131.315,143.17 130.981,143.17 130.5,142.5 Z"/></g>
<g><path style="opacity:0.016" fill="#beff7f" d="M 125.5,146.5 C 126.833,147.167 126.833,147.167 125.5,146.5 Z"/></g>
<g><path style="opacity:0.008" fill="#959480" d="M 123.5,148.5 C 123.5,148.167 123.5,147.833 123.5,147.5C 124.167,147.5 124.833,147.5 125.5,147.5C 125.158,148.338 124.492,148.672 123.5,148.5 Z"/></g>
<g><path style="opacity:0.016" fill="#beff7f" d="M 122.5,148.5 C 122.833,148.5 123.167,148.5 123.5,148.5C 123.315,149.17 122.981,149.17 122.5,148.5 Z"/></g>
<g><path style="opacity:0.004" fill="#ddeedc" d="M 120.5,150.5 C 120.5,150.167 120.5,149.833 120.5,149.5C 121.167,149.5 121.833,149.5 122.5,149.5C 122.158,150.338 121.492,150.672 120.5,150.5 Z"/></g>
<g><path style="opacity:0.012" fill="#a9aaa9" d="M 118.5,151.5 C 118.5,151.167 118.5,150.833 118.5,150.5C 119.167,150.5 119.833,150.5 120.5,150.5C 120.158,151.338 119.492,151.672 118.5,151.5 Z"/></g>
<g><path style="opacity:0.016" fill="#d5d3a9" d="M 116.5,152.5 C 116.5,152.167 116.5,151.833 116.5,151.5C 117.167,151.5 117.833,151.5 118.5,151.5C 118.158,152.338 117.492,152.672 116.5,152.5 Z"/></g>
<g><path style="opacity:0.016" fill="#a1d566" d="M 114.5,153.5 C 114.5,153.167 114.5,152.833 114.5,152.5C 115.167,152.5 115.833,152.5 116.5,152.5C 116.158,153.338 115.492,153.672 114.5,153.5 Z"/></g>
<g><path style="opacity:0.016" fill="#aaa980" d="M 112.5,154.5 C 112.5,154.167 112.5,153.833 112.5,153.5C 113.167,153.5 113.833,153.5 114.5,153.5C 114.158,154.338 113.492,154.672 112.5,154.5 Z"/></g>
<g><path style="opacity:0.012" fill="#b3e99b" d="M 110.5,155.5 C 110.5,155.167 110.5,154.833 110.5,154.5C 111.167,154.5 111.833,154.5 112.5,154.5C 112.158,155.338 111.492,155.672 110.5,155.5 Z"/></g>
<g><path style="opacity:0.008" fill="#97ff7f" d="M 110.5,155.5 C 110.103,156.525 109.437,156.692 108.5,156C 109.094,155.536 109.761,155.369 110.5,155.5 Z"/></g>
<g><path style="opacity:0.012" fill="#b3e99b" d="M 105.5,157.5 C 105.5,157.167 105.5,156.833 105.5,156.5C 108.167,156.833 108.167,157.167 105.5,157.5 Z"/></g>
<g><path style="opacity:0.012" fill="#c9ff82" d="M 105.5,157.5 C 104.749,158.573 103.749,158.74 102.5,158C 103.448,157.517 104.448,157.351 105.5,157.5 Z"/></g>
<g><path style="opacity:0.012" fill="#b9e4aa" d="M 57.5,159.5 C 58.5676,158.566 59.901,158.232 61.5,158.5C 61.5,158.833 61.5,159.167 61.5,159.5C 60.1667,159.5 58.8333,159.5 57.5,159.5 Z"/></g>
<g><path style="opacity:0.016" fill="#cece80" d="M 98.5,159.5 C 98.5,159.167 98.5,158.833 98.5,158.5C 99.791,158.263 100.791,158.596 101.5,159.5C 100.5,159.5 99.5,159.5 98.5,159.5 Z"/></g>
</svg>
