<?xml version="1.0" encoding="UTF-8"?>
<!DOCTYPE svg PUBLIC "-//W3C//DTD SVG 1.1//EN" "http://www.w3.org/Graphics/SVG/1.1/DTD/svg11.dtd">
<svg xmlns="http://www.w3.org/2000/svg" version="1.1" width="160px" height="160px" style="shape-rendering:geometricPrecision; text-rendering:geometricPrecision; image-rendering:optimizeQuality; fill-rule:evenodd; clip-rule:evenodd" xmlns:xlink="http://www.w3.org/1999/xlink">
<g><path style="opacity:1" fill="#0b57a7" d="M -0.5,-0.5 C 52.8333,-0.5 106.167,-0.5 159.5,-0.5C 159.5,52.8333 159.5,106.167 159.5,159.5C 106.167,159.5 52.8333,159.5 -0.5,159.5C -0.5,106.167 -0.5,52.8333 -0.5,-0.5 Z"/></g>
<g><path style="opacity:1" fill="#86aad3" d="M 49.5,42.5 C 51.4459,43.2544 52.2793,44.5878 52,46.5C 50.5187,45.5291 49.6854,44.1958 49.5,42.5 Z"/></g>
<g><path style="opacity:1" fill="#e1eaf4" d="M 49.5,42.5 C 43.5795,40.1691 38.7462,41.5025 35,46.5C 29.0667,58.4683 26.9,71.1349 28.5,84.5C 28.2155,86.4147 28.5489,88.0813 29.5,89.5C 30.3715,97.4585 33.3715,104.458 38.5,110.5C 42.931,112.154 46.931,111.487 50.5,108.5C 48.9285,111.634 46.2618,113.3 42.5,113.5C 37.1052,112.546 33.2718,109.546 31,104.5C 28.8692,98.6435 27.3692,92.6435 26.5,86.5C 26.5,80.1667 26.5,73.8333 26.5,67.5C 26.5395,56.1747 30.8729,47.0081 39.5,40C 43.4631,38.8634 46.7964,39.6967 49.5,42.5 Z"/></g>
<g><path style="opacity:1" fill="#eaf0f7" d="M 55.5,58.5 C 56.0431,58.56 56.3764,58.8933 56.5,59.5C 52.9217,66.9909 49.0883,74.3242 45,81.5C 43.6152,80.4495 42.6152,79.1161 42,77.5C 41.3848,79.1161 40.3848,80.4495 39,81.5C 38.5172,80.552 38.3505,79.552 38.5,78.5C 35.786,78.75 33.1194,78.9167 30.5,79C 32.9757,77.6912 34.9757,75.8579 36.5,73.5C 35.7366,72.2807 34.7366,71.2807 33.5,70.5C 40.8953,66.4717 48.2286,62.4717 55.5,58.5 Z"/></g>
<g><path style="opacity:1" fill="#ecf1f8" d="M 62.5,69.5 C 65.2476,69.4017 65.9143,70.4017 64.5,72.5C 63.4023,76.9318 60.7357,79.5984 56.5,80.5C 56.2756,76.8212 55.9422,73.1545 55.5,69.5C 56.5,69.5 57.5,69.5 58.5,69.5C 59.315,75.9523 60.6484,75.9523 62.5,69.5 Z"/></g>
<g><path style="opacity:1" fill="#76a0ce" d="M 62.5,69.5 C 64.0496,68.2801 65.7163,68.2801 67.5,69.5C 67.0679,70.7095 66.4013,71.7095 65.5,72.5C 65.1667,72.5 64.8333,72.5 64.5,72.5C 65.9143,70.4017 65.2476,69.4017 62.5,69.5 Z"/></g>
<g><path style="opacity:1" fill="#e8eef6" d="M 65.5,72.5 C 66.4013,71.7095 67.0679,70.7095 67.5,69.5C 70.5815,67.9312 73.4149,68.2645 76,70.5C 76.4317,71.6001 75.9317,72.2668 74.5,72.5C 72.7422,71.554 71.0755,71.554 69.5,72.5C 75.5068,72.7781 76.8401,75.2781 73.5,80C 70.8333,80.6667 68.1667,80.6667 65.5,80C 64.6634,78.9887 64.33,77.8221 64.5,76.5C 66.8695,76.8511 69.2028,77.0178 71.5,77C 70.0506,75.883 68.3839,75.2163 66.5,75C 65.7476,74.3292 65.4142,73.4959 65.5,72.5 Z"/></g>
<g><path style="opacity:1" fill="#edf2f8" d="M 86.5,69.5 C 88.288,69.2148 89.9547,69.5481 91.5,70.5C 90.8318,73.8632 90.1651,77.1966 89.5,80.5C 88.325,80.719 87.325,80.3857 86.5,79.5C 87.6947,73.0368 87.028,73.0368 84.5,79.5C 83.675,80.3857 82.675,80.719 81.5,80.5C 81.2896,74.0339 80.623,74.0339 79.5,80.5C 78.5,80.5 77.5,80.5 76.5,80.5C 76.7811,76.8121 77.2811,73.1454 78,69.5C 79.3876,68.4464 80.8876,68.2797 82.5,69C 83.1288,77.367 84.4621,77.5336 86.5,69.5 Z"/></g>
<g><path style="opacity:1" fill="#e8eff7" d="M 91.5,80.5 C 91.9422,76.8455 92.2756,73.1788 92.5,69.5C 95.5,69.5 98.5,69.5 101.5,69.5C 102.302,70.9516 102.802,72.6183 103,74.5C 104.742,69.213 108.242,67.5463 113.5,69.5C 116.034,72.4222 116.034,75.4222 113.5,78.5C 110.792,80.4357 107.792,80.9357 104.5,80C 103.228,78.6932 102.228,77.1932 101.5,75.5C 99.2534,76.3742 96.9201,76.7076 94.5,76.5C 94.5,77.8333 94.5,79.1667 94.5,80.5C 93.5,80.5 92.5,80.5 91.5,80.5 Z"/></g>
<g><path style="opacity:1" fill="#5280bd" d="M 86.5,69.5 C 91.5,68.1667 96.5,68.1667 101.5,69.5C 98.5,69.5 95.5,69.5 92.5,69.5C 92.2756,73.1788 91.9422,76.8455 91.5,80.5C 90.8333,80.5 90.1667,80.5 89.5,80.5C 90.1651,77.1966 90.8318,73.8632 91.5,70.5C 89.9547,69.5481 88.288,69.2148 86.5,69.5 Z"/></g>
<g><path style="opacity:1" fill="#326fb4" d="M 40.5,69.5 C 42.6569,70.0533 42.4903,71.0533 40,72.5C 39.5304,71.4232 39.6971,70.4232 40.5,69.5 Z"/></g>
<g><path style="opacity:1" fill="#145ba9" d="M 108.5,71.5 C 109.5,71.5 110.5,71.5 111.5,71.5C 112.575,75.938 110.908,77.938 106.5,77.5C 106.253,75.1417 106.919,73.1417 108.5,71.5 Z"/></g>
<g><path style="opacity:1" fill="#4077b8" d="M 95.5,71.5 C 96.9778,71.238 98.3112,71.5713 99.5,72.5C 98.6798,74.1112 97.3464,74.7778 95.5,74.5C 95.5,73.5 95.5,72.5 95.5,71.5 Z"/></g>
<g><path style="opacity:1" fill="#729dcc" d="M 26.5,67.5 C 26.5,73.8333 26.5,80.1667 26.5,86.5C 24.076,86.8076 21.7427,86.4742 19.5,85.5C 21.396,84.5344 23.396,84.2011 25.5,84.5C 25.1778,78.642 25.5111,72.9753 26.5,67.5 Z"/></g>
<g><path style="opacity:1" fill="#91b3d7" d="M 28.5,84.5 C 31.5,84.5 34.5,84.5 37.5,84.5C 37.8333,85.1667 38.1667,85.8333 38.5,86.5C 35.5,86.5 32.5,86.5 29.5,86.5C 29.5,87.5 29.5,88.5 29.5,89.5C 28.5489,88.0813 28.2155,86.4147 28.5,84.5 Z"/></g>
<g><path style="opacity:1" fill="#d9e5f1" d="M 37.5,84.5 C 64.1667,84.5 90.8333,84.5 117.5,84.5C 115.167,85.1667 112.833,85.8333 110.5,86.5C 86.5,86.5 62.5,86.5 38.5,86.5C 38.1667,85.8333 37.8333,85.1667 37.5,84.5 Z"/></g>
<g><path style="opacity:1" fill="#80a8d1" d="M 117.5,84.5 C 125.196,84.1692 132.862,84.5025 140.5,85.5C 130.522,86.4985 120.522,86.8319 110.5,86.5C 112.833,85.8333 115.167,85.1667 117.5,84.5 Z"/></g>
<g><path style="opacity:1" fill="#f2f6fa" d="M 70.5,95.5 C 68.2646,95.7947 66.2646,95.4614 64.5,94.5C 65.1124,91.3027 67.1124,89.9694 70.5,90.5C 70.5,92.1667 70.5,93.8333 70.5,95.5 Z"/></g>
<g><path style="opacity:1" fill="#e8eff6" d="M 77.5,95.5 C 76.5,95.5 75.5,95.5 74.5,95.5C 73.5489,94.0813 73.2155,92.4147 73.5,90.5C 74.8333,90.5 76.1667,90.5 77.5,90.5C 77.5,92.1667 77.5,93.8333 77.5,95.5 Z"/></g>
<g><path style="opacity:1" fill="#eff4f9" d="M 82.5,95.5 C 81.209,95.7373 80.209,95.404 79.5,94.5C 79.7944,91.3539 81.461,90.1872 84.5,91C 83.7334,92.4705 83.0668,93.9705 82.5,95.5 Z"/></g>
<g><path style="opacity:1" fill="#e6edf5" d="M 86.5,90.5 C 87.8333,90.5 89.1667,90.5 90.5,90.5C 90.5,92.1667 90.5,93.8333 90.5,95.5C 89.1667,95.5 87.8333,95.5 86.5,95.5C 86.5,93.8333 86.5,92.1667 86.5,90.5 Z"/></g>
<g><path style="opacity:1" fill="#e7eef6" d="M 102.5,93.5 C 100.196,94.5925 97.196,95.2592 93.5,95.5C 92.2006,93.8466 92.5339,92.3466 94.5,91C 96.8333,90.3333 99.1667,90.3333 101.5,91C 102.252,91.6708 102.586,92.5041 102.5,93.5 Z"/></g>
<g><path style="opacity:1" fill="#f6f8fb" d="M 111.5,92.5 C 111.5,93.5 111.5,94.5 111.5,95.5C 109.219,95.9227 107.552,95.256 106.5,93.5C 106.5,92.5 106.5,91.5 106.5,90.5C 108.781,90.0773 110.448,90.744 111.5,92.5 Z"/></g>
<g><path style="opacity:1" fill="#f8fafc" d="M 118.5,95.5 C 116.473,95.6621 114.473,95.4955 112.5,95C 113.056,94.6174 113.389,94.1174 113.5,93.5C 114.048,90.9162 115.715,89.9162 118.5,90.5C 118.5,92.1667 118.5,93.8333 118.5,95.5 Z"/></g>
<g><path style="opacity:1" fill="#fafbfd" d="M 130.5,92.5 C 130.5,93.5 130.5,94.5 130.5,95.5C 128.265,95.7947 126.265,95.4614 124.5,94.5C 125.754,90.3606 127.754,89.6939 130.5,92.5 Z"/></g>
<g><path style="opacity:1" fill="#5d8ec4" d="M 111.5,92.5 C 112.167,92.8333 112.833,93.1667 113.5,93.5C 113.389,94.1174 113.056,94.6174 112.5,95C 114.473,95.4955 116.473,95.6621 118.5,95.5C 118.833,96.1667 119.167,96.8333 119.5,97.5C 118.5,97.5 117.5,97.5 116.5,97.5C 116.5,99.1667 116.5,100.833 116.5,102.5C 115.962,100.194 115.295,98.5277 114.5,97.5C 112.833,97.5 111.167,97.5 109.5,97.5C 109.167,96.1667 108.833,96.1667 108.5,97.5C 107.5,97.5 106.5,97.5 105.5,97.5C 105.232,95.901 105.566,94.5676 106.5,93.5C 107.552,95.256 109.219,95.9227 111.5,95.5C 111.5,94.5 111.5,93.5 111.5,92.5 Z"/></g>
<g><path style="opacity:1" fill="#5b8cc3" d="M 130.5,92.5 C 131.451,93.9187 131.784,95.5853 131.5,97.5C 128.833,98.8333 126.167,98.8333 123.5,97.5C 123.263,96.209 123.596,95.209 124.5,94.5C 126.265,95.4614 128.265,95.7947 130.5,95.5C 130.5,94.5 130.5,93.5 130.5,92.5 Z"/></g>
<g><path style="opacity:1" fill="#4a80bc" d="M 64.5,94.5 C 66.2646,95.4614 68.2646,95.7947 70.5,95.5C 70.8333,96.1667 71.1667,96.8333 71.5,97.5C 68.5,97.5 65.5,97.5 62.5,97.5C 62.9321,96.2905 63.5987,95.2905 64.5,94.5 Z"/></g>
<g><path style="opacity:1" fill="#5b8dc3" d="M 79.5,94.5 C 80.209,95.404 81.209,95.7373 82.5,95.5C 82.1667,96.1667 81.8333,96.8333 81.5,97.5C 79.1667,97.5 76.8333,97.5 74.5,97.5C 74.5,96.8333 74.5,96.1667 74.5,95.5C 75.5,95.5 76.5,95.5 77.5,95.5C 77.4346,95.9382 77.6012,96.2716 78,96.5C 78.2784,95.5842 78.7784,94.9175 79.5,94.5 Z"/></g>
<g><path style="opacity:1" fill="#6796c8" d="M 102.5,93.5 C 101.909,94.1515 101.243,94.8182 100.5,95.5C 101.243,96.1818 101.909,96.8485 102.5,97.5C 100.585,97.2155 98.9187,97.5489 97.5,98.5C 96.1283,97.4884 94.795,96.4884 93.5,95.5C 97.196,95.2592 100.196,94.5925 102.5,93.5 Z"/></g>
<g><path style="opacity:1" fill="#ebf1f8" d="M 62.5,97.5 C 65.5,97.5 68.5,97.5 71.5,97.5C 72.3007,99.0418 72.634,100.708 72.5,102.5C 70.3337,102.421 68.3337,101.754 66.5,100.5C 61.1977,103.544 59.8644,102.544 62.5,97.5 Z"/></g>
<g><path style="opacity:1" fill="#f6f9fc" d="M 74.5,97.5 C 76.8333,97.5 79.1667,97.5 81.5,97.5C 78.7914,104.06 76.4581,104.06 74.5,97.5 Z"/></g>
<g><path style="opacity:1" fill="#e8eff7" d="M 85.5,97.5 C 86.8333,97.5 88.1667,97.5 89.5,97.5C 89.5,99.1667 89.5,100.833 89.5,102.5C 88.1667,102.5 86.8333,102.5 85.5,102.5C 85.5,100.833 85.5,99.1667 85.5,97.5 Z"/></g>
<g><path style="opacity:1" fill="#eaf0f7" d="M 97.5,98.5 C 98.9187,97.5489 100.585,97.2155 102.5,97.5C 102.703,99.3904 102.037,100.89 100.5,102C 97.3307,102.978 94.4973,102.478 92,100.5C 91.5683,99.3999 92.0683,98.7332 93.5,98.5C 95.7236,99.7184 97.057,99.7184 97.5,98.5 Z"/></g>
<g><path style="opacity:1" fill="#e8eff6" d="M 105.5,97.5 C 106.5,97.5 107.5,97.5 108.5,97.5C 107.699,99.0418 107.366,100.708 107.5,102.5C 102.985,102.483 102.318,100.817 105.5,97.5 Z"/></g>
<g><path style="opacity:1" fill="#eef3f9" d="M 109.5,97.5 C 111.167,97.5 112.833,97.5 114.5,97.5C 114.368,100.797 112.702,102.463 109.5,102.5C 109.5,100.833 109.5,99.1667 109.5,97.5 Z"/></g>
<g><path style="opacity:1" fill="#fcfdfe" d="M 119.5,97.5 C 119.5,99.1667 119.5,100.833 119.5,102.5C 118.5,102.5 117.5,102.5 116.5,102.5C 116.5,100.833 116.5,99.1667 116.5,97.5C 117.5,97.5 118.5,97.5 119.5,97.5 Z"/></g>
<g><path style="opacity:1" fill="#e8eef6" d="M 123.5,97.5 C 126.167,98.8333 128.833,98.8333 131.5,97.5C 132.451,98.9187 132.784,100.585 132.5,102.5C 128.5,101.345 124.5,101.178 120.5,102C 121.399,100.348 122.399,98.8484 123.5,97.5 Z"/></g>
<g><path style="opacity:1" fill="#90b1d6" d="M 50.5,108.5 C 51.6401,106.22 52.8068,103.886 54,101.5C 54.4428,104.614 53.2762,106.948 50.5,108.5 Z"/></g>
</svg>
