<svg id="LOGO_6" xmlns="http://www.w3.org/2000/svg" viewBox="0 0 48 48"><defs><style>.cls-2,.cls-3{fill:#5987be;fill-rule:evenodd}.cls-3{fill:#f19e4f}</style></defs><g id="WTCM"><path fill="#5987be" d="M0 0h48v48H0z"/><path class="cls-2" d="M14.36 16.08a2 2 0 00-1.2-.51 1.55 1.55 0 00-1 .42 26 26 0 00-4.61 4.58A6.51 6.51 0 006.11 24c0 3.62 4.57 8.44 7.06 8.44 1.42 0 6.84-4 6.84-8.44-.01-2.79-3.8-6.36-5.65-7.92z"/><path class="cls-2" d="M25 16.32c-.39-.51-.62-.75-.89-.75s-.5.3-1 1C21.84 18.31 20 21.89 20 24c0 4.77 3.21 8.43 4 8.43 1.1 0 4-4.4 4-8.43 0-2.88-1.9-6.18-3-7.68zm11.59.15c-.71-.55-1.11-.88-1.61-.89s-.7.16-1.39.66C31.5 17.79 28 21.41 28 24c0 4 4.6 8.44 7 8.44 1.66 0 6.91-3.79 6.91-8.44-.02-2.34-3.23-5.89-5.32-7.53z"/><path class="cls-3" d="M25 16.42c-.15 0-.27 0-.41.08s-.06-.06 0-.1.26-.12.41.02zm-.67.04c-.1.11.09.32-.16.31a.28.28 0 01-.1-.27c.07-.06.17-.15.26-.04zm1.07.69h-.09c-.03 0 .06.09.09.13s-.16 0-.25 0c0-.19-.08-.39 0-.51a.42.42 0 01.25.38zm-2.52.72c0 .22-.31.17-.42.31 0-.18.18-.35.29-.48s.09.12.13.17zm4.24 8.05c0 .2-.16.36-.2.56s-.16.65-.52.62c-.14-.09-.06-.25-.1-.41.34-.15 0-.58.38-.62.16-.01.38-.58.44-.15zm.39-3.98a.17.17 0 00.16.1s.05 0 0 0-.16-.16-.21-.06zm-2-.23a.11.11 0 00-.1 0l.18.25c0 .19.29.31.23.51.2.17.25.46.51.56 0-.2-.13-.33-.19-.5-.27-.12-.17-.44-.43-.56-.07-.1-.1-.22-.21-.31zm1.19-.22c-.09.13.15.26.25.35a.3.3 0 00.31.2c0-.06.12-.09.12-.17a3.86 3.86 0 01-.45-.21c-.07-.06-.09-.21-.22-.18zM23.82 20l-.06.06a2.74 2.74 0 00.41.37c0 .06-.16 0-.13.15s-.1.25-.2.26a.28.28 0 01-.21-.15c.08-.06.21-.05.27-.08.06-.22-.17-.2-.27-.31-.1-.4-.31-.1-.55-.13-.05.19-.29.21-.38.39 0 0-.06 0-.08.08a.43.43 0 01-.37.19v.1c.34 0 .64-.26 1-.16a.37.37 0 01.35 0c-.09.08 0 .16-.09.25s.06.08.09.12c.27 0 .35.32.62.25v-.19c.21-.15.32.12.53.09.2.19.43 0 .66 0 0-.13.12-.23.08-.39s-.09-.12-.14-.07.07.06 0 .15-.05 0-.08.06-.1-.14-.1-.2-.12 0-.15 0h-.1c-.27.12-.19-.35-.41-.39s.06.13.09.19 0 .05 0 .08 0 .18-.19.13-.09-.19-.1-.26 0-.33-.21-.39-.15-.18-.26-.22zm1.25-.1c.08.09.17.26.29.1a.51.51 0 01.39.31c-.23.13-.47-.17-.7 0h-.15a.16.16 0 01-.06-.22c.08-.08.05-.33.22-.22zm1.17-.09s-.12.09-.08.16a3.2 3.2 0 00.33.43c0 .06 0 .21.06.27s.21.18.33.12c0-.15-.16-.23-.21-.37-.14-.06-.19-.19-.32-.27s.14-.1.12-.21-.18 0-.27 0zm-2.1-1.45c.25.11-.1.21 0 .34h.06a.07.07 0 010 .07c-.15 0-.25.18-.39.21s.19-.08.33 0a.5.5 0 00.1-.15c-.06-.19.19-.17.15-.32-.12-.09-.12-.32-.09-.44-.13 0-.14.16-.15.27zm.74-.5v.09c.06.05.11 0 .16 0s-.09 0-.12-.06zm.72-.51a13.62 13.62 0 012.28 4.91c.07.12 0 .23-.08.33s-.23.31-.44.25c-.16.22-.51.26-.76.41h-.14a.25.25 0 00.14.21c.21-.09.46-.11.66-.19 0 .3-.18.55-.31.8a4.59 4.59 0 00-.78.73.41.41 0 000 .21h-.08c-.02 0-.07.26.08.35a1.09 1.09 0 01-.07.69 3.41 3.41 0 00-.53.41c0 .13.13.3 0 .41a.43.43 0 00-.29.39 1.08 1.08 0 01-1 .63c-.09.07-.18 0-.22-.08.06-.32-.28-.56-.32-.89s-.57-.9-.1-1.31c-.13-.25 0-.56-.29-.7 0-.2-.35-.37-.16-.59 0-.1.18-.26 0-.25s-.33 0-.35-.23a.58.58 0 00-.38 0c-.26.39-.58-.14-.86.15-.23-.09-.52-.27-.57-.51s-.32-.16-.29-.35.25-.57.19-.94c.26-.23.36-.62.72-.7a1.49 1.49 0 01.57-.6s.07-.05 0-.1-.12-.06-.19-.06c-.19-.26.19-.4.15-.66.18-.11.53.17.63-.16s-.32-.24-.06-.39a.39.39 0 00.31-.17c0-.08-.12 0-.19 0a.15.15 0 01-.22.08c0-.1.21-.1.15-.25s-.39.31-.35 0a.65.65 0 01.39-.27c-.14-.19.15-.18.18-.31a.2.2 0 01.13.1c-.15.15.09.43 0 .6a.15.15 0 000 .09.36.36 0 00.21-.17c.05-.19.43-.1.28-.39 0-.13.26-.08.19-.23s-.16.18-.25 0a.75.75 0 010-.37 1 1 0 00.41-.43c0-.09.17-.13.12-.25.15-.11.28-.31.51-.23.06.27.38.15.51.35 0 0 0-.14.1-.1s0 .09.08.13c0-.33.5.06.27-.29-.07-.02-.05-.1.02-.07zm8.71 5.24c0 .08-.1.15-.1.24.2 0 .16.28.34.25s0 .07 0 .1l-.09.09a.7.7 0 01.19.35c-.08.06-.09.21-.23.18s-.24-.2-.12-.33c-.09-.1 0-.2-.12-.29s.05 0 .08 0 0 .12.13.08.08-.05.06-.1-.08 0-.13 0 0-.13-.1-.14 0 0-.06 0v.07c-.05 0-.09 0-.12-.07s-.14-.3 0-.45v-.1c.15.01.27.01.27.12zm2.97 2.22c-.09 0-.13.1-.17.16s.05.1 0 .15S37.05 25 37 25s-.21 0-.21-.09.3.06.34-.1h.08c.01 0-.12-.13-.19-.19.1.03.24.06.26.19zm.72.49v.13c0 .03-.06-.07-.09-.1s.09-.11.09-.03z"/><path class="cls-3" d="M34.26 17.1c0 .1-.15.21 0 .31.36 0-.1.35.21.39.1 0 .25-.1.33 0a.15.15 0 00.06.15c.15 0 .26 0 .31-.15v-.06c.09 0 0 .05 0 .09s.13 0 .18 0 .15.12.23.16.23 0 .33.09 0 .06.06.09.21-.13.33-.07.16.09.25 0c.18.23.68.15.63.51-.12 0-.22-.2-.33 0s.22 0 .18.21-.22.1-.22.23a.1.1 0 01-.1 0c0-.09-.12 0-.18 0s-.09.28.1.37c-.08.08 0 .21-.1.28a.42.42 0 01-.19.41v-.1h.06c-.05-.27-.4-.59-.12-.82 0-.08-.05-.14-.08-.17s-.22.41-.39.17c-.13.08-.22 0-.38 0s-.26.21-.26.37.16.08.23.15.09-.07.16 0 0 .33.16.44c0 .12-.16.19 0 .31 0 .05-.1.08-.08.14s.27.06.26.23-.14.17-.25.1c-.07.1.13.26 0 .38s0 .29-.08.35-.24 0-.29.13c-.11-.05-.21.08-.31.12a.23.23 0 01-.08.12c-.06-.06-.16-.14-.15-.24s.47-.15.59-.38c.19 0 .15-.23.19-.37s-.09-.12 0-.18.07-.21.13-.31 0-.29-.13-.39 0 .14-.08.2a1.28 1.28 0 01-.38.53c-.21-.1-.23.2-.39.27 0 .14.15.26.08.43a1 1 0 01-.24.15c-.09-.11.09-.33-.09-.41a.13.13 0 00-.2-.13l-.06.07c0-.07-.08-.16-.16-.1a.1.1 0 00-.1.16.11.11 0 00.1 0c0-.09.11 0 .18 0-.07.11-.21.12-.29.22.13.08.09.22.19.31.05.4-.29.72-.57 1a2.31 2.31 0 01-.47.1c-.15.06 0 .15 0 .25s-.11.16-.21.15a.15.15 0 01-.06-.13.28.28 0 00.12-.2c-.05-.06-.16 0-.22 0s-.08.07-.13.1c-.09.34.45.49.23.88-.1.23-.36.11-.44.35-.12 0 0-.14-.06-.21s-.17-.27-.35-.25-.17.1-.12.21 0 .43.27.45 0 .29.16.43-.08 0-.12 0 .1.08.08.16c-.06.07 0 .12.06.17s.07 0 .1 0 .15.15.23.08 0 .07 0 .08-.1-.07-.16 0 0 .28-.2.28c-.36-.33-.55-.77-.9-1.1 0-.19.14 0 .22 0a1.44 1.44 0 01.39.43.12.12 0 00.14-.06c-.16-.2-.27-.45-.43-.68 0-.3.11-.54 0-.82-.11-.06-.17.11-.29.09 0-.19.09-.43-.1-.58 0-.05 0-.09-.06-.12s-.39 0-.43.21c-.24 0-.31.27-.51.32s-.38.18-.31.44-.24.13-.19.31-.08.16-.18.16a2.82 2.82 0 01-.23-1c0-.09.14-.17 0-.25-.1.08-.2-.06-.25-.1s-.05-.18-.06-.31h-.07c-.16 0-.44.07-.6 0 .12-.38.37-.81.51-1.18a11.25 11.25 0 013.42-3.51 2.87 2.87 0 011-.61c.07.07 0 .13 0 .19-.33.08-.59.4-.85.62v.12a2.48 2.48 0 01.44-.37c.14 0 .28.08.38-.08s.45-.25.68-.33a.14.14 0 00.07-.15c0-.09-.21-.21 0-.28s.17-.03.25-.02z"/><path class="cls-3" d="M35.18 17.61s.05-.06.09 0 .05.05 0 .09-.1 0-.14-.06-.14.14-.21 0 .26-.16.26-.03zm1.23.39v.06c0 .01 0 0-.06 0s.04-.06.06-.06zm1.67.93c0 .1.2.15.18.28s-.22-.07-.35-.06c0-.16-.25-.21-.16-.39-.12-.13-.33-.07-.45-.21l.07-.1c-.12-.13-.37-.17-.33-.41.43.12.68.58 1.04.89zm-.61-.1a.12.12 0 01-.1 0c0-.12.11-.07.1 0zm1.26.78c0 .15-.15 0-.22.1s0-.18.06-.2a.24.24 0 01.16.1zm-2.67.98c.06 0 0 .09 0 .12a.08.08 0 010-.12zm-2.01 2.06a1.39 1.39 0 01-.15.35c-.12-.05 0-.19 0-.27s.1-.12.15-.08zm-.31 1.48a2 2 0 01-.18.26c-.03-.12.11-.2.18-.26zm-3.74.24c0 .08.05.2-.07.24s-.11 0-.16-.08.08-.19.1-.29.06.09.13.13zm3.69.31c0 .1-.09.09-.12.16s-.06.27 0 .43c-.16.09-.1.26-.25.35-.15-.14-.5 0-.53-.29-.06-.08-.14-.15-.1-.26s.14-.07.2 0c.18-.19.44-.26.59-.49.09-.08.08.1.21.1zm.9.32a1.18 1.18 0 01-.07.41c0-.08-.13-.18-.06-.29s.05-.12.13-.12zm-.33 0c0 .09-.26.17-.15.28s-.18.13-.1.25a.22.22 0 01.07.19c-.08-.05-.08-.15-.16-.17s0 .18-.13.19 0-.22-.1-.31l.13-.41c.1 0 .18.1.28.12a.24.24 0 01.16-.14zm.66.3c.12 0 .35-.05.29.16.14.21.32-.25.53 0a1.48 1.48 0 01.74.38c0 .15.1.26.21.34s.12 0 .15 0-.22.06-.35.06-.12-.21-.24-.25a.16.16 0 00-.17.06c0 .06 0 .18-.1.15s-.21-.25-.38-.12a.09.09 0 010-.13c.05 0 .09-.09 0-.15a.56.56 0 00-.51-.18c-.06-.13-.11-.29-.25-.35 0 0-.11-.19.07-.14zm-.09.24c-.09 0-.21.14-.28.07a.21.21 0 01.28-.07zm-.34.07a.15.15 0 01-.09 0s-.06-.08 0-.1.1.04.09.1zm.73.32c-.06 0-.06 0-.09-.06l.07-.06c.06.02.06.09.02.12zm2.07-.06v.06s-.12-.08-.1-.14a.11.11 0 01.1.08zm-2.83.27l-.35.2a.07.07 0 010-.1c0-.06.11 0 .09-.1s-.22 0-.33 0 0 .13 0 .16-.08-.05-.12-.08 0 0 .06 0v-.06c.2 0 .42-.08.62 0v-.1c-.05-.01.04-.01.03.08z"/><path fill="#f19e4f" d="M34.86 25.99h.06v.06h-.06z"/><path class="cls-3" d="M37.6 26.09zm-.6.24v.08c0 .02-.09-.07 0-.1s-.06-.01 0 .02zm.85.05v-.06s.01.03 0 .06zm-1.76.25c.2.19.09.52.39.65a2 2 0 00.38.54c-.14.13 0 .3-.07.45-.06.32-.45.45-.51.78-.08.09-.21.05-.28.16-.14-.19-.29 0-.45-.1s0-.32-.22-.22c.05 0 0-.09 0-.13-.22 0-.18-.36-.45-.28-.38-.14-.56.32-.94.24a.58.58 0 01-.31.1c-.16-.19.06-.38-.15-.55a1.07 1.07 0 01-.16-.85c.16 0 .27-.18.44-.14.08-.17.21 0 .29-.21s0-.18.1-.18.14-.08.16-.13.08-.08.13-.1.3.25.34 0c0-.09.12-.13 0-.21s0 .11.1.08 0-.1.08-.08a.43.43 0 00.37.06c.07.16-.08.41.18.5h.07c.07 0 .1-.06.14 0 .22-.17 0-.49.23-.62a.79.79 0 01.14.24zm2.21.22s0 .05-.06 0-.08-.09 0-.13.04.11.06.13z"/><path d="M39.48 27s0 .05-.06 0 0-.09 0-.1.06.02.06.1zm-.13 0c.06 0 0 .08 0 .12a.1.1 0 01-.1 0c-.06-.12.05-.12.1-.12zm.13.28h-.09a.08.08 0 01.06-.1.08.08 0 01.03.1zm.1 0c-.07 0 0-.06 0-.1s.07.08 0 .1z" fill="#f0a348" fill-rule="evenodd"/><path class="cls-3" d="M38.1 27.45c0 .06 0 .06-.06.08s-.19-.1-.16-.22.12.09.22.14zm.39 1.65c.06.11-.12.13-.17.2s-.19.26-.31.18c-.11.07-.19.21-.32.27s-.25.45-.46.19a.57.57 0 01.35-.29c.17 0 .22-.39.41-.21 0 0 .07-.05.1-.08s0-.06 0-.08.12-.19.16-.28 0-.11 0-.17c.15 0 .03.28.24.27zm-2.49.3c0 .08 0 .27-.12.28a.24.24 0 01-.1-.31zm-1.72-5.15a.19.19 0 01-.1.13s-.06-.05 0-.09.03-.06.1-.04zm-.39 1v-.07s-.01.07 0 .07zm-20.22-5.56v.09s0 .05.06 0 0-.09 0-.13zm-.35-.27v.09s.11.08.17 0a.12.12 0 00-.14-.1zm.56-1.56c-.27.13.15.06.12.14l-.12-.14zm-.6 0a.32.32 0 00.22.21c.06 0 .09-.13.17-.13.11.23-.07.5.14.68-.09.15 0 .26 0 .39s-.11-.09-.16-.15 0-.17-.06-.18a.34.34 0 01-.41-.23c-.18.06-.07-.16-.19-.18.07 0 0-.14 0-.2s.15-.17.27-.21zm-.84-.44h-.1.1zm.33-.08s-.09 0-.06.08.12 0 .16 0 0-.08-.1-.06zm.88 0l.09.13c0 .11-.17.19-.09.33a.09.09 0 010 .1c-.11 0-.15-.16-.25-.21.16-.1-.08-.43.2-.35zm-.49-.38l-.1.08c.06.14.09.32.28.33 0-.15-.22-.26-.18-.41zm-.33-.43h-.08c0 .06 0 .07.08.06v-.06zm.31-.12l-.08.12h.12a.07.07 0 000-.12zm.35-.27s-.06 0-.09-.06.09 0 .1 0zm1.09 14.55c-.17-.17-.2.14-.37.1-.05.21-.3.17-.39.33.33.11.49-.26.76-.39zm.72-.27v.06h-.06v-.06zm.8-.6s0 .06.08 0 0 0 0-.06-.11 0-.1 0zm-1.22-.34a.07.07 0 000 .12c.08 0 .1-.05.15-.09s-.09 0-.15 0zM7.31 25.9c0 .09.13.1.21.12s.11-.11.06-.18-.23 0-.26.06zm7.94-3.43a.13.13 0 00.15.06s.06 0 .06-.08a.13.13 0 00-.21 0zm-1 0c0 .05 0 .07.06.1s.12 0 .15 0-.15-.07-.21-.07zm-7.29-.27a.14.14 0 00.06.21c.05 0 .13-.08.1-.16s-.1-.09-.16 0zm6.74-.2c.2-.07.28.12.46.09a2.13 2.13 0 00.8.25c0 .1.22 0 .21.16s-.21 0-.29.08-.22 0-.31-.1l.1-.1c-.08-.1-.19 0-.28 0s-.36-.1-.49-.25-.17.08-.29.06.05-.1.1-.15zm.7-.21v-.04c0-.02 0 0 .06 0zm-.35-5.83c.51.38 1 .84 1.52 1.23.11.23-.32.23-.21.49 0 .05-.11.08-.08.14s.08.29.19.41v.06c-.17.08-.28-.12-.44-.16s-.32-.43-.51-.57c.17-.24-.22-.14-.16-.35-.19-.18-.33-.56-.68-.56 0-.1-.22-.22-.06-.32 0-.05-.08 0-.13 0s0 .15-.06.22.18.33-.1.33c0 .16.27 0 .29.21.15 0 .12.2.27.2s0 .27.22.25.25.09.25.24c-.24.1.13.23-.08.35s-.23-.15-.25 0 .32.07.16.25a.16.16 0 00.15.06c.07 0 0-.19.12-.16a2.14 2.14 0 00.74.68c0 .12.12.17.08.31a.23.23 0 00.23.1.35.35 0 01.14.26c-.24.09-.21-.16-.43-.15a.37.37 0 010-.24c-.08-.07-.15 0-.22.06v.06c-.05 0-.09-.05-.13 0s0 .23.13.25.14.06.25 0 .05.05 0 .09c-.24-.06-.28.51-.49.12a.22.22 0 00-.19.13l.06.12a.65.65 0 00-.34.43v.23c-.16.15-.49.31-.41.56-.08.16.2.12.13.31s0 .2 0 .22a.76.76 0 01-.25-.45.63.63 0 00-.47-.06v.1c-.21 0-.4-.23-.58 0 0 .05-.12.05-.16.12 0 .27-.22.62.06.84a.3.3 0 00.33.09.24.24 0 00.16-.12v-.13h.37c0 .17-.13.32-.15.49s.39 0 .5.15-.16.5.09.6.21-.26.37 0a.18.18 0 00.16.09c.14-.06.06-.22.21-.25s.26-.18.37 0c.12-.12.21.08.33.09s.28.16.32 0c.21 0 .25.13.35.25.15-.06.19.17.32.21s.68.11.8.47c0 .09-.15.15 0 .23.39-.13.57.32.92.22.2 0 .29.31.51.27a.59.59 0 01-.06.45c-.14.2-.57.3-.41.62-.19.22-.31.47-.5.7s-.26 0-.37.08-.49.17-.45.45-.26.09-.25.27c-.29.1-.38.57-.74.41-.12.1.07.25-.09.33s-.44 0-.53.28c0 .06-.2 0-.16.1-.2.06-.17.34-.39.35 0 .09.12.14.06.22s-.27.21-.31.39-.08.07-.06.12.16.08.15.19-.3.05-.44-.06a.76.76 0 010-.68c0-.17.27-.35.16-.55.13-.16.06-.36.16-.54a1 1 0 00.25-.69 3.91 3.91 0 00.29-.81c.11-.3-.09-.45-.29-.61s-.3-.14-.25-.31c-.15-.24-.2-.52-.43-.7s.28-.22 0-.41c0-.09 0-.28.14-.26a.65.65 0 00.21-.62c-.08 0 0-.18-.16-.18s-.08.18-.18.16-.5-.26-.56-.52-.54-.08-.64-.39a.9.9 0 01-.69-.15.67.67 0 01-.44-.28c.08-.26-.18-.47-.27-.7 0 0-.08-.11-.15-.1a1.15 1.15 0 00.15.5s0 .05-.08 0c-.25-.09-.11-.39-.38-.48 0-.06.07-.1 0-.18-.23-.09 0-.3-.21-.44l-.1.09c-.12-.05 0-.19-.08-.27-.31-.5.19-.89.22-1.36-.17-.05-.09-.19 0-.28s0-.09-.07-.13l-.08.07c-.15-.05 0-.17 0-.23v-.37c-.1-.29-.4 0-.58-.12s-.21.12-.28.22a.25.25 0 01-.21 0c-.09-.08 0-.2.08-.28A16.88 16.88 0 0111 17.07c.09 0 .11.09.19.1s.38.21.57 0 .43.11.49-.06-.25-.02-.15-.11.18-.24.31-.14.25.21.35.37 0 .1 0 .13a.16.16 0 00.15-.1c0-.14-.21-.17-.1-.33s.18 0 .31 0 0 .07.06.06l.06-.06c-.11-.13-.31-.07-.43-.17s-.18.07-.27.1a.53.53 0 00-.21-.14c0-.12.11-.13.17-.19s.1-.15.22-.1l.1.12c.11 0-.05-.15.06-.18s.14.12.21 0-.08-.19 0-.22a.16.16 0 00.15-.06 4.51 4.51 0 00.59 0v-.1z"/><path class="cls-3" d="M10.93 31.75a11.78 11.78 0 01-2.34-2.08A9.48 9.48 0 016 24a6.62 6.62 0 011.5-3.52 26.29 26.29 0 014.64-4.61 1.71 1.71 0 011.06-.45 2.18 2.18 0 011.29.55A28.68 28.68 0 0118 19.48c1.19 1.45 2.16 3 2.16 4.51a8.51 8.51 0 01-2.36 5.35 12.06 12.06 0 01-3.87 3 2.12 2.12 0 01-.76.19 4.36 4.36 0 01-2.23-.83zm2.88.36a7 7 0 00.94-.51A13.2 13.2 0 0017 29.76c1.52-1.54 2.85-3.63 2.85-5.76 0-1.32-.92-2.9-2.1-4.32a28.53 28.53 0 00-3.5-3.48l.1-.11-.1.11a1.91 1.91 0 00-1.1-.48 1.4 1.4 0 00-.88.39 26 26 0 00-4.57 4.54A6.38 6.38 0 006.26 24a7.91 7.91 0 001.55 4.18 12.45 12.45 0 003.29 3.32 4.08 4.08 0 002.07.78 1.88 1.88 0 00.64-.17z"/><path class="cls-3" d="M23.56 32.39a3.82 3.82 0 01-.6-.5 9.53 9.53 0 01-1.38-1.81A12 12 0 0119.86 24a10.74 10.74 0 011.08-3.91 22.89 22.89 0 012-3.62 7.34 7.34 0 01.58-.76.72.72 0 01.52-.29.75.75 0 01.5.22 4.23 4.23 0 01.51.59l-.12.09.12-.09c1.16 1.52 3.09 4.83 3.1 7.77a12.6 12.6 0 01-1.27 5.17 8.76 8.76 0 01-2.27 3.19 1 1 0 01-.57.22 1 1 0 01-.5-.19zm.19-16.48a7.87 7.87 0 00-.55.73 22.52 22.52 0 00-2 3.57A10.47 10.47 0 0020.16 24a11.58 11.58 0 001.36 5.34 8 8 0 002.21 2.8.75.75 0 00.33.14.78.78 0 00.4-.17 3.45 3.45 0 00.57-.53 10.17 10.17 0 001.29-1.93A12.66 12.66 0 0027.87 24c0-2.81-1.9-6.11-3-7.59a4.13 4.13 0 00-.47-.55.45.45 0 00-.3-.15c-.1.01-.2.05-.35.2z"/><path class="cls-3" d="M32.82 31.8a11.21 11.21 0 01-2.32-2 9.3 9.3 0 01-2.64-5.8 7.87 7.87 0 012-4.36 20.59 20.59 0 013.61-3.51 6.2 6.2 0 01.78-.53 1.39 1.39 0 01.67-.16 1.54 1.54 0 01.8.26 9.41 9.41 0 01.9.66l-.09.12.09-.12a21 21 0 013.46 3.53A7.7 7.7 0 0142 24a8.12 8.12 0 01-1.78 4.8 12.25 12.25 0 01-3.42 3.1 4.18 4.18 0 01-1.86.69 4.36 4.36 0 01-2.17-.78zm3.87-.16A11.56 11.56 0 0039 29.85 8.64 8.64 0 0041.74 24a7.47 7.47 0 00-1.83-3.93 20.83 20.83 0 00-3.41-3.48 9.94 9.94 0 00-.87-.64 1.25 1.25 0 00-.65-.22 1.08 1.08 0 00-.54.13 6.33 6.33 0 00-.74.5 20.31 20.31 0 00-3.56 3.46 7.62 7.62 0 00-2 4.18 8 8 0 001.56 4.34 11.67 11.67 0 003.3 3.21 4.09 4.09 0 002 .73 3.94 3.94 0 001.69-.64z"/></g></svg>