<?xml version="1.0" encoding="UTF-8"?>
<!DOCTYPE svg PUBLIC "-//W3C//DTD SVG 1.1//EN" "http://www.w3.org/Graphics/SVG/1.1/DTD/svg11.dtd">
<svg xmlns="http://www.w3.org/2000/svg" version="1.1" width="160px" height="160px" style="shape-rendering:geometricPrecision; text-rendering:geometricPrecision; image-rendering:optimizeQuality; fill-rule:evenodd; clip-rule:evenodd" xmlns:xlink="http://www.w3.org/1999/xlink">
<g><path style="opacity:1" fill="#f4f7f8" d="M -0.5,-0.5 C 52.8333,-0.5 106.167,-0.5 159.5,-0.5C 159.5,52.8333 159.5,106.167 159.5,159.5C 106.167,159.5 52.8333,159.5 -0.5,159.5C -0.5,106.167 -0.5,52.8333 -0.5,-0.5 Z"/></g>
<g><path style="opacity:1" fill="#115aac" d="M 116.5,33.5 C 108.512,26.1724 99.1782,21.5058 88.5,19.5C 99.758,18.2732 110.258,20.9399 120,27.5C 120.387,30.3045 119.221,32.3045 116.5,33.5 Z"/></g>
<g><path style="opacity:1" fill="#0b61b0" d="M 72.5,13.5 C 72.5,17.5 72.5,21.5 72.5,25.5C 71.6009,24.5285 70.4343,23.8618 69,23.5C 60.0513,25.2579 51.8846,28.7579 44.5,34C 43.8095,35.0674 43.3095,36.2341 43,37.5C 42.5065,35.8659 42.3398,34.1992 42.5,32.5C 44.5393,27.6217 47.8726,23.7883 52.5,21C 58.8695,17.6461 65.5362,15.1461 72.5,13.5 Z"/></g>
<g><path style="opacity:1" fill="#076db7" d="M 88.5,19.5 C 99.1782,21.5058 108.512,26.1724 116.5,33.5C 115.5,35.1667 114.167,36.5 112.5,37.5C 103.058,30.9359 92.7245,26.9359 81.5,25.5C 82.8118,22.3392 85.1451,20.3392 88.5,19.5 Z"/></g>
<g><path style="opacity:1" fill="#027ec1" d="M 81.5,25.5 C 92.7245,26.9359 103.058,30.9359 112.5,37.5C 112.167,38.5 111.5,39.1667 110.5,39.5C 101.807,34.6573 92.4732,31.4907 82.5,30C 81.244,29.5831 80.5774,28.7498 80.5,27.5C 80.3284,26.5084 80.6618,25.8417 81.5,25.5 Z"/></g>
<g><path style="opacity:1" fill="#067abf" d="M 72.5,25.5 C 72.6621,27.5273 72.4955,29.5273 72,31.5C 60.9311,31.6952 51.7644,36.0285 44.5,44.5C 41.6854,40.7885 41.0187,36.7885 42.5,32.5C 42.3398,34.1992 42.5065,35.8659 43,37.5C 43.3095,36.2341 43.8095,35.0674 44.5,34C 51.8846,28.7579 60.0513,25.2579 69,23.5C 70.4343,23.8618 71.6009,24.5285 72.5,25.5 Z"/></g>
<g><path style="opacity:1" fill="#1789c7" d="M 72.5,13.5 C 73.8333,20.5 73.8333,27.5 72.5,34.5C 62.0884,35.0389 53.4217,39.3723 46.5,47.5C 45.8333,46.5 45.1667,45.5 44.5,44.5C 51.7644,36.0285 60.9311,31.6952 72,31.5C 72.4955,29.5273 72.6621,27.5273 72.5,25.5C 72.5,21.5 72.5,17.5 72.5,13.5 Z"/></g>
<g><path style="opacity:1" fill="#0692cd" d="M 80.5,27.5 C 80.5774,28.7498 81.244,29.5831 82.5,30C 92.4732,31.4907 101.807,34.6573 110.5,39.5C 108.105,42.8615 105.105,45.5281 101.5,47.5C 95.4624,41.6541 88.2958,39.3207 80,40.5C 79.5017,37.1832 79.335,33.8499 79.5,30.5C 79.2627,29.209 79.596,28.209 80.5,27.5 Z"/></g>
<g><path style="opacity:1" fill="#089fd5" d="M 72.5,34.5 C 72.5,36.8333 72.5,39.1667 72.5,41.5C 64.9793,42.9395 58.3126,46.6062 52.5,52.5C 49.9108,51.5806 47.9108,49.914 46.5,47.5C 53.4217,39.3723 62.0884,35.0389 72.5,34.5 Z"/></g>
<g><path style="opacity:1" fill="#0b68b4" d="M 31.5,39.5 C 33.5,40.8333 35.1667,42.5 36.5,44.5C 29.9333,52.4742 25.9333,61.6408 24.5,72C 24.3158,73.3756 23.6491,74.2089 22.5,74.5C 20.5905,73.0254 19.4238,71.0254 19,68.5C 18.1901,64.6425 18.3567,60.9758 19.5,57.5C 19.3379,59.5273 19.5045,61.5273 20,63.5C 23.5995,55.3038 27.4329,47.3038 31.5,39.5 Z"/></g>
<g><path style="opacity:1" fill="#0467b4" d="M 124.5,42.5 C 127.089,42.461 129.089,43.461 130.5,45.5C 129.957,45.56 129.624,45.8933 129.5,46.5C 133.994,54.4816 136.994,62.9816 138.5,72C 137.944,72.3826 137.611,72.8826 137.5,73.5C 135.167,73.5 132.833,73.5 130.5,73.5C 130.186,62.8687 126.519,53.5353 119.5,45.5C 120.641,44.5745 120.641,43.7412 119.5,43C 121.134,42.5065 122.801,42.3398 124.5,42.5 Z"/></g>
<g><path style="opacity:1" fill="#175aac" d="M 31.5,39.5 C 27.4329,47.3038 23.5995,55.3038 20,63.5C 19.5045,61.5273 19.3379,59.5273 19.5,57.5C 20.7255,49.7156 24.0589,43.0489 29.5,37.5C 30.5223,37.8555 31.189,38.5222 31.5,39.5 Z"/></g>
<g><path style="opacity:1" fill="#16b7e2" d="M 79.5,30.5 C 79.335,33.8499 79.5017,37.1832 80,40.5C 88.2958,39.3207 95.4624,41.6541 101.5,47.5C 96.4382,52.4243 90.7715,56.2577 84.5,59C 79.769,49.8654 78.1023,40.3654 79.5,30.5 Z"/></g>
<g><path style="opacity:1" fill="#0f81c3" d="M 124.5,42.5 C 122.801,42.3398 121.134,42.5065 119.5,43C 120.641,43.7412 120.641,44.5745 119.5,45.5C 126.519,53.5353 130.186,62.8687 130.5,73.5C 128.833,73.5 127.167,73.5 125.5,73.5C 124.964,68.6898 123.797,64.0231 122,59.5C 119.311,54.6671 116.478,50.0004 113.5,45.5C 116.548,41.8335 120.215,40.8335 124.5,42.5 Z"/></g>
<g><path style="opacity:1" fill="#057bc0" d="M 36.5,44.5 C 38.1667,45.5 39.5,46.8333 40.5,48.5C 37.3102,54.9458 34.4769,61.9458 32,69.5C 31.2228,72.4294 31.3895,75.2628 32.5,78C 31.2068,78.49 29.8734,78.6567 28.5,78.5C 25.8021,78.1551 23.8021,76.8218 22.5,74.5C 23.6491,74.2089 24.3158,73.3756 24.5,72C 25.9333,61.6408 29.9333,52.4742 36.5,44.5 Z"/></g>
<g><path style="opacity:1" fill="#0ab0de" d="M 72.5,41.5 C 72.3713,43.2161 72.038,44.8828 71.5,46.5C 65.1474,47.8444 59.4808,50.5111 54.5,54.5C 53.5,54.1667 52.8333,53.5 52.5,52.5C 58.3126,46.6062 64.9793,42.9395 72.5,41.5 Z"/></g>
<g><path style="opacity:1" fill="#1cc1e8" d="M 71.5,46.5 C 71.3512,51.5754 70.6845,56.5754 69.5,61.5C 63.8246,60.4942 58.8246,58.1609 54.5,54.5C 59.4808,50.5111 65.1474,47.8444 71.5,46.5 Z"/></g>
<g><path style="opacity:1" fill="#0999d1" d="M 40.5,48.5 C 43.2948,50.7514 45.6281,53.4181 47.5,56.5C 43.1563,64.1449 40.823,71.8116 40.5,79.5C 36.2984,79.8168 32.2984,79.4834 28.5,78.5C 29.8734,78.6567 31.2068,78.49 32.5,78C 31.3895,75.2628 31.2228,72.4294 32,69.5C 34.4769,61.9458 37.3102,54.9458 40.5,48.5 Z"/></g>
<g><path style="opacity:1" fill="#11acdc" d="M 108.5,49.5 C 108.586,50.4959 108.252,51.3292 107.5,52C 113.577,57.4728 116.577,64.1395 116.5,72C 119.036,72.1862 121.369,72.6862 123.5,73.5C 119.785,73.577 116.119,73.2436 112.5,72.5C 112.082,71.7784 111.416,71.2784 110.5,71C 111.649,69.3963 111.649,67.7297 110.5,66C 108.072,62.8071 105.739,59.6404 103.5,56.5C 104.811,53.8646 106.478,51.5313 108.5,49.5 Z"/></g>
<g><path style="opacity:1" fill="#1459ab" d="M 130.5,45.5 C 138.767,52.9276 143.433,62.2609 144.5,73.5C 142.167,73.5 139.833,73.5 137.5,73.5C 137.611,72.8826 137.944,72.3826 138.5,72C 136.994,62.9816 133.994,54.4816 129.5,46.5C 129.624,45.8933 129.957,45.56 130.5,45.5 Z"/></g>
<g><path style="opacity:1" fill="#0cb2e0" d="M 47.5,56.5 C 49.0627,57.9448 50.396,59.6115 51.5,61.5C 49.0556,66.9456 47.3889,72.6122 46.5,78.5C 44.4352,78.5172 42.4352,78.8505 40.5,79.5C 40.823,71.8116 43.1563,64.1449 47.5,56.5 Z"/></g>
<g><path style="opacity:1" fill="#29c3e8" d="M 103.5,56.5 C 105.739,59.6404 108.072,62.8071 110.5,66C 111.649,67.7297 111.649,69.3963 110.5,71C 111.416,71.2784 112.082,71.7784 112.5,72.5C 107.5,71.8333 102.5,71.1667 97.5,70.5C 97.8791,65.0816 99.8791,60.4149 103.5,56.5 Z"/></g>
<g><path style="opacity:1" fill="#0399d1" d="M 113.5,45.5 C 116.478,50.0004 119.311,54.6671 122,59.5C 123.797,64.0231 124.964,68.6898 125.5,73.5C 124.833,73.5 124.167,73.5 123.5,73.5C 121.369,72.6862 119.036,72.1862 116.5,72C 116.577,64.1395 113.577,57.4728 107.5,52C 108.252,51.3292 108.586,50.4959 108.5,49.5C 109.585,47.4131 111.251,46.0798 113.5,45.5 Z"/></g>
<g><path style="opacity:1" fill="#21c4e9" d="M 51.5,61.5 C 54.3899,64.9221 57.0566,68.5888 59.5,72.5C 59.0233,73.4776 58.3567,74.3109 57.5,75C 53.8463,76.2738 50.1796,77.4404 46.5,78.5C 47.3889,72.6122 49.0556,66.9456 51.5,61.5 Z"/></g>
<g><path style="opacity:1" fill="#089fd4" d="M 117.5,79.5 C 121.371,79.185 125.038,79.5184 128.5,80.5C 126.5,80.5 124.5,80.5 122.5,80.5C 122.619,89.8079 119.952,98.1413 114.5,105.5C 112.086,104.089 110.419,102.089 109.5,99.5C 112.562,93.5864 114.229,87.2531 114.5,80.5C 115.791,80.7373 116.791,80.404 117.5,79.5 Z"/></g>
<g><path style="opacity:1" fill="#0586c6" d="M 128.5,80.5 C 129.791,80.2627 130.791,80.596 131.5,81.5C 129.253,92.0248 125.253,102.025 119.5,111.5C 117.086,110.089 115.419,108.089 114.5,105.5C 119.952,98.1413 122.619,89.8079 122.5,80.5C 124.5,80.5 126.5,80.5 128.5,80.5 Z"/></g>
<g><path style="opacity:1" fill="#21c0e7" d="M 117.5,79.5 C 116.791,80.404 115.791,80.7373 114.5,80.5C 114.229,87.2531 112.562,93.5864 109.5,99.5C 104.773,95.356 101.607,90.356 100,84.5C 105.528,81.8258 111.361,80.1592 117.5,79.5 Z"/></g>
<g><path style="opacity:1" fill="#056db7" d="M 131.5,81.5 C 134.732,81.7717 136.732,83.4384 137.5,86.5C 135.372,97.4253 131.039,107.425 124.5,116.5C 122.5,115.167 120.833,113.5 119.5,111.5C 125.253,102.025 129.253,92.0248 131.5,81.5 Z"/></g>
<g><path style="opacity:1" fill="#0d5eaf" d="M 21.5,85.5 C 20.77,88.4324 20.9366,91.4324 22,94.5C 23.9241,100.614 26.4241,106.447 29.5,112C 29.1639,113.03 28.4972,113.53 27.5,113.5C 20.1089,105.693 15.7756,96.3598 14.5,85.5C 16.8333,85.5 19.1667,85.5 21.5,85.5 Z"/></g>
<g><path style="opacity:1" fill="#0869b5" d="M 21.5,85.5 C 22.1667,85.5 22.8333,85.5 23.5,85.5C 25.6255,97.4133 30.6255,107.747 38.5,116.5C 34.2059,117.193 30.5392,116.193 27.5,113.5C 28.4972,113.53 29.1639,113.03 29.5,112C 26.4241,106.447 23.9241,100.614 22,94.5C 20.9366,91.4324 20.77,88.4324 21.5,85.5 Z"/></g>
<g><path style="opacity:1" fill="#0380c2" d="M 23.5,85.5 C 25.5,85.5 27.5,85.5 29.5,85.5C 30.2625,86.2679 31.2625,86.7679 32.5,87C 32.9177,97.67 37.251,106.503 45.5,113.5C 43.5395,115.312 41.2061,116.312 38.5,116.5C 30.6255,107.747 25.6255,97.4133 23.5,85.5 Z"/></g>
<g><path style="opacity:1" fill="#1bb8e2" d="M 33.5,85.5 C 42.5063,85.9252 51.3396,87.2586 60,89.5C 60.2743,92.6487 59.6077,95.6487 58,98.5C 56.0211,102.3 53.5211,105.634 50.5,108.5C 45.6792,102.203 41.3459,95.5361 37.5,88.5C 37.7093,87.914 38.0426,87.414 38.5,87C 36.6183,86.8019 34.9516,86.3019 33.5,85.5 Z"/></g>
<g><path style="opacity:1" fill="#0299d1" d="M 29.5,85.5 C 30.8333,85.5 32.1667,85.5 33.5,85.5C 34.9516,86.3019 36.6183,86.8019 38.5,87C 38.0426,87.414 37.7093,87.914 37.5,88.5C 41.3459,95.5361 45.6792,102.203 50.5,108.5C 49.1667,110.5 47.5,112.167 45.5,113.5C 37.251,106.503 32.9177,97.67 32.5,87C 31.2625,86.7679 30.2625,86.2679 29.5,85.5 Z"/></g>
<g><path style="opacity:1" fill="#23c4e9" d="M 78.5,114.5 C 77.596,113.791 77.2627,112.791 77.5,111.5C 72.0443,111.791 67.0443,110.458 62.5,107.5C 65.5012,104.507 68.8346,101.841 72.5,99.5C 76.0516,103.81 78.0516,108.81 78.5,114.5 Z"/></g>
<g><path style="opacity:1" fill="#0b58ab" d="M 137.5,86.5 C 138.222,86.9175 138.722,87.5842 139,88.5C 140.57,100.948 137.403,111.948 129.5,121.5C 127.479,120.145 125.812,118.479 124.5,116.5C 131.039,107.425 135.372,97.4253 137.5,86.5 Z"/></g>
<g><path style="opacity:1" fill="#14bae4" d="M 103.5,105.5 C 99.1627,110.837 93.4961,113.837 86.5,114.5C 87.0369,109.149 87.7035,103.816 88.5,98.5C 94.4293,98.9661 99.4293,101.299 103.5,105.5 Z"/></g>
<g><path style="opacity:1" fill="#13a6d9" d="M 103.5,105.5 C 105.749,106.08 107.415,107.413 108.5,109.5C 102.457,115.77 95.2905,119.437 87,120.5C 86.79,122.058 86.29,123.391 85.5,124.5C 85.3424,121.098 85.6758,117.764 86.5,114.5C 93.4961,113.837 99.1627,110.837 103.5,105.5 Z"/></g>
<g><path style="opacity:1" fill="#13b2df" d="M 62.5,107.5 C 67.0443,110.458 72.0443,111.791 77.5,111.5C 77.2627,112.791 77.596,113.791 78.5,114.5C 79.7508,119.631 79.7508,124.631 78.5,129.5C 78.5,127.5 78.5,125.5 78.5,123.5C 78.6621,121.473 78.4955,119.473 78,117.5C 70.5872,117.867 63.7539,115.867 57.5,111.5C 58.5846,109.413 60.2512,108.08 62.5,107.5 Z"/></g>
<g><path style="opacity:1" fill="#038cca" d="M 108.5,109.5 C 110.5,110.833 112.167,112.5 113.5,114.5C 105.963,122.605 96.6301,127.605 85.5,129.5C 85.5,127.833 85.5,126.167 85.5,124.5C 86.29,123.391 86.79,122.058 87,120.5C 95.2905,119.437 102.457,115.77 108.5,109.5 Z"/></g>
<g><path style="opacity:1" fill="#069fd5" d="M 57.5,111.5 C 63.7539,115.867 70.5872,117.867 78,117.5C 78.4955,119.473 78.6621,121.473 78.5,123.5C 68.8553,124.252 60.1887,121.585 52.5,115.5C 53.5846,113.413 55.2512,112.08 57.5,111.5 Z"/></g>
<g><path style="opacity:1" fill="#0970b9" d="M 46.5,120.5 C 55.9822,127.427 66.3155,131.094 77.5,131.5C 76.6069,135.395 74.2736,138.062 70.5,139.5C 65.7742,137.419 60.7742,135.586 55.5,134C 50.3058,131.909 45.6391,129.076 41.5,125.5C 42.8333,123.5 44.5,121.833 46.5,120.5 Z"/></g>
<g><path style="opacity:1" fill="#0286c6" d="M 52.5,115.5 C 60.1887,121.585 68.8553,124.252 78.5,123.5C 78.5,125.5 78.5,127.5 78.5,129.5C 78.6716,130.492 78.3382,131.158 77.5,131.5C 66.3155,131.094 55.9822,127.427 46.5,120.5C 48.4752,118.863 50.4752,117.196 52.5,115.5 Z"/></g>
<g><path style="opacity:1" fill="#0b78bd" d="M 113.5,114.5 C 116.873,119.063 117.206,123.729 114.5,128.5C 114.31,126.358 114.144,124.025 114,121.5C 105.95,128.94 96.4504,133.274 85.5,134.5C 85.5,132.833 85.5,131.167 85.5,129.5C 96.6301,127.605 105.963,122.605 113.5,114.5 Z"/></g>
<g><path style="opacity:1" fill="#0b5faf" d="M 114.5,128.5 C 112.743,133.425 109.41,136.925 104.5,139C 98.3753,141.875 92.042,144.041 85.5,145.5C 85.5,141.833 85.5,138.167 85.5,134.5C 96.4504,133.274 105.95,128.94 114,121.5C 114.144,124.025 114.31,126.358 114.5,128.5 Z"/></g>
<g><path style="opacity:1" fill="#155cad" d="M 41.5,125.5 C 45.6391,129.076 50.3058,131.909 55.5,134C 60.7742,135.586 65.7742,137.419 70.5,139.5C 57.873,142.126 46.873,138.959 37.5,130C 39.0414,128.629 40.3747,127.129 41.5,125.5 Z"/></g>
</svg>
