<svg id="LOGO_6" xmlns="http://www.w3.org/2000/svg" viewBox="0 0 48 48"><defs><style>.cls-2{fill:#2d2f8f}</style></defs><g id="YKEN"><path fill="#f0f1f2" d="M0 0h48v48H0z"/><path class="cls-2" d="M26.28 24.5h-4.75l-1.12 4.26z"/><path class="cls-2" d="m25.56 21.51-.37-1.31h3.34l-3.78-1.53-.87-3.15-.8 3.08-3.83 1.59 3.4.06.35-1.45h1.49l-1.75 1.1-.06.17v.16l-.34 1.3c-4.89.27-8.61 1.72-8.61 3.46 0 1 1.35 2 3.49 2.63l3.42-2.49c-1.81 0-3.18-.47-3.23-1.15s1.73-1.59 4-1.77l.76-.06-.63 2.35 3.39-2.43c3 .15 5.37 1.09 5.89 2.37h-2.15l-.86.63h3.11c-.1 1.71-3.35 3.22-7.4 3.4H24c5.69 0 10.29-1.57 10.29-3.51 0-1.74-3.78-3.2-8.73-3.45zm-.71-1.31.36 1.3h-.05L23 20.21z"/><path d="M33.15 23.98h-.01l.02.02v-.01l-.01-.01zm-5.65 6.33 11.71-5.86-.1-.05-.08-.04-.09-.04-.09-.03-10.95 5.47v.04l-.02.06-.03.06-.05.06-.05.08-.08.07-.08.09-.09.09zM10.83 26.2l.13.04.1.04.09.04.06.02 2.07-1.02-.02-.16-.02-.16-2.41 1.2zm3.51 1.77 1.23-.61-.09-.04-.1-.04-.17-.09-1.48.74.26.01.24.02h.09l.02.01zm13.33 1.62 3.62-1.82-.36.12-.38.11-.4.1-.41.1-3.31 1.66.13-.04.13-.04.11-.03.11-.03.09-.03.09-.02.08-.02.08-.02.07-.02.06-.01.06-.01.06-.01h.13l.04.01zm-14.49-1.67 1.76-.88-.16-.09-.16-.09-2.11 1.04.34.01.33.01zm5.63 1.01.87-.45-.25-.04-.13-.02-.14-.02-1.15.57.14-.01.13-.01.12-.01.11-.01h.3zm-2.98 1.35-.2.06-.18.07-.17.05-.15.06-.14.05-.14.05-.14.04-.13.04-.9.44.16.02.15.01.15.01h.14l3.5-1.74-.14.04-.12.05-.12.05-.11.05-.21.1-.2.1-.22.11-.11.06-.12.05-.13.06-.15.05-.15.06-.17.06zm-2.48.58-.22.01-.1.01h-.1l-.3.15.13.02.13.02.29.03.52-.26-.17.01-.18.01zm-1.14-1.82-.15.01h-.13l-.12.01h-.1l-.09.01h-.08l-.06.01h-.06l-.04.01h-.11l.01.01h.02l.03.01h.04l.08.02.12.02.14.03.17.03.33-.17zm2.25-.49-.22.06-.21.07-.19.05-.19.06-.18.05-.17.04-.18.04-.17.03-.61.31.14.01.15.02.16.01.16.01 1.51-.76zm-.32.77h.05l2.86-1.42-.22-.07-.2-.07-.79.4-.33.16-2.02 1.01h.47l.18-.01zm4.61-1-.25-.05-.25-.05-1.88.94.24-.03.23-.02.22-.03.21-.02 1.48-.74zm-2.47-.67-.2-.08-.2-.08-1.03.53.15.01.14.02.14.02.12.02.88-.44zm3.86.9-.79.39.09.01h.08l.07.01.05.01h.04l.03.01h.03-.01l-.01.01h-.02l-.02.01-.07.01-.1.02-.12.03-.14.03-.16.03-.18.04-4.01 2.01.16-.01.19-.01.2-.01.21-.01 5.03-2.51-.28-.03-.14-.02-.13-.02zm7.62.01-3.77 1.89-.04.07-.03.07-.02.07-.01.08v.1l4.87-2.43-.24.03-.25.04-.51.08zm-2.28.21-.37.01-.38.01-1.25.63h.04l.03-.01h.06l.18-.01.16-.01.16-.01h.14l1.23-.61zm1.51-.12-.42.04-.42.04-1.31.65h.21l.05.01h.1l-.01.01-.02.01-.03.01-.03.01-.05.02-.06.03-.05.03-.06.03-.07.04-.07.05-.07.04-.07.05-.07.06-.07.06-.06.06-.06.07 2.64-1.32zm-5.83.02-4.81 2.41.21-.02.21-.02.22-.02.22-.02 4.55-2.27-.15-.02-.15-.01-.3-.03zm1.12.09-4.29 2.14.27-.04.26-.04.26-.05.26-.05 3.87-1.93-.32-.01-.16-.01-.15-.01zm1.69.05h-.25l-.26-.01-3.16 1.58.33-.11.3-.1.28-.1.28-.09.25-.1.25-.08.23-.08.23-.07 1.68-.84h-.16zm-6.1-.68-.23-.07-.23-.06-2.56 1.29.39-.03.21-.01.2-.02 2.22-1.1zm13.86.65h.02l.03.01.02.01 5.89-2.96v-.01.01h.02l2.23-1.12-.21-.06-.21-.07-12.58 6.28-.03.1-.03.09-.01.1v.1l4.87-2.44v-.02l-.01-.01v-.01zm-13.04-9.42h-.13l-.14.06-.14.07H18l-.05.05.81-.4zm26.08 6.47-.04-.01-.04-.01-.78.41h.14l.14.01.14.02.14.02.63-.3-.16-.07-.17-.07zm-3.98-.89-.25-.05-.23-.06-2.15 1.07.12.02.13.02.28.04 2.1-1.04zm2.23.44-1.57.8.32.01.33.01 1.39-.71-.22-.06-.25-.05zM27.7 32.12l2.99-1.5.13-.09.06-.05.07-.04.07-.06.08-.06.08-.07.07-.07.07-.07.06-.08.12-.16-4.15 2.08.08.04.08.05.09.04.1.04zm16.2-6.53-1.25.61.07.01h.62l1.01-.51-.22-.06-.23-.05zm-2.7-.57-2.03 1.02.29.03.14.01.14.01 1.96-.98-.25-.04-.25-.05zm.93.18-1.87.93.63.02 1.73-.85-.25-.05-.24-.05zm-15.2 6.32.03.07.04.06.05.06.06.06 4.62-2.31.05-.12.02-.05.02-.06.01-.05.01-.04.01-.04v-.04l-4.92 2.46zM13.89 19.28l-.29-.01-.15-.01-.16.01h.01l.01.01.03.02.02.02.04.03.03.03.04.04.05.05.37-.19zm-1.74 11.7.16-.08-.15.01h-.32l-.06.01h-.07.03l.03.01h.06l.06.01.08.02.09.01.09.01zm25.88-1.82-.87.42.1.05.09.05.1.03.1.04.67-.35-.05-.06-.05-.06-.05-.06-.04-.06zm.44.41-.48.24.06.01h.74l.1-.01h.16l.05-.01h.06-.01l-.01-.01h-.03l-.04-.01-.04-.01-.06-.01-.06-.02-.06-.02-.09-.03-.1-.03-.1-.05-.09-.04zM5.78 25.25l.26-.14-.11-.01h-.05l-.07-.01-.1-.02-.08-.01-.07-.01-.06-.01-.04-.01h-.03l-.02-.01h-.04l.01.01.03.02.03.02.06.04.07.04.09.05.12.05zm4.1-4.12.03-.04.03-.02.01-.02.01-.01.01-.01v-.01l-.01.01h-.01l-.02.01-.06.03-.07.03-.09.04-.1.05-.12.05-.12.07-.13.07-.14.08-.13.08-.13.09-.12.09-.12.1-.12.11-.1.11 1.34-.67.02-.05.03-.05.05-.07.03-.04.03-.03zm18.67 11.2 1.41-.7-.01-.05.01-.05.02-.1.05-.11.07-.12-2.04 1.03.23.05.12.03.14.02zm1.02.13.09.02.07.01h.06l.04.01.03.01h.04v-.03l.01-.03v-.04l.01-.04v-.05l.01-.05.02-.08.01-.09v-.09l.01-.1-.96.47.17.03.15.02.13.01.11.02zm8.25-3.84-1.25.62.07.04.06.04.11.07.03.02h.02l.02.01.02.01 1.01-.52-.04-.14-.05-.15zm-.35-1.01v-.04l-.01-.04-2.09 1.05.17.08.17.09 1.86-.93-.05-.11-.05-.1zm-3.97.62-1.36.68.09.04.09.04.09.04.1.05 1.07-.54-.02-.09-.01-.05-.01-.04-.01-.03-.01-.04-.01-.03-.01-.03zm-.58 1.15.01.03.02.02.03.05.48-.25.06-.1.05-.11.04-.11.01-.1-.85.42.08.07.07.08zm4.27-2.35-2.53 1.26.2.07.1.03.1.04 2.28-1.14-.04-.07-.04-.07-.04-.07-.03-.05zm-.45-.41-2.99 1.49h.11l.13.02.07.01.07.01.09.01.08.02 2.7-1.35-.06-.06-.06-.05-.14-.1zm1.11-.56-.89.44.11.01.13.02.14.02.16.04.57-.3-.05-.04-.02-.02-.02-.02-.03-.03-.04-.04-.03-.04-.03-.04zm-28.88-2.4 2.37-1.18-.25-.06-.12-.02-.11-.03-2.13 1.06.11.12.13.11zm-.72 1.29-1.39.69.12.02.12.02.13.02.13.01h.02l.01.01 1.56-.78h-.34l-.36.01zm-1.78.59 1.12-.56-.04.01h-.06l-.1.01-.11.01-.1.02-.18.02-.17.02-.15.02-.6.31.18.07.21.07zm31.18 2.53-1.66.83.16.09.15.09 1.45-.71-.03-.08-.02-.07-.02-.07-.03-.08zm-22.17-6.74-5.76 2.88.15.11.14.09 5.58-2.79-.03-.06-.02-.08-.03-.07-.03-.08zM10 25.98l.19.04.09.02.09.03.05.01.05.01 2.79-1.4.06-.21.05-.1.05-.11L10 25.98zm34.9-4.08-.13.06h.35l-.01-.01h-.01l-.03-.01-.03-.01-.06-.02-.08-.01zm-34.06 3.37-.07-.04-.08-.05-.09-.04-.11-.05-1.51.76.14.01.14.02.28.03 1.3-.64zm-.74-.26-.13-.02-.15-.01-.16-.02H9.5l-1.61.8.16.01.14.01.3.02 1.61-.79zm22.46-2.33 2.67-1.33-.18-.01-.17-.01h-.16l-.13-.01-2.39 1.2.19.08.17.08zM6.98 26.85l-1.75.88.26.04.14.02.14.02 2.11-1.06-.19.02-.22.03-.23.03-.26.02zm-1.37.06-1.25.62.23.06.23.05 1.49-.74-.34.01h-.36zm28.46-5.62-.03-.01-.02-.02v-.02l.01-.02.01-.01.03-.01.03-.02.05-.01.05-.01.07-.02.08-.01.1-.02.51-.26-.14-.01h-.34l-.17-.01-2.84 1.41.11.03.1.04.19.07 2.2-1.09zM3.4 26.73l-.44.22.08.05.08.04.09.05.1.04.63-.33-.26-.03-.14-.02-.14-.02zm6.45-.33-.16.01-.15.01-.13.02-.12.02-.22.04-.2.04-2.62 1.31.2.01.2.01h.13l.06.01h.06l2.95-1.48zm26.85-3.58L34.34 24l.08.13.09.13 2.69-1.34-.1-.02-.09-.01-.07-.02-.08-.01-.06-.01-.04-.01-.04-.01-.02-.01zM4.43 26.86l-.82.4.09.04.1.04.1.04.12.03 1.03-.51-.3-.02-.32-.02zm30.77-5.84.25-.02.11-.01.11-.01h.09l.09-.01h.08l.07-.01h.07l.06-.01h.17l-.02-.01h-.11l-.11-.01-.11-.02-.14-.01-.17-.01-.18-.01-.26.14zm2.29 1.74 2.54-1.27-.31-.01-.33-.01-2.59 1.29h.69zm2.44.7-.1-.03-.1-.03-.11-.03-.14-.04-.67.34.24-.02.22-.02.19-.01.17-.01.3-.15zm-29.48 2.93-3 1.5h.34l.33.01 2.98-1.49-.13-.01-.15-.01h-.37zm32.43-4.42.64-.31-.27-.04-.27-.04-.79.4h.33l.36-.01zM2.46 26.56l-.07-.02-.06-.01-.03-.01h-.01v.01l.03.01.03.03.04.03.05.04.07.04.08.06.09.06.28-.15-.15-.03-.14-.02-.11-.02-.1-.02zm41.71-4.6.31-.14-.15-.03-.08-.01-.09-.01-.1-.02-.1-.02-.49.24h.54l.16-.01zm-14.7-.28 3.92-1.96-.19.01-.19.01-.4.03-3.64 1.82.25.04.25.05zm10.89.7.09-.07.1-.06.11-.06.14-.05.15-.05.09-.02.09-.02.1-.01.11-.02.12-.01.12-.01.92-.47-.15-.02-.14-.01-.15-.01h-.15l-2.4 1.19.13-.02.13-.03.12-.03.11-.03.1-.04.1-.04.08-.05.08-.06zm-11.81-.87 3.38-1.7-.4.03-.4.02-3.12 1.57.13.01.14.02.13.02.14.03zm1.78.37 1.78-.88-.04-.03-.04-.03-.02-.03-.02-.04v-.04l.03-.04.04-.04.07-.05.06-.04.06-.03.14-.06.14-.05.15-.04.16-.04.18-.03.18-.03.21-.03 2.07-1.03v-.02l.01-.01v-.02l-.02.01-.03.01-.04.02-.05.03-.06.02-.07.03-.08.03-.18.06-.2.06-.12.03-.12.02-.12.03-.13.01-.08.01-.09.02-4.23 2.11.23.06.23.05zm8.47.86 2.55-1.27h-.13l-.12.01-.24.01h-.25l-2.53 1.27h.19l.2-.01h.18l.15-.01zm-.29 1.42-.1-.03-.12-.03-.24-.05-3.65 1.83-.13.17-.16.16-.17.17-.17.16 4.74-2.38zM13.6 20.07l1.16-.58-.2-.07-.11-.03-.12-.03-.69.34.01.08v.1l-.01.09-.04.1zm-3.58 1.79-.03-.04-.03-.03-.04-.07-.04-.06-.05-.05-1.65.82-.01.08v.09l.01.09.01.08 1.83-.91zm17.53-.5 2.85-1.42-.24.02-.24.04-.24.03-.23.04L27 21.3l.28.03.27.03zM8.54 23.24l1.98-.99-.1-.04-.08-.05-.08-.05-.07-.04-1.86.93.1.12.11.12zm24.54-2.44-2.37 1.19.21.07.1.03.11.04 2.62-1.32-.18-.01h-.17l-.16-.01-.16.01zm1.09 2.99 4.67-2.34-.31-.01-.16-.01h-.17l-4.27 2.12.12.12.06.06.06.06zM18.93 20.4a.19.19 0 0 1-.13-.1l-8.54 4.27.08.05.07.05h.13l8.65-4.32zm-9.74 3.44.14.1.15.1 5.98-2.99v-.1l.02-.11.04-.1.05-.09.02-.01-3.41 1.7.01.08v.03l.02.04.01.04.02.03.01.03.01.01v.01h-.08l-.06-.01-.07-.01-.09-.01-.09-.01-.1-.02-2.58 1.29zm24.51-.46 3.95-1.97h-.26l-.2-.01h-.21l-3.54 1.78.14.1.12.1zm-14.17-2.81L10.78 25l2.79-1.4.14-.15.15-.14.17-.14.19-.14.2-.13.22-.13.22-.13.24-.12.26-.12.27-.12.28-.11.29-.11.31-.11.32-.1.33-.1.34-.09 2.5-1a3.2 3.2 0 0 1-.47-.09zm-5.87 5.48-3.69 1.86h.34l.35-.01 3.23-1.61-.12-.12-.11-.12zm20.95-1.55.04.15.04.15 3.46-1.72-.28-.04-.26-.04-3 1.5zM15.5 20.04l-3.03 1.52-.07.12-.05.11-.06.12-.04.1 3.41-1.69-.03-.07-.03-.07-.05-.07-.05-.07zm3.84-.64-2.22 1.11-.07.14-.09.13-.1.12-.11.12 3.25-1.6c-.23-.01-.45-.02-.66-.02zm-5.98 6.17L8.7 27.9l.16.01h.51l4.14-2.07-.08-.14-.07-.13zm19.49-2.74.17.09.16.09 3.25-1.62-.33-.01-.33-.02-2.92 1.47zm-18.47 3.85-.15-.1-.12-.1-2.85 1.42h.68l2.44-1.22zm24.7-3.44-.09-.02-.12-.02-.14-.03-.14-.02-3.9 1.94-.01.1-.02.1-.02.1-.03.09 3.04-1.52-.15-.03-.06-.01-.05-.01-.05-.01h-.03l-.02-.01h-.01.02l.02-.01.05-.01.08-.02.1-.02.07-.01.07-.02.08-.01.09-.01.11-.02.1-.01 1.01-.51zm-24.04-3.6-1.84.92-.11.13-.12.14-.1.15-.1.15 2.55-1.29-.13-.1-.07-.05-.08-.05zm23.58 7.15v-.01l-.02-.01-.04-.03-.03-.03-.05-.05-.06-.06-.15-.12-.4.2.15.03.14.02.12.02.1.02h.06l.05.01h.04l.03.01h.06zm7-.45-.06-.05-.05-.06-.07-.05-.08-.06-.48.24h.01v.01l.15.03.11.03.1.03.09.02.07.02.05.01.06.02.03.01.07.01.05.02h.04v.01-.04l-.01-.03-.01-.03-.02-.04-.02-.05-.03-.05z" fill="#fbb744" fill-rule="evenodd"/></g></svg>