<svg data-name="Слой 1" xmlns="http://www.w3.org/2000/svg" viewBox="0 0 48 48"><path fill="#026bb5" d="M0 0h48v48H0z"/><path d="M22.45 28.18a89.49 89.49 0 01-10.72-.86L10 27c-.07 0-.09-.05-.4-1-.18-.55-.33-1-.34-1s-3.9-.27-4.06-.27 0-.16 0-.7v-.7h.06c.21 0 4-.22 4-.24s.16-.47.34-1 .33-1 .33-1 .8-.15 1.51-.26A80.36 80.36 0 0128.72 20c2.31.13 4.74.38 7.06.73 1.11.16 2.37.38 2.39.4s.16.49.33 1.05c.26.88.31 1 .36 1l4 .18v1.42h-.22l-2 .11-1.83.11s-.15.46-.32 1-.31 1-.32 1a14.77 14.77 0 01-1.65.27 88.5 88.5 0 01-9.54.85c-.73 0-3.82.05-4.52 0zm4.17-.79c2.84-.08 5.59-.3 8.5-.67 1.09-.14 2.29-.32 2.32-.34s.41-1.33.39-1.34l-3.61.22-3.65.23h-.06V24.1l-.55.73c-.3.4-.56.73-.56.73l-2.66.11-2.65.11V24.5l-.55.62-.55.62h-.26l-1.94-.09v-2.16h-.07l-.84.05-.8.05a4.23 4.23 0 000 1v1h-.44c-1.7-.12-8.19-.51-8.26-.51h-.1l.22.67.22.68s1.93.29 2.93.41a86.94 86.94 0 0013.14.59zm.75-2.39h.34v-.6h1.21l.72-1 .72-1 .19-.48.19-.48h.14l1.44.07 1.32.07v2.88h.13l1.59-.07 1.87-.08h.63v-.18a.47.47 0 000-.2l-1.42-.08-1.56-.08h-.17V23h.22l1.57.06 1.36.05s-.37-1.38-.39-1.4-2.07-.34-3.32-.5c-2.34-.29-4.34-.46-6.92-.58-1 0-4.31-.06-5.43 0a79.65 79.65 0 00-8.37.68c-1.29.17-2.85.41-2.88.45s-.43 1.46-.42 1.48h1.32l2.87-.11 1.54-.13v-.5H15v.38h-1.38v-1.06h.87l1.59-.07 1.53-.07h.92v1l-.17.17-.17.17h.16l4.39-.2h.19v.6a4.54 4.54 0 000 .6s.26-.31.56-.68c.49-.62.55-.68.62-.69l5 .28a4.41 4.41 0 01-.28.38l-.29.37h-1.95V25h.78zm-11.54-.79v-.46l-2.83.09-2.82.16c-.07 0-.07 0-.07.17v.17h.32l5.23.3h.18z" fill="#fff"/></svg>