<?xml version="1.0" encoding="UTF-8"?>
<!DOCTYPE svg PUBLIC "-//W3C//DTD SVG 1.1//EN" "http://www.w3.org/Graphics/SVG/1.1/DTD/svg11.dtd">
<svg xmlns="http://www.w3.org/2000/svg" version="1.1" width="160px" height="160px" style="shape-rendering:geometricPrecision; text-rendering:geometricPrecision; image-rendering:optimizeQuality; fill-rule:evenodd; clip-rule:evenodd" xmlns:xlink="http://www.w3.org/1999/xlink">
<g><path style="opacity:1" fill="#5c590c" d="M -0.5,-0.5 C 52.8333,-0.5 106.167,-0.5 159.5,-0.5C 159.5,52.8333 159.5,106.167 159.5,159.5C 106.167,159.5 52.8333,159.5 -0.5,159.5C -0.5,106.167 -0.5,52.8333 -0.5,-0.5 Z"/></g>
<g><path style="opacity:1" fill="#f1f0ea" d="M 86.5,35.5 C 86.9193,38.3245 85.9193,40.4912 83.5,42C 85.4122,42.2793 86.7456,41.4459 87.5,39.5C 88.5,39.5 89.5,39.5 90.5,39.5C 90.8333,42.1667 91.1667,44.8333 91.5,47.5C 89.8008,47.3398 88.1341,47.5065 86.5,48C 92.2044,52.2277 91.3711,54.7277 84,55.5C 80.7015,53.1353 77.3681,53.1353 74,55.5C 66.8865,53.4886 66.7198,50.9886 73.5,48C 71.5273,47.5045 69.5273,47.3379 67.5,47.5C 67.8333,44.8333 68.1667,42.1667 68.5,39.5C 69.5,39.5 70.5,39.5 71.5,39.5C 72.2544,41.4459 73.5878,42.2793 75.5,42C 73.0807,40.4912 72.0807,38.3245 72.5,35.5C 74.513,33.5026 76.8463,31.836 79.5,30.5C 82.1537,31.836 84.487,33.5026 86.5,35.5 Z"/></g>
<g><path style="opacity:1" fill="#a09e71" d="M 72.5,35.5 C 72.0807,38.3245 73.0807,40.4912 75.5,42C 73.5878,42.2793 72.2544,41.4459 71.5,39.5C 71.2322,37.901 71.5655,36.5676 72.5,35.5 Z"/></g>
<g><path style="opacity:1" fill="#a19f71" d="M 86.5,35.5 C 87.4345,36.5676 87.7678,37.901 87.5,39.5C 86.7456,41.4459 85.4122,42.2793 83.5,42C 85.9193,40.4912 86.9193,38.3245 86.5,35.5 Z"/></g>
<g><path style="opacity:1" fill="#b3b28e" d="M 78.5,43.5 C 76.5,44.1667 74.5,44.8333 72.5,45.5C 71.9569,45.44 71.6236,45.1067 71.5,44.5C 73.7427,43.5258 76.076,43.1924 78.5,43.5 Z"/></g>
<g><path style="opacity:1" fill="#b0ae89" d="M 80.5,43.5 C 82.924,43.1924 85.2573,43.5258 87.5,44.5C 87.3764,45.1067 87.0431,45.44 86.5,45.5C 84.5,44.8333 82.5,44.1667 80.5,43.5 Z"/></g>
<g><path style="opacity:1" fill="#605d16" d="M 80.5,43.5 C 82.5,44.1667 84.5,44.8333 86.5,45.5C 81.8044,46.1009 81.471,47.9342 85.5,51C 85.1667,51.1667 84.8333,51.3333 84.5,51.5C 83.0715,50.065 81.4048,49.065 79.5,48.5C 73.7385,52.968 72.7385,52.468 76.5,47C 75.0993,46.5899 73.766,46.0899 72.5,45.5C 74.5,44.8333 76.5,44.1667 78.5,43.5C 78.5479,40.7081 77.2146,38.8747 74.5,38C 75.7839,37.3162 76.9505,37.4829 78,38.5C 78.1922,36.4233 78.6922,34.4233 79.5,32.5C 80.4519,34.0453 80.7852,35.712 80.5,37.5C 81.8734,37.3433 83.2068,37.51 84.5,38C 81.7854,38.8747 80.4521,40.7081 80.5,43.5 Z"/></g>
<g><path style="opacity:1" fill="#e2e1d3" d="M 38.5,45.5 C 40.9582,45.2275 42.6249,46.2275 43.5,48.5C 41.5852,51.1508 40.0852,50.8175 39,47.5C 38.3333,48.5 38.3333,49.5 39,50.5C 40.4866,51.1552 41.6533,52.1552 42.5,53.5C 36.5721,53.5162 35.2388,50.8495 38.5,45.5 Z"/></g>
<g><path style="opacity:1" fill="#edede5" d="M 63.5,47.5 C 67.31,48.7542 67.31,49.7542 63.5,50.5C 63.5,49.5 63.5,48.5 63.5,47.5 Z"/></g>
<g><path style="opacity:1" fill="#eae9e0" d="M 92.5,47.5 C 93.5,47.5 94.5,47.5 95.5,47.5C 95.5,48.5 95.5,49.5 95.5,50.5C 94.5,50.5 93.5,50.5 92.5,50.5C 92.5,49.5 92.5,48.5 92.5,47.5 Z"/></g>
<g><path style="opacity:1" fill="#e4e3d6" d="M 121.5,52.5 C 120.193,53.1534 118.86,53.8201 117.5,54.5C 116.893,54.3764 116.56,54.0431 116.5,53.5C 118.062,52.2153 119.396,50.7153 120.5,49C 120.333,48.5 120.167,48 120,47.5C 118.915,50.8175 117.415,51.1508 115.5,48.5C 117.773,44.5621 119.939,44.5621 122,48.5C 122.579,49.9285 122.412,51.2618 121.5,52.5 Z"/></g>
<g><path style="opacity:1" fill="#848148" d="M 121.5,52.5 C 122.167,53.1667 122.833,53.8333 123.5,54.5C 120.495,54.253 117.995,55.253 116,57.5C 115.51,56.2068 115.343,54.8734 115.5,53.5C 115.833,53.5 116.167,53.5 116.5,53.5C 116.56,54.0431 116.893,54.3764 117.5,54.5C 118.86,53.8201 120.193,53.1534 121.5,52.5 Z"/></g>
<g><path style="opacity:1" fill="#78743a" d="M 38.5,64.5 C 37.8333,63.8333 37.1667,63.1667 36.5,62.5C 37.2341,61.2921 37.5674,59.9587 37.5,58.5C 33.6611,57.95 33.6611,56.95 37.5,55.5C 39.4935,57.4986 41.8268,58.9986 44.5,60C 42.8333,60.3333 41.1667,60.6667 39.5,61C 38.6634,62.0113 38.33,63.1779 38.5,64.5 Z"/></g>
<g><path style="opacity:1" fill="#efefe8" d="M 38.5,64.5 C 38.33,63.1779 38.6634,62.0113 39.5,61C 41.1667,60.6667 42.8333,60.3333 44.5,60C 41.8268,58.9986 39.4935,57.4986 37.5,55.5C 33.6611,56.95 33.6611,57.95 37.5,58.5C 37.5674,59.9587 37.2341,61.2921 36.5,62.5C 33.9514,61.4909 31.2848,60.6575 28.5,60C 27.6634,58.9887 27.33,57.8221 27.5,56.5C 29.1439,56.2865 30.6439,56.6198 32,57.5C 35.5877,53.6073 39.2544,53.6073 43,57.5C 43.3333,55.5 43.6667,53.5 44,51.5C 46.0176,49.6499 47.8509,47.6499 49.5,45.5C 50.1924,46.0253 50.6924,46.6919 51,47.5C 51.7247,46.9415 52.5581,46.6082 53.5,46.5C 55.8284,47.3301 58.1617,48.1634 60.5,49C 57.3946,50.873 55.3946,53.5396 54.5,57C 50.6335,57.3076 49.6335,55.6409 51.5,52C 47.7072,50.948 45.7072,52.448 45.5,56.5C 45.9612,61.2302 47.6279,62.0636 50.5,59C 51.635,58.2506 52.635,58.4173 53.5,59.5C 50.7144,63.0948 51.7144,65.0948 56.5,65.5C 60.4997,65.3371 61.9997,63.3371 61,59.5C 60.3878,62.0317 58.8878,62.8651 56.5,62C 55.4464,60.6124 55.2797,59.1124 56,57.5C 58.045,56.1131 60.2117,54.9464 62.5,54C 63.5,53.3333 64.5,53.3333 65.5,54C 66.8432,62.319 63.3432,66.819 55,67.5C 50.6061,66.8687 46.4394,65.5353 42.5,63.5C 41.1508,63.8457 39.8175,64.179 38.5,64.5 Z"/></g>
<g><path style="opacity:1" fill="#eeeee6" d="M 115.5,53.5 C 115.343,54.8734 115.51,56.2068 116,57.5C 117.995,55.253 120.495,54.253 123.5,54.5C 124.794,55.2899 125.961,56.2899 127,57.5C 128.356,56.6198 129.856,56.2865 131.5,56.5C 131.67,57.8221 131.337,58.9887 130.5,60C 128.094,60.3057 125.927,61.139 124,62.5C 121.98,61.9681 121.147,60.6348 121.5,58.5C 125.302,58.1051 125.469,57.1051 122,55.5C 117.854,57.1323 117.354,59.6323 120.5,63C 120.167,63.5 119.833,64 119.5,64.5C 118.393,63.9781 117.226,63.6448 116,63.5C 113.214,64.6543 110.381,65.821 107.5,67C 97.4541,68.6243 92.7874,64.291 93.5,54C 94,53.8333 94.5,53.6667 95,53.5C 97.7558,54.6859 100.422,56.0192 103,57.5C 104.238,60.9257 103.071,62.5923 99.5,62.5C 99.762,61.0222 99.4287,59.6888 98.5,58.5C 96.9692,64.4658 99.3025,66.6325 105.5,65C 108.064,63.1492 108.064,61.3159 105.5,59.5C 107.843,58.2747 109.677,58.9414 111,61.5C 114.785,57.2807 114.285,53.9474 109.5,51.5C 108.833,51.6667 108.167,51.8333 107.5,52C 109.367,55.6409 108.367,57.3076 104.5,57C 103.605,53.5396 101.605,50.873 98.5,49C 100.838,48.1634 103.172,47.3301 105.5,46.5C 106.442,46.6082 107.275,46.9415 108,47.5C 108.308,46.6919 108.808,46.0253 109.5,45.5C 111.934,47.921 113.934,50.5877 115.5,53.5 Z"/></g>
<g><path style="opacity:1" fill="#e6e5d8" d="M 74.5,57.5 C 85.286,56.0462 92.286,60.3796 95.5,70.5C 103.937,70.71 112.27,69.8766 120.5,68C 122.552,67.0701 124.052,65.5701 125,63.5C 127.465,65.0552 127.965,67.0552 126.5,69.5C 129.239,70.7673 131.906,70.6006 134.5,69C 132.863,63.6326 134.363,62.466 139,65.5C 140.042,68.8039 138.875,70.9705 135.5,72C 121.821,72.8327 108.154,72.6661 94.5,71.5C 89.327,60.8305 81.327,57.9972 70.5,63C 67.4981,65.1619 65.4981,67.9952 64.5,71.5C 50.8455,72.6661 37.1788,72.8327 23.5,72C 19.2052,70.1549 18.5385,67.4882 21.5,64C 22.7839,63.3162 23.9505,63.4829 25,64.5C 25.1402,66.5213 25.3068,68.3547 25.5,70C 27.9018,70.8141 30.2351,70.6474 32.5,69.5C 31.0346,67.0552 31.5346,65.0552 34,63.5C 35.2506,66.3807 37.4173,68.214 40.5,69C 48.1652,69.5952 55.8318,70.0952 63.5,70.5C 65.3477,64.6504 69.0144,60.3171 74.5,57.5 Z"/></g>
<g><path style="opacity:1" fill="#e8e7dc" d="M 88.5,71.5 C 87.8106,72.7736 86.9772,72.7736 86,71.5C 85.5045,69.5273 85.3379,67.5273 85.5,65.5C 89.4136,64.5858 90.9136,66.2524 90,70.5C 89.6174,71.056 89.1174,71.3893 88.5,71.5 Z"/></g>
<g><path style="opacity:1" fill="#dad9c8" d="M 69.5,65.5 C 71.1408,67.2029 72.1408,69.3695 72.5,72C 71.1667,72.6667 69.8333,72.6667 68.5,72C 69.4231,69.9592 69.7564,67.7925 69.5,65.5 Z"/></g>
<g><path style="opacity:1" fill="#6e6b2b" d="M 88.5,71.5 C 86.439,70.2486 86.1057,68.5819 87.5,66.5C 88.4519,68.0453 88.7852,69.712 88.5,71.5 Z"/></g>
<g><path style="opacity:1" fill="#e4e3d7" d="M 85.5,65.5 C 84.1881,67.6964 83.0214,70.0297 82,72.5C 81.3131,70.0797 81.8131,67.913 83.5,66C 80.0585,65.1643 79.8919,64.331 83,63.5C 84.3756,63.6842 85.2089,64.3509 85.5,65.5 Z"/></g>
<g><path style="opacity:1" fill="#e1e0d2" d="M 75.5,62.5 C 77.3841,62.7118 78.7174,63.7118 79.5,65.5C 79.2448,67.3435 79.0781,69.3435 79,71.5C 75.21,73.4262 73.3766,72.2595 73.5,68C 73.3948,65.8218 74.0615,63.9885 75.5,62.5 Z"/></g>
<g><path style="opacity:1" fill="#726d35" d="M 74.5,68.5 C 75.5,68.5 76.5,68.5 77.5,68.5C 76.7542,72.31 75.7542,72.31 74.5,68.5 Z"/></g>
<g><path style="opacity:1" fill="#737032" d="M 75.5,64.5 C 77.337,64.6395 77.6704,65.3061 76.5,66.5C 75.7025,66.0431 75.3691,65.3764 75.5,64.5 Z"/></g>
<g><path style="opacity:1" fill="#f3f3ed" d="M 24.5,76.5 C 25.8333,76.5 27.1667,76.5 28.5,76.5C 29.6689,81.8431 30.5023,87.1764 31,92.5C 30,91.1667 29,91.1667 28,92.5C 27.5078,91.451 27.6744,90.451 28.5,89.5C 27.1667,88.1667 25.8333,88.1667 24.5,89.5C 25.3256,90.451 25.4922,91.451 25,92.5C 23.9326,91.8095 22.7659,91.3095 21.5,91C 22.9435,86.2833 23.9435,81.45 24.5,76.5 Z"/></g>
<g><path style="opacity:1" fill="#edece4" d="M 107.5,77.5 C 110.796,75.9732 113.962,76.3065 117,78.5C 118.509,83.4929 116.675,85.4929 111.5,84.5C 111.292,86.9201 111.626,89.2534 112.5,91.5C 110.833,91.5 109.167,91.5 107.5,91.5C 108.802,86.703 108.802,82.0363 107.5,77.5 Z"/></g>
<g><path style="opacity:1" fill="#e8e7dd" d="M 119.5,76.5 C 121.833,76.5 124.167,76.5 126.5,76.5C 126.261,78.4672 126.594,80.3005 127.5,82C 126.207,82.49 124.873,82.6567 123.5,82.5C 123.762,81.0222 123.429,79.6888 122.5,78.5C 121.167,82.1667 121.167,85.8333 122.5,89.5C 123.429,88.3112 123.762,86.9778 123.5,85.5C 124.873,85.3433 126.207,85.51 127.5,86C 127.302,89.375 125.635,91.5417 122.5,92.5C 120.971,92.4712 119.804,91.8045 119,90.5C 118.227,85.7481 118.393,81.0815 119.5,76.5 Z"/></g>
<g><path style="opacity:1" fill="#eae9e0" d="M 130.5,76.5 C 133.187,76.3359 135.854,76.5026 138.5,77C 137.697,81.4145 137.197,85.9145 137,90.5C 134.333,93.1667 131.667,93.1667 129,90.5C 127.966,85.5431 128.466,80.8764 130.5,76.5 Z"/></g>
<g><path style="opacity:1" fill="#f0efe8" d="M 33.5,77.5 C 36.2869,76.5233 39.2869,76.19 42.5,76.5C 42.5,78.5 42.5,80.5 42.5,82.5C 41.5,82.5 40.5,82.5 39.5,82.5C 39.762,81.0222 39.4287,79.6888 38.5,78.5C 37.5481,80.0453 37.2148,81.712 37.5,83.5C 42.2129,83.4676 43.7129,85.8009 42,90.5C 39.4069,92.8373 36.5736,93.004 33.5,91C 34.8229,86.4001 34.8229,81.9001 33.5,77.5 Z"/></g>
<g><path style="opacity:1" fill="#edece4" d="M 44.5,77.5 C 47.7956,75.9732 50.9623,76.3065 54,78.5C 55.5086,83.4929 53.6752,85.4929 48.5,84.5C 48.2924,86.9201 48.6258,89.2534 49.5,91.5C 47.8333,91.5 46.1667,91.5 44.5,91.5C 45.802,86.703 45.802,82.0363 44.5,77.5 Z"/></g>
<g><path style="opacity:1" fill="#eaeae0" d="M 64.5,77.5 C 67.6868,76.1944 71.0202,76.1944 74.5,77.5C 73.8843,82.1509 73.2177,86.8175 72.5,91.5C 68.3077,93.5279 65.9744,92.1946 65.5,87.5C 66.723,86.3861 68.0563,86.2195 69.5,87C 68.269,88.1827 68.269,89.3493 69.5,90.5C 70.4519,88.9547 70.7852,87.288 70.5,85.5C 68.6096,85.7035 67.1096,85.0368 66,83.5C 65.8091,81.2922 65.3091,79.2922 64.5,77.5 Z"/></g>
<g><path style="opacity:1" fill="#f4f4ef" d="M 83.5,76.5 C 85.8568,76.3367 88.1902,76.5034 90.5,77C 89.4587,82.4694 89.2921,87.9694 90,93.5C 86.6667,90.8333 83.3333,90.8333 80,93.5C 81.0781,88.715 81.7448,83.715 82,78.5C 82.7172,77.9558 83.2172,77.2891 83.5,76.5 Z"/></g>
<g><path style="opacity:1" fill="#ebebe2" d="M 92.5,76.5 C 94.1992,76.3398 95.8659,76.5065 97.5,77C 96.4086,79.0639 96.2419,81.2305 97,83.5C 97.2685,76.5352 100.268,74.8686 106,78.5C 106.667,82.5 106.667,86.5 106,90.5C 100.268,94.1314 97.2685,92.4648 97,85.5C 96.5045,87.4727 96.3379,89.4727 96.5,91.5C 94.8908,91.9059 93.5575,91.9059 92.5,91.5C 93.778,86.5012 93.778,81.5012 92.5,76.5 Z"/></g>
<g><path style="opacity:1" fill="#5c590f" d="M 68.5,77.5 C 69.6935,77.9704 70.3601,78.9704 70.5,80.5C 70.1667,81.5 69.8333,82.5 69.5,83.5C 68.5344,81.604 68.2011,79.604 68.5,77.5 Z"/></g>
<g><path style="opacity:1" fill="#727032" d="M 100.5,78.5 C 101.5,78.5 102.5,78.5 103.5,78.5C 103.924,82.7032 103.424,86.7032 102,90.5C 100.576,86.7032 100.076,82.7032 100.5,78.5 Z"/></g>
<g><path style="opacity:1" fill="#696629" d="M 111.5,78.5 C 112.5,78.5 113.5,78.5 114.5,78.5C 114.884,80.6648 114.217,82.3315 112.5,83.5C 111.548,81.9547 111.215,80.288 111.5,78.5 Z"/></g>
<g><path style="opacity:1" fill="#79753b" d="M 48.5,78.5 C 49.5,78.5 50.5,78.5 51.5,78.5C 51.8841,80.6648 51.2174,82.3315 49.5,83.5C 48.5481,81.9547 48.2148,80.288 48.5,78.5 Z"/></g>
<g><path style="opacity:1" fill="#e5e4d8" d="M 56.5,76.5 C 58.1667,76.5 59.8333,76.5 61.5,76.5C 61.6099,81.7586 62.6099,86.7586 64.5,91.5C 64.1667,91.8333 63.8333,92.1667 63.5,92.5C 62.5,91.1667 61.5,91.1667 60.5,92.5C 59.4104,91.6086 59.4104,90.6086 60.5,89.5C 59.5,88.1667 58.5,88.1667 57.5,89.5C 58.5896,90.6086 58.5896,91.6086 57.5,92.5C 56.1667,92.1667 54.8333,91.8333 53.5,91.5C 55.3901,86.7586 56.3901,81.7586 56.5,76.5 Z"/></g>
<g><path style="opacity:1" fill="#b4b28e" d="M 84.5,79.5 C 83.931,83.3293 84.5977,86.6627 86.5,89.5C 85.791,90.404 84.791,90.7373 83.5,90.5C 83.185,86.6286 83.5184,82.9619 84.5,79.5 Z"/></g>
<g><path style="opacity:1" fill="#b3b18c" d="M 75.5,82.5 C 79.7954,82.2787 80.4621,83.6121 77.5,86.5C 76.2949,85.4231 75.6282,84.0898 75.5,82.5 Z"/></g>
<g><path style="opacity:1" fill="#555205" d="M 86.5,89.5 C 84.5977,86.6627 83.931,83.3293 84.5,79.5C 84.56,78.9569 84.8933,78.6236 85.5,78.5C 86.4892,82.1073 86.8226,85.774 86.5,89.5 Z"/></g>
<g><path style="opacity:1" fill="#646122" d="M 131.5,78.5 C 132.5,78.5 133.5,78.5 134.5,78.5C 134.5,82.1667 134.5,85.8333 134.5,89.5C 133.5,89.5 132.5,89.5 131.5,89.5C 131.5,85.8333 131.5,82.1667 131.5,78.5 Z"/></g>
<g><path style="opacity:1" fill="#979563" d="M 25.5,82.5 C 26.5862,82.62 27.2528,83.2867 27.5,84.5C 27.1667,85.1667 26.8333,85.8333 26.5,86.5C 25.5713,85.3112 25.238,83.9778 25.5,82.5 Z"/></g>
<g><path style="opacity:1" fill="#605d17" d="M 37.5,85.5 C 38.6491,85.7911 39.3158,86.6244 39.5,88C 39.1667,88.8333 38.8333,89.6667 38.5,90.5C 37.5481,88.9547 37.2148,87.288 37.5,85.5 Z"/></g>
<g><path style="opacity:1" fill="#f5f5f0" d="M 21.5,96.5 C 59.8348,96.3333 98.1681,96.5 136.5,97C 139.306,98.3051 140.14,100.472 139,103.5C 134.167,105.333 132.667,103.833 134.5,99C 131.906,97.3994 129.239,97.2327 126.5,98.5C 127.22,104.632 125.554,105.465 121.5,101C 119.754,100.529 118.087,99.8624 116.5,99C 91.8282,97.0907 67.1615,97.0907 42.5,99C 38.8651,99.8164 35.8651,101.65 33.5,104.5C 31.4686,102.751 31.1353,100.751 32.5,98.5C 25.5904,95.7549 23.2571,97.7549 25.5,104.5C 19.4279,104.215 18.0945,101.549 21.5,96.5 Z"/></g>
<g><path style="opacity:1" fill="#e7e6db" d="M 67.5,101.5 C 70.5184,101.335 73.5184,101.502 76.5,102C 79.1667,105 79.1667,108 76.5,111C 72.4943,111.987 70.661,110.487 71,106.5C 73.4541,104.987 75.1207,105.654 76,108.5C 76.6667,107.5 76.6667,106.5 76,105.5C 73.595,104.726 71.095,104.226 68.5,104C 67.7476,103.329 67.4142,102.496 67.5,101.5 Z"/></g>
<g><path style="opacity:1" fill="#eaeae0" d="M 82.5,101.5 C 85.5719,101.183 88.5719,101.516 91.5,102.5C 91.2907,103.086 90.9574,103.586 90.5,104C 88.1667,104.333 85.8333,104.667 83.5,105C 82.2528,106.494 82.2528,107.994 83.5,109.5C 84.4287,108.311 84.762,106.978 84.5,105.5C 88.2518,105.501 89.2518,107.167 87.5,110.5C 81.5339,112.031 79.3672,109.697 81,103.5C 81.7172,102.956 82.2172,102.289 82.5,101.5 Z"/></g>
<g><path style="opacity:1" fill="#efefe8" d="M 43.5,101.5 C 44.5938,102.582 45.9271,103.248 47.5,103.5C 53.1457,101.199 58.8124,101.033 64.5,103C 65.6667,104.167 66.8333,105.333 68,106.5C 68.2184,110.382 68.0517,114.049 67.5,117.5C 65.6003,114.965 63.1003,113.298 60,112.5C 59.5065,110.866 59.3398,109.199 59.5,107.5C 60.8333,107.5 62.1667,107.5 63.5,107.5C 63.3433,108.873 63.51,110.207 64,111.5C 66.6477,105.138 64.481,102.638 57.5,104C 56.1667,105.667 56.1667,107.333 57.5,109C 55.0966,109.63 53.2633,108.797 52,106.5C 48.9113,109.526 48.7446,112.693 51.5,116C 52.5,116.667 53.5,116.667 54.5,116C 53.6198,114.644 53.2865,113.144 53.5,111.5C 57.6772,110.842 59.1772,112.508 58,116.5C 56.1781,118.045 54.0114,118.712 51.5,118.5C 46.3024,119.134 43.969,116.801 44.5,111.5C 41.2761,111.797 38.2761,111.13 35.5,109.5C 31.4784,112.749 31.4784,113.416 35.5,111.5C 36.9143,114.59 35.9143,115.757 32.5,115C 30.6903,110.967 32.0236,108.8 36.5,108.5C 36.6892,103.123 38.6892,102.289 42.5,106C 41.2412,106.923 39.9079,107.757 38.5,108.5C 39.3482,110.283 40.6815,110.783 42.5,110C 43.5,109 44.5,108 45.5,107C 42.9257,105.711 42.259,103.878 43.5,101.5 Z"/></g>
<g><path style="opacity:1" fill="#efefe8" d="M 125.5,109.5 C 124.209,109.263 123.209,109.596 122.5,110.5C 119.904,111.265 117.237,111.599 114.5,111.5C 115.031,116.801 112.698,119.134 107.5,118.5C 102.491,119.321 100.325,117.321 101,112.5C 102.356,111.62 103.856,111.286 105.5,111.5C 105.714,113.144 105.38,114.644 104.5,116C 106.367,116.711 107.867,116.211 109,114.5C 110.035,111.351 109.368,108.684 107,106.5C 105.737,108.797 103.903,109.63 101.5,109C 102.833,107.333 102.833,105.667 101.5,104C 94.519,102.638 92.3523,105.138 95,111.5C 95.49,110.207 95.6567,108.873 95.5,107.5C 96.8333,107.5 98.1667,107.5 99.5,107.5C 100.575,111.938 98.9083,113.938 94.5,113.5C 94.7521,116.932 93.4188,117.932 90.5,116.5C 90.806,113.244 90.9727,109.911 91,106.5C 92.5429,104.622 94.3762,103.122 96.5,102C 101.457,101.254 106.29,101.754 111,103.5C 112.711,103.561 114.044,102.894 115,101.5C 116.807,103.769 116.307,105.603 113.5,107C 114.906,109.449 116.906,110.449 119.5,110C 119.957,109.586 120.291,109.086 120.5,108.5C 115.863,107.276 115.53,105.609 119.5,103.5C 122.085,104.073 123.085,105.739 122.5,108.5C 123.791,108.263 124.791,108.596 125.5,109.5 Z"/></g>
<g><path style="opacity:1" fill="#a7a47a" d="M 122.5,110.5 C 123.209,109.596 124.209,109.263 125.5,109.5C 126.492,109.328 127.158,109.662 127.5,110.5C 126.732,111.263 126.232,112.263 126,113.5C 125.536,112.906 125.369,112.239 125.5,111.5C 124.791,110.596 123.791,110.263 122.5,110.5 Z"/></g>
<g><path style="opacity:1" fill="#eae9df" d="M 127.5,110.5 C 128.169,114.676 126.669,116.009 123,114.5C 122.517,113.552 122.351,112.552 122.5,111.5C 123.5,111.5 124.5,111.5 125.5,111.5C 125.369,112.239 125.536,112.906 126,113.5C 126.232,112.263 126.732,111.263 127.5,110.5 Z"/></g>
<g><path style="opacity:1" fill="#ecece3" d="M 74.5,118.5 C 70.8388,118.65 69.8388,117.15 71.5,114C 72.7932,113.51 74.1266,113.343 75.5,113.5C 75.634,115.292 75.3007,116.958 74.5,118.5 Z"/></g>
<g><path style="opacity:1" fill="#edece4" d="M 84.5,118.5 C 83.6993,116.958 83.366,115.292 83.5,113.5C 87.6759,112.831 89.0093,114.331 87.5,118C 86.552,118.483 85.552,118.649 84.5,118.5 Z"/></g>
<g><path style="opacity:1" fill="#f4f4ef" d="M 77.5,113.5 C 78.8333,113.5 80.1667,113.5 81.5,113.5C 81.8841,115.665 81.2174,117.332 79.5,118.5C 77.7826,117.332 77.1159,115.665 77.5,113.5 Z"/></g>
<g><path style="opacity:1" fill="#ecece2" d="M 60.5,117.5 C 61.5,117.5 62.5,117.5 63.5,117.5C 63.5,118.833 63.5,120.167 63.5,121.5C 62.5,121.5 61.5,121.5 60.5,121.5C 60.5,120.167 60.5,118.833 60.5,117.5 Z"/></g>
<g><path style="opacity:1" fill="#edece3" d="M 95.5,117.5 C 96.5,117.5 97.5,117.5 98.5,117.5C 98.5,118.833 98.5,120.167 98.5,121.5C 97.5,121.5 96.5,121.5 95.5,121.5C 95.5,120.167 95.5,118.833 95.5,117.5 Z"/></g>
<g><path style="opacity:1" fill="#ecebe2" d="M 74.5,118.5 C 77.9103,118.384 79.2436,120.05 78.5,123.5C 74.065,124.078 72.7317,122.411 74.5,118.5 Z"/></g>
<g><path style="opacity:1" fill="#eeede5" d="M 84.5,118.5 C 86.2683,122.411 84.935,124.078 80.5,123.5C 79.7564,120.05 81.0897,118.384 84.5,118.5 Z"/></g>
<g><path style="opacity:1" fill="#ebebe1" d="M 77.5,124.5 C 78.8734,124.343 80.2068,124.51 81.5,125C 82.474,127.702 81.474,129.035 78.5,129C 76.4523,127.774 76.119,126.274 77.5,124.5 Z"/></g>
</svg>
