<?xml version="1.0" encoding="UTF-8"?>
<!DOCTYPE svg PUBLIC "-//W3C//DTD SVG 1.1//EN" "http://www.w3.org/Graphics/SVG/1.1/DTD/svg11.dtd">
<svg xmlns="http://www.w3.org/2000/svg" version="1.1" width="160px" height="160px" style="shape-rendering:geometricPrecision; text-rendering:geometricPrecision; image-rendering:optimizeQuality; fill-rule:evenodd; clip-rule:evenodd" xmlns:xlink="http://www.w3.org/1999/xlink">
<g><path style="opacity:1" fill="#014a99" d="M -0.5,-0.5 C 52.8333,-0.5 106.167,-0.5 159.5,-0.5C 159.5,52.8333 159.5,106.167 159.5,159.5C 106.167,159.5 52.8333,159.5 -0.5,159.5C -0.5,106.167 -0.5,52.8333 -0.5,-0.5 Z"/></g>
<g><path style="opacity:1" fill="#d7e2ef" d="M 80.5,58.5 C 81.2506,57.4265 82.2506,57.2599 83.5,58C 89.4536,60.7857 93.4536,65.2857 95.5,71.5C 94.3112,72.4287 92.9778,72.762 91.5,72.5C 90.2175,65.9237 86.5509,61.2571 80.5,58.5 Z"/></g>
<g><path style="opacity:1" fill="#edf2f7" d="M 77.5,67.5 C 83.6608,67.7647 84.6608,69.9314 80.5,74C 82.5448,76.5864 84.2115,79.4198 85.5,82.5C 85,82.8333 84.5,83.1667 84,83.5C 81.6704,81.6576 79.8371,79.3242 78.5,76.5C 77.2243,75.3554 75.891,75.3554 74.5,76.5C 73.0576,74.684 72.5576,72.684 73,70.5C 74.6516,69.6006 76.1516,68.6006 77.5,67.5 Z"/></g>
<g><path style="opacity:1" fill="#5385ba" d="M 67.5,73.5 C 51.3246,73.1703 35.3246,73.5036 19.5,74.5C 18.9569,74.44 18.6236,74.1067 18.5,73.5C 34.9951,72.1732 51.3285,72.1732 67.5,73.5 Z"/></g>
<g><path style="opacity:1" fill="#f3f6fa" d="M 19.5,74.5 C 35.3246,73.5036 51.3246,73.1703 67.5,73.5C 69.3048,84.7422 75.6382,88.2422 86.5,84C 90.1917,81.4503 91.8584,77.9503 91.5,73.5C 107.503,73.3334 123.503,73.5001 139.5,74C 133.577,78.1804 126.91,79.6804 119.5,78.5C 112.679,77.3454 105.679,77.1787 98.5,78C 105.146,78.8314 111.813,79.3314 118.5,79.5C 121.85,79.335 125.183,79.5017 128.5,80C 124.869,82.2435 120.869,83.0768 116.5,82.5C 110.483,81.471 104.316,80.471 98,79.5C 96.6349,79.1557 95.4682,78.4891 94.5,77.5C 93.3265,80.522 91.6599,83.1887 89.5,85.5C 82.8333,89.5 76.1667,89.5 69.5,85.5C 68.5,84.1667 67.5,82.8333 66.5,81.5C 65.8333,80.1667 65.1667,78.8333 64.5,77.5C 60.5,76.1667 56.5,76.1667 52.5,77.5C 46.31,77.1771 40.31,77.5104 34.5,78.5C 28.7644,79.4447 23.7644,78.1114 19.5,74.5 Z"/></g>
<g><path style="opacity:1" fill="#a1bcd9" d="M 52.5,77.5 C 56.5,76.1667 60.5,76.1667 64.5,77.5C 63.8333,77.5 63.5,77.8333 63.5,78.5C 60.7104,78.2492 57.7104,78.2492 54.5,78.5C 54.1583,77.6618 53.4916,77.3284 52.5,77.5 Z"/></g>
<g><path style="opacity:1" fill="#4d7cb5" d="M 34.5,78.5 C 40.31,77.5104 46.31,77.1771 52.5,77.5C 53.4916,77.3284 54.1583,77.6618 54.5,78.5C 49.1554,78.6865 43.8221,79.0199 38.5,79.5C 37.4324,78.5655 36.099,78.2322 34.5,78.5 Z"/></g>
<g><path style="opacity:1" fill="#4879b4" d="M 119.5,78.5 C 118.833,78.5 118.5,78.8333 118.5,79.5C 111.813,79.3314 105.146,78.8314 98.5,78C 105.679,77.1787 112.679,77.3454 119.5,78.5 Z"/></g>
<g><path style="opacity:1" fill="#edf2f8" d="M 63.5,78.5 C 55.5239,79.9969 47.5239,81.3302 39.5,82.5C 36.1066,82.9383 33.1066,82.1049 30.5,80C 33.146,79.5026 35.8127,79.3359 38.5,79.5C 43.8221,79.0199 49.1554,78.6865 54.5,78.5C 57.7104,78.2492 60.7104,78.2492 63.5,78.5 Z"/></g>
<g><path style="opacity:1" fill="#5984ba" d="M 116.5,82.5 C 115.508,82.3284 114.842,82.6618 114.5,83.5C 107.776,82.1531 101.109,81.4864 94.5,81.5C 95.0253,82.1924 95.6919,82.6924 96.5,83C 100.795,83.569 104.795,84.7356 108.5,86.5C 108.5,87.1667 108.167,87.5 107.5,87.5C 103.03,85.8787 98.3635,84.5454 93.5,83.5C 92.0815,84.0047 91.4148,85.0047 91.5,86.5C 90.8333,86.1667 90.1667,85.8333 89.5,85.5C 91.6599,83.1887 93.3265,80.522 94.5,77.5C 95.4682,78.4891 96.6349,79.1557 98,79.5C 104.316,80.471 110.483,81.471 116.5,82.5 Z"/></g>
<g><path style="opacity:1" fill="#f2f5fa" d="M 64.5,82.5 C 64.1667,82.5 63.8333,82.5 63.5,82.5C 58.201,83.0959 53.201,84.4292 48.5,86.5C 45.5755,86.5402 42.9088,85.7068 40.5,84C 41.0944,83.5357 41.7611,83.369 42.5,83.5C 48.8456,82.7198 55.1789,81.7198 61.5,80.5C 63.0296,80.6399 64.0296,81.3065 64.5,82.5 Z"/></g>
<g><path style="opacity:1" fill="#f1f5f9" d="M 114.5,83.5 C 115.552,83.3505 116.552,83.5172 117.5,84C 114.893,86.1049 111.893,86.9383 108.5,86.5C 104.795,84.7356 100.795,83.569 96.5,83C 95.6919,82.6924 95.0253,82.1924 94.5,81.5C 101.109,81.4864 107.776,82.1531 114.5,83.5 Z"/></g>
<g><path style="opacity:1" fill="#5783ba" d="M 64.5,77.5 C 65.1667,78.8333 65.8333,80.1667 66.5,81.5C 65.8333,81.8333 65.1667,82.1667 64.5,82.5C 64.0296,81.3065 63.0296,80.6399 61.5,80.5C 55.1789,81.7198 48.8456,82.7198 42.5,83.5C 41.791,82.596 40.791,82.2627 39.5,82.5C 47.5239,81.3302 55.5239,79.9969 63.5,78.5C 63.5,77.8333 63.8333,77.5 64.5,77.5 Z"/></g>
<g><path style="opacity:1" fill="#e3eaf3" d="M 63.5,83.5 C 65.3464,83.2222 66.6798,83.8888 67.5,85.5C 64.7213,86.3888 62.0546,87.5555 59.5,89C 56.5929,89.7185 53.9262,89.2185 51.5,87.5C 55.3085,85.5489 59.3085,84.2156 63.5,83.5 Z"/></g>
<g><path style="opacity:1" fill="#ebf0f7" d="M 107.5,87.5 C 105.393,88.3004 103.226,88.9671 101,89.5C 97.865,88.3463 94.6983,87.3463 91.5,86.5C 91.4148,85.0047 92.0815,84.0047 93.5,83.5C 98.3635,84.5454 103.03,85.8787 107.5,87.5 Z"/></g>
<g><path style="opacity:1" fill="#628dbf" d="M 63.5,82.5 C 63.5,82.8333 63.5,83.1667 63.5,83.5C 59.3085,84.2156 55.3085,85.5489 51.5,87.5C 50.609,86.8902 49.609,86.5569 48.5,86.5C 53.201,84.4292 58.201,83.0959 63.5,82.5 Z"/></g>
<g><path style="opacity:1" fill="#e7edf5" d="M 69.5,87.5 C 72.5484,88.7935 75.7151,89.7935 79,90.5C 82.7378,90.0586 86.2378,89.0586 89.5,87.5C 90.1885,90.0201 91.1885,92.5201 92.5,95C 91.9747,95.6924 91.3081,96.1924 90.5,96.5C 89.238,94.6194 87.5713,93.2861 85.5,92.5C 81.6587,93.7936 77.8254,93.7936 74,92.5C 72.2856,93.0762 71.1189,94.2429 70.5,96C 69.552,96.4828 68.552,96.6495 67.5,96.5C 69.0851,93.4823 69.7517,90.4823 69.5,87.5 Z"/></g>
<g><path style="opacity:1" fill="#5583b9" d="M 69.5,85.5 C 76.1667,89.5 82.8333,89.5 89.5,85.5C 89.5,86.1667 89.5,86.8333 89.5,87.5C 86.2378,89.0586 82.7378,90.0586 79,90.5C 75.7151,89.7935 72.5484,88.7935 69.5,87.5C 69.5,86.8333 69.5,86.1667 69.5,85.5 Z"/></g>
</svg>
