<?xml version="1.0" encoding="UTF-8"?>
<!DOCTYPE svg PUBLIC "-//W3C//DTD SVG 1.1//EN" "http://www.w3.org/Graphics/SVG/1.1/DTD/svg11.dtd">
<svg xmlns="http://www.w3.org/2000/svg" version="1.1" width="160px" height="160px" style="shape-rendering:geometricPrecision; text-rendering:geometricPrecision; image-rendering:optimizeQuality; fill-rule:evenodd; clip-rule:evenodd" xmlns:xlink="http://www.w3.org/1999/xlink">
<g><path style="opacity:1" fill="#01498a" d="M -0.5,-0.5 C 52.8333,-0.5 106.167,-0.5 159.5,-0.5C 159.5,52.8333 159.5,106.167 159.5,159.5C 106.167,159.5 52.8333,159.5 -0.5,159.5C -0.5,106.167 -0.5,52.8333 -0.5,-0.5 Z"/></g>
<g><path style="opacity:1" fill="#f7f9fb" d="M 122.5,56.5 C 125.288,56.0769 127.288,57.0769 128.5,59.5C 121.38,62.4572 116.047,67.2906 112.5,74C 112.667,74.5 112.833,75 113,75.5C 126.958,70.7887 133.291,75.7887 132,90.5C 127.936,98.6099 121.436,101.443 112.5,99C 109.333,97.1667 106.833,94.6667 105,91.5C 101.52,81.1306 103.354,71.9639 110.5,64C 114.407,61.2411 118.407,58.7411 122.5,56.5 Z"/></g>
<g><path style="opacity:1" fill="#f4f7fa" d="M 78.5,56.5 C 79.5,56.5 80.5,56.5 81.5,56.5C 81.4208,57.9305 81.7542,59.2638 82.5,60.5C 75.1549,62.6831 69.8216,67.1831 66.5,74C 66.8333,74.5 67.1667,75 67.5,75.5C 81.7669,71.2603 87.9335,76.5936 86,91.5C 80.4287,100.357 72.9287,102.524 63.5,98C 53.5157,85.4981 54.5157,73.8314 66.5,63C 70.4339,60.5361 74.4339,58.3694 78.5,56.5 Z"/></g>
<g><path style="opacity:1" fill="#f4f7fa" d="M 34.5,57.5 C 40.279,56.708 45.4457,58.0414 50,61.5C 52.9667,67.7742 51.4667,72.6076 45.5,76C 55.1044,79.3418 56.9378,85.1751 51,93.5C 43.7705,99.972 35.2705,102.305 25.5,100.5C 25.7135,98.8561 25.3802,97.3561 24.5,96C 32.0244,96.6031 38.5244,94.4364 44,89.5C 44.9439,86.6529 44.4439,84.1529 42.5,82C 38.9399,80.7633 35.2733,80.2633 31.5,80.5C 31.5,78.1667 31.5,75.8333 31.5,73.5C 34.941,73.6989 38.2744,73.1989 41.5,72C 43.5243,67.3478 42.0243,64.5144 37,63.5C 33.5286,64.3018 30.5286,65.9685 28,68.5C 26.4708,67.2713 25.3041,65.7713 24.5,64C 27.7278,61.5603 31.0611,59.3936 34.5,57.5 Z"/></g>
<g><path style="opacity:1" fill="#f21187" d="M 90.5,72.5 C 92.143,72.4802 93.4763,73.1468 94.5,74.5C 98.4002,71.5535 99.9002,72.5535 99,77.5C 97.4905,79.2077 95.9905,80.8744 94.5,82.5C 92.8076,80.6414 91.3076,78.6414 90,76.5C 89.4209,75.0715 89.5876,73.7382 90.5,72.5 Z"/></g>
<g><path style="opacity:1" fill="#17518f" d="M 115.5,79.5 C 123.071,79.2629 125.904,82.9296 124,90.5C 121.947,94.2916 118.781,95.4582 114.5,94C 110.349,88.4986 110.682,83.6652 115.5,79.5 Z"/></g>
<g><path style="opacity:1" fill="#17508f" d="M 68.5,80.5 C 76.3278,79.4931 79.4944,82.8265 78,90.5C 73.9472,97.1517 69.9472,97.1517 66,90.5C 65.3333,87.8333 65.3333,85.1667 66,82.5C 66.9947,81.9341 67.828,81.2674 68.5,80.5 Z"/></g>
</svg>
