<?xml version="1.0" encoding="UTF-8"?>
<!DOCTYPE svg PUBLIC "-//W3C//DTD SVG 1.1//EN" "http://www.w3.org/Graphics/SVG/1.1/DTD/svg11.dtd">
<svg xmlns="http://www.w3.org/2000/svg" version="1.1" width="160px" height="160px" style="shape-rendering:geometricPrecision; text-rendering:geometricPrecision; image-rendering:optimizeQuality; fill-rule:evenodd; clip-rule:evenodd" xmlns:xlink="http://www.w3.org/1999/xlink">
<g><path style="opacity:1" fill="#000730" d="M -0.5,-0.5 C 52.8333,-0.5 106.167,-0.5 159.5,-0.5C 159.5,52.8333 159.5,106.167 159.5,159.5C 106.167,159.5 52.8333,159.5 -0.5,159.5C -0.5,106.167 -0.5,52.8333 -0.5,-0.5 Z"/></g>
<g><path style="opacity:1" fill="#163650" d="M 148.5,72.5 C 148.5,71.5 148.5,70.5 148.5,69.5C 147.167,69.5 145.833,69.5 144.5,69.5C 144.5,70.5 144.5,71.5 144.5,72.5C 140.901,72.7381 140.567,71.7381 143.5,69.5C 145.396,68.5344 147.396,68.2011 149.5,68.5C 149.36,70.1238 150.027,71.2904 151.5,72C 150.552,72.4828 149.552,72.6495 148.5,72.5 Z"/></g>
<g><path style="opacity:1" fill="#6ca2a7" d="M 148.5,72.5 C 147.167,72.5 145.833,72.5 144.5,72.5C 144.5,71.5 144.5,70.5 144.5,69.5C 145.833,69.5 147.167,69.5 148.5,69.5C 148.5,70.5 148.5,71.5 148.5,72.5 Z"/></g>
<g><path style="opacity:1" fill="#faf8f8" d="M 8.5,74.5 C 9.83333,74.5 11.1667,74.5 12.5,74.5C 12.5,78.1667 12.5,81.8333 12.5,85.5C 11.1667,85.5 9.83333,85.5 8.5,85.5C 8.5,81.8333 8.5,78.1667 8.5,74.5 Z"/></g>
<g><path style="opacity:1" fill="#e2e1e5" d="M 23.5,82.5 C 19.8395,77.3149 18.5062,78.3149 19.5,85.5C 18.1667,85.5 16.8333,85.5 15.5,85.5C 15.5,81.5 15.5,77.5 15.5,73.5C 17.1992,73.3398 18.8659,73.5065 20.5,74C 22.6667,76.1667 24.8333,78.3333 27,80.5C 27.4966,78.1902 27.6633,75.8568 27.5,73.5C 29.1439,73.2865 30.6439,73.6198 32,74.5C 32.6667,78.1667 32.6667,81.8333 32,85.5C 30.6124,86.5536 29.1124,86.7203 27.5,86C 26.2949,84.6244 24.9616,83.4577 23.5,82.5 Z"/></g>
<g><path style="opacity:1" fill="#e5e4e8" d="M 61.5,83.5 C 62.0431,83.44 62.3764,83.1067 62.5,82.5C 60.3449,81.9986 58.6782,80.9986 57.5,79.5C 60.0821,79.9746 62.0821,79.3079 63.5,77.5C 61.3926,76.5318 59.0593,76.1984 56.5,76.5C 56.5,78.5 56.5,80.5 56.5,82.5C 56.5,83.5 56.5,84.5 56.5,85.5C 55.1667,85.5 53.8333,85.5 52.5,85.5C 52.5,81.8333 52.5,78.1667 52.5,74.5C 56.6463,73.353 60.9796,73.1864 65.5,74C 69.4524,76.9274 69.4524,79.7608 65.5,82.5C 68.0946,85.843 67.0946,87.0096 62.5,86C 61.7476,85.3292 61.4142,84.4959 61.5,83.5 Z"/></g>
<g><path style="opacity:1" fill="#d2d2d8" d="M 88.5,73.5 C 93.1667,73.5 97.8333,73.5 102.5,73.5C 102.5,74.8333 102.5,76.1667 102.5,77.5C 100.833,77.5 99.1667,77.5 97.5,77.5C 97.5,80.5 97.5,83.5 97.5,86.5C 93.7597,87.2585 92.093,85.7585 92.5,82C 92.6752,80.3419 93.3418,79.0086 94.5,78C 92.5273,77.5045 90.5273,77.3379 88.5,77.5C 88.5,76.1667 88.5,74.8333 88.5,73.5 Z"/></g>
<g><path style="opacity:1" fill="#e8e6e9" d="M 104.5,73.5 C 105.833,73.5 107.167,73.5 108.5,73.5C 108.5,77.8333 108.5,82.1667 108.5,86.5C 107.167,86.5 105.833,86.5 104.5,86.5C 104.5,82.1667 104.5,77.8333 104.5,73.5 Z"/></g>
<g><path style="opacity:1" fill="#7b7e8d" d="M 8.5,74.5 C 9.91866,73.5489 11.5853,73.2155 13.5,73.5C 13.5,77.8333 13.5,82.1667 13.5,86.5C 11.5853,86.7845 9.91866,86.4511 8.5,85.5C 9.83333,85.5 11.1667,85.5 12.5,85.5C 12.5,81.8333 12.5,78.1667 12.5,74.5C 11.1667,74.5 9.83333,74.5 8.5,74.5 Z"/></g>
<g><path style="opacity:1" fill="#57596e" d="M 52.5,74.5 C 52.5,78.1667 52.5,81.8333 52.5,85.5C 50.3888,86.7416 48.3888,86.7416 46.5,85.5C 48.099,85.7678 49.4324,85.4345 50.5,84.5C 51.1667,81.1667 51.8333,77.8333 52.5,74.5 Z"/></g>
<g><path style="opacity:1" fill="#e4e3e5" d="M 73.5,73.5 C 77.2733,73.2633 80.9399,73.7633 84.5,75C 85.9733,75.7096 86.6399,76.8762 86.5,78.5C 82.837,77.8875 79.1703,77.7208 75.5,78C 74.1667,79.3333 74.1667,80.6667 75.5,82C 79.2292,81.9231 82.8959,82.0898 86.5,82.5C 85.5276,84.6365 83.8609,85.8032 81.5,86C 75.2909,88.0897 71.2909,86.0897 69.5,80C 69.8447,77.1692 71.178,75.0025 73.5,73.5 Z"/></g>
<g><path style="opacity:1" fill="#e1e0e4" d="M 128.5,83.5 C 130.405,80.6963 132.071,77.6963 133.5,74.5C 135.693,73.2031 138.027,73.2031 140.5,74.5C 142.167,77.8333 143.833,81.1667 145.5,84.5C 144.667,84.8333 143.833,85.1667 143,85.5C 139.617,85.3401 136.617,84.3401 134,82.5C 132.43,85.8622 130.597,86.1955 128.5,83.5 Z"/></g>
<g><path style="opacity:1" fill="#e5e4e7" d="M 127.5,77.5 C 126.081,78.4511 124.415,78.7845 122.5,78.5C 120.393,77.5318 118.059,77.1984 115.5,77.5C 115.286,79.1439 115.62,80.6439 116.5,82C 118.712,82.7891 120.712,82.6225 122.5,81.5C 124.415,81.2155 126.081,81.5489 127.5,82.5C 126.547,84.61 124.881,85.7767 122.5,86C 112.21,88.0585 108.877,84.3918 112.5,75C 116.805,73.0766 121.138,73.0766 125.5,75C 126.381,75.7083 127.047,76.5416 127.5,77.5 Z"/></g>
<g><path style="opacity:1" fill="#37394f" d="M 63.5,77.5 C 62.0821,79.3079 60.0821,79.9746 57.5,79.5C 58.9179,77.6921 60.9179,77.0254 63.5,77.5 Z"/></g>
<g><path style="opacity:1" fill="#04092d" d="M 122.5,78.5 C 123.952,79.3019 125.618,79.8019 127.5,80C 125.618,80.1981 123.952,80.6981 122.5,81.5C 120.712,82.6225 118.712,82.7891 116.5,82C 115.62,80.6439 115.286,79.1439 115.5,77.5C 118.059,77.1984 120.393,77.5318 122.5,78.5 Z"/></g>
<g><path style="opacity:1" fill="#282b48" d="M 133.5,74.5 C 132.071,77.6963 130.405,80.6963 128.5,83.5C 128.5,82.8333 128.167,82.5 127.5,82.5C 126.081,81.5489 124.415,81.2155 122.5,81.5C 123.952,80.6981 125.618,80.1981 127.5,80C 125.618,79.8019 123.952,79.3019 122.5,78.5C 124.415,78.7845 126.081,78.4511 127.5,77.5C 128.222,77.9175 128.722,78.5842 129,79.5C 130.067,77.3083 131.567,75.6417 133.5,74.5 Z"/></g>
<g><path style="opacity:1" fill="#181c32" d="M 136.5,77.5 C 137.848,78.5268 138.348,79.8602 138,81.5C 135.628,80.6828 135.128,79.3495 136.5,77.5 Z"/></g>
<g><path style="opacity:1" fill="#353752" d="M 23.5,82.5 C 21.8235,83.1834 21.1568,84.5168 21.5,86.5C 19.2646,86.7947 17.2646,86.4614 15.5,85.5C 16.8333,85.5 18.1667,85.5 19.5,85.5C 18.5062,78.3149 19.8395,77.3149 23.5,82.5 Z"/></g>
<g><path style="opacity:1" fill="#9294a1" d="M 63.5,77.5 C 60.9179,77.0254 58.9179,77.6921 57.5,79.5C 58.6782,80.9986 60.3449,81.9986 62.5,82.5C 62.3764,83.1067 62.0431,83.44 61.5,83.5C 60.0813,82.5489 58.4147,82.2155 56.5,82.5C 56.5,80.5 56.5,78.5 56.5,76.5C 59.0593,76.1984 61.3926,76.5318 63.5,77.5 Z"/></g>
<g><path style="opacity:1" fill="#e0dfe3" d="M 50.5,84.5 C 49.4324,85.4345 48.099,85.7678 46.5,85.5C 45.0915,84.9386 43.5915,84.6052 42,84.5C 39.2393,85.4176 36.4059,86.0843 33.5,86.5C 37.856,70.188 43.5227,69.5213 50.5,84.5 Z"/></g>
<g><path style="opacity:1" fill="#31334a" d="M 41.5,77.5 C 44.3465,79.7975 44.0132,81.1309 40.5,81.5C 40.4326,80.0413 40.7659,78.7079 41.5,77.5 Z"/></g>
</svg>
