<svg data-name="Слой 1" xmlns="http://www.w3.org/2000/svg" viewBox="0 0 48 48"><path fill="#f2f3f4" d="M0 0h48v48H0z"/><path d="M30.94 21.39l-.01.02.02.02-.01-.02v-.02zm-4.28 13.43l8.88-12.44-.08-.09-.06-.1-.07-.08-.06-.07-8.31 11.6v.11l-.02.11-.02.13-.03.14-.05.15-.05.17-.06.17-.07.2zm-12.65-8.73l.1.1.08.08.06.08.05.06 1.57-2.17-.02-.35-.01-.34-1.83 2.54zm2.66 3.77l.94-1.3-.07-.08-.08-.1-.13-.18-1.12 1.57.2.03.18.04h.05l.02.01.01.01zm10.12 3.43l2.74-3.86-.28.26-.29.23-.29.22-.32.2-2.51 3.51.1-.08.1-.07.09-.07.07-.07.08-.05.06-.06.07-.04.05-.04.05-.03.05-.03.05-.02.04-.01.04-.01h.03l.03.01.04.01zM15.8 29.74l1.33-1.86-.13-.19-.11-.2-1.6 2.22.25.02.26.01zm4.26 2.15l.67-.94-.2-.09-.1-.04-.1-.06-.87 1.23.1-.04.1-.02.09-.02.09-.01h.11l.11-.01zm-2.26 2.86l-.15.14-.13.13-.13.13-.12.11-.11.11-.1.1-.1.09-.11.09-.68.94.12.03.12.02.11.02.11.02 2.65-3.7-.1.09-.09.09-.1.1-.08.11-.16.21-.15.22-.16.24-.09.11-.09.12-.1.12-.11.12-.12.12-.13.12zm-1.88 1.24l-.16.02-.08.01-.07.01-.23.32.09.05.11.03.22.07.38-.55-.12.02-.14.02zm-.86-3.87l-.11.02-.1.01-.09.01-.08.02-.07.01-.06.01-.05.01h-.04l-.04.01-.03.01h-.01l-.02.01h-.01v.01h.02l.02.01.03.02.06.04.09.05.11.05.13.06.25-.36zm1.71-1.04l-.17.14-.16.14-.15.12-.14.11-.13.1-.14.1-.13.08-.13.07-.46.65.1.03.12.03.11.02.13.02 1.15-1.61zm-.25 1.64h.04l2.17-3.01-.17-.15-.15-.14-.6.84-.25.33-1.53 2.15h.23l.13-.01.13-.01zm3.5-2.11l-.19-.11-.19-.11-1.43 1.99.18-.06.18-.05.17-.06.15-.05 1.13-1.55zm-1.87-1.44l-.16-.17-.15-.16-.78 1.12.11.03.11.03.11.04.09.04.67-.93zm2.92 1.93l-.6.82.07.01.06.02.05.01.04.02.04.01.02.01h.02-.01l-.01.01-.01.01-.02.01-.05.03-.07.05-.09.05-.11.07-.12.07-.14.08-3.04 4.26.12-.01.14-.02.16-.02.16-.04 3.81-5.31-.22-.07-.1-.04-.1-.03zm5.78.01l-2.86 4.01-.03.14-.02.15-.02.16v.37l3.69-5.16-.18.08-.19.09-.39.16zm-1.73.44l-.28.03-.28.02-.95 1.34.02-.01.03-.01.04-.01.14-.02.12-.02.12-.02h.11l.93-1.3zm1.15-.25l-.32.08-.32.08-.99 1.38h.06l.05.01h.05l.04.01.03.01.02.01h.02-.01l-.01.02-.02.02-.03.04-.04.04-.04.06-.04.06-.05.07-.05.09-.05.09-.06.1-.05.11-.05.11-.05.13-.05.13-.05.15 2.01-2.8zm-4.42.04l-3.65 5.11.15-.03.17-.04.16-.05.17-.05 3.45-4.82-.12-.03-.11-.03-.22-.06zm.85.19l-3.26 4.53.2-.08.2-.09.2-.1.2-.1 2.94-4.1-.25-.02-.12-.02-.11-.02zm1.28.1h-.19l-.2-.01-2.39 3.35.24-.23.23-.22.22-.21.2-.2.2-.19.18-.18.18-.17.17-.15 1.28-1.79h-.12zm-4.63-1.44l-.17-.14-.18-.12-1.94 2.72.3-.05.15-.04.15-.04 1.69-2.33zm10.51 1.38h.02l.02.02.02.02 4.47-6.26v-.03.02h.01l1.69-2.37-.16-.14-.16-.15-9.54 13.34-.03.19-.02.21v.42l3.69-5.19v-.03l-.01-.02v-.03zM19.4 12.53l.84-1.16-.13.11-.12.11-.12.11-.1.12-.11.14-.04.08-.05.09-.04.09-.04.09-.05.11-.04.11zm20.35 12.79l-.03-.02-.02-.02-.6.86.11.01.1.02.11.04.11.04.48-.63-.13-.16-.13-.14zm-3.02-1.9l-.18-.11-.18-.12-1.63 2.28.09.04.1.04.21.08 1.59-2.21zm1.7.95l-1.2 1.68.25.02.25.03 1.06-1.51-.18-.11-.18-.11zM26.8 38.66l2.27-3.18.1-.2.05-.09.05-.1.06-.12.06-.13.05-.14.06-.15.05-.16.05-.16.09-.34-3.15 4.4.06.1.06.09.07.09.07.09zM39.09 24.8l-.94 1.31h.05l.04.01h.43l.77-1.07-.17-.14-.18-.11zm-2.05-1.21l-1.53 2.17.22.07.11.02.1.03 1.48-2.08-.19-.1-.19-.11zm.71.39l-1.41 1.97.47.05 1.31-1.81-.18-.11-.19-.1zM26.22 37.39l.03.13.02.14.05.13.04.13 3.5-4.9.04-.25.02-.12.01-.11.01-.11.01-.09v-.18l-3.73 5.23zm-9.89-25.97l-.22-.03h-.12l-.11.01v.01l.01.02.02.03.02.05.03.06.03.07.03.08.03.1.28-.4zm-1.31 24.82l.11-.16-.11.01h-.1l-.08.01h-.06l-.05.01h-.05l.02.01.03.01.04.01.05.02.06.03.06.02.08.03zm19.62-3.86l-.66.89.08.11.07.1.07.07.08.07.51-.73-.05-.12-.03-.13-.04-.13-.03-.13zm.33.86l-.36.52.04.01.06.01h.41l.1-.01.08-.01h.06l.05-.01.04-.01h.03l.01-.01h.01-.02l-.02-.02-.03-.01-.03-.02-.04-.03-.05-.03-.05-.05-.06-.06-.08-.08-.07-.09-.08-.1zm-24.79-9.15l.2-.29-.08-.02-.04-.02-.05-.02-.08-.03-.06-.02-.05-.03-.05-.02-.03-.02h-.03l-.01-.01-.02-.01-.01-.01v.01l.01.02.02.04.02.04.05.08.05.1.07.1.09.11zm3.11-8.75l.03-.07.01-.06.02-.04v-.02l.01-.02v-.01.01h-.01l-.01.01-.02.02-.04.05-.05.07-.07.09-.08.1-.09.12-.09.14-.1.15-.1.16-.1.18-.1.19-.09.2-.09.21-.09.22-.07.23 1.01-1.41.01-.1.03-.12.03-.14.03-.08.02-.08zm14.16 23.77l1.07-1.49-.01-.11.01-.1.02-.22.04-.24.05-.24-1.55 2.19.17.11.1.05.1.05zm.77.27l.07.03.05.03.05.01.03.02.03.01.01.01h.01l.01-.03v-.19l.01-.08v-.1l.01-.12.01-.17.01-.18v-.2l.01-.2-.73 1 .13.05.11.04.1.04.08.03zm6.26-8.14l-.95 1.31.06.09.04.08.09.16.02.02.02.02.01.01.01.02.77-1.1-.03-.3-.04-.31zm-.26-2.16V29l-.01-.07-1.59 2.21.13.18.13.19 1.41-1.98-.03-.22-.04-.23zm-3.01 1.34l-1.03 1.44.06.08.07.08.07.09.07.09.82-1.13-.02-.2v-.09l-.01-.09-.01-.08-.01-.07v-.06l-.01-.06zm-.44 2.42v.06l.02.05.02.1.37-.52.05-.22.03-.23.03-.22.01-.22-.65.89.07.16.05.15zm3.24-4.98l-1.92 2.66.15.16.07.08.08.08 1.73-2.42-.03-.16-.04-.15-.02-.13-.02-.12zm-.35-.87l-2.27 3.16.09.01.1.03.05.02.06.02.06.04.07.03 2.04-2.86-.05-.13-.04-.11-.11-.21zm.85-1.18l-.68.93.08.02.1.04.11.06.12.06.43-.62-.04-.1-.01-.04-.02-.04-.02-.07-.03-.08-.02-.08-.02-.08zm-21.91-5.1l1.79-2.5-.18-.12-.09-.06-.09-.06-1.61 2.27.08.24.1.23zm-.54 2.73L11 24.91l.09.05.09.04.1.04.1.02.01.01.01.01 1.18-1.65h-.26l-.26.01zm-1.35 1.26l.84-1.18-.03.01h-.04l-.08.02-.08.04-.08.03-.14.04-.12.05-.12.03-.46.66.14.15.17.15zm23.65 5.37l-1.27 1.76.13.19.11.2 1.1-1.51-.02-.16-.02-.16-.01-.16-.02-.16zm-16.82-14.3l-4.37 6.12.11.21.11.21 4.23-5.92-.02-.14-.02-.15-.02-.16-.02-.17zm-4.16 9.87l.15.08.06.05.07.05.04.02.04.04 2.11-2.98.05-.45.04-.22.03-.22-2.59 3.63zm26.47-8.66l-.1.14h.06l.05-.01h.16v-.01l-.01-.01v-.01l-.03-.02-.03-.02-.04-.03-.06-.03zm-25.83 7.15l-.05-.09-.07-.09-.06-.1-.08-.09-1.15 1.6.1.03.11.03.22.08.98-1.37zm-.57-.56l-.09-.04-.11-.03-.12-.02-.13-.01-1.22 1.69.12.03.11.03.22.04 1.22-1.69zm17.04-4.93l2.02-2.82-.13-.02-.13-.02-.12-.01-.1-.01-1.81 2.53.14.18.13.17zm-19.4 8.85l-1.33 1.85.2.1.1.04.11.03 1.6-2.25-.14.06-.16.06-.18.05-.2.06zm-1.04.12l-.95 1.31.18.12.17.12 1.13-1.58-.26.02h-.13l-.14.01zm21.59-11.92l-.02-.03-.02-.03v-.04l.01-.05.01-.03.02-.02.02-.03.04-.03.04-.03.05-.03.06-.03.07-.03.39-.55-.11-.02h-.12l-.13-.02h-.13l-2.15 2.98.08.08.07.08.15.14 1.67-2.31zM8.38 27.22l-.34.48.06.09.06.09.07.1.07.1.48-.7-.19-.07-.11-.04-.1-.05zm4.88-.7l-.12.03-.1.03-.1.03-.09.04-.17.08-.16.1-1.98 2.78.15.02.15.02h.1l.04.01.05.01 2.23-3.15zm13.79-12.58h-.01l-.02-.02-.02-.03-.03-.04-.03-.06-.04-.06-.03-.07-.03-.09-1.38 1.94.22.04.11.02.11.03 1.44-2.02-.09.09-.09.1-.06.09-.05.08zm6.58 4.99l-1.79 2.5.07.27.06.29 2.04-2.85-.07-.04-.07-.03-.06-.03-.05-.03-.05-.02-.03-.02-.03-.02-.02-.02zM9.16 27.49l-.62.86.06.09.08.08.08.07.08.08.79-1.09-.23-.04-.24-.05zm14.81-12.12h.16l2.92-4.08-.03.02-.04.02-.3.08-.29.07-2.77 3.89h.35zm8.53-.24l.18-.06.09-.02.08-.02.07-.01.07-.01.06-.01.05-.01.06-.01.04-.01h.04l.03-.01h.06-.02l-.03-.01-.05-.01-.08-.02-.09-.03-.1-.02-.13-.03-.13-.02-.2.31zm1.73 3.67l1.93-2.68-.23-.02-.26-.03-1.96 2.73h.11l.12.01h.14l.15-.01zm1.85 1.49l-.07-.06-.08-.07-.09-.07-.1-.07-.51.71.19-.04.16-.04.15-.03.13-.02.22-.31zm-11.04-4.85l1.91-2.63.02-.07.03-.06.04-.06.04-.07.11-.15.1-.15.1-.13.09-.12.08-.12.08-.1.07-.1.06-.09.06-.09.05-.08.08-.17.07-.16.02-.09.01-.09-.02.01-.03.01-.04.01-.06.02-.07.03-.08.04-.1.03-3.09 4.32.24.02.11.02.12.02zM13.72 26.5l-2.27 3.18.25.02.25.01 2.27-3.16-.1-.02-.12-.02-.13-.01h-.15zm24.6-9.36l.48-.66-.2-.09-.21-.08-.6.84h.26l.27-.01zM7.66 26.87l-.05-.04-.04-.02-.03-.02h-.01l.01.01.01.03.03.05.03.06.04.09.05.1.06.11.07.13.21-.32-.12-.05-.1-.05-.08-.04-.08-.04zm15.49-11.46l2.71-3.79-.32.08-.17.04-.16.05-2.65 3.69.29-.04.3-.03zm16.15 1.71l.23-.32-.11-.05-.06-.03-.07-.02-.07-.04-.08-.03-.37.51h.27l.14-.01.12-.01zm-11.15-.6l2.97-4.16-.14.02-.14.03-.31.05-2.76 3.86.19.1.19.1zm8.26 1.49l.07-.15.07-.14.09-.12.1-.11.12-.1.06-.04.07-.04.08-.04.08-.03.09-.03.1-.01.69-1.01-.11-.03-.11-.02-.11-.02-.11-.02-1.82 2.53.1-.04.09-.05.09-.06.09-.07.07-.09.08-.09.06-.11.06-.11zm-8.96-1.86l2.57-3.6-.31.05-.3.06-2.37 3.32.1.03.11.04.1.05.1.05zm1.35.8l1.35-1.88-.03-.06-.03-.07-.02-.06-.01-.08v-.08l.02-.09.03-.09.05-.1.05-.08.05-.07.1-.13.11-.1.11-.09.13-.08.13-.06.14-.07.15-.06 1.57-2.2.01-.03v-.04l.01-.02v-.01l-.01.01-.01.02-.03.03-.02.04-.04.05-.05.05-.05.06-.06.06-.13.13-.16.13-.09.05-.09.06-.09.05-.1.03-.06.03-.07.02-3.21 4.49.18.12.17.12zm6.43 1.81l1.93-2.69-.1.01-.09.01-.18.02-.1.01h-.09l-1.92 2.69.15-.01.15-.01.13-.01.12-.02zm-.22 3.02l-.08-.07-.09-.05-.19-.13-2.76 3.88-.1.37-.12.35-.13.35-.13.34 3.6-5.04zm-18.9-8.68l.88-1.22-.15-.15-.09-.08-.08-.06-.53.72.01.18v.2l-.01.19-.03.22zm-2.72 3.8l-.01-.08-.03-.08-.03-.14-.03-.12-.03-.12L12 18.1l-.01.18v.18l.01.19.01.19 1.38-1.94zm13.31-1.06l2.16-3.02-.19.06-.18.07-.18.07-.18.09-1.85 2.6.2.06.22.07zm-14.43 3.99l1.51-2.11-.08-.09-.07-.09-.05-.1-.05-.1-1.42 1.97.08.26.08.26zm18.62-5.19l-1.8 2.54.16.13.08.08.08.07 1.99-2.79-.14-.02-.13-.01h-.24zm.82 6.34l3.54-4.95-.23-.02-.12-.01-.13-.01-3.23 4.5.08.25.05.12.04.12zm-17.92 2.09l9.31-13v-.1l-.01-.15v-.14l-.02-.14-.03-.12-9.46 13.24.06.11.05.11.05.1.05.09zm-1.02-1.98l.11.23.11.2 4.53-6.34v-.22l.02-.22.03-.21.04-.21h.01v-.01l-2.58 3.61v.24l.02.08.01.08.01.07.01.04v.05l.01.01v.01h-.01l-.02-.01-.03-.01-.05-.02-.05-.01-.07-.03-.07-.02-.08-.04-1.95 2.73zm18.59-.97l2.99-4.17h-.2l-.15-.02-.15-.01-2.69 3.77.11.21.09.22zm-12.2-3.17l3.08-4.33-.01-.09v-.09l.01-.1.01-.1.02-.11.03-.1.04-.11.05-.11.06-.13.06-.12.06-.1.05-.1-8.65 12.1.02.07.03.07.01.06.01.06.01.09.01.09.01.07.01.07 2.12-2.96.1-.31.12-.31.12-.29.14-.3.15-.28.17-.28.17-.28.18-.26.19-.26.21-.25.21-.24.22-.23.23-.23.24-.21.25-.21.26-.19zm-3 8.84l-2.8 3.94.26-.01.26-.01 2.45-3.42-.09-.24-.08-.26zm15.89-3.29l.03.32.02.32 2.63-3.66-.21-.09-.2-.08-2.27 3.19zm-14.5-9.46l-2.29 3.21-.05.26-.05.25-.04.24-.03.22 2.58-3.59-.01-.15-.03-.14-.04-.15-.04-.15zm5.19-4.53l-3.96 5.52v.04l-.05.29-.07.27-.07.27-.09.25 4.43-6.17-.06-.15-.04-.07-.02-.06-.03-.06-.02-.05-.01-.04-.01-.04zm-6.81 16.26l-3.54 4.94.13.01h.13l.25.01 3.14-4.39-.05-.29-.06-.28zm14.78-5.82l.13.19.12.2 2.47-3.45-.26-.02-.24-.03-2.22 3.11zM16.7 27.12l-.11-.21-.09-.22-2.17 3.02h.52l1.85-2.59zm18.74-7.3l-.07-.04-.09-.04-.11-.06-.1-.04-2.97 4.11v.22l-.01.2-.02.21-.02.19 2.3-3.22-.11-.06-.04-.02-.05-.03-.03-.01-.02-.02h-.02v-.01l.02-.02.04-.03.06-.03.08-.05.05-.02.06-.03.06-.03.06-.03.08-.03.08-.03.77-1.08zM17.2 12.2l-1.39 1.94-.09.28-.09.3-.07.31-.08.31 1.94-2.72-.1-.22-.06-.1-.06-.1zm4.86 3.41l2.54-3.58-.13.05-.13.07-.17.09-.15.09-.15.08-.13.09-2.35 3.29.16-.05.17-.04.34-.09zm.55-2.14l-.05-.08-.07-.09-.06-.11-.06-.13-2.4 3.36.2-.11.2-.1.2-.09.21-.1 1.83-2.55zm12.48 13.88v-.01l-.02-.04-.02-.05-.03-.07-.04-.11-.04-.12-.11-.26-.31.42.11.07.11.05.09.04.08.04.05.01.03.01.03.01h.03l.03.01h.01zm5.31-.94l-.04-.12-.05-.11-.05-.13-.06-.12-.36.5v.02h.01l.1.07.09.07.08.06.07.05.05.03.04.04.04.02.03.03.05.03.04.03.01.01.01.01h.01v-.04l-.01-.04v-.06l-.01-.07-.01-.08-.02-.1-.02-.1z" fill="#e56b05" fill-rule="evenodd"/><path d="M25.56 22v.08h1v-.57c0-.67-.55-1-1.22-1s-1.22.28-1.22 1v4.06c0 .67.55 1 1.22 1s1.22-.28 1.22-1v-.5h-1v.49s-.08.09-.16.1-.24-.06-.23-.1v-4.03s.11-.12.23-.1.16.07.16.1zm-4.79-1a1.45 1.45 0 00-1.13-.46 1.47 1.47 0 00-1.13.47.78.78 0 00-.11.24 1.49 1.49 0 000 .25v4.76h1.08v-1.69h.37v1.71h1.05v-4.75a.82.82 0 000-.24 1 1 0 00-.13-.29zm-.94 1v1.72h-.37v-2.19a.2.2 0 01.37 0zm3.87-.47c0-.67-.55-1-1.22-1s-1.22.28-1.22 1v.57h1v-.57s.08-.09.16-.1.24.06.23.1v1.58h-.85V24h.85v1.6s-.11.12-.23.1-.16-.07-.16-.1v-.5h-1v.5c0 .67.55 1 1.22 1a1.25 1.25 0 001.08-.44 1 1 0 00.14-.51v-.06zm5.61 1.81a.53.53 0 00.1-.34v-2.18h-1.09V23a.24.24 0 01-.16.1.26.26 0 01-.16-.1v-2.18h-1.12v5.47H28v-2.15a.24.24 0 01.17-.11c.09 0 .16.09.18.11v2.14h1.09v-2.17a.53.53 0 00-.13-.34 1.5 1.5 0 00-.23-.19 1.21 1.21 0 00.23-.24z" fill="#1f4064" fill-rule="evenodd"/></svg>