<?xml version="1.0" encoding="UTF-8"?>
<!DOCTYPE svg PUBLIC "-//W3C//DTD SVG 1.1//EN" "http://www.w3.org/Graphics/SVG/1.1/DTD/svg11.dtd">
<svg xmlns="http://www.w3.org/2000/svg" version="1.1" width="160px" height="160px" style="shape-rendering:geometricPrecision; text-rendering:geometricPrecision; image-rendering:optimizeQuality; fill-rule:evenodd; clip-rule:evenodd" xmlns:xlink="http://www.w3.org/1999/xlink">
<g><path style="opacity:1" fill="#071c27" d="M -0.5,-0.5 C 52.8333,-0.5 106.167,-0.5 159.5,-0.5C 159.5,52.8333 159.5,106.167 159.5,159.5C 106.167,159.5 52.8333,159.5 -0.5,159.5C -0.5,106.167 -0.5,52.8333 -0.5,-0.5 Z"/></g>
<g><path style="opacity:1" fill="#c8cdcf" d="M 90.5,35.5 C 91.0067,39.8595 91.6734,44.1928 92.5,48.5C 91.7784,48.0825 91.2784,47.4158 91,46.5C 90.5003,54.1594 90.3336,61.8261 90.5,69.5C 89.5139,65.03 89.1805,60.3633 89.5,55.5C 89.176,48.6457 89.5093,41.979 90.5,35.5 Z"/></g>
<g><path style="opacity:1" fill="#eeeff0" d="M 68.5,36.5 C 69.4889,41.9753 69.8222,47.642 69.5,53.5C 72.0778,70.2896 66.7444,83.7896 53.5,94C 45.8058,98.5116 38.1391,103.012 30.5,107.5C 29.8333,107.5 29.5,107.167 29.5,106.5C 51.3715,88.0886 64.3715,64.7552 68.5,36.5 Z"/></g>
<g><path style="opacity:1" fill="#f0f1f2" d="M 92.5,48.5 C 98.8534,70.8341 110.52,89.8341 127.5,105.5C 126.833,105.5 126.167,105.5 125.5,105.5C 115.593,100.63 106.426,94.6298 98,87.5C 93.5694,82.3054 91.0694,76.3054 90.5,69.5C 90.3336,61.8261 90.5003,54.1594 91,46.5C 91.2784,47.4158 91.7784,48.0825 92.5,48.5 Z"/></g>
<g><path style="opacity:1" fill="#3b4b54" d="M 69.5,53.5 C 69.8222,47.642 69.4889,41.9753 68.5,36.5C 68.3691,35.6236 68.7025,34.9569 69.5,34.5C 70.8174,40.9883 70.8174,47.3217 69.5,53.5 Z"/></g>
<g><path style="opacity:1" fill="#33444d" d="M 90.5,35.5 C 89.5093,41.979 89.176,48.6457 89.5,55.5C 88.1812,48.656 88.1812,41.656 89.5,34.5C 90.1067,34.6236 90.44,34.9569 90.5,35.5 Z"/></g>
<g><path style="opacity:1" fill="#eef0f1" d="M 119.5,121.5 C 119.158,122.338 118.492,122.672 117.5,122.5C 107.788,119.214 97.7875,117.214 87.5,116.5C 84.0159,115.835 80.3492,115.501 76.5,115.5C 70.9138,115.318 65.5805,115.985 60.5,117.5C 54.6117,118.076 48.9451,119.41 43.5,121.5C 42.5084,121.672 41.8417,121.338 41.5,120.5C 50.1199,115.187 59.1199,110.353 68.5,106C 76.281,103.798 83.9477,104.132 91.5,107C 101.017,111.591 110.35,116.424 119.5,121.5 Z"/></g>
<g><path style="opacity:1" fill="#98a1a5" d="M 125.5,105.5 C 126.167,105.5 126.833,105.5 127.5,105.5C 129.595,106.412 131.595,107.579 133.5,109C 134.696,109.654 134.696,110.154 133.5,110.5C 130.432,109.309 127.765,107.642 125.5,105.5 Z"/></g>
<g><path style="opacity:1" fill="#909a9e" d="M 29.5,106.5 C 29.5,107.167 29.8333,107.5 30.5,107.5C 29.1252,109.07 27.4585,109.903 25.5,110C 26.7051,108.624 28.0384,107.458 29.5,106.5 Z"/></g>
<g><path style="opacity:1" fill="#727e84" d="M 87.5,116.5 C 78.4818,116.448 69.4818,116.782 60.5,117.5C 65.5805,115.985 70.9138,115.318 76.5,115.5C 80.3492,115.501 84.0159,115.835 87.5,116.5 Z"/></g>
<g><path style="opacity:1" fill="#919a9f" d="M 41.5,120.5 C 41.8417,121.338 42.5084,121.672 43.5,121.5C 40.6825,122.904 37.6825,123.737 34.5,124C 36.5766,122.295 38.91,121.128 41.5,120.5 Z"/></g>
<g><path style="opacity:1" fill="#7e898e" d="M 119.5,121.5 C 121.14,122.32 122.807,123.153 124.5,124C 121.942,124.275 119.608,123.775 117.5,122.5C 118.492,122.672 119.158,122.338 119.5,121.5 Z"/></g>
</svg>
