<?xml version="1.0" encoding="UTF-8"?>
<!DOCTYPE svg PUBLIC "-//W3C//DTD SVG 1.1//EN" "http://www.w3.org/Graphics/SVG/1.1/DTD/svg11.dtd">
<svg xmlns="http://www.w3.org/2000/svg" version="1.1" width="160px" height="160px" style="shape-rendering:geometricPrecision; text-rendering:geometricPrecision; image-rendering:optimizeQuality; fill-rule:evenodd; clip-rule:evenodd" xmlns:xlink="http://www.w3.org/1999/xlink">
<g><path style="opacity:1" fill="#a92b3e" d="M -0.5,-0.5 C 52.8333,-0.5 106.167,-0.5 159.5,-0.5C 159.5,52.8333 159.5,106.167 159.5,159.5C 106.167,159.5 52.8333,159.5 -0.5,159.5C -0.5,106.167 -0.5,52.8333 -0.5,-0.5 Z"/></g>
<g><path style="opacity:1" fill="#fdfafa" d="M 44.5,54.5 C 51.5079,54.3337 58.5079,54.5004 65.5,55C 68.7219,56.9904 69.2219,59.4904 67,62.5C 62.445,59.383 58.945,60.383 56.5,65.5C 60.5,70.1667 64.8333,74.5 69.5,78.5C 77.319,71.1812 84.9857,63.6812 92.5,56C 104.495,55.5001 116.495,55.3335 128.5,55.5C 129.957,62.4205 127.957,67.9205 122.5,72C 115.167,72.3333 107.833,72.6667 100.5,73C 89.3333,84.1667 78.1667,95.3333 67,106.5C 54.6525,94.3193 42.4858,81.986 30.5,69.5C 35.1884,64.4797 39.8551,59.4797 44.5,54.5 Z"/></g>
<g><path style="opacity:1" fill="#fdfafb" d="M 94.5,108.5 C 85.9832,108.826 77.6499,108.493 69.5,107.5C 80.6318,96.8688 91.6318,86.0354 102.5,75C 111.16,74.5002 119.827,74.3336 128.5,74.5C 129.974,88.5248 123.641,94.6915 109.5,93C 104.297,98.0354 99.2969,103.202 94.5,108.5 Z"/></g>
<g><path style="opacity:1" fill="#bd5d6b" d="M 69.5,107.5 C 77.6499,108.493 85.9832,108.826 94.5,108.5C 85.9912,109.821 77.3245,109.821 68.5,108.5C 68.6236,107.893 68.9569,107.56 69.5,107.5 Z"/></g>
</svg>
