<?xml version="1.0" encoding="UTF-8"?>
<!DOCTYPE svg PUBLIC "-//W3C//DTD SVG 1.1//EN" "http://www.w3.org/Graphics/SVG/1.1/DTD/svg11.dtd">
<svg xmlns="http://www.w3.org/2000/svg" version="1.1" width="160px" height="160px" style="shape-rendering:geometricPrecision; text-rendering:geometricPrecision; image-rendering:optimizeQuality; fill-rule:evenodd; clip-rule:evenodd" xmlns:xlink="http://www.w3.org/1999/xlink">
<g><path style="opacity:0.99" fill="#032d6e" d="M 65.5,-0.5 C 74.8333,-0.5 84.1667,-0.5 93.5,-0.5C 99.8664,1.06488 106.2,3.06488 112.5,5.5C 119.303,8.7362 125.637,12.7362 131.5,17.5C 131.5,18.1667 131.833,18.5 132.5,18.5C 135.5,20.8333 138.167,23.5 140.5,26.5C 140.5,27.1667 140.833,27.5 141.5,27.5C 144.759,31.6964 147.759,36.0297 150.5,40.5C 153.767,47.0189 156.434,53.6855 158.5,60.5C 158.216,62.4147 158.549,64.0813 159.5,65.5C 159.5,74.8333 159.5,84.1667 159.5,93.5C 158.549,94.9187 158.216,96.5853 158.5,98.5C 157.566,99.5676 157.232,100.901 157.5,102.5C 156.596,103.209 156.263,104.209 156.5,105.5C 155.596,106.209 155.263,107.209 155.5,108.5C 154.662,108.842 154.328,109.508 154.5,110.5C 153.662,110.842 153.328,111.508 153.5,112.5C 151.992,114.181 150.992,116.181 150.5,118.5C 149.662,118.842 149.328,119.508 149.5,120.5C 148.662,120.842 148.328,121.508 148.5,122.5C 147.833,122.5 147.5,122.833 147.5,123.5C 146.662,123.842 146.328,124.508 146.5,125.5C 145.833,125.5 145.5,125.833 145.5,126.5C 144.662,126.842 144.328,127.508 144.5,128.5C 143.833,128.5 143.5,128.833 143.5,129.5C 142.833,129.5 142.5,129.833 142.5,130.5C 141.833,130.5 141.5,130.833 141.5,131.5C 140.833,131.5 140.5,131.833 140.5,132.5C 139.662,132.842 139.328,133.508 139.5,134.5C 138.833,134.5 138.5,134.833 138.5,135.5C 137.833,135.5 137.5,135.833 137.5,136.5C 136.833,136.5 136.5,136.833 136.5,137.5C 135.833,137.5 135.5,137.833 135.5,138.5C 134.833,138.5 134.5,138.833 134.5,139.5C 133.508,139.328 132.842,139.662 132.5,140.5C 131.833,140.5 131.5,140.833 131.5,141.5C 130.833,141.5 130.5,141.833 130.5,142.5C 129.833,142.5 129.5,142.833 129.5,143.5C 128.833,143.5 128.5,143.833 128.5,144.5C 127.508,144.328 126.842,144.662 126.5,145.5C 125.833,145.5 125.5,145.833 125.5,146.5C 124.508,146.328 123.842,146.662 123.5,147.5C 122.833,147.5 122.5,147.833 122.5,148.5C 121.508,148.328 120.842,148.662 120.5,149.5C 119.508,149.328 118.842,149.662 118.5,150.5C 116.181,150.992 114.181,151.992 112.5,153.5C 111.508,153.328 110.842,153.662 110.5,154.5C 109.508,154.328 108.842,154.662 108.5,155.5C 107.209,155.263 106.209,155.596 105.5,156.5C 104.209,156.263 103.209,156.596 102.5,157.5C 100.901,157.232 99.5676,157.566 98.5,158.5C 96.5853,158.216 94.9187,158.549 93.5,159.5C 84.1667,159.5 74.8333,159.5 65.5,159.5C 64.0813,158.549 62.4147,158.216 60.5,158.5C 53.6855,156.434 47.0189,153.767 40.5,150.5C 36.0297,147.759 31.6964,144.759 27.5,141.5C 27.5,140.833 27.1667,140.5 26.5,140.5C 23.5,138.167 20.8333,135.5 18.5,132.5C 18.5,131.833 18.1667,131.5 17.5,131.5C 16.1363,129.809 14.803,128.142 13.5,126.5C 13.0679,125.29 12.4013,124.29 11.5,123.5C 11.0679,122.29 10.4013,121.29 9.5,120.5C 9.67158,119.508 9.33825,118.842 8.5,118.5C 8.00751,116.181 7.00751,114.181 5.5,112.5C 5.67158,111.508 5.33825,110.842 4.5,110.5C 4.67158,109.508 4.33825,108.842 3.5,108.5C 2.86993,104.952 1.86993,101.619 0.5,98.5C 0.784479,96.5853 0.451145,94.9187 -0.5,93.5C -0.5,84.1667 -0.5,74.8333 -0.5,65.5C 0.451145,64.0813 0.784479,62.4147 0.5,60.5C 2.56594,53.6855 5.2326,47.0189 8.5,40.5C 11.2407,36.0297 14.2407,31.6964 17.5,27.5C 18.1667,27.5 18.5,27.1667 18.5,26.5C 20.8333,23.5 23.5,20.8333 26.5,18.5C 27.1667,18.5 27.5,18.1667 27.5,17.5C 38.9328,8.78245 51.5995,2.78245 65.5,-0.5 Z"/></g>
<g><path style="opacity:0.016" fill="#13223f" d="M 112.5,5.5 C 113.5,4.16667 114.5,4.16667 115.5,5.5C 114.5,5.5 113.5,5.5 112.5,5.5 Z"/></g>
<g><path style="opacity:0.016" fill="#003f80" d="M 42.5,5.5 C 43.8333,6.16667 43.8333,6.16667 42.5,5.5 Z"/></g>
<g><path style="opacity:0.016" fill="#003f80" d="M 115.5,5.5 C 116.833,6.16667 116.833,6.16667 115.5,5.5 Z"/></g>
<g><path style="opacity:0.016" fill="#003f80" d="M 40.5,6.5 C 41.8333,7.16667 41.8333,7.16667 40.5,6.5 Z"/></g>
<g><path style="opacity:0.016" fill="#003f80" d="M 117.5,6.5 C 118.833,7.16667 118.833,7.16667 117.5,6.5 Z"/></g>
<g><path style="opacity:0.004" fill="#160949" d="M 27.5,17.5 C 26.8333,17.5 26.5,17.8333 26.5,18.5C 24.0248,18.2533 24.0248,17.5866 26.5,16.5C 27.1067,16.6236 27.44,16.9569 27.5,17.5 Z"/></g>
<g><path style="opacity:0.012" fill="#120668" d="M 131.5,17.5 C 132.497,16.2875 133.497,16.4542 134.5,18C 133.906,18.4643 133.239,18.631 132.5,18.5C 131.833,18.5 131.5,18.1667 131.5,17.5 Z"/></g>
<g><path style="opacity:0.008" fill="#150777" d="M 18.5,26.5 C 17.8333,26.5 17.5,26.8333 17.5,27.5C 16.2875,26.5029 16.4542,25.5029 18,24.5C 18.4643,25.0944 18.631,25.7611 18.5,26.5 Z"/></g>
<g><path style="opacity:0.008" fill="#150777" d="M 141.5,27.5 C 140.833,27.5 140.5,27.1667 140.5,26.5C 140.747,24.0248 141.413,24.0248 142.5,26.5C 142.376,27.1067 142.043,27.44 141.5,27.5 Z"/></g>
<g><path style="opacity:0.012" fill="#153a55" d="M 8.5,40.5 C 8.16667,40.5 7.83333,40.5 7.5,40.5C 7.83333,37.8333 8.16667,37.8333 8.5,40.5 Z"/></g>
<g><path style="opacity:1" fill="#f9f9fa" d="M 88.5,39.5 C 115.174,34.3464 125.674,45.3464 120,72.5C 119.18,79.2687 117.846,85.9354 116,92.5C 114.874,102.054 109.707,105.22 100.5,102C 96.0174,100.594 92.0174,98.4276 88.5,95.5C 93.0626,83.9167 95.7293,71.9167 96.5,59.5C 96.4906,53.1415 94.9906,47.1415 92,41.5C 90.8873,40.695 89.7206,40.0283 88.5,39.5 Z"/></g>
<g><path style="opacity:0.012" fill="#153a55" d="M 151.5,40.5 C 151.167,40.5 150.833,40.5 150.5,40.5C 150.833,37.8333 151.167,37.8333 151.5,40.5 Z"/></g>
<g><path style="opacity:0.016" fill="#003f80" d="M 7.5,40.5 C 6.83333,41.1667 6.83333,41.1667 7.5,40.5 Z"/></g>
<g><path style="opacity:1" fill="#f8f8fa" d="M 78.5,39.5 C 84.2469,39.739 87.7469,42.739 89,48.5C 89.4993,53.4889 89.6659,58.4889 89.5,63.5C 72.4253,65.4636 57.2587,71.7969 44,82.5C 41.8543,85.1258 40.521,88.1258 40,91.5C 33.5777,84.3333 30.2444,75.9999 30,66.5C 35.4083,57.8675 42.9083,51.7008 52.5,48C 61.1138,44.628 69.7805,41.7946 78.5,39.5 Z"/></g>
<g><path style="opacity:0.016" fill="#003f80" d="M 151.5,40.5 C 152.833,41.1667 152.833,41.1667 151.5,40.5 Z"/></g>
<g><path style="opacity:0.016" fill="#003f80" d="M 5.5,42.5 C 6.83333,43.1667 6.83333,43.1667 5.5,42.5 Z"/></g>
<g><path style="opacity:0.016" fill="#003f80" d="M 152.5,42.5 C 153.833,43.1667 153.833,43.1667 152.5,42.5 Z"/></g>
<g><path style="opacity:0.012" fill="#132455" d="M -0.5,56.5 C 0.434475,57.5676 0.767809,58.901 0.5,60.5C 0.166667,60.5 -0.166667,60.5 -0.5,60.5C -0.5,59.1667 -0.5,57.8333 -0.5,56.5 Z"/></g>
<g><path style="opacity:0.012" fill="#132455" d="M 159.5,56.5 C 159.5,57.8333 159.5,59.1667 159.5,60.5C 159.167,60.5 158.833,60.5 158.5,60.5C 158.232,58.901 158.566,57.5676 159.5,56.5 Z"/></g>
<g><path style="opacity:1" fill="#f8f9fa" d="M 59.5,78.5 C 67.696,87.1918 76.696,95.0252 86.5,102C 90.5,104 94.5,106 98.5,108C 102.372,108.891 106.038,108.391 109.5,106.5C 109.833,106.833 110.167,107.167 110.5,107.5C 107.308,115.741 102.308,122.575 95.5,128C 90.7426,128.81 86.0759,128.476 81.5,127C 67.258,119.76 55.0914,109.927 45,97.5C 44.5485,91.8979 46.7152,87.3979 51.5,84C 54.4068,82.3909 57.0734,80.5576 59.5,78.5 Z"/></g>
<g><path style="opacity:0.004" fill="#132439" d="M -0.5,98.5 C -0.166667,98.5 0.166667,98.5 0.5,98.5C 0.767809,100.099 0.434475,101.432 -0.5,102.5C -0.5,101.167 -0.5,99.8333 -0.5,98.5 Z"/></g>
<g><path style="opacity:0.004" fill="#132439" d="M 158.5,98.5 C 158.833,98.5 159.167,98.5 159.5,98.5C 159.5,99.8333 159.5,101.167 159.5,102.5C 159.167,102.5 158.833,102.5 158.5,102.5C 158.5,101.167 158.5,99.8333 158.5,98.5 Z"/></g>
<g><path style="opacity:0.016" fill="#10305e" d="M 157.5,102.5 C 157.833,102.5 158.167,102.5 158.5,102.5C 158.737,103.791 158.404,104.791 157.5,105.5C 157.5,104.5 157.5,103.5 157.5,102.5 Z"/></g>
<g><path style="opacity:0.016" fill="#10305e" d="M 156.5,105.5 C 156.833,105.5 157.167,105.5 157.5,105.5C 157.737,106.791 157.404,107.791 156.5,108.5C 156.5,107.5 156.5,106.5 156.5,105.5 Z"/></g>
<g><path style="opacity:0.008" fill="#081777" d="M 3.5,108.5 C 3.5,109.167 3.5,109.833 3.5,110.5C 2.16667,109.833 2.16667,109.167 3.5,108.5 Z"/></g>
<g><path style="opacity:0.008" fill="#081777" d="M 155.5,108.5 C 155.833,108.5 156.167,108.5 156.5,108.5C 156.672,109.492 156.338,110.158 155.5,110.5C 155.5,109.833 155.5,109.167 155.5,108.5 Z"/></g>
<g><path style="opacity:0.012" fill="#1c3e64" d="M 3.5,110.5 C 3.83333,110.5 4.16667,110.5 4.5,110.5C 4.5,111.167 4.5,111.833 4.5,112.5C 3.66175,112.158 3.32842,111.492 3.5,110.5 Z"/></g>
<g><path style="opacity:0.012" fill="#1c3e64" d="M 154.5,110.5 C 154.833,110.5 155.167,110.5 155.5,110.5C 155.672,111.492 155.338,112.158 154.5,112.5C 154.5,111.833 154.5,111.167 154.5,110.5 Z"/></g>
<g><path style="opacity:0.016" fill="#13223f" d="M 4.5,112.5 C 4.83333,112.5 5.16667,112.5 5.5,112.5C 5.5,113.5 5.5,114.5 5.5,115.5C 4.59603,114.791 4.26269,113.791 4.5,112.5 Z"/></g>
<g><path style="opacity:0.016" fill="#13223f" d="M 153.5,112.5 C 153.833,112.5 154.167,112.5 154.5,112.5C 154.737,113.791 154.404,114.791 153.5,115.5C 153.5,114.5 153.5,113.5 153.5,112.5 Z"/></g>
<g><path style="opacity:0.016" fill="#003f80" d="M 5.5,115.5 C 6.83333,116.167 6.83333,116.167 5.5,115.5 Z"/></g>
<g><path style="opacity:0.016" fill="#003f80" d="M 153.5,115.5 C 152.833,116.167 152.833,116.167 153.5,115.5 Z"/></g>
<g><path style="opacity:0.016" fill="#003f80" d="M 7.5,118.5 C 6.83333,117.167 6.83333,117.167 7.5,118.5 Z"/></g>
<g><path style="opacity:0.016" fill="#003f80" d="M 151.5,117.5 C 152.833,118.167 152.833,118.167 151.5,117.5 Z"/></g>
<g><path style="opacity:0.012" fill="#132055" d="M 7.5,118.5 C 7.83333,118.5 8.16667,118.5 8.5,118.5C 8.5,119.167 8.5,119.833 8.5,120.5C 7.66175,120.158 7.32842,119.492 7.5,118.5 Z"/></g>
<g><path style="opacity:0.012" fill="#132055" d="M 150.5,118.5 C 150.833,118.5 151.167,118.5 151.5,118.5C 151.672,119.492 151.338,120.158 150.5,120.5C 150.5,119.833 150.5,119.167 150.5,118.5 Z"/></g>
<g><path style="opacity:0.004" fill="#1224c9" d="M 8.5,120.5 C 8.83333,120.5 9.16667,120.5 9.5,120.5C 9.16667,123.167 8.83333,123.167 8.5,120.5 Z"/></g>
<g><path style="opacity:0.004" fill="#1224c9" d="M 149.5,120.5 C 149.833,120.5 150.167,120.5 150.5,120.5C 150.672,121.492 150.338,122.158 149.5,122.5C 149.5,121.833 149.5,121.167 149.5,120.5 Z"/></g>
<g><path style="opacity:0.016" fill="#003f80" d="M 148.5,122.5 C 148.833,122.5 149.167,122.5 149.5,122.5C 149.315,123.17 148.981,123.17 148.5,122.5 Z"/></g>
<g><path style="opacity:0.008" fill="#0a1c80" d="M 11.5,123.5 C 11.631,124.239 11.4643,124.906 11,125.5C 10.3083,124.563 10.475,123.897 11.5,123.5 Z"/></g>
<g><path style="opacity:0.008" fill="#0a1c80" d="M 147.5,123.5 C 147.833,123.5 148.167,123.5 148.5,123.5C 148.672,124.492 148.338,125.158 147.5,125.5C 147.5,124.833 147.5,124.167 147.5,123.5 Z"/></g>
<g><path style="opacity:0.02" fill="#003266" d="M 146.5,125.5 C 146.833,125.5 147.167,125.5 147.5,125.5C 147.315,126.17 146.981,126.17 146.5,125.5 Z"/></g>
<g><path style="opacity:0.004" fill="#0f1524" d="M 13.5,126.5 C 13.631,127.239 13.4643,127.906 13,128.5C 12.3083,127.563 12.475,126.897 13.5,126.5 Z"/></g>
<g><path style="opacity:0.004" fill="#0f1524" d="M 145.5,126.5 C 145.833,126.5 146.167,126.5 146.5,126.5C 146.672,127.492 146.338,128.158 145.5,128.5C 145.5,127.833 145.5,127.167 145.5,126.5 Z"/></g>
<g><path style="opacity:0.012" fill="#005554" d="M 144.5,128.5 C 144.833,128.5 145.167,128.5 145.5,128.5C 145.315,129.17 144.981,129.17 144.5,128.5 Z"/></g>
<g><path style="opacity:0.024" fill="#002a55" d="M 143.5,129.5 C 143.833,129.5 144.167,129.5 144.5,129.5C 144.315,130.17 143.981,130.17 143.5,129.5 Z"/></g>
<g><path style="opacity:0.02" fill="#003266" d="M 142.5,130.5 C 142.833,130.5 143.167,130.5 143.5,130.5C 143.315,131.17 142.981,131.17 142.5,130.5 Z"/></g>
<g><path style="opacity:0.012" fill="#120668" d="M 17.5,131.5 C 18.1667,131.5 18.5,131.833 18.5,132.5C 18.2533,134.975 17.5866,134.975 16.5,132.5C 16.6236,131.893 16.9569,131.56 17.5,131.5 Z"/></g>
<g><path style="opacity:0.012" fill="#120668" d="M 141.5,131.5 C 141.833,131.5 142.167,131.5 142.5,131.5C 142.573,133.027 141.906,134.027 140.5,134.5C 140.5,133.833 140.5,133.167 140.5,132.5C 141.167,132.5 141.5,132.167 141.5,131.5 Z"/></g>
<g><path style="opacity:0.012" fill="#005554" d="M 139.5,134.5 C 139.833,134.5 140.167,134.5 140.5,134.5C 140.315,135.17 139.981,135.17 139.5,134.5 Z"/></g>
<g><path style="opacity:0.016" fill="#003f80" d="M 138.5,135.5 C 138.833,135.5 139.167,135.5 139.5,135.5C 139.315,136.17 138.981,136.17 138.5,135.5 Z"/></g>
<g><path style="opacity:0.016" fill="#003f80" d="M 137.5,136.5 C 137.833,136.5 138.167,136.5 138.5,136.5C 138.315,137.17 137.981,137.17 137.5,136.5 Z"/></g>
<g><path style="opacity:0.016" fill="#003f80" d="M 136.5,137.5 C 136.833,137.5 137.167,137.5 137.5,137.5C 137.315,138.17 136.981,138.17 136.5,137.5 Z"/></g>
<g><path style="opacity:0.016" fill="#003f80" d="M 135.5,138.5 C 135.833,138.5 136.167,138.5 136.5,138.5C 136.315,139.17 135.981,139.17 135.5,138.5 Z"/></g>
<g><path style="opacity:0.012" fill="#005554" d="M 134.5,139.5 C 134.833,139.5 135.167,139.5 135.5,139.5C 135.315,140.17 134.981,140.17 134.5,139.5 Z"/></g>
<g><path style="opacity:0.008" fill="#150777" d="M 26.5,140.5 C 27.1667,140.5 27.5,140.833 27.5,141.5C 26.5029,142.713 25.5029,142.546 24.5,141C 25.0944,140.536 25.7611,140.369 26.5,140.5 Z"/></g>
<g><path style="opacity:0.004" fill="#10059c" d="M 132.5,140.5 C 133.167,140.5 133.833,140.5 134.5,140.5C 134.027,141.906 133.027,142.573 131.5,142.5C 131.5,142.167 131.5,141.833 131.5,141.5C 132.167,141.5 132.5,141.167 132.5,140.5 Z"/></g>
<g><path style="opacity:0.02" fill="#003266" d="M 130.5,142.5 C 130.833,142.5 131.167,142.5 131.5,142.5C 131.315,143.17 130.981,143.17 130.5,142.5 Z"/></g>
<g><path style="opacity:0.024" fill="#002a55" d="M 129.5,143.5 C 129.833,143.5 130.167,143.5 130.5,143.5C 130.315,144.17 129.981,144.17 129.5,143.5 Z"/></g>
<g><path style="opacity:0.012" fill="#005554" d="M 128.5,144.5 C 128.833,144.5 129.167,144.5 129.5,144.5C 129.315,145.17 128.981,145.17 128.5,144.5 Z"/></g>
<g><path style="opacity:0.004" fill="#0f1524" d="M 126.5,146.5 C 126.5,146.167 126.5,145.833 126.5,145.5C 127.167,145.5 127.833,145.5 128.5,145.5C 128.158,146.338 127.492,146.672 126.5,146.5 Z"/></g>
<g><path style="opacity:0.02" fill="#003266" d="M 125.5,146.5 C 125.833,146.5 126.167,146.5 126.5,146.5C 126.315,147.17 125.981,147.17 125.5,146.5 Z"/></g>
<g><path style="opacity:0.008" fill="#0a1c80" d="M 123.5,148.5 C 123.5,148.167 123.5,147.833 123.5,147.5C 124.167,147.5 124.833,147.5 125.5,147.5C 125.158,148.338 124.492,148.672 123.5,148.5 Z"/></g>
<g><path style="opacity:0.016" fill="#003f80" d="M 122.5,148.5 C 122.833,148.5 123.167,148.5 123.5,148.5C 123.315,149.17 122.981,149.17 122.5,148.5 Z"/></g>
<g><path style="opacity:0.004" fill="#1224c9" d="M 120.5,150.5 C 120.5,150.167 120.5,149.833 120.5,149.5C 121.167,149.5 121.833,149.5 122.5,149.5C 122.158,150.338 121.492,150.672 120.5,150.5 Z"/></g>
<g><path style="opacity:0.012" fill="#153a55" d="M 40.5,150.5 C 40.5,150.833 40.5,151.167 40.5,151.5C 37.8333,151.167 37.8333,150.833 40.5,150.5 Z"/></g>
<g><path style="opacity:0.012" fill="#132055" d="M 118.5,151.5 C 118.5,151.167 118.5,150.833 118.5,150.5C 119.167,150.5 119.833,150.5 120.5,150.5C 120.158,151.338 119.492,151.672 118.5,151.5 Z"/></g>
<g><path style="opacity:0.016" fill="#003f80" d="M 40.5,151.5 C 41.8333,152.167 41.8333,152.167 40.5,151.5 Z"/></g>
<g><path style="opacity:0.016" fill="#003f80" d="M 118.5,151.5 C 117.833,152.167 117.833,152.167 118.5,151.5 Z"/></g>
<g><path style="opacity:0.016" fill="#003f80" d="M 42.5,152.5 C 43.8333,153.167 43.8333,153.167 42.5,152.5 Z"/></g>
<g><path style="opacity:0.016" fill="#003f80" d="M 115.5,152.5 C 116.833,153.167 116.833,153.167 115.5,152.5 Z"/></g>
<g><path style="opacity:0.016" fill="#13223f" d="M 112.5,154.5 C 112.5,154.167 112.5,153.833 112.5,153.5C 113.5,153.5 114.5,153.5 115.5,153.5C 114.791,154.404 113.791,154.737 112.5,154.5 Z"/></g>
<g><path style="opacity:0.012" fill="#1c3e64" d="M 110.5,155.5 C 110.5,155.167 110.5,154.833 110.5,154.5C 111.167,154.5 111.833,154.5 112.5,154.5C 112.158,155.338 111.492,155.672 110.5,155.5 Z"/></g>
<g><path style="opacity:0.008" fill="#081777" d="M 108.5,156.5 C 108.5,156.167 108.5,155.833 108.5,155.5C 109.167,155.5 109.833,155.5 110.5,155.5C 110.158,156.338 109.492,156.672 108.5,156.5 Z"/></g>
<g><path style="opacity:0.016" fill="#10305e" d="M 105.5,157.5 C 105.5,157.167 105.5,156.833 105.5,156.5C 106.5,156.5 107.5,156.5 108.5,156.5C 107.791,157.404 106.791,157.737 105.5,157.5 Z"/></g>
<g><path style="opacity:0.016" fill="#10305e" d="M 102.5,158.5 C 102.5,158.167 102.5,157.833 102.5,157.5C 103.5,157.5 104.5,157.5 105.5,157.5C 104.791,158.404 103.791,158.737 102.5,158.5 Z"/></g>
<g><path style="opacity:0.012" fill="#132455" d="M 56.5,159.5 C 57.5676,158.566 58.901,158.232 60.5,158.5C 60.5,158.833 60.5,159.167 60.5,159.5C 59.1667,159.5 57.8333,159.5 56.5,159.5 Z"/></g>
<g><path style="opacity:0.004" fill="#132439" d="M 98.5,159.5 C 98.5,159.167 98.5,158.833 98.5,158.5C 99.8333,158.5 101.167,158.5 102.5,158.5C 102.5,158.833 102.5,159.167 102.5,159.5C 101.167,159.5 99.8333,159.5 98.5,159.5 Z"/></g>
</svg>
