<?xml version="1.0" encoding="UTF-8"?>
<!DOCTYPE svg PUBLIC "-//W3C//DTD SVG 1.1//EN" "http://www.w3.org/Graphics/SVG/1.1/DTD/svg11.dtd">
<svg xmlns="http://www.w3.org/2000/svg" version="1.1" width="160px" height="160px" style="shape-rendering:geometricPrecision; text-rendering:geometricPrecision; image-rendering:optimizeQuality; fill-rule:evenodd; clip-rule:evenodd" xmlns:xlink="http://www.w3.org/1999/xlink">
<g><path style="opacity:1" fill="#000000" d="M -0.5,-0.5 C 52.8333,-0.5 106.167,-0.5 159.5,-0.5C 159.5,52.8333 159.5,106.167 159.5,159.5C 106.167,159.5 52.8333,159.5 -0.5,159.5C -0.5,106.167 -0.5,52.8333 -0.5,-0.5 Z"/></g>
<g><path style="opacity:1" fill="#fbfbfb" d="M 36.5,36.5 C 53.8365,36.3334 71.1699,36.5001 88.5,37C 81.3187,44.0144 74.3187,51.181 67.5,58.5C 57.4278,63.2996 47.0945,67.2996 36.5,70.5C 36.5,59.1667 36.5,47.8333 36.5,36.5 Z"/></g>
<g><path style="opacity:1" fill="#fcfcfc" d="M 91.5,36.5 C 101.5,36.5 111.5,36.5 121.5,36.5C 121.667,52.5035 121.5,68.5035 121,84.5C 110.894,68.6113 101.06,52.6113 91.5,36.5 Z"/></g>
<g><path style="opacity:1" fill="#fdfdfd" d="M 67.5,121.5 C 57.6806,122.494 47.6806,122.827 37.5,122.5C 37.3334,106.497 37.5001,90.4965 38,74.5C 47.8442,90.1947 57.6775,105.861 67.5,121.5 Z"/></g>
<g><path style="opacity:1" fill="#e9e9e9" d="M 107.5,97.5 C 106.833,97.5 106.5,97.8333 106.5,98.5C 102.775,93.4029 99.2751,88.0696 96,82.5C 89.1218,76.4228 82.4552,76.4228 76,82.5C 75.6385,85.31 74.8051,87.9767 73.5,90.5C 74.8897,92.1694 75.2231,93.8361 74.5,95.5C 80.1905,104.232 85.8572,112.898 91.5,121.5C 91.5,121.833 91.5,122.167 91.5,122.5C 84.9779,122.823 78.6446,122.49 72.5,121.5C 76.9215,119.571 80.5882,116.737 83.5,113C 80.1324,107.1 76.6324,101.267 73,95.5C 70.433,84.5757 74.5997,77.909 85.5,75.5C 90.7982,75.8971 94.9649,78.2305 98,82.5C 101.177,87.5282 104.344,92.5282 107.5,97.5 Z"/></g>
<g><path style="opacity:1" fill="#202020" d="M 106.5,98.5 C 111.109,106.283 115.942,113.949 121,121.5C 121.825,110.659 121.659,99.992 120.5,89.5C 120.56,88.9569 120.893,88.6236 121.5,88.5C 122.499,99.8138 122.832,111.147 122.5,122.5C 119.792,122.664 117.459,122.664 115.5,122.5C 115.446,121.313 115.113,119.98 114.5,118.5C 114.693,119.688 114.193,121.022 113,122.5C 111.984,121.366 111.317,121.699 111,123.5C 110.125,121.487 108.791,121.487 107,123.5C 106.085,122.672 105.419,121.672 105,120.5C 104.667,121.167 104.333,121.833 104,122.5C 103.333,121.167 102.667,121.167 102,122.5C 101.385,120.884 100.385,119.551 99,118.5C 98.3828,119.449 98.5494,120.282 99.5,121C 98,123.167 96.8333,123 96,120.5C 95.3333,123.167 94.6667,123.167 94,120.5C 93.3292,121.252 92.4959,121.586 91.5,121.5C 85.8572,112.898 80.1905,104.232 74.5,95.5C 75.2231,93.8361 74.8897,92.1694 73.5,90.5C 74.8051,87.9767 75.6385,85.31 76,82.5C 82.4552,76.4228 89.1218,76.4228 96,82.5C 99.2751,88.0696 102.775,93.4029 106.5,98.5 Z"/></g>
<g><path style="opacity:1" fill="#fbfbfb" d="M 120.5,89.5 C 121.659,99.992 121.825,110.659 121,121.5C 115.942,113.949 111.109,106.283 106.5,98.5C 106.5,97.8333 106.833,97.5 107.5,97.5C 111.973,95.0952 116.306,92.4285 120.5,89.5 Z"/></g>
<g><path style="opacity:1" fill="#3b3b3b" d="M 72.5,121.5 C 78.6446,122.49 84.9779,122.823 91.5,122.5C 84.9888,123.818 78.3222,123.818 71.5,122.5C 71.6236,121.893 71.9569,121.56 72.5,121.5 Z"/></g>
<g><path style="opacity:1" fill="#737373" d="M 67.5,121.5 C 68.0431,121.56 68.3764,121.893 68.5,122.5C 58.0075,123.823 47.6742,123.823 37.5,122.5C 47.6806,122.827 57.6806,122.494 67.5,121.5 Z"/></g>
</svg>
