<?xml version="1.0" encoding="UTF-8"?>
<!DOCTYPE svg PUBLIC "-//W3C//DTD SVG 1.1//EN" "http://www.w3.org/Graphics/SVG/1.1/DTD/svg11.dtd">
<svg xmlns="http://www.w3.org/2000/svg" version="1.1" width="160px" height="160px" style="shape-rendering:geometricPrecision; text-rendering:geometricPrecision; image-rendering:optimizeQuality; fill-rule:evenodd; clip-rule:evenodd" xmlns:xlink="http://www.w3.org/1999/xlink">
<g><path style="opacity:1" fill="#2f9ddb" d="M -0.5,-0.5 C 52.8333,-0.5 106.167,-0.5 159.5,-0.5C 159.5,52.8333 159.5,106.167 159.5,159.5C 106.167,159.5 52.8333,159.5 -0.5,159.5C -0.5,106.167 -0.5,52.8333 -0.5,-0.5 Z"/></g>
<g><path style="opacity:1" fill="#eef4f8" d="M 71.5,60.5 C 74.5715,59.9245 76.5715,61.0912 77.5,64C 74.8333,70 72.1667,70 69.5,64C 69.9783,62.6974 70.645,61.5307 71.5,60.5 Z"/></g>
<g><path style="opacity:1" fill="#eef4f8" d="M 83.5,60.5 C 90.5133,61.5421 91.1799,64.2087 85.5,68.5C 81.067,66.7679 80.4003,64.1012 83.5,60.5 Z"/></g>
<g><path style="opacity:1" fill="#f7f9fb" d="M 47.5,71.5 C 52.4857,71.3049 54.1524,73.4716 52.5,78C 46.741,79.1387 45.0744,76.972 47.5,71.5 Z"/></g>
<g><path style="opacity:1" fill="#f3f8fa" d="M 59.5,71.5 C 64.2137,71.2008 65.8804,73.2008 64.5,77.5C 58.2899,78.9673 56.6232,76.9673 59.5,71.5 Z"/></g>
<g><path style="opacity:1" fill="#f6f9fb" d="M 71.5,71.5 C 77.0159,71.4734 78.3492,73.64 75.5,78C 69.7377,78.4178 68.4044,76.2511 71.5,71.5 Z"/></g>
<g><path style="opacity:1" fill="#f3f8fa" d="M 83.5,71.5 C 89.0159,71.4734 90.3492,73.64 87.5,78C 81.6815,78.5262 80.3481,76.3595 83.5,71.5 Z"/></g>
<g><path style="opacity:1" fill="#f7fafb" d="M 95.5,71.5 C 100.328,71.3852 101.661,73.5519 99.5,78C 93.3389,78.878 92.0055,76.7113 95.5,71.5 Z"/></g>
<g><path style="opacity:1" fill="#f6f9fb" d="M 107.5,71.5 C 112.328,71.3852 113.661,73.5519 111.5,78C 105.36,78.8076 104.027,76.6409 107.5,71.5 Z"/></g>
<g><path style="opacity:1" fill="#f7fafb" d="M 47.5,82.5 C 53.5548,81.9421 54.8881,84.1088 51.5,89C 46.5705,89.427 45.2372,87.2604 47.5,82.5 Z"/></g>
<g><path style="opacity:1" fill="#f6f9fb" d="M 59.5,82.5 C 65.0159,82.4734 66.3492,84.64 63.5,89C 57.7377,89.4178 56.4044,87.2511 59.5,82.5 Z"/></g>
<g><path style="opacity:1" fill="#f6f9fb" d="M 71.5,82.5 C 77.0159,82.4734 78.3492,84.64 75.5,89C 69.7377,89.4178 68.4044,87.2511 71.5,82.5 Z"/></g>
<g><path style="opacity:1" fill="#f6f9fb" d="M 83.5,82.5 C 89.0159,82.4734 90.3492,84.64 87.5,89C 81.7377,89.4178 80.4044,87.2511 83.5,82.5 Z"/></g>
<g><path style="opacity:1" fill="#f7fafb" d="M 94.5,82.5 C 100.158,81.6794 101.825,83.846 99.5,89C 94.2616,89.5941 92.5949,87.4274 94.5,82.5 Z"/></g>
<g><path style="opacity:1" fill="#f3f7fa" d="M 106.5,82.5 C 112.158,81.6794 113.825,83.846 111.5,89C 105.741,90.1387 104.074,87.972 106.5,82.5 Z"/></g>
<g><path style="opacity:1" fill="#e7f0f6" d="M 12.5,94.5 C 14.3464,94.2222 15.6798,94.8888 16.5,96.5C 15.6798,98.1112 14.3464,98.7778 12.5,98.5C 12.5,97.1667 12.5,95.8333 12.5,94.5 Z"/></g>
<g><path style="opacity:1" fill="#eff5f9" d="M 24.5,94.5 C 25.5,94.5 26.5,94.5 27.5,94.5C 27.5,95.8333 27.5,97.1667 27.5,98.5C 26.5,98.5 25.5,98.5 24.5,98.5C 24.5,97.1667 24.5,95.8333 24.5,94.5 Z"/></g>
<g><path style="opacity:1" fill="#eff5f9" d="M 36.5,94.5 C 37.5,94.5 38.5,94.5 39.5,94.5C 39.5,95.8333 39.5,97.1667 39.5,98.5C 38.5,98.5 37.5,98.5 36.5,98.5C 36.5,97.1667 36.5,95.8333 36.5,94.5 Z"/></g>
<g><path style="opacity:1" fill="#e7f0f6" d="M 48.5,94.5 C 49.5,94.5 50.5,94.5 51.5,94.5C 51.5,95.8333 51.5,97.1667 51.5,98.5C 48.0464,98.7332 47.0464,97.3999 48.5,94.5 Z"/></g>
<g><path style="opacity:1" fill="#f2f7fa" d="M 60.5,94.5 C 63.8606,95.2032 64.1939,96.5365 61.5,98.5C 59.3576,97.5629 59.0243,96.2296 60.5,94.5 Z"/></g>
<g><path style="opacity:1" fill="#f3f8fa" d="M 72.5,94.5 C 75.8606,95.2032 76.1939,96.5365 73.5,98.5C 71.3576,97.5629 71.0243,96.2296 72.5,94.5 Z"/></g>
<g><path style="opacity:1" fill="#f3f8fa" d="M 84.5,94.5 C 87.8606,95.2032 88.1939,96.5365 85.5,98.5C 83.3576,97.5629 83.0243,96.2296 84.5,94.5 Z"/></g>
<g><path style="opacity:1" fill="#f0f6f9" d="M 96.5,94.5 C 99.8606,95.2032 100.194,96.5365 97.5,98.5C 95.3576,97.5629 95.0243,96.2296 96.5,94.5 Z"/></g>
<g><path style="opacity:1" fill="#e7f0f6" d="M 107.5,94.5 C 109.346,94.2222 110.68,94.8888 111.5,96.5C 110.68,98.1112 109.346,98.7778 107.5,98.5C 107.5,97.1667 107.5,95.8333 107.5,94.5 Z"/></g>
<g><path style="opacity:1" fill="#eff5f9" d="M 119.5,94.5 C 120.5,94.5 121.5,94.5 122.5,94.5C 122.5,95.8333 122.5,97.1667 122.5,98.5C 121.5,98.5 120.5,98.5 119.5,98.5C 119.5,97.1667 119.5,95.8333 119.5,94.5 Z"/></g>
<g><path style="opacity:1" fill="#eff5f9" d="M 131.5,94.5 C 132.5,94.5 133.5,94.5 134.5,94.5C 134.5,95.8333 134.5,97.1667 134.5,98.5C 133.5,98.5 132.5,98.5 131.5,98.5C 131.5,97.1667 131.5,95.8333 131.5,94.5 Z"/></g>
<g><path style="opacity:1" fill="#e7f0f6" d="M 143.5,94.5 C 144.5,94.5 145.5,94.5 146.5,94.5C 146.5,95.8333 146.5,97.1667 146.5,98.5C 143.046,98.7332 142.046,97.3999 143.5,94.5 Z"/></g>
</svg>
