<svg xmlns="http://www.w3.org/2000/svg" viewBox="0 0 48 48"><path fill="#00804c" d="M0 0h48v48H0z"/><path d="M31 6.89c.52.6-2.31 3.85-2.83 4.45a20.93 20.93 0 0 1-4.51 4.22c-2.49 1.64-3.25 1.2-6 3.06a10.64 10.64 0 0 0-3.24 2.83 8.46 8.46 0 0 0-1.29 6.71c.87 3.31 3.94 4.89 5.42 5.66 2.6 1.36 3.66.8 6.28 2.11a14.51 14.51 0 0 1 5 4.16l.08-11.77a2.2 2.2 0 0 0-1.3.15 3.46 3.46 0 0 0-.6.43 7.23 7.23 0 0 1-1.52 1 8 8 0 0 1-1 .26c-1.46.51-1.85 2.23-2.29 2.12s-.32-1.18-.32-1.25a10.27 10.27 0 0 1 2.08-5.72 16.57 16.57 0 0 1 4.67-4.25 8.39 8.39 0 0 1 2.11-.84h.12c.22 0 .39-.09.5-.12a2 2 0 0 0 .34-.11l.31-.21c.31-.22.28-.88.27-1a4.2 4.2 0 0 0-1.59-2.46c-.86-.8-1.09-.72-1.33-1.23a2.51 2.51 0 0 1 .12-2.31 2 2 0 0 1 1-.91 1.82 1.82 0 0 1 1.64.15 1.89 1.89 0 0 1 .82 1.47l3.44 3.73L32.86 15a.71.71 0 0 0 0 .33.93.93 0 0 0 .42.55c.44.3.86.63 1.3.93a3.06 3.06 0 0 1 1 2.18 4.33 4.33 0 0 1-2.5 3.85c-.58.3-.57.13-1.49.49-1.89.75-3.48 2.11-3.28 2.62a.85.85 0 0 0 .83.39 9 9 0 0 0 2.47-1 1.53 1.53 0 0 1 1.18-.34 1.15 1.15 0 0 1 .51.33 1.33 1.33 0 0 1-.08 1.42c-.27.42-.54.38-1 .86a3.47 3.47 0 0 0-.52.94c-.32.84-.55 5.8-.52 12.6h-1.4c-.11-.18-.28-.44-.51-.75a11.89 11.89 0 0 0-4.87-3.78 17.43 17.43 0 0 0-4-1.09c-.89-.16-1.45-.22-1.76-.26a10.23 10.23 0 0 1-6.84-4.45c-2.51-4.16 0-9.18.28-9.83 1.65-3.34 4.62-5.19 7.06-6.69s2.58-1 4.25-2.31c2.13-1.68 3.21-3.55 6.09-4.82 1.21-.51 1.44-.36 1.52-.28z" fill="#eff4e0"/></svg>