<?xml version="1.0" encoding="UTF-8"?>
<!DOCTYPE svg PUBLIC "-//W3C//DTD SVG 1.1//EN" "http://www.w3.org/Graphics/SVG/1.1/DTD/svg11.dtd">
<svg xmlns="http://www.w3.org/2000/svg" version="1.1" width="160px" height="160px" style="shape-rendering:geometricPrecision; text-rendering:geometricPrecision; image-rendering:optimizeQuality; fill-rule:evenodd; clip-rule:evenodd" xmlns:xlink="http://www.w3.org/1999/xlink">
<g><path style="opacity:1" fill="#ededed" d="M -0.5,-0.5 C 52.8333,-0.5 106.167,-0.5 159.5,-0.5C 159.5,52.8333 159.5,106.167 159.5,159.5C 106.167,159.5 52.8333,159.5 -0.5,159.5C -0.5,106.167 -0.5,52.8333 -0.5,-0.5 Z"/></g>
<g><path style="opacity:1" fill="#1e69b1" d="M 81.5,32.5 C 80.1667,33.8333 78.8333,35.1667 77.5,36.5C 69.849,39.6588 62.5157,43.3255 55.5,47.5C 54.1667,47.8333 52.8333,48.1667 51.5,48.5C 49.0185,47.3038 49.0185,45.8038 51.5,44C 51.1667,43.8333 50.8333,43.6667 50.5,43.5C 49.0603,44.9524 47.3936,45.9524 45.5,46.5C 55.4249,36.1938 67.4249,31.5272 81.5,32.5 Z"/></g>
<g><path style="opacity:1" fill="#f48322" d="M 81.5,32.5 C 90.8046,32.3802 99.1379,35.0468 106.5,40.5C 106.515,45.484 104.182,48.8173 99.5,50.5C 99.1667,50.5 98.8333,50.5 98.5,50.5C 94.0541,47.7742 89.3874,45.2742 84.5,43C 81.7121,41.2814 79.3788,39.1148 77.5,36.5C 78.8333,35.1667 80.1667,33.8333 81.5,32.5 Z"/></g>
<g><path style="opacity:1" fill="#ecebeb" d="M 77.5,36.5 C 79.3788,39.1148 81.7121,41.2814 84.5,43C 89.3874,45.2742 94.0541,47.7742 98.5,50.5C 94.1269,53.6864 89.4602,56.353 84.5,58.5C 81.9823,59.2638 79.649,60.2638 77.5,61.5C 76.391,61.5569 75.391,61.8902 74.5,62.5C 69.7306,59.9435 65.0639,57.1102 60.5,54C 58.2101,52.2228 56.5434,50.0562 55.5,47.5C 62.5157,43.3255 69.849,39.6588 77.5,36.5 Z"/></g>
<g><path style="opacity:1" fill="#1573ba" d="M 106.5,40.5 C 116.666,47.184 123.166,56.5173 126,68.5C 126.635,70.6354 126.301,72.6354 125,74.5C 122.604,77.0666 120.104,79.4 117.5,81.5C 113.728,83.9339 109.728,85.9339 105.5,87.5C 105.313,84.7856 104.146,84.119 102,85.5C 88.2708,82.9459 80.1042,74.9459 77.5,61.5C 79.649,60.2638 81.9823,59.2638 84.5,58.5C 86.243,62.6262 88.5763,66.6262 91.5,70.5C 99.6625,74.863 104.663,72.5297 106.5,63.5C 106.929,58.515 104.929,55.015 100.5,53C 99.7476,52.3292 99.4142,51.4959 99.5,50.5C 104.182,48.8173 106.515,45.484 106.5,40.5 Z"/></g>
<g><path style="opacity:1" fill="#2a4379" d="M 51.5,48.5 C 46.3604,51.9104 41.3604,55.5771 36.5,59.5C 38.3375,54.3346 41.3375,50.0013 45.5,46.5C 47.3936,45.9524 49.0603,44.9524 50.5,43.5C 50.8333,43.6667 51.1667,43.8333 51.5,44C 49.0185,45.8038 49.0185,47.3038 51.5,48.5 Z"/></g>
<g><path style="opacity:1" fill="#f27122" d="M 55.5,47.5 C 56.5434,50.0562 58.2101,52.2228 60.5,54C 65.0639,57.1102 69.7306,59.9435 74.5,62.5C 72.847,62.6596 71.5137,63.3263 70.5,64.5C 64.5983,66.2455 58.9317,68.5788 53.5,71.5C 49.5,73.5 45.5,75.5 41.5,77.5C 33.039,73.4092 31.3724,67.4092 36.5,59.5C 41.3604,55.5771 46.3604,51.9104 51.5,48.5C 52.8333,48.1667 54.1667,47.8333 55.5,47.5 Z"/></g>
<g><path style="opacity:1" fill="#5188c7" d="M 98.5,50.5 C 98.8333,50.5 99.1667,50.5 99.5,50.5C 99.4142,51.4959 99.7476,52.3292 100.5,53C 104.929,55.015 106.929,58.515 106.5,63.5C 104.663,72.5297 99.6625,74.863 91.5,70.5C 88.5763,66.6262 86.243,62.6262 84.5,58.5C 89.4602,56.353 94.1269,53.6864 98.5,50.5 Z"/></g>
<g><path style="opacity:1" fill="#0955a3" d="M 70.5,64.5 C 73.4757,71.1279 77.3091,77.4613 82,83.5C 85.323,85.8242 88.323,88.4908 91,91.5C 92.9513,91.4023 94.7846,91.4023 96.5,91.5C 92.3385,93.322 88.3385,95.322 84.5,97.5C 82.0347,97.767 79.7014,98.4336 77.5,99.5C 75.5187,97.6969 73.352,96.0303 71,94.5C 64.5669,87.241 58.7336,79.5743 53.5,71.5C 58.9317,68.5788 64.5983,66.2455 70.5,64.5 Z"/></g>
<g><path style="opacity:1" fill="#0a63b0" d="M 77.5,61.5 C 80.1042,74.9459 88.2708,82.9459 102,85.5C 104.146,84.119 105.313,84.7856 105.5,87.5C 102.622,89.1054 99.6223,90.4388 96.5,91.5C 94.7846,91.4023 92.9513,91.4023 91,91.5C 88.323,88.4908 85.323,85.8242 82,83.5C 77.3091,77.4613 73.4757,71.1279 70.5,64.5C 71.5137,63.3263 72.847,62.6596 74.5,62.5C 75.391,61.8902 76.391,61.5569 77.5,61.5 Z"/></g>
<g><path style="opacity:1" fill="#0c326f" d="M 53.5,71.5 C 58.7336,79.5743 64.5669,87.241 71,94.5C 73.352,96.0303 75.5187,97.6969 77.5,99.5C 71.7126,101.894 66.0459,104.56 60.5,107.5C 59.7611,107.631 59.0944,107.464 58.5,107C 54.9808,103.141 51.8141,98.9747 49,94.5C 47.5804,92.578 45.7471,91.2446 43.5,90.5C 42.8909,86.3653 42.2243,82.3653 41.5,78.5C 41.5,78.1667 41.5,77.8333 41.5,77.5C 45.5,75.5 49.5,73.5 53.5,71.5 Z"/></g>
<g><path style="opacity:1" fill="#f16c23" d="M 117.5,81.5 C 125.668,85.8067 127.335,91.8067 122.5,99.5C 118.088,103.254 113.422,106.587 108.5,109.5C 106.95,110.441 105.284,111.107 103.5,111.5C 98.4538,105.138 92.1205,100.471 84.5,97.5C 88.3385,95.322 92.3385,93.322 96.5,91.5C 99.6223,90.4388 102.622,89.1054 105.5,87.5C 109.728,85.9339 113.728,83.9339 117.5,81.5 Z"/></g>
<g><path style="opacity:1" fill="#0e65af" d="M 36.5,82.5 C 36.7438,87.0672 37.9104,91.4006 40,95.5C 45.7139,100.049 50.8806,105.049 55.5,110.5C 54.8333,111.5 54.1667,112.5 53.5,113.5C 51.2863,112.126 48.953,110.959 46.5,110C 44.5321,106.194 41.5321,103.694 37.5,102.5C 35.3455,97.8711 33.6789,93.0378 32.5,88C 32.9943,85.4945 34.3277,83.6612 36.5,82.5 Z"/></g>
<g><path style="opacity:1" fill="#084891" d="M 41.5,78.5 C 42.2243,82.3653 42.8909,86.3653 43.5,90.5C 45.7471,91.2446 47.5804,92.578 49,94.5C 51.8141,98.9747 54.9808,103.141 58.5,107C 59.0944,107.464 59.7611,107.631 60.5,107.5C 59.8333,108.167 59.1667,108.833 58.5,109.5C 57.609,110.11 56.609,110.443 55.5,110.5C 50.8806,105.049 45.7139,100.049 40,95.5C 37.9104,91.4006 36.7438,87.0672 36.5,82.5C 37.5794,80.457 39.246,79.1237 41.5,78.5 Z"/></g>
<g><path style="opacity:1" fill="#eceae9" d="M 84.5,97.5 C 92.1205,100.471 98.4538,105.138 103.5,111.5C 95.9985,115.751 88.3318,119.751 80.5,123.5C 79.0726,120.236 76.7392,117.736 73.5,116C 68.7009,113.265 63.7009,111.098 58.5,109.5C 59.1667,108.833 59.8333,108.167 60.5,107.5C 66.0459,104.56 71.7126,101.894 77.5,99.5C 79.7014,98.4336 82.0347,97.767 84.5,97.5 Z"/></g>
<g><path style="opacity:1" fill="#5d8ec6" d="M 37.5,102.5 C 41.5321,103.694 44.5321,106.194 46.5,110C 48.953,110.959 51.2863,112.126 53.5,113.5C 52.6993,115.042 52.366,116.708 52.5,118.5C 46.1178,114.452 41.1178,109.118 37.5,102.5 Z"/></g>
<g><path style="opacity:1" fill="#547bad" d="M 122.5,99.5 C 113.858,116.923 99.6913,126.256 80,127.5C 78.9302,127.472 78.0968,127.139 77.5,126.5C 77.8333,125.5 78.5,124.833 79.5,124.5C 81.9664,125.634 84.633,125.801 87.5,125C 92.7619,122.47 98.0952,120.136 103.5,118C 106.206,115.629 108.539,112.963 110.5,110C 109.906,109.536 109.239,109.369 108.5,109.5C 113.422,106.587 118.088,103.254 122.5,99.5 Z"/></g>
<g><path style="opacity:1" fill="#f48222" d="M 58.5,109.5 C 63.7009,111.098 68.7009,113.265 73.5,116C 76.7392,117.736 79.0726,120.236 80.5,123.5C 80.5,124.167 80.1667,124.5 79.5,124.5C 78.5,124.833 77.8333,125.5 77.5,126.5C 68.0972,126.955 59.7639,124.288 52.5,118.5C 52.366,116.708 52.6993,115.042 53.5,113.5C 54.1667,112.5 54.8333,111.5 55.5,110.5C 56.609,110.443 57.609,110.11 58.5,109.5 Z"/></g>
<g><path style="opacity:1" fill="#1a5492" d="M 108.5,109.5 C 109.239,109.369 109.906,109.536 110.5,110C 108.539,112.963 106.206,115.629 103.5,118C 98.0952,120.136 92.7619,122.47 87.5,125C 84.633,125.801 81.9664,125.634 79.5,124.5C 80.1667,124.5 80.5,124.167 80.5,123.5C 88.3318,119.751 95.9985,115.751 103.5,111.5C 105.284,111.107 106.95,110.441 108.5,109.5 Z"/></g>
</svg>
