<?xml version="1.0" encoding="UTF-8"?>
<!DOCTYPE svg PUBLIC "-//W3C//DTD SVG 1.1//EN" "http://www.w3.org/Graphics/SVG/1.1/DTD/svg11.dtd">
<svg xmlns="http://www.w3.org/2000/svg" version="1.1" width="160px" height="160px" style="shape-rendering:geometricPrecision; text-rendering:geometricPrecision; image-rendering:optimizeQuality; fill-rule:evenodd; clip-rule:evenodd" xmlns:xlink="http://www.w3.org/1999/xlink">
<g><path style="opacity:1" fill="#000000" d="M -0.5,-0.5 C 52.8333,-0.5 106.167,-0.5 159.5,-0.5C 159.5,52.8333 159.5,106.167 159.5,159.5C 106.167,159.5 52.8333,159.5 -0.5,159.5C -0.5,106.167 -0.5,52.8333 -0.5,-0.5 Z"/></g>
<g><path style="opacity:1" fill="#d3d3d3" d="M 130.5,54.5 C 130.5,66.1667 130.5,77.8333 130.5,89.5C 131.5,89.5 132.5,89.5 133.5,89.5C 133.5,77.8333 133.5,66.1667 133.5,54.5C 134.495,66.3217 134.828,78.3217 134.5,90.5C 133.486,91.6737 132.153,92.3404 130.5,92.5C 129.179,79.7354 129.179,67.0687 130.5,54.5 Z"/></g>
<g><path style="opacity:1" fill="#fefefe" d="M 130.5,54.5 C 131.5,54.5 132.5,54.5 133.5,54.5C 133.5,66.1667 133.5,77.8333 133.5,89.5C 132.5,89.5 131.5,89.5 130.5,89.5C 130.5,77.8333 130.5,66.1667 130.5,54.5 Z"/></g>
<g><path style="opacity:1" fill="#ececec" d="M 51.5,76.5 C 51.5,78.8333 51.5,81.1667 51.5,83.5C 45.8333,83.5 40.1667,83.5 34.5,83.5C 34.5,82.1667 34.5,80.8333 34.5,79.5C 38.8839,79.8256 43.2172,79.4922 47.5,78.5C 47.3764,77.8933 47.0431,77.56 46.5,77.5C 42.0157,70.4002 36.0157,68.9002 28.5,73C 23.7948,78.0779 23.2948,83.5779 27,89.5C 30.181,92.6723 34.0143,94.0056 38.5,93.5C 39.5,93.5 40.5,93.5 41.5,93.5C 41.5,94.8333 41.5,96.1667 41.5,97.5C 24.3986,99.2248 17.5653,91.5581 21,74.5C 27.7282,64.8573 36.2282,63.024 46.5,69C 48.8077,71.1277 50.4744,73.6277 51.5,76.5 Z"/></g>
<g><path style="opacity:1" fill="#eeeeee" d="M 57.5,65.5 C 59.1667,65.5 60.8333,65.5 62.5,65.5C 62.3433,66.8734 62.51,68.2068 63,69.5C 68.7909,64.8204 74.9576,64.3204 81.5,68C 84.3033,70.2217 84.1366,72.0551 81,73.5C 69.3,67.7684 63.1333,71.4351 62.5,84.5C 60.8333,84.5 59.1667,84.5 57.5,84.5C 57.5,78.1667 57.5,71.8333 57.5,65.5 Z"/></g>
<g><path style="opacity:1" fill="#e9e9e9" d="M 106.5,79.5 C 110.884,79.8256 115.217,79.4922 119.5,78.5C 119.376,77.8933 119.043,77.56 118.5,77.5C 116.41,72.9415 112.743,70.6081 107.5,70.5C 99.3932,71.7142 95.8932,76.3808 97,84.5C 99.2819,91.3998 104.115,94.3998 111.5,93.5C 112.5,93.5 113.5,93.5 114.5,93.5C 114.5,94.8333 114.5,96.1667 114.5,97.5C 101.119,100.313 93.452,94.98 91.5,81.5C 92.0169,73.6315 96.0169,68.4648 103.5,66C 117.233,64.5683 124.233,70.7349 124.5,84.5C 118.5,84.5 112.5,84.5 106.5,84.5C 106.5,82.8333 106.5,81.1667 106.5,79.5 Z"/></g>
<g><path style="opacity:1" fill="#616161" d="M 46.5,77.5 C 47.0431,77.56 47.3764,77.8933 47.5,78.5C 43.2172,79.4922 38.8839,79.8256 34.5,79.5C 38.5,78.8333 42.5,78.1667 46.5,77.5 Z"/></g>
<g><path style="opacity:1" fill="#5e5e5e" d="M 118.5,77.5 C 119.043,77.56 119.376,77.8933 119.5,78.5C 115.217,79.4922 110.884,79.8256 106.5,79.5C 110.5,78.8333 114.5,78.1667 118.5,77.5 Z"/></g>
<g><path style="opacity:1" fill="#797979" d="M 86.5,97.5 C 86.5,91.8333 86.5,86.1667 86.5,80.5C 85.1667,80.5 83.8333,80.5 82.5,80.5C 82.5,86.1667 82.5,91.8333 82.5,97.5C 81.5104,91.69 81.1771,85.69 81.5,79.5C 83.5,79.5 85.5,79.5 87.5,79.5C 87.8229,85.69 87.4896,91.69 86.5,97.5 Z"/></g>
<g><path style="opacity:1" fill="#fefffe" d="M 86.5,97.5 C 85.1667,97.5 83.8333,97.5 82.5,97.5C 82.5,91.8333 82.5,86.1667 82.5,80.5C 83.8333,80.5 85.1667,80.5 86.5,80.5C 86.5,86.1667 86.5,91.8333 86.5,97.5 Z"/></g>
<g><path style="opacity:1" fill="#9c9c9c" d="M 51.5,76.5 C 52.4731,78.9479 52.8064,81.6146 52.5,84.5C 46.31,84.8229 40.31,84.4896 34.5,83.5C 40.1667,83.5 45.8333,83.5 51.5,83.5C 51.5,81.1667 51.5,78.8333 51.5,76.5 Z"/></g>
<g><path style="opacity:1" fill="#4c4c4c" d="M 134.5,90.5 C 137.124,92.1978 137.124,94.0312 134.5,96C 132.259,96.1242 130.926,94.9575 130.5,92.5C 132.153,92.3404 133.486,91.6737 134.5,90.5 Z"/></g>
<g><path style="opacity:1" fill="#6b6b6b" d="M 114.5,97.5 C 114.5,96.1667 114.5,94.8333 114.5,93.5C 113.5,93.5 112.5,93.5 111.5,93.5C 113.049,91.5946 114.882,91.2613 117,92.5C 117.747,94.9278 116.914,96.5944 114.5,97.5 Z"/></g>
<g><path style="opacity:1" fill="#7d7d7d" d="M 41.5,97.5 C 41.5,96.1667 41.5,94.8333 41.5,93.5C 40.5,93.5 39.5,93.5 38.5,93.5C 40.4601,91.7903 42.6268,91.457 45,92.5C 45.6693,95.3449 44.5027,97.0116 41.5,97.5 Z"/></g>
</svg>
