<?xml version="1.0" encoding="UTF-8"?>
<!DOCTYPE svg PUBLIC "-//W3C//DTD SVG 1.1//EN" "http://www.w3.org/Graphics/SVG/1.1/DTD/svg11.dtd">
<svg xmlns="http://www.w3.org/2000/svg" version="1.1" width="160px" height="160px" style="shape-rendering:geometricPrecision; text-rendering:geometricPrecision; image-rendering:optimizeQuality; fill-rule:evenodd; clip-rule:evenodd" xmlns:xlink="http://www.w3.org/1999/xlink">
<g><path style="opacity:0.999" fill="#b9d1eb" d="M -0.5,-0.5 C 52.8333,-0.5 106.167,-0.5 159.5,-0.5C 159.5,52.8333 159.5,106.167 159.5,159.5C 106.167,159.5 52.8333,159.5 -0.5,159.5C -0.5,106.167 -0.5,52.8333 -0.5,-0.5 Z"/></g>
<g><path style="opacity:1" fill="#57595b" d="M 33.5,96.5 C 41.0191,96.175 48.3524,96.5084 55.5,97.5C 55.4894,99.0174 54.8228,100.184 53.5,101C 70.8333,101.667 88.1667,101.667 105.5,101C 106.883,99.7292 107.883,98.2292 108.5,96.5C 91.8333,95.8333 75.1667,95.1667 58.5,94.5C 61.5,89.8333 64.5,85.1667 67.5,80.5C 55.3446,79.5048 43.0113,79.1714 30.5,79.5C 30.5,77.5 30.5,75.5 30.5,73.5C 33.9555,52.8679 45.6221,39.0346 65.5,32C 83.0794,27.932 98.7461,31.5986 112.5,43C 130.125,61.1626 133.292,81.6626 122,104.5C 104.348,128.789 81.8478,134.622 54.5,122C 44.3623,116.034 37.3623,107.534 33.5,96.5 Z"/></g>
<g><path style="opacity:1" fill="#b7cee8" d="M 113.5,82.5 C 108.58,83.7803 103.413,84.447 98,84.5C 92.9881,84.4993 88.1547,84.1659 83.5,83.5C 88.0294,75.6117 92.696,67.7784 97.5,60C 81.8227,59.8329 66.156,59.3329 50.5,58.5C 62.2132,43.5424 76.8799,39.7091 94.5,47C 108.798,54.4885 115.131,66.3218 113.5,82.5 Z"/></g>
<g><path style="opacity:1" fill="#707780" d="M 30.5,73.5 C 30.5,75.5 30.5,77.5 30.5,79.5C 43.0113,79.1714 55.3446,79.5048 67.5,80.5C 54.8333,80.5 42.1667,80.5 29.5,80.5C 29.1984,77.9407 29.5318,75.6074 30.5,73.5 Z"/></g>
<g><path style="opacity:1" fill="#808a97" d="M 113.5,82.5 C 113.5,83.5 113.5,84.5 113.5,85.5C 103.145,85.8319 92.8119,85.4986 82.5,84.5C 82.6236,83.8933 82.9569,83.56 83.5,83.5C 88.1547,84.1659 92.9881,84.4993 98,84.5C 103.413,84.447 108.58,83.7803 113.5,82.5 Z"/></g>
<g><path style="opacity:1" fill="#777f89" d="M 33.5,96.5 C 40.9818,95.508 48.6484,95.1746 56.5,95.5C 56.5,95.8333 56.5,96.1667 56.5,96.5C 56.5,97.1667 56.1667,97.5 55.5,97.5C 48.3524,96.5084 41.0191,96.175 33.5,96.5 Z"/></g>
<g><path style="opacity:1" fill="#98a8ba" d="M 58.5,94.5 C 75.1667,95.1667 91.8333,95.8333 108.5,96.5C 91.1667,96.5 73.8333,96.5 56.5,96.5C 56.5,96.1667 56.5,95.8333 56.5,95.5C 57.1667,95.1667 57.8333,94.8333 58.5,94.5 Z"/></g>
<g><path style="opacity:1" fill="#b3cae2" d="M 56.5,96.5 C 73.8333,96.5 91.1667,96.5 108.5,96.5C 107.883,98.2292 106.883,99.7292 105.5,101C 88.1667,101.667 70.8333,101.667 53.5,101C 54.8228,100.184 55.4894,99.0174 55.5,97.5C 56.1667,97.5 56.5,97.1667 56.5,96.5 Z"/></g>
</svg>
