<svg xmlns="http://www.w3.org/2000/svg" viewBox="0 0 48 48"><linearGradient id="a" gradientUnits="userSpaceOnUse" x1="0" y1="-20" x2="48" y2="-20" gradientTransform="translate(0 44)"><stop offset="0" stop-color="#ef4623"/><stop offset=".11" stop-color="#f04923"/><stop offset=".89" stop-color="#ef4123"/><stop offset="1" stop-color="#ef4423"/></linearGradient><path fill="url(#a)" d="M0 0h48v48H0z"/><path d="M4.9 25.1a5.71 5.71 0 0 1 1.61-3.19c1.15-1.13 2.8-1.74 4.41-1.55 2.04.24 3.75 1.68 4.39 3.61.32.75.16 1.56.22 2.37h-5.6v-1.61h3.88c-.22-1.13-1.35-2.48-2.96-2.75-1.99-.32-3.39.81-3.98 2.05-.38.81-.48 1.67-.27 2.58.27 1.16 1.25 2.13 2.36 2.54 1.26.46 2.6.18 3.63-.67.21-.17.4-.37.58-.57.38.32.75.59 1.13.92.16.11.11.22 0 .27-.22.22-.43.43-.7.65-1.13.91-2.64 1.4-4.09 1.24-1.55-.21-2.98-.99-3.85-2.3-.72-1.07-.94-2.36-.76-3.59zm31.51 2.8c.43.32.86.65 1.29.97-.22.27-.43.54-.7.75-1.1.88-2.45 1.44-3.87 1.36-1.27-.07-2.6-.66-3.51-1.55-.2-.2-.38-.41-.55-.64-1.62-2.25-1.12-5.56 1.02-7.29 1.84-1.49 4.59-1.59 6.52-.19a5.34 5.34 0 0 1 1.72 2.16c.19.43.33.89.38 1.36.06.48-.03 1.03-.03 1.52h-5.54v-1.61h3.93s-.24-.66-.27-.73c-.12-.24-.27-.47-.44-.68-.34-.41-.77-.73-1.25-.96a3.96 3.96 0 0 0-3.13-.1c-1.67.67-2.56 2.67-2.09 4.38.38 1.36 1.57 2.44 2.96 2.67.66.11 1.36.04 1.98-.2.31-.12.61-.29.87-.5.25-.21.43-.53.71-.72zm-9.8 2.89c-.21.02-1.61.02-1.61.02v-.27c0-.98 0-1.97.01-2.95.01-.94.09-1.92-.02-2.86-.08-.65-.29-1.29-.71-1.79-.54-.64-1.4-.98-2.23-.95-1.35.04-2.54.9-3.14 2.09-.11.22-.16.48-.22.7-.16.54 0 1.08-.11 1.61h-1.61v-5.54h1.61v.97c.38-.38.75-.65 1.18-.86 1.29-.59 2.73-.78 4.08-.25.96.38 1.79 1.12 2.22 2.05.46.98.44 2.08.43 3.14.02.39.14 4.89.12 4.89zm13.63-13.81h1.61v10.34c0 .32.05.65.16.92s.27.48.48.7c.22.22.48.38.7.59.16.11.11.22-.05.43-.16.22-.32.43-.48.7-.05.11-.16.22-.27.32-.32-.27-.7-.48-.97-.75s-.48-.59-.7-.97c-.22-.38-.38-.75-.43-1.18-.05-.22-.05-.48-.05-.7v-10.4z" fill="#fff"/></svg>