<?xml version="1.0" encoding="UTF-8"?>
<!DOCTYPE svg PUBLIC "-//W3C//DTD SVG 1.1//EN" "http://www.w3.org/Graphics/SVG/1.1/DTD/svg11.dtd">
<svg xmlns="http://www.w3.org/2000/svg" version="1.1" width="160px" height="160px" style="shape-rendering:geometricPrecision; text-rendering:geometricPrecision; image-rendering:optimizeQuality; fill-rule:evenodd; clip-rule:evenodd" xmlns:xlink="http://www.w3.org/1999/xlink">
<g><path style="opacity:1" fill="#f1f1f4" d="M -0.5,-0.5 C 52.8333,-0.5 106.167,-0.5 159.5,-0.5C 159.5,52.8333 159.5,106.167 159.5,159.5C 106.167,159.5 52.8333,159.5 -0.5,159.5C -0.5,106.167 -0.5,52.8333 -0.5,-0.5 Z"/></g>
<g><path style="opacity:1" fill="#544388" d="M 67.5,49.5 C 73.1667,49.5 78.8333,49.5 84.5,49.5C 88.5282,53.8593 92.5282,58.1927 96.5,62.5C 91.5,62.5 86.5,62.5 81.5,62.5C 77.6877,61.6762 73.6877,61.1762 69.5,61C 66.3172,57.9845 63.3172,54.8178 60.5,51.5C 62.9688,50.8319 65.3021,50.1653 67.5,49.5 Z"/></g>
<g><path style="opacity:1" fill="#67458a" d="M 84.5,49.5 C 91.1667,49.5 97.8333,49.5 104.5,49.5C 103.391,50.29 102.058,50.79 100.5,51C 104.457,55.4686 108.79,59.302 113.5,62.5C 107.833,62.5 102.167,62.5 96.5,62.5C 92.5282,58.1927 88.5282,53.8593 84.5,49.5 Z"/></g>
<g><path style="opacity:1" fill="#7c4a8a" d="M 104.5,49.5 C 111.167,49.5 117.833,49.5 124.5,49.5C 123.028,53.9166 121.362,58.2499 119.5,62.5C 117.5,62.5 115.5,62.5 113.5,62.5C 108.79,59.302 104.457,55.4686 100.5,51C 102.058,50.79 103.391,50.29 104.5,49.5 Z"/></g>
<g><path style="opacity:1" fill="#383d87" d="M 67.5,49.5 C 65.3021,50.1653 62.9688,50.8319 60.5,51.5C 63.3172,54.8178 66.3172,57.9845 69.5,61C 73.6877,61.1762 77.6877,61.6762 81.5,62.5C 66.8333,62.5 52.1667,62.5 37.5,62.5C 37.5,58.1667 37.5,53.8333 37.5,49.5C 47.5,49.5 57.5,49.5 67.5,49.5 Z"/></g>
<g><path style="opacity:1" fill="#8983aa" d="M 124.5,49.5 C 117.833,49.5 111.167,49.5 104.5,49.5C 97.8333,49.5 91.1667,49.5 84.5,49.5C 78.8333,49.5 73.1667,49.5 67.5,49.5C 57.5,49.5 47.5,49.5 37.5,49.5C 37.5,53.8333 37.5,58.1667 37.5,62.5C 52.1667,62.5 66.8333,62.5 81.5,62.5C 86.5,62.5 91.5,62.5 96.5,62.5C 102.167,62.5 107.833,62.5 113.5,62.5C 115.5,62.5 117.5,62.5 119.5,62.5C 92.005,63.4979 64.3384,63.8313 36.5,63.5C 36.5,58.5 36.5,53.5 36.5,48.5C 66.0047,48.1686 95.3381,48.5019 124.5,49.5 Z"/></g>
<g><path style="opacity:1" fill="#4d4289" d="M 85.5,78.5 C 94.8393,78.3335 104.173,78.5002 113.5,79C 111.538,83.0541 109.871,87.2208 108.5,91.5C 105.022,91.8158 101.688,91.3158 98.5,90C 94.5434,85.5314 90.2101,81.698 85.5,78.5 Z"/></g>
<g><path style="opacity:1" fill="#394088" d="M 85.5,78.5 C 90.2101,81.698 94.5434,85.5314 98.5,90C 101.688,91.3158 105.022,91.8158 108.5,91.5C 92.6754,92.4964 76.6754,92.8297 60.5,92.5C 60.5,87.8333 60.5,83.1667 60.5,78.5C 68.8333,78.5 77.1667,78.5 85.5,78.5 Z"/></g>
<g><path style="opacity:1" fill="#6e7baa" d="M 101.5,109.5 C 80.3399,108.503 59.0065,108.169 37.5,108.5C 37.5,112.833 37.5,117.167 37.5,121.5C 57.1667,121.5 76.8333,121.5 96.5,121.5C 76.6736,122.497 56.6736,122.83 36.5,122.5C 36.5,117.5 36.5,112.5 36.5,107.5C 58.5101,107.167 80.5101,107.5 102.5,108.5C 102.376,109.107 102.043,109.44 101.5,109.5 Z"/></g>
<g><path style="opacity:1" fill="#233a85" d="M 101.5,109.5 C 99.8152,113.571 98.1485,117.571 96.5,121.5C 76.8333,121.5 57.1667,121.5 37.5,121.5C 37.5,117.167 37.5,112.833 37.5,108.5C 59.0065,108.169 80.3399,108.503 101.5,109.5 Z"/></g>
</svg>
