<svg id="Слой_1" data-name="Слой 1" xmlns="http://www.w3.org/2000/svg" viewBox="0 0 48 48"><defs><style>.cls-2{fill:#fff;fill-rule:evenodd}</style></defs><g id="GAZA"><path fill="#004288" d="M0 0h48v48H0z"/><path class="cls-2" d="M32.45 27.67H15.58c-1-4.07-1.57-5.78-3.84-9.25L14.25 15h19.53l2.51 3.4c-2.41 3.69-2.74 5.13-3.84 9.25zM23.32 16.8s-.07.12-.09.14a1.15 1.15 0 0 0-.82 0 8.4 8.4 0 0 1-1.18.22l-.07.07a.74.74 0 0 0-.12.42 5.51 5.51 0 0 1 .71.1c.09.06.3.16.36.33a.94.94 0 0 1-.23.32 10.82 10.82 0 0 0-1.67 1.54 3.43 3.43 0 0 0-.53 1 1.18 1.18 0 0 0 .07.74 14.84 14.84 0 0 1-1.67.19h-.12a3.25 3.25 0 0 0 0 .65c.49.37 1.12.65 1.54.94A20.47 20.47 0 0 1 17 26.2a6.91 6.91 0 0 0-1 .8.32.32 0 0 0-.12.25 3.68 3.68 0 0 0 .56 0 .81.81 0 0 0 .62-.5c.17-.12.3-.35.5-.39.37-.19.5-.62.75-.91a5.72 5.72 0 0 1 .71-.74c.4-.25.58-.72 1-1l.65.45c.33.13.69 0 1.05 0l.16-.1a.68.68 0 0 0-.36-.46c-.22-.16-.36.12-.58.09s-.43 0-.56-.23a6.83 6.83 0 0 1 1-.63l.56.12a12 12 0 0 1 3.5-.25 1.24 1.24 0 0 1 .62.59c.42.65-.46.92-.69 1.4-.71.76-1.8 1.31-2.19 2.34a.77.77 0 0 0 0 .4 2.11 2.11 0 0 0 .66-.22c.27-.1.14-.26.16-.42a1 1 0 0 1 .3-.63c.25.1.35-.17.43-.32a7 7 0 0 1 2.09-1.62c.17-.14.26-.16.29-.3s-.23-.52-.17-.89a7.79 7.79 0 0 1 1.85.72 3.5 3.5 0 0 1 1.15 1.31c.53.81 1 1.93 1.77 2.31a.52.52 0 0 0 .49.06 5.26 5.26 0 0 1-.23-.85.37.37 0 0 1-.27 0c-.25 0-.4-.29-.45-.46a1.22 1.22 0 0 1 0-.37 2.05 2.05 0 0 1-.88-.76 3.16 3.16 0 0 1-.52-1.64c-.88-.16-1.46-1.53-1.53-1.89a1.76 1.76 0 0 1 .09-.81 2.37 2.37 0 0 0-1.25-.63 19.5 19.5 0 0 0-3.4.12c-.25 0-.58.09-.76-.12a.57.57 0 0 1-.09-.52 6.1 6.1 0 0 1 .53-.72c.16-.22.4-.69.59-1a1.23 1.23 0 0 0 .62.07c.22 0 .49-.13.46-.29s-.61-.27-.92-.19a.33.33 0 0 1-.35-.29c0-.09.1-.13.16-.16a6.73 6.73 0 0 0 2.45.09 3.08 3.08 0 0 0 2.18-1.21 7.63 7.63 0 0 0-.81-.1 2.1 2.1 0 0 1-1.53 1c-.29 0-.42-.14-.58-.29a2.33 2.33 0 0 1-1.75.27A6.11 6.11 0 0 1 22 15.6a4 4 0 0 0-.12.63 7.82 7.82 0 0 0 1.41.56z"/><path class="cls-2" d="M20 22.62c.12.19-.19.3-.25.45a2.53 2.53 0 0 1-1-.66 2.73 2.73 0 0 1 1.2.22z"/><path class="cls-2" d="M35.5 11.65h-2V7.54l-1.75.81L30 7.54v1h-.37v-1l-1.75.81-1.75-.81v1h-.4v-1L24 8.36l-1.73-.81v1h-.37v-1l-1.75.81-1.73-.81v1H18v-1l-1.75.81-1.75-.81v4.11h-2l-5 6.79c4 5 5.09 9.87 5.47 16.44l11 5.58 11-5.58c.39-8.35 2.47-12.68 5.47-16.44l-5-6.79zm-3.74-2L33 9v4.3h-2.5V9l1.25.59zm-3.87 0L29.16 9v4.3h-2.52V9l1.25.58zM24 9.63l1.27-.58v4.3h-2.52v-4.3l1.25.58zm-3.85 0L21.42 9v4.3h-2.53V9l1.25.59zm14.26 24.89L24 39.77l-10.4-5.25c-.36-6.52-1.34-11.06-5.28-16.11l4.51-6.14h1.67v1.56H18v-4h.42v4.05h3.48V9.77h.37v4.07h3.48V9.77h.4v4.05h3.49V9.77H30v4.05h3.5v-1.55h1.67l4.53 6.16c-3 3.76-4.89 7.85-5.29 16.1zM16.25 9.63 17.52 9v4.3H15V9l1.27.59z"/><path class="cls-2" d="M15.66 28.29a45.22 45.22 0 0 1 .56 4.53L24 36.74l7.79-3.94a43.81 43.81 0 0 1 .55-4.51zm14.8 4.1h-6.19l-.11-.39H23l-.1.35h-.76l.58-2.34h-2.15v2.34H18v-3.3h7.72l.92 2.55H28v-.81h-.4l.27-.78h-1.39v-1h3.88v.19L30 30.43h.49v2z"/><path class="cls-2" d="m23.93 31.28-.42-1.27-.32 1.27h.74z"/></g></svg>