<?xml version="1.0" encoding="UTF-8"?>
<!DOCTYPE svg PUBLIC "-//W3C//DTD SVG 1.1//EN" "http://www.w3.org/Graphics/SVG/1.1/DTD/svg11.dtd">
<svg xmlns="http://www.w3.org/2000/svg" version="1.1" width="160px" height="160px" style="shape-rendering:geometricPrecision; text-rendering:geometricPrecision; image-rendering:optimizeQuality; fill-rule:evenodd; clip-rule:evenodd" xmlns:xlink="http://www.w3.org/1999/xlink">
<g><path style="opacity:1" fill="#de042f" d="M -0.5,-0.5 C 52.8333,-0.5 106.167,-0.5 159.5,-0.5C 159.5,52.8333 159.5,106.167 159.5,159.5C 106.167,159.5 52.8333,159.5 -0.5,159.5C -0.5,106.167 -0.5,52.8333 -0.5,-0.5 Z"/></g>
<g><path style="opacity:1" fill="#fdf8f8" d="M 87.5,42.5 C 95.988,41.1622 103.488,43.1622 110,48.5C 111.58,53.5962 109.746,56.7629 104.5,58C 95.4846,61.7864 86.8179,61.1197 78.5,56C 76.1145,53.2935 75.9478,50.4602 78,47.5C 81.1806,45.6618 84.3473,43.9952 87.5,42.5 Z"/></g>
<g><path style="opacity:1" fill="#fdfafb" d="M 47.5,47.5 C 60.9807,46.7243 68.9807,52.891 71.5,66C 70.6679,73.4774 70.3346,80.9774 70.5,88.5C 71.8734,88.6567 73.2068,88.49 74.5,88C 79.6712,80.4894 86.3379,74.8227 94.5,71C 109.545,66.3665 120.712,70.8665 128,84.5C 131.545,101.246 125.045,111.746 108.5,116C 95.1627,119.018 87.1627,114.018 84.5,101C 85.6362,92.193 90.6362,86.8596 99.5,85C 102.482,84.502 105.482,84.3354 108.5,84.5C 106.961,76.8848 102.294,74.0515 94.5,76C 89.4123,79.0834 84.9123,82.9167 81,87.5C 75.4653,97.0841 68.6319,105.584 60.5,113C 51.2767,118.607 43.1101,117.44 36,109.5C 33.4162,105.167 31.7495,100.5 31,95.5C 29.589,85.8696 29.2557,76.203 30,66.5C 32.2415,56.762 38.0748,50.4286 47.5,47.5 Z"/></g>
</svg>
