<?xml version="1.0" encoding="UTF-8"?>
<!DOCTYPE svg PUBLIC "-//W3C//DTD SVG 1.1//EN" "http://www.w3.org/Graphics/SVG/1.1/DTD/svg11.dtd">
<svg xmlns="http://www.w3.org/2000/svg" version="1.1" width="160px" height="160px" style="shape-rendering:geometricPrecision; text-rendering:geometricPrecision; image-rendering:optimizeQuality; fill-rule:evenodd; clip-rule:evenodd" xmlns:xlink="http://www.w3.org/1999/xlink">
<g><path style="opacity:1" fill="#f1f3f5" d="M -0.5,-0.5 C 52.8333,-0.5 106.167,-0.5 159.5,-0.5C 159.5,52.8333 159.5,106.167 159.5,159.5C 106.167,159.5 52.8333,159.5 -0.5,159.5C -0.5,106.167 -0.5,52.8333 -0.5,-0.5 Z"/></g>
<g><path style="opacity:1" fill="#60c0b9" d="M 116.5,64.5 C 117.376,64.3691 118.043,64.7025 118.5,65.5C 115.709,69.5888 115.042,69.2554 116.5,64.5 Z"/></g>
<g><path style="opacity:1" fill="#67c2bc" d="M 51.5,71.5 C 50.7784,71.0825 50.2784,70.4158 50,69.5C 48.951,71.1066 47.451,71.7733 45.5,71.5C 45.719,70.325 45.3857,69.325 44.5,68.5C 43.2888,69.2739 43.2888,70.1072 44.5,71C 43.9056,71.4643 43.2389,71.631 42.5,71.5C 39.2757,73.2504 37.4424,72.2504 37,68.5C 36.0201,70.0589 35.1867,71.7256 34.5,73.5C 34.1667,73.1667 33.8333,72.8333 33.5,72.5C 33.946,69.7235 34.946,67.2235 36.5,65C 38.5129,64.6911 38.8463,65.3577 37.5,67C 38.8491,67.7724 39.6824,68.9391 40,70.5C 42.6667,65.1667 45.3333,65.1667 48,70.5C 48.4828,69.552 48.6495,68.552 48.5,67.5C 51.8984,67.1796 55.2317,67.513 58.5,68.5C 57.7542,69.7362 57.4208,71.0695 57.5,72.5C 54.6118,72.7804 53.1118,71.4471 53,68.5C 51.9614,69.2438 51.4614,70.2438 51.5,71.5 Z"/></g>
<g><path style="opacity:1" fill="#1051a4" d="M 105.5,65.5 C 107.167,65.5 108.833,65.5 110.5,65.5C 111.167,69.5 109.5,71.1667 105.5,70.5C 105.5,68.8333 105.5,67.1667 105.5,65.5 Z"/></g>
<g><path style="opacity:1" fill="#6dc5be" d="M 60.5,65.5 C 61.7498,65.5774 62.5831,66.244 63,67.5C 63.7175,66.5494 64.5509,66.3828 65.5,67C 67.2095,71.4813 68.0428,71.648 68,67.5C 69,66.1667 70,66.1667 71,67.5C 71.3076,66.6919 71.8076,66.0253 72.5,65.5C 72.9106,66.2624 73.0773,67.2624 73,68.5C 74.5122,67.7433 75.8455,66.7433 77,65.5C 77.3333,66.5 77.6667,67.5 78,68.5C 79.1827,67.269 80.3493,67.269 81.5,68.5C 80.938,72.4126 79.438,73.0793 77,70.5C 75.3333,71.8333 73.6667,71.8333 72,70.5C 69.0049,73.1981 66.3382,72.8648 64,69.5C 62.951,71.1066 61.451,71.7733 59.5,71.5C 59.8333,69.5 60.1667,67.5 60.5,65.5 Z"/></g>
<g><path style="opacity:1" fill="#1252a5" d="M 87.5,69.5 C 88.5,69.5 89.5,69.5 90.5,69.5C 90.5,71.1667 90.5,72.8333 90.5,74.5C 92.1667,74.5 93.8333,74.5 95.5,74.5C 95.5,75.5 95.5,76.5 95.5,77.5C 93.2075,77.2436 91.0408,77.5769 89,78.5C 88.2811,82.1454 87.7811,85.8121 87.5,89.5C 89.5,89.5 91.5,89.5 93.5,89.5C 93.5,90.8333 93.5,92.1667 93.5,93.5C 90.4281,93.8174 87.4281,93.4841 84.5,92.5C 84.1373,91.8165 83.8039,91.1499 83.5,90.5C 83.5237,85.0767 84.1903,79.7434 85.5,74.5C 86.1667,72.8333 86.8333,71.1667 87.5,69.5 Z"/></g>
<g><path style="opacity:1" fill="#b6dfdd" d="M 51.5,71.5 C 48.5,72.8333 45.5,72.8333 42.5,71.5C 43.2389,71.631 43.9056,71.4643 44.5,71C 43.2888,70.1072 43.2888,69.2739 44.5,68.5C 45.3857,69.325 45.719,70.325 45.5,71.5C 47.451,71.7733 48.951,71.1066 50,69.5C 50.2784,70.4158 50.7784,71.0825 51.5,71.5 Z"/></g>
<g><path style="opacity:1" fill="#81a4ce" d="M 87.5,69.5 C 88.5676,68.5655 89.901,68.2322 91.5,68.5C 91.5,70.1667 91.5,71.8333 91.5,73.5C 93.1667,73.5 94.8333,73.5 96.5,73.5C 96.7678,75.099 96.4345,76.4324 95.5,77.5C 95.5,76.5 95.5,75.5 95.5,74.5C 93.8333,74.5 92.1667,74.5 90.5,74.5C 90.5,72.8333 90.5,71.1667 90.5,69.5C 89.5,69.5 88.5,69.5 87.5,69.5 Z"/></g>
<g><path style="opacity:1" fill="#3065af" d="M 104.5,74.5 C 104.5,75.1667 104.167,75.5 103.5,75.5C 101.063,75.114 99.0634,73.9473 97.5,72C 100.242,71.7048 102.575,72.5381 104.5,74.5 Z"/></g>
<g><path style="opacity:1" fill="#ccd9e9" d="M 85.5,74.5 C 84.1903,79.7434 83.5237,85.0767 83.5,90.5C 82.8333,88.1667 82.1667,85.8333 81.5,83.5C 82.2653,80.9039 82.5987,78.2372 82.5,75.5C 83.209,74.596 84.209,74.2627 85.5,74.5 Z"/></g>
<g><path style="opacity:1" fill="#a0bbda" d="M 145.5,73.5 C 149.161,73.3501 150.161,74.8501 148.5,78C 144.707,78.4866 143.707,76.9866 145.5,73.5 Z"/></g>
<g><path style="opacity:1" fill="#1c57a7" d="M 19.5,67.5 C 23.7222,67.0781 27.7222,67.7448 31.5,69.5C 31.1345,70.9019 30.3012,71.9019 29,72.5C 22.8049,70.0893 18.1382,71.756 15,77.5C 14.3333,80.8333 14.3333,84.1667 15,87.5C 17.4815,89.3137 20.3148,89.9804 23.5,89.5C 23.7038,86.4824 24.0371,83.4824 24.5,80.5C 26.1667,80.5 27.8333,80.5 29.5,80.5C 28.8155,84.5713 27.8155,88.5713 26.5,92.5C 12.9304,96.4315 7.43039,91.4315 10,77.5C 12.0223,72.98 15.189,69.6467 19.5,67.5 Z"/></g>
<g><path style="opacity:1" fill="#3565af" d="M 44.5,74.5 C 39.3861,74.3495 38.7194,75.3495 42.5,77.5C 39.2084,77.1196 36.8751,78.4529 35.5,81.5C 36.325,82.3857 37.325,82.719 38.5,82.5C 37.4324,83.4345 36.099,83.7678 34.5,83.5C 34.8432,81.5168 34.1765,80.1834 32.5,79.5C 34.9746,74.0009 38.9746,72.3342 44.5,74.5 Z"/></g>
<g><path style="opacity:1" fill="#47b2aa" d="M 106.5,77.5 C 105.833,77.5 105.5,77.8333 105.5,78.5C 102.013,79.4446 100.68,81.7779 101.5,85.5C 101.262,87.4044 100.262,88.7377 98.5,89.5C 97.3775,87.7116 97.2109,85.7116 98,83.5C 100.09,80.9783 101.924,78.3116 103.5,75.5C 104.167,75.5 104.5,75.1667 104.5,74.5C 107.508,73.5798 110.341,72.2465 113,70.5C 113.667,71.1667 113.667,71.8333 113,72.5C 110.713,74.0544 108.546,75.7211 106.5,77.5 Z"/></g>
<g><path style="opacity:1" fill="#1d57a7" d="M 64.5,83.5 C 63.0762,85.5145 62.4095,87.8478 62.5,90.5C 62.6716,91.4916 62.3382,92.1583 61.5,92.5C 60.5,92.5 59.5,92.5 58.5,92.5C 58.5,91.1667 58.5,89.8333 58.5,88.5C 59.3452,85.1736 59.8452,81.8403 60,78.5C 58.2739,77.4238 56.4406,77.2571 54.5,78C 53.5553,82.1597 52.5553,86.3264 51.5,90.5C 50.5326,91.8062 49.1993,92.4729 47.5,92.5C 47.5,91.5 47.5,90.5 47.5,89.5C 48.6279,84.5272 49.6279,79.5272 50.5,74.5C 55.4494,72.6114 59.9494,73.2781 64,76.5C 64.4966,78.8098 64.6633,81.1432 64.5,83.5 Z"/></g>
<g><path style="opacity:1" fill="#e0e7ef" d="M 42.5,77.5 C 43.6078,80.6982 42.2745,82.3649 38.5,82.5C 37.325,82.719 36.325,82.3857 35.5,81.5C 36.8751,78.4529 39.2084,77.1196 42.5,77.5 Z"/></g>
<g><path style="opacity:1" fill="#e8eef2" d="M 105.5,78.5 C 105.5,79.1667 105.5,79.8333 105.5,80.5C 104.876,82.754 103.543,84.4206 101.5,85.5C 100.68,81.7779 102.013,79.4446 105.5,78.5 Z"/></g>
<g><path style="opacity:1" fill="#1955a7" d="M 130.5,73.5 C 139.886,73.0706 143.053,77.404 140,86.5C 136.611,93.3734 131.611,95.04 125,91.5C 121.709,83.8182 123.542,77.8182 130.5,73.5 Z"/></g>
<g><path style="opacity:1" fill="#e5ebf1" d="M 131.5,77.5 C 134.93,76.7553 136.597,78.0886 136.5,81.5C 136.594,85.762 134.76,88.762 131,90.5C 128.472,89.8031 127.306,88.1364 127.5,85.5C 127.782,82.2691 129.115,79.6024 131.5,77.5 Z"/></g>
<g><path style="opacity:1" fill="#6391c4" d="M 106.5,77.5 C 107.756,79.941 107.756,82.2743 106.5,84.5C 106.768,82.901 106.434,81.5676 105.5,80.5C 105.5,79.8333 105.5,79.1667 105.5,78.5C 105.5,77.8333 105.833,77.5 106.5,77.5 Z"/></g>
<g><path style="opacity:1" fill="#235aa9" d="M 116.5,73.5 C 118.857,73.3367 121.19,73.5034 123.5,74C 124.833,75 124.833,76 123.5,77C 115.896,77.2644 112.729,81.0978 114,88.5C 116.381,89.435 118.881,89.7683 121.5,89.5C 121.5,90.8333 121.5,92.1667 121.5,93.5C 111.018,94.8573 107.185,90.524 110,80.5C 111.694,77.6424 113.861,75.309 116.5,73.5 Z"/></g>
<g><path style="opacity:1" fill="#2259a9" d="M 82.5,75.5 C 82.5987,78.2372 82.2653,80.9039 81.5,83.5C 80.8333,83.8333 80.1667,84.1667 79.5,84.5C 76.3447,84.9896 73.3447,85.6562 70.5,86.5C 70.5,87.5 70.5,88.5 70.5,89.5C 73.5,89.5 76.5,89.5 79.5,89.5C 79.67,90.8221 79.3366,91.9887 78.5,93C 66.4938,94.3271 62.9938,89.4937 68,78.5C 72.0384,73.2458 76.8717,72.2458 82.5,75.5 Z"/></g>
<g><path style="opacity:1" fill="#dfe6ef" d="M 73.5,77.5 C 75.1667,77.5 76.8333,77.5 78.5,77.5C 78.2648,81.8035 75.9315,83.4702 71.5,82.5C 71.3915,80.4862 72.0582,78.8195 73.5,77.5 Z"/></g>
<g><path style="opacity:1" fill="#2057a8" d="M 44.5,74.5 C 48.6106,78.189 48.2772,81.689 43.5,85C 31.6459,87.1074 31.6459,88.6074 43.5,89.5C 43.67,90.8221 43.3366,91.9887 42.5,93C 30.8895,94.5606 27.5561,90.0606 32.5,79.5C 34.1765,80.1834 34.8432,81.5168 34.5,83.5C 36.099,83.7678 37.4324,83.4345 38.5,82.5C 42.2745,82.3649 43.6078,80.6982 42.5,77.5C 38.7194,75.3495 39.3861,74.3495 44.5,74.5 Z"/></g>
<g><path style="opacity:1" fill="#acc2dd" d="M 79.5,84.5 C 79.3893,85.1174 79.056,85.6174 78.5,86C 75.854,86.4974 73.1873,86.6641 70.5,86.5C 73.3447,85.6562 76.3447,84.9896 79.5,84.5 Z"/></g>
<g><path style="opacity:1" fill="#1858a7" d="M 105.5,80.5 C 106.434,81.5676 106.768,82.901 106.5,84.5C 105.833,86.5 105.167,88.5 104.5,90.5C 102.5,90.5 101.5,91.5 101.5,93.5C 99.4727,93.6621 97.4727,93.4955 95.5,93C 96.7101,91.9609 97.7101,90.7942 98.5,89.5C 100.262,88.7377 101.262,87.4044 101.5,85.5C 103.543,84.4206 104.876,82.754 105.5,80.5 Z"/></g>
<g><path style="opacity:1" fill="#a7bfdb" d="M 64.5,83.5 C 64.5905,86.1522 63.9238,88.4855 62.5,90.5C 62.4095,87.8478 63.0762,85.5145 64.5,83.5 Z"/></g>
<g><path style="opacity:1" fill="#497dba" d="M 47.5,89.5 C 47.5,90.5 47.5,91.5 47.5,92.5C 49.1993,92.4729 50.5326,91.8062 51.5,90.5C 51.5,91.5 51.5,92.5 51.5,93.5C 49.8333,93.5 48.1667,93.5 46.5,93.5C 46.2322,91.901 46.5655,90.5676 47.5,89.5 Z"/></g>
<g><path style="opacity:1" fill="#5785bf" d="M 58.5,88.5 C 58.5,89.8333 58.5,91.1667 58.5,92.5C 59.5,92.5 60.5,92.5 61.5,92.5C 60.4324,93.4345 59.099,93.7678 57.5,93.5C 57.2155,91.5853 57.5489,89.9187 58.5,88.5 Z"/></g>
<g><path style="opacity:1" fill="#2faaa3" d="M 104.5,90.5 C 105.478,90.811 106.145,91.4777 106.5,92.5C 104.955,93.4519 103.288,93.7852 101.5,93.5C 101.5,91.5 102.5,90.5 104.5,90.5 Z"/></g>
</svg>
