<?xml version="1.0" encoding="UTF-8"?>
<!DOCTYPE svg PUBLIC "-//W3C//DTD SVG 1.1//EN" "http://www.w3.org/Graphics/SVG/1.1/DTD/svg11.dtd">
<svg xmlns="http://www.w3.org/2000/svg" version="1.1" width="160px" height="160px" style="shape-rendering:geometricPrecision; text-rendering:geometricPrecision; image-rendering:optimizeQuality; fill-rule:evenodd; clip-rule:evenodd" xmlns:xlink="http://www.w3.org/1999/xlink">
<g><path style="opacity:0.987" fill="#fefefe" d="M 66.5,-0.5 C 74.8333,-0.5 83.1667,-0.5 91.5,-0.5C 128.049,7.71501 150.715,30.0483 159.5,66.5C 159.5,74.8333 159.5,83.1667 159.5,91.5C 151.285,128.049 128.952,150.715 92.5,159.5C 84.1667,159.5 75.8333,159.5 67.5,159.5C 30.9515,151.285 8.28481,128.952 -0.5,92.5C -0.5,84.1667 -0.5,75.8333 -0.5,67.5C 7.71501,30.9515 30.0483,8.28481 66.5,-0.5 Z"/></g>
<g><path style="opacity:1" fill="#c2ab88" d="M 57.5,99.5 C 56.8333,86.8333 56.1667,74.1667 55.5,61.5C 43.1667,61.5 30.8333,61.5 18.5,61.5C 18.5,74.1667 18.5,86.8333 18.5,99.5C 18.1667,99.5 17.8333,99.5 17.5,99.5C 17.5,86.5 17.5,73.5 17.5,60.5C 30.8333,60.5 44.1667,60.5 57.5,60.5C 57.5,73.5 57.5,86.5 57.5,99.5 Z"/></g>
<g><path style="opacity:1" fill="#c1a885" d="M 72.5,72.5 C 70.8333,72.5 69.1667,72.5 67.5,72.5C 67.5,75.1667 67.5,77.8333 67.5,80.5C 70.5,80.5 73.5,80.5 76.5,80.5C 76.5,81.5 76.5,82.5 76.5,83.5C 72.5,83.5 68.5,83.5 64.5,83.5C 64.5,76.1667 64.5,68.8333 64.5,61.5C 68.5,61.5 72.5,61.5 76.5,61.5C 76.5,62.5 76.5,63.5 76.5,64.5C 73.5,64.5 70.5,64.5 67.5,64.5C 67.5,66.1667 67.5,67.8333 67.5,69.5C 69.1667,69.5 70.8333,69.5 72.5,69.5C 72.5,70.5 72.5,71.5 72.5,72.5 Z"/></g>
<g><path style="opacity:1" fill="#c4ac8b" d="M 109.5,60.5 C 114.355,59.9487 118.355,61.4487 121.5,65C 121.37,66.0588 120.87,66.8921 120,67.5C 109.276,61.2322 104.609,64.2322 106,76.5C 109.958,81.4361 114.291,81.7695 119,77.5C 120.767,80.1571 119.934,81.9904 116.5,83C 105.225,84.0549 100.392,78.8882 102,67.5C 104.015,64.5883 106.515,62.255 109.5,60.5 Z"/></g>
<g><path style="opacity:1" fill="#eee8df" d="M 55.5,61.5 C 55.5,61.8333 55.5,62.1667 55.5,62.5C 43.5,62.5 31.5,62.5 19.5,62.5C 19.5,65.8333 19.5,69.1667 19.5,72.5C 20.8333,72.5 22.1667,72.5 23.5,72.5C 22.375,73.6522 22.375,74.6522 23.5,75.5C 23.44,76.0431 23.1067,76.3764 22.5,76.5C 21.8333,75.5 21.1667,74.5 20.5,73.5C 19.5021,81.8068 19.1688,90.1401 19.5,98.5C 31.5,98.5 43.5,98.5 55.5,98.5C 43.3446,99.4952 31.0113,99.8286 18.5,99.5C 18.5,86.8333 18.5,74.1667 18.5,61.5C 30.8333,61.5 43.1667,61.5 55.5,61.5 Z"/></g>
<g><path style="opacity:1" fill="#fdfdfc" d="M 55.5,62.5 C 55.5,74.5 55.5,86.5 55.5,98.5C 43.5,98.5 31.5,98.5 19.5,98.5C 19.1688,90.1401 19.5021,81.8068 20.5,73.5C 21.1667,74.5 21.8333,75.5 22.5,76.5C 23.1067,76.3764 23.44,76.0431 23.5,75.5C 26.9983,75.4347 27.4983,74.1014 25,71.5C 24.6174,72.056 24.1174,72.3893 23.5,72.5C 22.1667,72.5 20.8333,72.5 19.5,72.5C 19.5,69.1667 19.5,65.8333 19.5,62.5C 31.5,62.5 43.5,62.5 55.5,62.5 Z"/></g>
<g><path style="opacity:1" fill="#c3ac8a" d="M 81.5,61.5 C 84.5589,65.9365 87.3922,70.6032 90,75.5C 92.4106,70.7525 94.9106,66.0858 97.5,61.5C 99.4814,68.6988 100.815,76.0321 101.5,83.5C 99.8762,83.6399 98.7096,82.9733 98,81.5C 97.8198,78.0445 97.1532,74.7111 96,71.5C 93.4728,75.2211 91.4728,79.2211 90,83.5C 88.1021,79.372 85.9354,75.372 83.5,71.5C 82.1846,75.3926 81.5179,79.3926 81.5,83.5C 80.1667,83.5 78.8333,83.5 77.5,83.5C 78.8336,76.1652 80.1669,68.8318 81.5,61.5 Z"/></g>
<g><path style="opacity:1" fill="#c8b293" d="M 29.5,64.5 C 32.1368,66.1538 31.8034,66.6538 28.5,66C 29.056,65.6174 29.3893,65.1174 29.5,64.5 Z"/></g>
<g><path style="opacity:1" fill="#ded2c0" d="M 38.5,64.5 C 40.337,64.6395 40.6704,65.3061 39.5,66.5C 38.7025,66.0431 38.3691,65.3764 38.5,64.5 Z"/></g>
<g><path style="opacity:1" fill="#c2a987" d="M 23.5,75.5 C 22.375,74.6522 22.375,73.6522 23.5,72.5C 24.1174,72.3893 24.6174,72.056 25,71.5C 27.4983,74.1014 26.9983,75.4347 23.5,75.5 Z"/></g>
<g><path style="opacity:1" fill="#e6dccf" d="M 72.5,72.5 C 71.4324,73.4345 70.099,73.7678 68.5,73.5C 68.5,75.5 68.5,77.5 68.5,79.5C 71.3854,79.1936 74.0521,79.5269 76.5,80.5C 73.5,80.5 70.5,80.5 67.5,80.5C 67.5,77.8333 67.5,75.1667 67.5,72.5C 69.1667,72.5 70.8333,72.5 72.5,72.5 Z"/></g>
<g><path style="opacity:1" fill="#c4ac8b" d="M 51.5,82.5 C 52.0768,81.2267 52.7435,81.2267 53.5,82.5C 53.0302,83.463 52.3635,83.463 51.5,82.5 Z"/></g>
<g><path style="opacity:1" fill="#c8b293" d="M 30.5,84.5 C 32.1789,84.8923 33.8455,85.3923 35.5,86C 33.9632,87.1096 33.2965,88.6096 33.5,90.5C 31.6096,90.2965 30.1096,90.9632 29,92.5C 28.8008,90.5975 27.9675,89.0975 26.5,88C 28.3187,87.2597 29.6521,86.0931 30.5,84.5 Z"/></g>
<g><path style="opacity:1" fill="#ccb79a" d="M 45.5,87.5 C 48.9661,89.7684 49.2994,92.435 46.5,95.5C 44.755,92.8653 44.4217,90.1987 45.5,87.5 Z"/></g>
<g><path style="opacity:1" fill="#f1ece5" d="M 86.5,98.5 C 86.5,99.1667 86.8333,99.5 87.5,99.5C 84.5634,99.6268 81.5634,99.6268 78.5,99.5C 78.5,98.1667 78.5,96.8333 78.5,95.5C 76.8333,95.5 75.1667,95.5 73.5,95.5C 73.5,96.5 73.5,97.5 73.5,98.5C 70.6863,100.096 67.6863,100.596 64.5,100C 62.5081,95.848 63.8415,94.0146 68.5,94.5C 68.3433,95.8734 68.51,97.2068 69,98.5C 69.6695,96.4098 70.8361,94.7432 72.5,93.5C 75.054,93.2025 77.554,93.2025 80,93.5C 80.985,92.1859 82.1516,91.1859 83.5,90.5C 87.3499,87.6756 89.1833,88.6756 89,93.5C 88.3333,92.1667 87.6667,92.1667 87,93.5C 86.5983,94.8721 86.0983,96.2054 85.5,97.5C 85.6236,98.1067 85.9569,98.44 86.5,98.5 Z"/></g>
<g><path style="opacity:1" fill="#e9e1d5" d="M 83.5,90.5 C 82.1516,91.1859 80.985,92.1859 80,93.5C 77.554,93.2025 75.054,93.2025 72.5,93.5C 69.8127,93.6641 67.146,93.4974 64.5,93C 63.0705,91.1197 63.4038,89.6197 65.5,88.5C 65.8333,89.1667 66.1667,89.8333 66.5,90.5C 67.2164,89.689 68.0497,89.0223 69,88.5C 70.5325,89.6953 72.0325,89.6953 73.5,88.5C 75.4321,89.1455 76.5988,90.4788 77,92.5C 77.49,91.2068 77.6567,89.8734 77.5,88.5C 80.0101,88.0535 82.0101,88.7202 83.5,90.5 Z"/></g>
<g><path style="opacity:1" fill="#e7ded1" d="M 124.5,90.5 C 125.567,92.8795 124.567,93.8795 121.5,93.5C 120.5,93.5 119.5,93.5 118.5,93.5C 118.281,92.325 118.614,91.325 119.5,90.5C 120.696,90.8457 120.696,91.3457 119.5,92C 120.167,92.1667 120.833,92.3333 121.5,92.5C 122.476,91.8047 123.476,91.138 124.5,90.5 Z"/></g>
<g><path style="opacity:1" fill="#f4efe9" d="M 100.5,89.5 C 100.343,90.8734 100.51,92.2068 101,93.5C 102,92.1667 103,92.1667 104,93.5C 104.765,91.9343 104.598,90.6009 103.5,89.5C 103.842,88.6618 104.508,88.3284 105.5,88.5C 105.34,90.1992 105.506,91.8659 106,93.5C 107,90.8333 108,90.8333 109,93.5C 109.85,92.5761 110.85,92.5761 112,93.5C 113.011,92.9444 113.844,92.2778 114.5,91.5C 115.918,89.8951 117.752,88.8951 120,88.5C 121.235,89.6155 122.402,89.6155 123.5,88.5C 124.298,88.9569 124.631,89.6236 124.5,90.5C 123.476,91.138 122.476,91.8047 121.5,92.5C 120.833,92.3333 120.167,92.1667 119.5,92C 120.696,91.3457 120.696,90.8457 119.5,90.5C 118.614,91.325 118.281,92.325 118.5,93.5C 119.5,93.5 120.5,93.5 121.5,93.5C 120.5,94.1667 119.5,94.8333 118.5,95.5C 117.732,96.2625 117.232,97.2625 117,98.5C 116.014,94.625 114.847,94.625 113.5,98.5C 113.624,99.1067 113.957,99.44 114.5,99.5C 109.994,100.087 105.328,100.087 100.5,99.5C 100.992,95.7104 100.159,95.0437 98,97.5C 97.6667,96.8333 97.3333,96.1667 97,95.5C 96.51,96.7932 96.3433,98.1266 96.5,99.5C 95.5027,96.041 94.336,92.7077 93,89.5C 95.4824,89.3509 97.9824,89.3509 100.5,89.5 Z"/></g>
<g><path style="opacity:1" fill="#ded2c0" d="M 100.5,89.5 C 101.652,90.625 102.652,90.625 103.5,89.5C 104.598,90.6009 104.765,91.9343 104,93.5C 103,92.1667 102,92.1667 101,93.5C 100.51,92.2068 100.343,90.8734 100.5,89.5 Z"/></g>
<g><path style="opacity:1" fill="#e5dcce" d="M 105.5,88.5 C 107.017,88.5106 108.184,89.1772 109,90.5C 110.716,89.4477 111.716,90.1144 112,92.5C 112.299,89.2018 113.133,88.8685 114.5,91.5C 113.844,92.2778 113.011,92.9444 112,93.5C 110.85,92.5761 109.85,92.5761 109,93.5C 108,90.8333 107,90.8333 106,93.5C 105.506,91.8659 105.34,90.1992 105.5,88.5 Z"/></g>
<g><path style="opacity:1" fill="#e5dbcc" d="M 78.5,99.5 C 77.7321,98.7375 77.2321,97.7375 77,96.5C 76.6411,99.5443 75.9745,99.8776 75,97.5C 74.6667,98.1667 74.3333,98.8333 74,99.5C 73.6012,99.2716 73.4346,98.9382 73.5,98.5C 73.5,97.5 73.5,96.5 73.5,95.5C 75.1667,95.5 76.8333,95.5 78.5,95.5C 78.5,96.8333 78.5,98.1667 78.5,99.5 Z"/></g>
<g><path style="opacity:1" fill="#e4dacb" d="M 87.5,99.5 C 86.8333,99.5 86.5,99.1667 86.5,98.5C 87.8101,94.6672 88.9767,94.6672 90,98.5C 90.2492,97.376 90.7492,96.376 91.5,95.5C 92.5896,96.3914 92.5896,97.3914 91.5,98.5C 90.3112,99.4287 88.9778,99.762 87.5,99.5 Z"/></g>
<g><path style="opacity:1" fill="#e7ded0" d="M 118.5,95.5 C 118.48,97.143 119.147,98.4763 120.5,99.5C 118.599,100.231 116.599,100.231 114.5,99.5C 113.957,99.44 113.624,99.1067 113.5,98.5C 114.847,94.625 116.014,94.625 117,98.5C 117.232,97.2625 117.732,96.2625 118.5,95.5 Z"/></g>
<g><path style="opacity:1" fill="#ebe3d9" d="M 125.5,94.5 C 127.582,94.472 129.416,95.1387 131,96.5C 135.062,93.5708 138.728,93.9042 142,97.5C 142.333,96.8333 142.667,96.1667 143,95.5C 143.667,96.8333 143.667,98.1667 143,99.5C 142.667,99.1667 142.333,98.8333 142,98.5C 140.599,100.192 138.766,100.859 136.5,100.5C 136.543,96.1074 136.043,95.7741 135,99.5C 134,95.5 133,95.5 132,99.5C 130.456,96.7364 129.289,96.9031 128.5,100C 126.687,99.9536 125.021,100.12 123.5,100.5C 121.783,99.3315 121.116,97.6648 121.5,95.5C 122.552,95.3505 123.552,95.5172 124.5,96C 123.289,96.8928 123.289,97.7261 124.5,98.5C 125.429,97.3112 125.762,95.9778 125.5,94.5 Z"/></g>
<g><path style="opacity:1" fill="#e0d5c4" d="M 100.5,99.5 C 99.2976,98.5946 97.9643,98.5946 96.5,99.5C 96.3433,98.1266 96.51,96.7932 97,95.5C 97.3333,96.1667 97.6667,96.8333 98,97.5C 100.159,95.0437 100.992,95.7104 100.5,99.5 Z"/></g>
<g><path style="opacity:1" fill="#ccb79b" d="M 55.5,61.5 C 56.1667,74.1667 56.8333,86.8333 57.5,99.5C 44.1667,100.833 30.8333,100.833 17.5,99.5C 17.8333,99.5 18.1667,99.5 18.5,99.5C 31.0113,99.8286 43.3446,99.4952 55.5,98.5C 55.5,86.5 55.5,74.5 55.5,62.5C 55.5,62.1667 55.5,61.8333 55.5,61.5 Z"/></g>
</svg>
