<?xml version="1.0" encoding="UTF-8"?>
<!DOCTYPE svg PUBLIC "-//W3C//DTD SVG 1.1//EN" "http://www.w3.org/Graphics/SVG/1.1/DTD/svg11.dtd">
<svg xmlns="http://www.w3.org/2000/svg" version="1.1" width="160px" height="160px" style="shape-rendering:geometricPrecision; text-rendering:geometricPrecision; image-rendering:optimizeQuality; fill-rule:evenodd; clip-rule:evenodd" xmlns:xlink="http://www.w3.org/1999/xlink">
<g><path style="opacity:1" fill="#62c6f1" d="M -0.5,-0.5 C 52.8333,-0.5 106.167,-0.5 159.5,-0.5C 159.5,52.8333 159.5,106.167 159.5,159.5C 106.167,159.5 52.8333,159.5 -0.5,159.5C -0.5,106.167 -0.5,52.8333 -0.5,-0.5 Z"/></g>
<g><path style="opacity:1" fill="#0e7fc3" d="M 57.5,47.5 C 59.1667,47.5 60.8333,47.5 62.5,47.5C 62.5,68.8333 62.5,90.1667 62.5,111.5C 60.8333,111.5 59.1667,111.5 57.5,111.5C 40.5777,107.574 31.5777,96.9071 30.5,79.5C 31.5777,62.0929 40.5777,51.4262 57.5,47.5 Z"/></g>
<g><path style="opacity:1" fill="#055a9c" d="M 64.5,47.5 C 74.5,54.1667 84.5,60.8333 94.5,67.5C 95.8224,82.2646 95.8224,96.9312 94.5,111.5C 84.5,104.833 74.5,98.1667 64.5,91.5C 63.1776,76.7354 63.1776,62.0688 64.5,47.5 Z"/></g>
<g><path style="opacity:1" fill="#0d7fc3" d="M 101.5,47.5 C 118.438,51.4397 127.438,62.1064 128.5,79.5C 127.438,96.8936 118.438,107.56 101.5,111.5C 99.8333,111.5 98.1667,111.5 96.5,111.5C 96.5,90.1667 96.5,68.8333 96.5,47.5C 98.1667,47.5 99.8333,47.5 101.5,47.5 Z"/></g>
<g><path style="opacity:1" fill="#2b88c7" d="M 101.5,47.5 C 99.8333,47.5 98.1667,47.5 96.5,47.5C 96.5,68.8333 96.5,90.1667 96.5,111.5C 98.1667,111.5 99.8333,111.5 101.5,111.5C 99.1667,112.833 96.8333,112.833 94.5,111.5C 95.8224,96.9312 95.8224,82.2646 94.5,67.5C 95.4912,60.6866 95.8245,53.6866 95.5,46.5C 97.7354,46.2053 99.7354,46.5386 101.5,47.5 Z"/></g>
<g><path style="opacity:1" fill="#2e8bc9" d="M 57.5,47.5 C 59.8333,46.1667 62.1667,46.1667 64.5,47.5C 63.1776,62.0688 63.1776,76.7354 64.5,91.5C 63.5088,98.3134 63.1755,105.313 63.5,112.5C 61.2646,112.795 59.2646,112.461 57.5,111.5C 59.1667,111.5 60.8333,111.5 62.5,111.5C 62.5,90.1667 62.5,68.8333 62.5,47.5C 60.8333,47.5 59.1667,47.5 57.5,47.5 Z"/></g>
</svg>
