<svg xmlns="http://www.w3.org/2000/svg" viewBox="0 0 48 48"><path fill="#f1f2f3" d="M0 0h48v48H0z"/><path d="M9.46 30.77h29.08v-4.353h-3.214V18.14h-.54l-1.224-1.223-1.309 1.309h-.54v3.072h-2.235v-5.604l-2.396-2.396L24.8 15.58v5.746h-2.617v-8.028l-1.59-1.59-1.524 1.525v8.435h-2.205v.654a.675.675 0 01-.261.352.709.709 0 01-.592.075v-8.05h-3.613v3.328H9.46V30.77zm0 .768v4.755h2.966v-3.248h4.865v-1.507zm9.424 0h2.759v4.755h-2.759zm3.356 2.502v1.935l3.775-2.418v2.736h2.654v-4.755h-2.958zm10.639-.54h2.949v2.617h-2.949zm-2.702-1.962h8.363v1.337h-8.363z" fill="#466aa8"/></svg>