<?xml version="1.0" encoding="UTF-8"?>
<!DOCTYPE svg PUBLIC "-//W3C//DTD SVG 1.1//EN" "http://www.w3.org/Graphics/SVG/1.1/DTD/svg11.dtd">
<svg xmlns="http://www.w3.org/2000/svg" version="1.1" width="667px" height="667px" style="shape-rendering:geometricPrecision; text-rendering:geometricPrecision; image-rendering:optimizeQuality; fill-rule:evenodd; clip-rule:evenodd" xmlns:xlink="http://www.w3.org/1999/xlink">
<g><path style="opacity:0.999" fill="#d01519" d="M -0.5,-0.5 C 221.833,-0.5 444.167,-0.5 666.5,-0.5C 666.5,221.833 666.5,444.167 666.5,666.5C 444.167,666.5 221.833,666.5 -0.5,666.5C -0.5,444.167 -0.5,221.833 -0.5,-0.5 Z"/></g>
<g><path style="opacity:1" fill="#d21217" d="M 326.5,123.5 C 412.827,123.503 478.994,159.503 525,231.5C 565.649,306.451 565.649,381.118 525,455.5C 477.22,529.975 409.053,565.808 320.5,563C 236.071,554.207 174.571,512.04 136,436.5C 105.811,366.485 109.144,298.152 146,231.5C 187.974,165.409 248.141,129.409 326.5,123.5 Z"/></g>
<g><path style="opacity:1" fill="#fefdfd" d="M 239.5,237.5 C 239.333,262.169 239.5,286.836 240,311.5C 257.986,291.368 279.486,286.535 304.5,297C 316.785,304.313 323.952,315.147 326,329.5C 326.5,363.832 326.667,398.165 326.5,432.5C 314.5,432.5 302.5,432.5 290.5,432.5C 290.667,400.832 290.5,369.165 290,337.5C 287.514,325.688 280.181,319.688 268,319.5C 253.482,320.684 244.482,328.351 241,342.5C 239.557,372.468 239.057,402.468 239.5,432.5C 227.833,432.5 216.167,432.5 204.5,432.5C 204.5,367.5 204.5,302.5 204.5,237.5C 216.167,237.5 227.833,237.5 239.5,237.5 Z"/></g>
<g><path style="opacity:1" fill="#fefdfd" d="M 344.5,237.5 C 356.167,237.5 367.833,237.5 379.5,237.5C 379.169,262.339 379.502,287.006 380.5,311.5C 401.331,289.169 424.998,285.669 451.5,301C 461.974,310.454 467.141,322.288 467,336.5C 467.5,368.498 467.667,400.498 467.5,432.5C 455.5,432.5 443.5,432.5 431.5,432.5C 431.957,399.464 431.457,366.464 430,333.5C 424.777,322.188 415.944,317.688 403.5,320C 392.333,323.167 385.167,330.333 382,341.5C 380.547,371.797 380.047,402.13 380.5,432.5C 368.5,432.5 356.5,432.5 344.5,432.5C 344.5,367.5 344.5,302.5 344.5,237.5 Z"/></g>
<g><path style="opacity:1" fill="#eea5a8" d="M 344.5,237.5 C 356.322,236.505 368.322,236.172 380.5,236.5C 380.5,261.5 380.5,286.5 380.5,311.5C 379.502,287.006 379.169,262.339 379.5,237.5C 367.833,237.5 356.167,237.5 344.5,237.5 Z"/></g>
<g><path style="opacity:1" fill="#f2b8ba" d="M 239.5,237.5 C 227.833,237.5 216.167,237.5 204.5,237.5C 204.5,302.5 204.5,367.5 204.5,432.5C 203.501,367.335 203.168,302.002 203.5,236.5C 215.678,236.172 227.678,236.505 239.5,237.5 Z"/></g>
</svg>
