<?xml version="1.0" encoding="UTF-8"?>
<!DOCTYPE svg PUBLIC "-//W3C//DTD SVG 1.1//EN" "http://www.w3.org/Graphics/SVG/1.1/DTD/svg11.dtd">
<svg xmlns="http://www.w3.org/2000/svg" version="1.1" width="160px" height="160px" style="shape-rendering:geometricPrecision; text-rendering:geometricPrecision; image-rendering:optimizeQuality; fill-rule:evenodd; clip-rule:evenodd" xmlns:xlink="http://www.w3.org/1999/xlink">
<g><path style="opacity:1" fill="#18294b" d="M -0.5,-0.5 C 52.8333,-0.5 106.167,-0.5 159.5,-0.5C 159.5,52.8333 159.5,106.167 159.5,159.5C 106.167,159.5 52.8333,159.5 -0.5,159.5C -0.5,106.167 -0.5,52.8333 -0.5,-0.5 Z"/></g>
<g><path style="opacity:1" fill="#f1f2f3" d="M 78.5,37.5 C 81.4464,39.2701 84.2797,41.2701 87,43.5C 101.018,37.016 111.351,40.6827 118,54.5C 118.974,60.5962 118.141,66.4295 115.5,72C 117.296,74.6332 119.296,77.1332 121.5,79.5C 119.296,81.8668 117.296,84.3668 115.5,87C 122.073,101.51 118.073,111.843 103.5,118C 97.2375,119.422 91.5708,118.255 86.5,114.5C 84.5,117.167 82.1667,119.5 79.5,121.5C 76.8333,119.5 74.5,117.167 72.5,114.5C 58.5054,122.255 48.0054,118.922 41,104.5C 39.8304,98.3448 40.6637,92.5115 43.5,87C 41.7038,84.3668 39.7038,81.8668 37.5,79.5C 39.7038,77.1332 41.7038,74.6332 43.5,72C 37.0365,58.3925 40.3698,48.0592 53.5,41C 59.9837,39.8041 66.1504,40.6374 72,43.5C 74.6517,42.0145 76.8184,40.0145 78.5,37.5 Z"/></g>
<g><path style="opacity:1" fill="#1d2b4d" d="M 55.5,45.5 C 62.1896,44.7291 67.8563,46.7291 72.5,51.5C 74.8333,49.5 77.1667,47.5 79.5,45.5C 81.8333,47.5 84.1667,49.5 86.5,51.5C 97.3201,42.4514 106.153,44.118 113,56.5C 113.979,62.7261 112.145,68.0595 107.5,72.5C 109.5,74.8333 111.5,77.1667 113.5,79.5C 111.5,81.8333 109.5,84.1667 107.5,86.5C 115.65,94.9687 115.317,103.135 106.5,111C 98.9101,115.083 92.2435,113.916 86.5,107.5C 84.1667,109.5 81.8333,111.5 79.5,113.5C 77.1667,111.5 74.8333,109.5 72.5,107.5C 60.9816,117 52.1483,115 46,101.5C 44.9994,95.4944 46.8327,90.4944 51.5,86.5C 49.5,84.1667 47.5,81.8333 45.5,79.5C 47.5,77.1667 49.5,74.8333 51.5,72.5C 42.6092,61.9563 43.9426,52.9563 55.5,45.5 Z"/></g>
<g><path style="opacity:1" fill="#fefefe" d="M 64.5,64.5 C 67.1667,64.5 69.8333,64.5 72.5,64.5C 72.5,68.1667 72.5,71.8333 72.5,75.5C 77.1667,75.5 81.8333,75.5 86.5,75.5C 86.5,71.8333 86.5,68.1667 86.5,64.5C 89.1667,64.5 91.8333,64.5 94.5,64.5C 94.5,74.5 94.5,84.5 94.5,94.5C 91.8333,94.5 89.1667,94.5 86.5,94.5C 86.5,90.5 86.5,86.5 86.5,82.5C 82.1667,82.5 77.8333,82.5 73.5,82.5C 72.5166,86.2984 72.1832,90.2984 72.5,94.5C 69.8333,94.5 67.1667,94.5 64.5,94.5C 64.5,84.5 64.5,74.5 64.5,64.5 Z"/></g>
<g><path style="opacity:1" fill="#838b9c" d="M 64.5,64.5 C 67.2869,63.5233 70.2869,63.19 73.5,63.5C 73.5,67.1667 73.5,70.8333 73.5,74.5C 77.5,74.5 81.5,74.5 85.5,74.5C 85.1872,70.9581 85.5206,67.6248 86.5,64.5C 86.5,68.1667 86.5,71.8333 86.5,75.5C 81.8333,75.5 77.1667,75.5 72.5,75.5C 72.5,71.8333 72.5,68.1667 72.5,64.5C 69.8333,64.5 67.1667,64.5 64.5,64.5 Z"/></g>
<g><path style="opacity:1" fill="#5d687e" d="M 73.5,82.5 C 73.5,86.8333 73.5,91.1667 73.5,95.5C 70.2869,95.81 67.2869,95.4767 64.5,94.5C 67.1667,94.5 69.8333,94.5 72.5,94.5C 72.1832,90.2984 72.5166,86.2984 73.5,82.5 Z"/></g>
</svg>
