<?xml version="1.0" encoding="UTF-8"?>
<!DOCTYPE svg PUBLIC "-//W3C//DTD SVG 1.1//EN" "http://www.w3.org/Graphics/SVG/1.1/DTD/svg11.dtd">
<svg xmlns="http://www.w3.org/2000/svg" version="1.1" width="160px" height="160px" style="shape-rendering:geometricPrecision; text-rendering:geometricPrecision; image-rendering:optimizeQuality; fill-rule:evenodd; clip-rule:evenodd" xmlns:xlink="http://www.w3.org/1999/xlink">
<g><path style="opacity:0.999" fill="#033059" d="M -0.5,-0.5 C 52.8333,-0.5 106.167,-0.5 159.5,-0.5C 159.5,52.8333 159.5,106.167 159.5,159.5C 106.167,159.5 52.8333,159.5 -0.5,159.5C -0.5,106.167 -0.5,52.8333 -0.5,-0.5 Z"/></g>
<g><path style="opacity:1" fill="#1f45dd" d="M 81.5,30.5 C 80.8333,31.5 80.1667,32.5 79.5,33.5C 78.8333,33.8333 78.1667,34.1667 77.5,34.5C 77.1667,34.5 76.8333,34.5 76.5,34.5C 73.3601,33.3592 70.0267,33.1925 66.5,34C 60.2002,36.8147 53.8669,39.648 47.5,42.5C 55.7162,34.8052 65.5496,30.4719 77,29.5C 78.7067,29.5085 80.2067,29.8418 81.5,30.5 Z"/></g>
<g><path style="opacity:1" fill="#f87707" d="M 79.5,33.5 C 87.6478,34.8255 94.9812,37.9922 101.5,43C 102.823,43.8159 103.489,44.9826 103.5,46.5C 102.564,47.9744 101.23,48.9744 99.5,49.5C 99.1667,49.5 98.8333,49.5 98.5,49.5C 93.9195,46.2018 88.9195,43.3685 83.5,41C 81.2941,38.9633 79.2941,36.7966 77.5,34.5C 78.1667,34.1667 78.8333,33.8333 79.5,33.5 Z"/></g>
<g><path style="opacity:1" fill="#fa9208" d="M 81.5,30.5 C 90.9399,30.0709 99.2733,32.7375 106.5,38.5C 108.251,42.1486 107.251,44.8152 103.5,46.5C 103.489,44.9826 102.823,43.8159 101.5,43C 94.9812,37.9922 87.6478,34.8255 79.5,33.5C 80.1667,32.5 80.8333,31.5 81.5,30.5 Z"/></g>
<g><path style="opacity:1" fill="#0c3159" d="M 76.5,34.5 C 76.8333,34.5 77.1667,34.5 77.5,34.5C 79.2941,36.7966 81.2941,38.9633 83.5,41C 88.9195,43.3685 93.9195,46.2018 98.5,49.5C 94.5366,51.8285 90.5366,54.1618 86.5,56.5C 84.597,56.7959 82.9303,57.4625 81.5,58.5C 79.4561,59.5082 77.4561,60.5082 75.5,61.5C 75.1667,61.5 74.8333,61.5 74.5,61.5C 66.7098,57.7258 59.7098,52.7258 53.5,46.5C 61.5587,43.2577 69.2254,39.2577 76.5,34.5 Z"/></g>
<g><path style="opacity:1" fill="#0311c0" d="M 76.5,34.5 C 69.2254,39.2577 61.5587,43.2577 53.5,46.5C 50.8068,47.8466 48.1401,49.1799 45.5,50.5C 44.5266,50.0133 43.5266,49.5133 42.5,49C 44.7899,47.2228 46.4566,45.0562 47.5,42.5C 53.8669,39.648 60.2002,36.8147 66.5,34C 70.0267,33.1925 73.3601,33.3592 76.5,34.5 Z"/></g>
<g><path style="opacity:1" fill="#0f54fa" d="M 124.5,75.5 C 125.136,67.4485 122.469,60.7818 116.5,55.5C 115.928,61.7871 114.428,67.7871 112,73.5C 95.3018,82.0682 85.1351,77.0682 81.5,58.5C 82.9303,57.4625 84.597,56.7959 86.5,56.5C 88.22,58.6581 89.0533,61.3248 89,64.5C 91.9188,70.0248 96.4188,71.8581 102.5,70C 109.443,63.4633 108.777,57.63 100.5,52.5C 99.6143,51.675 99.281,50.675 99.5,49.5C 101.23,48.9744 102.564,47.9744 103.5,46.5C 107.251,44.8152 108.251,42.1486 106.5,38.5C 117.76,44.8743 124.76,54.8743 127.5,68.5C 127.828,71.5005 126.828,73.8339 124.5,75.5 Z"/></g>
<g><path style="opacity:1" fill="#362c8f" d="M 47.5,42.5 C 46.4566,45.0562 44.7899,47.2228 42.5,49C 43.5266,49.5133 44.5266,50.0133 45.5,50.5C 42.0567,53.7286 38.39,56.7286 34.5,59.5C 36.9233,52.4054 41.2566,46.7388 47.5,42.5 Z"/></g>
<g><path style="opacity:1" fill="#fa6c05" d="M 53.5,46.5 C 59.7098,52.7258 66.7098,57.7258 74.5,61.5C 72.0846,62.3052 69.7513,63.3052 67.5,64.5C 63.6456,65.9302 59.9789,67.5969 56.5,69.5C 50.6818,71.9098 45.0151,74.5765 39.5,77.5C 37.1673,74.9974 35.0007,72.3307 33,69.5C 32.1529,65.9277 32.6529,62.5943 34.5,59.5C 38.39,56.7286 42.0567,53.7286 45.5,50.5C 48.1401,49.1799 50.8068,47.8466 53.5,46.5 Z"/></g>
<g><path style="opacity:1" fill="#306cfd" d="M 98.5,49.5 C 98.8333,49.5 99.1667,49.5 99.5,49.5C 99.281,50.675 99.6143,51.675 100.5,52.5C 108.777,57.63 109.443,63.4633 102.5,70C 96.4188,71.8581 91.9188,70.0248 89,64.5C 89.0533,61.3248 88.22,58.6581 86.5,56.5C 90.5366,54.1618 94.5366,51.8285 98.5,49.5 Z"/></g>
<g><path style="opacity:1" fill="#0401b1" d="M 67.5,64.5 C 72.0474,76.5711 79.7141,86.2377 90.5,93.5C 88.8185,95.0075 86.8185,96.0075 84.5,96.5C 83.8333,96.8333 83.1667,97.1667 82.5,97.5C 80.4727,97.6621 78.4727,97.4955 76.5,97C 69.211,90.7175 63.0443,83.5508 58,75.5C 56.872,73.6547 56.372,71.6547 56.5,69.5C 59.9789,67.5969 63.6456,65.9302 67.5,64.5 Z"/></g>
<g><path style="opacity:1" fill="#03007f" d="M 56.5,69.5 C 56.372,71.6547 56.872,73.6547 58,75.5C 63.0443,83.5508 69.211,90.7175 76.5,97C 78.4727,97.4955 80.4727,97.6621 82.5,97.5C 74.4892,100.338 66.8225,104.004 59.5,108.5C 58.5,109.167 57.5,109.833 56.5,110.5C 58.8826,105.346 57.5493,101.68 52.5,99.5C 49.5009,95.0049 46.0009,91.0049 42,87.5C 41.9565,84.5248 42.1231,81.5248 42.5,78.5C 41.5,78.5 40.5,78.5 39.5,78.5C 39.5,78.1667 39.5,77.8333 39.5,77.5C 45.0151,74.5765 50.6818,71.9098 56.5,69.5 Z"/></g>
<g><path style="opacity:1" fill="#0735ec" d="M 124.5,75.5 C 122.725,78.2109 120.391,80.2109 117.5,81.5C 113.001,83.6552 108.668,85.9886 104.5,88.5C 102.716,88.8925 101.05,89.5592 99.5,90.5C 93.0616,87.6729 87.2283,83.6729 82,78.5C 78.3228,73.2868 76.1562,67.6201 75.5,61.5C 77.4561,60.5082 79.4561,59.5082 81.5,58.5C 85.1351,77.0682 95.3018,82.0682 112,73.5C 114.428,67.7871 115.928,61.7871 116.5,55.5C 122.469,60.7818 125.136,67.4485 124.5,75.5 Z"/></g>
<g><path style="opacity:1" fill="#020dd0" d="M 74.5,61.5 C 74.8333,61.5 75.1667,61.5 75.5,61.5C 76.1562,67.6201 78.3228,73.2868 82,78.5C 87.2283,83.6729 93.0616,87.6729 99.5,90.5C 96.5982,91.7837 93.5982,92.7837 90.5,93.5C 79.7141,86.2377 72.0474,76.5711 67.5,64.5C 69.7513,63.3052 72.0846,62.3052 74.5,61.5 Z"/></g>
<g><path style="opacity:1" fill="#fa5e05" d="M 117.5,81.5 C 126.183,84.5337 128.516,90.2004 124.5,98.5C 119.426,102.916 114.092,106.916 108.5,110.5C 107.391,110.557 106.391,110.89 105.5,111.5C 102.853,109.189 100.186,106.856 97.5,104.5C 98.5832,104.539 99.5832,104.873 100.5,105.5C 102.329,101.332 104.996,97.8319 108.5,95C 108.201,93.6796 108.034,92.1796 108,90.5C 107.184,89.1772 106.017,88.5106 104.5,88.5C 108.668,85.9886 113.001,83.6552 117.5,81.5 Z"/></g>
<g><path style="opacity:1" fill="#fa7107" d="M 104.5,88.5 C 106.017,88.5106 107.184,89.1772 108,90.5C 108.034,92.1796 108.201,93.6796 108.5,95C 104.996,97.8319 102.329,101.332 100.5,105.5C 99.5832,104.873 98.5832,104.539 97.5,104.5C 92.6707,102.566 88.3374,99.8993 84.5,96.5C 86.8185,96.0075 88.8185,95.0075 90.5,93.5C 93.5982,92.7837 96.5982,91.7837 99.5,90.5C 101.05,89.5592 102.716,88.8925 104.5,88.5 Z"/></g>
<g><path style="opacity:1" fill="#0a3059" d="M 84.5,96.5 C 88.3374,99.8993 92.6707,102.566 97.5,104.5C 100.186,106.856 102.853,109.189 105.5,111.5C 97.5653,115.467 89.5653,119.467 81.5,123.5C 80.0401,121.537 78.3734,119.704 76.5,118C 70.771,114.806 65.1044,111.639 59.5,108.5C 66.8225,104.004 74.4892,100.338 82.5,97.5C 83.1667,97.1667 83.8333,96.8333 84.5,96.5 Z"/></g>
<g><path style="opacity:1" fill="#0108ac" d="M 39.5,78.5 C 40.5,78.5 41.5,78.5 42.5,78.5C 42.1231,81.5248 41.9565,84.5248 42,87.5C 46.0009,91.0049 49.5009,95.0049 52.5,99.5C 57.5493,101.68 58.8826,105.346 56.5,110.5C 55.5,111.167 54.5,111.833 53.5,112.5C 53.5,111.5 53.5,110.5 53.5,109.5C 49.2423,109.705 46.2423,107.872 44.5,104C 42.5643,103.187 40.5643,102.687 38.5,102.5C 37.2261,98.6189 35.3928,94.9522 33,91.5C 32.5045,89.5273 32.3379,87.5273 32.5,85.5C 33.8333,82.1667 36.1667,79.8333 39.5,78.5 Z"/></g>
<g><path style="opacity:1" fill="#2055e2" d="M 32.5,85.5 C 32.3379,87.5273 32.5045,89.5273 33,91.5C 35.3928,94.9522 37.2261,98.6189 38.5,102.5C 40.5643,102.687 42.5643,103.187 44.5,104C 46.2423,107.872 49.2423,109.705 53.5,109.5C 53.5,110.5 53.5,111.5 53.5,112.5C 53.1667,113.167 52.8333,113.833 52.5,114.5C 47.4854,110.33 42.1521,106.663 36.5,103.5C 32.8077,97.819 31.4744,91.819 32.5,85.5 Z"/></g>
<g><path style="opacity:1" fill="#487deb" d="M 36.5,103.5 C 42.1521,106.663 47.4854,110.33 52.5,114.5C 51.1667,116.167 51.1667,117.833 52.5,119.5C 52.5654,119.938 52.3988,120.272 52,120.5C 45.5761,115.913 40.4095,110.246 36.5,103.5 Z"/></g>
<g><path style="opacity:1" fill="#f58109" d="M 59.5,108.5 C 65.1044,111.639 70.771,114.806 76.5,118C 78.3734,119.704 80.0401,121.537 81.5,123.5C 80.3065,124.272 79.3065,125.272 78.5,126.5C 77.8333,126.5 77.5,126.833 77.5,127.5C 67.8956,128.408 59.5623,125.742 52.5,119.5C 51.1667,117.833 51.1667,116.167 52.5,114.5C 52.8333,113.833 53.1667,113.167 53.5,112.5C 54.5,111.833 55.5,111.167 56.5,110.5C 57.5,109.833 58.5,109.167 59.5,108.5 Z"/></g>
<g><path style="opacity:1" fill="#556bc9" d="M 124.5,98.5 C 116.276,117.03 101.943,127.03 81.5,128.5C 79.9549,128.489 78.6216,128.156 77.5,127.5C 77.5,126.833 77.8333,126.5 78.5,126.5C 85.7085,126.532 92.3752,124.699 98.5,121C 102.712,118.289 106.046,114.789 108.5,110.5C 114.092,106.916 119.426,102.916 124.5,98.5 Z"/></g>
<g><path style="opacity:1" fill="#0b1ba4" d="M 108.5,110.5 C 106.046,114.789 102.712,118.289 98.5,121C 92.3752,124.699 85.7085,126.532 78.5,126.5C 79.3065,125.272 80.3065,124.272 81.5,123.5C 89.5653,119.467 97.5653,115.467 105.5,111.5C 106.391,110.89 107.391,110.557 108.5,110.5 Z"/></g>
</svg>
