<?xml version="1.0" encoding="UTF-8"?>
<!DOCTYPE svg PUBLIC "-//W3C//DTD SVG 1.1//EN" "http://www.w3.org/Graphics/SVG/1.1/DTD/svg11.dtd">
<svg xmlns="http://www.w3.org/2000/svg" version="1.1" width="160px" height="160px" style="shape-rendering:geometricPrecision; text-rendering:geometricPrecision; image-rendering:optimizeQuality; fill-rule:evenodd; clip-rule:evenodd" xmlns:xlink="http://www.w3.org/1999/xlink">
<g><path style="opacity:1" fill="#a6b6c8" d="M 0.5,-0.5 C 53.5,-0.5 106.5,-0.5 159.5,-0.5C 159.5,52.5 159.5,105.5 159.5,158.5C 106.5,158.5 53.5,158.5 0.5,158.5C 0.5,105.5 0.5,52.5 0.5,-0.5 Z"/></g>
<g><path style="opacity:1" fill="#e88832" d="M 80.5,120.5 C 79.5489,119.081 79.2155,117.415 79.5,115.5C 79.7031,113.956 80.3698,112.622 81.5,111.5C 76.7277,110.704 73.061,112.537 70.5,117C 64.4196,122.073 57.4196,124.073 49.5,123C 48.1667,122.333 48.1667,121.667 49.5,121C 51.9494,120.275 54.2827,119.275 56.5,118C 59.1667,114 62.5,110.667 66.5,108C 61.6661,108.096 56.8328,108.596 52,109.5C 50.5,109.167 49,108.833 47.5,108.5C 50.938,106.565 53.938,104.065 56.5,101C 47.5421,99.9363 38.5421,98.9363 29.5,98C 26.4032,95.6094 24.2365,92.776 23,89.5C 25.2466,90.9801 27.7466,91.6467 30.5,91.5C 35.4259,90.0859 40.4259,88.9193 45.5,88C 42.1322,84.8688 38.1322,82.8688 33.5,82C 32.5,81 31.5,80 30.5,79C 33.5,78.5 36.5,78 39.5,77.5C 41.374,77.3898 42.874,78.0564 44,79.5C 43.5996,75.6596 42.2662,71.9929 40,68.5C 36.3766,61.8964 36.7099,55.563 41,49.5C 40.8845,54.982 43.3845,58.3153 48.5,59.5C 48.7723,51.3412 50.1056,43.3412 52.5,35.5C 54.1965,36.3636 55.3632,37.6969 56,39.5C 56.0646,44.0176 56.7313,48.3509 58,52.5C 60.4065,41.7614 65.7398,32.7614 74,25.5C 75.023,26.6001 75.523,27.9334 75.5,29.5C 75.0029,32.8247 74.0029,35.9914 72.5,39C 72.6135,40.2798 73.2801,41.1131 74.5,41.5C 80.0008,37.3165 86.0008,34.9831 92.5,34.5C 90.4538,37.2323 89.6205,40.2323 90,43.5C 90.8333,42.6667 91.6667,41.8333 92.5,41C 96.7974,39.8423 101.131,38.8423 105.5,38C 109.6,34.5335 110.433,35.3669 108,40.5C 105.796,42.0169 103.462,43.3502 101,44.5C 100.333,45.8333 100.333,47.1667 101,48.5C 103.841,46.4963 107.007,45.9963 110.5,47C 109.128,47.4017 107.795,47.9017 106.5,48.5C 105.289,49.2739 105.289,50.1072 106.5,51C 113.492,50.8347 120.492,50.8347 127.5,51C 129.275,52.4389 131.275,53.4389 133.5,54C 130.5,54.3333 127.5,54.6667 124.5,55C 123.167,56.6667 121.833,58.3333 120.5,60C 117.774,60.1816 115.107,60.6816 112.5,61.5C 115.53,62.6767 118.197,64.3433 120.5,66.5C 118.5,67.3333 116.5,68.1667 114.5,69C 119.944,74.8872 126.277,79.5538 133.5,83C 135.036,84.5994 135.536,86.4328 135,88.5C 129.05,87.1103 123.05,85.777 117,84.5C 116.5,84.8333 116,85.1667 115.5,85.5C 117.286,89.7273 116.619,90.7273 113.5,88.5C 112.686,90.9515 113.186,93.2849 115,95.5C 115.333,100.167 115.667,104.833 116,109.5C 116.465,110.931 117.299,112.097 118.5,113C 117.167,113.667 115.833,113.667 114.5,113C 112.237,107.973 108.904,103.806 104.5,100.5C 104.89,103.767 104.39,107.101 103,110.5C 102.385,108.884 101.385,107.551 100,106.5C 99.1437,112.403 97.477,118.069 95,123.5C 94.6667,126.833 94.3333,130.167 94,133.5C 87.9599,130.753 85.6265,126.087 87,119.5C 88.7175,116.909 89.2175,114.242 88.5,111.5C 85.0969,113.9 82.4302,116.9 80.5,120.5 Z"/></g>
<g><path style="opacity:1" fill="#fbe2cd" d="M 71.5,50.5 C 87.9095,48.118 99.4095,54.4514 106,69.5C 108.545,85.5824 102.379,96.7491 87.5,103C 70.033,106.022 58.533,99.1889 53,82.5C 51.4066,67.2774 57.5733,56.6107 71.5,50.5 Z"/></g>
<g><path style="opacity:1" fill="#f1ad71" d="M 79.5,89.5 C 80.4916,89.3284 81.1583,89.6618 81.5,90.5C 80.2072,92.3635 80.2072,94.3635 81.5,96.5C 82.9287,93.1831 84.762,92.8498 87,95.5C 88.605,94.8993 89.9384,93.8993 91,92.5C 91.3333,92.8333 91.6667,93.1667 92,93.5C 92.49,92.2068 92.6567,90.8734 92.5,89.5C 93.2891,89.7828 93.9558,90.2828 94.5,91C 93.6198,92.3561 93.2865,93.8561 93.5,95.5C 89.2464,96.6462 84.913,97.3129 80.5,97.5C 80.5,99.1667 80.5,100.833 80.5,102.5C 80.1667,102.5 79.8333,102.5 79.5,102.5C 79.5,100.833 79.5,99.1667 79.5,97.5C 75.5,97.1667 75.5,96.8333 79.5,96.5C 79.5,94.1667 79.5,91.8333 79.5,89.5 Z"/></g>
<g><path style="opacity:1" fill="#ea8a34" d="M 90.5,86.5 C 91.1667,87.5 91.8333,88.5 92.5,89.5C 92.6567,90.8734 92.49,92.2068 92,93.5C 91.6667,93.1667 91.3333,92.8333 91,92.5C 89.9384,93.8993 88.605,94.8993 87,95.5C 84.762,92.8498 82.9287,93.1831 81.5,96.5C 80.2072,94.3635 80.2072,92.3635 81.5,90.5C 82.7997,91.1079 84.1331,91.7745 85.5,92.5C 86.1667,92.1667 86.8333,91.8333 87.5,91.5C 86.8728,90.5832 86.5394,89.5832 86.5,88.5C 88.0618,88.2671 89.3951,87.6005 90.5,86.5 Z"/></g>
<g><path style="opacity:1" fill="#eb8c38" d="M 68.5,85.5 C 71.4424,87.3523 73.4424,90.019 74.5,93.5C 75.6046,91.3886 77.2712,90.0553 79.5,89.5C 79.5,91.8333 79.5,94.1667 79.5,96.5C 75.5,96.8333 75.5,97.1667 79.5,97.5C 79.5,99.1667 79.5,100.833 79.5,102.5C 72.1613,102.411 65.9947,99.7444 61,94.5C 60.51,93.2068 60.3433,91.8734 60.5,90.5C 64.2502,90.4962 64.9169,89.4962 62.5,87.5C 64.8863,87.7413 66.8863,87.0746 68.5,85.5 Z"/></g>
<g><path style="opacity:1" fill="#f1ab6e" d="M 91.5,78.5 C 91.8749,81.8773 92.2082,85.5439 92.5,89.5C 91.8333,88.5 91.1667,87.5 90.5,86.5C 90.7529,84.1727 90.0863,82.1727 88.5,80.5C 89.3569,79.5748 90.3569,78.9081 91.5,78.5 Z"/></g>
<g><path style="opacity:1" fill="#fceadb" d="M 86.5,88.5 C 86.5394,89.5832 86.8728,90.5832 87.5,91.5C 86.8333,91.8333 86.1667,92.1667 85.5,92.5C 84.1331,91.7745 82.7997,91.1079 81.5,90.5C 81.1583,89.6618 80.4916,89.3284 79.5,89.5C 77.2712,90.0553 75.6046,91.3886 74.5,93.5C 73.4424,90.019 71.4424,87.3523 68.5,85.5C 67.1769,83.5286 65.8435,81.5286 64.5,79.5C 65.6888,78.5713 67.0222,78.238 68.5,78.5C 69.968,78.3057 70.6347,76.9724 70.5,74.5C 73.8963,73.0704 76.8963,73.7371 79.5,76.5C 81.8669,75.8954 84.2003,75.562 86.5,75.5C 88.8008,76.2688 88.9675,77.2688 87,78.5C 84.9361,77.4086 82.7695,77.2419 80.5,78C 81.9494,79.117 83.6161,79.7837 85.5,80C 82.975,80.8959 80.8083,80.3959 79,78.5C 77.8333,79.6667 76.6667,80.8333 75.5,82C 76.3366,83.0113 76.67,84.1779 76.5,85.5C 78.451,85.2267 79.951,85.8934 81,87.5C 82.4177,84.999 83.4177,85.3323 84,88.5C 84.9772,87.2264 85.8106,87.2264 86.5,88.5 Z"/></g>
<g><path style="opacity:1" fill="#f9d6b9" d="M 66.5,75.5 C 67.1667,75.1667 67.8333,74.8333 68.5,74.5C 68.5,75.8333 68.5,77.1667 68.5,78.5C 67.0222,78.238 65.6888,78.5713 64.5,79.5C 65.8435,81.5286 67.1769,83.5286 68.5,85.5C 66.8863,87.0746 64.8863,87.7413 62.5,87.5C 60.3034,84.4371 59.9701,81.1038 61.5,77.5C 62.2389,77.631 62.9056,77.4643 63.5,77C 62.7636,73.8012 63.5969,73.6345 66,76.5C 66.3988,76.2716 66.5654,75.9382 66.5,75.5 Z"/></g>
<g><path style="opacity:1" fill="#ee984f" d="M 70.5,74.5 C 70.6347,76.9724 69.968,78.3057 68.5,78.5C 68.5,77.1667 68.5,75.8333 68.5,74.5C 69.1667,73.1667 69.8333,73.1667 70.5,74.5 Z"/></g>
<g><path style="opacity:1" fill="#ee9b52" d="M 63.5,69.5 C 62.1435,71.4988 62.8101,72.6655 65.5,73C 66.2524,73.6708 66.5858,74.5041 66.5,75.5C 66.5654,75.9382 66.3988,76.2716 66,76.5C 63.5969,73.6345 62.7636,73.8012 63.5,77C 62.9056,77.4643 62.2389,77.631 61.5,77.5C 59.819,74.418 59.1524,71.0847 59.5,67.5C 61.3797,67.2291 62.713,67.8958 63.5,69.5 Z"/></g>
<g><path style="opacity:1" fill="#eb8d3b" d="M 81.5,55.5 C 82.552,55.3505 83.552,55.5172 84.5,56C 86.0432,57.7137 87.7099,59.2137 89.5,60.5C 90.1667,60.3333 90.8333,60.1667 91.5,60C 89.8588,58.871 88.8588,57.371 88.5,55.5C 88.7352,54.9033 89.2352,54.5699 90,54.5C 101.182,59.5246 106.182,68.1913 105,80.5C 104.282,84.6549 102.782,88.4882 100.5,92C 94.7429,97.3772 88.0762,100.877 80.5,102.5C 80.5,100.833 80.5,99.1667 80.5,97.5C 84.913,97.3129 89.2464,96.6462 93.5,95.5C 93.2865,93.8561 93.6198,92.3561 94.5,91C 93.9558,90.2828 93.2891,89.7828 92.5,89.5C 92.2082,85.5439 91.8749,81.8773 91.5,78.5C 92.1495,76.5648 92.4828,74.5648 92.5,72.5C 91.5,72.5 90.5,72.5 89.5,72.5C 89.8545,69.9333 90.5212,67.4333 91.5,65C 91.1377,63.7753 90.6377,62.6086 90,61.5C 86.0987,65.6371 81.2653,67.9705 75.5,68.5C 74.791,67.596 73.791,67.2627 72.5,67.5C 72.5,66.5 72.5,65.5 72.5,64.5C 70.2495,64.1814 68.2495,64.6814 66.5,66C 68.9316,67.0875 68.5983,67.5875 65.5,67.5C 64.3778,66.0527 62.8778,65.0527 61,64.5C 59.6132,66.3013 58.1132,66.9679 56.5,66.5C 59.9268,60.5719 64.7602,56.2386 71,53.5C 73.5162,54.7728 76.0162,54.7728 78.5,53.5C 79.2652,54.6119 80.2652,55.2786 81.5,55.5 Z"/></g>
<g><path style="opacity:1" fill="#f6caa4" d="M 75.5,68.5 C 72.4552,68.5079 69.4552,68.8413 66.5,69.5C 66.1667,68.8333 65.8333,68.1667 65.5,67.5C 68.5983,67.5875 68.9316,67.0875 66.5,66C 68.2495,64.6814 70.2495,64.1814 72.5,64.5C 72.5,65.5 72.5,66.5 72.5,67.5C 73.791,67.2627 74.791,67.596 75.5,68.5 Z"/></g>
<g><path style="opacity:1" fill="#fef9f4" d="M 91.5,78.5 C 90.3569,78.9081 89.3569,79.5748 88.5,80.5C 90.0863,82.1727 90.7529,84.1727 90.5,86.5C 89.3951,87.6005 88.0618,88.2671 86.5,88.5C 85.8106,87.2264 84.9772,87.2264 84,88.5C 83.4177,85.3323 82.4177,84.999 81,87.5C 79.951,85.8934 78.451,85.2267 76.5,85.5C 76.67,84.1779 76.3366,83.0113 75.5,82C 76.6667,80.8333 77.8333,79.6667 79,78.5C 80.8083,80.3959 82.975,80.8959 85.5,80C 83.6161,79.7837 81.9494,79.117 80.5,78C 82.7695,77.2419 84.9361,77.4086 87,78.5C 88.9675,77.2688 88.8008,76.2688 86.5,75.5C 84.2003,75.562 81.8669,75.8954 79.5,76.5C 76.8963,73.7371 73.8963,73.0704 70.5,74.5C 69.8333,73.1667 69.1667,73.1667 68.5,74.5C 67.8333,74.8333 67.1667,75.1667 66.5,75.5C 66.5858,74.5041 66.2524,73.6708 65.5,73C 62.8101,72.6655 62.1435,71.4988 63.5,69.5C 64.6522,70.625 65.6522,70.625 66.5,69.5C 69.4552,68.8413 72.4552,68.5079 75.5,68.5C 81.2653,67.9705 86.0987,65.6371 90,61.5C 90.6377,62.6086 91.1377,63.7753 91.5,65C 90.5212,67.4333 89.8545,69.9333 89.5,72.5C 90.5,72.5 91.5,72.5 92.5,72.5C 92.4828,74.5648 92.1495,76.5648 91.5,78.5 Z"/></g>
<g><path style="opacity:1" fill="#fcebdd" d="M 71.5,56.5 C 73.5,56.8333 75.5,57.1667 77.5,57.5C 77.5,58.5 77.5,59.5 77.5,60.5C 74.0306,61.1128 72.0306,59.7794 71.5,56.5 Z"/></g>
<g><path style="opacity:1" fill="#fdf4ed" d="M 88.5,55.5 C 88.8588,57.371 89.8588,58.871 91.5,60C 90.8333,60.1667 90.1667,60.3333 89.5,60.5C 87.7099,59.2137 86.0432,57.7137 84.5,56C 83.552,55.5172 82.552,55.3505 81.5,55.5C 81.62,54.4138 82.2867,53.7472 83.5,53.5C 85.3002,53.9024 86.9668,54.5691 88.5,55.5 Z"/></g>
<g><path style="opacity:1" fill="#d39c6d" d="M 79.5,115.5 C 79.2155,117.415 79.5489,119.081 80.5,120.5C 80.2172,121.289 79.7172,121.956 79,122.5C 78.2042,119.961 78.3709,117.628 79.5,115.5 Z"/></g>
<g><path style="opacity:0.506" fill="#7e95af" d="M -0.5,-0.5 C -0.166667,-0.5 0.166667,-0.5 0.5,-0.5C 0.5,52.5 0.5,105.5 0.5,158.5C 53.5,158.5 106.5,158.5 159.5,158.5C 159.5,158.833 159.5,159.167 159.5,159.5C 106.167,159.5 52.8333,159.5 -0.5,159.5C -0.5,106.167 -0.5,52.8333 -0.5,-0.5 Z"/></g>
</svg>
