<svg xmlns="http://www.w3.org/2000/svg" viewBox="0 0 48 48"><path fill="#d1d1d1" d="M0 0h48v48H0z"/><path d="M10.6 10.4H10v28.4h10.8v-.3c0-.1 0-.2-.1-.3H10.6V11h12.1c0-.2.1-.4.1-.6H10.6zm26.8 0h-13c-.1.1-.1.2-.1.3 0 .1.1.3.1.3h12.9v27.1h-12c0 .1.1.2.1.3 0 .1 0 .2.1.3H38V10.4h-.6z" fill="#9c9da0"/><path d="m19.4 30.4-.3-.3c-.7-.5-1.5-.9-2.4-1.1-.9-.4-1.6-1-2.1-1.8-.6-1-.9-2.2-.7-3.4-.1.1-.1.2-.2.3-.7 1.4-.6 3.1.3 4.4.9 1.4 1.8 1.1 3.5 2.4 1.8 1.6 3.1 3.7 3.5 6 .4 1.8.2 3.7-.4 5.5H25c.3-.7.4-1.4.5-2.1 0-1.1-.2-2.2-.6-3.2-.3-.7-.5-1.4-.5-2.1 0-.5.1-1 .3-1.4.1-.2.5-.7 2.8-1.4 1.2-.4 1.4-.3 2.4-.7.6-.2 1.2-.4 1.7-.7.8-.5 1.4-1.3 1.8-2.1.2-.4.4-.7.3-.9s-1.1 1-1.3 1.3c-.4.5-.9.9-1.5 1.2-.9.3-1.8.5-2.8.5-1.1 0-2.1.2-3.1.4-1 .4-1.8 1-2.5 1.9-.1.1-.1.2-.2.3 0-.1-.1-.2-.1-.4-.2-.8-.4-1.7-.5-2.5-.2-1.3 0-2.6.7-3.7.5-.7 1.1-1.2 1.9-1.5.5-.3 1.1-.4 1.7-.4h.5c.3-.1.6-.2.8-.4.3-.3.7-.6.9-.9.3-.4.5-.6.9-1.3s.7-1 .8-1.1 1-1 1.5-1h.2c.1 0-.1-.2-.2-.3-.2-.1-.4-.1-.5 0-.4.1-.7.3-.9.6L28.8 22c-.3.4-.7.7-1.2 1-.4.2-.8.4-1.3.5-.4.1-.9.2-1.4.2v-.3c.1-.7.3-1.3.7-1.8.3-.7.4-1.5.3-2.3 0-1.7-.5-3.3-1.2-4.9-.3-.5-.6-1.1-.7-1.7-.2-.6-.2-1.3-.1-1.9.4-1.2 1.3-2.1 2.5-2.5-.1-.1-.1-.1-.2-.1-.2-.1-.4-.2-1.1.2-.6.3-1.1.7-1.4 1.2-.5.8-.7 1.6-.7 2.5 0 1.4.5 1.7 1.2 4.5.3.9.5 1.9.4 2.9-.1.9-.5 1.7-1.1 2.4 0-.1 0-.1-.1-.2-.3-.6-.6-1.2-1-1.7-.9-1.1-1.2-.8-1.9-1.6-.8-1-.6-2.4-.8-2.4 0 0-.1 0-.1.3-.2.5-.2 1-.1 1.5.3.9.7 1.8 1.3 2.5.6.9 1 1.9 1.1 2.9 0 1.1-.7 1.6-1.4 2.9-.8 1.3-1.1 2.8-1.1 4.3z" fill="#a95f2a"/><path d="M24 6.8c-.1.6 0 1.2.3 1.7.5-.3.9-.8 1.1-1.4.1-.6 0-1.2-.3-1.7-.5.4-.9.9-1.1 1.4zm2.1 4.1c-.7.9-1.1 2-1.1 3.1 1.1 0 2.2-.5 3-1.2.7-.9 1.1-2 1.1-3.1-1.1 0-2.2.4-3 1.2zm-8.3 7.5c-.9-.1-1.8.1-2.6.6.5.8 1.2 1.3 2.1 1.6.9.1 1.8-.1 2.6-.5-.5-.8-1.3-1.4-2.1-1.7zm3.5-8.9c-.7-.2-1.5-.1-2.1.2.3.7.9 1.2 1.6 1.5.7.2 1.5.1 2.1-.2-.4-.7-.9-1.2-1.6-1.5zM18 14.2c-.6-.2-1.4-.2-2 0 .2.6.7 1.2 1.3 1.5.6.2 1.4.2 2 0-.3-.6-.7-1.2-1.3-1.5zm4.5 1.7c0-.8-.3-1.5-.8-2.1-.6.5-.9 1.2-1 2 0 .8.3 1.5.8 2.1.5-.5.9-1.2 1-2zm-3.9 10.7c0-.9-.4-1.8-1-2.5-.7.6-1.1 1.4-1.2 2.3 0 .9.4 1.8 1 2.5.6-.6 1.1-1.4 1.2-2.3zm-6-1.4c-.4-.5-.9-.9-1.6-1.1-.1.6-.1 1.3.2 1.9.4.5.9.9 1.5 1 .2-.6.1-1.2-.1-1.8zm1.7 7.8c1.1-.2 2.1-.7 2.8-1.5-.9-.5-2-.8-3.1-.7-1.1.2-2.1.7-2.8 1.5.9.6 2 .8 3.1.7zm13.6-14.1c0 .9.4 1.8 1 2.5.7-.6 1.1-1.4 1.2-2.3 0-.9-.4-1.8-1-2.5-.6.5-1.1 1.4-1.2 2.3zm-2.5 10c0 .7.3 1.4.8 2 .5-.5.9-1.2 1-1.9 0-.7-.3-1.4-.8-2-.6.5-.9 1.2-1 1.9zm5.3-.7c-.1.6.1 1.3.4 1.8.5-.3.9-.9 1.1-1.5.1-.6-.1-1.3-.4-1.8-.5.4-.9.9-1.1 1.5zm4.2.4c-.6.3-1 .8-1.2 1.4.6.2 1.2.3 1.8.1.6-.3 1-.8 1.2-1.4-.5-.2-1.2-.2-1.8-.1zM32.4 32c-1 0-1.9.3-2.7.9.6.8 1.5 1.3 2.4 1.5 1 0 1.9-.3 2.7-.9-.6-.8-1.4-1.3-2.4-1.5zm-.8-10.1c-.9.1-1.7.6-2.3 1.3.7.6 1.6.9 2.5 1 .9-.1 1.7-.6 2.3-1.3-.7-.6-1.6-1-2.5-1zm1.2-3c-.4.5-.7 1.1-.7 1.8.7 0 1.3-.2 1.9-.6.4-.5.7-1.1.7-1.8-.7 0-1.3.2-1.9.6z" fill="#009992"/></svg>