<?xml version="1.0" encoding="UTF-8"?>
<!DOCTYPE svg PUBLIC "-//W3C//DTD SVG 1.1//EN" "http://www.w3.org/Graphics/SVG/1.1/DTD/svg11.dtd">
<svg xmlns="http://www.w3.org/2000/svg" version="1.1" width="160px" height="160px" style="shape-rendering:geometricPrecision; text-rendering:geometricPrecision; image-rendering:optimizeQuality; fill-rule:evenodd; clip-rule:evenodd" xmlns:xlink="http://www.w3.org/1999/xlink">
<g><path style="opacity:1" fill="#04336a" d="M -0.5,-0.5 C 52.8333,-0.5 106.167,-0.5 159.5,-0.5C 159.5,52.8333 159.5,106.167 159.5,159.5C 106.167,159.5 52.8333,159.5 -0.5,159.5C -0.5,106.167 -0.5,52.8333 -0.5,-0.5 Z"/></g>
<g><path style="opacity:1" fill="#f5f6f9" d="M 70.5,29.5 C 101.642,27.4731 121.142,41.4731 129,71.5C 130.818,103.037 116.318,122.204 85.5,129C 55.6321,129.795 37.4654,115.629 31,86.5C 29.085,56.9331 42.2516,37.9331 70.5,29.5 Z"/></g>
<g><path style="opacity:1" fill="#183d72" d="M 73.5,36.5 C 74.5,36.5 75.5,36.5 76.5,36.5C 76.5,40.5 76.5,44.5 76.5,48.5C 73.5828,50.9123 70.7494,53.579 68,56.5C 67.1628,60.2946 67.4961,63.9613 69,67.5C 71.4878,69.7433 74.1544,71.7433 77,73.5C 77.6667,77.1667 77.6667,80.8333 77,84.5C 73.677,86.8242 70.677,89.4908 68,92.5C 67.3333,95.8333 67.3333,99.1667 68,102.5C 70.6381,105.317 73.6381,107.65 77,109.5C 77.499,113.821 77.6657,118.154 77.5,122.5C 51.4613,119.459 37.7946,104.792 36.5,78.5C 37.475,57.7307 47.8083,43.8974 67.5,37C 69.4727,36.5045 71.4727,36.3379 73.5,36.5 Z"/></g>
<g><path style="opacity:1" fill="#4c6d94" d="M 73.5,36.5 C 74.5676,35.5655 75.901,35.2322 77.5,35.5C 77.8182,40.0323 77.4849,44.3656 76.5,48.5C 76.5,44.5 76.5,40.5 76.5,36.5C 75.5,36.5 74.5,36.5 73.5,36.5 Z"/></g>
<g><path style="opacity:1" fill="#153b70" d="M 87.5,122.5 C 85.8333,122.5 84.1667,122.5 82.5,122.5C 82.5,118.833 82.5,115.167 82.5,111.5C 82.5106,109.983 83.1772,108.816 84.5,108C 91.9546,104.643 94.1212,99.1429 91,91.5C 88.0648,89.3826 85.3981,87.0492 83,84.5C 80.4725,76.8345 82.8059,71.5012 90,68.5C 92.7875,64.3305 93.1209,59.9971 91,55.5C 88.48,52.9211 85.8134,50.5878 83,48.5C 82.1725,44.1287 82.3391,39.7953 83.5,35.5C 110.128,40.4215 123.294,56.4215 123,83.5C 119.708,104.291 107.875,117.291 87.5,122.5 Z"/></g>
<g><path style="opacity:1" fill="#f6f7f9" d="M 68.5,41.5 C 69.8333,41.5 71.1667,41.5 72.5,41.5C 72.6602,43.1992 72.4935,44.8659 72,46.5C 63.3013,50.9101 60.3013,57.9101 63,67.5C 65.0261,71.0262 67.8595,73.6929 71.5,75.5C 72.6474,77.7649 72.8141,80.0982 72,82.5C 62.3683,87.7281 59.7016,95.3948 64,105.5C 66.3706,108.206 69.0372,110.539 72,112.5C 72.4935,114.134 72.6602,115.801 72.5,117.5C 53.0607,112.293 42.894,99.6263 42,79.5C 44.2237,81.1953 46.7237,82.1953 49.5,82.5C 55.1325,80.9008 60.7992,79.4008 66.5,78C 63.4363,75.1445 59.7697,73.6445 55.5,73.5C 50.8222,74.8416 46.1555,76.1749 41.5,77.5C 42.9103,59.7624 51.9103,47.7624 68.5,41.5 Z"/></g>
<g><path style="opacity:1" fill="#f7f8fa" d="M 87.5,41.5 C 106.43,45.777 116.096,57.4437 116.5,76.5C 114.38,75.1091 112.047,74.4424 109.5,74.5C 104.282,76.2673 98.9491,77.7673 93.5,79C 95.9634,81.565 98.9634,83.065 102.5,83.5C 107.816,81.9474 113.149,80.614 118.5,79.5C 117.083,98.9195 107.083,111.586 88.5,117.5C 87.1667,115.5 87.1667,113.5 88.5,111.5C 97.0492,106.355 99.5492,99.0216 96,89.5C 93.6294,86.794 90.9628,84.4606 88,82.5C 87.3333,80.1667 87.3333,77.8333 88,75.5C 96.9682,70.6047 99.6349,63.2714 96,53.5C 93.6294,50.794 90.9628,48.4606 88,46.5C 87.5065,44.8659 87.3398,43.1992 87.5,41.5 Z"/></g>
<g><path style="opacity:1" fill="#a8b8cb" d="M 82.5,111.5 C 82.5,115.167 82.5,118.833 82.5,122.5C 84.1667,122.5 85.8333,122.5 87.5,122.5C 85.7354,123.461 83.7354,123.795 81.5,123.5C 81.1832,119.298 81.5166,115.298 82.5,111.5 Z"/></g>
</svg>
