<svg version="1.1" id="лого" xmlns="http://www.w3.org/2000/svg" x="0" y="0" viewBox="0 0 48 48" xml:space="preserve"><style>.st79{font-family:&apos;ProximaNova-LightIt&apos;}.st80{font-size:4.368px}</style><g id="KOGK"><path fill="#f4f4f4" d="M0 0h48v48H0z"/><text transform="matrix(1.19 0 0 1 5.691 28.652)" class="st79 st80">Коршуновский</text><text transform="matrix(1.19 0 0 1 18.244 33.888)" class="st79 st80">ГОК</text><path d="M19.68 19.541c-.347 1.163-1.275 3.024-2.715 3.088-1.69.08-1.6-1.92-1.136-3.333 2.134-6.187 8.208-8.203 12.123-8.533-3.259 1.466-6.837 3.93-8.283 8.773l.011.005z" fill="#ababab"/><path d="M24.437 19.541c-.346 1.163-1.274 3.024-2.714 3.088-1.691.08-1.6-1.92-1.136-3.333 2.133-6.187 8.208-8.203 12.122-8.533-3.258 1.466-6.837 3.93-8.282 8.773l.01.005z" fill="#3a95c2"/><path d="M29.253 19.53c-.346 1.163-1.274 3.014-2.714 3.089-1.691.08-1.6-1.92-1.136-3.334 2.133-6.186 8.208-8.202 12.122-8.533-3.258 1.461-6.832 3.925-8.282 8.768l.01.01z" fill="#313132"/></g></svg>