<svg xmlns="http://www.w3.org/2000/svg" viewBox="0 0 480 480" shape-rendering="geometricPrecision" text-rendering="geometricPrecision" image-rendering="optimizeQuality" fill-rule="evenodd" clip-rule="evenodd"><path fill="#a00000" d="M0 0h480v480H0z"/><ellipse cx="240" cy="240" rx="163" ry="79" fill="#be4e45"/><g fill="#fbe493" fill-rule="nonzero"><path d="M240 316c-89 0-161-34-161-76s72-76 161-76c88 0 160 34 160 76s-72 76-160 76zm0-163c-92 0-165 39-165 87s73 87 165 87c91 0 165-39 165-87s-74-87-165-87z"/><path d="M180 229s-1 0 0-3c1-4 10-8 10-8-1 3-3 6-3 8-2 2-4 5-7 3zm10-25c-8-2-13 5-17 13-5 15-5 14-13 33-2 3-4 5-5 5-2-1-1-6 1-11 3-6 5-10 12-19l-1-1c-4 5-10 7-7 2 2-4 3-7 5-11 2-6-2-7-10-5l1-1c41-18 83-20 121-10-3 7-10 23-10 23 0 1-1 4-1 4-4 4-8 6-7 1l8-20h-5l-4 12h-7l5-12h-5l-7 17c-3 3-9 6-12 6-2 0-5-1-3-7 0-3 1-7 4-11 2-5 3-7 5-9 5-6 10-3 6 2-1 1-1 2-2 3l3 3c5-4 6-13-1-13s-13 6-16 12c-3 4-4 10-5 14 0 0-2 2-4 3-4 3-6 2-4-3l7-17h-5l-1 3c0-1-1-1-1-1-3-3-10-2-14 5h-3c-1 1-2 1-2 1 1-4-1-10-6-11zm92 14s-2 8-7 12c-3 2-6 1-5-2 0-1 5-13 6-16 0 6 6 6 6 6zm-3-8s2-1 2 0c3 2 2 7 2 7s-4-1-5-2c0-2 0-4 1-5zm-69 17s-2 1-3 2c-2 1-3 1-4 1-1-1-2-3-1-8 0 0 2-5 4-8 3-5 7-6 9-3 0 0-6 16-5 16zm-75 14c-7 14-12 14-14 13s-4-5 1-15c3-5 5-9 11-14 7-7 16-14 16-14s-8 20-14 30zm61-24l4-2c-2 4-4 9-3 12 0 6 5 6 10 4l2-2c1 5 5 5 14-3 1 7 6 6 7 6 3 0 9-2 13-6l-3 6h6l5-12h6c-1 4-2 5-3 7-1 4 1 5 2 5 4 0 6-1 10-4 0 6 8 5 12 3 0 0 7-4 9-13 0 0 3 0 4-2l-4 10c-4 10 5 6 9 3 1 0 3-1 3-1-2 9 10 2 12-1 0 0-1 6 3 5 4 0 7-2 11-7-5 5-11 7-8 1l7-19h-5l-7 18c-2 2-2 2-5 4-2 1-4 1-2-4l7-17h-5l-7 17c-2 2-4 3-6 4s-4 1-2-3l8-18h-6l-1 2c-1 5-6 6-6 6 0-3-1-9-6-8-2 0-3 1-4 2l5-12c-44-21-89-9-125 9l7-17c-1 0-38-1-38-1l-4 6h33l-6 14-2 2s-28 14-30 35c-1 12 8 11 15 6 4-3 9-9 13-18 5-11 10-23 10-23s1-1 4-1 0 6-1 7l-4 10c-2 5 2 7 8 3 1 0-9 9-11 18 0 5 1 6 2 7 3 3 11-1 15-11l12-30s2-4 4-6c2-3 4-3 5-3 4 2 1 11 1 11-4 3-11 6-12 10 0 1-1 7 6 6 9-2 12-15 12-15z"/><path d="M361 267s-4-1-4-5c0-2 2-3 3-2 3 2 1 7 1 7zm-10 13c-3 0-2-4-1-5 1-4 3-9 6-14-1 5 3 7 5 7 0 0-5 13-10 12zm-6-15c1-7-3-12-7-12-8 0-12 7-15 15-6 13-14 33-14 33-2 4-4 4-5 4-1-1-1-2-1-5 1-3 2-8 10-18 2-3 4-6 1-7 0 0 3-4 3-9s-2-9-3-11c-3-8-4-10 4-10h40l-8 18c-2 1-5 2-5 2zm-10 11c-1 2-3 5-5 4-1 0-1-2-1-2 0-6 10-10 10-10-1 5-3 7-4 8zm-62 2c-1 1-4 2-2-4h-5c0 1-1 2-1 4 0 0-1 1-3 2 0 0-2 0-1-3l6-13c2-6-2-6-5-4-3 1-5 2-5 2s3-4-1-4c-3 0-7 1-10 3l4-8s13-7 37-4c-4 0-8 2-11 8-1 4-1 9 1 12 2 1 5 1 5 1s-4 6-9 8zm-38-2c0 1-10 7-7 1l2-6c4-8-7-4-7-4v-1c6-4 18-10 21-12l-9 22zm-24-17h-3c-4-2-5-7-3-10 2-2 5-1 5 0 3 3 1 10 1 10zm155 9c1-11-7-12-10-8l8-20h-46c-3 0-7 0-8 5-1 4 0 8 2 13 1 3-1 10-1 12-2 7-5 9-5 10-1 1-7 3-6-5 0 0 1-4 1-6 2-3 4-10 9-10v-1c-5-1-9 2-11 5-5 6-3 13-3 13s-12 9-7-1l8-18h-6l-4 10c-9 3-7-5-7-5 1-6 5-13 11-12 2 1 3 1 4 3l1-1c-1-2-4-4-7-5-14-4-22-3-29-2-15 3-26 11-36 19l3-7c-7 3-10 2-10 2 1-5 1-14-5-15-5-1-8 3-9 5-2 4-2 11 7 12-2 9-5 14-7 16-3 5-6 6-9 5-5-1-5-5-5-11 0-4 5-25 16-30 5-2 8-1 10 0l2 2 1-1c0 1-2-4-7-5-2 0-5 0-7 1-8 2-15 7-19 20 0 1-2 8-1 17 2 6 6 8 7 8 2 1 9 3 16-4 2-2 5-6 8-11 1-4 2-6 2-6l3-1s-6 16-9 21h6l5-13s5-2 4 2c-2 4-1 3-3 7-2 5 4 5 11 0l-1 4h4l8-18s1-1 3-2c2 0 5-2 4 1l-8 19h5l7-18c8-4 6 0 6 1l-5 11c-3 6 0 8 7 5l1-1c2 6 13-2 20-10l1-1-3 7c-2 7 3 8 13 2 0 0 2 4 7 4 3 0 7-3 9-5 0 0 2 0-1 4s-6 6-8 10c-4 9-1 14 1 15 3 0 7-1 13-13 0 0 11-25 15-33 2-6 6-6 6-5 4 2 2 11 2 11-16 6-15 18-7 16 3-1 10-6 12-16 0 0 3 0 4-1 0 0-1 3-3 7-2 6-1 10 4 10 12 1 16-13 16-13s3 0 5-2v-1c-2 2-5 2-5 2zm-27-61h2s1 0 1 1-1 1-1 1h-2v-2zm0 4h2l1 4h2l-1-4s1-1 1-2c0-2-1-3-2-3h-5v9h2v-4z"/></g><path d="M324 204c4-1 6-6 4-10-1 3-3 6-5 7-1 0-3 1-8 0 2 2 5 4 9 3zm17 0c3 0 6 3 6 6 0 4-3 6-6 6-4 0-7-2-7-6 0-3 3-6 7-6zm0 13c4 0 7-3 7-7s-3-7-7-7-8 3-8 7 4 7 8 7z" fill="#fbe493" fill-rule="nonzero"/></svg>