<svg id="Слой_1" data-name="Слой 1" xmlns="http://www.w3.org/2000/svg" viewBox="0 0 48 48"><defs><style>.cls-2{fill:#c3a675;fill-rule:evenodd}</style></defs><g id="KTSB"><path fill="#245f9c" d="M0 0h48v48H0z"/><path class="cls-2" d="M32.22 20.67l-.01.02.02.03v-.02l-.01-.03zm-4.6 14.43l9.54-13.36-.08-.1-.07-.1-.07-.09-.07-.08-8.92 12.47v.11l-.02.12-.02.14-.04.15-.05.16-.06.18-.07.19-.07.21zm-13.58-9.37l.1.1.09.09.06.08.06.07 1.68-2.34-.02-.37L16 23l-1.96 2.73zm2.85 4.04l1.01-1.39-.08-.09-.07-.1-.15-.2-1.2 1.68.21.03.19.05h.05l.03.01.01.01zm10.87 3.69l2.95-4.14-.3.27-.31.25-.32.23-.34.22-2.7 3.77.12-.08.1-.08.09-.08.08-.07.08-.06.08-.06.06-.04.06-.04.06-.04.05-.03.05-.02.04-.01.04-.01h.08l.03.02zm-11.81-3.81l1.44-2-.14-.21-.12-.21-1.72 2.39.27.02.27.01zm4.58 2.3l.72-1.01-.21-.09-.11-.05-.1-.06-.94 1.32.11-.04.11-.02.09-.02.09-.02h.12l.12-.01zm-2.42 3.07l-.16.15-.15.15-.14.13-.12.13-.12.11-.11.11-.11.1-.11.09-.73 1.01.13.03.12.03.12.02.12.02 2.85-3.98-.12.1-.09.1-.1.11-.09.11-.17.23-.16.24-.18.25-.09.12-.1.13-.11.13-.12.13-.12.12-.14.13zm-2.02 1.34l-.18.02-.09.02h-.07l-.25.35.11.04.11.04.23.08.42-.6-.14.03-.14.02zm-.93-4.16l-.12.02-.11.02-.09.01-.08.01-.08.01-.06.01-.06.01-.04.01-.04.01-.03.01h-.02l-.02.01h-.02l.01.01h.02l.02.01.03.03.07.04.09.05.13.05.13.07.27-.39zM17 31.09l-.19.15-.17.14-.15.13-.15.12-.15.11-.14.1-.15.09-.14.08-.49.7.11.03.12.03.13.03.13.02L17 31.09zm-.27 1.76h.04l2.33-3.24-.18-.16-.16-.15-.65.9-.26.36-1.65 2.31h.25l.14-.01.14-.01zm3.75-2.28l-.19-.11-.21-.12-1.53 2.14.2-.06.19-.06.17-.06.17-.06 1.2-1.67zm-2-1.53l-.16-.19-.17-.17-.84 1.2.12.03.12.04.11.04.1.04.72-.99zm3.14 2.06l-.64.89.07.01.06.01.06.02.04.02.04.01.02.01h.02v.01l-.01.01h-.01l-.03.02-.05.03-.08.05-.1.05-.11.07-.13.09-.15.08-3.27 4.58.13-.01.16-.03.16-.02.17-.04 4.1-5.71-.23-.07-.11-.04-.11-.04zm6.21.02l-3.08 4.3-.03.16-.02.16-.02.17v.39l3.97-5.54-.2.09-.21.09-.41.18zm-1.86.46l-.3.04-.31.02-1.02 1.44.03-.01.03-.01.05-.01.14-.02.13-.03.13-.01h.12l1-1.41zm1.23-.26l-.34.09-.34.08-1.07 1.48.06.01.06.01h.05l.04.01.04.01h.02l.02.01-.02.02-.02.03-.03.03-.04.05-.04.06-.05.07-.05.07-.06.09-.05.1-.06.11-.06.12-.06.12-.05.14-.05.14-.05.16 2.15-3.01zm-4.74.05l-3.92 5.49.16-.04.17-.05.18-.04.18-.06 3.71-5.18-.12-.03-.12-.03-.24-.06zm.91.2l-3.5 4.87.22-.09.21-.1.21-.1.22-.12 3.15-4.4-.27-.02-.12-.02-.12-.02zm1.37.11h-.2l-.21-.01-2.58 3.59.27-.24.25-.24.23-.22.22-.22.21-.21.2-.19.19-.18.18-.17 1.37-1.91h-.13zm-4.97-1.56l-.19-.14-.19-.14-2.08 2.93.32-.05.17-.05.16-.04 1.81-2.51zm11.29 1.49h.02l.02.02.03.02 4.79-6.72v-.04.02h.01l.01.01 1.82-2.55-.18-.15-.17-.16-10.25 14.33-.03.21-.02.22-.01.22.01.23 3.97-5.58-.01-.03v-.02l-.01-.02v-.01zM19.83 11.16l.9-1.25-.14.12-.14.11-.12.13-.11.13-.11.15-.05.08-.05.09-.05.1-.04.11-.05.11-.04.12zm21.86 13.73l-.03-.01-.03-.03-.64.93.11.01.11.02.12.04.12.05.51-.69-.13-.16-.14-.16zm-3.25-2.03l-.2-.12-.18-.13-1.76 2.45.1.04.11.05.22.08 1.71-2.37zm1.82 1.01l-1.28 1.81.26.03.27.02 1.14-1.61-.19-.13-.2-.12zM27.78 39.23l2.43-3.42.11-.21.05-.11.06-.09.06-.13.06-.14.06-.16.06-.16.06-.17.05-.17.1-.37-3.38 4.73.06.1.07.11.07.09.08.1zm13.2-14.89l-1.02 1.4.06.01h.51l.82-1.15-.19-.14-.18-.12zm-2.2-1.3l-1.65 2.33.24.07.11.03.11.02 1.6-2.22-.21-.11-.2-.12zm.76.41l-1.52 2.12.51.06 1.41-1.94-.2-.12-.2-.12zM27.15 37.86l.03.15.03.14.04.14.05.14 3.77-5.27.04-.26.02-.13.01-.12.01-.11.01-.1v-.19l-4.01 5.61zM16.53 9.97l-.24-.03-.12-.01-.13.01.01.01.01.02.02.04.02.05.03.07.03.07.03.09.03.1.31-.42zm-1.42 26.66l.13-.18-.12.01-.11.01-.08.01h-.18l.01.01h.02l.02.02.05.01.05.03.06.02.07.03.08.03zm21.09-4.15l-.71.96.08.12.08.1.07.08.09.08.54-.79-.04-.13-.04-.14-.04-.14-.03-.14zm.35.92l-.39.57.05.01h.6l.09-.01.07-.01.06-.01.04-.01h.05-.01l-.01-.01-.02-.02-.03-.01-.04-.03-.04-.03-.05-.03-.06-.05-.07-.06-.08-.09-.08-.1-.08-.11zM9.92 23.58l.21-.31-.09-.03-.04-.02-.05-.02-.08-.03-.07-.03-.06-.03-.04-.02-.04-.02h-.03l-.01-.01-.02-.01-.01-.01v.01l.01.02.02.04.02.04.05.09.06.11.07.11.1.12zm3.34-9.41l.03-.07.02-.06.01-.04.01-.03v-.02l.01-.01h-.01v.01l-.01.02-.02.01-.05.06-.06.07-.07.1-.08.11-.1.13-.1.14-.1.16-.11.18-.11.19-.11.2-.1.22-.09.22-.1.24-.08.25 1.09-1.52.01-.11.03-.13.04-.14.03-.09.02-.09zm15.22 25.54l1.14-1.61-.01-.11.01-.11.02-.24.04-.25.06-.25-1.67 2.35.19.11.1.05.12.06zm.82.29l.08.03.05.03.05.02.04.02.02.01.02.01h.01v-.01l.01-.03v-.2l.01-.09v-.11l.01-.12.01-.18.01-.2v-.21l.01-.22-.78 1.08.13.05.13.04.1.04.09.04zm6.72-8.74l-1.01 1.4.06.1.05.08.09.18.02.02.02.02.01.01.01.03.83-1.19-.04-.33-.04-.32zm-.28-2.32v-.09l-.01-.08-1.7 2.38.14.19.14.2 1.51-2.12-.04-.24-.04-.24zm-3.23 1.43l-1.11 1.55.07.09.07.08.08.1.08.1.87-1.22-.01-.21-.01-.1-.01-.1-.01-.08-.01-.08v-.07l-.01-.06zm-.48 2.61l.01.06.02.06.02.1.39-.56.06-.24.04-.24.02-.24.01-.23-.69.95.07.17.05.17zm3.48-5.36l-2.06 2.87.17.16.08.08.08.1 1.86-2.61-.04-.17-.03-.16-.03-.14-.03-.13zm-.36-.93l-2.44 3.39.09.02.11.03.06.02.05.03.07.03.07.04 2.2-3.08-.05-.14-.05-.12-.11-.22zm.9-1.26l-.73 1 .09.02.11.04.12.06.13.07.46-.67-.04-.11-.02-.04-.01-.05-.03-.07-.03-.09-.03-.08-.02-.08zm-23.53-5.48l1.93-2.7-.2-.12-.1-.06-.09-.07-1.74 2.43.09.26.11.26zm-.58 2.93l-1.14 1.57.1.06.09.04.11.04.1.03h.02l.01.01v.01l1.27-1.78h-.28l-.28.02zm-1.46 1.35l.91-1.26h-.03l-.05.01-.08.02-.08.03-.09.04-.15.05-.13.05-.13.03-.49.7.15.17.17.16zM35.89 30l-1.36 1.89.14.21.12.21 1.18-1.63-.02-.17-.02-.17-.02-.17-.02-.17zM17.83 14.64l-4.7 6.57.12.23.12.22 4.54-6.36-.02-.15-.02-.16-.02-.17-.02-.18zm-4.47 10.61l.16.08.07.05.07.05.04.03.04.03 2.28-3.19.05-.48.03-.24.04-.24-2.78 3.91zm28.44-9.32l-.11.16.06-.01h.1l.05-.01h.07v-.01l-.01-.02-.02-.02-.03-.02-.05-.03-.06-.04zm-27.76 7.69l-.05-.1-.07-.1-.07-.11-.09-.09-1.23 1.72.11.03.12.03.23.09 1.05-1.47zm-.6-.6l-.11-.04-.12-.03-.12-.03-.14-.01-1.31 1.82.13.03.12.03.24.05 1.31-1.82zm18.3-5.29l2.17-3.04-.14-.02-.14-.02-.13-.01-.11-.01-1.94 2.72.15.19.14.19zM10.9 27.22l-1.43 2 .22.1.11.04.11.04 1.72-2.42-.16.06-.17.06-.19.07-.21.05zm-1.12.13l-1.02 1.41.19.13.18.13 1.22-1.7-.28.02-.14.01h-.15zm23.19-12.8l-.02-.03-.02-.04v-.04l.01-.05.01-.03.02-.03.03-.03.03-.03.05-.03.05-.03.07-.04.08-.03.42-.59-.12-.01h-.13l-.15-.03-.13-.01-2.32 3.21.09.08.08.09.16.16 1.79-2.49zM7.98 26.94l-.35.51.06.1.06.1.08.11.08.1.51-.76-.21-.07-.11-.04-.12-.05zm5.25-.75l-.13.03-.11.03-.11.03-.1.04-.18.09-.16.1-2.14 2.99.16.03.17.02h.15l.05.02 2.4-3.38zm14.81-13.52l-.03-.02-.02-.03-.04-.05-.03-.06-.04-.06-.04-.08-.03-.09-1.48 2.07.24.05.12.03.12.03 1.55-2.18-.11.1-.09.1-.07.1-.05.09zm7.07 5.36l-1.92 2.68.07.3.07.31 2.19-3.06-.08-.04-.07-.04-.06-.03-.06-.03-.05-.03-.04-.02-.03-.02-.02-.02zm-26.29 9.2l-.67.92.07.1.08.08.09.08.09.08.85-1.17-.25-.04-.26-.05zm15.92-13.02h.17l3.13-4.39-.03.02-.04.02-.32.1-.32.07-2.97 4.18h.38zm9.15-.27l.2-.05.09-.03.09-.01.08-.02.07-.01.07-.01.06-.01.05-.01.05-.01h.04l.04-.01h.06l-.02-.01h-.03l-.06-.02-.08-.02-.1-.02-.11-.03-.14-.03-.14-.02-.22.32zm1.87 3.95l2.07-2.88-.25-.02-.28-.03-2.1 2.93h.11l.14.01h.15l.16-.01zm1.98 1.6l-.07-.06-.09-.08-.09-.07-.11-.08-.55.76.2-.04.18-.04.16-.03.13-.03.24-.33zm-11.85-5.2l2.04-2.84.03-.07.03-.06.04-.07.04-.07.12-.17.11-.15.1-.14.1-.13.09-.13.08-.11.08-.1.07-.1.06-.1.05-.09.09-.17.07-.18.02-.1.02-.09-.02.01-.04.01-.04.01-.06.02-.07.04-.1.03-.1.04-3.32 4.64.25.02.13.02.13.03zM13.72 26.16l-2.44 3.42.27.02.27.01 2.44-3.39-.11-.02-.12-.02-.15-.02h-.16zm26.43-10.05l.52-.71-.22-.09-.22-.09-.64.9h.27l.29-.01zM7.21 26.56l-.05-.04-.05-.03-.03-.02v.01l.02.03.02.06.04.07.04.09.05.11.07.12.07.13.24-.33-.13-.06-.11-.06-.1-.04-.08-.04zm16.64-12.31l2.92-4.07-.36.08-.17.05-.17.06-2.85 3.96.31-.04.32-.04zm17.35 1.84l.25-.34-.12-.06-.06-.03-.08-.03-.08-.04-.08-.04-.4.56h.29l.15-.01.13-.01zm-11.98-.65l3.2-4.47-.15.03-.16.02-.33.06-2.96 4.14.2.11.2.11zm8.88 1.6l.07-.16.08-.14.09-.14.11-.12.13-.1.07-.05.07-.04.09-.04.09-.03.09-.03.1-.02.75-1.08-.12-.03-.12-.03-.12-.02-.12-.01-1.95 2.71.1-.05.11-.05.09-.07.09-.07.08-.09.09-.1.07-.11.06-.13zm-9.62-1.99l2.75-3.88-.33.07-.33.05-2.53 3.57.1.04.11.04.11.05.12.06zm1.44.85l1.45-2.02-.03-.06-.03-.07-.02-.07-.01-.08v-.09l.02-.09.03-.11.06-.1.04-.09.06-.07.11-.14.11-.11.13-.09.13-.09.14-.07.16-.07.16-.07 1.69-2.36v-.03l.01-.03v-.05.01l-.02.02-.02.03-.04.05-.04.05-.04.06-.06.06-.06.07-.15.13-.17.14-.09.06-.1.06-.1.05-.11.04-.06.03-.07.03-3.45 4.82.18.13.19.12zm6.91 1.95l2.08-2.89-.11.01-.1.01-.2.03h-.2l-2.06 2.89.16-.01h.16l.14-.02.13-.02zm-.24 3.24l-.09-.07-.09-.06-.2-.13L33.24 25l-.11.39-.12.38-.14.37-.15.36 3.87-5.41zM16.3 11.76l.94-1.3-.17-.17-.09-.08-.09-.07-.56.78.01.2v.2l-.02.22-.02.22zm-2.93 4.09l-.02-.09-.02-.08-.04-.15-.03-.14-.04-.11-1.35 1.86v.59l.02.2 1.48-2.08zm14.29-1.14l2.32-3.24-.2.06-.19.07-.2.08-.19.1-1.99 2.79.23.07.22.07zM12.17 19l1.61-2.26-.08-.1-.07-.1-.06-.11-.05-.11L12 18.44l.08.27.09.29zm20-5.58l-1.93 2.73.17.15.08.07.08.08 2.14-2.99-.14-.02-.15-.02h-.25zm.88 6.82l3.8-5.32-.24-.03-.13-.01-.14-.01-3.48 4.84.09.27.05.13.05.13zM13.8 22.48l10-13.97V8.4l-.01-.16-.01-.15-.01-.14-.03-.14-10.17 14.23.07.12.05.11.06.11.05.1zm-1.1-2.13l.11.25.13.22L17.8 14l.01-.23.02-.24.02-.23.05-.22h.01v-.01l-2.77 3.88v.25l.02.09.01.09.02.07v.05l.01.03v.04h-.01l-.02-.01-.03-.01-.05-.02-.06-.02-.07-.02-.08-.03-.08-.04-2.1 2.93zm19.97-1.04l3.22-4.48h-.22l-.16-.03h-.16l-2.89 4.04.11.23.1.24zM19.56 15.9l3.32-4.65-.01-.1v-.2l.02-.11.02-.11.03-.11.04-.12.06-.12.06-.13.07-.13.06-.12.06-.1-9.3 13 .03.07.02.08.01.07.02.06.01.1.01.09.01.08.01.07 2.27-3.18.12-.33.12-.33.14-.32.15-.32.16-.3.18-.3.18-.3.19-.28.21-.28.22-.27.22-.26.24-.25.25-.24.26-.23.27-.22.27-.21zm-3.22 9.5l-3.01 4.24.28-.01.28-.02 2.64-3.67-.1-.26-.09-.28zm17.07-3.54l.04.35.02.34 2.83-3.93-.23-.09-.21-.09-2.45 3.42zM17.84 11.7l-2.47 3.45-.05.28-.05.27-.05.25-.03.24 2.78-3.85-.02-.16-.03-.16-.04-.16-.04-.16zm5.57-4.87l-4.25 5.93v.05l-.05.31-.08.3-.08.28-.09.27 4.75-6.62-.06-.17-.04-.07-.02-.07-.03-.06-.02-.05-.02-.05-.01-.05zM16.09 24.3l-3.79 5.31.13.01.14.01h.28l3.37-4.72-.06-.3-.07-.31zm15.89-6.25l.13.21.13.21 2.65-3.7-.27-.03-.26-.02-2.38 3.33zm-15.05 8.78l-.12-.23-.1-.23-2.33 3.24h.56l1.99-2.78zm20.12-7.84l-.07-.04-.09-.05-.12-.06-.11-.05-3.19 4.42v.23l-.02.22-.02.22-.02.21 2.48-3.46-.12-.06-.05-.03-.05-.02-.03-.02-.03-.01-.02-.01v-.01h.01l.02-.02.04-.03.06-.04.09-.04.05-.03.06-.03.07-.03.07-.04.09-.03.08-.03.82-1.16zM17.46 10.8l-1.49 2.09-.1.3-.09.32-.08.33-.09.34 2.09-2.93-.11-.23-.06-.11-.07-.11zm5.22 3.66l2.73-3.84-.14.05-.14.08-.18.1-.17.09-.15.09-.15.09-2.52 3.54.18-.05.17-.05.37-.1zm.59-2.3l-.06-.08-.06-.1-.07-.11-.07-.14-2.57 3.6.21-.11.22-.11.21-.1.23-.1 1.96-2.75zm13.41 14.92v-.02l-.02-.04-.03-.05-.03-.08-.04-.11-.05-.13-.11-.28-.34.45.13.08.11.05.1.04.09.04.04.02.05.01h.03l.02.01.04.01h.01zm5.7-1.02l-.04-.12-.05-.12-.06-.14-.06-.13-.39.54.01.02.12.08.09.07.08.06.08.06.05.04.04.03.05.03.03.02.05.04.04.03.02.01.01.01h.01v-.04l-.01-.04v-.06l-.01-.08-.01-.09-.02-.1-.03-.12z"/><path class="cls-2" d="M25.25 21.73h-2.71a6.35 6.35 0 01-.67 0H21l4.74-7.32a8.59 8.59 0 00-9.61 8.05H9.22L5.54 27.8H17.6a8.64 8.64 0 003.31 2.88l5.79-8.94z"/><path d="M6.61 27.16l2.94-4H11l-.61.86 1.46-.86h1.85L10.75 25l.16 2.16H9.26l-.15-1.48L8 27.16zm10.62 0l2.94-4h1.45L21 24l1.46-.86h1.85L21.38 25l.16 2.16h-1.65l-.15-1.48-1.11 1.48zm-1.33-1.69c-.62.55-1.75.77-2 .49s.14-.76.33-1c.55-.68 1.65-1 2-.67a.56.56 0 01.1.51h1.47a2.23 2.23 0 00.1-.26c0-.14.29-1-.17-1.43-.79-.75-3.38 0-4.68 1.58-.44.54-1.23 1.8-.78 2.32.65.74 3.8 0 5.12-1.55z" fill-rule="evenodd" fill="#245f9c"/><path d="M31.33 25.79h-.08a6.16 6.16 0 00-.69-.22 2.21 2.21 0 00-.78 0 2.72 2.72 0 00-.44.14c-.61.22-.92.33-1.07.36h-1.06a2.43 2.43 0 01-.4-.13c-.4-.15-.39-.22-.62-.27a1.71 1.71 0 00-.78 0 2.72 2.72 0 00-.44.14l-.32.11-.65 1h.09c.43-.16.64-.25.78-.28a2.89 2.89 0 011.09-.1 3.63 3.63 0 01.84.21l.11.05.32.13a1.54 1.54 0 00.51.09 1.41 1.41 0 00.37-.07l.34-.13c.43-.16.64-.25.78-.28a3 3 0 011.09-.1 3.7 3.7 0 011 .25h.11a2.68 2.68 0 00.38.13h.06a8 8 0 00.37-.77L32 26a2.42 2.42 0 01-.67-.21zm-4.55-4.38c-.4-.15-.39-.22-.62-.27a1.71 1.71 0 00-.78 0 2.72 2.72 0 00-.44.14l-.69.25h2.87l-.34-.11zM32 23.72a2.42 2.42 0 01-.64-.2h-.08a6.16 6.16 0 00-.69-.22 2.21 2.21 0 00-.78 0 2.72 2.72 0 00-.44.14c-.61.22-.92.33-1.07.36h-1.09a2.43 2.43 0 01-.4-.13c-.33-.13-.38-.19-.51-.24l-.51.78h.2a3.63 3.63 0 01.84.21l.11.05.32.13a1.54 1.54 0 00.51.09 1.41 1.41 0 00.37-.07l.34-.13c.43-.16.64-.25.78-.28a3 3 0 011.09-.1 3.7 3.7 0 011 .25h.11a2.68 2.68 0 00.38.13 2.3 2.3 0 00.39.07h.5a8 8 0 00.12-.85 2.28 2.28 0 01-.85.01zm-2.24 4.07a2.72 2.72 0 00-.44.14c-.61.22-.92.33-1.07.36h-1.04a2.43 2.43 0 01-.4-.13c-.4-.15-.39-.22-.62-.27a1.71 1.71 0 00-.78 0 2.72 2.72 0 00-.44.14c-.61.22-.92.33-1.07.36a2.42 2.42 0 01-.92 0l-.4.62.22.12a1.28 1.28 0 00.67.11 2.09 2.09 0 00.64-.2c.43-.16.64-.25.78-.28a2.89 2.89 0 011.09-.1 3.63 3.63 0 01.84.21l.11.05.32.13a1.54 1.54 0 00.51.09 1.41 1.41 0 00.37-.07l.34-.13c.43-.16.64-.25.78-.28a3 3 0 011.09-.1h.14a8.06 8.06 0 00.61-.68 4.41 4.41 0 00-.53-.17 2.21 2.21 0 00-.8.08zm-2.57 2.78a2.43 2.43 0 01-.4-.13c-.4-.15-.39-.22-.62-.27a1.71 1.71 0 00-.78 0 2.72 2.72 0 00-.44.14c-.61.22-.92.33-1.07.36a2.28 2.28 0 01-1.57-.15 2.75 2.75 0 01-.51-.3l-.08.12a8 8 0 002.77.61l.37-.13a2.89 2.89 0 011.09-.1 3.11 3.11 0 01.44.08 8 8 0 00.84-.22zm-4.88-9.09a2.75 2.75 0 01-.52-.31l-.23.35h.83zm1.13-1.2a2.09 2.09 0 00.64-.2c.43-.16.64-.25.78-.28a2.89 2.89 0 011.09-.1 3.63 3.63 0 01.84.21l.11.05.32.13a1.54 1.54 0 00.51.09 1.41 1.41 0 00.37-.07l.34-.13c.43-.16.64-.25.78-.28a3 3 0 011.09-.1 3.7 3.7 0 011 .25h.11a2.68 2.68 0 00.38.13 2.3 2.3 0 00.39.07h.13A8 8 0 0025.86 15l-3.32 5 .23.13a1.28 1.28 0 00.67.15zM32 21.49a2.42 2.42 0 01-.64-.2h-.08a6.16 6.16 0 00-.69-.22 2.21 2.21 0 00-.78 0 2.72 2.72 0 00-.44.14c-.61.22-.92.33-1.07.36h-.82l-.42.64.2.08a1.54 1.54 0 00.51.09 1.41 1.41 0 00.37-.07l.34-.13c.43-.16.64-.25.78-.28a3 3 0 011.09-.1 3.7 3.7 0 011 .25h.11a2.68 2.68 0 00.38.13 2.3 2.3 0 00.39.07h.39l.23-.07q0-.38-.1-.74a2.23 2.23 0 01-.75.05z" fill="none"/><path d="M32.53 22.3h-.35a2.3 2.3 0 01-.39-.07 2.68 2.68 0 01-.38-.13h-.11a3.7 3.7 0 00-1-.25 3 3 0 00-1.09.1c-.14 0-.35.12-.78.28l-.34.13a1.41 1.41 0 01-.37.07 1.54 1.54 0 01-.51-.09l-.2-.08-.77 1.17c.13.05.18.12.51.24a2.43 2.43 0 00.4.13h1.08c.15 0 .46-.14 1.07-.36a2.72 2.72 0 01.44-.14 2.21 2.21 0 01.78 0 6.16 6.16 0 01.69.22h.08a2.42 2.42 0 00.64.2 2.28 2.28 0 00.82 0v-1.46l-.23.07zm0 2.28h-.35a2.3 2.3 0 01-.39-.07 2.68 2.68 0 01-.38-.13h-.11a3.7 3.7 0 00-1-.25 3 3 0 00-1.09.1c-.14 0-.35.12-.78.28l-.34.13a1.41 1.41 0 01-.37.07 1.54 1.54 0 01-.51-.09l-.32-.13-.11-.05a3.63 3.63 0 00-.84-.21h-.2l-1.12 1.71.32-.11a2.72 2.72 0 01.44-.14 1.71 1.71 0 01.78 0c.23.06.21.12.62.27a2.43 2.43 0 00.4.13h1.05c.15 0 .46-.14 1.07-.36a2.72 2.72 0 01.44-.14 2.21 2.21 0 01.78 0 6.16 6.16 0 01.69.22h.08A2.42 2.42 0 0032 26h.25a8 8 0 00.45-1.47h-.11zm-1.12 2.06h-.11a3.7 3.7 0 00-1-.25 3 3 0 00-1.09.1c-.14 0-.35.12-.78.28l-.34.13a1.41 1.41 0 01-.37.07 1.54 1.54 0 01-.51-.09l-.32-.13-.11-.05a3.63 3.63 0 00-.84-.21 2.89 2.89 0 00-1.09.1c-.14 0-.35.12-.78.28h-.09l-1 1.57a2.42 2.42 0 00.92 0c.15 0 .46-.14 1.07-.36a2.72 2.72 0 01.44-.14 1.71 1.71 0 01.78 0c.23.06.21.12.62.27a2.43 2.43 0 00.4.13h1.02c.15 0 .46-.14 1.07-.36a2.72 2.72 0 01.44-.14 2.21 2.21 0 01.78 0 4.41 4.41 0 01.53.17 8 8 0 00.78-1.17h-.06a2.68 2.68 0 01-.36-.2zm-2.17 2.07c-.14 0-.35.12-.78.28l-.34.13a1.41 1.41 0 01-.37.07 1.54 1.54 0 01-.51-.09l-.33-.1-.11-.05a3.63 3.63 0 00-.84-.21 2.89 2.89 0 00-1.09.1c-.14 0-.35.12-.78.28a2.09 2.09 0 01-.64.2 1.28 1.28 0 01-.67-.11l-.22-.12-.75 1.15a2.75 2.75 0 00.51.3 2.28 2.28 0 001.57.15c.15 0 .46-.14 1.07-.36a2.72 2.72 0 01.44-.14 1.71 1.71 0 01.78 0c.23.06.21.12.62.27a2.43 2.43 0 00.4.13 8 8 0 003.23-2h-.14a3 3 0 00-1.05.12zm3.07-8.63h-.13a2.3 2.3 0 01-.39-.07 2.68 2.68 0 01-.38-.13h-.11a3.7 3.7 0 00-1-.25 3 3 0 00-1.09.1c-.14 0-.35.12-.78.28l-.34.13a1.41 1.41 0 01-.37.07 1.54 1.54 0 01-.51-.09l-.32-.13-.11-.05a3.63 3.63 0 00-.84-.21 2.89 2.89 0 00-1.09.1c-.14 0-.35.12-.78.28a2.09 2.09 0 01-.64.2 1.28 1.28 0 01-.67-.11l-.22-.2-.75 1.15h3.59a1.71 1.71 0 01.78 0h1.54l-.21.35h.74c.15 0 .46-.14 1.07-.36a2.72 2.72 0 01.44-.14 2.21 2.21 0 01.78 0 6.16 6.16 0 01.69.22h.08a2.42 2.42 0 00.64.2 2.23 2.23 0 00.73 0 8 8 0 00-.35-1.34zm-7.45 10.74l-.37.13h.33a8.06 8.06 0 001.58-.16 3.11 3.11 0 00-.44-.08 2.89 2.89 0 00-1.1.11z" fill="#c3a675"/></g></svg>