<?xml version="1.0" encoding="UTF-8"?>
<!DOCTYPE svg PUBLIC "-//W3C//DTD SVG 1.1//EN" "http://www.w3.org/Graphics/SVG/1.1/DTD/svg11.dtd">
<svg xmlns="http://www.w3.org/2000/svg" version="1.1" width="160px" height="160px" style="shape-rendering:geometricPrecision; text-rendering:geometricPrecision; image-rendering:optimizeQuality; fill-rule:evenodd; clip-rule:evenodd" xmlns:xlink="http://www.w3.org/1999/xlink">
<g><path style="opacity:1" fill="#022e8a" d="M -0.5,-0.5 C 52.8333,-0.5 106.167,-0.5 159.5,-0.5C 159.5,52.8333 159.5,106.167 159.5,159.5C 106.167,159.5 52.8333,159.5 -0.5,159.5C -0.5,106.167 -0.5,52.8333 -0.5,-0.5 Z"/></g>
<g><path style="opacity:1" fill="#efaa05" d="M 67.5,13.5 C 98.6124,10.1617 119.112,23.1617 129,52.5C 132.136,83.9981 118.636,104.165 88.5,113C 60.5431,116.026 41.3764,104.526 31,78.5C 24.9821,46.5292 37.1488,24.8626 67.5,13.5 Z"/></g>
<g><path style="opacity:1" fill="#082e8a" d="M 73.5,38.5 C 94.4795,37.6468 104.646,47.6468 104,68.5C 99.1874,83.9498 88.6874,90.4498 72.5,88C 56.2073,80.5794 51.0407,68.4128 57,51.5C 60.9694,45.0097 66.4694,40.6763 73.5,38.5 Z"/></g>
<g><path style="opacity:1" fill="#02af5a" d="M 78.5,145.5 C 75.7131,146.477 72.7131,146.81 69.5,146.5C 45.4244,142.287 28.0911,129.12 17.5,107C 45.5538,107.689 65.8871,120.522 78.5,145.5 Z"/></g>
<g><path style="opacity:1" fill="#0e7373" d="M 116.5,118.5 C 119.355,117.197 122.355,117.197 125.5,118.5C 125.376,119.107 125.043,119.44 124.5,119.5C 122.052,118.527 119.385,118.194 116.5,118.5 Z"/></g>
<g><path style="opacity:1" fill="#03ae5b" d="M 116.5,118.5 C 119.385,118.194 122.052,118.527 124.5,119.5C 116.409,134.884 103.743,143.884 86.5,146.5C 84.2646,146.795 82.2646,146.461 80.5,145.5C 87.9074,130.432 99.9074,121.432 116.5,118.5 Z"/></g>
<g><path style="opacity:1" fill="#07816d" d="M 78.5,145.5 C 79.1667,145.5 79.8333,145.5 80.5,145.5C 82.2646,146.461 84.2646,146.795 86.5,146.5C 80.8333,147.833 75.1667,147.833 69.5,146.5C 72.7131,146.81 75.7131,146.477 78.5,145.5 Z"/></g>
</svg>
