<?xml version="1.0" encoding="UTF-8"?>
<!DOCTYPE svg PUBLIC "-//W3C//DTD SVG 1.1//EN" "http://www.w3.org/Graphics/SVG/1.1/DTD/svg11.dtd">
<svg xmlns="http://www.w3.org/2000/svg" version="1.1" width="160px" height="160px" style="shape-rendering:geometricPrecision; text-rendering:geometricPrecision; image-rendering:optimizeQuality; fill-rule:evenodd; clip-rule:evenodd" xmlns:xlink="http://www.w3.org/1999/xlink">
<g><path style="opacity:1" fill="#f4f7f8" d="M -0.5,-0.5 C 52.8333,-0.5 106.167,-0.5 159.5,-0.5C 159.5,52.8333 159.5,106.167 159.5,159.5C 106.167,159.5 52.8333,159.5 -0.5,159.5C -0.5,106.167 -0.5,52.8333 -0.5,-0.5 Z"/></g>
<g><path style="opacity:1" fill="#0e8996" d="M 77.5,13.5 C 79.1992,13.3398 80.8659,13.5065 82.5,14C 99.5862,23.6269 116.753,33.1269 134,42.5C 134.5,55.4957 134.667,68.4957 134.5,81.5C 97.8333,81.5 61.1667,81.5 24.5,81.5C 24.037,68.0679 24.537,54.7345 26,41.5C 43.1486,32.0113 60.3153,22.6779 77.5,13.5 Z"/></g>
<g><path style="opacity:1" fill="#f0f7f8" d="M 75.5,25.5 C 77.1667,25.5 78.8333,25.5 80.5,25.5C 80.6822,27.6746 81.3489,29.6746 82.5,31.5C 82.1667,32.1667 81.8333,32.8333 81.5,33.5C 69.1667,40 56.8333,46.5 44.5,53C 42.5273,53.4955 40.5273,53.6621 38.5,53.5C 37.1593,50.3956 37.4926,47.5623 39.5,45C 51.9175,39.0378 63.9175,32.5378 75.5,25.5 Z"/></g>
<g><path style="opacity:1" fill="#f3f8f9" d="M 127.5,42.5 C 128.5,42.5 129.5,42.5 130.5,42.5C 130.5,54.1667 130.5,65.8333 130.5,77.5C 128.4,77.4772 126.567,78.1439 125,79.5C 124.228,79.3552 123.561,79.0219 123,78.5C 122.333,67.5 122.333,56.5 123,45.5C 124.409,44.2189 125.909,43.2189 127.5,42.5 Z"/></g>
<g><path style="opacity:1" fill="#8cd0d5" d="M 99.5,60.5 C 97.5853,60.2155 95.9187,60.5489 94.5,61.5C 93.9569,61.44 93.6236,61.1067 93.5,60.5C 95.6365,59.2072 97.6365,59.2072 99.5,60.5 Z"/></g>
<g><path style="opacity:1" fill="#76c4c8" d="M 108.5,60.5 C 110.364,59.2072 112.364,59.2072 114.5,60.5C 114.376,61.1067 114.043,61.44 113.5,61.5C 112.081,60.5489 110.415,60.2155 108.5,60.5 Z"/></g>
<g><path style="opacity:1" fill="#f6f8f9" d="M 41.5,60.5 C 43.0265,61.4919 43.6932,62.9919 43.5,65C 43.6932,67.0081 43.0265,68.5081 41.5,69.5C 41.2178,68.2223 40.5511,67.2223 39.5,66.5C 40.8333,65.5 40.8333,64.5 39.5,63.5C 38.791,62.596 37.791,62.2627 36.5,62.5C 35.6371,66.1616 36.9704,68.3282 40.5,69C 39.5842,69.2784 38.9175,69.7784 38.5,70.5C 38.1667,70.5 37.8333,70.5 37.5,70.5C 36.5386,72.2646 36.2053,74.2646 36.5,76.5C 35.5,76.5 34.5,76.5 33.5,76.5C 33.5,71.1667 33.5,65.8333 33.5,60.5C 36.1667,60.5 38.8333,60.5 41.5,60.5 Z"/></g>
<g><path style="opacity:1" fill="#f5f8f9" d="M 51.5,66.5 C 52.5676,67.4345 53.901,67.7678 55.5,67.5C 55.5,64.8333 55.5,62.1667 55.5,59.5C 56.8333,59.5 58.1667,59.5 59.5,59.5C 59.5,65.1667 59.5,70.8333 59.5,76.5C 58.1667,76.5 56.8333,76.5 55.5,76.5C 55.5,74.1667 55.5,71.8333 55.5,69.5C 53.8333,69.5 52.1667,69.5 50.5,69.5C 50.5,72.1667 50.5,74.8333 50.5,77.5C 49.1667,77.5 47.8333,77.5 46.5,77.5C 46.5,71.5 46.5,65.5 46.5,59.5C 47.8333,59.5 49.1667,59.5 50.5,59.5C 50.1984,62.0593 50.5318,64.3926 51.5,66.5 Z"/></g>
<g><path style="opacity:1" fill="#66bcc1" d="M 55.5,59.5 C 55.5,62.1667 55.5,64.8333 55.5,67.5C 53.901,67.7678 52.5676,67.4345 51.5,66.5C 52.5,66.5 53.5,66.5 54.5,66.5C 54.1984,63.9407 54.5318,61.6074 55.5,59.5 Z"/></g>
<g><path style="opacity:1" fill="#eef6f7" d="M 88.5,60.5 C 92.4734,63.5397 92.4734,66.7064 88.5,70C 89.9752,72.3092 91.6419,74.4759 93.5,76.5C 91.8333,77.8333 90.1667,77.8333 88.5,76.5C 85.2397,69.5649 83.9063,69.8982 84.5,77.5C 83.1667,77.5 81.8333,77.5 80.5,77.5C 80.5,71.8333 80.5,66.1667 80.5,60.5C 83.1667,60.5 85.8333,60.5 88.5,60.5 Z"/></g>
<g><path style="opacity:1" fill="#f0f7f8" d="M 99.5,60.5 C 101.137,62.3162 102.637,64.3162 104,66.5C 105.764,64.6107 107.264,62.6107 108.5,60.5C 110.415,60.2155 112.081,60.5489 113.5,61.5C 112.551,66.7401 112.218,72.0735 112.5,77.5C 111.167,77.5 109.833,77.5 108.5,77.5C 108.817,74.4281 108.484,71.4281 107.5,68.5C 106.5,70.1667 105.167,71.5 103.5,72.5C 102.818,71.7573 102.151,71.0906 101.5,70.5C 101.217,69.7109 100.717,69.0442 100,68.5C 99.502,71.4816 99.3354,74.4816 99.5,77.5C 98.1667,77.5 96.8333,77.5 95.5,77.5C 95.7825,72.0735 95.4491,66.7401 94.5,61.5C 95.9187,60.5489 97.5853,60.2155 99.5,60.5 Z"/></g>
<g><path style="opacity:1" fill="#c8eeef" d="M 41.5,60.5 C 38.8333,60.5 36.1667,60.5 33.5,60.5C 33.5,65.8333 33.5,71.1667 33.5,76.5C 34.5,76.5 35.5,76.5 36.5,76.5C 36.2053,74.2646 36.5386,72.2646 37.5,70.5C 37.5,72.8333 37.5,75.1667 37.5,77.5C 35.8333,77.5 34.1667,77.5 32.5,77.5C 32.5,71.5 32.5,65.5 32.5,59.5C 35.7131,59.19 38.7131,59.5233 41.5,60.5 Z"/></g>
<g><path style="opacity:1" fill="#9adadc" d="M 88.5,60.5 C 85.8333,60.5 83.1667,60.5 80.5,60.5C 80.5,66.1667 80.5,71.8333 80.5,77.5C 77.9407,77.8016 75.6074,77.4682 73.5,76.5C 75.4832,76.8432 76.8166,76.1765 77.5,74.5C 78.2216,74.9175 78.7216,75.5842 79,76.5C 79.4994,70.8431 79.6661,65.1764 79.5,59.5C 82.7131,59.19 85.7131,59.5233 88.5,60.5 Z"/></g>
<g><path style="opacity:1" fill="#2f929d" d="M 39.5,63.5 C 40.8333,64.5 40.8333,65.5 39.5,66.5C 36.8333,65.5 36.8333,64.5 39.5,63.5 Z"/></g>
<g><path style="opacity:1" fill="#41a4aa" d="M 84.5,62.5 C 87.9563,63.5362 88.2896,65.2029 85.5,67.5C 84.5481,65.9547 84.2148,64.288 84.5,62.5 Z"/></g>
<g><path style="opacity:1" fill="#ccebec" d="M 39.5,63.5 C 36.8333,64.5 36.8333,65.5 39.5,66.5C 40.5511,67.2223 41.2178,68.2223 41.5,69.5C 40.791,70.404 39.791,70.7373 38.5,70.5C 38.9175,69.7784 39.5842,69.2784 40.5,69C 36.9704,68.3282 35.6371,66.1616 36.5,62.5C 37.791,62.2627 38.791,62.596 39.5,63.5 Z"/></g>
<g><path style="opacity:1" fill="#e8f4f5" d="M 77.5,74.5 C 76.8166,76.1765 75.4832,76.8432 73.5,76.5C 72.5655,75.4324 72.2322,74.099 72.5,72.5C 70.8333,72.5 69.1667,72.5 67.5,72.5C 67.7678,74.099 67.4345,75.4324 66.5,76.5C 64.5168,76.8432 63.1834,76.1765 62.5,74.5C 64.4888,69.1889 66.9888,64.1889 70,59.5C 71.2798,59.6135 72.1131,60.2801 72.5,61.5C 74.4574,65.7437 76.1241,70.077 77.5,74.5 Z"/></g>
<g><path style="opacity:1" fill="#3297a0" d="M 69.5,65.5 C 71.1042,66.287 71.7709,67.6203 71.5,69.5C 70.325,69.719 69.325,69.3857 68.5,68.5C 69.1272,67.5832 69.4606,66.5832 69.5,65.5 Z"/></g>
<g><path style="opacity:1" fill="#66bfc4" d="M 59.5,59.5 C 60.1667,65.1667 60.8333,70.8333 61.5,76.5C 61.5,76.8333 61.5,77.1667 61.5,77.5C 59.1667,77.5 56.8333,77.5 54.5,77.5C 54.5,75.1667 54.5,72.8333 54.5,70.5C 53.5,70.5 52.5,70.5 51.5,70.5C 51.8016,73.0593 51.4682,75.3926 50.5,77.5C 50.5,74.8333 50.5,72.1667 50.5,69.5C 52.1667,69.5 53.8333,69.5 55.5,69.5C 55.5,71.8333 55.5,74.1667 55.5,76.5C 56.8333,76.5 58.1667,76.5 59.5,76.5C 59.5,70.8333 59.5,65.1667 59.5,59.5 Z"/></g>
<g><path style="opacity:1" fill="#59b5ba" d="M 101.5,70.5 C 100.833,72.8333 100.167,75.1667 99.5,77.5C 99.3354,74.4816 99.502,71.4816 100,68.5C 100.717,69.0442 101.217,69.7109 101.5,70.5 Z"/></g>
<g><path style="opacity:1" fill="#b0e1e3" d="M 62.5,74.5 C 63.1834,76.1765 64.5168,76.8432 66.5,76.5C 65.0813,77.4511 63.4147,77.7845 61.5,77.5C 61.5,77.1667 61.5,76.8333 61.5,76.5C 61.3284,75.5084 61.6618,74.8417 62.5,74.5 Z"/></g>
<g><path style="opacity:1" fill="#94d9db" d="M 46.5,88.5 C 44.901,88.2322 43.5676,88.5655 42.5,89.5C 41.9569,89.44 41.6236,89.1067 41.5,88.5C 43.2985,87.2121 44.9652,87.2121 46.5,88.5 Z"/></g>
<g><path style="opacity:1" fill="#90d9dd" d="M 51.5,88.5 C 53.0348,87.2121 54.7015,87.2121 56.5,88.5C 56.3764,89.1067 56.0431,89.44 55.5,89.5C 54.4324,88.5655 53.099,88.2322 51.5,88.5 Z"/></g>
<g><path style="opacity:1" fill="#ade4e5" d="M 76.5,88.5 C 80.6344,87.5151 84.9677,87.1818 89.5,87.5C 89.7373,88.791 89.404,89.791 88.5,90.5C 84.9707,88.5772 80.9707,87.9106 76.5,88.5 Z"/></g>
<g><path style="opacity:1" fill="#4facb2" d="M 127.5,88.5 C 125.031,89.3171 122.365,89.8171 119.5,90C 121.134,90.4935 122.801,90.6602 124.5,90.5C 124.737,91.791 124.404,92.791 123.5,93.5C 122.448,91.744 120.781,91.0773 118.5,91.5C 118.5,90.5 118.5,89.5 118.5,88.5C 121.5,88.5 124.5,88.5 127.5,88.5 Z"/></g>
<g><path style="opacity:1" fill="#1a8c97" d="M 67.5,96.5 C 67.7828,97.2891 68.2828,97.9558 69,98.5C 69.4983,95.1832 69.665,91.8499 69.5,88.5C 70.8333,88.5 72.1667,88.5 73.5,88.5C 73.5,93.8333 73.5,99.1667 73.5,104.5C 72.4324,105.434 71.099,105.768 69.5,105.5C 67.8474,102.869 66.1807,100.203 64.5,97.5C 64.5386,96.2438 64.0386,95.2438 63,94.5C 62.5014,98.1516 62.3347,101.818 62.5,105.5C 61.5,105.5 60.5,105.5 59.5,105.5C 59.8205,100.305 59.4872,95.3054 58.5,90.5C 58.3893,89.8826 58.056,89.3826 57.5,89C 59.5,88.3333 61.5,88.3333 63.5,89C 64.9732,91.4476 66.3065,93.9476 67.5,96.5 Z"/></g>
<g><path style="opacity:1" fill="#058390" d="M 90.5,105.5 C 90.5,103.5 90.5,101.5 90.5,99.5C 91.1661,96.3107 91.8328,92.9773 92.5,89.5C 92.7193,94.7148 93.0527,100.048 93.5,105.5C 92.5,105.5 91.5,105.5 90.5,105.5 Z"/></g>
<g><path style="opacity:1" fill="#bbe7e9" d="M 99.5,88.5 C 99.8016,91.0593 99.4682,93.3926 98.5,95.5C 96.901,95.7678 95.5676,95.4345 94.5,94.5C 95.8333,94.5 97.1667,94.5 98.5,94.5C 98.2053,92.2646 98.5386,90.2646 99.5,88.5 Z"/></g>
<g><path style="opacity:1" fill="#188d99" d="M 99.5,88.5 C 100.833,88.5 102.167,88.5 103.5,88.5C 103.5,94.1667 103.5,99.8333 103.5,105.5C 102.167,105.5 100.833,105.5 99.5,105.5C 99.5,103.167 99.5,100.833 99.5,98.5C 98.0484,97.6981 96.3817,97.1981 94.5,97C 96.0581,96.79 97.3915,96.29 98.5,95.5C 99.4682,93.3926 99.8016,91.0593 99.5,88.5 Z"/></g>
<g><path style="opacity:1" fill="#138994" d="M 106.5,88.5 C 109.572,88.1826 112.572,88.5159 115.5,89.5C 114.995,90.9185 113.995,91.5852 112.5,91.5C 111.791,90.596 110.791,90.2627 109.5,90.5C 109.216,92.4147 109.549,94.0813 110.5,95.5C 111.978,95.238 113.311,95.5713 114.5,96.5C 114.145,97.5223 113.478,98.189 112.5,98.5C 111.791,97.596 110.791,97.2627 109.5,97.5C 109.5,99.5 109.5,101.5 109.5,103.5C 110.833,103.5 112.167,103.5 113.5,103.5C 114.338,103.842 114.672,104.508 114.5,105.5C 111.833,105.5 109.167,105.5 106.5,105.5C 106.5,99.8333 106.5,94.1667 106.5,88.5 Z"/></g>
<g><path style="opacity:1" fill="#9bdbdd" d="M 112.5,91.5 C 110.824,92.1834 110.157,93.5168 110.5,95.5C 109.549,94.0813 109.216,92.4147 109.5,90.5C 110.791,90.2627 111.791,90.596 112.5,91.5 Z"/></g>
<g><path style="opacity:1" fill="#a3dde1" d="M 69.5,88.5 C 69.665,91.8499 69.4983,95.1832 69,98.5C 68.2828,97.9558 67.7828,97.2891 67.5,96.5C 68.1667,93.8333 68.8333,91.1667 69.5,88.5 Z"/></g>
<g><path style="opacity:1" fill="#0a8692" d="M 76.5,88.5 C 80.9707,87.9106 84.9707,88.5772 88.5,90.5C 87.4324,91.4345 86.099,91.7678 84.5,91.5C 83.5139,95.97 83.1805,100.637 83.5,105.5C 82.5,105.5 81.5,105.5 80.5,105.5C 80.5,100.5 80.5,95.5 80.5,90.5C 79.209,90.2627 78.209,90.596 77.5,91.5C 75.4482,90.9473 75.1148,89.9473 76.5,88.5 Z"/></g>
<g><path style="opacity:1" fill="#1d8e9a" d="M 46.5,88.5 C 47.4098,90.0188 48.2432,91.6854 49,93.5C 49.8466,91.8068 50.6799,90.1401 51.5,88.5C 53.099,88.2322 54.4324,88.5655 55.5,89.5C 53.9019,91.6979 52.5686,94.0313 51.5,96.5C 50.5233,99.2869 50.19,102.287 50.5,105.5C 49.1667,105.5 47.8333,105.5 46.5,105.5C 47.3808,99.5228 46.0475,94.1894 42.5,89.5C 43.5676,88.5655 44.901,88.2322 46.5,88.5 Z"/></g>
<g><path style="opacity:1" fill="#3ca5ae" d="M 94.5,94.5 C 95.5676,95.4345 96.901,95.7678 98.5,95.5C 97.3915,96.29 96.0581,96.79 94.5,97C 96.3817,97.1981 98.0484,97.6981 99.5,98.5C 97.8333,98.5 96.1667,98.5 94.5,98.5C 94.5,101.167 94.5,103.833 94.5,106.5C 92.901,106.768 91.5676,106.434 90.5,105.5C 91.5,105.5 92.5,105.5 93.5,105.5C 93.0527,100.048 92.7193,94.7148 92.5,89.5C 91.8328,92.9773 91.1661,96.3107 90.5,99.5C 90.5,95.8333 90.5,92.1667 90.5,88.5C 91.8333,88.5 93.1667,88.5 94.5,88.5C 94.5,90.5 94.5,92.5 94.5,94.5 Z"/></g>
<g><path style="opacity:1" fill="#23919b" d="M 33.5,88.5 C 35.5,88.5 37.5,88.5 39.5,88.5C 39.8808,90.9418 39.2141,91.6085 37.5,90.5C 36.2801,90.8869 35.6135,91.7202 35.5,93C 36.9782,94.4782 38.4782,95.9782 40,97.5C 41.0965,104.893 37.9298,107.559 30.5,105.5C 30.238,104.022 30.5713,102.689 31.5,101.5C 32.7362,102.246 34.0695,102.579 35.5,102.5C 35.6567,101.127 35.49,99.7932 35,98.5C 31.0524,95.6082 30.5524,92.2749 33.5,88.5 Z"/></g>
<g><path style="opacity:1" fill="#7bcace" d="M 58.5,90.5 C 59.4872,95.3054 59.8205,100.305 59.5,105.5C 60.5,105.5 61.5,105.5 62.5,105.5C 62.3347,101.818 62.5014,98.1516 63,94.5C 64.0386,95.2438 64.5386,96.2438 64.5,97.5C 63.5233,100.287 63.19,103.287 63.5,106.5C 61.8333,106.5 60.1667,106.5 58.5,106.5C 58.5,101.167 58.5,95.8333 58.5,90.5 Z"/></g>
<g><path style="opacity:1" fill="#a6dcdf" d="M 51.5,96.5 C 51.5,99.8333 51.5,103.167 51.5,106.5C 49.5853,106.784 47.9187,106.451 46.5,105.5C 47.8333,105.5 49.1667,105.5 50.5,105.5C 50.19,102.287 50.5233,99.2869 51.5,96.5 Z"/></g>
<g><path style="opacity:1" fill="#198c97" d="M 127.5,88.5 C 128.552,88.3505 129.552,88.5172 130.5,89C 127.787,92.9242 125.453,97.0909 123.5,101.5C 125.284,102.606 127.118,102.606 129,101.5C 129.5,101.833 130,102.167 130.5,102.5C 129.873,103.417 129.539,104.417 129.5,105.5C 125.298,105.817 121.298,105.483 117.5,104.5C 119.754,100.993 121.754,97.3267 123.5,93.5C 124.404,92.791 124.737,91.791 124.5,90.5C 122.801,90.6602 121.134,90.4935 119.5,90C 122.365,89.8171 125.031,89.3171 127.5,88.5 Z"/></g>
<g><path style="opacity:1" fill="#86ced2" d="M 106.5,88.5 C 106.5,94.1667 106.5,99.8333 106.5,105.5C 109.167,105.5 111.833,105.5 114.5,105.5C 111.713,106.477 108.713,106.81 105.5,106.5C 105.177,100.31 105.51,94.31 106.5,88.5 Z"/></g>
<g><path style="opacity:1" fill="#b9e6e8" d="M 112.5,98.5 C 110.824,99.1834 110.157,100.517 110.5,102.5C 111.5,102.5 112.5,102.5 113.5,102.5C 113.5,102.833 113.5,103.167 113.5,103.5C 112.167,103.5 110.833,103.5 109.5,103.5C 109.5,101.5 109.5,99.5 109.5,97.5C 110.791,97.2627 111.791,97.596 112.5,98.5 Z"/></g>
<g><path style="opacity:1" fill="#57afb4" d="M 114.5,105.5 C 114.672,104.508 114.338,103.842 113.5,103.5C 113.5,103.167 113.5,102.833 113.5,102.5C 117.168,101.653 117.502,102.653 114.5,105.5 Z"/></g>
<g><path style="opacity:1" fill="#87c7c9" d="M 73.5,104.5 C 74.0431,104.56 74.3764,104.893 74.5,105.5C 72.7015,106.788 71.0348,106.788 69.5,105.5C 71.099,105.768 72.4324,105.434 73.5,104.5 Z"/></g>
<g><path style="opacity:1" fill="#8acdd0" d="M 77.5,91.5 C 78.209,90.596 79.209,90.2627 80.5,90.5C 80.5,95.5 80.5,100.5 80.5,105.5C 81.5,105.5 82.5,105.5 83.5,105.5C 83.1805,100.637 83.5139,95.97 84.5,91.5C 84.5,96.5 84.5,101.5 84.5,106.5C 82.8333,106.5 81.1667,106.5 79.5,106.5C 80.1083,101.056 79.4417,96.0557 77.5,91.5 Z"/></g>
<g><path style="opacity:1" fill="#a4d7da" d="M 117.5,104.5 C 121.298,105.483 125.298,105.817 129.5,105.5C 125.317,106.811 120.984,106.811 116.5,105.5C 116.624,104.893 116.957,104.56 117.5,104.5 Z"/></g>
<g><path style="opacity:1" fill="#0b8995" d="M 126.5,109.5 C 127.15,109.804 127.817,110.137 128.5,110.5C 129.491,114.445 129.824,118.445 129.5,122.5C 126.833,122.5 124.167,122.5 121.5,122.5C 121.335,119.15 121.502,115.817 122,112.5C 123.878,111.947 125.378,110.947 126.5,109.5 Z"/></g>
<g><path style="opacity:1" fill="#168b98" d="M 80.5,141.5 C 79.596,142.209 79.2627,143.209 79.5,144.5C 78.1667,144.5 76.8333,144.5 75.5,144.5C 60.6745,137.257 46.3412,129.257 32.5,120.5C 33.0149,118.775 33.6816,117.108 34.5,115.5C 35.7678,114.572 37.1011,114.405 38.5,115C 52.5,122.333 66.5,129.667 80.5,137C 81.8009,138.616 81.8009,140.116 80.5,141.5 Z"/></g>
<g><path style="opacity:1" fill="#8bcdd2" d="M 80.5,141.5 C 80.5,142.833 80.5,144.167 80.5,145.5C 78.5853,145.784 76.9187,145.451 75.5,144.5C 76.8333,144.5 78.1667,144.5 79.5,144.5C 79.2627,143.209 79.596,142.209 80.5,141.5 Z"/></g>
</svg>
