<svg xmlns="http://www.w3.org/2000/svg" viewBox="0 0 48 48"><path fill="#e9540d" d="M0 0h48v48H0z"/><path d="M12.14 19.81a7.26 7.26 0 00-4.68 2.48 7.34 7.34 0 00-1.54 5.81h1.66a5.82 5.82 0 011.14-4.75 5.57 5.57 0 013.42-1.88v6.63h1.4v-8.29zm7.42-2.16a7.56 7.56 0 00-1.84.27 6.49 6.49 0 00-2.82 1.76.24.24 0 000 .21.22.22 0 00.1.11.28.28 0 00.18 0l.11-.12a3.94 3.94 0 011.62-.88 7.64 7.64 0 012-.38 16 16 0 01.68 2.49l3.11.1-.06 1.12-2.88-.09c.05.45.09.93.1 1.44a15.81 15.81 0 01-.1 2.12l2.87-.09.06 1.12-3.1.1a16 16 0 01-.68 2.51h-.37a8 8 0 01-1.31-.25 7.84 7.84 0 01-2-1.1.17.17 0 00-.1 0 .24.24 0 00-.2.14.28.28 0 000 .18 6.47 6.47 0 002.81 1.8 7.57 7.57 0 001.88.28 6.35 6.35 0 000-12.7zm14.02 7.41a2.78 2.78 0 110-2.13h1.51a4.22 4.22 0 100 2.13zm8.59-3.78v-1.5A4.22 4.22 0 0038 23.3h-.67v-3.52H36v8.44h1.33v-3.56H38a4.22 4.22 0 004.17 3.56v-1.5a2.72 2.72 0 010-5.43z" fill="#fff"/></svg>