<svg data-name="Слой 1" xmlns="http://www.w3.org/2000/svg" viewBox="0 0 48 48"><defs><radialGradient id="a" cx="39.92" cy="20.69" r="5.37" gradientUnits="userSpaceOnUse"><stop offset="0" stop-color="#feed53"/><stop offset=".8" stop-color="#eb8100"/><stop offset="1" stop-color="#eb8100"/></radialGradient></defs><path fill="#f2f3f4" d="M0 0h48v48H0z"/><path d="M11.32 24.85c.44-.29.88-.6 1.32-.9.13 1.16.23 2.33.37 3.49a4.46 4.46 0 0 0 .22-.53c.42-1 .89-2 1.32-2.94.4.25.78.53 1.18.79l-2.29 4.07H12c-.22-1.33-.45-2.65-.66-4zm21.14 1 .35-1.85 1.28.86c-.26 1.33-.52 2.67-.73 4L32.17 28a2.27 2.27 0 0 1-1.55.9 1.23 1.23 0 0 1-1.16-.44 2.27 2.27 0 0 1-.2-1.56c.18-1 .37-2 .56-3 .43.27.85.57 1.28.84-.05.36-.13.72-.2 1.08a7.3 7.3 0 0 0-.19 1.37.51.51 0 0 0 .23.46.71.71 0 0 0 .72-.12 2.85 2.85 0 0 0 .8-1.79zm-11-1.09a2.09 2.09 0 0 1 1.3-.85 1.55 1.55 0 0 1 1.15.17 1.16 1.16 0 0 1 .47.81 4.2 4.2 0 0 1-.08 1.27c-.17.91-.33 1.81-.52 2.72h-1.46c.17-.94.36-1.87.53-2.81a1.55 1.55 0 0 0 0-.81.5.5 0 0 0-.65-.17 1.49 1.49 0 0 0-.7.76 4.45 4.45 0 0 0-.34 1.2c-.11.61-.24 1.22-.35 1.83h-1.48c.22-1.2.45-2.4.67-3.6.08-.43.15-.86.21-1.29l1.19.81zm-3.9.21a1.31 1.31 0 0 0-.82.95 5.14 5.14 0 0 0 1.09-.07 1 1 0 0 0 .48-.22.41.41 0 0 0-.06-.61.88.88 0 0 0-.69 0zm-1-.62a3.13 3.13 0 0 0-1.27 2.16 2.42 2.42 0 0 0 .37 1.76 1.93 1.93 0 0 0 1.41.71 4.41 4.41 0 0 0 1.86-.25c.06-.39.13-.77.19-1.16a3.13 3.13 0 0 1-.94.28 1.7 1.7 0 0 1-1.19-.18.83.83 0 0 1-.33-.69 6.94 6.94 0 0 0 1.82-.15 2.21 2.21 0 0 0 .92-.44 1.44 1.44 0 0 0 0-2.09 1.78 1.78 0 0 0-1-.41 2.74 2.74 0 0 0-1.79.47zM8.72 25a1.33 1.33 0 0 0-.6.85 4.45 4.45 0 0 0 1.22-.11.72.72 0 0 0 .41-.25.4.4 0 0 0-.16-.49 1 1 0 0 0-.87.08zm.2-1.15a2.32 2.32 0 0 1 1.52.18 1.34 1.34 0 0 1 .68.9 1.46 1.46 0 0 1-.27 1.23 2 2 0 0 1-1 .58 7 7 0 0 1-1.85.2.86.86 0 0 0 .33.67 1.34 1.34 0 0 0 .88.22 2.91 2.91 0 0 0 1.17-.27c.06.34.12.68.17 1a4 4 0 0 1-1.61.37 2.47 2.47 0 0 1-1.59-.39 1.8 1.8 0 0 1-.69-1.16A3.22 3.22 0 0 1 7.19 25a2.75 2.75 0 0 1 1.73-1.12zm29.62-1.67a1.14 1.14 0 1 1-.91.9 1.14 1.14 0 0 1 .91-.9zm-14.41 6.65h1.43l.31-1.61a5 5 0 0 1 .45-1.56A1.33 1.33 0 0 1 27 25a.54.54 0 0 1 .61.16 1.12 1.12 0 0 1 .06.72c-.17 1-.37 1.95-.54 2.92h1.44l.36-1.9a11.48 11.48 0 0 0 .26-1.75 1.32 1.32 0 0 0-.46-1.12 1.54 1.54 0 0 0-1.29-.16 2.31 2.31 0 0 0-1.06.68q.18-1 .39-2l-1.29-.87-1.34 7.1zM5.87 21.75l-1.35 7.08H6c.41-2.07.8-4.15 1.21-6.22l-1.29-.86zm29.19 0-1.34 7.09h1.44l.51-2.72c.37.9.72 1.82 1.1 2.72h1.61L37 26l1.17-1.13a1.64 1.64 0 0 1-.87-.87c-.53.63-1.07 1.25-1.59 1.89.21-1.08.4-2.17.61-3.25-.41-.33-.84-.64-1.26-.9z" fill-rule="evenodd"/><path d="M40.65 19a2.83 2.83 0 1 1-.91 5.51A1.58 1.58 0 0 0 37.83 22v-.16A2.83 2.83 0 0 1 40.65 19z" fill="url(#a)" fill-rule="evenodd"/></svg>