<?xml version="1.0" encoding="UTF-8"?>
<!DOCTYPE svg PUBLIC "-//W3C//DTD SVG 1.1//EN" "http://www.w3.org/Graphics/SVG/1.1/DTD/svg11.dtd">
<svg xmlns="http://www.w3.org/2000/svg" version="1.1" width="160px" height="160px" style="shape-rendering:geometricPrecision; text-rendering:geometricPrecision; image-rendering:optimizeQuality; fill-rule:evenodd; clip-rule:evenodd" xmlns:xlink="http://www.w3.org/1999/xlink">
<g><path style="opacity:0.996" fill="#2c499a" d="M -0.5,-0.5 C 52.8333,-0.5 106.167,-0.5 159.5,-0.5C 159.5,52.8333 159.5,106.167 159.5,159.5C 106.167,159.5 52.8333,159.5 -0.5,159.5C -0.5,106.167 -0.5,52.8333 -0.5,-0.5 Z"/></g>
<g><path style="opacity:1" fill="#f6f7fa" d="M 112.5,103.5 C 108.219,86.1113 103.552,68.778 98.5,51.5C 91.9064,57.0487 85.4064,62.7154 79,68.5C 72.0396,63.2084 65.3729,57.5417 59,51.5C 54.7163,67.5095 50.5497,83.5095 46.5,99.5C 45.6993,101.042 45.366,102.708 45.5,104.5C 42.5,104.5 39.5,104.5 36.5,104.5C 42.1864,81.7547 48.1864,59.0881 54.5,36.5C 62.5309,43.7005 70.6975,50.7005 79,57.5C 86.7839,51.3867 94.2839,44.8867 101.5,38C 102.449,37.3828 103.282,37.5494 104,38.5C 110.655,60.2694 116.488,82.2694 121.5,104.5C 118.287,104.81 115.287,104.477 112.5,103.5 Z"/></g>
<g><path style="opacity:1" fill="#f7f8fb" d="M 109.5,101.5 C 107.365,103.369 104.698,104.036 101.5,103.5C 98.642,92.6849 95.4754,82.0183 92,71.5C 91.0053,72.0659 90.172,72.7326 89.5,73.5C 86.1553,76.6778 82.6553,79.6778 79,82.5C 74.678,78.8467 70.3447,75.1801 66,71.5C 62.2657,81.2081 59.4323,91.2081 57.5,101.5C 57.1667,102.167 56.8333,102.833 56.5,103.5C 53.3019,104.036 50.6353,103.369 48.5,101.5C 52.0292,86.3838 56.0292,71.3838 60.5,56.5C 66.5329,61.7032 72.6996,66.7032 79,71.5C 85.3004,66.7032 91.4671,61.7032 97.5,56.5C 101.66,71.4746 105.66,86.4746 109.5,101.5 Z"/></g>
<g><path style="opacity:1" fill="#4259a3" d="M 112.5,103.5 C 111.833,103.833 111.167,104.167 110.5,104.5C 110.737,103.209 110.404,102.209 109.5,101.5C 105.66,86.4746 101.66,71.4746 97.5,56.5C 91.4671,61.7032 85.3004,66.7032 79,71.5C 72.6996,66.7032 66.5329,61.7032 60.5,56.5C 56.0292,71.3838 52.0292,86.3838 48.5,101.5C 48.1667,101.5 47.8333,101.5 47.5,101.5C 47.6716,100.508 47.3382,99.8417 46.5,99.5C 50.5497,83.5095 54.7163,67.5095 59,51.5C 65.3729,57.5417 72.0396,63.2084 79,68.5C 85.4064,62.7154 91.9064,57.0487 98.5,51.5C 103.552,68.778 108.219,86.1113 112.5,103.5 Z"/></g>
<g><path style="opacity:1" fill="#f6f7fa" d="M 90.5,76.5 C 91.9462,79.0006 92.4462,81.6673 92,84.5C 89.8116,86.6884 87.6449,88.8551 85.5,91C 88.6841,95.3495 92.3507,99.1829 96.5,102.5C 93.3752,103.479 90.0419,103.813 86.5,103.5C 84.2149,100.548 81.5483,97.8815 78.5,95.5C 75.3135,98.5209 71.9802,101.354 68.5,104C 65.5184,104.498 62.5184,104.665 59.5,104.5C 59.5,103.5 59.5,102.5 59.5,101.5C 61.6717,92.8561 64.1717,84.1894 67,75.5C 69.4464,77.9586 71.9464,80.2919 74.5,82.5C 72.7751,84.9567 72.2751,87.6234 73,90.5C 78.4195,85.2398 84.2528,80.5731 90.5,76.5 Z"/></g>
<g><path style="opacity:1" fill="#3d56a1" d="M 89.5,73.5 C 89.5569,74.609 89.8902,75.609 90.5,76.5C 84.2528,80.5731 78.4195,85.2398 73,90.5C 72.2751,87.6234 72.7751,84.9567 74.5,82.5C 71.9464,80.2919 69.4464,77.9586 67,75.5C 64.1717,84.1894 61.6717,92.8561 59.5,101.5C 59.6495,100.448 59.4828,99.448 59,98.5C 58.7679,99.7375 58.2679,100.737 57.5,101.5C 59.4323,91.2081 62.2657,81.2081 66,71.5C 70.3447,75.1801 74.678,78.8467 79,82.5C 82.6553,79.6778 86.1553,76.6778 89.5,73.5 Z"/></g>
<g><path style="opacity:1" fill="#acb7d8" d="M 96.5,102.5 C 97.2891,102.783 97.9558,103.283 98.5,104C 94.3112,104.812 90.3112,104.645 86.5,103.5C 90.0419,103.813 93.3752,103.479 96.5,102.5 Z"/></g>
<g><path style="opacity:1" fill="#acb7d8" d="M 47.5,101.5 C 47.8333,101.5 48.1667,101.5 48.5,101.5C 50.6353,103.369 53.3019,104.036 56.5,103.5C 53.7131,104.477 50.7131,104.81 47.5,104.5C 47.5,103.5 47.5,102.5 47.5,101.5 Z"/></g>
<g><path style="opacity:1" fill="#afbad9" d="M 109.5,101.5 C 110.404,102.209 110.737,103.209 110.5,104.5C 107.287,104.81 104.287,104.477 101.5,103.5C 104.698,104.036 107.365,103.369 109.5,101.5 Z"/></g>
</svg>
