<?xml version="1.0" encoding="UTF-8"?>
<!DOCTYPE svg PUBLIC "-//W3C//DTD SVG 1.1//EN" "http://www.w3.org/Graphics/SVG/1.1/DTD/svg11.dtd">
<svg xmlns="http://www.w3.org/2000/svg" version="1.1" width="160px" height="160px" style="shape-rendering:geometricPrecision; text-rendering:geometricPrecision; image-rendering:optimizeQuality; fill-rule:evenodd; clip-rule:evenodd" xmlns:xlink="http://www.w3.org/1999/xlink">
<g><path style="opacity:1" fill="#952e6a" d="M -0.5,-0.5 C 52.8333,-0.5 106.167,-0.5 159.5,-0.5C 159.5,52.8333 159.5,106.167 159.5,159.5C 106.167,159.5 52.8333,159.5 -0.5,159.5C -0.5,106.167 -0.5,52.8333 -0.5,-0.5 Z"/></g>
<g><path style="opacity:1" fill="#f6bf25" d="M 66.5,35.5 C 84.9808,36.4655 89.9808,45.1322 81.5,61.5C 81.6799,62.5539 82.0133,63.5539 82.5,64.5C 78.5471,65.0146 74.5471,65.1813 70.5,65C 67.3171,66.0183 65.9838,68.185 66.5,71.5C 66.3647,73.808 67.0314,75.808 68.5,77.5C 72.0296,80.1955 75.6963,82.6955 79.5,85C 81.607,86.2635 82.607,88.0968 82.5,90.5C 78.6754,89.926 75.0087,88.7594 71.5,87C 63.7177,81.6901 55.2177,78.1901 46,76.5C 40.573,77.2531 36.9063,80.2531 35,85.5C 32.8413,68.8304 38.1746,55.1638 51,44.5C 51.3114,43.2575 50.8114,42.2575 49.5,41.5C 55.5422,40.3003 61.2088,38.3003 66.5,35.5 Z"/></g>
<g><path style="opacity:1" fill="#9f3d64" d="M 74.5,54.5 C 76.4646,54.9483 76.7979,55.9483 75.5,57.5C 74.6143,56.675 74.281,55.675 74.5,54.5 Z"/></g>
<g><path style="opacity:1" fill="#f4bc28" d="M 107.5,77.5 C 105,76.1104 102.667,76.2771 100.5,78C 102.92,78.2904 105.254,78.7904 107.5,79.5C 109.62,80.4506 111.286,81.9506 112.5,84C 109.941,86.103 107.274,87.9363 104.5,89.5C 98.6037,90.5114 92.7703,90.5114 87,89.5C 86.3333,87.5 86.3333,85.5 87,83.5C 88.8515,79.7971 90.6848,76.1304 92.5,72.5C 92.278,70.9446 91.6113,69.6113 90.5,68.5C 95.8474,59.8392 101.347,59.5058 107,67.5C 107.498,70.8168 107.665,74.1501 107.5,77.5 Z"/></g>
<g><path style="opacity:1" fill="#c2704c" d="M 107.5,77.5 C 107.5,78.1667 107.5,78.8333 107.5,79.5C 105.254,78.7904 102.92,78.2904 100.5,78C 102.667,76.2771 105,76.1104 107.5,77.5 Z"/></g>
<g><path style="opacity:1" fill="#f6bf25" d="M 120.5,88.5 C 111.321,96.3413 100.654,100.675 88.5,101.5C 83.4889,101.334 78.4889,101.501 73.5,102C 75.74,102.977 78.0733,103.477 80.5,103.5C 87.6545,103.911 94.6545,103.078 101.5,101C 108.663,98.254 115.329,94.754 121.5,90.5C 120.175,97.4836 116.509,102.817 110.5,106.5C 111.847,105.972 113.181,105.805 114.5,106C 96.4093,125.847 75.7427,128.847 52.5,115C 46.8652,110.371 42.3652,104.871 39,98.5C 33.7873,82.7109 39.2873,76.8776 55.5,81C 61.9544,83.727 68.2878,86.727 74.5,90C 84.7101,93.4814 94.7101,93.3147 104.5,89.5C 111.986,87.1701 118.486,83.1701 124,77.5C 124.343,81.6383 123.176,85.305 120.5,88.5 Z"/></g>
<g><path style="opacity:1" fill="#a14063" d="M 120.5,88.5 C 120.833,89.1667 121.167,89.8333 121.5,90.5C 115.329,94.754 108.663,98.254 101.5,101C 94.6545,103.078 87.6545,103.911 80.5,103.5C 83.1667,102.833 85.8333,102.167 88.5,101.5C 100.654,100.675 111.321,96.3413 120.5,88.5 Z"/></g>
<g><path style="opacity:1" fill="#b35a56" d="M 88.5,101.5 C 85.8333,102.167 83.1667,102.833 80.5,103.5C 78.0733,103.477 75.74,102.977 73.5,102C 78.4889,101.501 83.4889,101.334 88.5,101.5 Z"/></g>
<g><path style="opacity:1" fill="#aa4d5c" d="M 110.5,106.5 C 108.421,108.873 105.754,110.206 102.5,110.5C 104.849,108.659 107.515,107.326 110.5,106.5 Z"/></g>
<g><path style="opacity:1" fill="#ab4f5c" d="M 102.5,110.5 C 97.6308,113.375 92.2975,114.542 86.5,114C 91.8474,112.829 97.1807,111.663 102.5,110.5 Z"/></g>
</svg>
