<svg id="Слой_1" data-name="Слой 1" xmlns="http://www.w3.org/2000/svg" viewBox="0 0 48 48"><defs><style>.cls-2{fill:#d1d3d5}</style></defs><g id="MGNZ"><path fill="#0072bc" d="M0 0h48v48H0z"/><path class="cls-2" d="M18.45 19a7.32 7.32 0 00-2 2.42 7.58 7.58 0 00-.77 3 6.27 6.27 0 00.76 3.66A5.67 5.67 0 0018 29.81l-.62 4a7.76 7.76 0 01-1.22-1.2c-.54-.64-.81-1-1.06-1.32a11.59 11.59 0 01-1.75-4 11.19 11.19 0 01.39-6.3 11.42 11.42 0 015.49-6.05zm1.48-4.1h2.52l1.72 11 1.78-11h2.48l1.3 18.82h-2.44l-.71-9.86-1.59 9.86h-1.53l-1.68-9.74-.67 9.8h-2.49l1.31-18.88z"/><path class="cls-2" d="M29.37 14.89l.46.07a5.52 5.52 0 013 1.58A4.82 4.82 0 0134 18.67a4.77 4.77 0 01-1.32 4.64l.28.12a4.42 4.42 0 01.93.6 10 10 0 011 .82 6.18 6.18 0 011.18 1.73 7.72 7.72 0 01.73 2.9 8.34 8.34 0 01-.91 4.15 9.34 9.34 0 01-2.15 2.68 13.8 13.8 0 01-6.92 3.13 16.55 16.55 0 01-8.86-.9 16.28 16.28 0 01-7.44-6 15.79 15.79 0 01-2.43-10.87 16.33 16.33 0 017.75-11.18 17.1 17.1 0 0113.79-1.21A16.05 16.05 0 0138 16.2a15.62 15.62 0 012.05 8.52A16 16 0 0137.8 32s.09-.29.2-.87a8.52 8.52 0 00.18-2.13 9.08 9.08 0 00-.73-2.67A11.35 11.35 0 0137 25a9.78 9.78 0 01-.21-2 20.39 20.39 0 00-.32-2.13 11.93 11.93 0 00-3-5.39A13 13 0 0027.76 12a13.17 13.17 0 00-9.29.68 12.86 12.86 0 00-6.38 6.72 12.35 12.35 0 004 14.41 13.21 13.21 0 007.12 2.68 14.51 14.51 0 007.86-2 6.25 6.25 0 002.71-3.58 4.75 4.75 0 00.22-2.3 4.31 4.31 0 00-.91-2 4.47 4.47 0 00-2.71-1.52l-.2-3.15h.14a1.34 1.34 0 00.62-.37 2.52 2.52 0 00.69-.9 2.24 2.24 0 00-.07-1.88 2.07 2.07 0 00-1.92-1.06z"/></g></svg>