<?xml version="1.0" encoding="UTF-8"?>
<!DOCTYPE svg PUBLIC "-//W3C//DTD SVG 1.1//EN" "http://www.w3.org/Graphics/SVG/1.1/DTD/svg11.dtd">
<svg xmlns="http://www.w3.org/2000/svg" version="1.1" width="160px" height="160px" style="shape-rendering:geometricPrecision; text-rendering:geometricPrecision; image-rendering:optimizeQuality; fill-rule:evenodd; clip-rule:evenodd" xmlns:xlink="http://www.w3.org/1999/xlink">
<g><path style="opacity:1" fill="#0883c8" d="M -0.5,-0.5 C 52.8333,-0.5 106.167,-0.5 159.5,-0.5C 159.5,52.8333 159.5,106.167 159.5,159.5C 106.167,159.5 52.8333,159.5 -0.5,159.5C -0.5,106.167 -0.5,52.8333 -0.5,-0.5 Z"/></g>
<g><path style="opacity:1" fill="#f7fbfd" d="M 39.5,35.5 C 65.8354,35.3334 92.1688,35.5 118.5,36C 120.286,36.7845 121.786,37.9512 123,39.5C 123.667,66.1667 123.667,92.8333 123,119.5C 122.167,120.333 121.333,121.167 120.5,122C 93.5868,123.649 66.5868,123.982 39.5,123C 38.3333,121.833 37.1667,120.667 36,119.5C 35.3333,92.8333 35.3333,66.1667 36,39.5C 37.3756,38.2949 38.5423,36.9616 39.5,35.5 Z"/></g>
<g><path style="opacity:1" fill="#0382c8" d="M 41.5,39.5 C 66.5022,39.3334 91.5022,39.5 116.5,40C 117.416,40.3742 118.25,40.8742 119,41.5C 119.667,66.5 119.667,91.5 119,116.5C 118.692,117.308 118.192,117.975 117.5,118.5C 91.9703,119.83 66.4703,119.83 41,118.5C 39.8507,105.424 39.3507,92.2577 39.5,79C 39.6667,66.5 39.8333,54 40,41.5C 40.7172,40.9558 41.2172,40.2891 41.5,39.5 Z"/></g>
<g><path style="opacity:1" fill="#fcfdfe" d="M 75.5,48.5 C 83.6135,48.3057 89.7802,51.639 94,58.5C 100.231,68.3315 102.897,78.9982 102,90.5C 98.2411,105.243 88.7411,111.743 73.5,110C 64.0157,106.851 58.5157,100.351 57,90.5C 55.5547,72.9575 61.7214,58.9575 75.5,48.5 Z"/></g>
</svg>
