<?xml version="1.0" encoding="UTF-8"?>
<!DOCTYPE svg PUBLIC "-//W3C//DTD SVG 1.1//EN" "http://www.w3.org/Graphics/SVG/1.1/DTD/svg11.dtd">
<svg xmlns="http://www.w3.org/2000/svg" version="1.1" width="160px" height="160px" style="shape-rendering:geometricPrecision; text-rendering:geometricPrecision; image-rendering:optimizeQuality; fill-rule:evenodd; clip-rule:evenodd" xmlns:xlink="http://www.w3.org/1999/xlink">
<g><path style="opacity:1" fill="#0f499c" d="M -0.5,-0.5 C 52.8333,-0.5 106.167,-0.5 159.5,-0.5C 159.5,52.8333 159.5,106.167 159.5,159.5C 106.167,159.5 52.8333,159.5 -0.5,159.5C -0.5,106.167 -0.5,52.8333 -0.5,-0.5 Z"/></g>
<g><path style="opacity:1" fill="#f8f9fb" d="M 102.5,41.5 C 99.5179,41.4156 96.5179,41.9156 93.5,43C 91.6789,44.7433 89.6789,46.2433 87.5,47.5C 86.7132,46.7579 86.0465,45.9246 85.5,45C 86.9752,42.6908 88.6419,40.5241 90.5,38.5C 83.5072,37.1503 78.0072,39.817 74,46.5C 71.415,43.843 71.2483,41.1763 73.5,38.5C 73.2907,37.914 72.9574,37.414 72.5,37C 75.7219,35.0096 76.2219,32.5096 74,29.5C 70.7807,33.962 67.114,37.962 63,41.5C 62.6481,43.2475 62.1481,44.9142 61.5,46.5C 61.3747,48.601 60.708,50.9344 59.5,53.5C 58.9984,54.521 58.3317,54.6877 57.5,54C 58.2855,51.0916 58.6188,48.2582 58.5,45.5C 58.2197,42.2795 56.5531,40.2795 53.5,39.5C 58.0423,34.2708 62.709,29.1041 67.5,24C 75.1925,20.4098 82.5259,21.0765 89.5,26C 94.2852,29.8179 98.7852,33.9846 103,38.5C 103.47,39.5768 103.303,40.5768 102.5,41.5 Z"/></g>
<g><path style="opacity:1" fill="#ebeff6" d="M 119.5,53.5 C 116.635,53.0548 114.135,53.7215 112,55.5C 109.824,51.8927 107.157,51.5594 104,54.5C 101.152,53.5667 100.986,52.0667 103.5,50C 102.584,49.6258 101.75,49.1258 101,48.5C 99.6667,49.8333 98.3333,51.1667 97,52.5C 95.7273,49.9376 96.394,47.6043 99,45.5C 99.69,46.7383 100.19,46.7383 100.5,45.5C 102.388,44.0603 104.055,42.3936 105.5,40.5C 110.24,44.8497 114.907,49.1831 119.5,53.5 Z"/></g>
<g><path style="opacity:1" fill="#f5f7fa" d="M 52.5,40.5 C 53.2891,40.7828 53.9558,41.2828 54.5,42C 54.91,44.2402 54.2434,46.4069 52.5,48.5C 52.6236,49.1067 52.9569,49.44 53.5,49.5C 52.343,51.1376 51.1764,52.8043 50,54.5C 49.2419,56.7695 49.4086,58.9361 50.5,61C 46.6565,60.6266 44.1565,58.4599 43,54.5C 42.0853,55.3279 41.4186,56.3279 41,57.5C 40.8425,59.9951 40.6759,62.3284 40.5,64.5C 41.5919,69.6494 43.4253,74.3161 46,78.5C 45.6667,78.8333 45.3333,79.1667 45,79.5C 43.9148,78.7069 42.7481,78.0402 41.5,77.5C 38.9984,78.6826 36.6651,79.3493 34.5,79.5C 36.0491,83.1697 38.5491,84.1697 42,82.5C 43.6376,83.5273 45.471,85.0273 47.5,87C 42.6486,88.0302 37.8153,89.8635 33,92.5C 31.561,90.9861 30.061,90.6527 28.5,91.5C 31.0869,95.9541 34.7535,97.9541 39.5,97.5C 41.8333,98.8333 44.1667,98.8333 46.5,97.5C 48.5091,97.8169 50.5091,98.1503 52.5,98.5C 54.0293,98.4712 55.196,97.8045 56,96.5C 56.6377,97.6086 57.1377,98.7753 57.5,100C 56.3618,102.137 54.8618,103.971 53,105.5C 51.2302,104.724 49.3969,104.89 47.5,106C 48.1667,106.333 48.8333,106.667 49.5,107C 52.6737,106.463 55.6737,106.63 58.5,107.5C 61.1481,105.558 63.8148,105.224 66.5,106.5C 65.1667,107.167 64.1667,108.167 63.5,109.5C 60.856,110.144 59.1894,111.811 58.5,114.5C 57.5,114.833 56.8333,115.5 56.5,116.5C 55.5416,116.953 54.7083,117.619 54,118.5C 44.0352,110.204 34.3686,101.537 25,92.5C 20.9016,85.9716 20.5683,79.305 24,72.5C 33.3654,61.6391 42.8654,50.9724 52.5,40.5 Z"/></g>
<g><path style="opacity:1" fill="#6e8cc1" d="M 52.5,40.5 C 52.5,39.8333 52.8333,39.5 53.5,39.5C 56.5531,40.2795 58.2197,42.2795 58.5,45.5C 58.6188,48.2582 58.2855,51.0916 57.5,54C 58.3317,54.6877 58.9984,54.521 59.5,53.5C 60.708,50.9344 61.3747,48.601 61.5,46.5C 61.9867,47.4734 62.4867,48.4734 63,49.5C 64,49.5 65,49.5 66,49.5C 66.6082,51.0664 67.4415,52.3998 68.5,53.5C 66.3893,54.7359 64.3893,56.2359 62.5,58C 62.7284,58.3988 63.0618,58.5654 63.5,58.5C 62.8902,59.391 62.5569,60.391 62.5,61.5C 61.7784,61.0825 61.2784,60.4158 61,59.5C 59.264,61.0632 57.764,62.7299 56.5,64.5C 56.0582,63.7688 55.8915,62.7688 56,61.5C 54.276,64.1699 53.1093,63.8366 52.5,60.5C 53.4978,57.9722 54.3311,57.9722 55,60.5C 55.6924,59.9747 56.1924,59.3081 56.5,58.5C 55.1667,56.8333 53.8333,55.1667 52.5,53.5C 53.1667,52.5 53.8333,51.5 54.5,50.5C 54.3764,49.8933 54.0431,49.56 53.5,49.5C 52.9569,49.44 52.6236,49.1067 52.5,48.5C 54.2434,46.4069 54.91,44.2402 54.5,42C 53.9558,41.2828 53.2891,40.7828 52.5,40.5 Z"/></g>
<g><path style="opacity:1" fill="#5b7bb8" d="M 102.5,41.5 C 101.4,42.6049 100.733,43.9382 100.5,45.5C 100.19,46.7383 99.69,46.7383 99,45.5C 96.394,47.6043 95.7273,49.9376 97,52.5C 98.3333,51.1667 99.6667,49.8333 101,48.5C 101.75,49.1258 102.584,49.6258 103.5,50C 100.986,52.0667 101.152,53.5667 104,54.5C 107.157,51.5594 109.824,51.8927 112,55.5C 114.135,53.7215 116.635,53.0548 119.5,53.5C 121.233,54.0076 121.566,54.841 120.5,56C 122.366,54.9916 123.699,55.4916 124.5,57.5C 122.473,57.3379 120.473,57.5045 118.5,58C 115.714,60.7262 112.381,62.3928 108.5,63C 110.664,63.9143 112.664,65.081 114.5,66.5C 113.711,68.4879 112.545,68.8213 111,67.5C 110.044,68.5786 109.211,69.7453 108.5,71C 110.492,71.5743 111.992,72.741 113,74.5C 114.107,73.2881 114.607,73.6214 114.5,75.5C 112.614,79.3991 110.281,83.0657 107.5,86.5C 107.97,87.463 108.637,87.463 109.5,86.5C 111.121,86.7869 112.121,87.7869 112.5,89.5C 111.418,89.7486 110.085,89.9152 108.5,90C 110.025,94.3823 111.025,98.7157 111.5,103C 111.026,104.704 110.859,106.538 111,108.5C 108.909,109.5 107.243,108.833 106,106.5C 104.89,104.603 104.724,102.77 105.5,101C 104.234,100.691 103.067,100.191 102,99.5C 101.061,102.121 100.228,104.788 99.5,107.5C 98.7124,106.23 97.7124,105.23 96.5,104.5C 98.1134,101.868 99.78,99.2016 101.5,96.5C 100.645,95.707 99.8113,96.0403 99,97.5C 98.3333,96.8333 98.3333,96.1667 99,95.5C 102.3,92.2501 104.634,88.5835 106,84.5C 105.292,85.3805 104.458,86.0472 103.5,86.5C 102.957,86.44 102.624,86.1067 102.5,85.5C 105.146,80.0585 105.146,74.7252 102.5,69.5C 102.414,68.5041 102.748,67.6708 103.5,67C 100.644,63.8019 98.1442,60.3019 96,56.5C 92.8993,55.284 89.566,53.6173 86,51.5C 84.984,52.6341 84.3173,52.3008 84,50.5C 80.1251,51.4899 76.4585,51.4899 73,50.5C 71.4297,51.5486 69.9297,52.5486 68.5,53.5C 67.4415,52.3998 66.6082,51.0664 66,49.5C 65,49.5 64,49.5 63,49.5C 62.4867,48.4734 61.9867,47.4734 61.5,46.5C 62.1481,44.9142 62.6481,43.2475 63,41.5C 67.114,37.962 70.7807,33.962 74,29.5C 76.2219,32.5096 75.7219,35.0096 72.5,37C 72.9574,37.414 73.2907,37.914 73.5,38.5C 71.2483,41.1763 71.415,43.843 74,46.5C 78.0072,39.817 83.5072,37.1503 90.5,38.5C 88.6419,40.5241 86.9752,42.6908 85.5,45C 86.0465,45.9246 86.7132,46.7579 87.5,47.5C 89.6789,46.2433 91.6789,44.7433 93.5,43C 96.5179,41.9156 99.5179,41.4156 102.5,41.5 Z"/></g>
<g><path style="opacity:1" fill="#1b4f9f" d="M 62.5,61.5 C 62.5569,60.391 62.8902,59.391 63.5,58.5C 64.9362,56.6815 66.6029,56.3482 68.5,57.5C 70.5,60.5 72.5,63.5 74.5,66.5C 73.6667,68.1667 72.8333,69.8333 72,71.5C 68.6014,68.2711 65.4347,64.9378 62.5,61.5 Z"/></g>
<g><path style="opacity:1" fill="#dde4f0" d="M 102.5,69.5 C 105.146,74.7252 105.146,80.0585 102.5,85.5C 102.624,86.1067 102.957,86.44 103.5,86.5C 101.758,89.6434 99.7583,92.6434 97.5,95.5C 94.4669,97.016 91.8003,99.016 89.5,101.5C 89.1034,100.475 88.4368,100.308 87.5,101C 86.7894,102.255 85.956,103.421 85,104.5C 85.2753,100.517 84.2753,100.517 82,104.5C 81.3086,102.109 80.3086,102.109 79,104.5C 78.7216,103.584 78.2216,102.918 77.5,102.5C 61.4351,99.316 53.1018,90.1494 52.5,75C 52.8519,71.3588 54.1852,67.8588 56.5,64.5C 57.764,62.7299 59.264,61.0632 61,59.5C 61.2784,60.4158 61.7784,61.0825 62.5,61.5C 65.4347,64.9378 68.6014,68.2711 72,71.5C 72.8333,69.8333 73.6667,68.1667 74.5,66.5C 72.5,63.5 70.5,60.5 68.5,57.5C 66.6029,56.3482 64.9362,56.6815 63.5,58.5C 63.0618,58.5654 62.7284,58.3988 62.5,58C 64.3893,56.2359 66.3893,54.7359 68.5,53.5C 69.9297,52.5486 71.4297,51.5486 73,50.5C 76.4585,51.4899 80.1251,51.4899 84,50.5C 84.3173,52.3008 84.984,52.6341 86,51.5C 89.566,53.6173 92.8993,55.284 96,56.5C 98.1442,60.3019 100.644,63.8019 103.5,67C 102.748,67.6708 102.414,68.5041 102.5,69.5 Z"/></g>
<g><path style="opacity:1" fill="#2856a3" d="M 81.5,68.5 C 83.4233,70.2014 83.7567,72.2014 82.5,74.5C 80.4537,72.719 80.1204,70.719 81.5,68.5 Z"/></g>
<g><path style="opacity:1" fill="#2957a4" d="M 75.5,68.5 C 78.3014,70.6169 78.1347,72.6169 75,74.5C 73.4463,72.5111 73.6129,70.5111 75.5,68.5 Z"/></g>
<g><path style="opacity:1" fill="#2254a2" d="M 78.5,62.5 C 80.8995,64.5806 81.0662,66.9139 79,69.5C 77.2771,67.3332 77.1104,64.9998 78.5,62.5 Z"/></g>
<g><path style="opacity:1" fill="#184c9e" d="M 59.5,62.5 C 64.3288,65.1634 67.9955,68.9967 70.5,74C 67.5377,80.0968 64.2044,85.9302 60.5,91.5C 56.7621,87.0636 55.0954,81.8969 55.5,76C 55.2456,71.0142 56.579,66.5142 59.5,62.5 Z"/></g>
<g><path style="opacity:1" fill="#174c9e" d="M 102.5,69.5 C 103.77,78.0018 101.936,85.6685 97,92.5C 93.3728,86.0796 89.8728,79.5796 86.5,73C 90.35,69.4508 93.85,65.6175 97,61.5C 99.103,64.059 100.936,66.7257 102.5,69.5 Z"/></g>
<g><path style="opacity:1" fill="#1e50a0" d="M 89.5,56.5 C 92.2723,56.5952 94.2723,57.9285 95.5,60.5C 92.5,64.1667 89.1667,67.5 85.5,70.5C 84.4471,69.5617 83.7804,68.395 83.5,67C 85.3903,63.3799 87.3903,59.8799 89.5,56.5 Z"/></g>
<g><path style="opacity:1" fill="#2353a1" d="M 83.5,53.5 C 85.3117,53.7713 86.9783,54.438 88.5,55.5C 86.8532,58.4735 84.8532,61.1401 82.5,63.5C 81.1195,63.0004 80.4528,62.0004 80.5,60.5C 81.2366,58.0297 82.2366,55.6964 83.5,53.5 Z"/></g>
<g><path style="opacity:1" fill="#3760a9" d="M 76.5,52.5 C 82.0533,52.0254 82.8866,53.6921 79,57.5C 77.6283,56.0899 76.795,54.4233 76.5,52.5 Z"/></g>
<g><path style="opacity:1" fill="#1d50a0" d="M 71.5,53.5 C 74.595,53.6263 76.4283,55.293 77,58.5C 77.8837,60.6406 77.3837,62.3073 75.5,63.5C 73.1468,61.1401 71.1468,58.4735 69.5,55.5C 70.2427,54.8182 70.9094,54.1515 71.5,53.5 Z"/></g>
<g><path style="opacity:1" fill="#315ca6" d="M 77.5,73.5 C 80.9563,74.5362 81.2896,76.2029 78.5,78.5C 76.2458,77.286 75.9125,75.6194 77.5,73.5 Z"/></g>
<g><path style="opacity:1" fill="#5c7cb9" d="M 53.5,49.5 C 54.0431,49.56 54.3764,49.8933 54.5,50.5C 53.8333,51.5 53.1667,52.5 52.5,53.5C 53.8333,55.1667 55.1667,56.8333 56.5,58.5C 56.1924,59.3081 55.6924,59.9747 55,60.5C 54.3311,57.9722 53.4978,57.9722 52.5,60.5C 53.1093,63.8366 54.276,64.1699 56,61.5C 55.8915,62.7688 56.0582,63.7688 56.5,64.5C 54.1852,67.8588 52.8519,71.3588 52.5,75C 53.1018,90.1494 61.4351,99.316 77.5,102.5C 76.5384,104.986 75.7051,104.986 75,102.5C 73.6914,104.891 72.6914,104.891 72,102.5C 70.4263,103.984 69.093,105.651 68,107.5C 67.6174,106.944 67.1174,106.611 66.5,106.5C 63.8148,105.224 61.1481,105.558 58.5,107.5C 55.6737,106.63 52.6737,106.463 49.5,107C 48.8333,106.667 48.1667,106.333 47.5,106C 49.3969,104.89 51.2302,104.724 53,105.5C 54.8618,103.971 56.3618,102.137 57.5,100C 57.1377,98.7753 56.6377,97.6086 56,96.5C 55.196,97.8045 54.0293,98.4712 52.5,98.5C 50.5091,98.1503 48.5091,97.8169 46.5,97.5C 44.2286,97.2284 41.8953,97.2284 39.5,97.5C 34.7535,97.9541 31.0869,95.9541 28.5,91.5C 30.061,90.6527 31.561,90.9861 33,92.5C 37.8153,89.8635 42.6486,88.0302 47.5,87C 45.471,85.0273 43.6376,83.5273 42,82.5C 38.5491,84.1697 36.0491,83.1697 34.5,79.5C 36.6651,79.3493 38.9984,78.6826 41.5,77.5C 42.7481,78.0402 43.9148,78.7069 45,79.5C 45.3333,79.1667 45.6667,78.8333 46,78.5C 43.4253,74.3161 41.5919,69.6494 40.5,64.5C 40.6759,62.3284 40.8425,59.9951 41,57.5C 41.4186,56.3279 42.0853,55.3279 43,54.5C 44.1565,58.4599 46.6565,60.6266 50.5,61C 49.4086,58.9361 49.2419,56.7695 50,54.5C 51.1764,52.8043 52.343,51.1376 53.5,49.5 Z"/></g>
<g><path style="opacity:1" fill="#325da7" d="M 84.5,74.5 C 87.7482,78.3297 89.9149,82.6631 91,87.5C 88.6667,84.1667 86.3333,80.8333 84,77.5C 83.5304,76.4232 83.6971,75.4232 84.5,74.5 Z"/></g>
<g><path style="opacity:1" fill="#2d5aa6" d="M 74.5,78.5 C 75.7562,78.4614 76.7562,78.9614 77.5,80C 73.6311,83.5338 70.1311,87.3672 67,91.5C 69.1438,87.1345 71.6438,82.8012 74.5,78.5 Z"/></g>
<g><path style="opacity:1" fill="#5374b4" d="M 114.5,75.5 C 115.239,75.369 115.906,75.5357 116.5,76C 115.327,79.1103 115.827,79.277 118,76.5C 120.482,78.6848 123.482,81.0181 127,83.5C 127.483,84.448 127.649,85.448 127.5,86.5C 122.647,86.6511 117.647,86.3178 112.5,85.5C 111.807,82.033 110.807,82.3663 109.5,86.5C 108.637,87.463 107.97,87.463 107.5,86.5C 110.281,83.0657 112.614,79.3991 114.5,75.5 Z"/></g>
<g><path style="opacity:1" fill="#3761aa" d="M 71.5,75.5 C 73.2252,75.8425 73.7252,76.8425 73,78.5C 71,81.1667 69,83.8333 67,86.5C 67.9116,82.6654 69.4116,78.9988 71.5,75.5 Z"/></g>
<g><path style="opacity:1" fill="#184d9e" d="M 77.5,81.5 C 82.0575,85.5533 86.5575,89.8867 91,94.5C 91.7494,95.635 91.5827,96.635 90.5,97.5C 82.0508,101.834 73.8841,101.501 66,96.5C 65.3333,95.8333 65.3333,95.1667 66,94.5C 70.4358,90.5724 74.2692,86.2391 77.5,81.5 Z"/></g>
<g><path style="opacity:1" fill="#3860a9" d="M 81.5,77.5 C 85.7136,81.9477 88.8803,86.9477 91,92.5C 88.036,88.5342 84.7026,84.8675 81,81.5C 80.4209,80.0715 80.5876,78.7382 81.5,77.5 Z"/></g>
<g><path style="opacity:1" fill="#a3b9d9" d="M 46.5,97.5 C 44.1667,98.8333 41.8333,98.8333 39.5,97.5C 41.8953,97.2284 44.2286,97.2284 46.5,97.5 Z"/></g>
<g><path style="opacity:1" fill="#f8f9fb" d="M 124.5,57.5 C 128.831,60.9981 132.664,64.9981 136,69.5C 138,74.5 138,79.5 136,84.5C 121.755,101.803 106.922,118.636 91.5,135C 86.7339,137.31 81.7339,137.977 76.5,137C 69.0885,132.259 62.2551,126.759 56,120.5C 55.3083,119.563 55.475,118.897 56.5,118.5C 60.2296,120.003 63.7296,119.003 67,115.5C 67.3333,115.833 67.6667,116.167 68,116.5C 71.038,113.797 73.7046,110.797 76,107.5C 77.1455,108.684 78.3121,108.684 79.5,107.5C 79.3713,109.216 79.038,110.883 78.5,112.5C 77.5876,113.738 77.4209,115.072 78,116.5C 79.517,114.76 81.017,113.094 82.5,111.5C 83.4822,110.859 84.4822,110.193 85.5,109.5C 86.1757,110.602 86.8423,111.602 87.5,112.5C 86.5592,114.05 85.8925,115.716 85.5,117.5C 83.5194,121.882 84.8527,125.549 89.5,128.5C 91.5962,127.38 91.9295,125.88 90.5,124C 92.0163,122.103 92.683,119.936 92.5,117.5C 93.9541,115.429 95.2875,113.262 96.5,111C 96.2718,108.675 96.2718,106.508 96.5,104.5C 97.7124,105.23 98.7124,106.23 99.5,107.5C 100.228,104.788 101.061,102.121 102,99.5C 103.067,100.191 104.234,100.691 105.5,101C 104.724,102.77 104.89,104.603 106,106.5C 107.243,108.833 108.909,109.5 111,108.5C 110.859,106.538 111.026,104.704 111.5,103C 111.025,98.7157 110.025,94.3823 108.5,90C 110.085,89.9152 111.418,89.7486 112.5,89.5C 112.121,87.7869 111.121,86.7869 109.5,86.5C 110.807,82.3663 111.807,82.033 112.5,85.5C 117.647,86.3178 122.647,86.6511 127.5,86.5C 127.649,85.448 127.483,84.448 127,83.5C 123.482,81.0181 120.482,78.6848 118,76.5C 115.827,79.277 115.327,79.1103 116.5,76C 115.906,75.5357 115.239,75.369 114.5,75.5C 114.607,73.6214 114.107,73.2881 113,74.5C 111.992,72.741 110.492,71.5743 108.5,71C 109.211,69.7453 110.044,68.5786 111,67.5C 112.545,68.8213 113.711,68.4879 114.5,66.5C 112.664,65.081 110.664,63.9143 108.5,63C 112.381,62.3928 115.714,60.7262 118.5,58C 120.473,57.5045 122.473,57.3379 124.5,57.5 Z"/></g>
<g><path style="opacity:1" fill="#6382bc" d="M 97.5,95.5 C 94.8316,100.159 91.6649,104.492 88,108.5C 87.7188,110.905 88.3854,110.905 90,108.5C 90.2793,110.412 89.4459,111.746 87.5,112.5C 86.8423,111.602 86.1757,110.602 85.5,109.5C 84.4822,110.193 83.4822,110.859 82.5,111.5C 84.0621,107.608 86.3954,104.275 89.5,101.5C 91.8003,99.016 94.4669,97.016 97.5,95.5 Z"/></g>
<g><path style="opacity:1" fill="#4569ae" d="M 96.5,104.5 C 96.2718,106.508 96.2718,108.675 96.5,111C 95.2875,113.262 93.9541,115.429 92.5,117.5C 91.5595,114.875 90.3928,114.875 89,117.5C 88.6667,116.833 88.3333,116.167 88,115.5C 87.2917,116.381 86.4584,117.047 85.5,117.5C 85.8925,115.716 86.5592,114.05 87.5,112.5C 89.4459,111.746 90.2793,110.412 90,108.5C 88.3854,110.905 87.7188,110.905 88,108.5C 91.6649,104.492 94.8316,100.159 97.5,95.5C 99.7583,92.6434 101.758,89.6434 103.5,86.5C 104.458,86.0472 105.292,85.3805 106,84.5C 104.634,88.5835 102.3,92.2501 99,95.5C 98.3333,96.1667 98.3333,96.8333 99,97.5C 99.8113,96.0403 100.645,95.707 101.5,96.5C 99.78,99.2016 98.1134,101.868 96.5,104.5 Z"/></g>
<g><path style="opacity:1" fill="#496db0" d="M 89.5,101.5 C 86.3954,104.275 84.0621,107.608 82.5,111.5C 81.017,113.094 79.517,114.76 78,116.5C 77.4209,115.072 77.5876,113.738 78.5,112.5C 81.9605,110.887 82.4605,108.554 80,105.5C 79.5357,106.094 79.369,106.761 79.5,107.5C 78.3121,108.684 77.1455,108.684 76,107.5C 73.7046,110.797 71.038,113.797 68,116.5C 67.6667,116.167 67.3333,115.833 67,115.5C 63.7296,119.003 60.2296,120.003 56.5,118.5C 56.5,117.833 56.5,117.167 56.5,116.5C 56.8333,115.5 57.5,114.833 58.5,114.5C 58.4346,114.938 58.6012,115.272 59,115.5C 60.7524,113.649 62.2524,111.649 63.5,109.5C 64.1667,108.167 65.1667,107.167 66.5,106.5C 67.1174,106.611 67.6174,106.944 68,107.5C 69.093,105.651 70.4263,103.984 72,102.5C 72.6914,104.891 73.6914,104.891 75,102.5C 75.7051,104.986 76.5384,104.986 77.5,102.5C 78.2216,102.918 78.7216,103.584 79,104.5C 80.3086,102.109 81.3086,102.109 82,104.5C 84.2753,100.517 85.2753,100.517 85,104.5C 85.956,103.421 86.7894,102.255 87.5,101C 88.4368,100.308 89.1034,100.475 89.5,101.5 Z"/></g>
<g><path style="opacity:1" fill="#99b2d5" d="M 78.5,112.5 C 79.038,110.883 79.3713,109.216 79.5,107.5C 79.369,106.761 79.5357,106.094 80,105.5C 82.4605,108.554 81.9605,110.887 78.5,112.5 Z"/></g>
<g><path style="opacity:1" fill="#9bb2d5" d="M 63.5,109.5 C 62.2524,111.649 60.7524,113.649 59,115.5C 58.6012,115.272 58.4346,114.938 58.5,114.5C 59.1894,111.811 60.856,110.144 63.5,109.5 Z"/></g>
<g><path style="opacity:1" fill="#5d7db9" d="M 92.5,117.5 C 92.683,119.936 92.0163,122.103 90.5,124C 91.9295,125.88 91.5962,127.38 89.5,128.5C 84.8527,125.549 83.5194,121.882 85.5,117.5C 86.4584,117.047 87.2917,116.381 88,115.5C 88.3333,116.167 88.6667,116.833 89,117.5C 90.3928,114.875 91.5595,114.875 92.5,117.5 Z"/></g>
</svg>
