<?xml version="1.0" encoding="UTF-8"?>
<!DOCTYPE svg PUBLIC "-//W3C//DTD SVG 1.1//EN" "http://www.w3.org/Graphics/SVG/1.1/DTD/svg11.dtd">
<svg xmlns="http://www.w3.org/2000/svg" version="1.1" width="160px" height="160px" style="shape-rendering:geometricPrecision; text-rendering:geometricPrecision; image-rendering:optimizeQuality; fill-rule:evenodd; clip-rule:evenodd" xmlns:xlink="http://www.w3.org/1999/xlink">
<g><path style="opacity:1" fill="#012469" d="M -0.5,-0.5 C 52.8333,-0.5 106.167,-0.5 159.5,-0.5C 159.5,52.8333 159.5,106.167 159.5,159.5C 106.167,159.5 52.8333,159.5 -0.5,159.5C -0.5,106.167 -0.5,52.8333 -0.5,-0.5 Z"/></g>
<g><path style="opacity:1" fill="#ab8a5d" d="M 83.5,68.5 C 81.1667,68.5 78.8333,68.5 76.5,68.5C 76.5,70.5 76.5,72.5 76.5,74.5C 72.5229,67.0205 66.5229,64.8538 58.5,68C 56.3826,69.7691 54.3826,71.6024 52.5,73.5C 52.2294,71.5695 51.2294,70.2362 49.5,69.5C 51.2718,66.8395 52.6052,63.8395 53.5,60.5C 54.934,62.2199 55.7674,64.2199 56,66.5C 57.1445,62.5184 59.3112,59.185 62.5,56.5C 62.8333,58.5 63.1667,60.5 63.5,62.5C 65.2895,61.1228 67.2895,60.1228 69.5,59.5C 70.0959,60.7161 70.2626,62.0494 70,63.5C 72.4537,62.8019 74.7871,61.8019 77,60.5C 77.1626,62.3867 76.3293,63.8867 74.5,65C 75.8333,65.3333 77.1667,65.6667 78.5,66C 76.4049,66.5556 76.2382,67.0556 78,67.5C 80.6728,66.0182 83.1728,66.1849 85.5,68C 84.9056,68.4643 84.2389,68.631 83.5,68.5 Z"/></g>
<g><path style="opacity:1" fill="#8990a6" d="M 49.5,69.5 C 44.8333,69.5 40.1667,69.5 35.5,69.5C 35.5,75.8333 35.5,82.1667 35.5,88.5C 34.5093,82.021 34.176,75.3543 34.5,68.5C 39.4115,69.0257 44.0782,68.3591 48.5,66.5C 49.3857,67.325 49.719,68.325 49.5,69.5 Z"/></g>
<g><path style="opacity:1" fill="#f2f3f6" d="M 24.5,70.5 C 27.0545,69.612 29.7212,69.2786 32.5,69.5C 32.5,75.8333 32.5,82.1667 32.5,88.5C 30.8333,88.5 29.1667,88.5 27.5,88.5C 27.6653,84.8183 27.4986,81.1516 27,77.5C 26.3923,79.1545 25.8923,80.8211 25.5,82.5C 25.1667,84.5 24.8333,86.5 24.5,88.5C 22.712,88.7852 21.0453,88.4519 19.5,87.5C 17.0834,78.2088 16.0834,78.5421 16.5,88.5C 14.5,88.5 12.5,88.5 10.5,88.5C 10.5,81.8333 10.5,75.1667 10.5,68.5C 13.2469,68.1866 15.9135,68.52 18.5,69.5C 19.5204,72.6048 20.6871,75.6048 22,78.5C 23.1356,75.9036 23.969,73.237 24.5,70.5 Z"/></g>
<g><path style="opacity:1" fill="#f8f9fa" d="M 49.5,69.5 C 51.2294,70.2362 52.2294,71.5695 52.5,73.5C 52.5,75.5 52.5,77.5 52.5,79.5C 51.5,80.1667 50.5,80.8333 49.5,81.5C 46.8333,81.5 44.1667,81.5 41.5,81.5C 41.5,83.8333 41.5,86.1667 41.5,88.5C 39.5,88.5 37.5,88.5 35.5,88.5C 35.5,82.1667 35.5,75.8333 35.5,69.5C 40.1667,69.5 44.8333,69.5 49.5,69.5 Z"/></g>
<g><path style="opacity:1" fill="#eef0f4" d="M 83.5,68.5 C 83.3398,70.1992 83.5065,71.8659 84,73.5C 86.6818,68.7639 90.5151,67.4306 95.5,69.5C 93.5,71.8333 91.5,74.1667 89.5,76.5C 91.5836,80.3359 93.917,84.0026 96.5,87.5C 94.2351,88.6474 91.9018,88.8141 89.5,88C 87.9544,85.7432 86.2877,83.5765 84.5,81.5C 83.5258,83.7427 83.1924,86.076 83.5,88.5C 82.5,88.5 81.5,88.5 80.5,88.5C 79.1667,88.5 77.8333,88.5 76.5,88.5C 76.5,86.5 76.5,84.5 76.5,82.5C 76.5,79.8333 76.5,77.1667 76.5,74.5C 76.5,72.5 76.5,70.5 76.5,68.5C 78.8333,68.5 81.1667,68.5 83.5,68.5 Z"/></g>
<g><path style="opacity:1" fill="#a5865c" d="M 123.5,68.5 C 127.555,68.1758 131.555,68.5091 135.5,69.5C 132.232,70.487 128.898,70.8204 125.5,70.5C 125.829,76.5368 125.496,82.5368 124.5,88.5C 123.503,81.8665 123.17,75.1998 123.5,68.5 Z"/></g>
<g><path style="opacity:1" fill="#8b9aba" d="M 32.5,88.5 C 32.5,82.1667 32.5,75.8333 32.5,69.5C 29.7212,69.2786 27.0545,69.612 24.5,70.5C 26.9878,68.6122 29.9878,67.9455 33.5,68.5C 33.824,75.3543 33.4907,82.021 32.5,88.5 Z"/></g>
<g><path style="opacity:1" fill="#102b6e" d="M 41.5,73.5 C 43.1667,73.5 44.8333,73.5 46.5,73.5C 46.5,74.8333 46.5,76.1667 46.5,77.5C 44.8333,77.5 43.1667,77.5 41.5,77.5C 41.5,76.1667 41.5,74.8333 41.5,73.5 Z"/></g>
<g><path style="opacity:1" fill="#a6865d" d="M 97.5,68.5 C 99.3878,70.9878 100.055,73.9878 99.5,77.5C 100.822,77.67 101.989,77.3366 103,76.5C 104.878,69.4745 109.378,66.9745 116.5,69C 123.09,75.2538 123.09,81.5871 116.5,88C 108.181,90.5316 103.847,87.3649 103.5,78.5C 102.167,78.5 100.833,78.5 99.5,78.5C 99.8204,81.8984 99.487,85.2317 98.5,88.5C 97.5033,81.8665 97.17,75.1998 97.5,68.5 Z"/></g>
<g><path style="opacity:1" fill="#0e2768" d="M 110.5,69.5 C 116.252,69.4188 119.252,72.2522 119.5,78C 118.447,87.1939 114.114,89.3605 106.5,84.5C 105.407,80.8922 105.24,77.2255 106,73.5C 107.397,71.9297 108.897,70.5964 110.5,69.5 Z"/></g>
<g><path style="opacity:1" fill="#a4855d" d="M 138.5,68.5 C 140.124,68.3601 141.29,69.0267 142,70.5C 144.461,76.0494 146.628,81.7161 148.5,87.5C 148.167,87.8333 147.833,88.1667 147.5,88.5C 146.218,86.8208 145.218,84.9874 144.5,83C 141.5,82.3333 138.5,82.3333 135.5,83C 134.74,84.4411 134.074,85.9411 133.5,87.5C 132.833,88.8333 132.167,88.8333 131.5,87.5C 134.132,81.2439 136.465,74.9105 138.5,68.5 Z"/></g>
<g><path style="opacity:1" fill="#112868" d="M 139.5,71.5 C 141.33,73.8263 142.663,76.493 143.5,79.5C 141.167,80.8333 138.833,80.8333 136.5,79.5C 137.508,76.8048 138.508,74.1381 139.5,71.5 Z"/></g>
<g><path style="opacity:1" fill="#596f9d" d="M 27.5,88.5 C 26.8333,86.5 26.1667,84.5 25.5,82.5C 25.8923,80.8211 26.3923,79.1545 27,77.5C 27.4986,81.1516 27.6653,84.8183 27.5,88.5 Z"/></g>
<g><path style="opacity:1" fill="#aa895c" d="M 52.5,79.5 C 55.4134,90.7222 62.0801,93.5555 72.5,88C 73.9771,86.1879 75.3104,84.3545 76.5,82.5C 76.5,84.5 76.5,86.5 76.5,88.5C 73.9689,92.115 71.9689,96.7817 70.5,102.5C 69.5224,102.023 68.6891,101.357 68,100.5C 67.8446,98.144 67.8446,95.8107 68,93.5C 67,94.5 66,95.5 65,96.5C 64.7508,95.376 64.2508,94.376 63.5,93.5C 60.1906,96.9937 56.1906,98.4937 51.5,98C 54.1277,96.3745 56.461,94.3745 58.5,92C 55.867,92.2532 53.2004,92.2532 50.5,92C 52.3031,91.3632 53.6364,90.1965 54.5,88.5C 50.959,87.8 47.459,87.1334 44,86.5C 43.8333,86.1667 43.6667,85.8333 43.5,85.5C 45.8622,84.7285 48.1955,83.8952 50.5,83C 49.944,82.6174 49.6107,82.1174 49.5,81.5C 50.5,80.8333 51.5,80.1667 52.5,79.5 Z"/></g>
<g><path style="opacity:1" fill="#253873" d="M 76.5,74.5 C 76.5,77.1667 76.5,79.8333 76.5,82.5C 75.3104,84.3545 73.9771,86.1879 72.5,88C 62.0801,93.5555 55.4134,90.7222 52.5,79.5C 52.5,77.5 52.5,75.5 52.5,73.5C 54.3826,71.6024 56.3826,69.7691 58.5,68C 66.5229,64.8538 72.5229,67.0205 76.5,74.5 Z"/></g>
<g><path style="opacity:1" fill="#f1f3f6" d="M 59.5,68.5 C 65.386,67.3435 70.2193,69.0102 74,73.5C 74.4828,74.448 74.6495,75.448 74.5,76.5C 72.4727,76.6621 70.4727,76.4955 68.5,76C 64.3405,72.2054 61.6738,73.0388 60.5,78.5C 60.6532,81.4892 62.1532,83.4892 65,84.5C 66.7144,83.9238 67.8811,82.7571 68.5,81C 70.4727,80.5045 72.4727,80.3379 74.5,80.5C 74.4559,84.0897 72.7892,86.5897 69.5,88C 57.6667,90.1667 52.8333,85.3333 55,73.5C 56.7073,71.9625 58.2073,70.2959 59.5,68.5 Z"/></g>
<g><path style="opacity:1" fill="#a8875c" d="M 76.5,88.5 C 77.8333,88.5 79.1667,88.5 80.5,88.5C 81.6859,95.8406 80.3525,95.8406 76.5,88.5 Z"/></g>
</svg>
