<?xml version="1.0" encoding="UTF-8"?>
<!DOCTYPE svg PUBLIC "-//W3C//DTD SVG 1.1//EN" "http://www.w3.org/Graphics/SVG/1.1/DTD/svg11.dtd">
<svg xmlns="http://www.w3.org/2000/svg" version="1.1" width="160px" height="160px" style="shape-rendering:geometricPrecision; text-rendering:geometricPrecision; image-rendering:optimizeQuality; fill-rule:evenodd; clip-rule:evenodd" xmlns:xlink="http://www.w3.org/1999/xlink">
<g><path style="opacity:1" fill="#313d89" d="M -0.5,-0.5 C 52.8333,-0.5 106.167,-0.5 159.5,-0.5C 159.5,52.8333 159.5,106.167 159.5,159.5C 106.167,159.5 52.8333,159.5 -0.5,159.5C -0.5,106.167 -0.5,52.8333 -0.5,-0.5 Z"/></g>
<g><path style="opacity:1" fill="#57527a" d="M 74.5,24.5 C 74.2624,26.4044 73.2624,27.7377 71.5,28.5C 71.7376,26.5956 72.7376,25.2623 74.5,24.5 Z"/></g>
<g><path style="opacity:1" fill="#b38a55" d="M 74.5,24.5 C 72.7376,25.2623 71.7376,26.5956 71.5,28.5C 70.0937,28.9731 69.427,29.9731 69.5,31.5C 67.7376,32.2623 66.7376,33.5956 66.5,35.5C 65.0937,35.9731 64.427,36.9731 64.5,38.5C 62.7376,39.2623 61.7376,40.5956 61.5,42.5C 60.0755,44.0311 59.4088,43.6977 59.5,41.5C 60.1667,40.1667 60.8333,38.8333 61.5,37.5C 64.1846,34.8103 66.5179,31.8103 68.5,28.5C 70.0908,25.5691 72.0908,22.9024 74.5,20.5C 75.2916,21.6998 75.2916,23.0331 74.5,24.5 Z"/></g>
<g><path style="opacity:1" fill="#55527b" d="M 71.5,28.5 C 71.573,30.0269 70.9063,31.0269 69.5,31.5C 69.427,29.9731 70.0937,28.9731 71.5,28.5 Z"/></g>
<g><path style="opacity:1" fill="#605777" d="M 68.5,28.5 C 66.5179,31.8103 64.1846,34.8103 61.5,37.5C 60.9569,37.44 60.6236,37.1067 60.5,36.5C 62.1381,33.6959 63.9715,31.0292 66,28.5C 66.7697,27.4019 67.603,27.4019 68.5,28.5 Z"/></g>
<g><path style="opacity:1" fill="#a4815a" d="M 92.5,33.5 C 92.5,32.8333 92.5,32.1667 92.5,31.5C 95.1867,30.9394 95.1867,31.6061 92.5,33.5 Z"/></g>
<g><path style="opacity:1" fill="#57527b" d="M 69.5,31.5 C 69.2624,33.4044 68.2624,34.7377 66.5,35.5C 66.7376,33.5956 67.7376,32.2623 69.5,31.5 Z"/></g>
<g><path style="opacity:1" fill="#54507c" d="M 73.5,30.5 C 73.7947,32.7354 73.4614,34.7354 72.5,36.5C 72.631,35.7611 72.4643,35.0944 72,34.5C 70.9509,36.6175 69.4509,38.2842 67.5,39.5C 68.7589,35.9754 70.7589,32.9754 73.5,30.5 Z"/></g>
<g><path style="opacity:1" fill="#b48b54" d="M 86.5,34.5 C 84.1,36.2964 82.4333,38.6298 81.5,41.5C 79.6614,42.5077 78.3281,44.0077 77.5,46C 76.184,46.5281 75.5173,46.0281 75.5,44.5C 77.9,42.7036 79.5667,40.3702 80.5,37.5C 82.5,36.024 84.1666,34.1906 85.5,32C 86.1667,31.3333 86.8333,31.3333 87.5,32C 86.7476,32.6708 86.4142,33.5041 86.5,34.5 Z"/></g>
<g><path style="opacity:1" fill="#57527b" d="M 92.5,31.5 C 92.5,32.1667 92.5,32.8333 92.5,33.5C 91.5,34.1667 90.5,34.8333 89.5,35.5C 89.7376,33.5956 90.7376,32.2623 92.5,31.5 Z"/></g>
<g><path style="opacity:1" fill="#b08856" d="M 50.5,36.5 C 49.5655,35.4324 49.2322,34.099 49.5,32.5C 50.552,32.3505 51.552,32.5172 52.5,33C 51.1772,33.8159 50.5106,34.9826 50.5,36.5 Z"/></g>
<g><path style="opacity:1" fill="#9c7b5f" d="M 112.5,30.5 C 113.465,31.7211 113.298,33.0544 112,34.5C 111.044,35.5786 110.211,36.7453 109.5,38C 108.833,38.6667 108.167,38.6667 107.5,38C 109.389,35.6182 111.055,33.1182 112.5,30.5 Z"/></g>
<g><path style="opacity:1" fill="#b28a55" d="M 92.5,31.5 C 90.7376,32.2623 89.7376,33.5956 89.5,35.5C 88.0937,35.9731 87.427,36.9731 87.5,38.5C 85.7376,39.2623 84.7376,40.5956 84.5,42.5C 83.0937,42.9731 82.427,43.9731 82.5,45.5C 81.4246,46.5624 80.4246,46.5624 79.5,45.5C 80.6302,44.3777 81.2969,43.0443 81.5,41.5C 83.9,39.7036 85.5667,37.3702 86.5,34.5C 87.8366,33.6851 88.8366,32.5185 89.5,31C 90.7494,30.2599 91.7494,30.4265 92.5,31.5 Z"/></g>
<g><path style="opacity:1" fill="#55527b" d="M 66.5,35.5 C 66.573,37.0269 65.9063,38.0269 64.5,38.5C 64.427,36.9731 65.0937,35.9731 66.5,35.5 Z"/></g>
<g><path style="opacity:1" fill="#53517b" d="M 89.5,35.5 C 89.573,37.0269 88.9063,38.0269 87.5,38.5C 87.427,36.9731 88.0937,35.9731 89.5,35.5 Z"/></g>
<g><path style="opacity:1" fill="#b08856" d="M 51.5,40.5 C 49.8267,41.343 48.66,42.6763 48,44.5C 47.3333,43.1667 47.3333,41.8333 48,40.5C 49.4813,39.5291 50.3146,38.1958 50.5,36.5C 51.4584,36.0472 52.2917,35.3805 53,34.5C 53.1667,35 53.3333,35.5 53.5,36C 52.5862,37.4064 51.9195,38.9064 51.5,40.5 Z"/></g>
<g><path style="opacity:1" fill="#b48b54" d="M 97.5,40.5 C 95.1,42.2964 93.4333,44.6298 92.5,47.5C 91.4246,48.5624 90.4246,48.5624 89.5,47.5C 90.6302,46.3777 91.2969,45.0443 91.5,43.5C 93.6577,41.207 95.8244,38.8737 98,36.5C 98.5,36.6667 99,36.8333 99.5,37C 98.1772,37.8159 97.5106,38.9826 97.5,40.5 Z"/></g>
<g><path style="opacity:1" fill="#5a5479" d="M 86.5,34.5 C 85.5667,37.3702 83.9,39.7036 81.5,41.5C 82.4333,38.6298 84.1,36.2964 86.5,34.5 Z"/></g>
<g><path style="opacity:1" fill="#56527b" d="M 87.5,38.5 C 87.2624,40.4044 86.2624,41.7377 84.5,42.5C 84.7376,40.5956 85.7376,39.2623 87.5,38.5 Z"/></g>
<g><path style="opacity:1" fill="#b18956" d="M 92.5,33.5 C 91.1667,36.5 89.8333,39.5 88.5,42.5C 86.8506,43.6485 85.3506,44.9818 84,46.5C 83.2352,46.4301 82.7352,46.0967 82.5,45.5C 83.9063,45.0269 84.573,44.0269 84.5,42.5C 86.2624,41.7377 87.2624,40.4044 87.5,38.5C 88.9063,38.0269 89.573,37.0269 89.5,35.5C 90.5,34.8333 91.5,34.1667 92.5,33.5 Z"/></g>
<g><path style="opacity:1" fill="#58527a" d="M 64.5,38.5 C 64.2624,40.4044 63.2624,41.7377 61.5,42.5C 61.7376,40.5956 62.7376,39.2623 64.5,38.5 Z"/></g>
<g><path style="opacity:1" fill="#b18956" d="M 80.5,37.5 C 78.1,39.2964 76.4333,41.6298 75.5,44.5C 74.1021,46.1088 72.4354,46.9421 70.5,47C 72.2318,45.0281 73.5652,42.8614 74.5,40.5C 76.2659,38.2294 78.2659,36.0627 80.5,34C 81.1667,33.3333 81.8333,33.3333 82.5,34C 81.1772,34.8159 80.5106,35.9826 80.5,37.5 Z"/></g>
<g><path style="opacity:1" fill="#b58b54" d="M 103.5,37.5 C 101.1,39.2964 99.4333,41.6298 98.5,44.5C 96.6614,45.5077 95.3281,47.0077 94.5,49C 93.184,49.5281 92.5173,49.0281 92.5,47.5C 94.9,45.7036 96.5667,43.3702 97.5,40.5C 99.3386,39.4923 100.672,37.9923 101.5,36C 102.816,35.4719 103.483,35.9719 103.5,37.5 Z"/></g>
<g><path style="opacity:1" fill="#57527a" d="M 80.5,37.5 C 79.5667,40.3702 77.9,42.7036 75.5,44.5C 76.4333,41.6298 78.1,39.2964 80.5,37.5 Z"/></g>
<g><path style="opacity:1" fill="#56527b" d="M 103.5,37.5 C 102.567,40.3702 100.9,42.7036 98.5,44.5C 99.4333,41.6298 101.1,39.2964 103.5,37.5 Z"/></g>
<g><path style="opacity:1" fill="#b58c54" d="M 72.5,36.5 C 70.9019,38.6979 69.5686,41.0313 68.5,43.5C 66.7376,44.2623 65.7376,45.5956 65.5,47.5C 59.7668,54.4653 58.7668,54.132 62.5,46.5C 64.9,44.7036 66.5667,42.3702 67.5,39.5C 69.4509,38.2842 70.9509,36.6175 72,34.5C 72.4643,35.0944 72.631,35.7611 72.5,36.5 Z"/></g>
<g><path style="opacity:1" fill="#b38a54" d="M 91.5,43.5 C 89.8546,44.4787 88.5213,45.812 87.5,47.5C 87.1667,47.1667 86.8333,46.8333 86.5,46.5C 87.6302,45.3777 88.2969,44.0443 88.5,42.5C 90.1288,41.3747 91.6288,40.0414 93,38.5C 92.8657,40.1893 92.3657,41.856 91.5,43.5 Z"/></g>
<g><path style="opacity:1" fill="#78666d" d="M 59.5,41.5 C 59.4088,43.6977 60.0755,44.0311 61.5,42.5C 61.573,44.0269 60.9063,45.0269 59.5,45.5C 58.1667,44.1667 58.1667,42.8333 59.5,41.5 Z"/></g>
<g><path style="opacity:1" fill="#56517b" d="M 67.5,39.5 C 66.5667,42.3702 64.9,44.7036 62.5,46.5C 63.4333,43.6298 65.1,41.2964 67.5,39.5 Z"/></g>
<g><path style="opacity:1" fill="#b08956" d="M 73.5,38.5 C 72.3942,43.1077 69.8942,46.7744 66,49.5C 65.5357,48.9056 65.369,48.2389 65.5,47.5C 67.2624,46.7377 68.2624,45.4044 68.5,43.5C 70.3947,42.027 72.0613,40.3603 73.5,38.5 Z"/></g>
<g><path style="opacity:1" fill="#746370" d="M 109.5,43.5 C 114.137,43.6077 114.47,44.6077 110.5,46.5C 109.817,46.1373 109.15,45.8039 108.5,45.5C 108.833,44.8333 109.167,44.1667 109.5,43.5 Z"/></g>
<g><path style="opacity:1" fill="#55517c" d="M 68.5,43.5 C 68.2624,45.4044 67.2624,46.7377 65.5,47.5C 65.7376,45.5956 66.7376,44.2623 68.5,43.5 Z"/></g>
<g><path style="opacity:1" fill="#57527a" d="M 97.5,40.5 C 96.5667,43.3702 94.9,45.7036 92.5,47.5C 93.4333,44.6298 95.1,42.2964 97.5,40.5 Z"/></g>
<g><path style="opacity:1" fill="#b28a55" d="M 99.5,48.5 C 98.2058,49.2899 97.0391,50.2899 96,51.5C 95.8333,51.1667 95.6667,50.8333 95.5,50.5C 96.5588,48.4664 97.5588,46.4664 98.5,44.5C 100.9,42.7036 102.567,40.3702 103.5,37.5C 104.659,36.5442 105.826,35.5442 107,34.5C 107.5,34.6667 108,34.8333 108.5,35C 105.252,39.3996 102.252,43.8996 99.5,48.5 Z"/></g>
<g><path style="opacity:1" fill="#56517b" d="M 52.5,44.5 C 52.2624,46.4044 51.2624,47.7377 49.5,48.5C 49.7376,46.5956 50.7376,45.2623 52.5,44.5 Z"/></g>
<g><path style="opacity:1" fill="#b38a54" d="M 109.5,43.5 C 109.167,44.1667 108.833,44.8333 108.5,45.5C 107.4,46.6049 106.733,47.9382 106.5,49.5C 104.738,50.2623 103.738,51.5956 103.5,53.5C 102.542,53.9528 101.708,54.6195 101,55.5C 100.517,54.552 100.351,53.552 100.5,52.5C 102.796,50.5994 104.629,48.2661 106,45.5C 106.816,44.1772 107.983,43.5106 109.5,43.5 Z"/></g>
<g><path style="opacity:1" fill="#b18956" d="M 52.5,44.5 C 50.7376,45.2623 49.7376,46.5956 49.5,48.5C 48.0937,48.9731 47.427,49.9731 47.5,51.5C 46.8826,51.6107 46.3826,51.944 46,52.5C 45.3333,51.1667 45.3333,49.8333 46,48.5C 48.5945,46.2964 50.4278,43.6297 51.5,40.5C 52.4584,40.0472 53.2917,39.3805 54,38.5C 54.1667,39 54.3333,39.5 54.5,40C 53.5862,41.4064 52.9195,42.9064 52.5,44.5 Z"/></g>
<g><path style="opacity:1" fill="#52517c" d="M 49.5,48.5 C 49.573,50.0269 48.9063,51.0269 47.5,51.5C 47.427,49.9731 48.0937,48.9731 49.5,48.5 Z"/></g>
<g><path style="opacity:1" fill="#b08856" d="M 100.5,52.5 C 99.3523,53.895 98.3523,53.7284 97.5,52C 98.8228,51.1841 99.4894,50.0174 99.5,48.5C 101.145,47.5213 102.479,46.188 103.5,44.5C 103.833,44.8333 104.167,45.1667 104.5,45.5C 102.89,47.7254 101.557,50.0587 100.5,52.5 Z"/></g>
<g><path style="opacity:1" fill="#54517b" d="M 54.5,46.5 C 54.5,47.1667 54.5,47.8333 54.5,48.5C 52.7368,51.0196 50.7368,53.3529 48.5,55.5C 49.7589,51.9754 51.7589,48.9754 54.5,46.5 Z"/></g>
<g><path style="opacity:1" fill="#b58b54" d="M 109.5,50.5 C 107.1,52.2964 105.433,54.6298 104.5,57.5C 103.624,57.6309 102.957,57.2975 102.5,56.5C 103.127,55.5832 103.461,54.5832 103.5,53.5C 105.262,52.7377 106.262,51.4044 106.5,49.5C 107.458,49.0472 108.292,48.3805 109,47.5C 109.483,48.448 109.649,49.448 109.5,50.5 Z"/></g>
<g><path style="opacity:1" fill="#635876" d="M 38.5,52.5 C 38.6495,51.448 38.4828,50.448 38,49.5C 37.34,51.3237 36.1733,52.657 34.5,53.5C 33.9569,53.44 33.6236,53.1067 33.5,52.5C 35,50.1667 36.5,47.8333 38,45.5C 39.3923,47.9406 39.559,50.274 38.5,52.5 Z"/></g>
<g><path style="opacity:1" fill="#56527b" d="M 106.5,49.5 C 106.262,51.4044 105.262,52.7377 103.5,53.5C 103.738,51.5956 104.738,50.2623 106.5,49.5 Z"/></g>
<g><path style="opacity:1" fill="#b68c53" d="M 110.5,54.5 C 108.661,55.5077 107.328,57.0077 106.5,59C 105.184,59.5281 104.517,59.0281 104.5,57.5C 106.9,55.7036 108.567,53.3702 109.5,50.5C 110.601,49.2003 111.934,48.7003 113.5,49C 112.242,50.7409 111.242,52.5742 110.5,54.5 Z"/></g>
<g><path style="opacity:1" fill="#5f5777" d="M 126.5,49.5 C 127.274,48.8529 128.274,48.5195 129.5,48.5C 131.03,48.6399 132.03,49.3065 132.5,50.5C 132.5,51.8333 133.167,52.5 134.5,52.5C 133.295,53.6857 131.961,53.6857 130.5,52.5C 131.562,51.4246 131.562,50.4246 130.5,49.5C 129.479,51.188 128.145,52.5213 126.5,53.5C 126.511,51.9826 127.177,50.8159 128.5,50C 127.906,49.5357 127.239,49.369 126.5,49.5 Z"/></g>
<g><path style="opacity:1" fill="#b28a54" d="M 134.5,52.5 C 133.167,52.5 132.5,51.8333 132.5,50.5C 135.167,49.1667 135.833,49.8333 134.5,52.5 Z"/></g>
<g><path style="opacity:1" fill="#a3805b" d="M 136.5,50.5 C 138.337,50.6395 138.67,51.3061 137.5,52.5C 136.702,52.0431 136.369,51.3764 136.5,50.5 Z"/></g>
<g><path style="opacity:1" fill="#ac8657" d="M 130.5,52.5 C 128.46,54.1953 126.626,56.1953 125,58.5C 124.536,57.9056 124.369,57.2389 124.5,56.5C 125.906,56.0269 126.573,55.0269 126.5,53.5C 128.145,52.5213 129.479,51.188 130.5,49.5C 131.562,50.4246 131.562,51.4246 130.5,52.5 Z"/></g>
<g><path style="opacity:1" fill="#b38a54" d="M 74.5,24.5 C 75.8081,26.6381 75.4748,28.6381 73.5,30.5C 70.7589,32.9754 68.7589,35.9754 67.5,39.5C 65.1,41.2964 63.4333,43.6298 62.5,46.5C 57.1192,53.2163 52.1192,60.2163 47.5,67.5C 45.1,69.2964 43.4333,71.6298 42.5,74.5C 41.4246,75.5624 40.4246,75.5624 39.5,74.5C 40.6302,73.3777 41.2969,72.0443 41.5,70.5C 43.9,68.7036 45.5667,66.3702 46.5,63.5C 48.9,61.7036 50.5667,59.3702 51.5,56.5C 54.8884,53.4029 57.5551,49.7363 59.5,45.5C 60.9063,45.0269 61.573,44.0269 61.5,42.5C 63.2624,41.7377 64.2624,40.4044 64.5,38.5C 65.9063,38.0269 66.573,37.0269 66.5,35.5C 68.2624,34.7377 69.2624,33.4044 69.5,31.5C 70.9063,31.0269 71.573,30.0269 71.5,28.5C 73.2624,27.7377 74.2624,26.4044 74.5,24.5 Z"/></g>
<g><path style="opacity:1" fill="#b08856" d="M 126.5,49.5 C 127.239,49.369 127.906,49.5357 128.5,50C 127.177,50.8159 126.511,51.9826 126.5,53.5C 125.094,53.9731 124.427,54.9731 124.5,56.5C 123.341,57.4558 122.174,58.4558 121,59.5C 120.5,59.3333 120,59.1667 119.5,59C 120.252,58.3292 120.586,57.4959 120.5,56.5C 122.262,55.7377 123.262,54.4044 123.5,52.5C 124.833,51.8333 125.833,50.8333 126.5,49.5 Z"/></g>
<g><path style="opacity:1" fill="#b58b54" d="M 38.5,52.5 C 37.1103,53.8993 36.1103,55.5659 35.5,57.5C 34.3501,58.8502 33.6834,58.6836 33.5,57C 33.9891,55.8615 34.3225,54.6948 34.5,53.5C 36.1733,52.657 37.34,51.3237 38,49.5C 38.4828,50.448 38.6495,51.448 38.5,52.5 Z"/></g>
<g><path style="opacity:1" fill="#54507b" d="M 123.5,52.5 C 123.262,54.4044 122.262,55.7377 120.5,56.5C 120.738,54.5956 121.738,53.2623 123.5,52.5 Z"/></g>
<g><path style="opacity:1" fill="#53517b" d="M 126.5,53.5 C 126.573,55.0269 125.906,56.0269 124.5,56.5C 124.427,54.9731 125.094,53.9731 126.5,53.5 Z"/></g>
<g><path style="opacity:1" fill="#57527a" d="M 109.5,50.5 C 108.567,53.3702 106.9,55.7036 104.5,57.5C 105.433,54.6298 107.1,52.2964 109.5,50.5 Z"/></g>
<g><path style="opacity:1" fill="#b58b54" d="M 116.5,51.5 C 114.1,53.2964 112.433,55.6298 111.5,58.5C 109.549,59.7158 108.049,61.3825 107,63.5C 106.833,63 106.667,62.5 106.5,62C 107.978,59.5413 109.312,57.0413 110.5,54.5C 112.5,53.024 114.167,51.1906 115.5,49C 116.167,48.3333 116.833,48.3333 117.5,49C 116.748,49.6708 116.414,50.5041 116.5,51.5 Z"/></g>
<g><path style="opacity:1" fill="#58537a" d="M 116.5,51.5 C 115.567,54.3702 113.9,56.7036 111.5,58.5C 112.433,55.6298 114.1,53.2964 116.5,51.5 Z"/></g>
<g><path style="opacity:1" fill="#b48b54" d="M 123.5,52.5 C 121.738,53.2623 120.738,54.5956 120.5,56.5C 119.5,56.8333 118.833,57.5 118.5,58.5C 117.761,58.631 117.094,58.4643 116.5,58C 117.252,57.3292 117.586,56.4959 117.5,55.5C 119.719,53.4245 121.719,51.0912 123.5,48.5C 124.292,49.6998 124.292,51.0331 123.5,52.5 Z"/></g>
<g><path style="opacity:1" fill="#54517c" d="M 48.5,55.5 C 48.2624,57.4044 47.2624,58.7377 45.5,59.5C 45.7376,57.5956 46.7376,56.2623 48.5,55.5 Z"/></g>
<g><path style="opacity:1" fill="#ae8757" d="M 36.5,61.5 C 35.4246,62.5624 34.4246,62.5624 33.5,61.5C 34.6302,60.3777 35.2969,59.0443 35.5,57.5C 37.1733,56.657 38.34,55.3237 39,53.5C 39.1667,54 39.3333,54.5 39.5,55C 38.6086,57.2789 37.6086,59.4456 36.5,61.5 Z"/></g>
<g><path style="opacity:1" fill="#b58b53" d="M 39.5,62.5 C 38.0937,62.9731 37.427,63.9731 37.5,65.5C 36.3501,66.8502 35.6834,66.6836 35.5,65C 35.9891,63.8615 36.3225,62.6948 36.5,61.5C 38.4509,60.2842 39.9509,58.6175 41,56.5C 41.322,58.6889 40.822,60.6889 39.5,62.5 Z"/></g>
<g><path style="opacity:1" fill="#ad8757" d="M 54.5,46.5 C 51.7589,48.9754 49.7589,51.9754 48.5,55.5C 46.7376,56.2623 45.7376,57.5956 45.5,59.5C 44.0937,59.9731 43.427,60.9731 43.5,62.5C 41.7376,63.2623 40.7376,64.5956 40.5,66.5C 39.0937,66.9731 38.427,67.9731 38.5,69.5C 37.6236,69.6309 36.9569,69.2975 36.5,68.5C 37.1272,67.5832 37.4606,66.5832 37.5,65.5C 38.9063,65.0269 39.573,64.0269 39.5,62.5C 42.8979,59.3733 45.5646,55.7066 47.5,51.5C 48.9063,51.0269 49.573,50.0269 49.5,48.5C 51.2624,47.7377 52.2624,46.4044 52.5,44.5C 54.2027,43.3398 54.8693,44.0065 54.5,46.5 Z"/></g>
<g><path style="opacity:1" fill="#b28a55" d="M 117.5,55.5 C 115.1,57.2964 113.433,59.6298 112.5,62.5C 110.827,63.343 109.66,64.6763 109,66.5C 108.5,66 108,65.5 107.5,65C 109.232,63.0281 110.565,60.8614 111.5,58.5C 113.9,56.7036 115.567,54.3702 116.5,51.5C 117.898,49.8912 119.565,49.0579 121.5,49C 119.768,50.9719 118.435,53.1386 117.5,55.5 Z"/></g>
<g><path style="opacity:1" fill="#77636f" d="M 117.5,55.5 C 117.586,56.4959 117.252,57.3292 116.5,58C 117.094,58.4643 117.761,58.631 118.5,58.5C 117.833,59.1667 117.167,59.8333 116.5,60.5C 114.938,60.7329 113.605,61.3995 112.5,62.5C 113.433,59.6298 115.1,57.2964 117.5,55.5 Z"/></g>
<g><path style="opacity:1" fill="#52507c" d="M 45.5,59.5 C 45.573,61.0269 44.9063,62.0269 43.5,62.5C 43.427,60.9731 44.0937,59.9731 45.5,59.5 Z"/></g>
<g><path style="opacity:1" fill="#56527b" d="M 51.5,56.5 C 50.5667,59.3702 48.9,61.7036 46.5,63.5C 47.4333,60.6298 49.1,58.2964 51.5,56.5 Z"/></g>
<g><path style="opacity:1" fill="#53517b" d="M 39.5,62.5 C 39.573,64.0269 38.9063,65.0269 37.5,65.5C 37.427,63.9731 38.0937,62.9731 39.5,62.5 Z"/></g>
<g><path style="opacity:1" fill="#b48b54" d="M 116.5,60.5 C 115.89,61.391 115.557,62.391 115.5,63.5C 114.094,63.9731 113.427,64.9731 113.5,66.5C 111.738,67.2623 110.738,68.5956 110.5,70.5C 109.903,70.2648 109.57,69.7648 109.5,69C 110.391,66.7211 111.391,64.5544 112.5,62.5C 113.605,61.3995 114.938,60.7329 116.5,60.5 Z"/></g>
<g><path style="opacity:1" fill="#55517c" d="M 43.5,62.5 C 43.2624,64.4044 42.2624,65.7377 40.5,66.5C 40.7376,64.5956 41.7376,63.2623 43.5,62.5 Z"/></g>
<g><path style="opacity:1" fill="#54527b" d="M 115.5,63.5 C 115.573,65.0269 114.906,66.0269 113.5,66.5C 113.427,64.9731 114.094,63.9731 115.5,63.5 Z"/></g>
<g><path style="opacity:1" fill="#b58b54" d="M 116.5,67.5 C 115.094,67.9731 114.427,68.9731 114.5,70.5C 113.206,71.2899 112.039,72.2899 111,73.5C 110.517,72.552 110.351,71.552 110.5,70.5C 112.262,69.7377 113.262,68.4044 113.5,66.5C 114.906,66.0269 115.573,65.0269 115.5,63.5C 116.601,62.2003 117.934,61.7003 119.5,62C 118.242,63.7409 117.242,65.5742 116.5,67.5 Z"/></g>
<g><path style="opacity:1" fill="#b48b54" d="M 122.5,64.5 C 125.797,64.3287 126.131,64.9954 123.5,66.5C 122.702,66.0431 122.369,65.3764 122.5,64.5 Z"/></g>
<g><path style="opacity:1" fill="#53517c" d="M 40.5,66.5 C 40.573,68.0269 39.9063,69.0269 38.5,69.5C 38.427,67.9731 39.0937,66.9731 40.5,66.5 Z"/></g>
<g><path style="opacity:1" fill="#b58c53" d="M 54.5,48.5 C 54.0435,51.4056 53.0435,54.0722 51.5,56.5C 49.1,58.2964 47.4333,60.6298 46.5,63.5C 44.1,65.2964 42.4333,67.6298 41.5,70.5C 40.5416,70.9528 39.7083,71.6195 39,72.5C 38.5172,71.552 38.3505,70.552 38.5,69.5C 39.9063,69.0269 40.573,68.0269 40.5,66.5C 42.2624,65.7377 43.2624,64.4044 43.5,62.5C 44.9063,62.0269 45.573,61.0269 45.5,59.5C 47.2624,58.7377 48.2624,57.4044 48.5,55.5C 50.7368,53.3529 52.7368,51.0196 54.5,48.5 Z"/></g>
<g><path style="opacity:1" fill="#515186" d="M 73.5,38.5 C 74.3382,38.8417 74.6716,39.5084 74.5,40.5C 73.5652,42.8614 72.2318,45.0281 70.5,47C 72.4354,46.9421 74.1021,46.1088 75.5,44.5C 75.5173,46.0281 76.184,46.5281 77.5,46C 78.3281,44.0077 79.6614,42.5077 81.5,41.5C 81.2969,43.0443 80.6302,44.3777 79.5,45.5C 80.4246,46.5624 81.4246,46.5624 82.5,45.5C 82.7352,46.0967 83.2352,46.4301 84,46.5C 85.3506,44.9818 86.8506,43.6485 88.5,42.5C 88.2969,44.0443 87.6302,45.3777 86.5,46.5C 86.8333,46.8333 87.1667,47.1667 87.5,47.5C 88.5213,45.812 89.8546,44.4787 91.5,43.5C 91.2969,45.0443 90.6302,46.3777 89.5,47.5C 90.4246,48.5624 91.4246,48.5624 92.5,47.5C 92.5173,49.0281 93.184,49.5281 94.5,49C 95.3281,47.0077 96.6614,45.5077 98.5,44.5C 97.5588,46.4664 96.5588,48.4664 95.5,50.5C 95.6667,50.8333 95.8333,51.1667 96,51.5C 97.0391,50.2899 98.2058,49.2899 99.5,48.5C 99.4894,50.0174 98.8228,51.1841 97.5,52C 98.3523,53.7284 99.3523,53.895 100.5,52.5C 100.351,53.552 100.517,54.552 101,55.5C 101.708,54.6195 102.542,53.9528 103.5,53.5C 103.461,54.5832 103.127,55.5832 102.5,56.5C 102.957,57.2975 103.624,57.6309 104.5,57.5C 104.517,59.0281 105.184,59.5281 106.5,59C 107.328,57.0077 108.661,55.5077 110.5,54.5C 109.312,57.0413 107.978,59.5413 106.5,62C 106.667,62.5 106.833,63 107,63.5C 108.049,61.3825 109.549,59.7158 111.5,58.5C 110.565,60.8614 109.232,63.0281 107.5,65C 108,65.5 108.5,66 109,66.5C 109.66,64.6763 110.827,63.343 112.5,62.5C 111.391,64.5544 110.391,66.7211 109.5,69C 109.57,69.7648 109.903,70.2648 110.5,70.5C 110.351,71.552 110.517,72.552 111,73.5C 112.039,72.2899 113.206,71.2899 114.5,70.5C 113.006,72.8505 111.673,75.3505 110.5,78C 110.683,79.6836 111.35,79.8502 112.5,78.5C 111.519,80.4893 110.519,82.4893 109.5,84.5C 109.667,85.1667 109.833,85.8333 110,86.5C 110.66,84.6763 111.827,83.343 113.5,82.5C 108.232,91.3714 102.232,99.7048 95.5,107.5C 95.5106,105.983 96.1772,104.816 97.5,104C 96.9056,103.536 96.2389,103.369 95.5,103.5C 101.776,98.5468 106.109,92.2135 108.5,84.5C 108.5,79.8333 108.5,75.1667 108.5,70.5C 101.575,52.3701 88.5755,45.2035 69.5,49C 58.6553,53.3399 51.9886,61.1733 49.5,72.5C 49.5,76.1667 49.5,79.8333 49.5,83.5C 51.8031,92.4441 56.8031,99.4441 64.5,104.5C 63.8333,104.833 63.1667,105.167 62.5,105.5C 62.6309,104.624 62.2975,103.957 61.5,103.5C 60.0546,105.394 58.3879,107.06 56.5,108.5C 57.9293,106.322 58.7627,103.989 59,101.5C 56.932,103.396 55.0987,105.396 53.5,107.5C 53.5,106.833 53.5,106.167 53.5,105.5C 54.1098,104.609 54.4431,103.609 54.5,102.5C 55.9953,102.585 56.9953,101.919 57.5,100.5C 56.5754,99.4376 55.5754,99.4376 54.5,100.5C 55.5209,96.8493 54.5209,96.5159 51.5,99.5C 51.7031,97.9557 52.3698,96.6223 53.5,95.5C 52.5754,94.4376 51.5754,94.4376 50.5,95.5C 50.5394,94.4168 50.8728,93.4168 51.5,92.5C 51.0431,91.7025 50.3764,91.3691 49.5,91.5C 49.7678,89.901 49.4345,88.5676 48.5,87.5C 48.7678,85.901 48.4345,84.5676 47.5,83.5C 47.6495,82.448 47.4828,81.448 47,80.5C 46.2917,81.3805 45.4584,82.0472 44.5,82.5C 45.6086,80.4456 46.6086,78.2789 47.5,76C 47.3333,75.5 47.1667,75 47,74.5C 46.34,76.3237 45.1733,77.657 43.5,78.5C 44.8089,75.2223 46.6422,72.2223 49,69.5C 49.8531,67.0524 49.3531,66.3857 47.5,67.5C 52.1192,60.2163 57.1192,53.2163 62.5,46.5C 58.7668,54.132 59.7668,54.4653 65.5,47.5C 65.369,48.2389 65.5357,48.9056 66,49.5C 69.8942,46.7744 72.3942,43.1077 73.5,38.5 Z"/></g>
<g><path style="opacity:1" fill="#d2d4e5" d="M 108.5,70.5 C 107.833,70.5 107.5,70.8333 107.5,71.5C 103.314,58.319 94.3144,50.9856 80.5,49.5C 81.2952,53.4764 81.9619,57.4764 82.5,61.5C 82.2249,63.7583 81.2249,64.0916 79.5,62.5C 79.1667,63 78.8333,63.5 78.5,64C 79.5345,64.2526 80.5345,65.086 81.5,66.5C 82.1818,65.7573 82.8485,65.0906 83.5,64.5C 84.1223,66.335 85.4556,67.5017 87.5,68C 93.4663,69.6606 99.133,71.8273 104.5,74.5C 104.5,75.1667 104.167,75.5 103.5,75.5C 97.5993,73.1944 91.5993,70.8611 85.5,68.5C 84.7084,69.6998 84.7084,71.0331 85.5,72.5C 84.8333,72.5 84.5,72.8333 84.5,73.5C 83.9841,71.2818 82.9841,69.2818 81.5,67.5C 81.1667,68 80.8333,68.5 80.5,69C 81.3195,70.8003 81.9862,72.6336 82.5,74.5C 82.1667,74.5 81.8333,74.5 81.5,74.5C 79.393,68.9748 78.0597,69.3081 77.5,75.5C 76.8333,75.5 76.1667,75.5 75.5,75.5C 76.0138,73.6336 76.6805,71.8003 77.5,70C 77.1667,69.5 76.8333,69 76.5,68.5C 74.8287,70.5098 74.162,72.8431 74.5,75.5C 73.8333,74.8333 73.1667,74.1667 72.5,73.5C 73.2178,71.8632 73.3845,70.1966 73,68.5C 66.9643,70.5621 61.1309,72.8954 55.5,75.5C 54.391,75.4431 53.391,75.1098 52.5,74.5C 59.401,71.8618 66.401,69.1951 73.5,66.5C 75.621,61.0161 76.9543,55.3494 77.5,49.5C 63.2714,51.064 54.2714,58.7307 50.5,72.5C 50.1667,72.5 49.8333,72.5 49.5,72.5C 51.9886,61.1733 58.6553,53.3399 69.5,49C 88.5755,45.2035 101.575,52.3701 108.5,70.5 Z"/></g>
<g><path style="opacity:1" fill="#888dbb" d="M 82.5,61.5 C 83.404,62.209 83.7373,63.209 83.5,64.5C 82.8485,65.0906 82.1818,65.7573 81.5,66.5C 80.5345,65.086 79.5345,64.2526 78.5,64C 78.8333,63.5 79.1667,63 79.5,62.5C 81.2249,64.0916 82.2249,63.7583 82.5,61.5 Z"/></g>
<g><path style="opacity:1" fill="#36428d" d="M 78.5,53.5 C 79.9238,55.5145 80.5905,57.8478 80.5,60.5C 79.5,60.5 78.5,60.5 77.5,60.5C 77.9926,58.1944 78.3259,55.861 78.5,53.5 Z"/></g>
<g><path style="opacity:1" fill="#323f8b" d="M 107.5,71.5 C 107.5,72.5 107.5,73.5 107.5,74.5C 106.5,74.5 105.5,74.5 104.5,74.5C 99.133,71.8273 93.4663,69.6606 87.5,68C 85.4556,67.5017 84.1223,66.335 83.5,64.5C 83.7373,63.209 83.404,62.209 82.5,61.5C 81.9619,57.4764 81.2952,53.4764 80.5,49.5C 94.3144,50.9856 103.314,58.319 107.5,71.5 Z"/></g>
<g><path style="opacity:1" fill="#313f8b" d="M 52.5,74.5 C 51.1667,74.5 50.5,73.8333 50.5,72.5C 54.2714,58.7307 63.2714,51.064 77.5,49.5C 76.9543,55.3494 75.621,61.0161 73.5,66.5C 66.401,69.1951 59.401,71.8618 52.5,74.5 Z"/></g>
<g><path style="opacity:1" fill="#53517b" d="M 84.5,42.5 C 84.573,44.0269 83.9063,45.0269 82.5,45.5C 82.427,43.9731 83.0937,42.9731 84.5,42.5 Z"/></g>
<g><path style="opacity:1" fill="#57527b" d="M 113.5,66.5 C 113.262,68.4044 112.262,69.7377 110.5,70.5C 110.738,68.5956 111.738,67.2623 113.5,66.5 Z"/></g>
<g><path style="opacity:1" fill="#57527a" d="M 46.5,63.5 C 45.5667,66.3702 43.9,68.7036 41.5,70.5C 42.4333,67.6298 44.1,65.2964 46.5,63.5 Z"/></g>
<g><path style="opacity:1" fill="#3a458f" d="M 75.5,75.5 C 75.1667,75.5 74.8333,75.5 74.5,75.5C 74.162,72.8431 74.8287,70.5098 76.5,68.5C 76.8333,69 77.1667,69.5 77.5,70C 76.6805,71.8003 76.0138,73.6336 75.5,75.5 Z"/></g>
<g><path style="opacity:1" fill="#4d5599" d="M 84.5,73.5 C 84.2893,75.4241 83.6226,75.7574 82.5,74.5C 81.9862,72.6336 81.3195,70.8003 80.5,69C 80.8333,68.5 81.1667,68 81.5,67.5C 82.9841,69.2818 83.9841,71.2818 84.5,73.5 Z"/></g>
<g><path style="opacity:1" fill="#52507c" d="M 116.5,67.5 C 116.573,69.0269 115.906,70.0269 114.5,70.5C 114.427,68.9731 115.094,67.9731 116.5,67.5 Z"/></g>
<g><path style="opacity:1" fill="#36438e" d="M 72.5,73.5 C 67.2649,75.45 61.5982,76.1167 55.5,75.5C 61.1309,72.8954 66.9643,70.5621 73,68.5C 73.3845,70.1966 73.2178,71.8632 72.5,73.5 Z"/></g>
<g><path style="opacity:1" fill="#37448e" d="M 103.5,75.5 C 97.5,75.5 91.5,75.5 85.5,75.5C 85.5,74.5 85.5,73.5 85.5,72.5C 84.7084,71.0331 84.7084,69.6998 85.5,68.5C 91.5993,70.8611 97.5993,73.1944 103.5,75.5 Z"/></g>
<g><path style="opacity:1" fill="#58537a" d="M 47.5,67.5 C 46.5667,70.3702 44.9,72.7036 42.5,74.5C 43.4333,71.6298 45.1,69.2964 47.5,67.5 Z"/></g>
<g><path style="opacity:1" fill="#f9f9fb" d="M 108.5,70.5 C 108.5,75.1667 108.5,79.8333 108.5,84.5C 107.833,84.5 107.5,84.1667 107.5,83.5C 107.5,81.5 107.5,79.5 107.5,77.5C 88.674,76.503 69.674,76.1697 50.5,76.5C 50.5,78.5 50.5,80.5 50.5,82.5C 50.5,83.1667 50.1667,83.5 49.5,83.5C 49.5,79.8333 49.5,76.1667 49.5,72.5C 49.8333,72.5 50.1667,72.5 50.5,72.5C 50.5,73.8333 51.1667,74.5 52.5,74.5C 53.391,75.1098 54.391,75.4431 55.5,75.5C 61.5982,76.1167 67.2649,75.45 72.5,73.5C 73.1667,74.1667 73.8333,74.8333 74.5,75.5C 74.8333,75.5 75.1667,75.5 75.5,75.5C 76.1667,75.5 76.8333,75.5 77.5,75.5C 79.099,75.7678 80.4324,75.4345 81.5,74.5C 81.8333,74.5 82.1667,74.5 82.5,74.5C 83.6226,75.7574 84.2893,75.4241 84.5,73.5C 84.5,72.8333 84.8333,72.5 85.5,72.5C 85.5,73.5 85.5,74.5 85.5,75.5C 91.5,75.5 97.5,75.5 103.5,75.5C 104.167,75.5 104.5,75.1667 104.5,74.5C 105.5,74.5 106.5,74.5 107.5,74.5C 107.5,73.5 107.5,72.5 107.5,71.5C 107.5,70.8333 107.833,70.5 108.5,70.5 Z"/></g>
<g><path style="opacity:1" fill="#465196" d="M 81.5,74.5 C 80.4324,75.4345 79.099,75.7678 77.5,75.5C 78.0597,69.3081 79.393,68.9748 81.5,74.5 Z"/></g>
<g><path style="opacity:1" fill="#5a5479" d="M 121.5,71.5 C 121.262,73.4044 120.262,74.7377 118.5,75.5C 118.738,73.5956 119.738,72.2623 121.5,71.5 Z"/></g>
<g><path style="opacity:1" fill="#b18955" d="M 43.5,78.5 C 42.8333,78.8333 42.1667,79.1667 41.5,79.5C 41.6287,77.7839 41.962,76.1172 42.5,74.5C 44.9,72.7036 46.5667,70.3702 47.5,67.5C 49.3531,66.3857 49.8531,67.0524 49,69.5C 46.6422,72.2223 44.8089,75.2223 43.5,78.5 Z"/></g>
<g><path style="opacity:1" fill="#b38a54" d="M 122.5,64.5 C 120.453,66.5496 118.786,68.883 117.5,71.5C 115.1,73.2964 113.433,75.6298 112.5,78.5C 111.35,79.8502 110.683,79.6836 110.5,78C 111.673,75.3505 113.006,72.8505 114.5,70.5C 115.906,70.0269 116.573,69.0269 116.5,67.5C 118.339,66.4923 119.672,64.9923 120.5,63C 121.816,62.4719 122.483,62.9719 122.5,64.5 Z"/></g>
<g><path style="opacity:1" fill="#999fc5" d="M 107.5,77.5 C 105.235,77.4406 104.902,78.2739 106.5,80C 106.095,80.9454 105.428,81.6121 104.5,82C 101.668,82.2121 99.0018,82.3787 96.5,82.5C 95.7189,81.2713 95.2189,79.938 95,78.5C 94.5172,79.448 94.3505,80.448 94.5,81.5C 92.4028,81.9967 90.5695,82.33 89,82.5C 88.9199,80.7518 88.0866,79.0851 86.5,77.5C 85.6781,79.1386 85.0114,80.8053 84.5,82.5C 83.2101,81.9423 82.3768,80.9423 82,79.5C 80.5848,82.2179 78.5848,82.8846 76,81.5C 75.1482,82.5707 74.3149,83.5707 73.5,84.5C 72.6348,84.4361 71.6348,84.1027 70.5,83.5C 70.6106,81.3523 69.944,81.019 68.5,82.5C 66.9071,75.9514 65.9071,75.9514 65.5,82.5C 62.4532,83.1446 60.2865,82.1446 59,79.5C 57.1521,81.9529 54.6521,82.9529 51.5,82.5C 51.1667,82.5 50.8333,82.5 50.5,82.5C 50.5,80.5 50.5,78.5 50.5,76.5C 69.674,76.1697 88.674,76.503 107.5,77.5 Z"/></g>
<g><path style="opacity:1" fill="#55517b" d="M 117.5,71.5 C 116.567,74.3702 114.9,76.7036 112.5,78.5C 113.433,75.6298 115.1,73.2964 117.5,71.5 Z"/></g>
<g><path style="opacity:1" fill="#b38a55" d="M 30.5,80.5 C 31.6594,79.5442 32.8261,78.5442 34,77.5C 34.5,77.6667 35,77.8333 35.5,78C 34.1196,79.9252 32.6196,81.7585 31,83.5C 30.5172,82.552 30.3505,81.552 30.5,80.5 Z"/></g>
<g><path style="opacity:1" fill="#b18955" d="M 37.5,81.5 C 36.2058,82.2899 35.0391,83.2899 34,84.5C 34.0524,81.7277 35.219,79.3944 37.5,77.5C 38.2916,78.6998 38.2916,80.0331 37.5,81.5 Z"/></g>
<g><path style="opacity:1" fill="#b28a55" d="M 30.5,80.5 C 29.4246,81.5624 28.4246,81.5624 27.5,80.5C 28.7838,77.9882 29.7838,77.9882 30.5,80.5 Z"/></g>
<g><path style="opacity:1" fill="#b28a55" d="M 44.5,82.5 C 42.7376,83.2623 41.7376,84.5956 41.5,86.5C 40.6236,86.6309 39.9569,86.2975 39.5,85.5C 40.1272,84.5832 40.4606,83.5832 40.5,82.5C 42.2624,81.7377 43.2624,80.4044 43.5,78.5C 45.1733,77.657 46.34,76.3237 47,74.5C 47.1667,75 47.3333,75.5 47.5,76C 46.6086,78.2789 45.6086,80.4456 44.5,82.5 Z"/></g>
<g><path style="opacity:1" fill="#b38a55" d="M 121.5,71.5 C 119.738,72.2623 118.738,73.5956 118.5,75.5C 116.1,77.2964 114.433,79.6298 113.5,82.5C 111.827,83.343 110.66,84.6763 110,86.5C 109.833,85.8333 109.667,85.1667 109.5,84.5C 110.519,82.4893 111.519,80.4893 112.5,78.5C 114.9,76.7036 116.567,74.3702 117.5,71.5C 119.073,69.1638 120.406,69.1638 121.5,71.5 Z"/></g>
<g><path style="opacity:1" fill="#54507c" d="M 43.5,78.5 C 43.2624,80.4044 42.2624,81.7377 40.5,82.5C 40.5569,81.391 40.8902,80.391 41.5,79.5C 42.1667,79.1667 42.8333,78.8333 43.5,78.5 Z"/></g>
<g><path style="opacity:1" fill="#313f8b" d="M 70.5,83.5 C 69.1057,89.9797 67.2723,96.313 65,102.5C 57.2415,97.9695 52.7415,91.3028 51.5,82.5C 54.6521,82.9529 57.1521,81.9529 59,79.5C 60.2865,82.1446 62.4532,83.1446 65.5,82.5C 65.9071,75.9514 66.9071,75.9514 68.5,82.5C 69.944,81.019 70.6106,81.3523 70.5,83.5 Z"/></g>
<g><path style="opacity:1" fill="#313e8b" d="M 84.5,82.5 C 86.8222,89.1315 89.1555,95.7981 91.5,102.5C 90.0878,103.806 88.4211,104.64 86.5,105C 81.1667,105.667 75.8333,105.667 70.5,105C 69.1667,104.333 67.8333,103.667 66.5,103C 68.7371,96.7875 71.0705,90.6208 73.5,84.5C 74.3149,83.5707 75.1482,82.5707 76,81.5C 78.5848,82.8846 80.5848,82.2179 82,79.5C 82.3768,80.9423 83.2101,81.9423 84.5,82.5 Z"/></g>
<g><path style="opacity:1" fill="#5a5479" d="M 118.5,75.5 C 117.567,78.3702 115.9,80.7036 113.5,82.5C 114.433,79.6298 116.1,77.2964 118.5,75.5 Z"/></g>
<g><path style="opacity:1" fill="#b68c53" d="M 125.5,76.5 C 126.376,76.3691 127.043,76.7025 127.5,77.5C 126.873,78.4168 126.539,79.4168 126.5,80.5C 124.738,81.2623 123.738,82.5956 123.5,84.5C 121.804,86.129 120.804,85.7957 120.5,83.5C 122.9,81.7036 124.567,79.3702 125.5,76.5 Z"/></g>
<g><path style="opacity:1" fill="#59537a" d="M 125.5,76.5 C 124.567,79.3702 122.9,81.7036 120.5,83.5C 121.433,80.6298 123.1,78.2964 125.5,76.5 Z"/></g>
<g><path style="opacity:1" fill="#b28a55" d="M 129.5,81.5 C 128.094,81.9731 127.427,82.9731 127.5,84.5C 126.518,85.1408 125.518,85.8075 124.5,86.5C 123.702,86.0431 123.369,85.3764 123.5,84.5C 125.262,83.7377 126.262,82.4044 126.5,80.5C 129.521,77.5159 130.521,77.8493 129.5,81.5 Z"/></g>
<g><path style="opacity:1" fill="#b78d52" d="M 41.5,79.5 C 40.8902,80.391 40.5569,81.391 40.5,82.5C 37.4791,85.4841 36.4791,85.1507 37.5,81.5C 38.6049,80.3995 39.9382,79.7329 41.5,79.5 Z"/></g>
<g><path style="opacity:1" fill="#36428d" d="M 107.5,77.5 C 107.5,79.5 107.5,81.5 107.5,83.5C 105.178,91.4984 100.512,97.8318 93.5,102.5C 90.7744,96.8196 88.941,90.8196 88,84.5C 87.2904,83.0267 86.1238,82.3601 84.5,82.5C 85.0114,80.8053 85.6781,79.1386 86.5,77.5C 88.0866,79.0851 88.9199,80.7518 89,82.5C 90.5695,82.33 92.4028,81.9967 94.5,81.5C 94.3505,80.448 94.5172,79.448 95,78.5C 95.2189,79.938 95.7189,81.2713 96.5,82.5C 99.0018,82.3787 101.668,82.2121 104.5,82C 105.428,81.6121 106.095,80.9454 106.5,80C 104.902,78.2739 105.235,77.4406 107.5,77.5 Z"/></g>
<g><path style="opacity:1" fill="#55517b" d="M 126.5,80.5 C 126.262,82.4044 125.262,83.7377 123.5,84.5C 123.738,82.5956 124.738,81.2623 126.5,80.5 Z"/></g>
<g><path style="opacity:1" fill="#52517c" d="M 129.5,81.5 C 129.573,83.0269 128.906,84.0269 127.5,84.5C 127.427,82.9731 128.094,81.9731 129.5,81.5 Z"/></g>
<g><path style="opacity:1" fill="#b78d53" d="M 130.5,85.5 C 128.804,87.129 127.804,86.7957 127.5,84.5C 128.906,84.0269 129.573,83.0269 129.5,81.5C 130.458,81.0472 131.292,80.3805 132,79.5C 132.167,80 132.333,80.5 132.5,81C 131.586,82.4064 130.92,83.9064 130.5,85.5 Z"/></g>
<g><path style="opacity:1" fill="#b28a55" d="M 130.5,85.5 C 132.145,84.5213 133.479,83.188 134.5,81.5C 134.833,81.8333 135.167,82.1667 135.5,82.5C 134.376,83.914 133.376,85.414 132.5,87C 131.184,87.5281 130.517,87.0281 130.5,85.5 Z"/></g>
<g><path style="opacity:1" fill="#b38a55" d="M 47.5,83.5 C 46.0937,83.9731 45.427,84.9731 45.5,86.5C 44.5416,86.9528 43.7083,87.6195 43,88.5C 42.8333,88 42.6667,87.5 42.5,87C 43.4138,85.5936 44.0805,84.0936 44.5,82.5C 45.4584,82.0472 46.2917,81.3805 47,80.5C 47.4828,81.448 47.6495,82.448 47.5,83.5 Z"/></g>
<g><path style="opacity:1" fill="#b58b54" d="M 137.5,86.5 C 133.66,86.9822 133.66,85.9822 137.5,83.5C 138.087,84.2334 138.087,85.2334 137.5,86.5 Z"/></g>
<g><path style="opacity:1" fill="#52507c" d="M 47.5,83.5 C 47.573,85.0269 46.9063,86.0269 45.5,86.5C 45.427,84.9731 46.0937,83.9731 47.5,83.5 Z"/></g>
<g><path style="opacity:1" fill="#59537a" d="M 119.5,79.5 C 118.567,82.3702 116.9,84.7036 114.5,86.5C 115.433,83.6298 117.1,81.2964 119.5,79.5 Z"/></g>
<g><path style="opacity:1" fill="#a98459" d="M 140.5,87.5 C 138.804,89.129 137.804,88.7957 137.5,86.5C 139.196,84.871 140.196,85.2043 140.5,87.5 Z"/></g>
<g><path style="opacity:1" fill="#645976" d="M 44.5,82.5 C 44.0805,84.0936 43.4138,85.5936 42.5,87C 42.6667,87.5 42.8333,88 43,88.5C 43.7083,87.6195 44.5416,86.9528 45.5,86.5C 43.5646,90.7066 40.8979,94.3733 37.5,97.5C 39.114,94.6071 40.4473,91.6071 41.5,88.5C 41.5,87.8333 41.5,87.1667 41.5,86.5C 41.7376,84.5956 42.7376,83.2623 44.5,82.5 Z"/></g>
<g><path style="opacity:1" fill="#ad8757" d="M 120.5,88.5 C 118.804,90.129 117.804,89.7957 117.5,87.5C 119.196,85.871 120.196,86.2043 120.5,88.5 Z"/></g>
<g><path style="opacity:1" fill="#856f67" d="M 140.5,87.5 C 142.225,87.8425 142.725,88.8425 142,90.5C 140.961,89.7562 140.461,88.7562 140.5,87.5 Z"/></g>
<g><path style="opacity:1" fill="#55517b" d="M 114.5,86.5 C 114.262,88.4044 113.262,89.7377 111.5,90.5C 111.738,88.5956 112.738,87.2623 114.5,86.5 Z"/></g>
<g><path style="opacity:1" fill="#5b5479" d="M 117.5,87.5 C 117.804,89.7957 118.804,90.129 120.5,88.5C 123.256,92.4106 122.59,93.0773 118.5,90.5C 118.374,92.9162 118.041,95.2496 117.5,97.5C 117.737,96.209 117.404,95.209 116.5,94.5C 116.768,92.901 116.434,91.5676 115.5,90.5C 115.427,88.9731 116.094,87.9731 117.5,87.5 Z"/></g>
<g><path style="opacity:1" fill="#51507c" d="M 111.5,90.5 C 111.573,92.0269 110.906,93.0269 109.5,93.5C 109.427,91.9731 110.094,90.9731 111.5,90.5 Z"/></g>
<g><path style="opacity:1" fill="#b08956" d="M 115.5,90.5 C 116.434,91.5676 116.768,92.901 116.5,94.5C 114.738,95.2623 113.738,96.5956 113.5,98.5C 112.094,98.9731 111.427,99.9731 111.5,101.5C 110.395,102.6 109.062,103.267 107.5,103.5C 107.5,102.833 107.5,102.167 107.5,101.5C 109.262,100.738 110.262,99.4044 110.5,97.5C 111.906,97.0269 112.573,96.0269 112.5,94.5C 114.262,93.7377 115.262,92.4044 115.5,90.5 Z"/></g>
<g><path style="opacity:1" fill="#ad8658" d="M 18.5,92.5 C 19.8333,92.5 20.5,93.1667 20.5,94.5C 18.7973,95.6602 18.1307,94.9935 18.5,92.5 Z"/></g>
<g><path style="opacity:1" fill="#655a75" d="M 24.5,94.5 C 24.6716,95.4916 24.3382,96.1583 23.5,96.5C 23.5,96.1667 23.5,95.8333 23.5,95.5C 23.1959,93.2043 22.1959,92.871 20.5,94.5C 20.5,93.1667 19.8333,92.5 18.5,92.5C 16.663,92.3605 16.3296,91.6939 17.5,90.5C 20.4328,91.1118 22.7661,92.4451 24.5,94.5 Z"/></g>
<g><path style="opacity:1" fill="#56517b" d="M 48.5,87.5 C 47.5667,90.3702 45.9,92.7036 43.5,94.5C 44.4333,91.6298 46.1,89.2964 48.5,87.5 Z"/></g>
<g><path style="opacity:1" fill="#b38a54" d="M 49.5,91.5 C 50.3764,91.3691 51.0431,91.7025 51.5,92.5C 50.8728,93.4168 50.5394,94.4168 50.5,95.5C 48.7376,96.2623 47.7376,97.5956 47.5,99.5C 44.4791,102.484 43.4791,102.151 44.5,98.5C 46.9,96.7036 48.5667,94.3702 49.5,91.5 Z"/></g>
<g><path style="opacity:1" fill="#54507c" d="M 115.5,90.5 C 115.262,92.4044 114.262,93.7377 112.5,94.5C 112.738,92.5956 113.738,91.2623 115.5,90.5 Z"/></g>
<g><path style="opacity:1" fill="#b18955" d="M 36.5,93.5 C 35.0937,93.9731 34.427,94.9731 34.5,96.5C 32.7376,97.2623 31.7376,98.5956 31.5,100.5C 29.8041,102.129 28.8041,101.796 28.5,99.5C 29.9063,99.0269 30.573,98.0269 30.5,96.5C 32.5998,94.502 34.5998,92.3353 36.5,90C 37.1667,89.3333 37.8333,89.3333 38.5,90C 37.1772,90.8159 36.5106,91.9826 36.5,93.5 Z"/></g>
<g><path style="opacity:1" fill="#b18955" d="M 23.5,95.5 C 22.5416,95.9528 21.7083,96.6195 21,97.5C 20.5172,96.552 20.3505,95.552 20.5,94.5C 22.1959,92.871 23.1959,93.2043 23.5,95.5 Z"/></g>
<g><path style="opacity:1" fill="#55527b" d="M 36.5,93.5 C 36.573,95.0269 35.9063,96.0269 34.5,96.5C 34.427,94.9731 35.0937,93.9731 36.5,93.5 Z"/></g>
<g><path style="opacity:1" fill="#b68c53" d="M 41.5,88.5 C 40.4473,91.6071 39.114,94.6071 37.5,97.5C 35.8506,98.6485 34.3506,99.9818 33,101.5C 32.2352,101.43 31.7352,101.097 31.5,100.5C 33.2624,99.7377 34.2624,98.4044 34.5,96.5C 35.9063,96.0269 36.573,95.0269 36.5,93.5C 38.3947,92.027 40.0613,90.3603 41.5,88.5 Z"/></g>
<g><path style="opacity:1" fill="#b68c53" d="M 47.5,83.5 C 48.4345,84.5676 48.7678,85.901 48.5,87.5C 46.1,89.2964 44.4333,91.6298 43.5,94.5C 41.3423,96.793 39.1756,99.1263 37,101.5C 36.5,101.333 36,101.167 35.5,101C 36.8228,100.184 37.4894,99.0174 37.5,97.5C 40.8979,94.3733 43.5646,90.7066 45.5,86.5C 46.9063,86.0269 47.573,85.0269 47.5,83.5 Z"/></g>
<g><path style="opacity:1" fill="#b38a55" d="M 125.5,76.5 C 123.1,78.2964 121.433,80.6298 120.5,83.5C 118.738,84.2623 117.738,85.5956 117.5,87.5C 116.094,87.9731 115.427,88.9731 115.5,90.5C 113.738,91.2623 112.738,92.5956 112.5,94.5C 111.094,94.9731 110.427,95.9731 110.5,97.5C 108.738,98.2623 107.738,99.5956 107.5,101.5C 103.679,105.806 100.345,110.473 97.5,115.5C 95.1,117.296 93.4333,119.63 92.5,122.5C 91.0937,122.973 90.427,123.973 90.5,125.5C 89.5416,125.953 88.7083,126.619 88,127.5C 87.8333,127 87.6667,126.5 87.5,126C 88.6726,123.35 90.0059,120.85 91.5,118.5C 93.2624,117.738 94.2624,116.404 94.5,114.5C 95.9063,114.027 96.573,113.027 96.5,111.5C 98.2624,110.738 99.2624,109.404 99.5,107.5C 100.906,107.027 101.573,106.027 101.5,104.5C 103.262,103.738 104.262,102.404 104.5,100.5C 105.906,100.027 106.573,99.0269 106.5,97.5C 108.262,96.7377 109.262,95.4044 109.5,93.5C 110.906,93.0269 111.573,92.0269 111.5,90.5C 113.262,89.7377 114.262,88.4044 114.5,86.5C 116.9,84.7036 118.567,82.3702 119.5,79.5C 121.339,78.4923 122.672,76.9923 123.5,75C 124.816,74.4719 125.483,74.9719 125.5,76.5 Z"/></g>
<g><path style="opacity:1" fill="#b18955" d="M 27.5,95.5 C 25.8546,96.4787 24.5213,97.812 23.5,99.5C 22.4376,98.5754 22.4376,97.5754 23.5,96.5C 24.3382,96.1583 24.6716,95.4916 24.5,94.5C 26.1959,92.871 27.1959,93.2043 27.5,95.5 Z"/></g>
<g><path style="opacity:1" fill="#b58c54" d="M 48.5,87.5 C 49.4345,88.5676 49.7678,89.901 49.5,91.5C 47.1,93.2964 45.4333,95.6298 44.5,98.5C 43.1021,100.109 41.4354,100.942 39.5,101C 41.2318,99.0281 42.5652,96.8614 43.5,94.5C 45.9,92.7036 47.5667,90.3702 48.5,87.5 Z"/></g>
<g><path style="opacity:1" fill="#55517c" d="M 109.5,93.5 C 109.262,95.4044 108.262,96.7377 106.5,97.5C 106.738,95.5956 107.738,94.2623 109.5,93.5 Z"/></g>
<g><path style="opacity:1" fill="#50507c" d="M 112.5,94.5 C 112.573,96.0269 111.906,97.0269 110.5,97.5C 110.427,95.9731 111.094,94.9731 112.5,94.5 Z"/></g>
<g><path style="opacity:1" fill="#b18955" d="M 30.5,96.5 C 29.0937,96.9731 28.427,97.9731 28.5,99.5C 27.4246,100.562 26.4246,100.562 25.5,99.5C 26.6302,98.3777 27.2969,97.0443 27.5,95.5C 28.6594,94.5442 29.8261,93.5442 31,92.5C 31.5,92.6667 32,92.8333 32.5,93C 31.1772,93.8159 30.5106,94.9826 30.5,96.5 Z"/></g>
<g><path style="opacity:1" fill="#57527b" d="M 49.5,91.5 C 48.5667,94.3702 46.9,96.7036 44.5,98.5C 45.4333,95.6298 47.1,93.2964 49.5,91.5 Z"/></g>
<g><path style="opacity:1" fill="#ae8756" d="M 51.5,99.5 C 50.5178,100.141 49.5178,100.807 48.5,101.5C 47.7025,101.043 47.3691,100.376 47.5,99.5C 49.2624,98.7377 50.2624,97.4044 50.5,95.5C 51.5754,94.4376 52.5754,94.4376 53.5,95.5C 52.3698,96.6223 51.7031,97.9557 51.5,99.5 Z"/></g>
<g><path style="opacity:1" fill="#56527b" d="M 116.5,94.5 C 116.262,96.4044 115.262,97.7377 113.5,98.5C 113.738,96.5956 114.738,95.2623 116.5,94.5 Z"/></g>
<g><path style="opacity:1" fill="#51507c" d="M 30.5,96.5 C 30.573,98.0269 29.9063,99.0269 28.5,99.5C 28.427,97.9731 29.0937,96.9731 30.5,96.5 Z"/></g>
<g><path style="opacity:1" fill="#53507c" d="M 50.5,95.5 C 50.2624,97.4044 49.2624,98.7377 47.5,99.5C 47.7376,97.5956 48.7376,96.2623 50.5,95.5 Z"/></g>
<g><path style="opacity:1" fill="#b38a55" d="M 121.5,71.5 C 122.289,71.7828 122.956,72.2828 123.5,73C 121.768,74.9719 120.435,77.1386 119.5,79.5C 117.1,81.2964 115.433,83.6298 114.5,86.5C 112.738,87.2623 111.738,88.5956 111.5,90.5C 110.094,90.9731 109.427,91.9731 109.5,93.5C 107.738,94.2623 106.738,95.5956 106.5,97.5C 105.094,97.9731 104.427,98.9731 104.5,100.5C 102.738,101.262 101.738,102.596 101.5,104.5C 100.094,104.973 99.427,105.973 99.5,107.5C 97.7376,108.262 96.7376,109.596 96.5,111.5C 95.0937,111.973 94.427,112.973 94.5,114.5C 93.5416,114.953 92.7083,115.619 92,116.5C 91.8333,116 91.6667,115.5 91.5,115C 92.4138,113.594 93.0805,112.094 93.5,110.5C 94.9063,110.027 95.573,109.027 95.5,107.5C 102.232,99.7048 108.232,91.3714 113.5,82.5C 115.9,80.7036 117.567,78.3702 118.5,75.5C 120.262,74.7377 121.262,73.4044 121.5,71.5 Z"/></g>
<g><path style="opacity:1" fill="#59537a" d="M 34.5,96.5 C 34.2624,98.4044 33.2624,99.7377 31.5,100.5C 31.7376,98.5956 32.7376,97.2623 34.5,96.5 Z"/></g>
<g><path style="opacity:1" fill="#52507c" d="M 106.5,97.5 C 106.573,99.0269 105.906,100.027 104.5,100.5C 104.427,98.9731 105.094,97.9731 106.5,97.5 Z"/></g>
<g><path style="opacity:1" fill="#54517b" d="M 110.5,97.5 C 110.262,99.4044 109.262,100.738 107.5,101.5C 107.738,99.5956 108.738,98.2623 110.5,97.5 Z"/></g>
<g><path style="opacity:1" fill="#53517b" d="M 113.5,98.5 C 113.573,100.027 112.906,101.027 111.5,101.5C 111.427,99.9731 112.094,98.9731 113.5,98.5 Z"/></g>
<g><path style="opacity:1" fill="#b58c53" d="M 54.5,100.5 C 52.8041,102.129 51.8041,101.796 51.5,99.5C 54.5209,96.5159 55.5209,96.8493 54.5,100.5 Z"/></g>
<g><path style="opacity:1" fill="#b08856" d="M 54.5,102.5 C 54.5,101.833 54.5,101.167 54.5,100.5C 55.5754,99.4376 56.5754,99.4376 57.5,100.5C 56.9953,101.919 55.9953,102.585 54.5,102.5 Z"/></g>
<g><path style="opacity:1" fill="#55517b" d="M 117.5,98.5 C 117.262,100.404 116.262,101.738 114.5,102.5C 114.738,100.596 115.738,99.2623 117.5,98.5 Z"/></g>
<g><path style="opacity:1" fill="#d1d4e5" d="M 50.5,82.5 C 50.8333,82.5 51.1667,82.5 51.5,82.5C 52.7415,91.3028 57.2415,97.9695 65,102.5C 67.2723,96.313 69.1057,89.9797 70.5,83.5C 71.6348,84.1027 72.6348,84.4361 73.5,84.5C 71.0705,90.6208 68.7371,96.7875 66.5,103C 67.8333,103.667 69.1667,104.333 70.5,105C 75.8333,105.667 81.1667,105.667 86.5,105C 88.4211,104.64 90.0878,103.806 91.5,102.5C 89.1555,95.7981 86.8222,89.1315 84.5,82.5C 86.1238,82.3601 87.2904,83.0267 88,84.5C 88.941,90.8196 90.7744,96.8196 93.5,102.5C 100.512,97.8318 105.178,91.4984 107.5,83.5C 107.5,84.1667 107.833,84.5 108.5,84.5C 106.109,92.2135 101.776,98.5468 95.5,103.5C 93.1815,103.992 91.1815,104.992 89.5,106.5C 80.9456,108.278 72.6122,107.611 64.5,104.5C 56.8031,99.4441 51.8031,92.4441 49.5,83.5C 50.1667,83.5 50.5,83.1667 50.5,82.5 Z"/></g>
<g><path style="opacity:1" fill="#55517b" d="M 104.5,100.5 C 104.262,102.404 103.262,103.738 101.5,104.5C 101.738,102.596 102.738,101.262 104.5,100.5 Z"/></g>
<g><path style="opacity:1" fill="#b38a55" d="M 116.5,94.5 C 117.404,95.209 117.737,96.209 117.5,97.5C 117.5,97.8333 117.5,98.1667 117.5,98.5C 115.738,99.2623 114.738,100.596 114.5,102.5C 113.206,103.29 112.039,104.29 111,105.5C 110.805,104.181 110.972,102.847 111.5,101.5C 112.906,101.027 113.573,100.027 113.5,98.5C 115.262,97.7377 116.262,96.4044 116.5,94.5 Z"/></g>
<g><path style="opacity:1" fill="#b18955" d="M 117.5,98.5 C 118.124,98.9169 118.457,99.5836 118.5,100.5C 117.481,102.511 116.481,104.511 115.5,106.5C 114.425,107.562 113.425,107.562 112.5,106.5C 113.63,105.378 114.297,104.044 114.5,102.5C 116.262,101.738 117.262,100.404 117.5,98.5 Z"/></g>
<g><path style="opacity:1" fill="#b68c53" d="M 56.5,108.5 C 54.8058,109.527 53.4725,110.861 52.5,112.5C 51.9569,112.44 51.6236,112.107 51.5,111.5C 52.6302,110.378 53.2969,109.044 53.5,107.5C 55.0987,105.396 56.932,103.396 59,101.5C 58.7627,103.989 57.9293,106.322 56.5,108.5 Z"/></g>
<g><path style="opacity:1" fill="#52507c" d="M 101.5,104.5 C 101.573,106.027 100.906,107.027 99.5,107.5C 99.427,105.973 100.094,104.973 101.5,104.5 Z"/></g>
<g><path style="opacity:1" fill="#b18955" d="M 107.5,103.5 C 107.046,106.14 105.879,108.473 104,110.5C 103.991,107.65 105.158,105.317 107.5,103.5 Z"/></g>
<g><path style="opacity:1" fill="#ae8757" d="M 64.5,104.5 C 64.6107,105.117 64.944,105.617 65.5,106C 64.1175,107.271 63.1175,108.771 62.5,110.5C 61.6236,110.631 60.9569,110.298 60.5,109.5C 61.6302,108.378 62.2969,107.044 62.5,105.5C 63.1667,105.167 63.8333,104.833 64.5,104.5 Z"/></g>
<g><path style="opacity:1" fill="#4e4c80" d="M 64.5,104.5 C 72.6122,107.611 80.9456,108.278 89.5,106.5C 87.3971,109.72 85.0638,112.72 82.5,115.5C 81.6618,115.158 81.3284,114.492 81.5,113.5C 80.8333,113.5 80.5,113.167 80.5,112.5C 80.5106,110.983 81.1772,109.816 82.5,109C 79.5306,109.456 77.5306,111.289 76.5,114.5C 76.0623,115.506 75.3957,115.506 74.5,114.5C 75.7017,112.608 77.035,110.774 78.5,109C 76.5646,109.058 74.8979,109.891 73.5,111.5C 74.5209,107.849 73.5209,107.516 70.5,110.5C 71.087,109.233 71.087,108.233 70.5,107.5C 68.1182,109.215 66.1182,111.215 64.5,113.5C 64.6716,112.508 64.3382,111.842 63.5,111.5C 63.5,110.833 63.1667,110.5 62.5,110.5C 63.1175,108.771 64.1175,107.271 65.5,106C 64.944,105.617 64.6107,105.117 64.5,104.5 Z"/></g>
<g><path style="opacity:1" fill="#b18955" d="M 95.5,103.5 C 96.2389,103.369 96.9056,103.536 97.5,104C 96.1772,104.816 95.5106,105.983 95.5,107.5C 94.0937,107.973 93.427,108.973 93.5,110.5C 91.7376,111.262 90.7376,112.596 90.5,114.5C 87.4791,117.484 86.4791,117.151 87.5,113.5C 90.5162,110.48 93.1829,107.146 95.5,103.5 Z"/></g>
<g><path style="opacity:1" fill="#b38a54" d="M 118.5,107.5 C 117.094,107.973 116.427,108.973 116.5,110.5C 115.624,110.631 114.957,110.298 114.5,109.5C 115.127,108.583 115.461,107.583 115.5,106.5C 116.794,105.71 117.961,104.71 119,103.5C 119.195,104.819 119.028,106.153 118.5,107.5 Z"/></g>
<g><path style="opacity:1" fill="#b38b54" d="M 53.5,105.5 C 53.5,106.167 53.5,106.833 53.5,107.5C 51.6614,108.508 50.3281,110.008 49.5,112C 48.5632,112.692 47.8966,112.525 47.5,111.5C 49.1667,109.167 51.1667,107.167 53.5,105.5 Z"/></g>
<g><path style="opacity:1" fill="#b68c53" d="M 66.5,106.5 C 67.6878,108.496 67.0211,109.329 64.5,109C 65.3805,108.292 66.0472,107.458 66.5,106.5 Z"/></g>
<g><path style="opacity:1" fill="#54527b" d="M 95.5,107.5 C 95.573,109.027 94.9063,110.027 93.5,110.5C 93.427,108.973 94.0937,107.973 95.5,107.5 Z"/></g>
<g><path style="opacity:1" fill="#635a76" d="M 118.5,107.5 C 120.552,108.053 120.885,109.053 119.5,110.5C 119.631,109.761 119.464,109.094 119,108.5C 118.292,109.381 117.458,110.047 116.5,110.5C 116.427,108.973 117.094,107.973 118.5,107.5 Z"/></g>
<g><path style="opacity:1" fill="#5c5579" d="M 53.5,107.5 C 53.2969,109.044 52.6302,110.378 51.5,111.5C 51.6236,112.107 51.9569,112.44 52.5,112.5C 51.7261,113.147 50.7261,113.48 49.5,113.5C 47.9704,113.36 46.9704,112.693 46.5,111.5C 46.8333,111.5 47.1667,111.5 47.5,111.5C 47.8966,112.525 48.5632,112.692 49.5,112C 50.3281,110.008 51.6614,108.508 53.5,107.5 Z"/></g>
<g><path style="opacity:1" fill="#af8856" d="M 62.5,105.5 C 60.3423,107.793 58.1756,110.126 56,112.5C 55.5,112.333 55,112.167 54.5,112C 55.8228,111.184 56.4894,110.017 56.5,108.5C 58.3879,107.06 60.0546,105.394 61.5,103.5C 62.2975,103.957 62.6309,104.624 62.5,105.5 Z"/></g>
<g><path style="opacity:1" fill="#ab8558" d="M 80.5,112.5 C 79.3951,113.6 78.0618,114.267 76.5,114.5C 77.5306,111.289 79.5306,109.456 82.5,109C 81.1772,109.816 80.5106,110.983 80.5,112.5 Z"/></g>
<g><path style="opacity:1" fill="#b48b53" d="M 81.5,113.5 C 82.0476,111.606 83.0476,109.94 84.5,108.5C 85.521,109.002 85.6877,109.668 85,110.5C 84.2411,112.063 83.0744,113.063 81.5,113.5 Z"/></g>
<g><path style="opacity:1" fill="#55517b" d="M 99.5,107.5 C 99.2624,109.404 98.2624,110.738 96.5,111.5C 96.7376,109.596 97.7376,108.262 99.5,107.5 Z"/></g>
<g><path style="opacity:1" fill="#a78359" d="M 106.5,108.5 C 107.844,110.185 107.677,111.852 106,113.5C 105.616,111.803 105.782,110.137 106.5,108.5 Z"/></g>
<g><path style="opacity:1" fill="#8d7364" d="M 46.5,111.5 C 45.0152,112.935 43.6819,112.768 42.5,111C 44.0657,110.235 45.3991,110.402 46.5,111.5 Z"/></g>
<g><path style="opacity:1" fill="#b18956" d="M 89.5,106.5 C 90.2389,106.369 90.9056,106.536 91.5,107C 89.7682,108.972 88.4348,111.139 87.5,113.5C 84.8644,116.31 82.3644,119.31 80,122.5C 79.6826,119.793 80.5159,117.46 82.5,115.5C 85.0638,112.72 87.3971,109.72 89.5,106.5 Z"/></g>
<g><path style="opacity:1" fill="#b38a55" d="M 73.5,111.5 C 72.0937,111.973 71.427,112.973 71.5,114.5C 69.7376,115.262 68.7376,116.596 68.5,118.5C 66.205,121.297 63.705,123.964 61,126.5C 60.5357,125.906 60.369,125.239 60.5,124.5C 61.9063,124.027 62.573,123.027 62.5,121.5C 64.2624,120.738 65.2624,119.404 65.5,117.5C 66.9063,117.027 67.573,116.027 67.5,114.5C 69.2624,113.738 70.2624,112.404 70.5,110.5C 73.5209,107.516 74.5209,107.849 73.5,111.5 Z"/></g>
<g><path style="opacity:1" fill="#4f4e7f" d="M 95.5,103.5 C 93.1829,107.146 90.5162,110.48 87.5,113.5C 88.4348,111.139 89.7682,108.972 91.5,107C 90.9056,106.536 90.2389,106.369 89.5,106.5C 91.1815,104.992 93.1815,103.992 95.5,103.5 Z"/></g>
<g><path style="opacity:1" fill="#b68c53" d="M 119.5,110.5 C 119.5,110.833 119.5,111.167 119.5,111.5C 118.5,112.167 117.5,112.833 116.5,113.5C 116.5,112.5 116.5,111.5 116.5,110.5C 117.458,110.047 118.292,109.381 119,108.5C 119.464,109.094 119.631,109.761 119.5,110.5 Z"/></g>
<g><path style="opacity:1" fill="#56527b" d="M 70.5,110.5 C 70.2624,112.404 69.2624,113.738 67.5,114.5C 67.7376,112.596 68.7376,111.262 70.5,110.5 Z"/></g>
<g><path style="opacity:1" fill="#54517b" d="M 73.5,111.5 C 73.573,113.027 72.9063,114.027 71.5,114.5C 71.427,112.973 72.0937,111.973 73.5,111.5 Z"/></g>
<g><path style="opacity:1" fill="#52517c" d="M 96.5,111.5 C 96.573,113.027 95.9063,114.027 94.5,114.5C 94.427,112.973 95.0937,111.973 96.5,111.5 Z"/></g>
<g><path style="opacity:1" fill="#6b5d73" d="M 119.5,111.5 C 121.27,112.856 122.603,114.689 123.5,117C 121.843,117.725 120.843,117.225 120.5,115.5C 120.263,111.711 119.596,111.711 118.5,115.5C 117.5,115.167 116.833,114.5 116.5,113.5C 117.5,112.833 118.5,112.167 119.5,111.5 Z"/></g>
<g><path style="opacity:1" fill="#b88d52" d="M 120.5,115.5 C 119.833,115.5 119.167,115.5 118.5,115.5C 119.596,111.711 120.263,111.711 120.5,115.5 Z"/></g>
<g><path style="opacity:1" fill="#b18955" d="M 70.5,110.5 C 68.7376,111.262 67.7376,112.596 67.5,114.5C 66.0937,114.973 65.427,115.973 65.5,117.5C 63.7376,118.262 62.7376,119.596 62.5,121.5C 61.0937,121.973 60.427,122.973 60.5,124.5C 59.1851,125.476 57.8518,126.476 56.5,127.5C 55.913,126.767 55.913,125.767 56.5,124.5C 58.2624,123.738 59.2624,122.404 59.5,120.5C 60.9063,120.027 61.573,119.027 61.5,117.5C 63.2624,116.738 64.2624,115.404 64.5,113.5C 66.1182,111.215 68.1182,109.215 70.5,107.5C 71.087,108.233 71.087,109.233 70.5,110.5 Z"/></g>
<g><path style="opacity:1" fill="#55517b" d="M 64.5,113.5 C 64.2624,115.404 63.2624,116.738 61.5,117.5C 61.7376,115.596 62.7376,114.262 64.5,113.5 Z"/></g>
<g><path style="opacity:1" fill="#53517b" d="M 67.5,114.5 C 67.573,116.027 66.9063,117.027 65.5,117.5C 65.427,115.973 66.0937,114.973 67.5,114.5 Z"/></g>
<g><path style="opacity:1" fill="#b18956" d="M 74.5,114.5 C 73.2983,116.392 71.965,118.226 70.5,120C 69.184,120.528 68.5173,120.028 68.5,118.5C 70.2624,117.738 71.2624,116.404 71.5,114.5C 72.9063,114.027 73.573,113.027 73.5,111.5C 74.8979,109.891 76.5646,109.058 78.5,109C 77.035,110.774 75.7017,112.608 74.5,114.5 Z"/></g>
<g><path style="opacity:1" fill="#56527b" d="M 71.5,114.5 C 71.2624,116.404 70.2624,117.738 68.5,118.5C 68.7376,116.596 69.7376,115.262 71.5,114.5 Z"/></g>
<g><path style="opacity:1" fill="#b08856" d="M 63.5,111.5 C 64.3382,111.842 64.6716,112.508 64.5,113.5C 62.7376,114.262 61.7376,115.596 61.5,117.5C 60.0937,117.973 59.427,118.973 59.5,120.5C 57.7376,121.262 56.7376,122.596 56.5,124.5C 55.1733,125.8 53.84,127.133 52.5,128.5C 51.479,127.998 51.3123,127.332 52,126.5C 55.6659,121.339 59.4992,116.339 63.5,111.5 Z"/></g>
<g><path style="opacity:1" fill="#756270" d="M 93.5,110.5 C 93.0805,112.094 92.4138,113.594 91.5,115C 91.6667,115.5 91.8333,116 92,116.5C 92.7083,115.619 93.5416,114.953 94.5,114.5C 94.2624,116.404 93.2624,117.738 91.5,118.5C 90.5655,117.432 90.2322,116.099 90.5,114.5C 90.7376,112.596 91.7376,111.262 93.5,110.5 Z"/></g>
<g><path style="opacity:1" fill="#51507c" d="M 61.5,117.5 C 61.573,119.027 60.9063,120.027 59.5,120.5C 59.427,118.973 60.0937,117.973 61.5,117.5 Z"/></g>
<g><path style="opacity:1" fill="#56517b" d="M 65.5,117.5 C 65.2624,119.404 64.2624,120.738 62.5,121.5C 62.7376,119.596 63.7376,118.262 65.5,117.5 Z"/></g>
<g><path style="opacity:1" fill="#b48b54" d="M 98.5,119.5 C 96.1,121.296 94.4333,123.63 93.5,126.5C 91.5491,127.716 90.0491,129.382 89,131.5C 88.678,129.311 89.178,127.311 90.5,125.5C 91.9063,125.027 92.573,124.027 92.5,122.5C 94.9,120.704 96.5667,118.37 97.5,115.5C 99.4509,114.284 100.951,112.618 102,110.5C 102.167,111 102.333,111.5 102.5,112C 101.327,114.65 99.9941,117.15 98.5,119.5 Z"/></g>
<g><path style="opacity:1" fill="#57527b" d="M 97.5,115.5 C 96.5667,118.37 94.9,120.704 92.5,122.5C 93.4333,119.63 95.1,117.296 97.5,115.5 Z"/></g>
<g><path style="opacity:1" fill="#b48b54" d="M 96.5,127.5 C 95.0937,127.973 94.427,128.973 94.5,130.5C 92.7376,131.262 91.7376,132.596 91.5,134.5C 90.6236,134.631 89.9569,134.298 89.5,133.5C 91.11,131.275 92.4434,128.941 93.5,126.5C 95.9,124.704 97.5667,122.37 98.5,119.5C 99.6499,118.15 100.317,118.316 100.5,120C 99.3274,122.65 97.9941,125.15 96.5,127.5 Z"/></g>
<g><path style="opacity:1" fill="#55517c" d="M 59.5,120.5 C 59.2624,122.404 58.2624,123.738 56.5,124.5C 56.7376,122.596 57.7376,121.262 59.5,120.5 Z"/></g>
<g><path style="opacity:1" fill="#53517b" d="M 62.5,121.5 C 62.573,123.027 61.9063,124.027 60.5,124.5C 60.427,122.973 61.0937,121.973 62.5,121.5 Z"/></g>
<g><path style="opacity:1" fill="#54517b" d="M 92.5,122.5 C 92.573,124.027 91.9063,125.027 90.5,125.5C 90.427,123.973 91.0937,122.973 92.5,122.5 Z"/></g>
<g><path style="opacity:1" fill="#56517b" d="M 98.5,119.5 C 97.5667,122.37 95.9,124.704 93.5,126.5C 94.4333,123.63 96.1,121.296 98.5,119.5 Z"/></g>
<g><path style="opacity:1" fill="#b58b54" d="M 49.5,124.5 C 51.6477,124.389 51.981,125.056 50.5,126.5C 49.635,127.583 48.635,127.749 47.5,127C 48.3805,126.292 49.0472,125.458 49.5,124.5 Z"/></g>
<g><path style="opacity:1" fill="#6f6171" d="M 96.5,127.5 C 97.8333,128.833 97.8333,130.167 96.5,131.5C 96.5912,129.302 95.9245,128.969 94.5,130.5C 94.427,128.973 95.0937,127.973 96.5,127.5 Z"/></g>
<g><path style="opacity:1" fill="#53507c" d="M 94.5,130.5 C 94.2624,132.404 93.2624,133.738 91.5,134.5C 91.7376,132.596 92.7376,131.262 94.5,130.5 Z"/></g>
<g><path style="opacity:1" fill="#b38a55" d="M 96.5,131.5 C 95.8902,132.391 95.5569,133.391 95.5,134.5C 94.5178,135.141 93.5178,135.807 92.5,136.5C 91.7025,136.043 91.3691,135.376 91.5,134.5C 93.2624,133.738 94.2624,132.404 94.5,130.5C 95.9245,128.969 96.5912,129.302 96.5,131.5 Z"/></g>
<g><path style="opacity:1" fill="#ba8e51" d="M 95.5,134.5 C 96.782,135.708 96.782,137.042 95.5,138.5C 94.7084,137.3 94.7084,135.967 95.5,134.5 Z"/></g>
</svg>
