<?xml version="1.0" encoding="UTF-8"?>
<!DOCTYPE svg PUBLIC "-//W3C//DTD SVG 1.1//EN" "http://www.w3.org/Graphics/SVG/1.1/DTD/svg11.dtd">
<svg xmlns="http://www.w3.org/2000/svg" version="1.1" width="160px" height="160px" style="shape-rendering:geometricPrecision; text-rendering:geometricPrecision; image-rendering:optimizeQuality; fill-rule:evenodd; clip-rule:evenodd" xmlns:xlink="http://www.w3.org/1999/xlink">
<g><path style="opacity:1" fill="#0179c2" d="M -0.5,-0.5 C 52.8333,-0.5 106.167,-0.5 159.5,-0.5C 159.5,52.8333 159.5,106.167 159.5,159.5C 106.167,159.5 52.8333,159.5 -0.5,159.5C -0.5,106.167 -0.5,52.8333 -0.5,-0.5 Z"/></g>
<g><path style="opacity:1" fill="#b7d8eb" d="M 51.5,67.5 C 49.744,66.4479 49.0773,64.7812 49.5,62.5C 50.0967,62.2648 50.4301,61.7648 50.5,61C 49.1559,52.0348 47.1559,51.5348 44.5,59.5C 44.1667,59.5 43.8333,59.5 43.5,59.5C 44.059,56.1566 45.3923,53.1566 47.5,50.5C 51.0907,55.5639 52.424,61.2306 51.5,67.5 Z"/></g>
<g><path style="opacity:1" fill="#2386c8" d="M 49.5,62.5 C 47.8276,56.0951 46.3276,56.4284 45,63.5C 44.51,62.2068 44.3433,60.8734 44.5,59.5C 47.1559,51.5348 49.1559,52.0348 50.5,61C 50.4301,61.7648 50.0967,62.2648 49.5,62.5 Z"/></g>
<g><path style="opacity:1" fill="#e1eff5" d="M 49.5,62.5 C 49.0773,64.7812 49.744,66.4479 51.5,67.5C 51.0972,70.4855 50.0972,73.1522 48.5,75.5C 48.6309,76.3764 48.2975,77.0431 47.5,77.5C 44.0791,72.0258 42.7457,66.0258 43.5,59.5C 43.8333,59.5 44.1667,59.5 44.5,59.5C 44.3433,60.8734 44.51,62.2068 45,63.5C 46.3276,56.4284 47.8276,56.0951 49.5,62.5 Z"/></g>
<g><path style="opacity:1" fill="#eef6f8" d="M 37.5,64.5 C 38.8333,64.5 40.1667,64.5 41.5,64.5C 41.5,67.8333 41.5,71.1667 41.5,74.5C 32.2376,78.3173 31.2376,83.8173 38.5,91C 41.634,91.7901 44.634,91.4568 47.5,90C 50.6707,84.6377 49.004,82.1377 42.5,82.5C 42.5,81.1667 42.5,79.8333 42.5,78.5C 46.1667,78.5 49.8333,78.5 53.5,78.5C 55.6486,88.4245 51.6486,93.4245 41.5,93.5C 30.3099,91.4731 25.8099,84.8064 28,73.5C 29.7435,68.9213 32.9102,65.9213 37.5,64.5 Z"/></g>
<g><path style="opacity:1" fill="#a5d0e7" d="M 37.5,64.5 C 38.9187,63.5489 40.5853,63.2155 42.5,63.5C 42.815,67.3714 42.4816,71.0381 41.5,74.5C 41.5,71.1667 41.5,67.8333 41.5,64.5C 40.1667,64.5 38.8333,64.5 37.5,64.5 Z"/></g>
<g><path style="opacity:1" fill="#2484c6" d="M 48.5,75.5 C 46.9735,74.5081 46.3068,73.0081 46.5,71C 46.8333,69.8333 47.1667,68.6667 47.5,67.5C 48.48,70.0865 48.8134,72.7531 48.5,75.5 Z"/></g>
<g><path style="opacity:1" fill="#e4f1f6" d="M 59.5,90.5 C 59.5086,88.6916 59.0086,87.0249 58,85.5C 57.5026,88.146 57.3359,90.8127 57.5,93.5C 56.5,93.5 55.5,93.5 54.5,93.5C 54.5,88.5 54.5,83.5 54.5,78.5C 56.1667,78.5 57.8333,78.5 59.5,78.5C 60.491,90.4727 61.491,90.4727 62.5,78.5C 63.8333,78.5 65.1667,78.5 66.5,78.5C 66.5,83.5 66.5,88.5 66.5,93.5C 65.5,93.5 64.5,93.5 63.5,93.5C 63.1667,86.8333 62.8333,86.8333 62.5,93.5C 61.5,93.5 60.5,93.5 59.5,93.5C 59.5,92.5 59.5,91.5 59.5,90.5 Z"/></g>
<g><path style="opacity:1" fill="#deecf4" d="M 69.5,78.5 C 74.9477,77.9319 76.9477,80.4319 75.5,86C 77.0805,92.2515 74.7471,94.7515 68.5,93.5C 68.2213,88.4053 68.5546,83.4053 69.5,78.5 Z"/></g>
<g><path style="opacity:1" fill="#e4f0f5" d="M 81.5,83.5 C 81.719,82.325 81.3857,81.325 80.5,80.5C 79.1667,84.1667 79.1667,87.8333 80.5,91.5C 81.3857,90.675 81.719,89.675 81.5,88.5C 83.256,89.5521 83.9227,91.2188 83.5,93.5C 77.2529,94.7515 74.9195,92.2515 76.5,86C 74.9195,79.7485 77.2529,77.2485 83.5,78.5C 83.9227,80.7812 83.256,82.4479 81.5,83.5 Z"/></g>
<g><path style="opacity:1" fill="#e6f2f6" d="M 87.5,88.5 C 87.281,89.675 87.6143,90.675 88.5,91.5C 89.7879,89.7015 89.7879,88.0348 88.5,86.5C 87.5084,86.6716 86.8417,86.3382 86.5,85.5C 87.5,85.5 88.5,85.5 89.5,85.5C 89.7852,83.712 89.4519,82.0453 88.5,80.5C 87.6143,81.325 87.281,82.325 87.5,83.5C 85.744,82.4479 85.0773,80.7812 85.5,78.5C 91.7471,77.2485 94.0805,79.7485 92.5,86C 94.0805,92.2515 91.7471,94.7515 85.5,93.5C 85.0773,91.2188 85.744,89.5521 87.5,88.5 Z"/></g>
<g><path style="opacity:1" fill="#e8f3f7" d="M 100.5,78.5 C 100.5,83.5 100.5,88.5 100.5,93.5C 99.5,93.5 98.5,93.5 97.5,93.5C 97.1667,84.1667 96.8333,84.1667 96.5,93.5C 95.5,93.5 94.5,93.5 93.5,93.5C 93.5,88.5 93.5,83.5 93.5,78.5C 94.5,78.5 95.5,78.5 96.5,78.5C 96.8333,86.5 97.1667,86.5 97.5,78.5C 98.5,78.5 99.5,78.5 100.5,78.5 Z"/></g>
<g><path style="opacity:1" fill="#e9f4f7" d="M 102.5,78.5 C 104.604,78.2011 106.604,78.5344 108.5,79.5C 107.675,80.3857 106.675,80.719 105.5,80.5C 105.5,81.8333 105.5,83.1667 105.5,84.5C 109.5,85.1667 109.5,85.8333 105.5,86.5C 105.5,88.1667 105.5,89.8333 105.5,91.5C 106.675,91.281 107.675,91.6143 108.5,92.5C 106.604,93.4656 104.604,93.7989 102.5,93.5C 102.5,88.5 102.5,83.5 102.5,78.5 Z"/></g>
<g><path style="opacity:1" fill="#e7f2f6" d="M 116.5,87.5 C 114.938,85.6283 113.938,83.2949 113.5,80.5C 112.271,83.1987 112.271,85.8654 113.5,88.5C 112.549,89.9187 112.216,91.5853 112.5,93.5C 111.5,93.5 110.5,93.5 109.5,93.5C 109.5,88.5 109.5,83.5 109.5,78.5C 111.833,78.5 114.167,78.5 116.5,78.5C 116.5,81.5 116.5,84.5 116.5,87.5 Z"/></g>
<g><path style="opacity:1" fill="#f0f7f8" d="M 123.5,78.5 C 123.5,79.1667 123.5,79.8333 123.5,80.5C 121.57,84.3727 120.903,88.706 121.5,93.5C 120.5,93.5 119.5,93.5 118.5,93.5C 118.5,88.5 118.5,83.5 118.5,78.5C 120.167,78.5 121.833,78.5 123.5,78.5 Z"/></g>
<g><path style="opacity:1" fill="#f5faf9" d="M 125.5,92.5 C 125.5,88.1667 125.5,83.8333 125.5,79.5C 127.223,78.193 129.057,78.193 131,79.5C 131.499,84.1548 131.666,88.8215 131.5,93.5C 129.265,93.7947 127.265,93.4614 125.5,92.5 Z"/></g>
<g><path style="opacity:1" fill="#7bb9de" d="M 86.5,85.5 C 86.9175,84.7784 87.5842,84.2784 88.5,84C 88.2716,83.6012 87.9382,83.4346 87.5,83.5C 87.281,82.325 87.6143,81.325 88.5,80.5C 89.4519,82.0453 89.7852,83.712 89.5,85.5C 88.5,85.5 87.5,85.5 86.5,85.5 Z"/></g>
<g><path style="opacity:1" fill="#9ccbe5" d="M 123.5,78.5 C 124.167,78.8333 124.833,79.1667 125.5,79.5C 125.5,83.8333 125.5,88.1667 125.5,92.5C 124.833,88.5 124.167,84.5 123.5,80.5C 123.5,79.8333 123.5,79.1667 123.5,78.5 Z"/></g>
<g><path style="opacity:1" fill="#2d90cc" d="M 100.5,78.5 C 101.167,78.5 101.833,78.5 102.5,78.5C 102.5,83.5 102.5,88.5 102.5,93.5C 101.833,93.5 101.167,93.5 100.5,93.5C 100.5,88.5 100.5,83.5 100.5,78.5 Z"/></g>
<g><path style="opacity:1" fill="#81bcdf" d="M 59.5,90.5 C 58.8333,91.5 58.1667,92.5 57.5,93.5C 57.3359,90.8127 57.5026,88.146 58,85.5C 59.0086,87.0249 59.5086,88.6916 59.5,90.5 Z"/></g>
<g><path style="opacity:1" fill="#b1d5ea" d="M 116.5,87.5 C 115.791,88.404 114.791,88.7373 113.5,88.5C 112.271,85.8654 112.271,83.1987 113.5,80.5C 113.938,83.2949 114.938,85.6283 116.5,87.5 Z"/></g>
<g><path style="opacity:1" fill="#94c5e3" d="M 127.5,80.5 C 128.787,81.8714 129.453,83.7047 129.5,86C 129.167,87.8333 128.833,89.6667 128.5,91.5C 127.511,87.8927 127.177,84.226 127.5,80.5 Z"/></g>
<g><path style="opacity:1" fill="#79b9dd" d="M 81.5,83.5 C 80.1667,85.1667 80.1667,86.8333 81.5,88.5C 81.719,89.675 81.3857,90.675 80.5,91.5C 79.1667,87.8333 79.1667,84.1667 80.5,80.5C 81.3857,81.325 81.719,82.325 81.5,83.5 Z"/></g>
<g><path style="opacity:1" fill="#77b6dd" d="M 88.5,86.5 C 89.7879,88.0348 89.7879,89.7015 88.5,91.5C 87.6143,90.675 87.281,89.675 87.5,88.5C 88.3382,88.1583 88.6716,87.4916 88.5,86.5 Z"/></g>
</svg>
