<?xml version="1.0" encoding="UTF-8"?>
<!DOCTYPE svg PUBLIC "-//W3C//DTD SVG 1.1//EN" "http://www.w3.org/Graphics/SVG/1.1/DTD/svg11.dtd">
<svg xmlns="http://www.w3.org/2000/svg" version="1.1" width="160px" height="160px" style="shape-rendering:geometricPrecision; text-rendering:geometricPrecision; image-rendering:optimizeQuality; fill-rule:evenodd; clip-rule:evenodd" xmlns:xlink="http://www.w3.org/1999/xlink">
<g><path style="opacity:1" fill="#f4f5f6" d="M -0.5,-0.5 C 52.8333,-0.5 106.167,-0.5 159.5,-0.5C 159.5,52.8333 159.5,106.167 159.5,159.5C 106.167,159.5 52.8333,159.5 -0.5,159.5C -0.5,106.167 -0.5,52.8333 -0.5,-0.5 Z"/></g>
<g><path style="opacity:1" fill="#133f82" d="M 85.5,45.5 C 86.9869,47.842 86.6536,49.842 84.5,51.5C 80.5341,50.8379 76.5341,50.5045 72.5,50.5C 64.1463,49.9313 55.8129,49.098 47.5,48C 46.376,47.7508 45.376,47.2508 44.5,46.5C 53.3433,36.574 64.3433,31.9073 77.5,32.5C 79.9412,37.0645 82.6079,41.3979 85.5,45.5 Z"/></g>
<g><path style="opacity:1" fill="#103e81" d="M 105.5,49.5 C 102.819,49.4621 100.319,50.1287 98,51.5C 95.7344,48.9476 92.901,47.2809 89.5,46.5C 89.0576,45.2613 88.3909,44.2613 87.5,43.5C 86.4587,39.7462 85.1254,36.0795 83.5,32.5C 95.3806,32.5163 105.547,36.8496 114,45.5C 114.591,46.4835 114.257,47.1501 113,47.5C 110.331,48.0161 107.831,48.6827 105.5,49.5 Z"/></g>
<g><path style="opacity:1" fill="#e4e8ef" d="M 87.5,43.5 C 88.3909,44.2613 89.0576,45.2613 89.5,46.5C 92.901,47.2809 95.7344,48.9476 98,51.5C 100.319,50.1287 102.819,49.4621 105.5,49.5C 104.737,50.2679 103.737,50.7679 102.5,51C 104.677,52.2022 107.011,52.7022 109.5,52.5C 105.702,53.4834 101.702,53.8168 97.5,53.5C 97.1854,55.2259 97.0187,56.8925 97,58.5C 101.335,61.6689 105.168,65.3356 108.5,69.5C 107.5,69.8333 106.833,70.5 106.5,71.5C 102.52,67.8553 98.5201,64.1886 94.5,60.5C 94.1667,61.3333 93.8333,62.1667 93.5,63C 94.9567,71.1569 96.2901,79.3235 97.5,87.5C 96.7321,86.7375 96.2321,85.7375 96,84.5C 94.7978,86.6775 94.2978,89.0108 94.5,91.5C 93.3933,81.1896 91.7266,70.8562 89.5,60.5C 86.0072,68.3456 82.3405,76.0123 78.5,83.5C 77.6522,82.375 76.6522,82.375 75.5,83.5C 78.7158,76.067 82.2158,68.7337 86,61.5C 86.6667,60.5 86.6667,59.5 86,58.5C 79.3639,63.2296 72.5305,67.5629 65.5,71.5C 64.8333,70.8333 64.1667,70.1667 63.5,69.5C 70.1844,65.0663 77.0177,60.733 84,56.5C 84.1667,56.1667 84.3333,55.8333 84.5,55.5C 80.0178,54.8331 75.6845,54.1664 71.5,53.5C 76.0323,53.8182 80.3656,53.4849 84.5,52.5C 84.5,52.1667 84.5,51.8333 84.5,51.5C 86.6536,49.842 86.9869,47.842 85.5,45.5C 86.8333,45.5 87.5,44.8333 87.5,43.5 Z"/></g>
<g><path style="opacity:1" fill="#5e79a8" d="M 72.5,50.5 C 76.5341,50.5045 80.5341,50.8379 84.5,51.5C 84.5,51.8333 84.5,52.1667 84.5,52.5C 80.2949,52.2833 76.2949,51.6167 72.5,50.5 Z"/></g>
<g><path style="opacity:1" fill="#103e81" d="M 109.5,52.5 C 112.85,52.335 116.183,52.5017 119.5,53C 126.798,63.0316 129.298,74.1983 127,86.5C 120.663,80.9956 114.496,75.3289 108.5,69.5C 105.168,65.3356 101.335,61.6689 97,58.5C 97.0187,56.8925 97.1854,55.2259 97.5,53.5C 101.702,53.8168 105.702,53.4834 109.5,52.5 Z"/></g>
<g><path style="opacity:1" fill="#103e81" d="M 71.5,53.5 C 75.6845,54.1664 80.0178,54.8331 84.5,55.5C 84.3333,55.8333 84.1667,56.1667 84,56.5C 77.0177,60.733 70.1844,65.0663 63.5,69.5C 54.2286,74.1375 45.2286,79.3041 36.5,85C 34.9751,86.0086 33.3084,86.5086 31.5,86.5C 29.9161,74.2388 32.5828,63.0721 39.5,53C 50.1469,53.2378 60.8135,53.4044 71.5,53.5 Z"/></g>
<g><path style="opacity:1" fill="#0d3d81" d="M 75.5,83.5 C 68.8625,96.1052 62.1958,108.772 55.5,121.5C 44.9628,114.941 37.6294,105.774 33.5,94C 44.0279,86.2419 54.6946,78.7419 65.5,71.5C 72.5305,67.5629 79.3639,63.2296 86,58.5C 86.6667,59.5 86.6667,60.5 86,61.5C 82.2158,68.7337 78.7158,76.067 75.5,83.5 Z"/></g>
<g><path style="opacity:1" fill="#103e81" d="M 106.5,71.5 C 112.458,78.6286 118.625,85.6286 125,92.5C 122.249,105.295 115.082,114.962 103.5,121.5C 101.116,110.246 99.1161,98.9126 97.5,87.5C 96.2901,79.3235 94.9567,71.1569 93.5,63C 93.8333,62.1667 94.1667,61.3333 94.5,60.5C 98.5201,64.1886 102.52,67.8553 106.5,71.5 Z"/></g>
<g><path style="opacity:1" fill="#113e82" d="M 94.5,91.5 C 95.1694,101.029 96.1694,110.529 97.5,120C 97.1667,121.5 96.8333,123 96.5,124.5C 85.2185,128.264 73.8852,128.431 62.5,125C 61.7236,123.23 61.8903,121.397 63,119.5C 68.4646,107.599 73.6312,95.5992 78.5,83.5C 82.3405,76.0123 86.0072,68.3456 89.5,60.5C 91.7266,70.8562 93.3933,81.1896 94.5,91.5 Z"/></g>
</svg>
