<?xml version="1.0" encoding="UTF-8"?>
<!DOCTYPE svg PUBLIC "-//W3C//DTD SVG 1.1//EN" "http://www.w3.org/Graphics/SVG/1.1/DTD/svg11.dtd">
<svg xmlns="http://www.w3.org/2000/svg" version="1.1" width="160px" height="160px" style="shape-rendering:geometricPrecision; text-rendering:geometricPrecision; image-rendering:optimizeQuality; fill-rule:evenodd; clip-rule:evenodd" xmlns:xlink="http://www.w3.org/1999/xlink">
<g><path style="opacity:1" fill="#02288e" d="M -0.5,-0.5 C 52.8333,-0.5 106.167,-0.5 159.5,-0.5C 159.5,52.8333 159.5,106.167 159.5,159.5C 106.167,159.5 52.8333,159.5 -0.5,159.5C -0.5,106.167 -0.5,52.8333 -0.5,-0.5 Z"/></g>
<g><path style="opacity:1" fill="#f8f9fc" d="M 118.5,37.5 C 118.5,55.5 118.5,73.5 118.5,91.5C 116.167,91.5 113.833,91.5 111.5,91.5C 111.829,76.324 111.496,61.324 110.5,46.5C 97.867,48.8986 87.7003,55.2319 80,65.5C 79.5005,59.1754 79.3338,52.8421 79.5,46.5C 55.0063,51.9998 42.0063,67.3331 40.5,92.5C 37.8333,92.5 35.1667,92.5 32.5,92.5C 34.606,63.2234 49.9393,45.0568 78.5,38C 91.8292,37.5001 105.163,37.3334 118.5,37.5 Z"/></g>
<g><path style="opacity:1" fill="#f8f9fc" d="M 70.5,57.5 C 71.4948,68.6544 71.8281,79.9877 71.5,91.5C 69.1667,91.5 66.8333,91.5 64.5,91.5C 64.8328,84.4065 64.4995,78.0731 63.5,72.5C 58.3618,78.1245 56.0285,84.7911 56.5,92.5C 53.8333,92.5 51.1667,92.5 48.5,92.5C 48.5182,79.6301 53.5182,69.1301 63.5,61C 65.5766,59.295 67.91,58.1283 70.5,57.5 Z"/></g>
<g><path style="opacity:1" fill="#f8f9fc" d="M 101.5,57.5 C 102.495,68.6544 102.828,79.9877 102.5,91.5C 100.167,91.5 97.8333,91.5 95.5,91.5C 95.6662,85.1579 95.4995,78.8246 95,72.5C 89.9711,78.2234 87.4711,84.8901 87.5,92.5C 84.8333,92.5 82.1667,92.5 79.5,92.5C 80.0431,76.3851 87.3764,64.7185 101.5,57.5 Z"/></g>
<g><path style="opacity:1" fill="#90a1ce" d="M 70.5,57.5 C 70.56,56.9569 70.8933,56.6236 71.5,56.5C 72.499,68.4815 72.8323,80.4815 72.5,92.5C 69.5,92.5 66.5,92.5 63.5,92.5C 63.5,85.8333 63.5,79.1667 63.5,72.5C 64.4995,78.0731 64.8328,84.4065 64.5,91.5C 66.8333,91.5 69.1667,91.5 71.5,91.5C 71.8281,79.9877 71.4948,68.6544 70.5,57.5 Z"/></g>
<g><path style="opacity:1" fill="#abb8da" d="M 101.5,57.5 C 101.56,56.9569 101.893,56.6236 102.5,56.5C 103.499,68.4815 103.832,80.4815 103.5,92.5C 100.615,92.8064 97.9479,92.4731 95.5,91.5C 97.8333,91.5 100.167,91.5 102.5,91.5C 102.828,79.9877 102.495,68.6544 101.5,57.5 Z"/></g>
<g><path style="opacity:1" fill="#91a0ce" d="M 118.5,37.5 C 119.497,55.6591 119.83,73.9924 119.5,92.5C 116.5,92.5 113.5,92.5 110.5,92.5C 110.5,77.1667 110.5,61.8333 110.5,46.5C 111.496,61.324 111.829,76.324 111.5,91.5C 113.833,91.5 116.167,91.5 118.5,91.5C 118.5,73.5 118.5,55.5 118.5,37.5 Z"/></g>
<g><path style="opacity:1" fill="#8b9dcc" d="M 119.5,96.5 C 90.8333,96.5 62.1667,96.5 33.5,96.5C 33.5,97.5 33.5,98.5 33.5,99.5C 32.5655,98.4324 32.2322,97.099 32.5,95.5C 61.6715,95.1686 90.6715,95.502 119.5,96.5 Z"/></g>
<g><path style="opacity:1" fill="#fefefe" d="M 119.5,96.5 C 119.5,97.5 119.5,98.5 119.5,99.5C 90.8333,99.5 62.1667,99.5 33.5,99.5C 33.5,98.5 33.5,97.5 33.5,96.5C 62.1667,96.5 90.8333,96.5 119.5,96.5 Z"/></g>
<g><path style="opacity:1" fill="#d4dbec" d="M 33.5,103.5 C 33.5,104.5 33.5,105.5 33.5,106.5C 61.8333,106.5 90.1667,106.5 118.5,106.5C 118.5,105.5 118.5,104.5 118.5,103.5C 119.434,104.568 119.768,105.901 119.5,107.5C 90.5,107.5 61.5,107.5 32.5,107.5C 32.2322,105.901 32.5655,104.568 33.5,103.5 Z"/></g>
<g><path style="opacity:1" fill="#fbfcfd" d="M 33.5,103.5 C 61.8333,103.5 90.1667,103.5 118.5,103.5C 118.5,104.5 118.5,105.5 118.5,106.5C 90.1667,106.5 61.8333,106.5 33.5,106.5C 33.5,105.5 33.5,104.5 33.5,103.5 Z"/></g>
<g><path style="opacity:1" fill="#fdfdfe" d="M 32.5,111.5 C 61.5,111.5 90.5,111.5 119.5,111.5C 119.5,113.833 119.5,116.167 119.5,118.5C 90.5,118.5 61.5,118.5 32.5,118.5C 32.5,116.167 32.5,113.833 32.5,111.5 Z"/></g>
</svg>
