<?xml version="1.0" encoding="UTF-8"?>
<!DOCTYPE svg PUBLIC "-//W3C//DTD SVG 1.1//EN" "http://www.w3.org/Graphics/SVG/1.1/DTD/svg11.dtd">
<svg xmlns="http://www.w3.org/2000/svg" version="1.1" width="160px" height="160px" style="shape-rendering:geometricPrecision; text-rendering:geometricPrecision; image-rendering:optimizeQuality; fill-rule:evenodd; clip-rule:evenodd" xmlns:xlink="http://www.w3.org/1999/xlink">
<g><path style="opacity:1" fill="#51b7f8" d="M -0.5,-0.5 C 52.8333,-0.5 106.167,-0.5 159.5,-0.5C 159.5,52.8333 159.5,106.167 159.5,159.5C 106.167,159.5 52.8333,159.5 -0.5,159.5C -0.5,106.167 -0.5,52.8333 -0.5,-0.5 Z"/></g>
<g><path style="opacity:1" fill="#fbfdfe" d="M 107.5,47.5 C 108.873,47.3433 110.207,47.51 111.5,48C 95.245,54.9195 82.745,66.0862 74,81.5C 71.057,89.6622 67.7237,97.6622 64,105.5C 60.5616,110.081 56.0616,111.581 50.5,110C 49.2986,109.097 48.4652,107.931 48,106.5C 46.8986,97.4612 48.8986,89.1278 54,81.5C 66.8711,62.4746 84.7044,51.1412 107.5,47.5 Z"/></g>
<g><path style="opacity:1" fill="#020406" d="M 131.5,47.5 C 133.199,47.3398 134.866,47.5065 136.5,48C 112.308,59.5387 96.808,78.372 90,104.5C 86.7691,109.534 82.2691,111.368 76.5,110C 72.8724,106.208 71.7057,101.708 73,96.5C 80.3991,74.7671 94.8991,59.9338 116.5,52C 121.577,50.32 126.577,48.82 131.5,47.5 Z"/></g>
<g><path style="opacity:1" fill="#9c989b" d="M 78.5,48.5 C 80.5273,48.3379 82.5273,48.5045 84.5,49C 72.1811,55.2441 61.6811,63.7441 53,74.5C 47.4535,84.9256 42.4535,95.5922 38,106.5C 34.9415,110.117 31.1082,111.617 26.5,111C 24.9512,109.786 23.7845,108.286 23,106.5C 22.3333,102.5 22.3333,98.5 23,94.5C 29.1849,77.9811 40.0182,65.4811 55.5,57C 63.018,53.4422 70.6846,50.6089 78.5,48.5 Z"/></g>
</svg>
