<?xml version="1.0" encoding="UTF-8"?>
<!DOCTYPE svg PUBLIC "-//W3C//DTD SVG 1.1//EN" "http://www.w3.org/Graphics/SVG/1.1/DTD/svg11.dtd">
<svg xmlns="http://www.w3.org/2000/svg" version="1.1" width="160px" height="160px" style="shape-rendering:geometricPrecision; text-rendering:geometricPrecision; image-rendering:optimizeQuality; fill-rule:evenodd; clip-rule:evenodd" xmlns:xlink="http://www.w3.org/1999/xlink">
<g><path style="opacity:1" fill="#e00e38" d="M -0.5,-0.5 C 52.8333,-0.5 106.167,-0.5 159.5,-0.5C 159.5,52.8333 159.5,106.167 159.5,159.5C 106.167,159.5 52.8333,159.5 -0.5,159.5C -0.5,106.167 -0.5,52.8333 -0.5,-0.5 Z"/></g>
<g><path style="opacity:1" fill="#e40338" d="M 25.5,26.5 C 61.5,26.5 97.5,26.5 133.5,26.5C 133.5,61.8333 133.5,97.1667 133.5,132.5C 97.5,132.5 61.5,132.5 25.5,132.5C 25.5,97.1667 25.5,61.8333 25.5,26.5 Z"/></g>
<g><path style="opacity:1" fill="#fef8fa" d="M 60.5,57.5 C 60.666,52.1563 60.4994,46.8229 60,41.5C 59.2828,42.0442 58.7828,42.7109 58.5,43.5C 56.8466,46.8068 55.1799,50.1401 53.5,53.5C 51.1667,54.8333 48.8333,54.8333 46.5,53.5C 44.4867,49.4734 42.4867,45.4734 40.5,41.5C 40.44,40.9569 40.1067,40.6236 39.5,40.5C 38.5046,46.1278 38.1712,51.7945 38.5,57.5C 36.8333,57.5 35.1667,57.5 33.5,57.5C 33.5,49.1667 33.5,40.8333 33.5,32.5C 36.5719,32.1826 39.5719,32.5159 42.5,33.5C 45.0156,38.5311 47.5156,43.5311 50,48.5C 52.5,43.5 55,38.5 57.5,33.5C 60.4281,32.5159 63.4281,32.1826 66.5,32.5C 66.5,40.8333 66.5,49.1667 66.5,57.5C 64.5,57.5 62.5,57.5 60.5,57.5 Z"/></g>
<g><path style="opacity:1" fill="#fdf2f5" d="M 124.5,32.5 C 124.5,34.1667 124.5,35.8333 124.5,37.5C 120.958,37.1872 117.625,37.5206 114.5,38.5C 114.5,44.8333 114.5,51.1667 114.5,57.5C 112.5,57.5 110.5,57.5 108.5,57.5C 108.5,50.8333 108.5,44.1667 108.5,37.5C 104.833,37.5 101.167,37.5 97.5,37.5C 97.5,35.8333 97.5,34.1667 97.5,32.5C 106.5,32.5 115.5,32.5 124.5,32.5 Z"/></g>
<g><path style="opacity:1" fill="#eb4c75" d="M 124.5,32.5 C 125.461,34.2646 125.795,36.2646 125.5,38.5C 121.833,38.5 118.167,38.5 114.5,38.5C 117.625,37.5206 120.958,37.1872 124.5,37.5C 124.5,35.8333 124.5,34.1667 124.5,32.5 Z"/></g>
<g><path style="opacity:1" fill="#eb5b82" d="M 97.5,37.5 C 101.167,37.5 104.833,37.5 108.5,37.5C 108.5,44.1667 108.5,50.8333 108.5,57.5C 107.51,51.3554 107.177,45.0221 107.5,38.5C 103.958,38.8128 100.625,38.4794 97.5,37.5 Z"/></g>
<g><path style="opacity:1" fill="#f4aec3" d="M 40.5,41.5 C 39.8333,46.8333 39.1667,52.1667 38.5,57.5C 38.1712,51.7945 38.5046,46.1278 39.5,40.5C 40.1067,40.6236 40.44,40.9569 40.5,41.5 Z"/></g>
<g><path style="opacity:1" fill="#e94674" d="M 60.5,57.5 C 59.8333,52.8333 59.1667,48.1667 58.5,43.5C 58.7828,42.7109 59.2828,42.0442 60,41.5C 60.4994,46.8229 60.666,52.1563 60.5,57.5 Z"/></g>
<g><path style="opacity:1" fill="#fef4f6" d="M 124.5,106.5 C 122.735,107.461 120.735,107.795 118.5,107.5C 118.423,106.25 117.756,105.417 116.5,105C 105.667,102.5 101.5,106.667 104,117.5C 105.986,119.742 108.486,120.742 111.5,120.5C 115.857,119.005 120.191,117.672 124.5,116.5C 124.256,120.923 121.922,123.756 117.5,125C 100.77,127.606 94.6035,120.772 99,104.5C 100.543,102.622 102.376,101.122 104.5,100C 110.724,98.9393 116.724,99.6059 122.5,102C 124.037,103.11 124.703,104.61 124.5,106.5 Z"/></g>
<g><path style="opacity:1" fill="#f08ba7" d="M 124.5,106.5 C 125.043,106.56 125.376,106.893 125.5,107.5C 123.027,108.797 120.693,108.797 118.5,107.5C 120.735,107.795 122.735,107.461 124.5,106.5 Z"/></g>
</svg>
