<?xml version="1.0" encoding="UTF-8"?>
<!DOCTYPE svg PUBLIC "-//W3C//DTD SVG 1.1//EN" "http://www.w3.org/Graphics/SVG/1.1/DTD/svg11.dtd">
<svg xmlns="http://www.w3.org/2000/svg" version="1.1" width="160px" height="160px" style="shape-rendering:geometricPrecision; text-rendering:geometricPrecision; image-rendering:optimizeQuality; fill-rule:evenodd; clip-rule:evenodd" xmlns:xlink="http://www.w3.org/1999/xlink">
<g><path style="opacity:1" fill="#eb2027" d="M -0.5,-0.5 C 52.8333,-0.5 106.167,-0.5 159.5,-0.5C 159.5,52.8333 159.5,106.167 159.5,159.5C 106.167,159.5 52.8333,159.5 -0.5,159.5C -0.5,106.167 -0.5,52.8333 -0.5,-0.5 Z"/></g>
<g><path style="opacity:1" fill="#f16c70" d="M 72.5,48.5 C 77.6803,47.1853 83.0136,47.1853 88.5,48.5C 88.3764,49.1067 88.0431,49.44 87.5,49.5C 82.6946,48.5128 77.6946,48.1795 72.5,48.5 Z"/></g>
<g><path style="opacity:1" fill="#f27075" d="M 100.5,48.5 C 105.305,47.5128 110.305,47.1795 115.5,47.5C 115.737,48.791 115.404,49.791 114.5,50.5C 110.285,48.5636 105.619,47.8969 100.5,48.5 Z"/></g>
<g><path style="opacity:1" fill="#fff9f9" d="M 72.5,48.5 C 77.6946,48.1795 82.6946,48.5128 87.5,49.5C 83.5691,61.2234 80.5691,73.2234 78.5,85.5C 78.8333,86.5 79.1667,87.5 79.5,88.5C 87.0689,75.358 94.0689,62.0247 100.5,48.5C 105.619,47.8969 110.285,48.5636 114.5,50.5C 109.184,64.6516 104.851,79.1516 101.5,94C 101.509,95.4038 102.009,96.5704 103,97.5C 104.353,96.3147 105.52,94.9814 106.5,93.5C 107.5,93.8333 108.167,94.5 108.5,95.5C 105.727,99.7767 102.393,103.61 98.5,107C 95.2617,108.368 91.9283,108.701 88.5,108C 87.1068,106.829 86.2735,105.329 86,103.5C 85.7999,92.8767 88.2999,82.8767 93.5,73.5C 93.1667,73.1667 92.8333,72.8333 92.5,72.5C 88.6165,80.9899 84.4498,89.3232 80,97.5C 77.8614,100.939 75.3614,104.106 72.5,107C 64.3707,109.895 60.3707,106.895 60.5,98C 61.4489,93.8459 61.9489,89.6792 62,85.5C 58.5287,93.6167 53.6953,100.783 47.5,107C 42.7231,109.661 38.8897,108.828 36,104.5C 35.2231,99.778 35.3897,95.1113 36.5,90.5C 41.1667,89.1667 45.8333,89.1667 50.5,90.5C 49.0895,96.0364 50.2562,96.7031 54,92.5C 61.8163,78.558 67.983,63.8913 72.5,48.5 Z"/></g>
<g><path style="opacity:1" fill="#feeeee" d="M 113.5,99.5 C 119.293,100.421 120.626,103.255 117.5,108C 111.333,109.833 109.167,107.667 111,101.5C 111.995,100.934 112.828,100.267 113.5,99.5 Z"/></g>
</svg>
