<svg id="лого" xmlns="http://www.w3.org/2000/svg" viewBox="0 0 48 48"><defs><style>.cls-2{fill:#386ba4}</style></defs><path fill="#f1f2f3" d="M0 0h48v48H0z"/><g id="NAUK"><path class="cls-2" d="M31.92 35.83a19.49 19.49 0 0 0-3.81-1.24 13.14 13.14 0 0 0 .72-1.11l-.13-.25a11.21 11.21 0 0 1-.84 1.31 19.28 19.28 0 0 0-3.86-.37V29h-.23v5.17a23.48 23.48 0 0 0-3.86.38 11.79 11.79 0 0 1-1-1.66A18.25 18.25 0 0 1 17.29 28H17a18.74 18.74 0 0 0 1.64 5 12 12 0 0 0 1 1.61 19.4 19.4 0 0 0-3.87 1.19A13.94 13.94 0 0 1 10 24.57h6.77c0 .59 0 1.18.09 1.76h.23c-.09-.6-.09-1.18-.09-1.76h6.82v.85h.23v-.82h2.48v-.23H24v-9.84a21.7 21.7 0 0 0 3.71-.38l.05.07v-.34a14.63 14.63 0 0 0-3.31-3.35 13.79 13.79 0 0 1 7 2.27L31 13v.23c.26-.09.51-.19.76-.3a14 14 0 0 1 6.08 11.39h-5.49v.23h5.45a13.92 13.92 0 0 1-5.91 11.26M24 38.23V34.4a19.3 19.3 0 0 1 3.68.34A17.78 17.78 0 0 1 24 38.23m.17.16a18.27 18.27 0 0 0 3.83-3.6A19.84 19.84 0 0 1 31.7 36a13.9 13.9 0 0 1-7.52 2.4m-.4-.16a17.91 17.91 0 0 1-3.7-3.47 22.63 22.63 0 0 1 3.7-.36zM16 36a19.44 19.44 0 0 1 3.81-1.15 18.14 18.14 0 0 0 3.76 3.59A13.94 13.94 0 0 1 16 36m0-23a18.54 18.54 0 0 0 3.78 1.17c-.3.45-.59.91-.85 1.39a18.79 18.79 0 0 0-2.18 8.79H10A13.92 13.92 0 0 1 16 13m7.29-2.46A14.84 14.84 0 0 0 19.91 14a18.91 18.91 0 0 1-3.69-1.13 13.9 13.9 0 0 1 7.06-2.3m.5 4v9.81H17a18.6 18.6 0 0 1 2.16-8.68c.27-.5.57-1 .88-1.45a19.36 19.36 0 0 0 3.6.33h.17m0-4v3.72h-.17a19.59 19.59 0 0 1-3.45-.3 14.39 14.39 0 0 1 3.53-3.48h.09m.23 0h.07A14.41 14.41 0 0 1 27.58 14a22.37 22.37 0 0 1-3.58.3zm-.04-.46h-.14a14.4 14.4 0 1 0 .14 0"/><path class="cls-2" d="m29.35 30.93-2.1-4.59L29.33 28l2.07-1.63zm.08-16.73 1.22 9.6-1.26 2.39-1.22-2.41zm2.62 11.26L29.44 4.22l-2.62 21.25-12.7 1.65 12.93 1.93 2.39 4.65 2.39-4.65 12.93-1.93z"/></g></svg>