<?xml version="1.0" encoding="UTF-8"?>
<!DOCTYPE svg PUBLIC "-//W3C//DTD SVG 1.1//EN" "http://www.w3.org/Graphics/SVG/1.1/DTD/svg11.dtd">
<svg xmlns="http://www.w3.org/2000/svg" version="1.1" width="160px" height="160px" style="shape-rendering:geometricPrecision; text-rendering:geometricPrecision; image-rendering:optimizeQuality; fill-rule:evenodd; clip-rule:evenodd" xmlns:xlink="http://www.w3.org/1999/xlink">
<g><path style="opacity:1" fill="#1877b0" d="M -0.5,-0.5 C 52.8333,-0.5 106.167,-0.5 159.5,-0.5C 159.5,52.8333 159.5,106.167 159.5,159.5C 106.167,159.5 52.8333,159.5 -0.5,159.5C -0.5,106.167 -0.5,52.8333 -0.5,-0.5 Z"/></g>
<g><path style="opacity:1" fill="#f6fafc" d="M 100.5,73.5 C 99.0695,73.5792 97.7362,73.2458 96.5,72.5C 95.8329,68.6875 95.1663,65.0208 94.5,61.5C 93.0622,51.2285 88.3956,42.7285 80.5,36C 79.8333,35.3333 79.1667,35.3333 78.5,36C 75.5532,38.4356 73.2199,41.2689 71.5,44.5C 70.0937,44.9731 69.427,45.9731 69.5,47.5C 64.9563,53.2819 62.623,59.9486 62.5,67.5C 62.5984,77.5979 65.5984,86.5979 71.5,94.5C 71.7512,96.1703 72.4178,97.6703 73.5,99C 72.2899,100.039 71.2899,101.206 70.5,102.5C 66.7455,98.3935 63.7455,93.7268 61.5,88.5C 59.9231,83.7851 58.5898,79.1184 57.5,74.5C 56.1083,55.2871 63.275,40.2871 79,29.5C 89.9199,36.6455 96.9199,46.6455 100,59.5C 100.499,64.1548 100.666,68.8215 100.5,73.5 Z"/></g>
<g><path style="opacity:1" fill="#569ac4" d="M 71.5,44.5 C 71.573,46.0269 70.9063,47.0269 69.5,47.5C 69.427,45.9731 70.0937,44.9731 71.5,44.5 Z"/></g>
<g><path style="opacity:1" fill="#2b7db4" d="M 90.5,71.5 C 90.5,72.1667 90.1667,72.5 89.5,72.5C 83.4908,72.3338 77.4908,72.5005 71.5,73C 72.3802,74.3561 72.7135,75.8561 72.5,77.5C 76.8333,77.5 81.1667,77.5 85.5,77.5C 85.1583,78.3382 84.4916,78.6716 83.5,78.5C 79.3268,77.9564 75.4935,78.623 72,80.5C 67.0961,67.1286 69.5961,55.4619 79.5,45.5C 81.1924,47.3586 82.6924,49.3586 84,51.5C 86.8278,58.215 88.9945,64.8817 90.5,71.5 Z"/></g>
<g><path style="opacity:1" fill="#5194c1" d="M 94.5,61.5 C 94.6716,62.4916 94.3382,63.1583 93.5,63.5C 92.0431,52.9167 87.2097,44.2501 79,37.5C 76.6303,40.0386 74.1303,42.3719 71.5,44.5C 73.2199,41.2689 75.5532,38.4356 78.5,36C 79.1667,35.3333 79.8333,35.3333 80.5,36C 88.3956,42.7285 93.0622,51.2285 94.5,61.5 Z"/></g>
<g><path style="opacity:1" fill="#5d9dc6" d="M 69.5,47.5 C 62.4511,63.4483 63.1178,79.115 71.5,94.5C 65.5984,86.5979 62.5984,77.5979 62.5,67.5C 62.623,59.9486 64.9563,53.2819 69.5,47.5 Z"/></g>
<g><path style="opacity:1" fill="#78add0" d="M 94.5,61.5 C 95.1663,65.0208 95.8329,68.6875 96.5,72.5C 97.7362,73.2458 99.0695,73.5792 100.5,73.5C 100.5,74.1667 100.5,74.8333 100.5,75.5C 96.75,74.3863 93.0833,73.3863 89.5,72.5C 90.1667,72.5 90.5,72.1667 90.5,71.5C 91.5,71.5 92.5,71.5 93.5,71.5C 93.5,68.8333 93.5,66.1667 93.5,63.5C 94.3382,63.1583 94.6716,62.4916 94.5,61.5 Z"/></g>
<g><path style="opacity:1" fill="#f7fafc" d="M 89.5,72.5 C 93.0833,73.3863 96.75,74.3863 100.5,75.5C 118.925,83.5706 128.591,97.5706 129.5,117.5C 113.726,124.741 98.3929,123.908 83.5,115C 82.1772,114.184 81.5106,113.017 81.5,111.5C 83.0174,111.489 84.1841,110.823 85,109.5C 96.5318,117.732 109.032,119.565 122.5,115C 124.363,113.582 124.863,111.749 124,109.5C 122.812,105.387 120.979,101.72 118.5,98.5C 114.104,89.5968 107.104,83.4301 97.5,80C 93.553,78.846 89.553,78.0127 85.5,77.5C 81.1667,77.5 76.8333,77.5 72.5,77.5C 72.7135,75.8561 72.3802,74.3561 71.5,73C 77.4908,72.5005 83.4908,72.3338 89.5,72.5 Z"/></g>
<g><path style="opacity:1" fill="#f6fafc" d="M 55.5,77.5 C 57.561,78.7514 57.8943,80.4181 56.5,82.5C 43.1548,89.2343 35.8214,99.9009 34.5,114.5C 53.5749,121.023 69.7416,116.69 83,101.5C 84.0945,99.9221 84.9278,98.2554 85.5,96.5C 88.0254,94.1246 90.0254,91.2913 91.5,88C 93.6142,87.5581 94.9476,88.3914 95.5,90.5C 92.923,96.6605 89.5896,102.327 85.5,107.5C 83.8333,108.5 82.5,109.833 81.5,111.5C 64.8808,123.739 47.0474,125.739 28,117.5C 29.5197,98.8283 38.6864,85.495 55.5,77.5 Z"/></g>
<g><path style="opacity:1" fill="#f7fafc" d="M 93.5,63.5 C 93.5,66.1667 93.5,68.8333 93.5,71.5C 92.5,71.5 91.5,71.5 90.5,71.5C 88.9945,64.8817 86.8278,58.215 84,51.5C 82.6924,49.3586 81.1924,47.3586 79.5,45.5C 69.5961,55.4619 67.0961,67.1286 72,80.5C 75.4935,78.623 79.3268,77.9564 83.5,78.5C 98.321,79.7412 109.988,86.4079 118.5,98.5C 120.163,103.154 121.829,107.821 123.5,112.5C 114.712,115.88 105.712,116.38 96.5,114C 92.1417,112.828 88.475,110.661 85.5,107.5C 86.8149,106.524 88.1482,105.524 89.5,104.5C 97.9243,109.411 106.924,110.744 116.5,108.5C 113.311,98.7474 106.978,92.0808 97.5,88.5C 90.031,84.9166 82.031,83.2499 73.5,83.5C 74.2816,87.0619 75.615,90.3953 77.5,93.5C 76.0596,98.2376 74.0596,98.5709 71.5,94.5C 63.1178,79.115 62.4511,63.4483 69.5,47.5C 70.9063,47.0269 71.573,46.0269 71.5,44.5C 74.1303,42.3719 76.6303,40.0386 79,37.5C 87.2097,44.2501 92.0431,52.9167 93.5,63.5 Z"/></g>
<g><path style="opacity:1" fill="#f8fbfc" d="M 58.5,89.5 C 50.1484,94.1868 44.8151,101.187 42.5,110.5C 52.8133,111.835 62.1467,109.502 70.5,103.5C 76.911,98.6792 81.911,92.6792 85.5,85.5C 87.1151,86.154 88.7818,86.654 90.5,87C 88.5743,90.0756 86.9076,93.2423 85.5,96.5C 73.5423,113.1 57.5423,118.933 37.5,114C 36.4844,113.481 35.8178,112.647 35.5,111.5C 38.7348,98.9335 46.0681,89.6001 57.5,83.5C 59.5463,85.281 59.8796,87.281 58.5,89.5 Z"/></g>
<g><path style="opacity:1" fill="#428abb" d="M 97.5,88.5 C 96.8333,89.1667 96.1667,89.8333 95.5,90.5C 94.9476,88.3914 93.6142,87.5581 91.5,88C 90.0254,91.2913 88.0254,94.1246 85.5,96.5C 86.9076,93.2423 88.5743,90.0756 90.5,87C 88.7818,86.654 87.1151,86.154 85.5,85.5C 81.911,92.6792 76.911,98.6792 70.5,103.5C 70.5,103.167 70.5,102.833 70.5,102.5C 71.2899,101.206 72.2899,100.039 73.5,99C 72.4178,97.6703 71.7512,96.1703 71.5,94.5C 74.0596,98.5709 76.0596,98.2376 77.5,93.5C 75.615,90.3953 74.2816,87.0619 73.5,83.5C 82.031,83.2499 90.031,84.9166 97.5,88.5 Z"/></g>
<g><path style="opacity:1" fill="#5e9cc5" d="M 85.5,77.5 C 89.553,78.0127 93.553,78.846 97.5,80C 107.104,83.4301 114.104,89.5968 118.5,98.5C 109.988,86.4079 98.321,79.7412 83.5,78.5C 84.4916,78.6716 85.1583,78.3382 85.5,77.5 Z"/></g>
<g><path style="opacity:1" fill="#217ab1" d="M 61.5,88.5 C 63.7455,93.7268 66.7455,98.3935 70.5,102.5C 70.5,102.833 70.5,103.167 70.5,103.5C 62.1467,109.502 52.8133,111.835 42.5,110.5C 44.8151,101.187 50.1484,94.1868 58.5,89.5C 59.609,89.4431 60.609,89.1098 61.5,88.5 Z"/></g>
<g><path style="opacity:1" fill="#217ab1" d="M 97.5,88.5 C 106.978,92.0808 113.311,98.7474 116.5,108.5C 106.924,110.744 97.9243,109.411 89.5,104.5C 88.1482,105.524 86.8149,106.524 85.5,107.5C 89.5896,102.327 92.923,96.6605 95.5,90.5C 96.1667,89.8333 96.8333,89.1667 97.5,88.5 Z"/></g>
<g><path style="opacity:1" fill="#5698c3" d="M 57.5,74.5 C 58.5898,79.1184 59.9231,83.7851 61.5,88.5C 60.609,89.1098 59.609,89.4431 58.5,89.5C 59.8796,87.281 59.5463,85.281 57.5,83.5C 46.0681,89.6001 38.7348,98.9335 35.5,111.5C 35.8178,112.647 36.4844,113.481 37.5,114C 57.5423,118.933 73.5423,113.1 85.5,96.5C 84.9278,98.2554 84.0945,99.9221 83,101.5C 69.7416,116.69 53.5749,121.023 34.5,114.5C 35.8214,99.9009 43.1548,89.2343 56.5,82.5C 57.8943,80.4181 57.561,78.7514 55.5,77.5C 56.5511,76.7777 57.2178,75.7777 57.5,74.5 Z"/></g>
<g><path style="opacity:1" fill="#5798c3" d="M 118.5,98.5 C 120.979,101.72 122.812,105.387 124,109.5C 124.863,111.749 124.363,113.582 122.5,115C 109.032,119.565 96.5318,117.732 85,109.5C 84.1841,110.823 83.0174,111.489 81.5,111.5C 82.5,109.833 83.8333,108.5 85.5,107.5C 88.475,110.661 92.1417,112.828 96.5,114C 105.712,116.38 114.712,115.88 123.5,112.5C 121.829,107.821 120.163,103.154 118.5,98.5 Z"/></g>
</svg>
