<svg data-name="Слой 1" xmlns="http://www.w3.org/2000/svg" viewBox="0 0 48 48"><path fill="#0947b8" d="M0 0h48v48H0z"/><path d="M24 7.36A16.64 16.64 0 117.35 24 16.69 16.69 0 0124 7.36zm0 .74A15.9 15.9 0 118.12 24 15.93 15.93 0 0124 8.1zm0 1.1A14.8 14.8 0 119.22 24 14.83 14.83 0 0124 9.2zM10.1 26.1a27.91 27.91 0 017.06-3.74v-4.55L10.7 19.5A13.62 13.62 0 0010 24a20 20 0 00.14 2.08zm9.9-4.62c1-.28 2.08-.49 3.11-.67v-2l2.83-.81v3.92a38.93 38.93 0 019.84-5.61 14.75 14.75 0 00-2.36-2.75L20 17.07v4.41zm3.11 2a17.8 17.8 0 00-3.11.53v9l3-.81v-8.68zM17.15 25a30.89 30.89 0 00-6.35 3.74 14.07 14.07 0 003.81 5.65l2.51-.67V25zm20-6a27.47 27.47 0 00-7.48 3.74l4.66 6.46 3-.78A13.57 13.57 0 0038 24a13.37 13.37 0 00-.92-4.94zm-5.89 11l-3.92-5.26L25.91 26v5.43l5.33-1.41zM11 18.69L32.72 13A14 14 0 0011 18.69zm26 10.59L15.25 35A13.82 13.82 0 0024 38a14.14 14.14 0 0013-8.75z" fill="#fff" fill-rule="evenodd"/></svg>