<?xml version="1.0" encoding="UTF-8"?>
<!DOCTYPE svg PUBLIC "-//W3C//DTD SVG 1.1//EN" "http://www.w3.org/Graphics/SVG/1.1/DTD/svg11.dtd">
<svg xmlns="http://www.w3.org/2000/svg" version="1.1" width="160px" height="160px" style="shape-rendering:geometricPrecision; text-rendering:geometricPrecision; image-rendering:optimizeQuality; fill-rule:evenodd; clip-rule:evenodd" xmlns:xlink="http://www.w3.org/1999/xlink">
<g><path style="opacity:0.995" fill="#0c54a0" d="M -0.5,-0.5 C 52.8333,-0.5 106.167,-0.5 159.5,-0.5C 159.5,52.8333 159.5,106.167 159.5,159.5C 106.167,159.5 52.8333,159.5 -0.5,159.5C -0.5,106.167 -0.5,52.8333 -0.5,-0.5 Z"/></g>
<g><path style="opacity:1" fill="#e3eaf4" d="M 67.5,49.5 C 87.3859,47.6502 106.053,51.4835 123.5,61C 138.401,73.7533 138.068,86.0866 122.5,98C 104.028,108.033 84.3615,111.367 63.5,108C 49.0466,106.19 36.8799,100.024 27,89.5C 20.8937,78.5016 23.0604,69.3349 33.5,62C 44.0167,55.3795 55.35,51.2128 67.5,49.5 Z"/></g>
<g><path style="opacity:1" fill="#1356a1" d="M 94.5,53.5 C 86.0097,54.3296 77.343,54.8296 68.5,55C 80.9834,55.1786 93.3167,56.5119 105.5,59C 110.339,60.9213 115.006,63.088 119.5,65.5C 121.167,67.8333 123.167,69.8333 125.5,71.5C 125.927,74.0098 126.593,76.3432 127.5,78.5C 127.037,81.221 126.371,83.8877 125.5,86.5C 119.893,92.4356 113.227,96.7689 105.5,99.5C 88.912,103.112 72.2453,103.445 55.5,100.5C 47.2783,97.7205 39.9449,93.3872 33.5,87.5C 31.8568,83.6995 31.1901,79.6995 31.5,75.5C 35.9512,68.058 42.2845,62.7247 50.5,59.5C 47.538,60.0609 44.7047,61.0609 42,62.5C 41.2352,62.4301 40.7352,62.0967 40.5,61.5C 47.2088,57.3224 54.5422,54.4891 62.5,53C 73.2004,52.2372 83.8671,52.4038 94.5,53.5 Z"/></g>
<g><path style="opacity:1" fill="#6f98c6" d="M 50.5,59.5 C 55.4082,56.7753 60.7416,55.6086 66.5,56C 61.1526,57.1706 55.8193,58.3373 50.5,59.5 Z"/></g>
<g><path style="opacity:1" fill="#386bad" d="M 94.5,53.5 C 108.294,54.6981 119.794,60.3647 129,70.5C 132.996,81.1798 130.162,89.6798 120.5,96C 92.22,110.179 64.22,109.845 36.5,95C 24.9198,84.9738 24.5865,74.6405 35.5,64C 37.0779,62.9055 38.7446,62.0722 40.5,61.5C 40.7352,62.0967 41.2352,62.4301 42,62.5C 44.7047,61.0609 47.538,60.0609 50.5,59.5C 42.2845,62.7247 35.9512,68.058 31.5,75.5C 30.3742,75.859 29.7075,77.1924 29.5,79.5C 29.8999,82.7407 31.2332,85.4074 33.5,87.5C 39.9449,93.3872 47.2783,97.7205 55.5,100.5C 62.9988,102.962 70.8321,103.962 79,103.5C 83.8333,103.333 88.6667,103.167 93.5,103C 97.8328,102.512 101.833,101.345 105.5,99.5C 113.227,96.7689 119.893,92.4356 125.5,86.5C 126.966,85.653 127.8,84.3197 128,82.5C 128.876,79.162 128.709,77.8286 127.5,78.5C 126.593,76.3432 125.927,74.0098 125.5,71.5C 124.5,68.5 122.5,66.5 119.5,65.5C 115.006,63.088 110.339,60.9213 105.5,59C 93.3167,56.5119 80.9834,55.1786 68.5,55C 77.343,54.8296 86.0097,54.3296 94.5,53.5 Z"/></g>
<g><path style="opacity:1" fill="#6a96c5" d="M 119.5,65.5 C 122.5,66.5 124.5,68.5 125.5,71.5C 123.167,69.8333 121.167,67.8333 119.5,65.5 Z"/></g>
<g><path style="opacity:1" fill="#f7f9fc" d="M 52.5,88.5 C 52.5,85.8333 52.5,83.1667 52.5,80.5C 50.1667,80.5 47.8333,80.5 45.5,80.5C 45.5,83.1667 45.5,85.8333 45.5,88.5C 43.8333,88.5 42.1667,88.5 40.5,88.5C 40.5,82.1667 40.5,75.8333 40.5,69.5C 42.1667,69.5 43.8333,69.5 45.5,69.5C 45.5,71.8333 45.5,74.1667 45.5,76.5C 47.5,76.5 49.5,76.5 51.5,76.5C 51.5,74.1667 51.5,71.8333 51.5,69.5C 53.5,69.5 55.5,69.5 57.5,69.5C 57.5,75.8333 57.5,82.1667 57.5,88.5C 55.8333,88.5 54.1667,88.5 52.5,88.5 Z"/></g>
<g><path style="opacity:1" fill="#f3f6fa" d="M 76.5,88.5 C 74.8333,88.5 73.1667,88.5 71.5,88.5C 71.5,83.8333 71.5,79.1667 71.5,74.5C 70.5,74.5 69.5,74.5 68.5,74.5C 68.7662,78.6049 68.2662,82.6049 67,86.5C 64.8646,88.2785 62.3646,88.9452 59.5,88.5C 59.4551,85.9228 60.4551,83.9228 62.5,82.5C 63.4834,78.7016 63.8168,74.7016 63.5,70.5C 67.8333,70.5 72.1667,70.5 76.5,70.5C 76.5,76.5 76.5,82.5 76.5,88.5 Z"/></g>
<g><path style="opacity:1" fill="#afc7df" d="M 76.5,88.5 C 76.5,82.5 76.5,76.5 76.5,70.5C 72.1667,70.5 67.8333,70.5 63.5,70.5C 63.8168,74.7016 63.4834,78.7016 62.5,82.5C 62.5,78.1667 62.5,73.8333 62.5,69.5C 67.5,69.5 72.5,69.5 77.5,69.5C 77.8235,76.0221 77.4902,82.3554 76.5,88.5 Z"/></g>
<g><path style="opacity:1" fill="#f0f4f9" d="M 81.5,69.5 C 83.7925,69.2436 85.9592,69.5769 88,70.5C 88.7543,73.6392 89.7543,76.6392 91,79.5C 91.3918,76.3728 92.2251,73.3728 93.5,70.5C 95.396,69.5344 97.396,69.2011 99.5,69.5C 100.711,75.7708 101.378,82.1041 101.5,88.5C 99.8333,88.5 98.1667,88.5 96.5,88.5C 96.3458,77.3092 95.0124,76.9758 92.5,87.5C 91.3112,88.4287 89.9778,88.762 88.5,88.5C 86.5476,75.3074 85.2143,75.3074 84.5,88.5C 82.8333,88.5 81.1667,88.5 79.5,88.5C 80.1667,82.1667 80.8333,75.8333 81.5,69.5 Z"/></g>
<g><path style="opacity:1" fill="#edf2f8" d="M 103.5,69.5 C 105.5,69.5 107.5,69.5 109.5,69.5C 109.337,71.8568 109.503,74.1902 110,76.5C 111.5,74.3333 113,72.1667 114.5,70C 116.579,69.1923 118.579,69.359 120.5,70.5C 118.115,72.8838 116.115,75.5505 114.5,78.5C 116.64,81.8073 118.974,84.974 121.5,88C 119.167,88.6667 116.833,88.6667 114.5,88C 113,85.8333 111.5,83.6667 110,81.5C 109.503,83.8098 109.337,86.1432 109.5,88.5C 107.5,88.5 105.5,88.5 103.5,88.5C 103.5,82.1667 103.5,75.8333 103.5,69.5 Z"/></g>
<g><path style="opacity:1" fill="#6b96c5" d="M 31.5,75.5 C 31.1901,79.6995 31.8568,83.6995 33.5,87.5C 31.2332,85.4074 29.8999,82.7407 29.5,79.5C 29.7075,77.1924 30.3742,75.859 31.5,75.5 Z"/></g>
<g><path style="opacity:1" fill="#94b3d5" d="M 52.5,88.5 C 51.5318,86.3926 51.1984,84.0593 51.5,81.5C 49.8333,81.5 48.1667,81.5 46.5,81.5C 46.8016,84.0593 46.4682,86.3926 45.5,88.5C 45.5,85.8333 45.5,83.1667 45.5,80.5C 47.8333,80.5 50.1667,80.5 52.5,80.5C 52.5,83.1667 52.5,85.8333 52.5,88.5 Z"/></g>
<g><path style="opacity:1" fill="#789fca" d="M 125.5,86.5 C 126.371,83.8877 127.037,81.221 127.5,78.5C 128.709,77.8286 128.876,79.162 128,82.5C 127.8,84.3197 126.966,85.653 125.5,86.5 Z"/></g>
<g><path style="opacity:1" fill="#6894c4" d="M 105.5,99.5 C 101.833,101.345 97.8328,102.512 93.5,103C 88.6667,103.167 83.8333,103.333 79,103.5C 70.8321,103.962 62.9988,102.962 55.5,100.5C 72.2453,103.445 88.912,103.112 105.5,99.5 Z"/></g>
</svg>
