<?xml version="1.0" encoding="UTF-8"?>
<!DOCTYPE svg PUBLIC "-//W3C//DTD SVG 1.1//EN" "http://www.w3.org/Graphics/SVG/1.1/DTD/svg11.dtd">
<svg xmlns="http://www.w3.org/2000/svg" version="1.1" width="160px" height="160px" style="shape-rendering:geometricPrecision; text-rendering:geometricPrecision; image-rendering:optimizeQuality; fill-rule:evenodd; clip-rule:evenodd" xmlns:xlink="http://www.w3.org/1999/xlink">
<g><path style="opacity:1" fill="#f1eeec" d="M -0.5,-0.5 C 52.8333,-0.5 106.167,-0.5 159.5,-0.5C 159.5,52.8333 159.5,106.167 159.5,159.5C 106.167,159.5 52.8333,159.5 -0.5,159.5C -0.5,106.167 -0.5,52.8333 -0.5,-0.5 Z"/></g>
<g><path style="opacity:1" fill="#53aee5" d="M 72.5,39.5 C 77.544,39.1725 82.544,39.5059 87.5,40.5C 94.0975,54.3078 100.097,68.3078 105.5,82.5C 100.5,82.5 95.5,82.5 90.5,82.5C 87.6083,74.1644 83.9417,66.1644 79.5,58.5C 75.9284,66.3834 72.2617,74.2167 68.5,82C 63.467,82.8289 58.467,82.6623 53.5,81.5C 59.8399,67.4706 66.1733,53.4706 72.5,39.5 Z"/></g>
<g><path style="opacity:1" fill="#9f9c9a" d="M 47.5,96.5 C 52.3477,95.1863 57.3477,95.1863 62.5,96.5C 62.3764,97.1067 62.0431,97.44 61.5,97.5C 57.03,96.5139 52.3633,96.1805 47.5,96.5 Z"/></g>
<g><path style="opacity:1" fill="#141211" d="M 47.5,96.5 C 52.3633,96.1805 57.03,96.5139 61.5,97.5C 58.0984,104.713 55.0984,112.047 52.5,119.5C 47.1563,119.666 41.8229,119.499 36.5,119C 40.0695,111.363 43.7361,103.863 47.5,96.5 Z"/></g>
<g><path style="opacity:1" fill="#131210" d="M 97.5,97.5 C 102.64,96.5119 107.974,96.1786 113.5,96.5C 116.295,104.212 119.295,111.879 122.5,119.5C 117.456,119.827 112.456,119.494 107.5,118.5C 104.392,111.288 101.058,104.288 97.5,97.5 Z"/></g>
</svg>
