<?xml version="1.0" encoding="UTF-8"?>
<!DOCTYPE svg PUBLIC "-//W3C//DTD SVG 1.1//EN" "http://www.w3.org/Graphics/SVG/1.1/DTD/svg11.dtd">
<svg xmlns="http://www.w3.org/2000/svg" version="1.1" width="160px" height="160px" style="shape-rendering:geometricPrecision; text-rendering:geometricPrecision; image-rendering:optimizeQuality; fill-rule:evenodd; clip-rule:evenodd" xmlns:xlink="http://www.w3.org/1999/xlink">
<g><path style="opacity:1" fill="#fdfdfe" d="M -0.5,-0.5 C 52.8333,-0.5 106.167,-0.5 159.5,-0.5C 159.5,52.8333 159.5,106.167 159.5,159.5C 106.167,159.5 52.8333,159.5 -0.5,159.5C -0.5,106.167 -0.5,52.8333 -0.5,-0.5 Z"/></g>
<g><path style="opacity:1" fill="#da5b7d" d="M 85.5,44.5 C 84.8333,44.5 84.1667,44.5 83.5,44.5C 84.1667,41.8333 84.8333,41.8333 85.5,44.5 Z"/></g>
<g><path style="opacity:1" fill="#d65679" d="M 80.5,42.5 C 80.5,43.1667 80.5,43.8333 80.5,44.5C 77.8333,43.8333 77.8333,43.1667 80.5,42.5 Z"/></g>
<g><path style="opacity:1" fill="#d85374" d="M 87.5,46.5 C 89.1788,46.2852 90.1788,46.9519 90.5,48.5C 88.6322,49.6736 87.6322,49.0069 87.5,46.5 Z"/></g>
<g><path style="opacity:1" fill="#d85274" d="M 94.5,48.5 C 93.8333,48.5 93.1667,48.5 92.5,48.5C 93.1667,45.8333 93.8333,45.8333 94.5,48.5 Z"/></g>
<g><path style="opacity:1" fill="#acd5f3" d="M 47.5,51.5 C 48.2916,52.9669 48.2916,54.3002 47.5,55.5C 46.8333,56.1667 46.1667,56.8333 45.5,57.5C 44.5832,56.8728 43.5832,56.5394 42.5,56.5C 41.6016,55.8423 40.6016,55.1757 39.5,54.5C 42.3381,53.4877 43.6714,51.4877 43.5,48.5C 44.8333,48.5 46.1667,48.5 47.5,48.5C 47.5,49.5 47.5,50.5 47.5,51.5 Z"/></g>
<g><path style="opacity:1" fill="#d23e64" d="M 96.5,50.5 C 97.5,50.5 98.5,50.5 99.5,50.5C 99.5,51.5 99.5,52.5 99.5,53.5C 99.5,52.5 99.5,51.5 99.5,50.5C 98.5,50.5 97.5,50.5 96.5,50.5 Z"/></g>
<g><path style="opacity:1" fill="#8b4984" d="M 83.5,51.5 C 84.4916,51.3284 85.1583,51.6618 85.5,52.5C 85.1583,53.3382 84.4916,53.6716 83.5,53.5C 83.5,52.8333 83.5,52.1667 83.5,51.5 Z"/></g>
<g><path style="opacity:1" fill="#b15784" d="M 88.5,53.5 C 87.8333,53.5 87.5,53.1667 87.5,52.5C 88.3676,50.3754 89.3676,50.2087 90.5,52C 90.1639,53.0299 89.4972,53.5299 88.5,53.5 Z"/></g>
<g><path style="opacity:1" fill="#ce2959" d="M 101.5,53.5 C 101.639,51.663 102.306,51.3296 103.5,52.5C 103.043,53.2975 102.376,53.6309 101.5,53.5 Z"/></g>
<g><path style="opacity:1" fill="#d64a70" d="M 106.5,51.5 C 109.001,51.5109 109.168,52.1776 107,53.5C 106.536,52.9056 106.369,52.2389 106.5,51.5 Z"/></g>
<g><path style="opacity:1" fill="#cd3c64" d="M 101.5,55.5 C 103.179,55.2852 104.179,55.9519 104.5,57.5C 103.749,58.5735 102.749,58.7401 101.5,58C 100.226,57.0228 100.226,56.1894 101.5,55.5 Z"/></g>
<g><path style="opacity:1" fill="#d03e65" d="M 106.5,58.5 C 105.833,58.5 105.5,58.1667 105.5,57.5C 105.821,55.9519 106.821,55.2852 108.5,55.5C 108.715,57.1788 108.048,58.1788 106.5,58.5 Z"/></g>
<g><path style="opacity:1" fill="#d02f5b" d="M 110.5,55.5 C 112.337,55.6395 112.67,56.3061 111.5,57.5C 110.702,57.0431 110.369,56.3764 110.5,55.5 Z"/></g>
<g><path style="opacity:1" fill="#6ca7db" d="M 47.5,51.5 C 47.8333,51.5 48.1667,51.5 48.5,51.5C 50.0012,53.7388 51.3345,53.7388 52.5,51.5C 54.2352,52.057 55.9018,52.3903 57.5,52.5C 56.1413,54.306 56.4746,55.806 58.5,57C 56.0266,58.4019 56.0266,59.9019 58.5,61.5C 56.3063,61.358 53.9729,61.6914 51.5,62.5C 51.33,61.1779 51.6634,60.0113 52.5,59C 51.6667,58.1667 50.8333,57.3333 50,56.5C 49.1667,57.3333 48.3333,58.1667 47.5,59C 48.3366,60.0113 48.67,61.1779 48.5,62.5C 46.8762,62.6399 45.7096,61.9733 45,60.5C 44.5831,61.756 43.7498,62.4226 42.5,62.5C 43.6414,60.4513 43.6414,58.4513 42.5,56.5C 43.5832,56.5394 44.5832,56.8728 45.5,57.5C 46.1667,56.8333 46.8333,56.1667 47.5,55.5C 48.2916,54.3002 48.2916,52.9669 47.5,51.5 Z"/></g>
<g><path style="opacity:1" fill="#a9c8e9" d="M 74.5,42.5 C 74.7856,44.9327 75.4523,44.9327 76.5,42.5C 76.6556,38.8649 77.8223,38.5315 80,41.5C 81.0847,39.3426 82.2513,39.1759 83.5,41C 82.7562,42.0386 81.7562,42.5386 80.5,42.5C 77.8333,43.1667 77.8333,43.8333 80.5,44.5C 81.5,44.5 82.5,44.5 83.5,44.5C 84.1667,44.5 84.8333,44.5 85.5,44.5C 86.8333,44.5 87.5,45.1667 87.5,46.5C 87.6322,49.0069 88.6322,49.6736 90.5,48.5C 91.1667,48.5 91.8333,48.5 92.5,48.5C 93.1667,48.5 93.8333,48.5 94.5,48.5C 95.8333,48.5 96.5,49.1667 96.5,50.5C 96.5,51.5 96.5,52.5 96.5,53.5C 97.5,53.5 98.5,53.5 99.5,53.5C 100.167,53.5 100.833,53.5 101.5,53.5C 101.5,54.1667 101.5,54.8333 101.5,55.5C 100.226,56.1894 100.226,57.0228 101.5,58C 102.749,58.7401 103.749,58.5735 104.5,57.5C 104.833,57.5 105.167,57.5 105.5,57.5C 105.5,58.1667 105.833,58.5 106.5,58.5C 106.5,58.8333 106.5,59.1667 106.5,59.5C 105.065,60.9848 105.232,62.3181 107,63.5C 109.193,63.0826 111.359,62.7493 113.5,62.5C 113.833,62.5 114.167,62.5 114.5,62.5C 115.5,62.5 116.5,62.5 117.5,62.5C 117.5,63.1667 117.5,63.8333 117.5,64.5C 118.167,64.8333 118.833,65.1667 119.5,65.5C 119.5,66.1667 119.5,66.8333 119.5,67.5C 119.5,67.8333 119.5,68.1667 119.5,68.5C 118.103,68.7952 116.603,69.1286 115,69.5C 114.481,71.4894 115.314,72.4894 117.5,72.5C 117.5,72.8333 117.5,73.1667 117.5,73.5C 116.5,73.5 115.5,73.5 114.5,73.5C 115.302,76.3135 115.636,78.9802 115.5,81.5C 115.5,81.8333 115.5,82.1667 115.5,82.5C 114.167,83.5 114.167,84.5 115.5,85.5C 115.5,86.1667 115.5,86.8333 115.5,87.5C 115.167,87.5 114.833,87.5 114.5,87.5C 114.167,87.5 113.833,87.5 113.5,87.5C 112.466,83.1987 112.466,79.0321 113.5,75C 113.164,73.9701 112.497,73.4701 111.5,73.5C 111.5,73.1667 111.5,72.8333 111.5,72.5C 113.176,71.8166 113.843,70.4832 113.5,68.5C 111.416,69.2483 109.416,69.2483 107.5,68.5C 106.081,69.0047 105.415,70.0047 105.5,71.5C 104.512,70.205 103.512,68.8717 102.5,67.5C 104.382,66.779 104.715,65.779 103.5,64.5C 103.5,64.1667 103.5,63.8333 103.5,63.5C 104.684,62.3121 104.684,61.1455 103.5,60C 101.5,60.7925 99.4995,60.6259 97.5,59.5C 97.5,59.1667 97.5,58.8333 97.5,58.5C 99.6246,57.6324 99.7913,56.6324 98,55.5C 96.9701,55.8361 96.4701,56.5028 96.5,57.5C 96.1667,57.5 95.8333,57.5 95.5,57.5C 95.1667,56.1667 94.8333,54.8333 94.5,53.5C 95.7375,52.2566 95.4041,51.2566 93.5,50.5C 91.4807,51.1329 91.1474,52.1329 92.5,53.5C 92.6716,54.4916 92.3382,55.1583 91.5,55.5C 88.3404,59.3672 87.3404,58.7005 88.5,53.5C 89.4972,53.5299 90.1639,53.0299 90.5,52C 89.3676,50.2087 88.3676,50.3754 87.5,52.5C 86.8333,52.5 86.1667,52.5 85.5,52.5C 85.1583,51.6618 84.4916,51.3284 83.5,51.5C 83.5,50.5 83.5,49.5 83.5,48.5C 82.5,48.5 81.5,48.5 80.5,48.5C 79.8333,45.8333 79.1667,45.8333 78.5,48.5C 75.3508,48.7886 72.3508,48.2886 69.5,47C 70.4132,45.5861 70.4132,44.0861 69.5,42.5C 71.0481,42.1788 71.7148,41.1788 71.5,39.5C 72.5,39.5 73.5,39.5 74.5,39.5C 74.5,40.5 74.5,41.5 74.5,42.5 Z"/></g>
<g><path style="opacity:1" fill="#b36b95" d="M 92.5,53.5 C 93.1667,53.5 93.8333,53.5 94.5,53.5C 94.8333,54.8333 95.1667,56.1667 95.5,57.5C 93.1707,59.0024 91.8373,58.3357 91.5,55.5C 92.3382,55.1583 92.6716,54.4916 92.5,53.5 Z"/></g>
<g><path style="opacity:1" fill="#c92356" d="M 97.5,58.5 C 97.5,57.8333 97.1667,57.5 96.5,57.5C 96.4701,56.5028 96.9701,55.8361 98,55.5C 99.7913,56.6324 99.6246,57.6324 97.5,58.5 Z"/></g>
<g><path style="opacity:1" fill="#ce3962" d="M 94.5,53.5 C 93.8333,53.5 93.1667,53.5 92.5,53.5C 91.1474,52.1329 91.4807,51.1329 93.5,50.5C 95.4041,51.2566 95.7375,52.2566 94.5,53.5 Z"/></g>
<g><path style="opacity:1" fill="#ce2958" d="M 83.5,48.5 C 83.6395,46.663 84.3061,46.3296 85.5,47.5C 85.0431,48.2975 84.3764,48.6309 83.5,48.5 Z"/></g>
<g><path style="opacity:1" fill="#d0658a" d="M 80.5,48.5 C 79.8333,48.5 79.1667,48.5 78.5,48.5C 79.1667,45.8333 79.8333,45.8333 80.5,48.5 Z"/></g>
<g><path style="opacity:1" fill="#d64a70" d="M 74.5,42.5 C 75.1667,42.5 75.8333,42.5 76.5,42.5C 75.4523,44.9327 74.7856,44.9327 74.5,42.5 Z"/></g>
<g><path style="opacity:1" fill="#d5496c" d="M 106.5,59.5 C 108.205,60.5353 109.872,60.5353 111.5,59.5C 112.919,60.0047 113.585,61.0047 113.5,62.5C 111.359,62.7493 109.193,63.0826 107,63.5C 105.232,62.3181 105.065,60.9848 106.5,59.5 Z"/></g>
<g><path style="opacity:1" fill="#d0325c" d="M 117.5,62.5 C 116.5,62.5 115.5,62.5 114.5,62.5C 115.5,59.8333 116.5,59.8333 117.5,62.5 Z"/></g>
<g><path style="opacity:1" fill="#84c4ee" d="M 69.5,42.5 C 70.4132,44.0861 70.4132,45.5861 69.5,47C 72.3508,48.2886 75.3508,48.7886 78.5,48.5C 79.1667,48.5 79.8333,48.5 80.5,48.5C 81.5,48.5 82.5,48.5 83.5,48.5C 83.5,49.5 83.5,50.5 83.5,51.5C 80.72,51.9452 78.0534,51.9452 75.5,51.5C 74.4104,52.3914 74.4104,53.3914 75.5,54.5C 74.2095,57.8604 72.5428,58.1937 70.5,55.5C 71.2916,54.0331 71.2916,52.6998 70.5,51.5C 67.5,51.5 64.5,51.5 61.5,51.5C 60.7574,54.643 60.4241,57.643 60.5,60.5C 60.5,63.5 60.5,66.5 60.5,69.5C 59.5,69.5 58.5,69.5 57.5,69.5C 57.33,68.1779 57.6634,67.0113 58.5,66C 58,65.5 57.5,65 57,64.5C 55.2134,65.3431 53.3801,65.5098 51.5,65C 51.0338,66.2988 51.0338,67.7988 51.5,69.5C 50.5,69.5 49.5,69.5 48.5,69.5C 48.33,68.1779 48.6634,67.0113 49.5,66C 48.9747,65.3076 48.3081,64.8076 47.5,64.5C 46.8676,67.1024 45.8676,69.4357 44.5,71.5C 42.0233,70.88 42.0233,69.88 44.5,68.5C 44.1667,68.1667 43.8333,67.8333 43.5,67.5C 42.3777,68.6302 41.0443,69.2969 39.5,69.5C 39.4894,67.9826 38.8228,66.8159 37.5,66C 38.8333,66 40.1667,66 41.5,66C 38.5315,63.8223 38.8649,62.6556 42.5,62.5C 43.7498,62.4226 44.5831,61.756 45,60.5C 45.7096,61.9733 46.8762,62.6399 48.5,62.5C 48.67,61.1779 48.3366,60.0113 47.5,59C 48.3333,58.1667 49.1667,57.3333 50,56.5C 50.8333,57.3333 51.6667,58.1667 52.5,59C 51.6634,60.0113 51.33,61.1779 51.5,62.5C 53.9729,61.6914 56.3063,61.358 58.5,61.5C 56.0266,59.9019 56.0266,58.4019 58.5,57C 56.4746,55.806 56.1413,54.306 57.5,52.5C 55.9018,52.3903 54.2352,52.057 52.5,51.5C 51.3345,53.7388 50.0012,53.7388 48.5,51.5C 48.33,50.1779 48.6634,49.0113 49.5,48C 48.3508,46.2559 47.0175,46.0892 45.5,47.5C 42.8333,46.1667 42.8333,44.8333 45.5,43.5C 47.0175,44.9108 48.3508,44.7441 49.5,43C 48.9747,42.3076 48.3081,41.8076 47.5,41.5C 46.2638,42.2458 44.9305,42.5792 43.5,42.5C 43.6985,40.0401 44.3652,37.7067 45.5,35.5C 47.13,40.5941 48.13,40.2607 48.5,34.5C 49.5,34.5 50.5,34.5 51.5,34.5C 51.3505,35.552 51.5172,36.552 52,37.5C 52.3678,36.09 53.2011,35.09 54.5,34.5C 56.1461,35.7786 57.3128,37.4453 58,39.5C 60.3543,39.1084 62.8543,39.1084 65.5,39.5C 65.8333,46.1667 66.1667,46.1667 66.5,39.5C 67.5,39.5 68.5,39.5 69.5,39.5C 69.5,40.5 69.5,41.5 69.5,42.5 Z"/></g>
<g><path style="opacity:1" fill="#a15487" d="M 97.5,59.5 C 99.4995,60.6259 101.5,60.7925 103.5,60C 104.684,61.1455 104.684,62.3121 103.5,63.5C 102.518,62.8592 101.518,62.1925 100.5,61.5C 99.5832,62.1272 98.5832,62.4606 97.5,62.5C 96.1667,61.5 96.1667,60.5 97.5,59.5 Z"/></g>
<g><path style="opacity:1" fill="#d85073" d="M 119.5,60.5 C 120.675,60.281 121.675,60.6143 122.5,61.5C 120.948,62.7979 119.948,62.4646 119.5,60.5 Z"/></g>
<g><path style="opacity:1" fill="#e489a3" d="M 124.5,60.5 C 126.337,60.6395 126.67,61.3061 125.5,62.5C 124.702,62.0431 124.369,61.3764 124.5,60.5 Z"/></g>
<g><path style="opacity:1" fill="#cc2656" d="M 117.5,64.5 C 117.5,65.5 117.5,66.5 117.5,67.5C 116.5,67.5 115.5,67.5 114.5,67.5C 114.5,66.5 114.5,65.5 114.5,64.5C 115.5,64.5 116.5,64.5 117.5,64.5 Z"/></g>
<g><path style="opacity:1" fill="#d33d64" d="M 119.5,67.5 C 119.5,66.8333 119.5,66.1667 119.5,65.5C 120.209,64.596 121.209,64.2627 122.5,64.5C 122.5,65.5 122.5,66.5 122.5,67.5C 121.5,67.5 120.5,67.5 119.5,67.5 Z"/></g>
<g><path style="opacity:1" fill="#7c639d" d="M 103.5,64.5 C 104.715,65.779 104.382,66.779 102.5,67.5C 99.8999,66.0311 100.233,65.0311 103.5,64.5 Z"/></g>
<g><path style="opacity:1" fill="#609bd3" d="M 60.5,60.5 C 61.7251,61.1522 62.3917,62.3189 62.5,64C 61.8834,66.1587 61.8834,68.1587 62.5,70C 59.9767,71.9112 59.9767,73.7445 62.5,75.5C 60.7219,75.5693 58.8886,75.9026 57,76.5C 56.9047,74.3449 56.0714,72.3449 54.5,70.5C 53.5,70.8333 52.8333,71.5 52.5,72.5C 53.021,74.861 53.3543,77.1943 53.5,79.5C 53.1667,79.8333 52.8333,80.1667 52.5,80.5C 51.5481,78.9547 51.2148,77.288 51.5,75.5C 48.9746,76.8916 46.8079,76.5582 45,74.5C 44.5357,75.0944 44.369,75.7611 44.5,76.5C 43.2438,76.5386 42.2438,76.0386 41.5,75C 43.0629,74.2411 44.0629,73.0744 44.5,71.5C 45.8676,69.4357 46.8676,67.1024 47.5,64.5C 48.3081,64.8076 48.9747,65.3076 49.5,66C 48.6634,67.0113 48.33,68.1779 48.5,69.5C 49.5,69.5 50.5,69.5 51.5,69.5C 51.0338,67.7988 51.0338,66.2988 51.5,65C 53.3801,65.5098 55.2134,65.3431 57,64.5C 57.5,65 58,65.5 58.5,66C 57.6634,67.0113 57.33,68.1779 57.5,69.5C 58.5,69.5 59.5,69.5 60.5,69.5C 60.5,66.5 60.5,63.5 60.5,60.5 Z"/></g>
<g><path style="opacity:1" fill="#bc3f6c" d="M 105.5,64.5 C 108.167,64.5 110.833,64.5 113.5,64.5C 113.5,65.5 113.5,66.5 113.5,67.5C 111.416,66.7517 109.416,66.7517 107.5,67.5C 106.081,66.9953 105.415,65.9953 105.5,64.5 Z"/></g>
<g><path style="opacity:1" fill="#e98fa0" d="M 124.5,65.5 C 126.337,65.6395 126.67,66.3061 125.5,67.5C 124.702,67.0431 124.369,66.3764 124.5,65.5 Z"/></g>
<g><path style="opacity:1" fill="#7e629d" d="M 111.5,72.5 C 109.621,71.6586 107.621,71.3253 105.5,71.5C 105.415,70.0047 106.081,69.0047 107.5,68.5C 109.416,69.2483 111.416,69.2483 113.5,68.5C 113.843,70.4832 113.176,71.8166 111.5,72.5 Z"/></g>
<g><path style="opacity:1" fill="#cc1f52" d="M 124.5,69.5 C 126.337,69.6395 126.67,70.3061 125.5,71.5C 124.702,71.0431 124.369,70.3764 124.5,69.5 Z"/></g>
<g><path style="opacity:1" fill="#c24c76" d="M 119.5,68.5 C 120.5,68.5 121.5,68.5 122.5,68.5C 122.912,70.9726 121.912,72.3059 119.5,72.5C 118.833,71.1667 118.167,71.1667 117.5,72.5C 115.314,72.4894 114.481,71.4894 115,69.5C 116.603,69.1286 118.103,68.7952 119.5,68.5 Z"/></g>
<g><path style="opacity:1" fill="#e78ca1" d="M 129.5,69.5 C 131.337,69.6395 131.67,70.3061 130.5,71.5C 129.702,71.0431 129.369,70.3764 129.5,69.5 Z"/></g>
<g><path style="opacity:1" fill="#ddd1e1" d="M 119.5,72.5 C 119.5,72.8333 119.5,73.1667 119.5,73.5C 119.5,74.5 119.5,75.5 119.5,76.5C 120.5,76.5 121.5,76.5 122.5,76.5C 122.5,77.1667 122.5,77.8333 122.5,78.5C 123.167,78.5 123.833,78.5 124.5,78.5C 124.5,79.5 124.5,80.5 124.5,81.5C 123.167,81.8333 123.167,82.1667 124.5,82.5C 124.5,83.5 124.5,84.5 124.5,85.5C 123.833,85.5 123.167,85.5 122.5,85.5C 122.5,86.1667 122.5,86.8333 122.5,87.5C 121.5,87.5 120.5,87.5 119.5,87.5C 119.5,88.5 119.5,89.5 119.5,90.5C 123.733,93.4241 123.066,94.7574 117.5,94.5C 116.754,90.69 115.754,90.69 114.5,94.5C 114.672,95.4916 114.338,96.1583 113.5,96.5C 112.5,96.5 111.5,96.5 110.5,96.5C 110.5,95.8333 110.5,95.1667 110.5,94.5C 111.5,94.5 112.5,94.5 113.5,94.5C 113.715,92.8212 113.048,91.8212 111.5,91.5C 111.5,91.1667 111.5,90.8333 111.5,90.5C 113.048,90.1788 113.715,89.1788 113.5,87.5C 113.833,87.5 114.167,87.5 114.5,87.5C 114.5,88.5 114.5,89.5 114.5,90.5C 116.346,90.7778 117.68,90.1112 118.5,88.5C 117.675,87.6143 116.675,87.281 115.5,87.5C 115.5,86.8333 115.5,86.1667 115.5,85.5C 118.167,84.5 118.167,83.5 115.5,82.5C 115.5,82.1667 115.5,81.8333 115.5,81.5C 117.294,79.8971 118.294,77.7304 118.5,75C 118.43,74.2352 118.097,73.7352 117.5,73.5C 117.5,73.1667 117.5,72.8333 117.5,72.5C 118.167,71.1667 118.833,71.1667 119.5,72.5 Z"/></g>
<g><path style="opacity:1" fill="#b63265" d="M 119.5,73.5 C 120.5,73.5 121.5,73.5 122.5,73.5C 122.5,74.5 122.5,75.5 122.5,76.5C 122.5,75.5 122.5,74.5 122.5,73.5C 121.5,73.5 120.5,73.5 119.5,73.5 Z"/></g>
<g><path style="opacity:1" fill="#c3d9ef" d="M 44.5,71.5 C 44.0629,73.0744 43.0629,74.2411 41.5,75C 42.2438,76.0386 43.2438,76.5386 44.5,76.5C 44.5,77.1667 44.5,77.8333 44.5,78.5C 43.5,78.5 42.5,78.5 41.5,78.5C 38.9897,77.0864 36.9897,75.0864 35.5,72.5C 36.5884,71.0656 37.9217,70.0656 39.5,69.5C 41.0443,69.2969 42.3777,68.6302 43.5,67.5C 43.8333,67.8333 44.1667,68.1667 44.5,68.5C 42.0233,69.88 42.0233,70.88 44.5,71.5 Z"/></g>
<g><path style="opacity:1" fill="#975f94" d="M 117.5,73.5 C 118.097,73.7352 118.43,74.2352 118.5,75C 118.294,77.7304 117.294,79.8971 115.5,81.5C 115.636,78.9802 115.302,76.3135 114.5,73.5C 115.5,73.5 116.5,73.5 117.5,73.5 Z"/></g>
<g><path style="opacity:1" fill="#d33f65" d="M 124.5,73.5 C 127.674,73.9522 128.007,74.9522 125.5,76.5C 123.481,75.8671 123.147,74.8671 124.5,73.5 Z"/></g>
<g><path style="opacity:1" fill="#3c65ad" d="M 111.5,73.5 C 112.497,73.4701 113.164,73.9701 113.5,75C 112.466,79.0321 112.466,83.1987 113.5,87.5C 113.715,89.1788 113.048,90.1788 111.5,90.5C 110.93,85.6885 110.93,80.6885 111.5,75.5C 109.856,75.2865 108.356,75.6198 107,76.5C 106.5,76 106,75.5 105.5,75C 107.388,74.102 109.388,73.602 111.5,73.5 Z"/></g>
<g><path style="opacity:1" fill="#d23b61" d="M 124.5,78.5 C 127.167,79.5 127.167,80.5 124.5,81.5C 124.5,80.5 124.5,79.5 124.5,78.5 Z"/></g>
<g><path style="opacity:1" fill="#4f70b2" d="M 39.5,80.5 C 38.8333,80.5 38.1667,80.5 37.5,80.5C 38.1667,77.8333 38.8333,77.8333 39.5,80.5 Z"/></g>
<g><path style="opacity:1" fill="#b44170" d="M 122.5,78.5 C 122.5,79.5 122.5,80.5 122.5,81.5C 121.5,81.5 120.5,81.5 119.5,81.5C 119.5,80.5 119.5,79.5 119.5,78.5C 120.5,78.5 121.5,78.5 122.5,78.5 Z"/></g>
<g><path style="opacity:1" fill="#c7dbef" d="M 37.5,80.5 C 38.1667,80.5 38.8333,80.5 39.5,80.5C 40.1667,80.5 40.8333,80.5 41.5,80.5C 42.4734,80.9867 43.4734,81.4867 44.5,82C 42.5743,82.4224 41.5743,83.5891 41.5,85.5C 40.8333,85.5 40.1667,85.5 39.5,85.5C 37.9432,84.5337 36.6099,83.2004 35.5,81.5C 35.9569,80.7025 36.6236,80.3691 37.5,80.5 Z"/></g>
<g><path style="opacity:1" fill="#6293cc" d="M 41.5,78.5 C 42.5,78.5 43.5,78.5 44.5,78.5C 44.369,79.2389 44.5357,79.9056 45,80.5C 45.7096,79.0267 46.8762,78.3601 48.5,78.5C 48.5,79.8333 48.5,81.1667 48.5,82.5C 46.5,82.5 45.5,83.5 45.5,85.5C 44.1667,85.5 42.8333,85.5 41.5,85.5C 41.5743,83.5891 42.5743,82.4224 44.5,82C 43.4734,81.4867 42.4734,80.9867 41.5,80.5C 41.5,79.8333 41.5,79.1667 41.5,78.5 Z"/></g>
<g><path style="opacity:1" fill="#70abde" d="M 103.5,63.5 C 103.5,63.8333 103.5,64.1667 103.5,64.5C 100.233,65.0311 99.8999,66.0311 102.5,67.5C 103.512,68.8717 104.512,70.205 105.5,71.5C 107.621,71.3253 109.621,71.6586 111.5,72.5C 111.5,72.8333 111.5,73.1667 111.5,73.5C 109.388,73.602 107.388,74.102 105.5,75C 106,75.5 106.5,76 107,76.5C 108.356,75.6198 109.856,75.2865 111.5,75.5C 110.93,80.6885 110.93,85.6885 111.5,90.5C 111.5,90.8333 111.5,91.1667 111.5,91.5C 110.89,92.391 110.557,93.391 110.5,94.5C 110.5,95.1667 110.5,95.8333 110.5,96.5C 106.167,98.1667 103.167,101.167 101.5,105.5C 99.0728,106.279 99.0728,107.446 101.5,109C 100.451,109.492 99.451,109.326 98.5,108.5C 96.2737,110.86 93.7737,112.86 91,114.5C 90.6174,113.944 90.1174,113.611 89.5,113.5C 90.2751,111.612 90.2751,109.612 89.5,107.5C 91.2259,107.815 92.8925,107.981 94.5,108C 94.7467,106.187 95.08,104.353 95.5,102.5C 97.3324,104.957 98.9991,104.957 100.5,102.5C 99.1468,101.476 98.4802,100.143 98.5,98.5C 104.833,100.152 106.166,98.1516 102.5,92.5C 101.893,92.6236 101.56,92.9569 101.5,93.5C 100.178,93.33 99.0113,93.6634 98,94.5C 97.5,94 97,93.5 96.5,93C 97.7468,91.5421 97.7468,90.0421 96.5,88.5C 98.0436,87.3776 99.377,87.711 100.5,89.5C 101.262,88.3717 101.929,87.2051 102.5,86C 100.429,85.0168 98.4295,84.3501 96.5,84C 96.5,81 96.5,78 96.5,75C 98.6551,74.9047 100.655,74.0714 102.5,72.5C 101.758,71.7132 100.925,71.0465 100,70.5C 98.8173,71.731 97.6507,71.731 96.5,70.5C 96.7265,67.7756 97.0598,65.1089 97.5,62.5C 98.5832,62.4606 99.5832,62.1272 100.5,61.5C 101.518,62.1925 102.518,62.8592 103.5,63.5 Z"/></g>
<g><path style="opacity:1" fill="#b83365" d="M 122.5,85.5 C 121.5,85.5 120.5,85.5 119.5,85.5C 119.5,84.5 119.5,83.5 119.5,82.5C 120.5,82.5 121.5,82.5 122.5,82.5C 122.5,83.5 122.5,84.5 122.5,85.5 Z"/></g>
<g><path style="opacity:1" fill="#6c5494" d="M 115.5,82.5 C 118.167,83.5 118.167,84.5 115.5,85.5C 114.167,84.5 114.167,83.5 115.5,82.5 Z"/></g>
<g><path style="opacity:1" fill="#d6496c" d="M 124.5,82.5 C 127.167,83.5 127.167,84.5 124.5,85.5C 124.5,84.5 124.5,83.5 124.5,82.5 Z"/></g>
<g><path style="opacity:1" fill="#5f99d2" d="M 57.5,105.5 C 55.3806,107.087 53.714,106.754 52.5,104.5C 52.8576,100.474 53.1909,96.4744 53.5,92.5C 54.5,92.5 55.5,92.5 56.5,92.5C 56.5,91.5 56.5,90.5 56.5,89.5C 54.8333,89.5 53.1667,89.5 51.5,89.5C 51.7394,87.5328 51.4061,85.6995 50.5,84C 51.8989,83.4054 53.2322,83.5721 54.5,84.5C 56.69,83.2524 57.0234,81.5857 55.5,79.5C 57.7427,78.5258 60.076,78.1924 62.5,78.5C 62.8076,80.924 62.4742,83.2573 61.5,85.5C 60.2638,84.7542 58.9305,84.4208 57.5,84.5C 57.4914,86.3084 57.9914,87.9751 59,89.5C 59.7096,88.0267 60.8762,87.3601 62.5,87.5C 61.6575,89.8706 61.3242,92.2039 61.5,94.5C 60.2638,93.7542 58.9305,93.4208 57.5,93.5C 58.8333,96.1667 58.8333,98.8333 57.5,101.5C 58.5,101.5 59.5,101.5 60.5,101.5C 60.2148,99.712 60.5481,98.0453 61.5,96.5C 61.8686,98.5548 62.0353,100.555 62,102.5C 60.7012,102.966 59.2012,102.966 57.5,102.5C 57.5,103.5 57.5,104.5 57.5,105.5 Z"/></g>
<g><path style="opacity:1" fill="#77beec" d="M 70.5,55.5 C 69.1716,56.9097 69.5049,58.0764 71.5,59C 69.4407,60.1855 69.274,61.3521 71,62.5C 71.9454,62.0946 72.6121,61.428 73,60.5C 75.1811,61.5744 77.3477,62.5744 79.5,63.5C 77.6551,65.0714 75.6551,65.9047 73.5,66C 74.3366,67.0113 74.67,68.1779 74.5,69.5C 73.5,69.5 72.5,69.5 71.5,69.5C 71.7852,67.712 71.4519,66.0453 70.5,64.5C 69.0626,67.0443 67.5626,67.0443 66,64.5C 65.5,65 65,65.5 64.5,66C 65.7468,67.4579 65.7468,68.9579 64.5,70.5C 65.6507,71.731 66.8173,71.731 68,70.5C 68.9246,71.0465 69.7579,71.7132 70.5,72.5C 68.6551,74.0714 66.6551,74.9047 64.5,75C 64.5,78 64.5,81 64.5,84C 66.4295,84.3501 68.4295,85.0168 70.5,86C 69.9535,86.9246 69.2868,87.7579 68.5,88.5C 67.109,87.3554 65.7757,87.3554 64.5,88.5C 65.7468,90.0421 65.7468,91.5421 64.5,93C 65,93.5 65.5,94 66,94.5C 67.4579,93.2532 68.9579,93.2532 70.5,94.5C 71.4519,92.9547 71.7852,91.288 71.5,89.5C 73.8211,89.7711 75.8211,89.1045 77.5,87.5C 78.9501,88.8498 79.6168,90.5165 79.5,92.5C 74.1778,90.4889 72.5111,92.1556 74.5,97.5C 74.5637,99.3893 74.0637,101.056 73,102.5C 71.9827,100.624 71.1494,98.6241 70.5,96.5C 68.4898,96.8256 66.4898,97.1589 64.5,97.5C 65.7468,99.0421 65.7468,100.542 64.5,102C 66.4295,102.35 68.4295,103.017 70.5,104C 69.6634,105.011 69.33,106.178 69.5,107.5C 71.924,107.808 74.2573,107.474 76.5,106.5C 75.7542,105.264 75.4208,103.93 75.5,102.5C 76.9305,102.421 78.2638,102.754 79.5,103.5C 80.3081,103.192 80.9747,102.692 81.5,102C 81.7253,99.2576 81.3919,96.4243 80.5,93.5C 81.5,93.5 82.5,93.5 83.5,93.5C 83.5,95.1667 83.5,96.8333 83.5,98.5C 85.4672,98.2606 87.3005,98.5939 89,99.5C 89.6924,98.9747 90.1924,98.3081 90.5,97.5C 89.7542,96.2638 89.4208,94.9305 89.5,93.5C 90.9305,93.4208 92.2638,93.7542 93.5,94.5C 93.3242,92.2039 93.6575,89.8706 94.5,87.5C 92.8762,87.3601 91.7096,88.0267 91,89.5C 90.1739,87.5946 89.0072,87.2612 87.5,88.5C 88.2458,89.7362 88.5792,91.0695 88.5,92.5C 84.5163,92.5277 83.5163,90.861 85.5,87.5C 84.1779,87.33 83.0113,87.6634 82,88.5C 81.0168,86.4295 80.3501,84.4295 80,82.5C 77.1106,82.8803 74.2773,83.2137 71.5,83.5C 71.5,80.8333 71.5,78.1667 71.5,75.5C 72.5,75.5 73.5,75.5 74.5,75.5C 74.5792,76.9305 74.2458,78.2638 73.5,79.5C 75.7427,80.4742 78.076,80.8076 80.5,80.5C 80.5,78.8333 80.5,77.1667 80.5,75.5C 81.5,75.5 82.5,75.5 83.5,75.5C 83.7771,78.4475 83.4438,81.2809 82.5,84C 83.7312,85.9675 84.7312,85.8008 85.5,83.5C 84.4775,81.1052 85.4775,80.1052 88.5,80.5C 88.67,81.8221 88.3366,82.9887 87.5,84C 88,84.5 88.5,85 89,85.5C 90.4579,84.2532 91.9579,84.2532 93.5,85.5C 94.4742,83.2573 94.8076,80.924 94.5,78.5C 92.8333,78.5 91.1667,78.5 89.5,78.5C 89.33,77.1779 89.6634,76.0113 90.5,75C 90,74.5 89.5,74 89,73.5C 86.3234,75.0662 84.9901,74.3995 85,71.5C 86.9742,71.3528 88.9742,71.0195 91,70.5C 92.0173,72.3759 92.8506,74.3759 93.5,76.5C 94.4742,74.2573 94.8076,71.924 94.5,69.5C 92.8333,69.5 91.1667,69.5 89.5,69.5C 89.5,68.5 89.5,67.5 89.5,66.5C 91.288,66.7852 92.9547,66.4519 94.5,65.5C 93.8333,64.8333 93.1667,64.1667 92.5,63.5C 95.4689,62.332 95.8022,60.9987 93.5,59.5C 92.5224,59.9767 91.6891,60.6433 91,61.5C 87.5259,60.0723 87.0259,60.5723 89.5,63C 87.6194,66.1691 85.6194,66.1691 83.5,63C 84.3081,62.6924 84.9747,62.1924 85.5,61.5C 84.3493,60.269 83.1827,60.269 82,61.5C 81.1667,60.6667 80.3333,59.8333 79.5,59C 80.9174,56.1738 82.4174,56.0072 84,58.5C 84.3333,58.1667 84.6667,57.8333 85,57.5C 84.8567,56.1351 84.3567,54.8018 83.5,53.5C 84.4916,53.6716 85.1583,53.3382 85.5,52.5C 86.1667,52.5 86.8333,52.5 87.5,52.5C 87.5,53.1667 87.8333,53.5 88.5,53.5C 87.3404,58.7005 88.3404,59.3672 91.5,55.5C 91.8373,58.3357 93.1707,59.0024 95.5,57.5C 95.8333,57.5 96.1667,57.5 96.5,57.5C 97.1667,57.5 97.5,57.8333 97.5,58.5C 97.5,58.8333 97.5,59.1667 97.5,59.5C 96.1667,60.5 96.1667,61.5 97.5,62.5C 97.0598,65.1089 96.7265,67.7756 96.5,70.5C 97.6507,71.731 98.8173,71.731 100,70.5C 100.925,71.0465 101.758,71.7132 102.5,72.5C 100.655,74.0714 98.6551,74.9047 96.5,75C 96.5,78 96.5,81 96.5,84C 98.4295,84.3501 100.429,85.0168 102.5,86C 101.929,87.2051 101.262,88.3717 100.5,89.5C 99.377,87.711 98.0436,87.3776 96.5,88.5C 97.7468,90.0421 97.7468,91.5421 96.5,93C 97,93.5 97.5,94 98,94.5C 99.0113,93.6634 100.178,93.33 101.5,93.5C 102.763,97.0661 101.597,98.0661 98,96.5C 97.5,97 97,97.5 96.5,98C 97.3366,99.0113 97.67,100.178 97.5,101.5C 96.5,101.5 95.5,101.5 94.5,101.5C 93.8333,94.8333 93.1667,94.8333 92.5,101.5C 91.1779,101.67 90.0113,101.337 89,100.5C 88.5,101 88,101.5 87.5,102C 88.3802,103.356 88.7135,104.856 88.5,106.5C 85.4781,105.612 82.4781,105.279 79.5,105.5C 78.3441,106.576 78.5108,107.576 80,108.5C 81.0113,107.663 82.1779,107.33 83.5,107.5C 83.5,108.5 83.5,109.5 83.5,110.5C 82.1779,110.67 81.0113,110.337 80,109.5C 78.2559,110.649 78.0892,111.983 79.5,113.5C 78.1667,116.167 76.8333,116.167 75.5,113.5C 76.5896,112.391 76.5896,111.391 75.5,110.5C 74.5481,112.045 74.2148,113.712 74.5,115.5C 73.5,115.5 72.5,115.5 71.5,115.5C 71.0929,108.951 70.0929,108.951 68.5,115.5C 67.914,115.291 67.414,114.957 67,114.5C 67.2342,111.599 66.9009,108.599 66,105.5C 65.5,106 65,106.5 64.5,107C 65.3366,108.011 65.67,109.178 65.5,110.5C 64.1667,110.5 62.8333,110.5 61.5,110.5C 61.4208,109.07 61.7542,107.736 62.5,106.5C 60.7855,106.405 59.1188,106.072 57.5,105.5C 57.5,104.5 57.5,103.5 57.5,102.5C 59.2012,102.966 60.7012,102.966 62,102.5C 62.0353,100.555 61.8686,98.5548 61.5,96.5C 60.5481,98.0453 60.2148,99.712 60.5,101.5C 59.5,101.5 58.5,101.5 57.5,101.5C 58.8333,98.8333 58.8333,96.1667 57.5,93.5C 58.9305,93.4208 60.2638,93.7542 61.5,94.5C 61.3242,92.2039 61.6575,89.8706 62.5,87.5C 60.8762,87.3601 59.7096,88.0267 59,89.5C 57.9914,87.9751 57.4914,86.3084 57.5,84.5C 58.9305,84.4208 60.2638,84.7542 61.5,85.5C 62.4742,83.2573 62.8076,80.924 62.5,78.5C 60.076,78.1924 57.7427,78.5258 55.5,79.5C 57.0234,81.5857 56.69,83.2524 54.5,84.5C 53.2322,83.5721 51.8989,83.4054 50.5,84C 51.4061,85.6995 51.7394,87.5328 51.5,89.5C 53.1667,89.5 54.8333,89.5 56.5,89.5C 56.5,90.5 56.5,91.5 56.5,92.5C 55.5,92.5 54.5,92.5 53.5,92.5C 52.0267,91.9285 50.36,91.9285 48.5,92.5C 48.7195,88.9558 48.7195,85.6224 48.5,82.5C 48.5,81.1667 48.5,79.8333 48.5,78.5C 46.8762,78.3601 45.7096,79.0267 45,80.5C 44.5357,79.9056 44.369,79.2389 44.5,78.5C 44.5,77.8333 44.5,77.1667 44.5,76.5C 44.369,75.7611 44.5357,75.0944 45,74.5C 46.8079,76.5582 48.9746,76.8916 51.5,75.5C 51.2148,77.288 51.5481,78.9547 52.5,80.5C 52.8333,80.1667 53.1667,79.8333 53.5,79.5C 53.3543,77.1943 53.021,74.861 52.5,72.5C 52.8333,71.5 53.5,70.8333 54.5,70.5C 56.0714,72.3449 56.9047,74.3449 57,76.5C 58.8886,75.9026 60.7219,75.5693 62.5,75.5C 59.9767,73.7445 59.9767,71.9112 62.5,70C 61.8834,68.1587 61.8834,66.1587 62.5,64C 62.3917,62.3189 61.7251,61.1522 60.5,60.5C 60.4241,57.643 60.7574,54.643 61.5,51.5C 64.5,51.5 67.5,51.5 70.5,51.5C 71.2916,52.6998 71.2916,54.0331 70.5,55.5 Z"/></g>
<g><path style="opacity:1" fill="#66a2d8" d="M 83.5,51.5 C 83.5,52.1667 83.5,52.8333 83.5,53.5C 84.3567,54.8018 84.8567,56.1351 85,57.5C 84.6667,57.8333 84.3333,58.1667 84,58.5C 82.4174,56.0072 80.9174,56.1738 79.5,59C 80.3333,59.8333 81.1667,60.6667 82,61.5C 83.1827,60.269 84.3493,60.269 85.5,61.5C 84.9747,62.1924 84.3081,62.6924 83.5,63C 85.6194,66.1691 87.6194,66.1691 89.5,63C 87.0259,60.5723 87.5259,60.0723 91,61.5C 91.6891,60.6433 92.5224,59.9767 93.5,59.5C 95.8022,60.9987 95.4689,62.332 92.5,63.5C 93.1667,64.1667 93.8333,64.8333 94.5,65.5C 92.9547,66.4519 91.288,66.7852 89.5,66.5C 89.5,67.5 89.5,68.5 89.5,69.5C 91.1667,69.5 92.8333,69.5 94.5,69.5C 94.8076,71.924 94.4742,74.2573 93.5,76.5C 92.8506,74.3759 92.0173,72.3759 91,70.5C 88.9742,71.0195 86.9742,71.3528 85,71.5C 84.9901,74.3995 86.3234,75.0662 89,73.5C 89.5,74 90,74.5 90.5,75C 89.6634,76.0113 89.33,77.1779 89.5,78.5C 91.1667,78.5 92.8333,78.5 94.5,78.5C 94.8076,80.924 94.4742,83.2573 93.5,85.5C 91.9579,84.2532 90.4579,84.2532 89,85.5C 88.5,85 88,84.5 87.5,84C 88.3366,82.9887 88.67,81.8221 88.5,80.5C 85.4775,80.1052 84.4775,81.1052 85.5,83.5C 84.7312,85.8008 83.7312,85.9675 82.5,84C 83.4438,81.2809 83.7771,78.4475 83.5,75.5C 82.5,75.5 81.5,75.5 80.5,75.5C 80.5,77.1667 80.5,78.8333 80.5,80.5C 78.076,80.8076 75.7427,80.4742 73.5,79.5C 74.2458,78.2638 74.5792,76.9305 74.5,75.5C 73.5,75.5 72.5,75.5 71.5,75.5C 71.5,78.1667 71.5,80.8333 71.5,83.5C 74.2773,83.2137 77.1106,82.8803 80,82.5C 80.3501,84.4295 81.0168,86.4295 82,88.5C 83.0113,87.6634 84.1779,87.33 85.5,87.5C 83.5163,90.861 84.5163,92.5277 88.5,92.5C 88.5792,91.0695 88.2458,89.7362 87.5,88.5C 89.0072,87.2612 90.1739,87.5946 91,89.5C 91.7096,88.0267 92.8762,87.3601 94.5,87.5C 93.6575,89.8706 93.3242,92.2039 93.5,94.5C 92.2638,93.7542 90.9305,93.4208 89.5,93.5C 89.4208,94.9305 89.7542,96.2638 90.5,97.5C 90.1924,98.3081 89.6924,98.9747 89,99.5C 87.3005,98.5939 85.4672,98.2606 83.5,98.5C 83.5,96.8333 83.5,95.1667 83.5,93.5C 82.5,93.5 81.5,93.5 80.5,93.5C 81.3919,96.4243 81.7253,99.2576 81.5,102C 80.9747,102.692 80.3081,103.192 79.5,103.5C 78.2638,102.754 76.9305,102.421 75.5,102.5C 75.4208,103.93 75.7542,105.264 76.5,106.5C 74.2573,107.474 71.924,107.808 69.5,107.5C 69.33,106.178 69.6634,105.011 70.5,104C 68.4295,103.017 66.4295,102.35 64.5,102C 65.7468,100.542 65.7468,99.0421 64.5,97.5C 66.4898,97.1589 68.4898,96.8256 70.5,96.5C 71.1494,98.6241 71.9827,100.624 73,102.5C 74.0637,101.056 74.5637,99.3893 74.5,97.5C 72.5111,92.1556 74.1778,90.4889 79.5,92.5C 79.6168,90.5165 78.9501,88.8498 77.5,87.5C 75.8211,89.1045 73.8211,89.7711 71.5,89.5C 71.7852,91.288 71.4519,92.9547 70.5,94.5C 68.9579,93.2532 67.4579,93.2532 66,94.5C 65.5,94 65,93.5 64.5,93C 65.7468,91.5421 65.7468,90.0421 64.5,88.5C 65.7757,87.3554 67.109,87.3554 68.5,88.5C 69.2868,87.7579 69.9535,86.9246 70.5,86C 68.4295,85.0168 66.4295,84.3501 64.5,84C 64.5,81 64.5,78 64.5,75C 66.6551,74.9047 68.6551,74.0714 70.5,72.5C 69.7579,71.7132 68.9246,71.0465 68,70.5C 66.8173,71.731 65.6507,71.731 64.5,70.5C 65.7468,68.9579 65.7468,67.4579 64.5,66C 65,65.5 65.5,65 66,64.5C 67.5626,67.0443 69.0626,67.0443 70.5,64.5C 71.4519,66.0453 71.7852,67.712 71.5,69.5C 72.5,69.5 73.5,69.5 74.5,69.5C 74.67,68.1779 74.3366,67.0113 73.5,66C 75.6551,65.9047 77.6551,65.0714 79.5,63.5C 77.3477,62.5744 75.1811,61.5744 73,60.5C 72.6121,61.428 71.9454,62.0946 71,62.5C 69.274,61.3521 69.4407,60.1855 71.5,59C 69.5049,58.0764 69.1716,56.9097 70.5,55.5C 72.5428,58.1937 74.2095,57.8604 75.5,54.5C 74.4104,53.3914 74.4104,52.3914 75.5,51.5C 78.0534,51.9452 80.72,51.9452 83.5,51.5 Z"/></g>
<g><path style="opacity:1" fill="#90c0e7" d="M 39.5,85.5 C 40.1667,85.5 40.8333,85.5 41.5,85.5C 42.8333,85.5 44.1667,85.5 45.5,85.5C 46.7794,94.8863 46.7794,104.553 45.5,114.5C 44.6618,114.158 44.3284,113.492 44.5,112.5C 44.5,111.167 43.8333,110.5 42.5,110.5C 43.1667,109.833 43.8333,109.167 44.5,108.5C 44.5,107.5 44.5,106.5 44.5,105.5C 44.5,104.833 44.5,104.167 44.5,103.5C 44.5,102.5 44.5,101.5 44.5,100.5C 44.5,100.167 44.5,99.8333 44.5,99.5C 44.7148,97.8212 44.0481,96.8212 42.5,96.5C 42.5,95.8333 42.5,95.1667 42.5,94.5C 44.0481,94.1788 44.7148,93.1788 44.5,91.5C 44.5,91.1667 44.5,90.8333 44.5,90.5C 44.5,89.5 44.5,88.5 44.5,87.5C 43.5,87.5 42.5,87.5 41.5,87.5C 41.1667,87.5 40.8333,87.5 40.5,87.5C 40.1667,86.8333 39.8333,86.1667 39.5,85.5 Z"/></g>
<g><path style="opacity:1" fill="#3a5fa8" d="M 41.5,87.5 C 42.5,87.5 43.5,87.5 44.5,87.5C 44.5,88.5 44.5,89.5 44.5,90.5C 42.5,90.5 41.5,89.5 41.5,87.5 Z"/></g>
<g><path style="opacity:1" fill="#c34b74" d="M 122.5,87.5 C 122.5,88.5 122.5,89.5 122.5,90.5C 121.5,90.5 120.5,90.5 119.5,90.5C 119.5,89.5 119.5,88.5 119.5,87.5C 120.5,87.5 121.5,87.5 122.5,87.5 Z"/></g>
<g><path style="opacity:1" fill="#5071b2" d="M 37.5,87.5 C 39.337,87.6395 39.6704,88.3061 38.5,89.5C 37.7025,89.0431 37.3691,88.3764 37.5,87.5 Z"/></g>
<g><path style="opacity:1" fill="#d64a71" d="M 124.5,87.5 C 126.337,87.6395 126.67,88.3061 125.5,89.5C 124.702,89.0431 124.369,88.3764 124.5,87.5 Z"/></g>
<g><path style="opacity:1" fill="#975389" d="M 114.5,87.5 C 114.833,87.5 115.167,87.5 115.5,87.5C 116.675,87.281 117.675,87.6143 118.5,88.5C 117.68,90.1112 116.346,90.7778 114.5,90.5C 114.5,89.5 114.5,88.5 114.5,87.5 Z"/></g>
<g><path style="opacity:1" fill="#3e62aa" d="M 44.5,91.5 C 44.7148,93.1788 44.0481,94.1788 42.5,94.5C 41.596,93.791 41.2627,92.791 41.5,91.5C 42.5,91.5 43.5,91.5 44.5,91.5 Z"/></g>
<g><path style="opacity:1" fill="#cad9ed" d="M 40.5,87.5 C 40.8333,87.5 41.1667,87.5 41.5,87.5C 41.5,89.5 42.5,90.5 44.5,90.5C 44.5,90.8333 44.5,91.1667 44.5,91.5C 43.5,91.5 42.5,91.5 41.5,91.5C 41.2627,92.791 41.596,93.791 42.5,94.5C 42.5,95.1667 42.5,95.8333 42.5,96.5C 41.375,97.3478 41.375,98.3478 42.5,99.5C 41.8826,99.6107 41.3826,99.944 41,100.5C 40.5045,98.5273 40.3379,96.5273 40.5,94.5C 39.5,94.5 38.5,94.5 37.5,94.5C 37.5,93.5 37.5,92.5 37.5,91.5C 38.5,91.5 39.5,91.5 40.5,91.5C 40.5,90.1667 40.5,88.8333 40.5,87.5 Z"/></g>
<g><path style="opacity:1" fill="#685193" d="M 111.5,91.5 C 113.048,91.8212 113.715,92.8212 113.5,94.5C 112.5,94.5 111.5,94.5 110.5,94.5C 110.557,93.391 110.89,92.391 111.5,91.5 Z"/></g>
<g><path style="opacity:1" fill="#ac4c7c" d="M 117.5,94.5 C 116.5,94.5 115.5,94.5 114.5,94.5C 115.754,90.69 116.754,90.69 117.5,94.5 Z"/></g>
<g><path style="opacity:1" fill="#3a5fa8" d="M 42.5,96.5 C 44.0481,96.8212 44.7148,97.8212 44.5,99.5C 43.8333,99.5 43.1667,99.5 42.5,99.5C 41.375,98.3478 41.375,97.3478 42.5,96.5 Z"/></g>
<g><path style="opacity:1" fill="#5574b4" d="M 37.5,96.5 C 39.337,96.6395 39.6704,97.3061 38.5,98.5C 37.7025,98.0431 37.3691,97.3764 37.5,96.5 Z"/></g>
<g><path style="opacity:1" fill="#835a95" d="M 110.5,96.5 C 111.5,96.5 112.5,96.5 113.5,96.5C 112.246,100.31 111.246,100.31 110.5,96.5 Z"/></g>
<g><path style="opacity:1" fill="#d85175" d="M 115.5,96.5 C 117.337,96.6395 117.67,97.3061 116.5,98.5C 115.702,98.0431 115.369,97.3764 115.5,96.5 Z"/></g>
<g><path style="opacity:1" fill="#416cb2" d="M 48.5,82.5 C 48.7195,85.6224 48.7195,88.9558 48.5,92.5C 50.36,91.9285 52.0267,91.9285 53.5,92.5C 53.1909,96.4744 52.8576,100.474 52.5,104.5C 53.714,106.754 55.3806,107.087 57.5,105.5C 59.1188,106.072 60.7855,106.405 62.5,106.5C 61.7542,107.736 61.4208,109.07 61.5,110.5C 62.8333,110.5 64.1667,110.5 65.5,110.5C 65.67,109.178 65.3366,108.011 64.5,107C 65,106.5 65.5,106 66,105.5C 66.9009,108.599 67.2342,111.599 67,114.5C 67.414,114.957 67.914,115.291 68.5,115.5C 70.0929,108.951 71.0929,108.951 71.5,115.5C 72.5,115.5 73.5,115.5 74.5,115.5C 74.2148,113.712 74.5481,112.045 75.5,110.5C 76.5896,111.391 76.5896,112.391 75.5,113.5C 76.8333,116.167 78.1667,116.167 79.5,113.5C 78.0892,111.983 78.2559,110.649 80,109.5C 81.0113,110.337 82.1779,110.67 83.5,110.5C 83.5,109.5 83.5,108.5 83.5,107.5C 82.1779,107.33 81.0113,107.663 80,108.5C 78.5108,107.576 78.3441,106.576 79.5,105.5C 82.4781,105.279 85.4781,105.612 88.5,106.5C 88.7135,104.856 88.3802,103.356 87.5,102C 88,101.5 88.5,101 89,100.5C 90.0113,101.337 91.1779,101.67 92.5,101.5C 93.1667,94.8333 93.8333,94.8333 94.5,101.5C 95.5,101.5 96.5,101.5 97.5,101.5C 97.67,100.178 97.3366,99.0113 96.5,98C 97,97.5 97.5,97 98,96.5C 101.597,98.0661 102.763,97.0661 101.5,93.5C 101.56,92.9569 101.893,92.6236 102.5,92.5C 106.166,98.1516 104.833,100.152 98.5,98.5C 98.4802,100.143 99.1468,101.476 100.5,102.5C 98.9991,104.957 97.3324,104.957 95.5,102.5C 95.08,104.353 94.7467,106.187 94.5,108C 92.8925,107.981 91.2259,107.815 89.5,107.5C 90.2751,109.612 90.2751,111.612 89.5,113.5C 89.1667,113.5 88.8333,113.5 88.5,113.5C 86.4531,113.194 84.2865,112.861 82,112.5C 81.5,112.833 81,113.167 80.5,113.5C 81.2458,114.736 81.5792,116.07 81.5,117.5C 79.8333,117.5 78.1667,117.5 76.5,117.5C 76.5,118.833 76.5,120.167 76.5,121.5C 74.2201,121.354 71.8868,121.687 69.5,122.5C 67.6575,122.46 65.6575,122.126 63.5,121.5C 61.0228,121.927 59.3561,122.594 58.5,123.5C 58.5,124.5 58.5,125.5 58.5,126.5C 57.5,126.5 56.5,126.5 55.5,126.5C 55.33,125.178 55.6634,124.011 56.5,123C 54.5273,122.505 52.5273,122.338 50.5,122.5C 50.2865,120.856 50.6198,119.356 51.5,118C 51,117.5 50.5,117 50,116.5C 48.5098,117.728 47.0098,117.728 45.5,116.5C 45.5,115.833 45.5,115.167 45.5,114.5C 46.7794,104.553 46.7794,94.8863 45.5,85.5C 45.5,83.5 46.5,82.5 48.5,82.5 Z"/></g>
<g><path style="opacity:1" fill="#77bfed" d="M 48.5,98.5 C 49.5,98.5 50.5,98.5 51.5,98.5C 51.5,99.5 51.5,100.5 51.5,101.5C 50.5,101.5 49.5,101.5 48.5,101.5C 48.5,100.5 48.5,99.5 48.5,98.5 Z"/></g>
<g><path style="opacity:1" fill="#77beec" d="M 49.5,93.5 C 51.0481,93.8212 51.7148,94.8212 51.5,96.5C 48.7524,96.5983 48.0857,95.5983 49.5,93.5 Z"/></g>
<g><path style="opacity:1" fill="#5170b1" d="M 44.5,100.5 C 44.5,101.5 44.5,102.5 44.5,103.5C 40.69,102.754 40.69,101.754 44.5,100.5 Z"/></g>
<g><path style="opacity:1" fill="#6581ba" d="M 37.5,101.5 C 39.337,101.639 39.6704,102.306 38.5,103.5C 37.7025,103.043 37.3691,102.376 37.5,101.5 Z"/></g>
<g><path style="opacity:1" fill="#77beec" d="M 89.5,102.5 C 90.5,102.5 91.5,102.5 92.5,102.5C 92.5,103.833 92.5,105.167 92.5,106.5C 91.5,106.5 90.5,106.5 89.5,106.5C 89.5,105.167 89.5,103.833 89.5,102.5 Z"/></g>
<g><path style="opacity:1" fill="#8b5a93" d="M 106.5,100.5 C 108.048,100.821 108.715,101.821 108.5,103.5C 105.752,103.598 105.086,102.598 106.5,100.5 Z"/></g>
<g><path style="opacity:1" fill="#dc6584" d="M 110.5,101.5 C 112.337,101.639 112.67,102.306 111.5,103.5C 110.702,103.043 110.369,102.376 110.5,101.5 Z"/></g>
<g><path style="opacity:1" fill="#506fb1" d="M 44.5,105.5 C 44.5,106.5 44.5,107.5 44.5,108.5C 43.5,108.5 42.5,108.5 41.5,108.5C 41.5,107.5 41.5,106.5 41.5,105.5C 42.5,105.5 43.5,105.5 44.5,105.5 Z"/></g>
<g><path style="opacity:1" fill="#5a76b5" d="M 101.5,105.5 C 103.337,105.639 103.67,106.306 102.5,107.5C 101.702,107.043 101.369,106.376 101.5,105.5 Z"/></g>
<g><path style="opacity:1" fill="#77beec" d="M 57.5,107.5 C 58.5,107.5 59.5,107.5 60.5,107.5C 60.5,108.5 60.5,109.5 60.5,110.5C 59.5,110.5 58.5,110.5 57.5,110.5C 57.5,109.5 57.5,108.5 57.5,107.5 Z"/></g>
<g><path style="opacity:1" fill="#75bceb" d="M 85.5,107.5 C 86.5,107.5 87.5,107.5 88.5,107.5C 88.5,108.5 88.5,109.5 88.5,110.5C 87.5,110.5 86.5,110.5 85.5,110.5C 85.5,109.5 85.5,108.5 85.5,107.5 Z"/></g>
<g><path style="opacity:1" fill="#4063aa" d="M 42.5,110.5 C 43.8333,110.5 44.5,111.167 44.5,112.5C 43.325,112.719 42.325,112.386 41.5,111.5C 41.6236,110.893 41.9569,110.56 42.5,110.5 Z"/></g>
<g><path style="opacity:1" fill="#74bae9" d="M 63.5,111.5 C 66.1402,112.794 66.1402,114.127 63.5,115.5C 62.3744,114.192 62.3744,112.858 63.5,111.5 Z"/></g>
<g><path style="opacity:1" fill="#4f6fb1" d="M 42.5,114.5 C 44.7602,115.238 44.9269,116.238 43,117.5C 41.2716,116.648 41.105,115.648 42.5,114.5 Z"/></g>
<g><path style="opacity:1" fill="#5977b5" d="M 87.5,114.5 C 90.2933,114.74 90.7933,115.74 89,117.5C 87.9614,116.756 87.4614,115.756 87.5,114.5 Z"/></g>
<g><path style="opacity:1" fill="#88aeda" d="M 88.5,113.5 C 87.8333,113.5 87.5,113.833 87.5,114.5C 85.0242,117.557 81.6908,118.89 77.5,118.5C 77.7373,119.791 77.404,120.791 76.5,121.5C 76.5,120.167 76.5,118.833 76.5,117.5C 78.1667,117.5 79.8333,117.5 81.5,117.5C 81.5792,116.07 81.2458,114.736 80.5,113.5C 81,113.167 81.5,112.833 82,112.5C 84.2865,112.861 86.4531,113.194 88.5,113.5 Z"/></g>
<g><path style="opacity:1" fill="#345ba6" d="M 46.5,119.5 C 47.8333,119.5 48.5,120.167 48.5,121.5C 48.5,120.167 47.8333,119.5 46.5,119.5 Z"/></g>
<g><path style="opacity:1" fill="#3d61a9" d="M 78.5,119.5 C 80.337,119.639 80.6704,120.306 79.5,121.5C 78.7025,121.043 78.3691,120.376 78.5,119.5 Z"/></g>
<g><path style="opacity:1" fill="#637eb9" d="M 42.5,119.5 C 44.337,119.639 44.6704,120.306 43.5,121.5C 42.7025,121.043 42.3691,120.376 42.5,119.5 Z"/></g>
<g><path style="opacity:1" fill="#5d7bb7" d="M 83.5,119.5 C 85.337,119.639 85.6704,120.306 84.5,121.5C 83.7025,121.043 83.3691,120.376 83.5,119.5 Z"/></g>
<g><path style="opacity:1" fill="#9fc5e8" d="M 69.5,122.5 C 69.5,122.833 69.5,123.167 69.5,123.5C 68.8333,123.5 68.1667,123.5 67.5,123.5C 66.5,123.5 65.5,123.5 64.5,123.5C 64.5,124.5 64.5,125.5 64.5,126.5C 63.8333,127.167 63.1667,127.833 62.5,128.5C 61.8333,128.5 61.1667,128.5 60.5,128.5C 60.5,127.833 60.5,127.167 60.5,126.5C 63.6741,126.048 64.0075,125.048 61.5,123.5C 60.8165,123.863 60.1499,124.196 59.5,124.5C 59.5,123.833 59.1667,123.5 58.5,123.5C 59.3561,122.594 61.0228,121.927 63.5,121.5C 65.6575,122.126 67.6575,122.46 69.5,122.5 Z"/></g>
<g><path style="opacity:1" fill="#b3cde8" d="M 45.5,116.5 C 47.0098,117.728 48.5098,117.728 50,116.5C 50.5,117 51,117.5 51.5,118C 50.6198,119.356 50.2865,120.856 50.5,122.5C 52.5273,122.338 54.5273,122.505 56.5,123C 55.6634,124.011 55.33,125.178 55.5,126.5C 54.8333,127.833 54.1667,127.833 53.5,126.5C 53.5983,123.752 52.5983,123.086 50.5,124.5C 50.0679,123.29 49.4013,122.29 48.5,121.5C 48.5,120.167 47.8333,119.5 46.5,119.5C 46.0825,118.778 45.4158,118.278 44.5,118C 45.056,117.617 45.3893,117.117 45.5,116.5 Z"/></g>
<g><path style="opacity:1" fill="#4165ab" d="M 53.5,126.5 C 51.9731,126.573 50.9731,125.906 50.5,124.5C 52.5983,123.086 53.5983,123.752 53.5,126.5 Z"/></g>
<g><path style="opacity:1" fill="#3b60a9" d="M 60.5,126.5 C 60.1667,125.833 59.8333,125.167 59.5,124.5C 60.1499,124.196 60.8165,123.863 61.5,123.5C 64.0075,125.048 63.6741,126.048 60.5,126.5 Z"/></g>
<g><path style="opacity:1" fill="#3d62a9" d="M 67.5,123.5 C 67.5,124.5 67.5,125.5 67.5,126.5C 66.5,126.5 65.5,126.5 64.5,126.5C 64.5,125.5 64.5,124.5 64.5,123.5C 65.5,123.5 66.5,123.5 67.5,123.5 Z"/></g>
<g><path style="opacity:1" fill="#5a76b5" d="M 46.5,123.5 C 48.4646,123.948 48.7979,124.948 47.5,126.5C 46.6143,125.675 46.281,124.675 46.5,123.5 Z"/></g>
<g><path style="opacity:1" fill="#5573b3" d="M 69.5,123.5 C 71.4646,123.948 71.7979,124.948 70.5,126.5C 69.6143,125.675 69.281,124.675 69.5,123.5 Z"/></g>
<g><path style="opacity:1" fill="#6380ba" d="M 51.5,128.5 C 53.337,128.639 53.6704,129.306 52.5,130.5C 51.7025,130.043 51.3691,129.376 51.5,128.5 Z"/></g>
<g><path style="opacity:1" fill="#5573b3" d="M 55.5,128.5 C 56.675,128.281 57.675,128.614 58.5,129.5C 56.9483,130.798 55.9483,130.465 55.5,128.5 Z"/></g>
<g><path style="opacity:1" fill="#345ba6" d="M 60.5,128.5 C 61.1667,128.5 61.8333,128.5 62.5,128.5C 61.8333,131.167 61.1667,131.167 60.5,128.5 Z"/></g>
<g><path style="opacity:1" fill="#899bc9" d="M 65.5,128.5 C 67.337,128.639 67.6704,129.306 66.5,130.5C 65.7025,130.043 65.3691,129.376 65.5,128.5 Z"/></g>
</svg>
