<?xml version="1.0" encoding="UTF-8"?>
<!DOCTYPE svg PUBLIC "-//W3C//DTD SVG 1.1//EN" "http://www.w3.org/Graphics/SVG/1.1/DTD/svg11.dtd">
<svg xmlns="http://www.w3.org/2000/svg" version="1.1" width="160px" height="160px" style="shape-rendering:geometricPrecision; text-rendering:geometricPrecision; image-rendering:optimizeQuality; fill-rule:evenodd; clip-rule:evenodd" xmlns:xlink="http://www.w3.org/1999/xlink">
<g><path style="opacity:1" fill="#f5f4f5" d="M -0.5,-0.5 C 52.8333,-0.5 106.167,-0.5 159.5,-0.5C 159.5,52.8333 159.5,106.167 159.5,159.5C 106.167,159.5 52.8333,159.5 -0.5,159.5C -0.5,106.167 -0.5,52.8333 -0.5,-0.5 Z"/></g>
<g><path style="opacity:1" fill="#fe2b21" d="M 51.5,59.5 C 53.604,59.2011 55.604,59.5344 57.5,60.5C 55.5472,64.1203 52.8805,67.1203 49.5,69.5C 49.1667,69 48.8333,68.5 48.5,68C 49.4088,65.1054 50.4088,62.2721 51.5,59.5 Z"/></g>
<g><path style="opacity:1" fill="#fe2a21" d="M 129.5,59.5 C 131.604,59.2011 133.604,59.5344 135.5,60.5C 126.746,72.7486 124.746,72.4152 129.5,59.5 Z"/></g>
<g><path style="opacity:1" fill="#ff140c" d="M 27.5,66.5 C 44.4493,63.6074 50.6159,70.2741 46,86.5C 39.3771,95.7762 30.8771,97.9429 20.5,93C 16.2479,87.7573 15.4146,81.9239 18,75.5C 20.4057,71.5915 23.5724,68.5915 27.5,66.5 Z"/></g>
<g><path style="opacity:1" fill="#fb7d7c" d="M 133.5,67.5 C 136.687,66.1944 140.02,66.1944 143.5,67.5C 143.376,68.1067 143.043,68.44 142.5,68.5C 139.713,67.5233 136.713,67.19 133.5,67.5 Z"/></g>
<g><path style="opacity:1" fill="#ff1c12" d="M 56.5,66.5 C 59.5,66.5 62.5,66.5 65.5,66.5C 64.7689,70.2071 64.2689,73.8738 64,77.5C 67.5,74 71,70.5 74.5,67C 77.8333,66.3333 81.1667,66.3333 84.5,67C 80.2443,70.7489 76.5776,74.9156 73.5,79.5C 75.3858,84.716 77.7191,89.716 80.5,94.5C 76.5,95.8333 72.5,95.8333 68.5,94.5C 66.9239,90.3499 65.0905,86.3499 63,82.5C 62.1194,86.5037 61.286,90.5037 60.5,94.5C 57.2317,95.487 53.8984,95.8204 50.5,95.5C 52.1812,85.7394 54.1812,76.0727 56.5,66.5 Z"/></g>
<g><path style="opacity:1" fill="#ff170e" d="M 93.5,85.5 C 92.596,86.209 92.2627,87.209 92.5,88.5C 96.8333,88.5 101.167,88.5 105.5,88.5C 105.795,90.7354 105.461,92.7354 104.5,94.5C 96.9809,94.825 89.6476,94.4916 82.5,93.5C 83.6737,84.7917 85.1737,76.125 87,67.5C 94.4129,66.5192 101.913,66.1858 109.5,66.5C 109.5,68.8333 109.5,71.1667 109.5,73.5C 104.786,73.1734 100.12,73.5067 95.5,74.5C 95.1667,75.1667 94.8333,75.8333 94.5,76.5C 98.8333,77.1667 103.167,77.8333 107.5,78.5C 106.691,80.0709 106.357,81.7376 106.5,83.5C 101.706,82.9031 97.3727,83.5698 93.5,85.5 Z"/></g>
<g><path style="opacity:1" fill="#ff1910" d="M 133.5,67.5 C 136.713,67.19 139.713,67.5233 142.5,68.5C 141.232,77.2063 139.732,85.873 138,94.5C 134.943,95.4505 131.777,95.7839 128.5,95.5C 129.336,91.1589 129.836,86.8256 130,82.5C 125.798,86.3666 121.965,90.5332 118.5,95C 115.446,95.8214 112.446,95.6548 109.5,94.5C 111.167,85.1656 112.834,75.8322 114.5,66.5C 117.5,66.5 120.5,66.5 123.5,66.5C 122.823,71.5199 122.323,76.5199 122,81.5C 126.046,76.9596 129.879,72.2929 133.5,67.5 Z"/></g>
<g><path style="opacity:1" fill="#f6f0f0" d="M 31.5,72.5 C 35.4505,72.2846 37.7839,74.1179 38.5,78C 38.0463,85.8196 34.2129,88.9862 27,87.5C 25.3787,81.4752 26.8787,76.4752 31.5,72.5 Z"/></g>
<g><path style="opacity:1" fill="#f8bebe" d="M 93.5,85.5 C 97.2325,87.1307 101.232,88.1307 105.5,88.5C 101.167,88.5 96.8333,88.5 92.5,88.5C 92.2627,87.209 92.596,86.209 93.5,85.5 Z"/></g>
<g><path style="opacity:1" fill="#fc4d4c" d="M 82.5,93.5 C 89.6476,94.4916 96.9809,94.825 104.5,94.5C 96.9902,95.8199 89.3235,95.8199 81.5,94.5C 81.6236,93.8933 81.9569,93.56 82.5,93.5 Z"/></g>
</svg>
