<?xml version="1.0" encoding="UTF-8"?>
<!DOCTYPE svg PUBLIC "-//W3C//DTD SVG 1.1//EN" "http://www.w3.org/Graphics/SVG/1.1/DTD/svg11.dtd">
<svg xmlns="http://www.w3.org/2000/svg" version="1.1" width="160px" height="160px" style="shape-rendering:geometricPrecision; text-rendering:geometricPrecision; image-rendering:optimizeQuality; fill-rule:evenodd; clip-rule:evenodd" xmlns:xlink="http://www.w3.org/1999/xlink">
<g><path style="opacity:1" fill="#fc4c02" d="M -0.5,-0.5 C 52.8333,-0.5 106.167,-0.5 159.5,-0.5C 159.5,52.8333 159.5,106.167 159.5,159.5C 106.167,159.5 52.8333,159.5 -0.5,159.5C -0.5,106.167 -0.5,52.8333 -0.5,-0.5 Z"/></g>
<g><path style="opacity:1" fill="#fffaf8" d="M 28.5,63.5 C 39.1667,63.5 49.8333,63.5 60.5,63.5C 60.5,74.1667 60.5,84.8333 60.5,95.5C 57.8333,95.5 55.1667,95.5 52.5,95.5C 52.5,87.5 52.5,79.5 52.5,71.5C 47.1667,71.5 41.8333,71.5 36.5,71.5C 36.5,79.5 36.5,87.5 36.5,95.5C 33.8333,95.5 31.1667,95.5 28.5,95.5C 28.5,84.8333 28.5,74.1667 28.5,63.5 Z"/></g>
<g><path style="opacity:1" fill="#fffaf8" d="M 73.5,63.5 C 73.1707,69.5368 73.5041,75.5368 74.5,81.5C 75.1067,81.3764 75.44,81.0431 75.5,80.5C 79.9562,74.8726 84.6229,69.3726 89.5,64C 92.4816,63.502 95.4816,63.3354 98.5,63.5C 98.5,74.1667 98.5,84.8333 98.5,95.5C 95.8333,95.5 93.1667,95.5 90.5,95.5C 90.8293,89.4632 90.4959,83.4632 89.5,77.5C 88.8933,77.6236 88.56,77.9569 88.5,78.5C 84.0438,84.1274 79.3771,89.6274 74.5,95C 71.854,95.4974 69.1873,95.6641 66.5,95.5C 66.5,84.8333 66.5,74.1667 66.5,63.5C 68.8333,63.5 71.1667,63.5 73.5,63.5 Z"/></g>
<g><path style="opacity:1" fill="#feb99e" d="M 73.5,63.5 C 74.1667,69.1667 74.8333,74.8333 75.5,80.5C 75.44,81.0431 75.1067,81.3764 74.5,81.5C 73.5041,75.5368 73.1707,69.5368 73.5,63.5 Z"/></g>
<g><path style="opacity:1" fill="#fff9f6" d="M 103.5,63.5 C 106.167,63.5 108.833,63.5 111.5,63.5C 111.334,67.8461 111.501,72.1794 112,76.5C 115.5,72.3333 119,68.1667 122.5,64C 125.833,63.3333 129.167,63.3333 132.5,64C 127.894,68.7638 123.894,73.9304 120.5,79.5C 123.894,85.0696 127.894,90.2362 132.5,95C 129.167,95.6667 125.833,95.6667 122.5,95C 119,90.8333 115.5,86.6667 112,82.5C 111.501,86.8206 111.334,91.1539 111.5,95.5C 108.833,95.5 106.167,95.5 103.5,95.5C 103.5,84.8333 103.5,74.1667 103.5,63.5 Z"/></g>
<g><path style="opacity:1" fill="#fd8352" d="M 88.5,78.5 C 88.56,77.9569 88.8933,77.6236 89.5,77.5C 90.4959,83.4632 90.8293,89.4632 90.5,95.5C 89.8333,89.8333 89.1667,84.1667 88.5,78.5 Z"/></g>
</svg>
