<?xml version="1.0" encoding="UTF-8"?>
<!DOCTYPE svg PUBLIC "-//W3C//DTD SVG 1.1//EN" "http://www.w3.org/Graphics/SVG/1.1/DTD/svg11.dtd">
<svg xmlns="http://www.w3.org/2000/svg" version="1.1" width="160px" height="160px" style="shape-rendering:geometricPrecision; text-rendering:geometricPrecision; image-rendering:optimizeQuality; fill-rule:evenodd; clip-rule:evenodd" xmlns:xlink="http://www.w3.org/1999/xlink">
<g><path style="opacity:1" fill="#fefefe" d="M -0.5,-0.5 C 52.8333,-0.5 106.167,-0.5 159.5,-0.5C 159.5,52.8333 159.5,106.167 159.5,159.5C 106.167,159.5 52.8333,159.5 -0.5,159.5C -0.5,106.167 -0.5,52.8333 -0.5,-0.5 Z"/></g>
<g><path style="opacity:1" fill="#fdb922" d="M 66.5,32.5 C 73.5,32.5 80.5,32.5 87.5,32.5C 85.7771,44.5048 83.9438,56.5048 82,68.5C 81.4387,69.0219 80.772,69.3552 80,69.5C 73.5682,67.0241 67.2349,64.3574 61,61.5C 60.9032,52.7379 61.9032,44.0712 64,35.5C 65.045,34.6266 65.8783,33.6266 66.5,32.5 Z"/></g>
<g><path style="opacity:1" fill="#fdb924" d="M 112.5,51.5 C 115.685,51.0196 118.519,51.6863 121,53.5C 124.081,59.9098 126.248,66.5765 127.5,73.5C 115.137,74.9204 102.804,76.5871 90.5,78.5C 90.3143,71.1193 90.8143,63.7859 92,56.5C 93.4907,54.9963 95.324,54.1629 97.5,54C 102.681,53.3998 107.681,52.5665 112.5,51.5 Z"/></g>
<g><path style="opacity:1" fill="#fdb821" d="M 36.5,58.5 C 48.1078,63.3025 59.1078,69.1358 69.5,76C 65.7486,81.4948 61.7486,86.8281 57.5,92C 55.5,92.6667 53.5,92.6667 51.5,92C 45.0796,88.3728 38.5796,84.8728 32,81.5C 32.0677,73.5608 33.5677,65.8942 36.5,58.5 Z"/></g>
<g><path style="opacity:1" fill="#fdb821" d="M 101.5,84.5 C 104.97,83.8748 107.804,84.8748 110,87.5C 113.584,94.1658 116.75,100.999 119.5,108C 119.561,109.711 118.894,111.044 117.5,112C 112.358,115.642 107.358,119.475 102.5,123.5C 96.6834,112.698 91.0167,101.865 85.5,91C 85.6448,90.228 85.9781,89.5613 86.5,89C 91.8431,88.253 96.8431,86.753 101.5,84.5 Z"/></g>
<g><path style="opacity:1" fill="#fdb81f" d="M 71.5,88.5 C 72.4959,88.4142 73.3292,88.7476 74,89.5C 77.6324,95.2667 81.1324,101.1 84.5,107C 78.6317,114.369 71.965,120.869 64.5,126.5C 57.5752,123.548 51.5752,119.381 46.5,114C 54.914,105.751 63.2473,97.251 71.5,88.5 Z"/></g>
</svg>
