<?xml version="1.0" encoding="UTF-8"?>
<!DOCTYPE svg PUBLIC "-//W3C//DTD SVG 1.1//EN" "http://www.w3.org/Graphics/SVG/1.1/DTD/svg11.dtd">
<svg xmlns="http://www.w3.org/2000/svg" version="1.1" width="160px" height="160px" style="shape-rendering:geometricPrecision; text-rendering:geometricPrecision; image-rendering:optimizeQuality; fill-rule:evenodd; clip-rule:evenodd" xmlns:xlink="http://www.w3.org/1999/xlink">
<g><path style="opacity:1" fill="#114f94" d="M -0.5,-0.5 C 52.8333,-0.5 106.167,-0.5 159.5,-0.5C 159.5,52.8333 159.5,106.167 159.5,159.5C 106.167,159.5 52.8333,159.5 -0.5,159.5C -0.5,106.167 -0.5,52.8333 -0.5,-0.5 Z"/></g>
<g><path style="opacity:1" fill="#ddb232" d="M 77.5,29.5 C 84.3407,30.0158 86.0074,33.1825 82.5,39C 76.5069,40.6683 74.0069,38.5017 75,32.5C 75.6979,31.3094 76.5313,30.3094 77.5,29.5 Z"/></g>
<g><path style="opacity:1" fill="#dcb132" d="M 54.5,35.5 C 61.5244,35.4885 63.5244,38.4885 60.5,44.5C 52.4148,45.8601 50.4148,42.8601 54.5,35.5 Z"/></g>
<g><path style="opacity:1" fill="#ddb232" d="M 99.5,35.5 C 106.628,35.7063 108.294,38.873 104.5,45C 96.4079,45.0901 94.7412,41.9235 99.5,35.5 Z"/></g>
<g><path style="opacity:1" fill="#e0b32f" d="M 66.5,39.5 C 71.9933,38.178 74.4933,40.178 74,45.5C 72.1917,47.3959 70.025,47.8959 67.5,47C 65.2854,44.7585 64.9521,42.2585 66.5,39.5 Z"/></g>
<g><path style="opacity:1" fill="#dfb330" d="M 86.5,39.5 C 93.536,38.6026 95.2027,41.1026 91.5,47C 84.745,47.7558 83.0783,45.2558 86.5,39.5 Z"/></g>
<g><path style="opacity:1" fill="#d2ac39" d="M 77.5,44.5 C 83.4877,44.664 84.821,47.164 81.5,52C 75.4034,52.1475 74.0701,49.6475 77.5,44.5 Z"/></g>
<g><path style="opacity:1" fill="#d9b034" d="M 50.5,48.5 C 57.4863,48.331 59.153,51.1643 55.5,57C 48.4159,57.475 46.7492,54.6417 50.5,48.5 Z"/></g>
<g><path style="opacity:1" fill="#ddb232" d="M 62.5,48.5 C 67.6677,49.3385 68.6677,51.8385 65.5,56C 60.9167,56.9337 59.4167,55.1004 61,50.5C 61.7172,49.9558 62.2172,49.2891 62.5,48.5 Z"/></g>
<g><path style="opacity:1" fill="#e1b42f" d="M 93.5,48.5 C 96.3523,48.3524 98.019,49.6857 98.5,52.5C 96.1667,57.8333 93.8333,57.8333 91.5,52.5C 91.7517,50.9271 92.4183,49.5938 93.5,48.5 Z"/></g>
<g><path style="opacity:1" fill="#d9b034" d="M 103.5,48.5 C 110.486,48.331 112.153,51.1643 108.5,57C 101.416,57.475 99.7492,54.6417 103.5,48.5 Z"/></g>
<g><path style="opacity:1" fill="#ddb231" d="M 37.5,52.5 C 45.8773,52.2743 47.544,55.441 42.5,62C 35.4741,61.7595 33.8074,58.5928 37.5,52.5 Z"/></g>
<g><path style="opacity:1" fill="#d4ad38" d="M 70.5,52.5 C 75.6673,51.4919 77.334,53.3252 75.5,58C 73.8659,58.4935 72.1992,58.6602 70.5,58.5C 70.5,56.5 70.5,54.5 70.5,52.5 Z"/></g>
<g><path style="opacity:1" fill="#d1ac3a" d="M 83.5,52.5 C 85.288,52.2148 86.9547,52.5481 88.5,53.5C 89.3853,57.4427 87.7186,58.9427 83.5,58C 82.2475,56.1722 82.2475,54.3388 83.5,52.5 Z"/></g>
<g><path style="opacity:1" fill="#deb231" d="M 115.5,52.5 C 123.877,52.2743 125.544,55.441 120.5,62C 113.474,61.7595 111.807,58.5928 115.5,52.5 Z"/></g>
<g><path style="opacity:1" fill="#c8a740" d="M 60.5,58.5 C 65.4928,58.997 66.4928,61.1637 63.5,65C 58.3947,64.7511 57.3947,62.5844 60.5,58.5 Z"/></g>
<g><path style="opacity:1" fill="#dcb132" d="M 95.5,58.5 C 99.485,58.6294 100.818,60.4628 99.5,64C 97.8659,64.4935 96.1992,64.6602 94.5,64.5C 94.3253,62.3792 94.6586,60.3792 95.5,58.5 Z"/></g>
<g><path style="opacity:1" fill="#d9b034" d="M 49.5,60.5 C 56.1904,59.3306 57.8571,61.4973 54.5,67C 49.2791,67.6099 47.6124,65.4432 49.5,60.5 Z"/></g>
<g><path style="opacity:1" fill="#d7af36" d="M 103.5,60.5 C 110.19,59.3306 111.857,61.4973 108.5,67C 103.262,67.5941 101.595,65.4274 103.5,60.5 Z"/></g>
<g><path style="opacity:1" fill="#deb231" d="M 40.5,65.5 C 44.2399,64.6799 46.5733,66.0132 47.5,69.5C 46.6429,74.6712 44.1429,75.6712 40,72.5C 39.2967,70.0709 39.4634,67.7375 40.5,65.5 Z"/></g>
<g><path style="opacity:1" fill="#dfb330" d="M 112.5,65.5 C 116.24,64.6799 118.573,66.0132 119.5,69.5C 118.643,74.6712 116.143,75.6712 112,72.5C 111.297,70.0709 111.463,67.7375 112.5,65.5 Z"/></g>
<g><path style="opacity:1" fill="#d3ad39" d="M 54.5,69.5 C 58.2635,70.385 59.2635,72.5516 57.5,76C 54.4333,77.1642 52.7666,76.1642 52.5,73C 52.8618,71.5657 53.5285,70.3991 54.5,69.5 Z"/></g>
<g><path style="opacity:1" fill="#d0ab3b" d="M 102.5,69.5 C 106.473,70.0755 107.473,72.2421 105.5,76C 100.148,76.1754 99.1483,74.0087 102.5,69.5 Z"/></g>
<g><path style="opacity:1" fill="#deb231" d="M 31.5,74.5 C 39.4902,74.0859 41.4902,77.2525 37.5,84C 29.8046,84.4434 27.8046,81.2767 31.5,74.5 Z"/></g>
<g><path style="opacity:1" fill="#deb330" d="M 121.5,74.5 C 129.284,73.9256 131.284,76.9256 127.5,83.5C 119.415,84.8601 117.415,81.8601 121.5,74.5 Z"/></g>
<g><path style="opacity:1" fill="#d1ac39" d="M 46.5,75.5 C 52.4877,75.664 53.821,78.164 50.5,83C 44.4034,83.1475 43.0701,80.6475 46.5,75.5 Z"/></g>
<g><path style="opacity:1" fill="#d3ad38" d="M 108.5,75.5 C 114.488,75.664 115.821,78.164 112.5,83C 108.945,84.1225 106.945,82.7892 106.5,79C 106.978,77.6974 107.645,76.5307 108.5,75.5 Z"/></g>
<g><path style="opacity:1" fill="#d6ae37" d="M 53.5,82.5 C 57.9083,82.062 59.5749,84.062 58.5,88.5C 56.5,88.5 54.5,88.5 52.5,88.5C 52.3253,86.3792 52.6586,84.3792 53.5,82.5 Z"/></g>
<g><path style="opacity:1" fill="#d4ad39" d="M 101.5,82.5 C 105.677,81.8416 107.177,83.5082 106,87.5C 103.442,90.1497 101.608,89.6497 100.5,86C 100.648,84.7441 100.982,83.5774 101.5,82.5 Z"/></g>
<g><path style="opacity:1" fill="#dfb331" d="M 41.5,84.5 C 47.6426,85.0262 48.9759,87.8595 45.5,93C 39.9202,94.261 38.0868,92.0943 40,86.5C 40.7172,85.9558 41.2172,85.2891 41.5,84.5 Z"/></g>
<g><path style="opacity:1" fill="#e2b42e" d="M 113.5,84.5 C 119.643,85.0262 120.976,87.8595 117.5,93C 112.504,93.6643 110.67,91.4977 112,86.5C 112.717,85.9558 113.217,85.2891 113.5,84.5 Z"/></g>
<g><path style="opacity:1" fill="#dcb133" d="M 49.5,91.5 C 51.5914,91.3184 53.5914,91.6518 55.5,92.5C 56.8832,96.9539 55.2166,98.7873 50.5,98C 48.3162,96.1024 47.9829,93.9358 49.5,91.5 Z"/></g>
<g><path style="opacity:1" fill="#ddb232" d="M 104.5,91.5 C 110.155,91.3245 111.488,93.4912 108.5,98C 102.686,98.3736 101.353,96.207 104.5,91.5 Z"/></g>
<g><path style="opacity:1" fill="#cba93d" d="M 60.5,93.5 C 65.4928,93.997 66.4928,96.1637 63.5,100C 58.3823,99.8242 57.3823,97.6576 60.5,93.5 Z"/></g>
<g><path style="opacity:1" fill="#cba93d" d="M 95.5,93.5 C 100.493,93.997 101.493,96.1637 98.5,100C 93.3823,99.8242 92.3823,97.6576 95.5,93.5 Z"/></g>
<g><path style="opacity:1" fill="#deb231" d="M 38.5,96.5 C 45.2973,97.1073 46.9639,100.274 43.5,106C 35.0304,106.531 33.3638,103.364 38.5,96.5 Z"/></g>
<g><path style="opacity:1" fill="#deb231" d="M 116.5,96.5 C 123.297,97.1073 124.964,100.274 121.5,106C 113.03,106.531 111.364,103.364 116.5,96.5 Z"/></g>
<g><path style="opacity:1" fill="#d0ab3c" d="M 70.5,100.5 C 75.1225,99.4082 76.9558,101.075 76,105.5C 70.8279,107.315 68.9945,105.648 70.5,100.5 Z"/></g>
<g><path style="opacity:1" fill="#ceaa3d" d="M 83.5,100.5 C 87.945,99.8735 89.6117,101.54 88.5,105.5C 83.1345,107.468 81.4678,105.801 83.5,100.5 Z"/></g>
<g><path style="opacity:1" fill="#d7af35" d="M 50.5,101.5 C 57.4863,101.331 59.153,104.164 55.5,110C 48.4159,110.475 46.7492,107.642 50.5,101.5 Z"/></g>
<g><path style="opacity:1" fill="#d8b035" d="M 103.5,101.5 C 109.487,100.977 111.487,103.477 109.5,109C 101.839,111.168 99.8394,108.668 103.5,101.5 Z"/></g>
<g><path style="opacity:1" fill="#dbb133" d="M 61.5,102.5 C 67.4877,102.664 68.821,105.164 65.5,110C 60.6325,109.711 59.2991,107.211 61.5,102.5 Z"/></g>
<g><path style="opacity:1" fill="#dbb133" d="M 93.5,102.5 C 98.0685,102.083 99.5685,104.083 98,108.5C 94.828,111.388 92.6614,110.722 91.5,106.5C 91.7517,104.927 92.4183,103.594 93.5,102.5 Z"/></g>
<g><path style="opacity:1" fill="#d3ad37" d="M 77.5,106.5 C 83.4877,106.664 84.821,109.164 81.5,114C 75.4034,114.147 74.0701,111.647 77.5,106.5 Z"/></g>
<g><path style="opacity:1" fill="#e0b330" d="M 66.5,111.5 C 71.9933,110.178 74.4933,112.178 74,117.5C 71.7815,119.619 69.2815,119.952 66.5,118.5C 65.1783,116.135 65.1783,113.802 66.5,111.5 Z"/></g>
<g><path style="opacity:1" fill="#dfb330" d="M 86.5,111.5 C 92.487,110.977 94.487,113.477 92.5,119C 85.2545,120.274 83.2545,117.774 86.5,111.5 Z"/></g>
<g><path style="opacity:1" fill="#deb231" d="M 54.5,113.5 C 60.168,112.671 62.668,115.005 62,120.5C 59.2935,123.978 56.2935,124.311 53,121.5C 52.1093,118.502 52.6093,115.836 54.5,113.5 Z"/></g>
<g><path style="opacity:1" fill="#ddb232" d="M 99.5,113.5 C 103.565,112.578 105.898,114.078 106.5,118C 106.414,122.749 104.08,124.415 99.5,123C 95.5993,119.792 95.5993,116.626 99.5,113.5 Z"/></g>
<g><path style="opacity:1" fill="#deb331" d="M 76.5,119.5 C 84.2193,118.87 86.2193,121.87 82.5,128.5C 77.9292,130.381 75.2626,128.881 74.5,124C 74.5186,122.167 75.1852,120.667 76.5,119.5 Z"/></g>
</svg>
