<?xml version="1.0" encoding="UTF-8"?>
<!DOCTYPE svg PUBLIC "-//W3C//DTD SVG 1.1//EN" "http://www.w3.org/Graphics/SVG/1.1/DTD/svg11.dtd">
<svg xmlns="http://www.w3.org/2000/svg" version="1.1" width="160px" height="160px" style="shape-rendering:geometricPrecision; text-rendering:geometricPrecision; image-rendering:optimizeQuality; fill-rule:evenodd; clip-rule:evenodd" xmlns:xlink="http://www.w3.org/1999/xlink">
<g><path style="opacity:1" fill="#0169b4" d="M -0.5,-0.5 C 52.8333,-0.5 106.167,-0.5 159.5,-0.5C 159.5,52.8333 159.5,106.167 159.5,159.5C 106.167,159.5 52.8333,159.5 -0.5,159.5C -0.5,106.167 -0.5,52.8333 -0.5,-0.5 Z"/></g>
<g><path style="opacity:1" fill="#f1f7fb" d="M 70.5,30.5 C 101.194,28.5702 120.694,42.2368 129,71.5C 130.811,99.6863 118.311,118.186 91.5,127C 67.0319,131.51 48.1986,123.343 35,102.5C 23.3635,75.5365 29.5302,53.7032 53.5,37C 59.0382,34.1047 64.7048,31.938 70.5,30.5 Z"/></g>
<g><path style="opacity:1" fill="#096bb5" d="M 71.5,34.5 C 98.0055,32.8631 115.505,44.5297 124,69.5C 127.246,94.8956 117.079,112.396 93.5,122C 71.2077,127.629 53.5411,121.129 40.5,102.5C 45.048,101.808 49.548,101.141 54,100.5C 63.7063,82.8056 74.2063,65.6389 85.5,49C 80.9067,45.4487 76.74,45.9487 73,50.5C 65.0857,64.664 56.919,78.664 48.5,92.5C 44.2172,93.4922 39.8839,93.8256 35.5,93.5C 29.8769,63.0794 41.8769,43.4127 71.5,34.5 Z"/></g>
<g><path style="opacity:1" fill="#fafcfd" d="M 86.5,52.5 C 88.6237,53.0312 90.1237,54.3645 91,56.5C 96.9141,67.3302 103.081,77.9968 109.5,88.5C 94.8447,89.6662 80.178,89.8328 65.5,89C 72.8751,77.0876 79.8751,64.9209 86.5,52.5 Z"/></g>
</svg>
