<svg data-name="Слой 1" xmlns="http://www.w3.org/2000/svg" viewBox="0 0 48 48"><path fill="#e30613" d="M0 0h48v48H0z"/><path d="M39.65 26.37a15.61 15.61 0 0 0-3.19-7.65l2.33-2.33-2.89-2.89-2.35 2.35a15.62 15.62 0 0 0-7.61-3.06V9.45h-1.26v5.78a13.18 13.18 0 0 1 12.41 13.15v.17h5.81v-2.18zM23.21 9.45h-1.26v3.38a15.62 15.62 0 0 0-7.41 3.1l-2.43-2.43-2.89 2.89 2.42 2.42a15.61 15.61 0 0 0-3.12 7.55H5.1v2.18h5.64v-.17a13.18 13.18 0 0 1 12.47-13.15v-2.51z" fill="#020304"/><path d="M24.09 24a4.58 4.58 0 0 0-4.58 4.58h9.16A4.58 4.58 0 0 0 24.09 24z" fill="#020203"/><path d="M14.94 28.55v-.17a9.16 9.16 0 1 1 18.32 0v.17h1.68v-.17a10.84 10.84 0 0 0-21.69 0v.17zM5.1 30.58h37.79v.97H5.1z" fill="#fff"/></svg>