<?xml version="1.0" encoding="UTF-8"?>
<!DOCTYPE svg PUBLIC "-//W3C//DTD SVG 1.1//EN" "http://www.w3.org/Graphics/SVG/1.1/DTD/svg11.dtd">
<svg xmlns="http://www.w3.org/2000/svg" version="1.1" width="160px" height="160px" style="shape-rendering:geometricPrecision; text-rendering:geometricPrecision; image-rendering:optimizeQuality; fill-rule:evenodd; clip-rule:evenodd" xmlns:xlink="http://www.w3.org/1999/xlink">
<g><path style="opacity:0.996" fill="#fed201" d="M -0.5,-0.5 C 52.8333,-0.5 106.167,-0.5 159.5,-0.5C 159.5,52.8333 159.5,106.167 159.5,159.5C 106.167,159.5 52.8333,159.5 -0.5,159.5C -0.5,106.167 -0.5,52.8333 -0.5,-0.5 Z"/></g>
<g><path style="opacity:1" fill="#fafaf6" d="M 88.5,30.5 C 88.5,33.5 88.5,36.5 88.5,39.5C 91.1667,39.5 93.8333,39.5 96.5,39.5C 96.1936,42.3854 96.5269,45.0521 97.5,47.5C 100.167,47.5 102.833,47.5 105.5,47.5C 105.5,50.1667 105.5,52.8333 105.5,55.5C 108.167,55.5 110.833,55.5 113.5,55.5C 113.666,64.1731 113.5,72.8397 113,81.5C 107.63,86.702 102.464,92.0353 97.5,97.5C 96.5067,106.318 96.1734,115.318 96.5,124.5C 84.8333,124.5 73.1667,124.5 61.5,124.5C 60.6701,115.342 60.1701,106.009 60,96.5C 55,91.5 50,86.5 45,81.5C 44.5002,72.8397 44.3336,64.1731 44.5,55.5C 47.1667,55.5 49.8333,55.5 52.5,55.5C 52.5,52.8333 52.5,50.1667 52.5,47.5C 55.1667,47.5 57.8333,47.5 60.5,47.5C 61.4731,45.0521 61.8064,42.3854 61.5,39.5C 64.3854,39.8064 67.0521,39.4731 69.5,38.5C 69.5,35.8333 69.5,33.1667 69.5,30.5C 75.8333,30.5 82.1667,30.5 88.5,30.5 Z"/></g>
<g><path style="opacity:1" fill="#1c1b1a" d="M 75.5,36.5 C 77.8333,36.5 80.1667,36.5 82.5,36.5C 82.5,48.8333 82.5,61.1667 82.5,73.5C 80.1667,73.5 77.8333,73.5 75.5,73.5C 75.5,61.1667 75.5,48.8333 75.5,36.5 Z"/></g>
<g><path style="opacity:1" fill="#ffed9b" d="M 88.5,30.5 C 89.4731,32.9479 89.8064,35.6146 89.5,38.5C 92.1667,38.5 94.8333,38.5 97.5,38.5C 97.5,41.5 97.5,44.5 97.5,47.5C 96.5269,45.0521 96.1936,42.3854 96.5,39.5C 93.8333,39.5 91.1667,39.5 88.5,39.5C 88.5,36.5 88.5,33.5 88.5,30.5 Z"/></g>
<g><path style="opacity:1" fill="#fff0ac" d="M 69.5,38.5 C 67.0521,39.4731 64.3854,39.8064 61.5,39.5C 61.8064,42.3854 61.4731,45.0521 60.5,47.5C 60.5,44.5 60.5,41.5 60.5,38.5C 63.5,38.5 66.5,38.5 69.5,38.5 Z"/></g>
<g><path style="opacity:1" fill="#201f1e" d="M 67.5,45.5 C 69.8333,45.5 72.1667,45.5 74.5,45.5C 74.5,57.5 74.5,69.5 74.5,81.5C 72.1667,81.5 69.8333,81.5 67.5,81.5C 67.5,69.5 67.5,57.5 67.5,45.5 Z"/></g>
<g><path style="opacity:1" fill="#222120" d="M 65.5,53.5 C 65.8288,66.6774 65.4955,79.6774 64.5,92.5C 62.8729,90.3702 61.0396,88.3702 59,86.5C 58.5002,75.505 58.3335,64.505 58.5,53.5C 60.8333,53.5 63.1667,53.5 65.5,53.5 Z"/></g>
<g><path style="opacity:1" fill="#b0b0b0" d="M 67.5,45.5 C 67.5,57.5 67.5,69.5 67.5,81.5C 66.5166,85.2984 66.1832,89.2984 66.5,93.5C 65.5084,93.6716 64.8417,93.3382 64.5,92.5C 65.4955,79.6774 65.8288,66.6774 65.5,53.5C 66.1667,50.8333 66.8333,48.1667 67.5,45.5 Z"/></g>
<g><path style="opacity:1" fill="#9f9f9e" d="M 84.5,45.5 C 84.5,57.5 84.5,69.5 84.5,81.5C 86.5,81.5 88.5,81.5 90.5,81.5C 90.5,69.5 90.5,57.5 90.5,45.5C 91.1667,48.1667 91.8333,50.8333 92.5,53.5C 92.3334,66.5043 92.5001,79.5043 93,92.5C 93.3826,91.944 93.8826,91.6107 94.5,91.5C 94.1788,93.0481 93.1788,93.7148 91.5,93.5C 91.5,89.8333 91.5,86.1667 91.5,82.5C 88.8333,82.5 86.1667,82.5 83.5,82.5C 83.1714,69.9887 83.5048,57.6554 84.5,45.5 Z"/></g>
<g><path style="opacity:1" fill="#1b1a19" d="M 84.5,45.5 C 86.5,45.5 88.5,45.5 90.5,45.5C 90.5,57.5 90.5,69.5 90.5,81.5C 88.5,81.5 86.5,81.5 84.5,81.5C 84.5,69.5 84.5,57.5 84.5,45.5 Z"/></g>
<g><path style="opacity:1" fill="#222120" d="M 92.5,53.5 C 94.8333,53.5 97.1667,53.5 99.5,53.5C 99.8322,64.8529 99.4988,76.1862 98.5,87.5C 96.812,88.5213 95.4787,89.8546 94.5,91.5C 93.8826,91.6107 93.3826,91.944 93,92.5C 92.5001,79.5043 92.3334,66.5043 92.5,53.5 Z"/></g>
<g><path style="opacity:1" fill="#545352" d="M 57.5,62.5 C 55.5,62.5 53.5,62.5 51.5,62.5C 51.5,68.1667 51.5,73.8333 51.5,79.5C 50.5104,73.69 50.1771,67.69 50.5,61.5C 53.0593,61.1984 55.3926,61.5318 57.5,62.5 Z"/></g>
<g><path style="opacity:1" fill="#1c1b1a" d="M 57.5,62.5 C 57.6663,69.8409 57.4997,77.1742 57,84.5C 55.2962,82.6266 53.4628,80.9599 51.5,79.5C 51.5,73.8333 51.5,68.1667 51.5,62.5C 53.5,62.5 55.5,62.5 57.5,62.5 Z"/></g>
<g><path style="opacity:1" fill="#4a4948" d="M 107.5,62.5 C 105.5,62.5 103.5,62.5 101.5,62.5C 101.175,69.6866 101.509,76.6866 102.5,83.5C 102.44,84.0431 102.107,84.3764 101.5,84.5C 100.503,76.8622 100.169,69.1955 100.5,61.5C 103.059,61.1984 105.393,61.5318 107.5,62.5 Z"/></g>
<g><path style="opacity:1" fill="#1c1b1a" d="M 107.5,62.5 C 107.829,68.2055 107.495,73.8722 106.5,79.5C 105.091,80.8485 103.757,82.1819 102.5,83.5C 101.509,76.6866 101.175,69.6866 101.5,62.5C 103.5,62.5 105.5,62.5 107.5,62.5 Z"/></g>
<g><path style="opacity:1" fill="#ffd206" d="M 75.5,74.5 C 77.8333,74.5 80.1667,74.5 82.5,74.5C 82.5,89.1667 82.5,103.833 82.5,118.5C 80.1667,118.5 77.8333,118.5 75.5,118.5C 75.5,103.833 75.5,89.1667 75.5,74.5 Z"/></g>
<g><path style="opacity:1" fill="#fff2b8" d="M 67.5,81.5 C 69.8333,82.1667 72.1667,82.8333 74.5,83.5C 72.1667,83.5 69.8333,83.5 67.5,83.5C 67.5,95.1667 67.5,106.833 67.5,118.5C 66.5073,110.35 66.1739,102.017 66.5,93.5C 66.1832,89.2984 66.5166,85.2984 67.5,81.5 Z"/></g>
<g><path style="opacity:1" fill="#ffd30a" d="M 74.5,83.5 C 74.5,95.1667 74.5,106.833 74.5,118.5C 72.1667,118.5 69.8333,118.5 67.5,118.5C 67.5,106.833 67.5,95.1667 67.5,83.5C 69.8333,83.5 72.1667,83.5 74.5,83.5 Z"/></g>
<g><path style="opacity:1" fill="#ffe77c" d="M 83.5,82.5 C 86.1667,82.5 88.8333,82.5 91.5,82.5C 91.5,86.1667 91.5,89.8333 91.5,93.5C 91.8261,102.017 91.4927,110.35 90.5,118.5C 90.5,106.833 90.5,95.1667 90.5,83.5C 88.5,83.5 86.5,83.5 84.5,83.5C 84.5,95.1667 84.5,106.833 84.5,118.5C 83.5049,106.678 83.1716,94.6783 83.5,82.5 Z"/></g>
<g><path style="opacity:1" fill="#fed200" d="M 90.5,118.5 C 88.5,118.5 86.5,118.5 84.5,118.5C 84.5,106.833 84.5,95.1667 84.5,83.5C 86.5,83.5 88.5,83.5 90.5,83.5C 90.5,95.1667 90.5,106.833 90.5,118.5 Z"/></g>
<g><path style="opacity:1" fill="#ffeb93" d="M 97.5,97.5 C 97.5,106.833 97.5,116.167 97.5,125.5C 85.3217,125.828 73.3217,125.495 61.5,124.5C 73.1667,124.5 84.8333,124.5 96.5,124.5C 96.1734,115.318 96.5067,106.318 97.5,97.5 Z"/></g>
</svg>
