<svg viewBox="0 0 48 48" xmlns="http://www.w3.org/2000/svg"><g fill="none" fill-rule="evenodd"><path fill="#FDCA2F" d="M0 0h48v48H0z"/><g fill="#FFF"><path d="M23.307 6.4a57.344 57.344 0 00-6.347 3.627 16.275 16.275 0 00-3.253 2.773c-1.387 1.6-1.654 2.507-1.707 2.773-.32 1.387.32 3.2.32 3.2l.533-.586c.32-.32.48-.48.587-.64.32-.32.64-.587 1.013-.907v-.48c.054-.96.32-1.867.8-2.613 1.174-1.92 3.467-3.787 4.32-4.48.854-.694 2.134-1.6 3.734-2.667zm-.16 5.387c-.054-.054-1.494.693-2.827 1.493a52.574 52.574 0 00-5.333 3.68c-.96.693-1.814 1.547-2.4 2.56a5.988 5.988 0 00-.747 2.133c0 .8.16 1.6.427 2.294L14.4 21.76c0-.053 0-.16-.053-.267-.054-1.013.32-2.026.906-2.826.854-1.227 1.92-2.294 3.094-3.254 2.826-2.293 4.853-3.573 4.8-3.626z"/><path d="M15.68 18.88a4.38 4.38 0 00-.64 2.293l1.707-1.226-1.067-1.067zm5.28 14.347v-.8l4.213 1.866v1.334l-4.373 1.6a25.936 25.936 0 01-6.827-5.174c-1.333-1.44-2.026-2.56-2.186-3.946-.107-.907 0-1.814.32-2.667.533-1.44 1.44-2.24 3.306-3.733 1.387-1.12 2.934-2.187 4.48-3.04 1.387-.8 3.094-1.707 3.094-1.654-.267.267-.64.534-.96.747-.8.587-2.4 1.707-3.734 2.773a15.208 15.208 0 00-2.346 2.187c-.534.587-1.014 1.28-1.334 2.027-.32.64-.48 1.333-.426 2.08.106.693.373 1.333.8 1.866.586.96 1.386 1.814 2.24 2.507.96.8 2.026 1.44 3.2 1.92l.533.107z"/><path d="M19.307 27.04a28.64 28.64 0 01-1.707-1.013c-.747-.427-1.333-1.014-1.813-1.654a.736.736 0 00-.16-.213c-.054.053-.054.107-.107.16-.107.16-.213.32-.267.533-.16.267-.266.587-.32.907-.053.373-.053.747.054 1.12.106.373.213.747.426 1.067a6.901 6.901 0 001.76 1.76c.534.426 1.12.853 1.707 1.28.533.32 1.067.64 1.653.906h1.174l3.573-1.386V29.12l-4.213-1.867v.64a13.01 13.01 0 01-1.76-.853zm6.346-2.187c-.96-.32-1.706-.64-2.293-.906a28.7 28.7 0 01-3.413-1.654c-.587-.373-1.174-.746-1.654-1.12l-2.24 2.294a17.678 17.678 0 005.067 3.306l4.533-1.92zm9.494-3.413c-.054-.107-.054-.267-.107-.373-.267-.587-.64-1.12-1.173-1.547l-.32-.32-.374-.427-.16-.16a5.624 5.624 0 00-.16-2.666 5.917 5.917 0 00-1.813-2.454 19.151 19.151 0 00-3.36-2.4c-.587-.373-1.013-.586-1.867-1.173-.693-.427-1.226-.8-1.6-1.067.32.16.854.427 1.44.694.694.373 1.547.8 1.974 1.013 1.28.693 2.56 1.547 3.68 2.507 1.12.8 2.08 1.76 2.88 2.826a6.368 6.368 0 011.12 2.347c.213.96.213 1.973-.054 2.933v.107l-.106.16zm-2.08 2.827l.16-.32c.16-.48.213-.96.053-1.44a6.9 6.9 0 00-.64-2.027c-.373-.693-.907-1.333-1.493-1.867a18.293 18.293 0 00-2.507-1.92c-.8-.533-.96-.586-2.507-1.546a18.384 18.384 0 01-1.706-1.067c.853.32 1.653.693 2.453 1.12.907.427 1.813.96 2.667 1.493.746.48 1.493 1.014 2.186 1.6.694.587 1.387 1.28 1.974 1.974.586.586 1.013 1.226 1.386 1.973.267.587.48 1.28.534 1.92.106.533.106 1.12 0 1.707-.107.426-.267.8-.427 1.173l-.16-.48c-.427-.853-1.973-2.24-1.973-2.293z"/><path d="M32.48 24l.16-.32c.107-.32.16-.64.16-.96 0-.373-.053-.747-.16-1.067-.053-.266-.213-.533-.32-.746l-.213-.267c-.48.64-1.014 1.227-1.654 1.707l.48.32c.48.32.907.64 1.28 1.066.107.054.214.214.267.267zM22.293 37.813V41.6c1.227-.427 2.4-.853 3.574-1.44a29.81 29.81 0 005.333-3.147c1.173-.8 2.187-1.76 3.093-2.88.48-.586.907-1.28 1.12-2.026.214-.747.32-1.494.267-2.294-.16-1.173-.587-2.293-1.333-3.2a12.7 12.7 0 00-2.187-2.293 27.157 27.157 0 00-2.08-1.6c-1.067-.747-1.92-1.227-2.08-1.333-.64-.374-1.173-.64-1.76-.96-.587-.32-1.707-.854-1.707-.8v.106c.16.107 1.707 1.067 2.774 1.707.586.373 1.013.64 1.066.64a14.878 14.878 0 012.88 2.24c.96.96 1.494 1.493 1.867 2.507.747 2.24-.533 4.32-.64 4.48a7.67 7.67 0 01-1.44 1.493c-.96.853-1.973 1.6-3.093 2.24-.96.693-1.974 1.227-3.094 1.76-.906.427-1.706.693-2.346.96l-.214.053z"/><path d="M26.987 30.08l-.374.107v3.786c.587-.266 1.28-.64 2.134-1.066.16-.054.373-.16.64-.32.586-.32 1.173-.694 1.706-1.067.32-.213.64-.48.907-.747.213-.32.427-.64.533-1.013a4.06 4.06 0 00.16-1.12c0-.427-.053-.853-.16-1.227a4.527 4.527 0 00-.48-1.173 3.04 3.04 0 01-.426.533c-.267.32-.534.587-.8.854-.374.32-.747.64-1.174.96-.746.533-1.493.96-2.293 1.333-.16.053-.373.16-.373.16zm-.427-1.28c.48-.16.96-.32 1.387-.533.373-.214.8-.48 1.173-.694l.427-.266.426-.267c.32-.213.694-.48.96-.693.214-.214.427-.374.64-.587 0 0-.426-.48-.533-.64-.32-.373-.587-.587-.64-.64a2.637 2.637 0 00-.427-.373 3.89 3.89 0 00-.586-.48l-.267-.16a.736.736 0 00-.16.213c-.213.16-.373.32-.64.48-.373.213-.587.373-.64.427-.213.106-.427.213-.693.32-.16.053-.374.106-.587.106l.16 3.787z"/></g></g></svg>