<svg id="Слой_1" data-name="Слой 1" xmlns="http://www.w3.org/2000/svg" viewBox="0 0 48 48"><defs><style>.cls-1{fill:#66a74f}.cls-2{fill:#2844ab}</style></defs><g id="RUSI"><path class="cls-1" d="M0 0h48v48H0z"/><path class="cls-2" d="M27.27 35.83h.1l3.29-2.92a1.93 1.93 0 011.92-1.81h.11l2.94-2.61a1.94 1.94 0 011.94-1.94h.3l2.91-2.59-3.08-2.76h-.13a1.93 1.93 0 01-1.92-1.81l-3.12-2.76A1.93 1.93 0 0130.68 15l-3.35-3h-.06a1.93 1.93 0 01-1.92-1.74l-2-1.79v2.88h.59a2 2 0 012 2V15a2 2 0 01-2 2h-.64v4h.68a2 2 0 012 2v1.64a2 2 0 01-2 2h-.73v4h.73a2 2 0 012 2v1.75a2 2 0 01-2 2h-.79v3.09l2.31-2a1.93 1.93 0 011.77-1.65z"/><rect class="cls-2" x="7.21" y="22.71" width="2.43" height="2.43" rx=".69" ry=".69"/><rect class="cls-2" x="11.88" y="17.62" width="2.87" height="2.87" rx=".81" ry=".81"/><rect class="cls-2" x="11.88" y="27.31" width="2.87" height="2.87" rx=".81" ry=".81"/><rect class="cls-2" x="16.51" y="31.81" width="3.48" height="3.48" rx=".99" ry=".99"/><rect class="cls-2" x="16.51" y="22.18" width="3.48" height="3.48" rx=".99" ry=".99"/><rect class="cls-2" x="16.51" y="12.55" width="3.48" height="3.48" rx=".99" ry=".99"/><rect class="cls-2" x="21.31" y="7.4" width="4.03" height="4.03" rx="1.14" ry="1.14"/><rect class="cls-2" x="21.31" y="17.04" width="4.03" height="4.03" rx="1.14" ry="1.14"/><rect class="cls-2" x="21.31" y="26.73" width="4.03" height="4.03" rx="1.14" ry="1.14"/><rect class="cls-2" x="21.31" y="36.58" width="4.03" height="4.03" rx="1.14" ry="1.14"/><rect class="cls-2" x="26.21" y="31.39" width="4.43" height="4.43" rx="1.26" ry="1.26"/><rect class="cls-2" x="26.21" y="21.7" width="4.43" height="4.43" rx="1.26" ry="1.26"/><rect class="cls-2" x="26.21" y="12.01" width="4.43" height="4.43" rx="1.26" ry="1.26"/><rect class="cls-2" x="30.91" y="16.63" width="4.72" height="4.72" rx="1.34" ry="1.34"/><rect class="cls-2" x="30.91" y="26.38" width="4.72" height="4.72" rx="1.34" ry="1.34"/><rect class="cls-2" x="35.48" y="21.2" width="5.31" height="5.31" rx="1.5" ry="1.5"/><rect class="cls-1" x="25.33" y="16.45" width="5.58" height="5.25" rx="1.94" ry="1.94"/><rect class="cls-1" x="25.33" y="26.14" width="5.58" height="5.25" rx="1.94" ry="1.94"/><rect class="cls-1" x="30.65" y="21.35" width="4.83" height="5.03" rx="1.76" ry="1.76"/></g></svg>