<svg id="Слой_1" data-name="Слой 1" xmlns="http://www.w3.org/2000/svg" viewBox="0 0 48 48"><defs><style>.cls-2{fill:#ff5b00}</style></defs><g id="RZSB"><g id="Layer1001"><path fill="#f2f3f4" d="M0 0h48v48H0z"/><g id="Layer1003"><g id="Layer1004"><path id="path16" class="cls-2" d="M15.07 33.55l1.71-1.74a24.41 24.41 0 004.72 2.85 7.87 7.87 0 013.26 2.85s3.2.73-1.52.82a11.16 11.16 0 01-7.31-2.22z"/><path id="path27" d="M12.41 23.41s-4.62-3.29-.16-6.62l4.27-2.63s.48 2.54 10.86 6.63 10.1 5.54 10.29 6a5.53 5.53 0 01-1.36 4.69 17.76 17.76 0 01-4.88 3.8s.73-1.84-1.71-3.45a82.37 82.37 0 00-9.43-4.75c-1.74-.75-7.88-3.67-7.88-3.67z" fill="#ff4f00"/><path id="path38" class="cls-2" d="M24.25 9.61s5.64.16 8 2.5.06 2.25-.22 2.6-1.58.57-1.58.57a25 25 0 01-7.25-4.53c-.54-.85 1-1.14 1-1.14z"/></g><path id="path60" d="M31.86 11.68s1.36 1.61-.84 3c-7.44 4.8-14.31 5.13-20.24 10.32a2.5 2.5 0 00-.8 2.41c.83 3.81 4.47 8 6 8.79 0 0-1.24-1.58 1.2-3.17a80.34 80.34 0 0110.64-5 48.51 48.51 0 007.79-3.74 6.94 6.94 0 002.26-2.18A1.62 1.62 0 0038 21a13.9 13.9 0 00-6.18-9.36z" fill="#002cff"/><path id="path73" d="M37.38 29.59a32.94 32.94 0 01-8.14 5.32c-4.5 2-5.38 2.75-5.89 3.36.06.29.38.22.73.22a18.8 18.8 0 006.84-1.84 13.23 13.23 0 006.46-7.06z" fill="#0016c3"/><path id="path94" d="M24.75 9.52c-1.23 0-10.57-.16-14.25 9.34a23.42 23.42 0 016.93-5.06c4.24-1.9 8.55-4.24 7.31-4.27z" fill="#002bff"/></g></g></g></svg>