<svg xmlns="http://www.w3.org/2000/svg" viewBox="0 0 48 48"><path fill="#005c97" d="M0 0h48v48H0z"/><path d="M25.7 23.16l7.91-8.29.34.07-6.25 8.22h5.78a4.94 4.94 0 00-2.53-2.65l3-3.91c4.44 1.63 7.34 4.31 7.34 7.36 0 5-7.73 9-17.26 9a32.74 32.74 0 01-3.86-.22L23.74 29H24c4.5 0 8.28-1.61 9.31-3.79h-7.24l-8.34 8.76-.34-.07L24 25.18l-8 8.35-.34-.07 6.6-8.68-7.95 8.34-.31-.06 7.35-9.66 8.88-9.32.34.07L24 22.83l7.95-8.34.34.08-6.54 8.6zM6.74 24c0 3 2.9 5.73 7.34 7.36l3-3.91c-1.64-.9-2.65-2.11-2.65-3.44 0-2.76 4.29-5 9.59-5h.28l3.59-3.77A32.69 32.69 0 0024 15c-9.53 0-17.26 4-17.26 9z" fill="#fff" fill-rule="evenodd"/></svg>