<svg data-name="Слой 1" xmlns="http://www.w3.org/2000/svg" viewBox="0 0 48 48"><path fill="#f2f3f4" d="M0 0h48v48H0z"/><path d="M24 9.74A14.2 14.2 0 0018.22 11l1.63 3.45-8.34-2.95L14 13.89 34.11 34A14.26 14.26 0 0024 9.74z" fill="#003d6c"/><path d="M28.19 33.49l8.24 3L34.11 34 14 13.89A14.25 14.25 0 0029.85 37z" fill="#e9841a"/><path d="M22.22 24.81l1.35.2a3.46 3.46 0 01-1.19 1.67 3 3 0 01-1.85.58 2.43 2.43 0 01-1.87-.72 3 3 0 01-.66-2.08 4.55 4.55 0 01.45-2 3.27 3.27 0 013-1.9 2.51 2.51 0 011.71.57 2.31 2.31 0 01.77 1.54l-1.28.12a1.37 1.37 0 00-.41-.82 1.22 1.22 0 00-.81-.26 1.78 1.78 0 00-1 .34 2.28 2.28 0 00-.77 1.05 3.81 3.81 0 00-.29 1.43 1.77 1.77 0 00.38 1.21 1.19 1.19 0 00.93.43 1.51 1.51 0 001-.34 2 2 0 00.54-1.02zm4.46-1.45h2a1.71 1.71 0 00-.42-1.28 1.36 1.36 0 00-1-.4 1.4 1.4 0 00-1.42 1l-1.29-.28a2.23 2.23 0 01.93-1.35 3 3 0 011.81-.55 2.71 2.71 0 012 .72 2.82 2.82 0 01.74 2.11 4.17 4.17 0 01-1 2.74 3.19 3.19 0 01-2.6 1.15 2.22 2.22 0 01-2.38-2l1.26-.43a1.39 1.39 0 00.48 1 1.37 1.37 0 00.8.27 1.73 1.73 0 001.08-.42 2.54 2.54 0 00.8-1.28h-1.98z" fill="#fff"/></svg>