<?xml version="1.0" encoding="UTF-8"?>
<!DOCTYPE svg PUBLIC "-//W3C//DTD SVG 1.1//EN" "http://www.w3.org/Graphics/SVG/1.1/DTD/svg11.dtd">
<svg xmlns="http://www.w3.org/2000/svg" version="1.1" width="160px" height="160px" style="shape-rendering:geometricPrecision; text-rendering:geometricPrecision; image-rendering:optimizeQuality; fill-rule:evenodd; clip-rule:evenodd" xmlns:xlink="http://www.w3.org/1999/xlink">
<g><path style="opacity:1" fill="#f5f6f7" d="M -0.5,-0.5 C 52.8333,-0.5 106.167,-0.5 159.5,-0.5C 159.5,52.8333 159.5,106.167 159.5,159.5C 106.167,159.5 52.8333,159.5 -0.5,159.5C -0.5,106.167 -0.5,52.8333 -0.5,-0.5 Z"/></g>
<g><path style="opacity:1" fill="#1298f3" d="M 83.5,29.5 C 83.9175,30.2216 84.5842,30.7216 85.5,31C 84.2847,33.8455 83.2847,36.6788 82.5,39.5C 80.3691,40.1687 78.3691,40.8354 76.5,41.5C 71.6404,41.6773 66.9737,42.6773 62.5,44.5C 61.9391,41.538 60.9391,38.7047 59.5,36C 59.7432,35.0979 60.0766,34.2646 60.5,33.5C 67.7605,30.1404 75.4272,28.807 83.5,29.5 Z"/></g>
<g><path style="opacity:1" fill="#1b8fd6" d="M 83.5,29.5 C 93.0463,30.6088 101.713,33.9421 109.5,39.5C 110.521,40.0016 110.688,40.6683 110,41.5C 106.983,43.506 103.983,45.506 101,47.5C 93.4942,42.9453 85.3275,40.9453 76.5,41.5C 78.3691,40.8354 80.3691,40.1687 82.5,39.5C 83.2847,36.6788 84.2847,33.8455 85.5,31C 84.5842,30.7216 83.9175,30.2216 83.5,29.5 Z"/></g>
<g><path style="opacity:1" fill="#1ba2ed" d="M 60.5,33.5 C 60.0766,34.2646 59.7432,35.0979 59.5,36C 60.9391,38.7047 61.9391,41.538 62.5,44.5C 61.3406,46.2503 59.674,47.2503 57.5,47.5C 54.2586,45.0174 52.5919,41.6841 52.5,37.5C 54.8831,35.6418 57.5498,34.3084 60.5,33.5 Z"/></g>
<g><path style="opacity:1" fill="#1fa9e0" d="M 52.5,37.5 C 52.5919,41.6841 54.2586,45.0174 57.5,47.5C 55.7656,50.2003 53.4323,52.2003 50.5,53.5C 46.822,52.3277 43.4887,50.6611 40.5,48.5C 43.8744,44.1245 47.8744,40.4578 52.5,37.5 Z"/></g>
<g><path style="opacity:1" fill="#28a23c" d="M 117.5,49.5 C 120.091,50.2543 121.924,51.921 123,54.5C 124.187,56.0444 124.52,57.7111 124,59.5C 109.411,70.2116 94.9107,81.0449 80.5,92C 73.6076,89.1258 67.1076,85.2925 61,80.5C 60.3333,75.8333 60.3333,71.1667 61,66.5C 66.8495,70.4242 72.8495,74.0909 79,77.5C 92.2846,68.7048 105.118,59.3714 117.5,49.5 Z"/></g>
<g><path style="opacity:1" fill="#36b1bd" d="M 40.5,48.5 C 43.4887,50.6611 46.822,52.3277 50.5,53.5C 50.2624,55.4044 49.2624,56.7377 47.5,57.5C 43.7653,56.6988 40.0986,55.6988 36.5,54.5C 37.3507,52.1184 38.684,50.1184 40.5,48.5 Z"/></g>
<g><path style="opacity:1" fill="#47b6a6" d="M 36.5,54.5 C 40.0986,55.6988 43.7653,56.6988 47.5,57.5C 46.8897,59.4341 45.8897,61.1007 44.5,62.5C 40.9014,61.3012 37.2347,60.3012 33.5,59.5C 34.2632,57.6316 35.2632,55.9649 36.5,54.5 Z"/></g>
<g><path style="opacity:1" fill="#61bd84" d="M 33.5,59.5 C 37.2347,60.3012 40.9014,61.3012 44.5,62.5C 43.8333,64.5 43.1667,66.5 42.5,68.5C 39.2182,67.461 36.0516,66.1276 33,64.5C 32.6174,65.056 32.1174,65.3893 31.5,65.5C 32.1667,63.5 32.8333,61.5 33.5,59.5 Z"/></g>
<g><path style="opacity:1" fill="#84c664" d="M 42.5,68.5 C 41.6076,73.4376 41.2743,78.4376 41.5,83.5C 40.8343,80.9723 40.1676,78.3056 39.5,75.5C 36.8515,73.3418 33.8515,72.0084 30.5,71.5C 30.3253,69.3792 30.6586,67.3792 31.5,65.5C 32.1174,65.3893 32.6174,65.056 33,64.5C 36.0516,66.1276 39.2182,67.461 42.5,68.5 Z"/></g>
<g><path style="opacity:1" fill="#2ba23d" d="M 103.5,122.5 C 102.373,118.865 101.373,115.198 100.5,111.5C 112.077,103.685 117.91,92.6852 118,78.5C 121.59,75.9546 125.09,73.288 128.5,70.5C 131.344,89.9744 125.344,106.141 110.5,119C 108.423,120.705 106.09,121.872 103.5,122.5 Z"/></g>
<g><path style="opacity:1" fill="#acd039" d="M 30.5,71.5 C 33.8515,72.0084 36.8515,73.3418 39.5,75.5C 40.1676,78.3056 40.8343,80.9723 41.5,83.5C 41.5,84.8333 41.5,86.1667 41.5,87.5C 38.3527,87.7366 35.3527,88.5699 32.5,90C 31.7476,90.6708 31.4142,91.5041 31.5,92.5C 29.4885,85.6562 29.1552,78.6562 30.5,71.5 Z"/></g>
<g><path style="opacity:1" fill="#d5df29" d="M 41.5,87.5 C 42.8319,91.1618 44.1652,94.8285 45.5,98.5C 42.7146,100.095 39.7146,101.095 36.5,101.5C 36.5,102.5 36.5,103.5 36.5,104.5C 34.0723,100.901 32.4056,96.9014 31.5,92.5C 31.4142,91.5041 31.7476,90.6708 32.5,90C 35.3527,88.5699 38.3527,87.7366 41.5,87.5 Z"/></g>
<g><path style="opacity:1" fill="#ebe620" d="M 45.5,98.5 C 50.519,106.023 57.1857,111.69 65.5,115.5C 65.1184,119.332 63.7851,122.665 61.5,125.5C 50.4583,121.797 42.125,114.797 36.5,104.5C 36.5,103.5 36.5,102.5 36.5,101.5C 39.7146,101.095 42.7146,100.095 45.5,98.5 Z"/></g>
<g><path style="opacity:1" fill="#c0d72f" d="M 65.5,115.5 C 68.4021,116.578 71.4021,117.244 74.5,117.5C 75.3984,118.158 76.3984,118.824 77.5,119.5C 75.8954,122.314 74.8954,125.314 74.5,128.5C 73.5,128.5 72.5,128.5 71.5,128.5C 67.7144,128.68 64.381,127.68 61.5,125.5C 63.7851,122.665 65.1184,119.332 65.5,115.5 Z"/></g>
<g><path style="opacity:1" fill="#a3cd42" d="M 74.5,117.5 C 78.1667,117.5 81.8333,117.5 85.5,117.5C 86.3255,121.136 86.9922,124.803 87.5,128.5C 82.1667,129.833 76.8333,129.833 71.5,128.5C 72.5,128.5 73.5,128.5 74.5,128.5C 74.8954,125.314 75.8954,122.314 77.5,119.5C 76.3984,118.824 75.3984,118.158 74.5,117.5 Z"/></g>
<g><path style="opacity:1" fill="#61b63b" d="M 100.5,111.5 C 101.373,115.198 102.373,118.865 103.5,122.5C 98.7628,125.86 93.4295,127.86 87.5,128.5C 86.9922,124.803 86.3255,121.136 85.5,117.5C 90.8621,116.316 95.8621,114.316 100.5,111.5 Z"/></g>
</svg>
