<svg id="Слой_1" data-name="Слой 1" xmlns="http://www.w3.org/2000/svg" viewBox="0 0 48 48"><defs><style>.cls-2{fill:#fff}</style></defs><g id="SIBG"><path fill="#5a210e" d="M0 0h48v48H0z"/><path class="cls-2" d="M26.11 26.94c.11-1 .56-3 .56-3h-1.75s-.21 1.24-.34 1.84-.17 1.18-.67 1.35a.22.22 0 01-.29-.15 1.94 1.94 0 01.06-.7 7.41 7.41 0 00.17-1 1.41 1.41 0 00-.85-1.47h-.07l-.25-.08a2.3 2.3 0 00-.43-.08h-.15a18.26 18.26 0 00-2.86.2c-.28 0-.55.06-.81.11l-.12.7h1.12c-.08.43-.2 1.14-.28 1.58 0 .21-.09.42-.11.62-.14.88.06 1.49.92 1.49a1.33 1.33 0 001-.42l.06-.09.06-.1a.65.65 0 01-.25-.64c.06-.56.25-1.64.38-2.3h.17a.77.77 0 01.52.1.6.6 0 01.29.48c0 .58-.29 1.47-.28 2.06a1 1 0 00.61 1 1 1 0 00.35.06H23a2.21 2.21 0 001.31-.91.91.91 0 00.8.9h.16a1.07 1.07 0 00.26 0 1.28 1.28 0 00.9-.61.65.65 0 01-.34-.69m10.08-2.07a1.33 1.33 0 00-.25-.79l-.09-.12a2.53 2.53 0 00-2.65-.21 2.56 2.56 0 00-.36.18c-1 .62-1.85 2.35-.88 3.55a2 2 0 001.53.69 2.59 2.59 0 002.32-1.5c-.23-.07-.4.12-.7.23a2.89 2.89 0 01-.76.13 1.72 1.72 0 01-.56-.1.63.63 0 01-.17-.09.83.83 0 01-.33-.53c1.38.21 2.69-.13 2.92-1.29v-.14m-2.87.68a1.1 1.1 0 01.87-1.07.37.37 0 01.32.11.27.27 0 01.06.2c0 .64-.59.8-1.25.77m8.85-9.61a.89.89 0 00-.89-1 1.25 1.25 0 00-1.25.94.89.89 0 00-.47-.86 1.27 1.27 0 00-1.56.42 1 1 0 00-.2.55.9.9 0 000 .24c.17.93 1.19.65 1.59 1.67 1-.29 2.77-.92 2.77-2m-34.55 5.9a2.38 2.38 0 001.55-.4 1.82 1.82 0 00.84-1.1c-.18 0-.27.17-.42.24a1.41 1.41 0 01-1.94-.32 2.09 2.09 0 01.8-2.63A.46.46 0 019 18c.13.23 0 .62-.09.73a.85.85 0 00.76.16.61.61 0 00.19-.08 1 1 0 00.49-.83c0-.72-.65-1-1.41-1.05a2.62 2.62 0 00-.87.09 3.1 3.1 0 00-1.22.7 3.28 3.28 0 00-.91 1.8 2.31 2.31 0 00.59 2 1.84 1.84 0 001.08.47m17.55-3.49h-.18a1.14 1.14 0 00-.38 0 1.75 1.75 0 00-1.15.73c0-.17.1-.52.1-.52H22.1l-.8 4.54h1.41s.17-1 .3-1.67a1 1 0 00.56.58.85.85 0 00.31.05h.27a.85.85 0 00.19 0 2 2 0 001.1-1.17c.29-.73.33-1.92-.28-2.33m-.84 1.38c-.06.54-.13 1.06-.56 1.25h-.11a.44.44 0 01-.16 0c-.19-.06-.24-.28-.25-.47a1.7 1.7 0 01.5-1.33h.13a.43.43 0 01.25 0c.13.06.18.2.2.38a1 1 0 010 .18m12.35.9c.09-.83.46-2.47.46-2.47h-1.42s-.17 1-.27 1.49-.13 1-.54 1.09a.18.18 0 01-.24-.12 2.26 2.26 0 010-.56 6.55 6.55 0 00.13-.78c.05-.84-.55-1.26-1.32-1.33h-.27a2.35 2.35 0 00-1.91 1.28 2.45 2.45 0 01-.2.28c0-.46.26-1.12-.19-1.39a.8.8 0 00-.33-.13h-.34a1 1 0 00-.73.5.55.55 0 01.28.57c-.08.69-.33 1.91-.43 2.34v.13h1.43s.19-1 .26-1.44c.19.13.14.47.18.73a1.34 1.34 0 00.12.46.71.71 0 00.36.33l.17.05h.14a1.41 1.41 0 00.42 0 1.15 1.15 0 00.77-.49 1.56 1.56 0 01-.32-.22 2.76 2.76 0 01-.49-1.1.58.58 0 00-.26-.31.85.85 0 00-.43-.09c.18-.48 1.2-.87 1.64-.41a.35.35 0 01.1.2 12.82 12.82 0 01-.2 1.58.84.84 0 00.48.82.76.76 0 00.31.06h.14a1.79 1.79 0 001.06-.73.74.74 0 00.64.72h.34a1 1 0 00.73-.49.56.56 0 01-.26-.57"/><path class="cls-2" d="M12.73 18.56s-.19 1-.27 1.51-.14 1-.56 1.08a.16.16 0 01-.19-.08.41.41 0 010-.23l.08-.4a1.45 1.45 0 000-.19l.08-.41a3.19 3.19 0 00.07-.48 1 1 0 00-.09-.49v-.06a.5.5 0 00-.14-.16.88.88 0 00-.5-.19h-.08a1.15 1.15 0 00-.71.25.9.9 0 00-.19.21l.09.05h.06a.38.38 0 01.13.24c.16 1-.79 2.59.46 2.82H11a1 1 0 00.29 0 1.88 1.88 0 001-.72c0 .2-.11.6-.11.6h1.42l.58-3.42h-1.45zM18 17.19v-.08a.59.59 0 00-.18-.18 1.83 1.83 0 00-.55-.22s-.06.18-.1.26a.39.39 0 01-.1.13.35.35 0 01-.15.07 3.1 3.1 0 00-2.11 1 4.2 4.2 0 00-.7 2.51 1.46 1.46 0 001.09 1.44h.3a2 2 0 002.2-1.75 1.83 1.83 0 000-.29 1.36 1.36 0 00-.39-1 1.56 1.56 0 00-2.3.45 1.28 1.28 0 01.99-1.07c.47-.13 1.07-.07 1.52-.23a.92.92 0 00.3-.19.85.85 0 00.3-.54.71.71 0 000-.32m-2.22 2.34h.12a.4.4 0 01.24 0 .43.43 0 01.19.38 1 1 0 010 .18c-.06.54-.13 1.06-.53 1.25h-.1a.37.37 0 01-.14 0c-.18-.06-.23-.28-.24-.47a1.74 1.74 0 01.46-1.33"/><path class="cls-2" d="M20.34 18.56s-.19 1-.27 1.51-.14 1-.56 1.08a.16.16 0 01-.19-.08.46.46 0 010-.23l.08-.4v-.19l.08-.41a3.19 3.19 0 00.07-.48 1 1 0 00-.09-.49v-.06a.5.5 0 00-.14-.16.88.88 0 00-.5-.19h-.12a1.15 1.15 0 00-.71.25.9.9 0 00-.19.21l.09.05h.06a.35.35 0 01.13.24c.16 1-.79 2.59.46 2.82h.06a1 1 0 00.29 0 1.88 1.88 0 001-.72l-.11.6h1.42l.58-3.42h-1.44zm19.57 0s-.19 1-.27 1.51-.14 1-.56 1.08a.16.16 0 01-.19-.08.41.41 0 010-.23l.08-.4a1.45 1.45 0 000-.19l.08-.41a3.19 3.19 0 00.07-.48 1 1 0 00-.09-.49v-.06a.5.5 0 00-.14-.16.88.88 0 00-.5-.19h-.08a1.15 1.15 0 00-.71.25.9.9 0 00-.19.21l.09.05h.06a.38.38 0 01.13.24c.16 1-.79 2.59.46 2.82h.06a1 1 0 00.29 0 1.88 1.88 0 001-.72c0 .2-.11.6-.11.6h1.42l.58-3.42h-1.48zm.74 8.81l.58-3.45h-1.78s-.27 1.58-.46 2.62a1 1 0 01-.58.84.21.21 0 01-.25-.1.56.56 0 01-.05-.31s.25-1.27.25-1.26v-.27a4.38 4.38 0 00.08-.56 1.18 1.18 0 00-.12-.61v-.06a.72.72 0 00-.18-.2 1.11 1.11 0 00-.63-.24h-.1a1.49 1.49 0 00-.9.31 1 1 0 00-.24.26v.05l.11.07h.08a.5.5 0 01.17.3v.38a.58.58 0 010 .1 5.64 5.64 0 01-.09.71v.34c-.05.28-.11.56-.17.84a1.27 1.27 0 00.91 1.46 2.2 2.2 0 002.4-.79c-.33 1.75-2 2.93-6.51 2.93-5.46 0-22.85-3.32-26.24-1.28-1.89 1.14-.69 2.6.17 3.25 1.09-4.5 18.83-.67 26-.67 5.72 0 8.11-1.68 8.24-4.74h-.65"/><path class="cls-2" d="M10.59 24.86a1.47 1.47 0 00-.83 0l-.24.1a1.12 1.12 0 00-.19.14 2 2 0 00-.17 2.58 2 2 0 001.16.59 1.87 1.87 0 00.35 0 2.62 2.62 0 00.46 0h.17a2.68 2.68 0 002.23-2.59 1.59 1.59 0 000-.55 1.9 1.9 0 00-1.3-1.29 2.65 2.65 0 00-.68-.13h-.35c-2.52 0-4.8.2-4.8.2l-.14.77h.5c-.13.7-.25 1.39-.37 2.1-.17.93 0 1.59.9 1.59a1.27 1.27 0 001.18-.65c-.33-.2-.42-.42-.33-1s.34-2 .34-2l1.66-.06a5 5 0 01.7 0 1.77 1.77 0 01.64.16.7.7 0 01.34.4 1.67 1.67 0 01.09.49 2.41 2.41 0 01-.12.78 1.6 1.6 0 01-.5.78.58.58 0 01-.4.11.45.45 0 01-.43-.49c-.09-1.33.57-1.72.57-1.72s-.06-.16-.39-.27m5.88.63a1.19 1.19 0 001 .05 1 1 0 00.66-.9.82.82 0 00-.09-.35v-.08l-.12-.16a1.28 1.28 0 00-.59-.33 2.88 2.88 0 00-3.54 2 2.39 2.39 0 000 1 1.91 1.91 0 001.88 1.58h.15a2.63 2.63 0 002.2-1.5c-.24-.07-.41.12-.7.23a3.16 3.16 0 01-.77.13 1.65 1.65 0 01-.42-.06.77.77 0 01-.2-.1.84.84 0 01-.34-.61c-.09-.79.18-1.71.85-1.78a.27.27 0 01.28.17 1 1 0 01-.06.69v.05m14.93-1.63h-1.72s-.18.94-.29 1.61h-.83l.1-.58a1 1 0 000-.21.68.68 0 000-.1.92.92 0 00-.77-.91h-.21a1.14 1.14 0 00-.27 0 1.27 1.27 0 00-.9.62.68.68 0 01.28.31.57.57 0 010 .33l-.14.81c-.07.41-.38 2.42-.38 2.42h1.78l.29-1.7h.83c-.11.73-.27 1.7-.27 1.7H31l.73-4.31h-.06zm-3.59-4.06a1 1 0 00.76 0 .73.73 0 00.47-1v-.06l-.1-.13a1.07 1.07 0 00-.47-.26A2.3 2.3 0 0025.83 20a1.9 1.9 0 000 .78A1.41 1.41 0 0026.94 22a1.33 1.33 0 00.35 0h.12a2.09 2.09 0 001.75-1.2c-.19-.05-.32.1-.56.18a2.49 2.49 0 01-.61.11 1.28 1.28 0 01-.34 0l-.19-.09a.67.67 0 01-.27-.48c-.08-.63.14-1.37.68-1.42a.21.21 0 01.23.13.79.79 0 01-.05.55v.05"/></g></svg>