<?xml version="1.0" encoding="UTF-8"?>
<!DOCTYPE svg PUBLIC "-//W3C//DTD SVG 1.1//EN" "http://www.w3.org/Graphics/SVG/1.1/DTD/svg11.dtd">
<svg xmlns="http://www.w3.org/2000/svg" version="1.1" width="160px" height="160px" style="shape-rendering:geometricPrecision; text-rendering:geometricPrecision; image-rendering:optimizeQuality; fill-rule:evenodd; clip-rule:evenodd" xmlns:xlink="http://www.w3.org/1999/xlink">
<g><path style="opacity:1" fill="#007bfa" d="M -0.5,-0.5 C 52.8333,-0.5 106.167,-0.5 159.5,-0.5C 159.5,52.8333 159.5,106.167 159.5,159.5C 106.167,159.5 52.8333,159.5 -0.5,159.5C -0.5,106.167 -0.5,52.8333 -0.5,-0.5 Z"/></g>
<g><path style="opacity:1" fill="#fafcfe" d="M 67.5,35.5 C 68.8734,35.3433 70.2068,35.51 71.5,36C 79.3333,43.8333 87.1667,51.6667 95,59.5C 95.6667,60.8333 95.6667,62.1667 95,63.5C 91.1667,67.3333 87.3333,71.1667 83.5,75C 82.1667,75.6667 80.8333,75.6667 79.5,75C 71.3023,67.1366 63.469,58.97 56,50.5C 55.3333,49.5 55.3333,48.5 56,47.5C 60.037,43.631 63.8704,39.631 67.5,35.5 Z"/></g>
<g><path style="opacity:1" fill="#fcfdfe" d="M 98.5,67.5 C 100.199,67.3398 101.866,67.5065 103.5,68C 107,71.5 110.5,75 114,78.5C 114.667,79.8333 114.667,81.1667 114,82.5C 99.8333,96.6667 85.6667,110.833 71.5,125C 70.1667,125.667 68.8333,125.667 67.5,125C 64,121.5 60.5,118 57,114.5C 56.3333,112.833 56.3333,111.167 57,109.5C 71.0352,95.6319 84.8686,81.6319 98.5,67.5 Z"/></g>
</svg>
