<?xml version="1.0" encoding="UTF-8"?>
<!DOCTYPE svg PUBLIC "-//W3C//DTD SVG 1.1//EN" "http://www.w3.org/Graphics/SVG/1.1/DTD/svg11.dtd">
<svg xmlns="http://www.w3.org/2000/svg" version="1.1" width="160px" height="160px" style="shape-rendering:geometricPrecision; text-rendering:geometricPrecision; image-rendering:optimizeQuality; fill-rule:evenodd; clip-rule:evenodd" xmlns:xlink="http://www.w3.org/1999/xlink">
<g><path style="opacity:1" fill="#eff1f5" d="M -0.5,-0.5 C 52.8333,-0.5 106.167,-0.5 159.5,-0.5C 159.5,52.8333 159.5,106.167 159.5,159.5C 106.167,159.5 52.8333,159.5 -0.5,159.5C -0.5,106.167 -0.5,52.8333 -0.5,-0.5 Z"/></g>
<g><path style="opacity:1" fill="#a51539" d="M 65.5,72.5 C 63.0326,72.2451 61.0326,71.2451 59.5,69.5C 59.5774,68.2502 60.244,67.4169 61.5,67C 64.146,66.5026 66.8127,66.3359 69.5,66.5C 69.5,67.8333 69.5,69.1667 69.5,70.5C 67.5168,70.1568 66.1834,70.8235 65.5,72.5 Z"/></g>
<g><path style="opacity:1" fill="#a9abae" d="M 82.5,66.5 C 84.8333,66.5 87.1667,66.5 89.5,66.5C 89.5,74.5 89.5,82.5 89.5,90.5C 87.1667,90.5 84.8333,90.5 82.5,90.5C 82.5,82.5 82.5,74.5 82.5,66.5 Z"/></g>
<g><path style="opacity:1" fill="#acaeb1" d="M 92.5,66.5 C 94.8333,66.5 97.1667,66.5 99.5,66.5C 99.5,68.1667 99.5,69.8333 99.5,71.5C 97.1667,71.5 94.8333,71.5 92.5,71.5C 92.5,69.8333 92.5,68.1667 92.5,66.5 Z"/></g>
<g><path style="opacity:1" fill="#b0adb1" d="M 59.5,69.5 C 61.0326,71.2451 63.0326,72.2451 65.5,72.5C 67.0418,73.3007 68.7085,73.634 70.5,73.5C 72.8333,73.5 75.1667,73.5 77.5,73.5C 78.5,73.5 79.5,73.5 80.5,73.5C 80.5,75.1667 80.5,76.8333 80.5,78.5C 79.5,78.5 78.5,78.5 77.5,78.5C 70.3301,77.9168 63.3301,76.5834 56.5,74.5C 56.5,75.8333 56.5,77.1667 56.5,78.5C 56.5,78.8333 56.5,79.1667 56.5,79.5C 53.9555,74.094 49.6222,72.094 43.5,73.5C 45.2922,72.6909 47.2922,72.1909 49.5,72C 40.5367,70.9017 31.5367,70.2351 22.5,70C 33.8552,67.9552 45.1885,68.1219 56.5,70.5C 57.5837,70.315 58.5837,69.9817 59.5,69.5 Z"/></g>
<g><path style="opacity:1" fill="#a92545" d="M 77.5,73.5 C 75.1667,73.5 72.8333,73.5 70.5,73.5C 70.238,72.0222 70.5713,70.6888 71.5,69.5C 73.4134,68.627 75.2467,67.627 77,66.5C 77.4966,68.8098 77.6633,71.1432 77.5,73.5 Z"/></g>
<g><path style="opacity:1" fill="#ab2642" d="M 22.5,72.5 C 26.79,71.9874 30.6233,72.9874 34,75.5C 33.9904,77.4715 32.8237,78.4715 30.5,78.5C 28.8957,78.0609 27.3957,77.3943 26,76.5C 24.9412,76.6301 24.1079,77.1301 23.5,78C 26.7554,79.0914 30.0887,80.0914 33.5,81C 36.3112,84.2935 35.9779,87.2935 32.5,90C 28.1384,91.9234 23.8051,91.9234 19.5,90C 17.9632,88.8904 17.2965,87.3904 17.5,85.5C 20.6944,85.2695 23.6944,85.9362 26.5,87.5C 27.737,87.4435 28.737,86.9435 29.5,86C 26.7024,84.5468 23.7024,83.5468 20.5,83C 16.2855,78.6776 16.9522,75.1776 22.5,72.5 Z"/></g>
<g><path style="opacity:1" fill="#a71b3c" d="M 43.5,73.5 C 49.6222,72.094 53.9555,74.094 56.5,79.5C 56.3989,88.7323 51.7322,92.5656 42.5,91C 36.5333,87.6076 35.0333,82.7742 38,76.5C 39.4877,74.84 41.321,73.84 43.5,73.5 Z"/></g>
<g><path style="opacity:1" fill="#a6a9ab" d="M 92.5,73.5 C 94.5,73.5 96.5,73.5 98.5,73.5C 98.5,79.1667 98.5,84.8333 98.5,90.5C 96.5,90.5 94.5,90.5 92.5,90.5C 92.5,84.8333 92.5,79.1667 92.5,73.5 Z"/></g>
<g><path style="opacity:1" fill="#a8aaad" d="M 101.5,73.5 C 104.144,73.1601 106.477,73.8267 108.5,75.5C 112.035,72.872 115.535,72.872 119,75.5C 119.499,80.4889 119.666,85.4889 119.5,90.5C 117.5,90.5 115.5,90.5 113.5,90.5C 113.665,86.8183 113.499,83.1516 113,79.5C 111.667,78.1667 110.333,78.1667 109,79.5C 108.501,83.1516 108.335,86.8183 108.5,90.5C 106.167,90.5 103.833,90.5 101.5,90.5C 101.5,84.8333 101.5,79.1667 101.5,73.5 Z"/></g>
<g><path style="opacity:1" fill="#aaacaf" d="M 126.5,73.5 C 130.637,73.1463 134.637,73.6463 138.5,75C 140.93,77.3046 141.93,80.1379 141.5,83.5C 137.116,83.1744 132.783,83.5078 128.5,84.5C 129.212,86.0459 130.378,87.0459 132,87.5C 134.547,85.8225 137.38,85.1559 140.5,85.5C 140.126,88.8884 138.126,90.7218 134.5,91C 123.61,91.7756 119.776,86.9423 123,76.5C 124.145,75.3636 125.312,74.3636 126.5,73.5 Z"/></g>
<g><path style="opacity:1" fill="#eceef2" d="M 129.5,77.5 C 131.167,77.5 132.833,77.5 134.5,77.5C 134.5,78.5 134.5,79.5 134.5,80.5C 132.396,80.7989 130.396,80.4656 128.5,79.5C 128.863,78.8165 129.196,78.1499 129.5,77.5 Z"/></g>
<g><path style="opacity:1" fill="#ece8ed" d="M 44.5,77.5 C 46.451,77.2267 47.951,77.8934 49,79.5C 49.7581,81.7695 49.5914,83.9361 48.5,86C 46.8876,86.7203 45.3876,86.5536 44,85.5C 43.2782,82.7395 43.4448,80.0728 44.5,77.5 Z"/></g>
<g><path style="opacity:1" fill="#a82140" d="M 77.5,78.5 C 77.5,81.1667 77.5,83.8333 77.5,86.5C 78.8333,86.5 80.1667,86.5 81.5,86.5C 80.8965,91.1522 78.2298,92.6522 73.5,91C 72.6667,90.1667 71.8333,89.3333 71,88.5C 70.5017,85.1832 70.335,81.8499 70.5,78.5C 68.8333,78.5 67.1667,78.5 65.5,78.5C 65.5,82.5 65.5,86.5 65.5,90.5C 63.1667,90.5 60.8333,90.5 58.5,90.5C 59.0894,86.0293 58.4228,82.0293 56.5,78.5C 56.5,77.1667 56.5,75.8333 56.5,74.5C 63.3301,76.5834 70.3301,77.9168 77.5,78.5 Z"/></g>
</svg>
