<svg id="Слой_1" data-name="Слой 1" xmlns="http://www.w3.org/2000/svg" viewBox="0 0 48 48"><defs><style>.cls-1{fill:#f2f3f4}.cls-3{fill:#e3b842}</style></defs><g id="STSB"><path class="cls-1" d="M0 0h48v48H0z"/><path d="M30.51 21.55l-.01.02.02.02-.01-.02v-.02zm-4.02 12.59l8.33-11.66-.07-.09-.06-.08-.06-.08-.07-.07-7.78 10.88v.1l-.02.11-.02.12-.03.13-.05.14-.05.16-.06.16-.06.18zm-11.86-8.18l.1.09.07.08.06.07.04.06 1.48-2.04-.02-.32-.01-.32-1.72 2.38zm2.5 3.53l.88-1.21-.07-.08-.07-.09-.13-.17-1.04 1.47.18.03.17.04h.06l.02.01zm9.48 3.22l2.58-3.62-.26.24-.27.22-.28.21-.3.19-2.35 3.29.09-.08.09-.07.08-.06.08-.06.07-.05.06-.05.06-.04.05-.04.05-.03.04-.03.05-.02.04-.01h.09l.03.01zm-10.3-3.32l1.25-1.75-.12-.18-.11-.19-1.5 2.09.24.01.24.02zm3.99 2.01l.63-.88-.18-.08-.1-.05-.09-.05-.82 1.15.1-.03.09-.02.09-.02.08-.01h.1l.1-.01zm-2.11 2.68l-.14.13-.13.13-.12.11-.11.11-.1.1-.1.1-.1.08-.09.08-.64.89.11.02.11.03.11.02.1.01 2.48-3.47-.09.09-.09.08-.08.1-.08.09-.15.21-.14.21-.16.21-.08.11-.08.11-.1.11-.1.11-.11.12-.12.11zm-1.76 1.16l-.16.02-.08.02h-.06l-.22.31.09.03.1.04.21.07.36-.52-.12.02-.12.01zm-.81-3.62l-.11.01-.1.01-.08.02-.07.01-.06.01-.06.01-.05.01h-.04l-.03.01-.03.01h-.02l-.01.01h-.01l.02.01.01.01.03.02.06.03.09.05.1.05.12.05.24-.33zm1.6-.98l-.16.13-.15.13-.14.11-.13.11-.13.09-.12.09-.13.08-.12.06-.43.62.1.03.1.02.11.02.12.02 1.08-1.51zm-.24 1.54h.04l2.03-2.83-.15-.14-.15-.13-.56.79-.23.31-1.44 2.02h.23l.11-.01.12-.01zm3.28-1.98l-.17-.11-.18-.1-1.34 1.87.17-.06.17-.05.16-.05.14-.05 1.05-1.45zm-1.75-1.35l-.14-.16-.14-.15-.74 1.05.11.03.1.03.1.03.08.04.63-.87zm2.74 1.81l-.56.77.06.01.06.01.05.01.04.02.03.01.02.01h.02-.01v.01l-.01.01-.02.01-.05.03-.07.04-.09.05-.1.06-.11.07-.13.08-2.85 4 .11-.02.13-.01.15-.03.15-.03 3.58-4.98-.2-.07-.1-.03-.1-.03zm5.42.01l-2.68 3.75-.03.14-.02.14-.01.15-.01.15v.19l3.47-4.83-.18.08-.17.08-.37.15zm-1.62.4l-.26.04-.27.02-.89 1.25.03-.01h.02l.04-.02.13-.01.11-.03.12-.01h.1l.87-1.23zm1.08-.22l-.3.07-.3.07-.93 1.3h.05l.05.01h.05l.04.01.02.01h.02l.02.01-.01.02-.03.02-.02.03-.04.04-.04.05-.03.06-.05.07-.05.08-.05.08-.05.1-.05.1-.05.11-.04.12-.05.12-.04.14 1.88-2.62zm-4.15.04l-3.42 4.79.14-.04.16-.04.15-.03.16-.05 3.24-4.53-.11-.02-.11-.03-.21-.05zm.8.17l-3.05 4.25.18-.07.19-.09.19-.09.18-.1 2.76-3.84-.24-.03-.11-.01-.1-.02zm1.2.1h-.18l-.18-.01-2.25 3.14.23-.22.22-.2.2-.2.19-.19.18-.18.18-.17.16-.16.17-.14 1.19-1.67h-.11zm-4.34-1.36l-.16-.12-.17-.12-1.82 2.55.28-.05.14-.03.15-.04 1.58-2.19zm9.86 1.29v.01h.01l.02.01.02.02 4.19-5.87v-.02.01h.01l1.59-2.21-.15-.14-.15-.14-8.95 12.51-.02.18-.02.19-.01.2v.2l3.47-4.87-.01-.03v-.05zm-9.81-17.84l.79-1.09-.13.1-.11.1-.11.11-.1.11-.1.13-.04.08-.04.07-.04.09-.04.09-.04.1-.04.11zm19.08 11.99l-.03-.02-.02-.02-.56.81.1.01.1.02.1.03.1.04.45-.59-.11-.15-.13-.13zm-2.83-1.78l-.17-.1-.17-.12-1.53 2.14.09.04.09.04.2.07 1.49-2.07zm1.59.88l-1.12 1.58.23.03.23.02 1-1.41-.17-.11-.17-.11zm-10.9 13.41l2.13-2.98.09-.19.05-.09.04-.09.06-.11.05-.12.06-.14.05-.14.05-.15.04-.15.09-.31-2.95 4.12.05.09.06.09.06.08.07.09zm11.52-13l-.88 1.23h.04l.05.01h.4l.72-1.01-.17-.12-.16-.11zm-1.92-1.13l-1.44 2.03.21.06.1.03.1.02 1.39-1.95-.18-.09-.18-.1zm.66.36l-1.32 1.84.44.06 1.23-1.7-.17-.1-.18-.1zM26.08 36.55l.03.13.02.13.04.12.04.12 3.29-4.6.04-.23.01-.11.01-.1.01-.1.01-.09v-.16l-3.5 4.89zm-9.27-24.34l-.21-.03-.11-.01-.11.02h.01l.01.02.01.03.02.05.03.06.02.06.03.08.03.09.27-.37zm-1.24 23.27l.11-.15h-.1l-.1.01h-.07l-.06.01h-.09v.01h.02l.02.01.04.02.05.02.05.02.07.02.06.03zm18.41-3.63l-.62.85.07.1.07.08.06.08.08.06.48-.68-.04-.12-.04-.11-.03-.13-.03-.13zm.31.81l-.34.5h.04l.05.01h.39l.09-.01h.07l.06-.01.05-.01h.04l.02-.01h.02l-.01-.01-.02-.01-.03-.02-.03-.01-.04-.03-.04-.03-.05-.04-.06-.06-.07-.07-.07-.09-.07-.1zm-23.25-8.57l.19-.28-.08-.02-.04-.02-.05-.01-.07-.03-.05-.02-.05-.03-.05-.02-.03-.01-.02-.01-.02-.01-.01-.01h-.01v.01l.01.02.01.03.03.04.04.08.05.09.07.09.08.11zm2.92-8.21l.02-.07.02-.05.01-.04.01-.02v-.03.02l-.01.01-.02.01-.04.05-.05.06-.07.09-.07.09-.08.11-.09.13-.09.14-.1.16-.09.16-.09.18-.09.19-.09.2-.08.2-.07.22.96-1.32v-.1l.03-.11.03-.13.03-.07.02-.08zm13.28 22.29l1-1.4-.01-.1.01-.1.02-.21.03-.21.05-.23-1.45 2.06.16.09.09.05.1.05zm.72.26l.06.02.05.03.05.01.03.02.02.01.01.01h.01v-.01l.01-.03v-.09l.01-.08v-.17l.01-.11.01-.16.01-.17v-.19l.01-.19-.69.94.12.05.11.04.09.03.08.04zm5.87-7.64l-.89 1.23.05.08.04.08.09.15.01.02.02.01.01.02.01.02.72-1.04-.03-.29-.03-.28zm-.25-2.02v-.08l-.01-.07-1.48 2.08.12.16.12.18 1.32-1.85-.03-.21-.04-.21zm-2.82 1.25l-.97 1.35.06.07.06.08.07.08.07.09.76-1.06-.01-.19-.01-.08v-.09l-.01-.07-.01-.07v-.06l-.01-.05zm-.42 2.27l.01.06.01.05.02.09.35-.49.04-.21.04-.21.02-.21.01-.2-.6.83.06.15.04.14zm3.04-4.68l-1.79 2.51.13.14.07.08.08.08 1.62-2.28-.03-.14-.03-.14-.03-.13-.02-.12zm-.32-.81l-2.13 2.97.09.01.09.02.05.02.05.03.06.03.06.03 1.92-2.69-.05-.12-.04-.1-.1-.2zm.79-1.1l-.63.87.07.02.1.04.1.05.11.06.41-.59-.04-.09-.01-.04-.01-.03-.03-.07-.03-.07-.02-.08-.02-.07zm-20.54-4.78l1.68-2.35-.17-.11-.09-.05-.08-.06-1.51 2.12.08.23.09.22zm-.51 2.56l-.99 1.37.08.05.09.04.09.03.09.03h.02l.01.02 1.1-1.56h-.24l-.25.02zm-1.27 1.18l.8-1.11-.03.01h-.04l-.07.02-.08.03-.07.03-.14.05-.11.04-.11.03-.43.61.13.15.15.14zm22.18 5.03l-1.18 1.65.11.18.11.19 1.03-1.42-.02-.15-.01-.15-.02-.15-.02-.15zM17.94 16.28l-4.1 5.74.11.2.1.19 3.97-5.55-.02-.13-.02-.14-.02-.15-.02-.16zm-3.9 9.26l.14.08.06.04.06.04.04.03.04.03 1.98-2.79.05-.42.03-.21.03-.2-2.43 3.4zm24.83-8.13l-.1.14h.06l.04-.01h.15v-.02l-.01-.01-.02-.02-.03-.01-.04-.03-.05-.04zm-24.23 6.71l-.05-.08-.06-.09-.06-.09-.08-.09-1.08 1.51.11.02.1.03.2.07.92-1.28zm-.53-.52l-.09-.04-.1-.02-.12-.02-.11-.02-1.15 1.59.11.03.11.02.21.05 1.14-1.59zm15.98-4.62l1.89-2.65-.12-.02-.12-.02-.11-.01-.1-.01-1.7 2.38.13.17.13.16zm-18.2 8.29l-1.24 1.74.19.09.09.04.1.03 1.5-2.11-.13.05-.15.06-.17.05-.19.05zm-.97.11l-.89 1.23.16.12.17.11 1.06-1.48-.25.02h-.25zm20.24-11.17l-.02-.03-.01-.03-.01-.04.01-.04.01-.03.02-.02.03-.03.03-.03.03-.02.06-.03.05-.03.07-.03.36-.52-.1-.01h-.11l-.13-.02-.12-.01-2.02 2.8.08.07.07.08.14.14 1.56-2.17zM9.35 27.02l-.31.45.05.08.06.09.06.09.07.09.45-.65-.19-.07-.09-.03-.1-.05zm4.58-.65l-.11.02-.1.03-.09.03-.09.03-.16.08-.14.09-1.87 2.61.14.02.15.02h.13l.05.02 2.09-2.95zm12.93-11.8l-.01-.01-.02-.01-.02-.03-.03-.04-.03-.05-.03-.06-.03-.07-.03-.08-1.29 1.81.2.05.11.02.1.03 1.35-1.9-.09.08-.07.09-.07.09-.04.08zm6.17 4.68l-1.67 2.34.05.26.07.26 1.91-2.67-.07-.03-.06-.03-.06-.03-.05-.03-.04-.02-.03-.02-.03-.02-.02-.01zm-22.95 8.02l-.58.81.06.08.07.07.07.08.09.07.73-1.02-.22-.04-.22-.05zm13.9-11.36h.14l2.74-3.83-.03.02-.03.02-.28.08-.28.06-2.6 3.65h.34zm7.99-.23l.17-.05.08-.02.08-.02.07-.01.06-.01.06-.01.05-.01.05-.01.04-.01h.07l.02-.01h.03-.01l-.04-.01-.05-.01-.07-.02-.08-.02-.1-.02-.12-.03-.13-.02-.18.29zm1.63 3.45l1.81-2.52-.23-.02-.24-.02-1.83 2.56h.49zm1.73 1.39l-.07-.06-.07-.06-.08-.07-.1-.06-.48.66.18-.03.15-.04.14-.03.12-.02.21-.29zm-10.35-4.55l1.79-2.47.02-.06.03-.05.03-.06.04-.06.1-.15.1-.14.09-.12.08-.11.08-.11.07-.1.07-.09.06-.09.05-.08.05-.08.08-.15.06-.16.02-.08.01-.09-.02.01-.03.01-.04.02-.05.02-.06.02-.09.03-.09.04-2.89 4.05.22.02.11.02.11.01zM14.36 26.34l-2.13 2.99.24.01.23.02 2.13-2.97-.1-.01-.1-.02-.13-.02h-.14zm23.07-8.78l.45-.61-.19-.08-.19-.08-.56.79h.24l.25-.02zM8.68 26.69l-.05-.04-.04-.02-.03-.02v.01l.02.03.02.05.03.06.04.08.04.09.06.11.06.12.21-.3-.11-.05-.1-.05-.08-.04-.07-.03zM23.2 15.95l2.55-3.56-.31.07-.15.04-.16.05-2.48 3.46.28-.04.27-.02zm15.15 1.6l.22-.3-.11-.05-.06-.03-.06-.02-.07-.04-.07-.03-.35.48h.38l.12-.01zm-10.46-.57l2.79-3.9-.13.02-.14.03-.29.04-2.58 3.62.17.1.18.09zm7.75 1.4l.06-.14.07-.13.08-.11.1-.11.11-.09.06-.04.06-.04.08-.03.08-.03.08-.02.09-.02.65-.94-.1-.03-.11-.02-.11-.02-.1-.02-1.71 2.37.1-.04.09-.04.08-.06.08-.07.07-.07.07-.09.06-.1.06-.11zm-8.4-1.74l2.4-3.38-.28.05-.29.05-2.22 3.12.1.03.09.04.1.04.1.05zm1.26.75l1.27-1.77-.03-.05-.03-.06-.02-.07v-.14l.01-.08.03-.09.05-.1.04-.07.05-.07.09-.12.11-.09.1-.08.12-.08.12-.06.14-.06.14-.06 1.47-2.06.01-.03v-.06l-.01.02-.03.03-.02.04-.04.04-.04.05-.05.06-.05.05-.13.12-.15.12-.08.06-.09.05-.09.05-.08.03-.06.02-.06.03-3.01 4.21.16.11.16.11zm6.03 1.7l1.81-2.52h-.09l-.09.01-.17.02-.09.01h-.09l-1.8 2.52h.14l.14-.01.13-.01.11-.02zm-.21 2.83l-.07-.06-.09-.06-.17-.11-2.6 3.63-.09.35-.11.33-.12.32-.12.32 3.37-4.72zm-17.71-8.14l.82-1.15-.15-.14-.07-.07-.09-.06-.49.67.01.18v.18l-.01.19-.02.2zm-2.56 3.56l-.01-.07-.02-.08-.03-.13-.03-.12-.04-.1-1.17 1.63-.01.17v.17l.01.17.01.18 1.29-1.82zm12.48-1l2.02-2.82-.17.05-.17.06-.17.08-.17.08-1.73 2.43.19.07.2.05zM13 20.09l1.41-1.98-.07-.08-.06-.09-.05-.09-.05-.1-1.33 1.85.07.24.08.25zm17.46-4.87l-1.68 2.39.14.12.08.07.07.07 1.87-2.62-.13-.02-.12-.01h-.23zm.77 5.95l3.32-4.64-.21-.02-.12-.01-.12-.01-3.03 4.22.08.23.04.12.04.11zm-16.81 1.96l8.73-12.2v-.23l-.01-.13-.01-.13-.03-.11-8.87 12.41.05.11.05.1.05.09.04.09zm-.95-1.86l.1.21.1.2 4.25-5.95.01-.21.01-.2.02-.2.05-.19.01-.01-2.43 3.38.01.15v.07l.01.07.02.09.01.05v.05l.01.03v.03h-.01l-.01-.01-.04-.01-.04-.01-.05-.02-.06-.02-.07-.02-.07-.04-1.83 2.56zm17.43-.91l2.81-3.91h-.19l-.14-.02-.15-.01-2.51 3.53.09.21.09.2zm-11.44-2.97l2.89-4.07-.01-.08v-.09l.01-.09.01-.09.02-.1.03-.09.03-.11.05-.1.06-.12.05-.11.06-.1.05-.1-8.12 11.35.03.07.02.06.01.07.01.05.01.09.01.07.01.07.01.07 1.98-2.78.1-.29.11-.29.12-.28.13-.27.14-.27.15-.26.16-.26.17-.25.19-.24.19-.23.19-.23.21-.22.22-.21.22-.2.24-.19.24-.18zm-2.81 8.28l-2.63 3.7h.25l.24-.01 2.3-3.21-.08-.23-.08-.25zm14.9-3.08l.03.31.02.29 2.46-3.43-.19-.08-.19-.08-2.13 2.99zm-13.6-8.87l-2.15 3.01-.05.25-.04.23-.04.22-.03.21 2.43-3.37-.02-.13-.02-.14-.04-.14-.04-.14zm4.87-4.25l-3.72 5.18v.04l-.04.27-.06.26-.08.24-.08.24 4.15-5.78-.05-.14-.03-.07-.03-.06-.02-.05-.02-.05-.02-.04v-.04zm-6.39 15.25l-3.32 4.63.12.01.12.01h.24l2.95-4.12-.06-.27-.05-.26zm13.87-5.45l.11.18.12.18 2.31-3.24-.24-.02-.22-.02-2.08 2.92zm-13.14 7.66l-.11-.2-.09-.2-2.02 2.83h.48l1.74-2.43zm17.57-6.85l-.07-.04-.08-.04-.1-.05-.1-.04-2.78 3.86v.2l-.01.19-.02.19-.02.19 2.16-3.03-.11-.05-.04-.03-.04-.01-.03-.02-.02-.01-.02-.01.01-.01.02-.01.03-.03.05-.03.08-.04.05-.03.05-.02.06-.03.06-.03.07-.02.08-.04.72-1.01zm-17.11-7.15l-1.3 1.83-.08.26-.08.28-.08.29-.07.29 1.82-2.56-.09-.2-.06-.09-.06-.1zm4.56 3.2l2.38-3.36-.12.05-.12.07-.16.08-.15.08-.13.08-.13.08-2.2 3.09.15-.05.16-.04.32-.08zm.52-2.01l-.05-.07-.06-.09-.06-.1-.06-.12-2.25 3.15.19-.1.19-.09.19-.09.19-.09 1.72-2.4zm11.7 13.02v-.01l-.02-.03-.02-.05-.03-.07-.03-.1-.04-.11-.11-.24-.29.39.11.06.1.05.09.04.07.03.04.01.04.01.03.01.02.01h.04zm4.98-.89l-.04-.1-.04-.11-.05-.11-.05-.12-.35.47.01.01v.01l.1.07.08.06.08.05.06.05.05.04.04.03.03.02.03.02.05.03.03.03.02.01.01.01v-.13l-.01-.06-.01-.08-.02-.09-.02-.11z" fill-rule="evenodd" fill="#e3b842"/><circle class="cls-1" cx="24.01" cy="23.53" r="7.65"/><circle class="cls-3" cx="24.01" cy="23.53" r="6.65"/><path class="cls-1" d="M17.37 20.76a1.17 1.17 0 000 .28.78.78 0 00.13.43c.09.12.15.08.22.2a.7.7 0 01.09.33v.2c0 .05.07 0 .09.09s0 .06 0 .09.18.13.3.14a.68.68 0 00.37-.09v.09c0 .04.19.32.29.35s0 .07 0 .1-.17 0-.2.07a.07.07 0 000 .05c0 .06.11.11.19.12s0 .07 0 .13a.16.16 0 00.05.1c.09.07.32 0 .38-.05a.17.17 0 01.11 0 .18.18 0 01.11.1c.08.16 0 .39-.1.41a.12.12 0 00-.07 0 .12.12 0 000 .07v.15c0 .03 0 0-.08.05s-.05.08-.1.14-.05 0-.13.1-.15.11-.16.18a.22.22 0 00.07.23c.06 0 .15 0 .2.05a.09.09 0 010 .06.35.35 0 00.22.31.24.24 0 00.18 0h.06c.06 0 0 0 0 0v.08c0 .06.11.09.11.1a.19.19 0 00.15 0 .21.21 0 00.08-.09v-.14a.22.22 0 01.27.1v.08c0 .08 0 0-.05 0s-.16 0-.18.1 0 .16.1.21.14 0 .26.08l.1.07a.5.5 0 00.15.07.86.86 0 00.42.1h.1c0 .14.4.41.52.41h.06s-.08.08-.14.1-.2 0-.24 0 0 .2 0 .28-.06 0-.09.07 0 .06 0 .14a.6.6 0 00.25.28s.22.12.3.05 0-.11.05-.22 0-.11 0-.14a.16.16 0 01.21 0 .11.11 0 010 .08c0 .09-.06.11-.08.19a.24.24 0 00.08.21c.06 0 .11 0 .13.07s-.11.14-.09.23.32.16.37.16.27 0 .34-.07 0-.09 0-.16a.39.39 0 01.42-.19h.13c.05 0 0 0 .11-.11a.55.55 0 00.1-.15v-.09a.11.11 0 01.1 0s.06 0 .13.17l.08.15c0 .18-.11.34-.06.4s0 0 .07 0 .11 0 .24-.12.13-.08.14-.08.08.11.18.13a.16.16 0 00.09 0c.08 0 .09-.1.16-.12a.14.14 0 01.09 0c.06 0 .05.08.11.16s.09.11.15.1.08-.08.09-.1-.09-.31-.07-.54a.12.12 0 010-.08c.05-.05.16 0 .25 0 .31.07.59-.09.79 0a.21.21 0 01.1.05s0 .08.07.12a.14.14 0 00.16 0l.06-.11v-.11c0-.06 0-.09.08-.11a.14.14 0 01.14 0 .13.13 0 01.06.1v.19a.14.14 0 010 .09h-.12a.35.35 0 00-.16.07.23.23 0 000 .34.37.37 0 00.54.16 2.79 2.79 0 00.24-.14.52.52 0 01.2-.08c.12 0 .13.06.24.06s.33-.14.39-.14a.3.3 0 00-.07.3v.07a.12.12 0 010 .08h-.07c-.07 0-.06 0-.07.07a.12.12 0 00.07.11c.08 0 .15-.05.29 0s.05 0 .13 0a.3.3 0 00.21 0 .28.28 0 00.12-.21.44.44 0 000-.21c0-.06-.05-.08 0-.11s.07 0 .1-.09a.19.19 0 000-.12v-.17a.17.17 0 01.05-.13.16.16 0 01.24.07v.15c0 .1-.05.16 0 .17s.09 0 .2 0a.46.46 0 01.26.13c.11.11.09.2.16.23s.29-.08.39-.2c.35-.42.12-1.21-.09-1.25s-.19.11-.3.06 0 0-.13-.1a.48.48 0 00-.15-.08c-.11 0-.15.06-.26 0s-.16-.07-.16-.14a.17.17 0 01.01-.13c.12 0 .18.08.3 0s.06-.06.14-.08.1 0 .14 0 0-.09.08-.19.06-.05.07-.09a.23.23 0 000-.21c-.11-.14-.36 0-.43-.16s0-.08 0-.18-.13-.17-.1-.23a.12.12 0 01.1-.06c.09 0 .13.08.23.11a.36.36 0 00.27-.05 1.3 1.3 0 00.49-.75h.14a.14.14 0 00.08-.15.18.18 0 00-.21-.14h-.08c-.03 0-.1-.2 0-.26s.09 0 .21 0h.12c.02 0 .13-.44-.08-.7a.75.75 0 00-.85-.2.1.1 0 01-.09-.1s.1 0 .12-.08 0-.16-.14-.22c-.24-.17-.6-.05-.61-.11s0 0 0-.07-.11-.18-.13-.2-.24-.06-.44-.13-.16-.12-.34-.21a1.4 1.4 0 00-.5-.14 1.84 1.84 0 01-1.08-.53c-.24-.33 0-.52-.17-.9a2 2 0 00-1.57-.71 1.1 1.1 0 01-.41 0c-.26-.09-.32-.27-.71-.57-.18-.13-.26-.2-.37-.2a.7.7 0 00-.57.3c-.06.09-.07.16-.16.2s-.2 0-.27.07 0 .08-.08.19a.48.48 0 01-.16.18.45.45 0 01-.29.07.33.33 0 01-.27-.16.28.28 0 010-.28c.07-.08.13-.06.2-.13a.31.31 0 000-.38c-.11-.09-.39.08-.52.18a.7.7 0 00-.2.22.62.62 0 00-.08.34c0 .12.05.16 0 .2s-.22 0-.46-.06c-.43 0-.68.22-.86.08s0-.09-.13-.18-.3-.18-.4-.12 0 .19-.15.25h-.15a1 1 0 00-.19 0c-.09 0-.12.11-.15.1s0-.16-.06-.25a.18.18 0 00-.2-.06c-.07 0-.08.16 0 .23s.08.09.25.24a.78.78 0 01.2.21c0 .08.08.2 0 .23s-.07 0-.15 0a.22.22 0 00-.13.1c-.05.11.09.22 0 .31a.17.17 0 01-.16.08c-.17 0-.3-.28-.35-.47s0-.38-.06-.4-.2.43-.26.78z"/><path class="cls-3" d="M24 20.56V21a2.65 2.65 0 012.5 2.5h-5.78v.39h5.75A2.65 2.65 0 0124 26.33v.47a3.12 3.12 0 000-6.23z"/><path class="cls-3" d="M21.21 23.26h4.91l-.12-.39h-4.7A2.66 2.66 0 0123.61 21v-.47a3.12 3.12 0 00-2.87 2.69h.47zm4.92.92h-5.38a3.12 3.12 0 002.86 2.61v-.47a2.66 2.66 0 01-2.28-1.75H26z"/></g></svg>