<?xml version="1.0" encoding="UTF-8"?>
<!DOCTYPE svg PUBLIC "-//W3C//DTD SVG 1.1//EN" "http://www.w3.org/Graphics/SVG/1.1/DTD/svg11.dtd">
<svg xmlns="http://www.w3.org/2000/svg" version="1.1" width="160px" height="160px" style="shape-rendering:geometricPrecision; text-rendering:geometricPrecision; image-rendering:optimizeQuality; fill-rule:evenodd; clip-rule:evenodd" xmlns:xlink="http://www.w3.org/1999/xlink">
<g><path style="opacity:0.996" fill="#dcdfe3" d="M -0.5,-0.5 C 52.8333,-0.5 106.167,-0.5 159.5,-0.5C 159.5,52.8333 159.5,106.167 159.5,159.5C 106.167,159.5 52.8333,159.5 -0.5,159.5C -0.5,106.167 -0.5,52.8333 -0.5,-0.5 Z"/></g>
<g><path style="opacity:1" fill="#36a45b" d="M 80.5,31.5 C 90.0282,42.4862 90.8615,54.1528 83,66.5C 74.8016,74.0263 68.135,82.693 63,92.5C 61.9393,97.1042 61.2727,101.771 61,106.5C 55.6802,98.2224 53.6802,89.2224 55,79.5C 55.5611,77.2746 56.5611,75.2746 58,73.5C 64.3744,66.7945 70.3744,59.7945 76,52.5C 79.8483,46.0103 81.3483,39.0103 80.5,31.5 Z"/></g>
<g><path style="opacity:1" fill="#fd100a" d="M 95.5,52.5 C 104.355,62.3666 105.855,73.3666 100,85.5C 93.428,92.9824 87.0946,100.649 81,108.5C 77.9283,114.453 76.2616,120.786 76,127.5C 70.8986,119.872 68.8986,111.539 70,102.5C 71.1395,98.8878 72.8061,95.5544 75,92.5C 80.3665,87.4682 85.3665,82.1349 90,76.5C 94.2072,69.0449 96.0405,61.0449 95.5,52.5 Z"/></g>
</svg>
