<svg xmlns="http://www.w3.org/2000/svg" viewBox="0 0 48 48"><path fill="#3679bc" d="M0 0h48v48H0z"/><linearGradient id="a" gradientUnits="userSpaceOnUse" x1="23.14" y1="753.311" x2="28.311" y2="753.168" gradientTransform="translate(0 -744)"><stop offset="0" stop-color="#37ad62"/><stop offset=".5" stop-color="#5ac3e3"/><stop offset="1" stop-color="#5770b4"/></linearGradient><path fill="url(#a)" d="M28.32 11.39V8.13L23.1 7.09V9.7z"/><linearGradient id="b" gradientUnits="userSpaceOnUse" x1="28.325" y1="757.288" x2="14.94" y2="757.288" gradientTransform="translate(0 -744)"><stop offset="0" stop-color="#fee95f"/><stop offset=".5" stop-color="#3aaa35"/><stop offset="1" stop-color="#3b2783"/></linearGradient><path fill="url(#b)" d="M14.88 9.83v8.62l13.44-7.06V8.13z"/><linearGradient id="c" gradientUnits="userSpaceOnUse" x1="33.091" y1="758.136" x2="14.927" y2="758.136" gradientTransform="translate(0 -744)"><stop offset="0" stop-color="#5770b4"/><stop offset=".5" stop-color="#5ac3e3"/><stop offset="1" stop-color="#37ad62"/></linearGradient><path fill="url(#c)" d="M14.88 9.83v8.62l18.28-1.05v-3.66z"/><linearGradient id="d" gradientUnits="userSpaceOnUse" x1="33.091" y1="770.868" x2="20.229" y2="770.868" gradientTransform="translate(0 -744)"><stop offset="0" stop-color="#fee95f"/><stop offset=".5" stop-color="#3aaa35"/><stop offset="1" stop-color="#3b2783"/></linearGradient><path fill="url(#d)" d="M33.16 17.4v-3.66l-12.93 7.32v18.93z"/><path d="M22.32 6.17v1.96l-8.23 1.04v10.05l8.62-.52-3.26 1.83v22.2L33.81 17.4v-4.31l-5.09-1.04.26-.13V7.48l-6.66-1.31zm.78.92l5.22 1.04v3.26l-1.7.91 6.53 1.44v3.66L20.23 40.12V21.06l5.75-3.26-11.1.65V9.83l8.23-1.04v-1.7z" fill="#fff"/></svg>