<?xml version="1.0" encoding="UTF-8"?>
<!DOCTYPE svg PUBLIC "-//W3C//DTD SVG 1.1//EN" "http://www.w3.org/Graphics/SVG/1.1/DTD/svg11.dtd">
<svg xmlns="http://www.w3.org/2000/svg" version="1.1" width="160px" height="160px" style="shape-rendering:geometricPrecision; text-rendering:geometricPrecision; image-rendering:optimizeQuality; fill-rule:evenodd; clip-rule:evenodd" xmlns:xlink="http://www.w3.org/1999/xlink">
<g><path style="opacity:1" fill="#ed1f26" d="M -0.5,-0.5 C 52.8333,-0.5 106.167,-0.5 159.5,-0.5C 159.5,52.8333 159.5,106.167 159.5,159.5C 106.167,159.5 52.8333,159.5 -0.5,159.5C -0.5,106.167 -0.5,52.8333 -0.5,-0.5 Z"/></g>
<g><path style="opacity:1" fill="#ffe9e9" d="M 24.5,38.5 C 25.675,38.281 26.675,38.6143 27.5,39.5C 25.9483,40.7979 24.9483,40.4646 24.5,38.5 Z"/></g>
<g><path style="opacity:1" fill="#fef1f1" d="M 33.5,38.5 C 34.675,38.281 35.675,38.6143 36.5,39.5C 34.9483,40.7979 33.9483,40.4646 33.5,38.5 Z"/></g>
<g><path style="opacity:1" fill="#feeff0" d="M 51.5,38.5 C 52.675,38.281 53.675,38.6143 54.5,39.5C 52.9483,40.7979 51.9483,40.4646 51.5,38.5 Z"/></g>
<g><path style="opacity:1" fill="#ffe9ea" d="M 60.5,38.5 C 61.675,38.281 62.675,38.6143 63.5,39.5C 61.9483,40.7979 60.9483,40.4646 60.5,38.5 Z"/></g>
<g><path style="opacity:1" fill="#fefffe" d="M 69.5,38.5 C 71.337,38.6395 71.6704,39.3061 70.5,40.5C 69.7025,40.0431 69.3691,39.3764 69.5,38.5 Z"/></g>
<g><path style="opacity:1" fill="#fefffe" d="M 78.5,38.5 C 80.337,38.6395 80.6704,39.3061 79.5,40.5C 78.7025,40.0431 78.3691,39.3764 78.5,38.5 Z"/></g>
<g><path style="opacity:1" fill="#ffd0d0" d="M 86.5,38.5 C 87.5,38.5 88.5,38.5 89.5,38.5C 88.7542,42.31 87.7542,42.31 86.5,38.5 Z"/></g>
<g><path style="opacity:1" fill="#feecec" d="M 95.5,38.5 C 96.675,38.281 97.675,38.6143 98.5,39.5C 96.9483,40.7979 95.9483,40.4646 95.5,38.5 Z"/></g>
<g><path style="opacity:1" fill="#feebeb" d="M 122.5,38.5 C 123.675,38.281 124.675,38.6143 125.5,39.5C 123.948,40.7979 122.948,40.4646 122.5,38.5 Z"/></g>
<g><path style="opacity:1" fill="#ffd4d4" d="M 131.5,38.5 C 134.957,38.6672 135.29,39.6672 132.5,41.5C 131.614,40.675 131.281,39.675 131.5,38.5 Z"/></g>
<g><path style="opacity:1" fill="#fde8e9" d="M 42.5,38.5 C 43.675,38.281 44.675,38.6143 45.5,39.5C 43.9483,40.7979 42.9483,40.4646 42.5,38.5 Z"/></g>
<g><path style="opacity:1" fill="#feebeb" d="M 104.5,38.5 C 105.675,38.281 106.675,38.6143 107.5,39.5C 105.948,40.7979 104.948,40.4646 104.5,38.5 Z"/></g>
<g><path style="opacity:1" fill="#fef1f1" d="M 113.5,38.5 C 114.675,38.281 115.675,38.6143 116.5,39.5C 114.948,40.7979 113.948,40.4646 113.5,38.5 Z"/></g>
<g><path style="opacity:1" fill="#fee6e6" d="M 33.5,46.5 C 35.3464,46.2222 36.6798,46.8888 37.5,48.5C 36.6798,50.1112 35.3464,50.7778 33.5,50.5C 33.5,49.1667 33.5,47.8333 33.5,46.5 Z"/></g>
<g><path style="opacity:1" fill="#ffd9d9" d="M 42.5,46.5 C 45.1662,46.0658 46.3329,47.0658 46,49.5C 42.4034,51.0661 41.2368,50.0661 42.5,46.5 Z"/></g>
<g><path style="opacity:1" fill="#fee6e6" d="M 51.5,46.5 C 52.5,46.5 53.5,46.5 54.5,46.5C 54.5,47.8333 54.5,49.1667 54.5,50.5C 51.0464,50.7332 50.0464,49.3999 51.5,46.5 Z"/></g>
<g><path style="opacity:1" fill="#ffe6e6" d="M 60.5,46.5 C 61.5,46.5 62.5,46.5 63.5,46.5C 63.5,47.8333 63.5,49.1667 63.5,50.5C 60.0464,50.7332 59.0464,49.3999 60.5,46.5 Z"/></g>
<g><path style="opacity:1" fill="#fff0f0" d="M 69.5,46.5 C 70.5,46.5 71.5,46.5 72.5,46.5C 72.4261,50.5412 71.0928,51.2079 68.5,48.5C 68.8627,47.8165 69.1961,47.1499 69.5,46.5 Z"/></g>
<g><path style="opacity:1" fill="#fef8f8" d="M 78.5,46.5 C 81.8606,47.2032 82.1939,48.5365 79.5,50.5C 77.3576,49.5629 77.0243,48.2296 78.5,46.5 Z"/></g>
<g><path style="opacity:1" fill="#ffeeee" d="M 86.5,46.5 C 89.1662,46.0658 90.3329,47.0658 90,49.5C 87.3422,50.694 86.1756,49.694 86.5,46.5 Z"/></g>
<g><path style="opacity:1" fill="#fee8e8" d="M 95.5,46.5 C 97.3464,46.2222 98.6798,46.8888 99.5,48.5C 98.6798,50.1112 97.3464,50.7778 95.5,50.5C 95.5,49.1667 95.5,47.8333 95.5,46.5 Z"/></g>
<g><path style="opacity:1" fill="#fee3e4" d="M 104.5,46.5 C 106.346,46.2222 107.68,46.8888 108.5,48.5C 107.68,50.1112 106.346,50.7778 104.5,50.5C 104.5,49.1667 104.5,47.8333 104.5,46.5 Z"/></g>
<g><path style="opacity:1" fill="#ffd9d9" d="M 113.5,46.5 C 116.166,46.0658 117.333,47.0658 117,49.5C 113.403,51.0661 112.237,50.0661 113.5,46.5 Z"/></g>
<g><path style="opacity:1" fill="#fee4e5" d="M 122.5,46.5 C 123.5,46.5 124.5,46.5 125.5,46.5C 125.5,47.8333 125.5,49.1667 125.5,50.5C 122.046,50.7332 121.046,49.3999 122.5,46.5 Z"/></g>
<g><path style="opacity:1" fill="#ffe6e7" d="M 24.5,47.5 C 25.675,47.281 26.675,47.6143 27.5,48.5C 25.9483,49.7979 24.9483,49.4646 24.5,47.5 Z"/></g>
<g><path style="opacity:1" fill="#ffe8e8" d="M 131.5,47.5 C 132.675,47.281 133.675,47.6143 134.5,48.5C 132.948,49.7979 131.948,49.4646 131.5,47.5 Z"/></g>
<g><path style="opacity:1" fill="#fff0f1" d="M 41.5,54.5 C 46.3855,53.4048 48.0522,55.0715 46.5,59.5C 41.8029,60.803 40.1362,59.1363 41.5,54.5 Z"/></g>
<g><path style="opacity:1" fill="#ffeded" d="M 50.5,54.5 C 56.2093,53.6779 57.5427,55.5112 54.5,60C 49.7282,60.8104 48.3948,58.9771 50.5,54.5 Z"/></g>
<g><path style="opacity:1" fill="#fff0f1" d="M 59.5,54.5 C 61.288,54.2148 62.9547,54.5481 64.5,55.5C 65.3853,59.4427 63.7186,60.9427 59.5,60C 58.2475,58.1722 58.2475,56.3388 59.5,54.5 Z"/></g>
<g><path style="opacity:1" fill="#fff3f3" d="M 69.5,53.5 C 73.4735,54.0755 74.4735,56.2421 72.5,60C 67.1483,60.1754 66.1483,58.0087 69.5,53.5 Z"/></g>
<g><path style="opacity:1" fill="#ffeded" d="M 86.5,53.5 C 90.9764,53.8003 92.3097,55.9669 90.5,60C 84.7377,60.4178 83.4044,58.2511 86.5,53.5 Z"/></g>
<g><path style="opacity:1" fill="#ffeeee" d="M 94.5,54.5 C 99.1225,53.4082 100.956,55.0748 100,59.5C 95.0792,61.077 93.2459,59.4103 94.5,54.5 Z"/></g>
<g><path style="opacity:1" fill="#ffeeee" d="M 103.5,54.5 C 108.123,53.4082 109.956,55.0748 109,59.5C 104.079,61.077 102.246,59.4103 103.5,54.5 Z"/></g>
<g><path style="opacity:1" fill="#ffefef" d="M 112.5,54.5 C 118.209,53.6779 119.543,55.5112 116.5,60C 111.728,60.8104 110.395,58.9771 112.5,54.5 Z"/></g>
<g><path style="opacity:1" fill="#ffe4e5" d="M 33.5,55.5 C 35.3464,55.2222 36.6798,55.8888 37.5,57.5C 36.6798,59.1112 35.3464,59.7778 33.5,59.5C 33.5,58.1667 33.5,56.8333 33.5,55.5 Z"/></g>
<g><path style="opacity:1" fill="#ffe5e5" d="M 122.5,55.5 C 123.5,55.5 124.5,55.5 125.5,55.5C 125.5,56.8333 125.5,58.1667 125.5,59.5C 122.046,59.7332 121.046,58.3999 122.5,55.5 Z"/></g>
<g><path style="opacity:1" fill="#ffd4d4" d="M 25.5,55.5 C 27.0481,55.8212 27.7148,56.8212 27.5,58.5C 24.7524,58.5983 24.0857,57.5983 25.5,55.5 Z"/></g>
<g><path style="opacity:1" fill="#ffd6d7" d="M 131.5,55.5 C 135.31,56.7542 135.31,57.7542 131.5,58.5C 131.5,57.5 131.5,56.5 131.5,55.5 Z"/></g>
<g><path style="opacity:1" fill="#fff1f1" d="M 68.5,62.5 C 73.2137,62.2008 74.8804,64.2008 73.5,68.5C 67.2899,69.9673 65.6232,67.9673 68.5,62.5 Z"/></g>
<g><path style="opacity:1" fill="#fff2f2" d="M 81.5,78.5 C 80.1667,78.5 78.8333,78.5 77.5,78.5C 75.5589,76.9894 75.0589,74.9894 76,72.5C 76.7504,71.8742 77.5838,71.3742 78.5,71C 74.5966,67.7209 74.5966,64.3876 78.5,61C 75.8003,60.0508 74.967,58.2175 76,55.5C 79.4933,52.4982 81.9933,53.1649 83.5,57.5C 83.4096,59.4251 82.4096,60.5917 80.5,61C 84.5,64.3333 84.5,67.6667 80.5,71C 82.646,71.4788 83.646,72.8121 83.5,75C 83.6134,76.6991 82.9468,77.8658 81.5,78.5 Z"/></g>
<g><path style="opacity:1" fill="#ffefef" d="M 86.5,62.5 C 92.0159,62.4734 93.3492,64.64 90.5,69C 84.3389,69.878 83.0055,67.7113 86.5,62.5 Z"/></g>
<g><path style="opacity:1" fill="#ffeeee" d="M 42.5,62.5 C 47.4928,62.997 48.4928,65.1637 45.5,69C 40.3823,68.8242 39.3823,66.6576 42.5,62.5 Z"/></g>
<g><path style="opacity:1" fill="#ffecec" d="M 51.5,62.5 C 56.4928,62.997 57.4928,65.1637 54.5,69C 49.3823,68.8242 48.3823,66.6576 51.5,62.5 Z"/></g>
<g><path style="opacity:1" fill="#ffe8e8" d="M 60.5,62.5 C 65.4928,62.997 66.4928,65.1637 63.5,69C 58.1483,69.1754 57.1483,67.0087 60.5,62.5 Z"/></g>
<g><path style="opacity:1" fill="#ffe7e7" d="M 95.5,62.5 C 99.9764,62.8003 101.31,64.9669 99.5,69C 93.7377,69.4178 92.4044,67.2511 95.5,62.5 Z"/></g>
<g><path style="opacity:1" fill="#ffedee" d="M 104.5,62.5 C 109.493,62.997 110.493,65.1637 107.5,69C 102.382,68.8242 101.382,66.6576 104.5,62.5 Z"/></g>
<g><path style="opacity:1" fill="#ffeded" d="M 113.5,62.5 C 118.493,62.997 119.493,65.1637 116.5,69C 111.382,68.8242 110.382,66.6576 113.5,62.5 Z"/></g>
<g><path style="opacity:1" fill="#ffe1e1" d="M 33.5,64.5 C 35.3464,64.2222 36.6798,64.8888 37.5,66.5C 36.6798,68.1112 35.3464,68.7778 33.5,68.5C 33.5,67.1667 33.5,65.8333 33.5,64.5 Z"/></g>
<g><path style="opacity:1" fill="#ffe7e7" d="M 122.5,64.5 C 123.5,64.5 124.5,64.5 125.5,64.5C 125.426,68.5412 124.093,69.2079 121.5,66.5C 121.863,65.8165 122.196,65.1499 122.5,64.5 Z"/></g>
<g><path style="opacity:1" fill="#ffd4d4" d="M 25.5,64.5 C 27.0481,64.8212 27.7148,65.8212 27.5,67.5C 24.7524,67.5983 24.0857,66.5983 25.5,64.5 Z"/></g>
<g><path style="opacity:1" fill="#ffd7d7" d="M 131.5,64.5 C 135.31,65.7542 135.31,66.7542 131.5,67.5C 131.5,66.5 131.5,65.5 131.5,64.5 Z"/></g>
<g><path style="opacity:1" fill="#ffecec" d="M 69.5,71.5 C 73.4735,72.0755 74.4735,74.2421 72.5,78C 69.4333,79.1642 67.7666,78.1642 67.5,75C 67.8618,73.5657 68.5285,72.3991 69.5,71.5 Z"/></g>
<g><path style="opacity:1" fill="#ffefef" d="M 86.5,71.5 C 90.9764,71.8003 92.3097,73.9669 90.5,78C 85.5705,78.427 84.2372,76.2604 86.5,71.5 Z"/></g>
<g><path style="opacity:1" fill="#ffe9e9" d="M 33.5,73.5 C 34.8333,73.5 36.1667,73.5 37.5,73.5C 37.5,74.5 37.5,75.5 37.5,76.5C 36.1667,76.5 34.8333,76.5 33.5,76.5C 33.5,75.5 33.5,74.5 33.5,73.5 Z"/></g>
<g><path style="opacity:1" fill="#fffefe" d="M 42.5,73.5 C 43.5,73.5 44.5,73.5 45.5,73.5C 45.5,74.5 45.5,75.5 45.5,76.5C 44.5,76.5 43.5,76.5 42.5,76.5C 42.5,75.5 42.5,74.5 42.5,73.5 Z"/></g>
<g><path style="opacity:1" fill="#ffdfdf" d="M 50.5,73.5 C 51.8333,73.5 53.1667,73.5 54.5,73.5C 54.7778,75.3464 54.1112,76.6798 52.5,77.5C 50.8888,76.6798 50.2222,75.3464 50.5,73.5 Z"/></g>
<g><path style="opacity:1" fill="#ffe4e4" d="M 59.5,73.5 C 60.8333,73.5 62.1667,73.5 63.5,73.5C 63.7778,75.3464 63.1112,76.6798 61.5,77.5C 59.8888,76.6798 59.2222,75.3464 59.5,73.5 Z"/></g>
<g><path style="opacity:1" fill="#ffe2e1" d="M 95.5,73.5 C 96.8333,73.5 98.1667,73.5 99.5,73.5C 99.7778,75.3464 99.1112,76.6798 97.5,77.5C 95.8888,76.6798 95.2222,75.3464 95.5,73.5 Z"/></g>
<g><path style="opacity:1" fill="#ffe9e8" d="M 104.5,73.5 C 105.833,73.5 107.167,73.5 108.5,73.5C 108.5,74.5 108.5,75.5 108.5,76.5C 107.167,76.5 105.833,76.5 104.5,76.5C 104.5,75.5 104.5,74.5 104.5,73.5 Z"/></g>
<g><path style="opacity:1" fill="#fefffe" d="M 113.5,73.5 C 114.5,73.5 115.5,73.5 116.5,73.5C 116.5,74.5 116.5,75.5 116.5,76.5C 115.5,76.5 114.5,76.5 113.5,76.5C 113.5,75.5 113.5,74.5 113.5,73.5 Z"/></g>
<g><path style="opacity:1" fill="#ffdfdf" d="M 121.5,73.5 C 122.833,73.5 124.167,73.5 125.5,73.5C 125.778,75.3464 125.111,76.6798 123.5,77.5C 121.889,76.6798 121.222,75.3464 121.5,73.5 Z"/></g>
<g><path style="opacity:1" fill="#fee3e3" d="M 25.5,73.5 C 27.4646,73.9483 27.7979,74.9483 26.5,76.5C 24.4807,75.8671 24.1474,74.8671 25.5,73.5 Z"/></g>
<g><path style="opacity:1" fill="#fee7e7" d="M 131.5,73.5 C 134.674,73.9522 135.007,74.9522 132.5,76.5C 131.614,75.675 131.281,74.675 131.5,73.5 Z"/></g>
<g><path style="opacity:1" fill="#f89295" d="M 77.5,78.5 C 78.8333,78.5 80.1667,78.5 81.5,78.5C 81.5,79.1667 81.5,79.8333 81.5,80.5C 80.1667,80.5 78.8333,80.5 77.5,80.5C 77.5,79.8333 77.5,79.1667 77.5,78.5 Z"/></g>
<g><path style="opacity:1" fill="#ffeeee" d="M 77.5,80.5 C 78.8333,80.5 80.1667,80.5 81.5,80.5C 83.4411,82.0106 83.9411,84.0106 83,86.5C 82.2496,87.1258 81.4162,87.6258 80.5,88C 84.7237,91.565 84.3904,94.3983 79.5,96.5C 74.6096,94.3983 74.2763,91.565 78.5,88C 76.354,87.5212 75.354,86.1879 75.5,84C 75.3866,82.3009 76.0532,81.1342 77.5,80.5 Z"/></g>
<g><path style="opacity:1" fill="#ffe9e9" d="M 68.5,80.5 C 73.3276,80.3852 74.6609,82.5519 72.5,87C 67.5705,87.427 66.2372,85.2604 68.5,80.5 Z"/></g>
<g><path style="opacity:1" fill="#ffeeef" d="M 86.5,80.5 C 91.7473,80.6398 92.7473,82.8064 89.5,87C 88.2161,87.6838 87.0495,87.5171 86,86.5C 85.3224,84.4024 85.4891,82.4024 86.5,80.5 Z"/></g>
<g><path style="opacity:1" fill="#fedbdb" d="M 24.5,82.5 C 25.5,82.5 26.5,82.5 27.5,82.5C 26.7542,86.31 25.7542,86.31 24.5,82.5 Z"/></g>
<g><path style="opacity:1" fill="#ffe8e8" d="M 33.5,82.5 C 34.8333,82.5 36.1667,82.5 37.5,82.5C 37.5,83.5 37.5,84.5 37.5,85.5C 36.1667,85.5 34.8333,85.5 33.5,85.5C 33.5,84.5 33.5,83.5 33.5,82.5 Z"/></g>
<g><path style="opacity:1" fill="#fffefe" d="M 42.5,82.5 C 43.5,82.5 44.5,82.5 45.5,82.5C 45.5,83.5 45.5,84.5 45.5,85.5C 44.5,85.5 43.5,85.5 42.5,85.5C 42.5,84.5 42.5,83.5 42.5,82.5 Z"/></g>
<g><path style="opacity:1" fill="#ffdfdf" d="M 51.5,81.5 C 53.9118,81.6941 54.9118,83.0274 54.5,85.5C 53.1667,85.5 51.8333,85.5 50.5,85.5C 50.4326,84.0413 50.7659,82.7079 51.5,81.5 Z"/></g>
<g><path style="opacity:1" fill="#ffd9d9" d="M 60.5,81.5 C 63.9563,82.5362 64.2896,84.2029 61.5,86.5C 59.2957,85.218 58.9624,83.5514 60.5,81.5 Z"/></g>
<g><path style="opacity:1" fill="#ffe0e0" d="M 96.5,81.5 C 98.9118,81.6941 99.9118,83.0274 99.5,85.5C 98.1667,85.5 96.8333,85.5 95.5,85.5C 95.4326,84.0413 95.7659,82.7079 96.5,81.5 Z"/></g>
<g><path style="opacity:1" fill="#ffe9e9" d="M 104.5,82.5 C 105.833,82.5 107.167,82.5 108.5,82.5C 108.5,83.5 108.5,84.5 108.5,85.5C 107.167,85.5 105.833,85.5 104.5,85.5C 104.5,84.5 104.5,83.5 104.5,82.5 Z"/></g>
<g><path style="opacity:1" fill="#fffefe" d="M 113.5,82.5 C 114.5,82.5 115.5,82.5 116.5,82.5C 116.5,83.5 116.5,84.5 116.5,85.5C 115.5,85.5 114.5,85.5 113.5,85.5C 113.5,84.5 113.5,83.5 113.5,82.5 Z"/></g>
<g><path style="opacity:1" fill="#ffdfde" d="M 122.5,81.5 C 124.912,81.6941 125.912,83.0274 125.5,85.5C 124.167,85.5 122.833,85.5 121.5,85.5C 121.433,84.0413 121.766,82.7079 122.5,81.5 Z"/></g>
<g><path style="opacity:1" fill="#ffdddd" d="M 131.5,82.5 C 134.957,82.6672 135.29,83.6672 132.5,85.5C 131.614,84.675 131.281,83.675 131.5,82.5 Z"/></g>
<g><path style="opacity:1" fill="#ffefef" d="M 68.5,89.5 C 73.3276,89.3852 74.6609,91.5519 72.5,96C 67.7915,96.082 66.4582,93.9154 68.5,89.5 Z"/></g>
<g><path style="opacity:1" fill="#ffeded" d="M 86.5,89.5 C 91.7473,89.6398 92.7473,91.8064 89.5,96C 88.2161,96.6838 87.0495,96.5171 86,95.5C 85.3224,93.4024 85.4891,91.4024 86.5,89.5 Z"/></g>
<g><path style="opacity:1" fill="#fed7d8" d="M 24.5,91.5 C 25.5,91.5 26.5,91.5 27.5,91.5C 26.7542,95.31 25.7542,95.31 24.5,91.5 Z"/></g>
<g><path style="opacity:1" fill="#ffe2e2" d="M 33.5,90.5 C 35.3464,90.2222 36.6798,90.8888 37.5,92.5C 36.6798,94.1112 35.3464,94.7778 33.5,94.5C 33.5,93.1667 33.5,91.8333 33.5,90.5 Z"/></g>
<g><path style="opacity:1" fill="#ffd8d7" d="M 42.5,90.5 C 45.1662,90.0658 46.3329,91.0658 46,93.5C 42.4034,95.0661 41.2368,94.0661 42.5,90.5 Z"/></g>
<g><path style="opacity:1" fill="#ffe4e4" d="M 51.5,90.5 C 52.5,90.5 53.5,90.5 54.5,90.5C 54.5,91.8333 54.5,93.1667 54.5,94.5C 51.0464,94.7332 50.0464,93.3999 51.5,90.5 Z"/></g>
<g><path style="opacity:1" fill="#ffe6e6" d="M 60.5,90.5 C 62.9118,90.6941 63.9118,92.0274 63.5,94.5C 62.1667,94.5 60.8333,94.5 59.5,94.5C 59.4326,93.0413 59.7659,91.7079 60.5,90.5 Z"/></g>
<g><path style="opacity:1" fill="#ffe1e1" d="M 95.5,90.5 C 98.5,90.1667 99.8333,91.5 99.5,94.5C 98.1667,94.5 96.8333,94.5 95.5,94.5C 95.5,93.1667 95.5,91.8333 95.5,90.5 Z"/></g>
<g><path style="opacity:1" fill="#ffe3e3" d="M 104.5,90.5 C 106.346,90.2222 107.68,90.8888 108.5,92.5C 107.68,94.1112 106.346,94.7778 104.5,94.5C 104.5,93.1667 104.5,91.8333 104.5,90.5 Z"/></g>
<g><path style="opacity:1" fill="#ffd6d5" d="M 113.5,90.5 C 116.166,90.0658 117.333,91.0658 117,93.5C 113.403,95.0661 112.237,94.0661 113.5,90.5 Z"/></g>
<g><path style="opacity:1" fill="#ffe3e3" d="M 122.5,90.5 C 123.5,90.5 124.5,90.5 125.5,90.5C 125.5,91.8333 125.5,93.1667 125.5,94.5C 122.046,94.7332 121.046,93.3999 122.5,90.5 Z"/></g>
<g><path style="opacity:1" fill="#fedbdb" d="M 131.5,91.5 C 134.957,91.6672 135.29,92.6672 132.5,94.5C 131.614,93.675 131.281,92.675 131.5,91.5 Z"/></g>
<g><path style="opacity:1" fill="#fff0f0" d="M 68.5,98.5 C 73.2411,98.1614 74.5744,100.161 72.5,104.5C 67.8268,105.128 66.4935,103.128 68.5,98.5 Z"/></g>
<g><path style="opacity:1" fill="#fff0f0" d="M 77.5,98.5 C 82.2411,98.1614 83.5744,100.161 81.5,104.5C 78.8489,105.842 77.1823,105.008 76.5,102C 76.6483,100.744 76.9816,99.5774 77.5,98.5 Z"/></g>
<g><path style="opacity:1" fill="#ffecec" d="M 86.5,98.5 C 90.6772,97.8416 92.1772,99.5082 91,103.5C 88.1306,106.009 85.964,105.342 84.5,101.5C 85.1925,100.482 85.8592,99.4822 86.5,98.5 Z"/></g>
<g><path style="opacity:1" fill="#ffd5d5" d="M 24.5,100.5 C 25.5,100.5 26.5,100.5 27.5,100.5C 26.7542,104.31 25.7542,104.31 24.5,100.5 Z"/></g>
<g><path style="opacity:1" fill="#ffe5e6" d="M 33.5,99.5 C 35.3464,99.2222 36.6798,99.8888 37.5,101.5C 36.6798,103.111 35.3464,103.778 33.5,103.5C 33.5,102.167 33.5,100.833 33.5,99.5 Z"/></g>
<g><path style="opacity:1" fill="#ffdcdc" d="M 42.5,99.5 C 45.1662,99.0658 46.3329,100.066 46,102.5C 42.4034,104.066 41.2368,103.066 42.5,99.5 Z"/></g>
<g><path style="opacity:1" fill="#fee7e7" d="M 51.5,99.5 C 52.5,99.5 53.5,99.5 54.5,99.5C 54.5,100.833 54.5,102.167 54.5,103.5C 51.0464,103.733 50.0464,102.4 51.5,99.5 Z"/></g>
<g><path style="opacity:1" fill="#feeeef" d="M 60.5,99.5 C 62.9118,99.6941 63.9118,101.027 63.5,103.5C 60.0464,103.733 59.0464,102.4 60.5,99.5 Z"/></g>
<g><path style="opacity:1" fill="#fee8e8" d="M 95.5,99.5 C 97.3464,99.2222 98.6798,99.8888 99.5,101.5C 98.6798,103.111 97.3464,103.778 95.5,103.5C 95.5,102.167 95.5,100.833 95.5,99.5 Z"/></g>
<g><path style="opacity:1" fill="#ffe5e6" d="M 104.5,99.5 C 106.346,99.2222 107.68,99.8888 108.5,101.5C 107.68,103.111 106.346,103.778 104.5,103.5C 104.5,102.167 104.5,100.833 104.5,99.5 Z"/></g>
<g><path style="opacity:1" fill="#ffdada" d="M 113.5,99.5 C 116.166,99.0658 117.333,100.066 117,102.5C 113.403,104.066 112.237,103.066 113.5,99.5 Z"/></g>
<g><path style="opacity:1" fill="#ffe7e7" d="M 122.5,99.5 C 123.5,99.5 124.5,99.5 125.5,99.5C 125.5,100.833 125.5,102.167 125.5,103.5C 122.046,103.733 121.046,102.4 122.5,99.5 Z"/></g>
<g><path style="opacity:1" fill="#ffd9d9" d="M 131.5,100.5 C 134.957,100.667 135.29,101.667 132.5,103.5C 131.614,102.675 131.281,101.675 131.5,100.5 Z"/></g>
<g><path style="opacity:1" fill="#ffd9d9" d="M 42.5,108.5 C 45.1662,108.066 46.3329,109.066 46,111.5C 42.4034,113.066 41.2368,112.066 42.5,108.5 Z"/></g>
<g><path style="opacity:1" fill="#fee3e4" d="M 104.5,108.5 C 106.346,108.222 107.68,108.889 108.5,110.5C 107.68,112.111 106.346,112.778 104.5,112.5C 104.5,111.167 104.5,109.833 104.5,108.5 Z"/></g>
<g><path style="opacity:1" fill="#ffdada" d="M 113.5,108.5 C 116.166,108.066 117.333,109.066 117,111.5C 113.403,113.066 112.237,112.066 113.5,108.5 Z"/></g>
<g><path style="opacity:1" fill="#fee5e5" d="M 122.5,108.5 C 123.5,108.5 124.5,108.5 125.5,108.5C 125.5,109.833 125.5,111.167 125.5,112.5C 122.046,112.733 121.046,111.4 122.5,108.5 Z"/></g>
<g><path style="opacity:1" fill="#ffe7e8" d="M 24.5,109.5 C 25.675,109.281 26.675,109.614 27.5,110.5C 25.9483,111.798 24.9483,111.465 24.5,109.5 Z"/></g>
<g><path style="opacity:1" fill="#fee8e9" d="M 33.5,108.5 C 35.3464,108.222 36.6798,108.889 37.5,110.5C 36.6798,112.111 35.3464,112.778 33.5,112.5C 33.5,111.167 33.5,109.833 33.5,108.5 Z"/></g>
<g><path style="opacity:1" fill="#fee9ea" d="M 51.5,108.5 C 52.5,108.5 53.5,108.5 54.5,108.5C 54.5,109.833 54.5,111.167 54.5,112.5C 51.0464,112.733 50.0464,111.4 51.5,108.5 Z"/></g>
<g><path style="opacity:1" fill="#ffe8e8" d="M 60.5,108.5 C 61.5,108.5 62.5,108.5 63.5,108.5C 63.5,109.833 63.5,111.167 63.5,112.5C 60.0464,112.733 59.0464,111.4 60.5,108.5 Z"/></g>
<g><path style="opacity:1" fill="#fff0f0" d="M 69.5,108.5 C 71.9118,108.694 72.9118,110.027 72.5,112.5C 69.0464,112.733 68.0464,111.4 69.5,108.5 Z"/></g>
<g><path style="opacity:1" fill="#fef8f9" d="M 78.5,108.5 C 81.8606,109.203 82.1939,110.537 79.5,112.5C 77.3576,111.563 77.0243,110.23 78.5,108.5 Z"/></g>
<g><path style="opacity:1" fill="#ffeaea" d="M 86.5,108.5 C 88.3464,108.222 89.6798,108.889 90.5,110.5C 89.6798,112.111 88.3464,112.778 86.5,112.5C 86.5,111.167 86.5,109.833 86.5,108.5 Z"/></g>
<g><path style="opacity:1" fill="#feebeb" d="M 95.5,108.5 C 97.3464,108.222 98.6798,108.889 99.5,110.5C 98.6798,112.111 97.3464,112.778 95.5,112.5C 95.5,111.167 95.5,109.833 95.5,108.5 Z"/></g>
<g><path style="opacity:1" fill="#ffe8e8" d="M 131.5,109.5 C 132.675,109.281 133.675,109.614 134.5,110.5C 132.948,111.798 131.948,111.465 131.5,109.5 Z"/></g>
<g><path style="opacity:1" fill="#ffe6e6" d="M 24.5,118.5 C 25.675,118.281 26.675,118.614 27.5,119.5C 25.9483,120.798 24.9483,120.465 24.5,118.5 Z"/></g>
<g><path style="opacity:1" fill="#fef0f0" d="M 33.5,118.5 C 34.675,118.281 35.675,118.614 36.5,119.5C 34.9483,120.798 33.9483,120.465 33.5,118.5 Z"/></g>
<g><path style="opacity:1" fill="#feecec" d="M 42.5,118.5 C 43.675,118.281 44.675,118.614 45.5,119.5C 43.9483,120.798 42.9483,120.465 42.5,118.5 Z"/></g>
<g><path style="opacity:1" fill="#feefef" d="M 51.5,118.5 C 52.675,118.281 53.675,118.614 54.5,119.5C 52.9483,120.798 51.9483,120.465 51.5,118.5 Z"/></g>
<g><path style="opacity:1" fill="#ffe8e8" d="M 60.5,118.5 C 61.675,118.281 62.675,118.614 63.5,119.5C 61.9483,120.798 60.9483,120.465 60.5,118.5 Z"/></g>
<g><path style="opacity:1" fill="#fefffe" d="M 69.5,118.5 C 71.337,118.639 71.6704,119.306 70.5,120.5C 69.7025,120.043 69.3691,119.376 69.5,118.5 Z"/></g>
<g><path style="opacity:1" fill="#fefffe" d="M 78.5,118.5 C 80.337,118.639 80.6704,119.306 79.5,120.5C 78.7025,120.043 78.3691,119.376 78.5,118.5 Z"/></g>
<g><path style="opacity:1" fill="#ffe3e3" d="M 86.5,118.5 C 87.675,118.281 88.675,118.614 89.5,119.5C 87.9483,120.798 86.9483,120.465 86.5,118.5 Z"/></g>
<g><path style="opacity:1" fill="#feebec" d="M 95.5,118.5 C 96.675,118.281 97.675,118.614 98.5,119.5C 96.9483,120.798 95.9483,120.465 95.5,118.5 Z"/></g>
<g><path style="opacity:1" fill="#feebec" d="M 104.5,118.5 C 105.675,118.281 106.675,118.614 107.5,119.5C 105.948,120.798 104.948,120.465 104.5,118.5 Z"/></g>
<g><path style="opacity:1" fill="#fee9ea" d="M 122.5,118.5 C 123.675,118.281 124.675,118.614 125.5,119.5C 123.948,120.798 122.948,120.465 122.5,118.5 Z"/></g>
<g><path style="opacity:1" fill="#ffe6e6" d="M 131.5,118.5 C 132.675,118.281 133.675,118.614 134.5,119.5C 132.948,120.798 131.948,120.465 131.5,118.5 Z"/></g>
<g><path style="opacity:1" fill="#feeeef" d="M 113.5,118.5 C 114.675,118.281 115.675,118.614 116.5,119.5C 114.948,120.798 113.948,120.465 113.5,118.5 Z"/></g>
</svg>
