<svg data-name="Слой 1" xmlns="http://www.w3.org/2000/svg" viewBox="0 0 48 48"><path fill="#f2f3f4" d="M0 0h48v48H0z"/><path d="M36.31 29.91h3.31l.24-1.33h-1.71l.76-4.21h-1.59l-1.01 5.54m-4.48 0h3.42l.24-1.33h-1.82l.16-.89h1.65l.22-1.22h-1.65l.14-.77h1.83l.24-1.33h-3.43l-1 5.54m-6.37 0h1.6l.4-2.22h1.94l-.4 2.22h1.6l1-5.54h-1.59l-.37 1.99H27.7l.37-1.99h-1.6l-1.01 5.54m-.67-1.83a2.34 2.34 0 01-1.46.6 1.15 1.15 0 01-1.19-1.5 1.83 1.83 0 011.75-1.59 1.46 1.46 0 011.23.67l.29-1.61a2.51 2.51 0 00-1.48-.44 3.49 3.49 0 00-3.43 2.93 2.28 2.28 0 002.39 2.93 3 3 0 001.62-.41l.29-1.58M8.08 29.91h1.53l1.01-3.22.38 3.22h1.03l1.54-3.22-.16 3.22h1.53l.18-5.54h-1.6l-1.62 3.38-.38-3.38h-1.6l-1.84 5.54m7.7 0h3.42l.24-1.33h-1.83l.16-.89h1.66l.22-1.22H18l.14-.77h1.82l.24-1.33h-3.42l-1 5.54"/><path d="M17.07 20.1c-.35 1.18-1.29 3-2.74 3.12-1.71.08-1.63-1.94-1.15-3.36 2.14-6.25 8.3-8.29 12.25-8.62-3.29 1.48-6.91 4-8.37 8.87" fill="#a8a8a8"/><path d="M21.88 20.1c-.35 1.18-1.29 3-2.74 3.12-1.71.08-1.63-1.94-1.15-3.36 2.14-6.25 8.3-8.29 12.25-8.62-3.29 1.48-6.91 4-8.37 8.87" fill="#4793c4"/><path d="M26.74 20.08c-.35 1.18-1.29 3-2.74 3.12-1.71.08-1.63-1.94-1.15-3.36 2.14-6.25 8.3-8.29 12.25-8.62-3.29 1.48-6.91 4-8.37 8.87" fill="#1f1f20"/><path d="M10.65 36.79h-.86l-.16-3.71-.71 3.71H8.1l.9-4.45h1.3l.14 3.11L12 32.34h1.32l-.93 4.44h-.83l.88-3.68zm5.53-.99h-1.76l-.53 1h-.94l2.51-4.44h1l.72 4.44h-.87zm-.11-.74l-.26-1.79-1.07 1.79zm2.64-2.72h.85L19 35.1l2.41-2.75h.85l-.94 4.44h-.86L21 34l-2.42 2.78h-.85zm1-1.14h.42a.68.68 0 00.19.34.45.45 0 00.3.1.69.69 0 00.6-.44h.4a1.29 1.29 0 01-.4.65 1 1 0 01-.62.23.81.81 0 01-.58-.22 1.09 1.09 0 01-.29-.66zm5.56 3.6h-1.71l-.42 2h-.91l.93-4.44h.91l-.36 1.71h1.72l.36-1.71h.91l-.93 4.44h-.91zm2.39-2.46h.85l-.58 2.75 2.41-2.75h.85l-.94 4.44h-.86L30 34l-2.42 2.78h-.85zm6.56 2.46H32.5l-.42 2h-.91l.93-4.44h.9l-.36 1.71h1.72l.36-1.71h.91l-.93 4.44h-.9zm2.38-2.46h3.26l-.15.74h-2.36l-.79 3.7h-.9z"/></svg>