<?xml version="1.0" encoding="UTF-8"?>
<!DOCTYPE svg PUBLIC "-//W3C//DTD SVG 1.1//EN" "http://www.w3.org/Graphics/SVG/1.1/DTD/svg11.dtd">
<svg xmlns="http://www.w3.org/2000/svg" version="1.1" width="160px" height="160px" style="shape-rendering:geometricPrecision; text-rendering:geometricPrecision; image-rendering:optimizeQuality; fill-rule:evenodd; clip-rule:evenodd" xmlns:xlink="http://www.w3.org/1999/xlink">
<g><path style="opacity:1" fill="#fcfbfb" d="M -0.5,-0.5 C 52.8333,-0.5 106.167,-0.5 159.5,-0.5C 159.5,52.8333 159.5,106.167 159.5,159.5C 106.167,159.5 52.8333,159.5 -0.5,159.5C -0.5,106.167 -0.5,52.8333 -0.5,-0.5 Z"/></g>
<g><path style="opacity:1" fill="#0e7ae0" d="M 13.5,41.5 C 16.8333,41.5 20.1667,41.5 23.5,41.5C 23.5,45.5 23.5,49.5 23.5,53.5C 25.4147,53.7845 27.0813,53.4511 28.5,52.5C 29.0419,47.2674 31.7086,43.434 36.5,41C 51.0832,37.4307 59.0832,42.9307 60.5,57.5C 59.408,71.7396 51.7413,77.2396 37.5,74C 32.1696,71.504 29.1696,67.3373 28.5,61.5C 26.8333,61.5 25.1667,61.5 23.5,61.5C 23.5,65.8333 23.5,70.1667 23.5,74.5C 20.1667,74.5 16.8333,74.5 13.5,74.5C 13.5,63.5 13.5,52.5 13.5,41.5 Z"/></g>
<g><path style="opacity:1" fill="#6eb5ed" d="M 13.5,41.5 C 16.9619,40.5184 20.6286,40.185 24.5,40.5C 24.5,44.5 24.5,48.5 24.5,52.5C 25.8333,52.5 27.1667,52.5 28.5,52.5C 27.0813,53.4511 25.4147,53.7845 23.5,53.5C 23.5,49.5 23.5,45.5 23.5,41.5C 20.1667,41.5 16.8333,41.5 13.5,41.5 Z"/></g>
<g><path style="opacity:1" fill="#0279e0" d="M 63.5,41.5 C 66.5,41.5 69.5,41.5 72.5,41.5C 72.185,45.3714 72.5184,49.0381 73.5,52.5C 76.6248,53.4794 79.9581,53.8128 83.5,53.5C 83.5,49.5 83.5,45.5 83.5,41.5C 86.8333,41.5 90.1667,41.5 93.5,41.5C 93.5,52.1667 93.5,62.8333 93.5,73.5C 90.1667,73.5 86.8333,73.5 83.5,73.5C 83.8168,69.2984 83.4834,65.2984 82.5,61.5C 79.5,61.5 76.5,61.5 73.5,61.5C 73.5,65.5 73.5,69.5 73.5,73.5C 70.1667,73.5 66.8333,73.5 63.5,73.5C 63.5,62.8333 63.5,52.1667 63.5,41.5 Z"/></g>
<g><path style="opacity:1" fill="#419ae7" d="M 63.5,41.5 C 63.5,41.1667 63.5,40.8333 63.5,40.5C 66.8333,40.5 70.1667,40.5 73.5,40.5C 73.5,44.5 73.5,48.5 73.5,52.5C 72.5184,49.0381 72.185,45.3714 72.5,41.5C 69.5,41.5 66.5,41.5 63.5,41.5 Z"/></g>
<g><path style="opacity:1" fill="#71b3ed" d="M 93.5,41.5 C 90.1667,41.5 86.8333,41.5 83.5,41.5C 83.5,45.5 83.5,49.5 83.5,53.5C 79.9581,53.8128 76.6248,53.4794 73.5,52.5C 76.5,52.5 79.5,52.5 82.5,52.5C 82.5,48.5 82.5,44.5 82.5,40.5C 86.3714,40.185 90.0381,40.5184 93.5,41.5 Z"/></g>
<g><path style="opacity:1" fill="#0d7ae0" d="M 107.5,62.5 C 107.833,63.5 108.5,64.1667 109.5,64.5C 111.607,65.4682 113.941,65.8016 116.5,65.5C 117.492,57.6841 117.826,49.6841 117.5,41.5C 120.5,41.5 123.5,41.5 126.5,41.5C 126.5,52.5 126.5,63.5 126.5,74.5C 119.492,74.6663 112.492,74.4996 105.5,74C 100.543,72.2555 97.8763,68.7555 97.5,63.5C 97.5,56.1667 97.5,48.8333 97.5,41.5C 100.5,41.5 103.5,41.5 106.5,41.5C 106.175,48.6866 106.509,55.6866 107.5,62.5 Z"/></g>
<g><path style="opacity:1" fill="#65b0ec" d="M 107.5,62.5 C 106.509,55.6866 106.175,48.6866 106.5,41.5C 103.5,41.5 100.5,41.5 97.5,41.5C 97.5,48.8333 97.5,56.1667 97.5,63.5C 96.508,56.0182 96.1746,48.3516 96.5,40.5C 100.167,40.5 103.833,40.5 107.5,40.5C 107.5,47.8333 107.5,55.1667 107.5,62.5 Z"/></g>
<g><path style="opacity:1" fill="#2e90e5" d="M 116.5,40.5 C 120.042,40.1872 123.375,40.5206 126.5,41.5C 123.5,41.5 120.5,41.5 117.5,41.5C 117.826,49.6841 117.492,57.6841 116.5,65.5C 116.5,57.1667 116.5,48.8333 116.5,40.5 Z"/></g>
<g><path style="opacity:1" fill="#f0f7fb" d="M 41.5,48.5 C 44.6516,47.9586 47.1516,48.9586 49,51.5C 49.6667,55.5 49.6667,59.5 49,63.5C 46.7897,66.2896 43.9563,67.123 40.5,66C 36.1743,59.7995 36.5077,53.9661 41.5,48.5 Z"/></g>
<g><path style="opacity:1" fill="#8bc7f1" d="M 63.5,40.5 C 63.5,40.8333 63.5,41.1667 63.5,41.5C 63.5,52.1667 63.5,62.8333 63.5,73.5C 66.8333,73.5 70.1667,73.5 73.5,73.5C 70.0381,74.4816 66.3714,74.815 62.5,74.5C 62.1719,62.9877 62.5052,51.6544 63.5,40.5 Z"/></g>
<g><path style="opacity:1" fill="#d0eaf8" d="M 116.5,40.5 C 116.5,48.8333 116.5,57.1667 116.5,65.5C 113.941,65.8016 111.607,65.4682 109.5,64.5C 111.5,64.5 113.5,64.5 115.5,64.5C 115.174,56.3159 115.508,48.3159 116.5,40.5 Z"/></g>
<g><path style="opacity:1" fill="#6db0ec" d="M 82.5,61.5 C 83.4834,65.2984 83.8168,69.2984 83.5,73.5C 86.8333,73.5 90.1667,73.5 93.5,73.5C 90.0381,74.4816 86.3714,74.815 82.5,74.5C 82.5,70.1667 82.5,65.8333 82.5,61.5 Z"/></g>
<g><path style="opacity:1" fill="#137ce0" d="M 127.5,76.5 C 147.887,76.5771 154.387,86.2437 147,105.5C 139.944,111.889 132.11,113.056 123.5,109C 116.618,102.387 114.785,94.5533 118,85.5C 120.406,81.5915 123.572,78.5915 127.5,76.5 Z"/></g>
<g><path style="opacity:1" fill="#0b7be0" d="M 49.5,77.5 C 56.5079,77.3337 63.5079,77.5004 70.5,78C 74.6803,79.0021 77.5136,81.5021 79,85.5C 79.4997,93.8267 79.6664,102.16 79.5,110.5C 76.1667,110.5 72.8333,110.5 69.5,110.5C 69.6663,103.159 69.4997,95.8258 69,88.5C 66.1737,86.6602 63.0071,85.9935 59.5,86.5C 59.5,94.5 59.5,102.5 59.5,110.5C 56.1667,110.5 52.8333,110.5 49.5,110.5C 49.5,99.5 49.5,88.5 49.5,77.5 Z"/></g>
<g><path style="opacity:1" fill="#097ae0" d="M 83.5,77.5 C 90.175,77.3337 96.8417,77.5004 103.5,78C 113.548,82.2695 117.048,89.7695 114,100.5C 111.607,106.732 107.107,110.065 100.5,110.5C 97.8333,110.5 95.1667,110.5 92.5,110.5C 92.5,114.167 92.5,117.833 92.5,121.5C 89.5,121.5 86.5,121.5 83.5,121.5C 83.5,106.833 83.5,92.1667 83.5,77.5 Z"/></g>
<g><path style="opacity:1" fill="#f2f8fb" d="M 93.5,86.5 C 104.314,85.8116 107.314,90.3116 102.5,100C 99.6492,101.289 96.6492,101.789 93.5,101.5C 93.5,96.5 93.5,91.5 93.5,86.5 Z"/></g>
<g><path style="opacity:1" fill="#f2f7fb" d="M 130.5,85.5 C 139.13,85.6279 141.964,89.9612 139,98.5C 135.674,104.642 132.007,104.975 128,99.5C 126.718,94.2948 127.551,89.6282 130.5,85.5 Z"/></g>
<g><path style="opacity:1" fill="#70b3ed" d="M 83.5,77.5 C 83.5,92.1667 83.5,106.833 83.5,121.5C 86.5,121.5 89.5,121.5 92.5,121.5C 92.5,117.833 92.5,114.167 92.5,110.5C 95.1667,110.5 97.8333,110.5 100.5,110.5C 98.3926,111.468 96.0593,111.802 93.5,111.5C 93.5,115.167 93.5,118.833 93.5,122.5C 89.8333,122.5 86.1667,122.5 82.5,122.5C 82.1706,107.324 82.5039,92.324 83.5,77.5 Z"/></g>
</svg>
