<svg xmlns="http://www.w3.org/2000/svg" viewBox="0 0 48 48"><path fill="#f0f1f2" d="M0 0h48v48H0z"/><path d="M17.07 19.1c-.35 1.18-1.29 3-2.74 3.12-1.71.08-1.63-1.94-1.15-3.36 2.14-6.25 8.3-8.29 12.25-8.62-3.29 1.48-6.91 4-8.37 8.87" fill="#a6a6a6"/><path d="M21.88 19.1c-.35 1.18-1.29 3-2.74 3.12-1.71.08-1.63-1.94-1.15-3.36 2.14-6.25 8.3-8.29 12.25-8.62-3.29 1.48-6.91 4-8.37 8.87" fill="#4791c2"/><path d="M26.74 19.08c-.35 1.18-1.29 3-2.74 3.12-1.71.08-1.63-1.94-1.15-3.36 2.14-6.25 8.3-8.29 12.25-8.62-3.29 1.48-6.91 4-8.37 8.87" fill="#1f1f20"/><path d="M8.66 35l.53-1.65h.43l-.85 2.45a1.49 1.49 0 01-.17.33.52.52 0 01-.18.15.57.57 0 01-.26.05h-.18V36h.16c.11 0 .19-.07.23-.2l.1-.29-.81-2.19h.41zm2.75.3a1.31 1.31 0 01-.19.78.62.62 0 01-.53.26.59.59 0 01-.51-.25v1.05h-.36v-3h.32v.24a.58.58 0 01.52-.28.62.62 0 01.54.25 1.32 1.32 0 01.18.75zm-.36-.21a1 1 0 00-.11-.54.4.4 0 00-.37-.18.42.42 0 00-.39.26v1.14a.42.42 0 00.4.25.4.4 0 00.36-.18 1 1 0 00.12-.54zm1.95 1.2a.77.77 0 010-.29.57.57 0 01-.49.28.63.63 0 01-.47-.17.64.64 0 01-.17-.47.67.67 0 01.23-.53.93.93 0 01.62-.2h.26v-.23a.31.31 0 00-.35-.36.37.37 0 00-.26.1.32.32 0 00-.1.25h-.36a.58.58 0 01.1-.32.68.68 0 01.27-.24.8.8 0 01.38-.09.71.71 0 01.51.17.65.65 0 01.18.49v1.11a1.32 1.32 0 00.07.44zm-.48-.29a.48.48 0 00.25-.07.46.46 0 00.17-.18v-.52h-.2a.68.68 0 00-.4.11.37.37 0 00-.15.31.4.4 0 00.08.27.32.32 0 00.25.08zm2.89-1.9v2.19H15v-1.88h-.58v.74a2.22 2.22 0 01-.17.88.47.47 0 01-.44.26h-.12V36h.09a.26.26 0 00.21-.2 3 3 0 00.08-.71v-.94zm.95.75h.45a.68.68 0 01.5.19.71.71 0 01.19.52.73.73 0 01-.19.53.66.66 0 01-.5.2H16V34.1h.36zm0 .31V36h.45a.3.3 0 00.25-.11.46.46 0 00.09-.3.49.49 0 00-.09-.3.29.29 0 00-.24-.12zm2.36.84a.38.38 0 00.29-.11.47.47 0 00.12-.32h.34a.75.75 0 01-.22.52.71.71 0 01-.52.21.76.76 0 01-.62-.26 1.17 1.17 0 01-.21-.76v-.24a1.16 1.16 0 01.21-.75.76.76 0 01.62-.26.69.69 0 01.53.21.87.87 0 01.21.58h-.34a.6.6 0 00-.12-.37.36.36 0 00-.29-.12.41.41 0 00-.35.16.9.9 0 00-.12.52v.28a1 1 0 00.12.55.41.41 0 00.35.16zm1.75-.65h-.2v.93h-.36V34.1h.36v.9h.18l.6-.93h.43l-.73 1 .79 1.15h-.45zm2.53.94a.77.77 0 010-.29.57.57 0 01-.49.28.63.63 0 01-.47-.17.64.64 0 01-.17-.47.67.67 0 01.23-.53.93.93 0 01.62-.2h.26v-.23a.31.31 0 00-.35-.36.37.37 0 00-.26.1.32.32 0 00-.1.25h-.36a.58.58 0 01.1-.32.68.68 0 01.27-.24.8.8 0 01.38-.09.71.71 0 01.51.17.65.65 0 01.18.49v1.11a1.32 1.32 0 00.07.44zm-.48-.29a.48.48 0 00.25-.07.46.46 0 00.17-.18v-.52h-.2a.68.68 0 00-.4.11.37.37 0 00-.15.31.4.4 0 00.08.27.32.32 0 00.25.08zm2.77-1.9v2.19h-.36v-.85h-.42l-.44.85h-.39l.47-.92a.56.56 0 01-.27-.24.72.72 0 01-.09-.37.64.64 0 01.2-.49.73.73 0 01.52-.18zm-1.14.67a.38.38 0 00.09.26.3.3 0 00.24.1h.46v-.73h-.43a.34.34 0 00-.26.1.37.37 0 00-.1.27zm3.26.58h-.2v.93h-.36V34.1h.36v.9h.18l.6-.93h.43l-.73 1 .79 1.15H28zm2 .34l.4-1.6h.38l-.72 2.5a1 1 0 01-.23.43.47.47 0 01-.34.15h-.19v-.3h.08a.37.37 0 00.24-.07.52.52 0 00.14-.26l.07-.25-.64-2.17h.4zm2.47-1a.51.51 0 01-.07.27.54.54 0 01-.21.2.5.5 0 01.32.51.6.6 0 01-.2.48.87.87 0 01-1.06 0 .64.64 0 01-.21-.5h.35a.39.39 0 00.11.28.4.4 0 00.54 0 .35.35 0 00.1-.26.29.29 0 00-.34-.34h-.33V35h.35q.28 0 .28-.32a.34.34 0 00-.09-.24.33.33 0 00-.24-.09.35.35 0 00-.25.1.33.33 0 00-.1.25h-.35a.6.6 0 01.2-.47.73.73 0 01.51-.18.72.72 0 01.51.17.6.6 0 01.18.47zm2.05 1.6h-.36v-.94h-.79v.94h-.36V34.1h.36v1h.79v-1h.36zm1.76-2.19H36v2.19h-.36v-1.6l-.79 1.6h-.36V34.1h.36v1.6zm.96 0H37V36h.79v-1.9h.36V36h.23v1H38v-.65h-1.35zm3.27 2.19a.77.77 0 010-.24.57.57 0 01-.49.28.63.63 0 01-.46-.17.64.64 0 01-.17-.47.67.67 0 01.23-.53.93.93 0 01.62-.2h.26v-.23a.37.37 0 00-.62-.27.33.33 0 00-.1.25h-.36a.58.58 0 01.1-.32.68.68 0 01.27-.24.8.8 0 01.38-.09.71.71 0 01.51.17.65.65 0 01.18.49v1.11a1.35 1.35 0 00.07.44zm-.48-.29a.48.48 0 00.25-.07.46.46 0 00.17-.18v-.52h-.2a.68.68 0 00-.4.11.37.37 0 00-.15.31.4.4 0 00.08.27.32.32 0 00.25.08z"/><path d="M9.32 30.23h1.47l.99-3.17.34 3.17h.99l1.5-3.17-.18 3.17h1.47l.22-5.47h-1.54l-1.57 3.34-.35-3.34h-1.53l-1.81 5.47zm7.83 0h3.28l.25-1.31h-1.75l.16-.88h1.58l.22-1.2h-1.58l.14-.77h1.75l.24-1.31h-3.28l-1.01 5.47zm7.45 0h1.53l1-5.47h-1.52l-.39 2.13c-.3 0-.46.05-.59.05-.85 0-.77-.4-.69-.82l.25-1.37h-1.54l-.29 1.59c-.17.91-.26 1.83 1.59 1.83a5.82 5.82 0 001-.08zm3.22 0h3.28l.25-1.31H29.6l.16-.88h1.58l.23-1.2h-1.59l.14-.77h1.75l.25-1.31h-3.29l-1.01 5.47zm6.7-5.47l-.56 3c-.14.77-.31 1.2-1 1.2a1.2 1.2 0 01-.33-.05l-.24 1.31a2.13 2.13 0 00.63.07 2.16 2.16 0 002.37-2.07l.4-2.16h1.11l-.77 4.16h1.53l1-5.47z" fill="#2b2a29" fill-rule="evenodd"/></svg>