<svg id="Слой_1" data-name="Слой 1" xmlns="http://www.w3.org/2000/svg" viewBox="0 0 48 48"><defs><style>.cls-2{fill:#fff;fill-rule:evenodd}</style></defs><g id="USBN"><path fill="#003374" d="M0 0h48v48H0z"/><path class="cls-2" d="M24.46 18.1a2 2 0 01.86.12l-.06-8h1a76.2 76.2 0 00.31 8.19 11.69 11.69 0 013.82 21.34c-.06-.06-.18-.24-.31-.37-3.51-4.46-4.37-11.13-4.61-16.94a12.3 12.3 0 001.48.24 24.83 24.83 0 006.34 13.21 7.86 7.86 0 00-.49-10.52A11.69 11.69 0 0027.11 22a13 13 0 00-3.11-.35 13.74 13.74 0 00-3.14.37c-4.55 1.16-7.94 4.71-7.94 8.93a8.48 8.48 0 001.72 5A24.39 24.39 0 0021 22.69c.49-.06 1-.12 1.54-.24-.25 5.81-1.11 12.41-4.61 16.88v-.06a3.37 3.37 0 01-.37.49 11.75 11.75 0 013.89-21.36c.31-6 .25-8.19.25-8.19h1l-.06 8a1.83 1.83 0 01.8-.12V6.3h1v11.8z"/><path class="cls-2" d="M24.52 22.38h-1.1c-.06 5.5-.55 12.41-2.28 17.06-.25.55-.49 1.1-.8 1.71a13.66 13.66 0 003.66.55 14.48 14.48 0 003.63-.55c-.25-.49-.55-1-.74-1.53-1.89-4.7-2.24-11.68-2.37-17.24z"/></g></svg>