<svg data-name="Слой 1" xmlns="http://www.w3.org/2000/svg" viewBox="0 0 48 48"><path fill="#0773b5" d="M0 0h48v48H0z"/><path d="M24.19 14.4a8.92 8.92 0 11-8.9 8.92 8.91 8.91 0 018.9-8.92M6.44 29.32a4.81 4.81 0 003.06 1.42c2.07.1 3.86-.31 5.85.06a5.72 5.72 0 011.45.57c-2.12.63-1.32 1.82-3.93 2.3a6.22 6.22 0 004.88 0 10.13 10.13 0 012.48-.37A5.64 5.64 0 0018 35.05 5.66 5.66 0 0113.56 38c.77 1.21 3.18.68 4.24.38a7.59 7.59 0 003.33-1.88l.92-1a5.48 5.48 0 01.81-.7 4.33 4.33 0 011.14-.47 3.93 3.93 0 011 0h-.06c-.06 0-.24.36-.38.57a5.15 5.15 0 00-.7 2.43c0 .43-.16 1.16-.16 1.16 1.1-1 1.82-3 3.21-3.67a1.09 1.09 0 01.49-.1c-.07 1.37-.95 2.54-.95 3.91a3.1 3.1 0 002.65 3.21 9.72 9.72 0 01.13-2.84c.33-1.31 1-2.62 1.44-4a5.64 5.64 0 00.09-2.18c.37-.05 1.33 1.73 1.28 2 0-.48.3-1.34.35-1.91a5.64 5.64 0 00-.26-1.91 3.58 3.58 0 011.7 1.23 12.26 12.26 0 01.71 1c.41.66.75 1.62 1.42 2a2.22 2.22 0 001.27.07 2.81 2.81 0 01-.81-.92 8.53 8.53 0 01-.42-3 8.27 8.27 0 00-1.07-4.22 2.09 2.09 0 011 .38c.16.12.57.45.8.32-.41-.38-.28-1.11-.49-1.62l-.31-.7a4.11 4.11 0 01.89.42 6.24 6.24 0 002.17.41 8.17 8.17 0 013.29.56l.6.46a2.6 2.6 0 00-.1-.89 3.72 3.72 0 00-1.43-1.64 15.45 15.45 0 00-2.26-1.27 10.74 10.74 0 01-1.38-1 12.73 12.73 0 00-2.09-1.87 2.46 2.46 0 01.38-.22c.66-.28 1.41-.29 2-.59-.82-1.23-2.26-1.06-3.19-1.94a7.38 7.38 0 001.84 0c1-.1 1.19-.46 1.67-1.19a2.05 2.05 0 01.5-.53c.77-.51 2.75-.26 3.61-.26a9.26 9.26 0 00-2.84-1.26c-3.41-.42-4.71.77-7-.36-.25-.1 1.09-.91 1.91-.94a5 5 0 00-1.44-.43 3.14 3.14 0 00-2 .82 1.51 1.51 0 01.68-1.53c.39-.25 1.16-.43 1.46-.64a2.69 2.69 0 00.7-1.11 5.1 5.1 0 00.1-1.19 2.45 2.45 0 01-1.51 1.11s-2.91.55-3.6.8a4.94 4.94 0 00-1.46 1 .79.79 0 01-.11-.45c0-.32 1.53-3.13 1.33-3s-1.14.41-1.7.6a23 23 0 00-2.66.91c-1.14.51-1.8 1.63-1.9 1.48a1.93 1.93 0 01-.41-1 4.88 4.88 0 01.61-1.76 2.86 2.86 0 00-.15-3 30.78 30.78 0 00-3.29 3.73 25.84 25.84 0 00-1.25 2.85l-.9 2.67a2.85 2.85 0 01-.42-.46 3.24 3.24 0 01-.07-1.16c.21-1.39.24-3.08-1-4a1.42 1.42 0 00-.87-.25 1.85 1.85 0 01.31 1.06 6.57 6.57 0 01-.2 1.21l-.65 2.62a13.43 13.43 0 00-.41 3.34 2.38 2.38 0 01-1.94-1.89 16.57 16.57 0 01-.1-2c-1.1 1.63-1.71 2.68-1.38 4.66a13 13 0 001.69 4 8.07 8.07 0 01.61 1.72 2 2 0 00-1.45-.78c-.95 0-2.29.83-3.11.34l-.31-.14.19.39c.88 1.42 2 1.17 3.35 1.82A3.79 3.79 0 0112.89 27a3.18 3.18 0 00-1.72.08c-.61.22-1.12.69-1.78.91a5.28 5.28 0 01-3.57-.26c-.23-.11-.72-.41-.72-.41a3.38 3.38 0 00.2.46 14.17 14.17 0 001.14 1.55" fill="#fecb2f"/><path d="M20.92 17.77a.41.41 0 01.64-.1.5.5 0 01.13.33l3.11 1.7c.25.12.48.28.73.38V18.9h.61v1.53c.69.4 1.4.76 2.09 1.16-.69.29-1.39.55-2.09.83v1.68l2.11.86-2.11 1.14v1.27h-.61v-.93c-.47.24-.93.5-1.39.75l-2.44 1.33c0 .09 0 .21-.12.29a.42.42 0 01-.63 0 .35.35 0 01.11-.51.5.5 0 01.48 0l4-2.19v-2c-.72-.32-1.46-.59-2.18-.91l2.18-.87v-1.82c0-.06 0-.14-.05-.17l-3.74-2c-.07 0-.14-.11-.22-.09a.61.61 0 01-.44 0 .34.34 0 01-.15-.47zm.24.09c0 .08 0 .19.13.16s.1-.15 0-.22l-.17.06zm5 2.87v1.4c.5-.19 1-.38 1.48-.59l-1.48-.81zM24 23.24c.5.21 1 .42 1.51.61v-1.21c-.5.2-1 .38-1.51.6zm2.09 1.13v1.42l1.5-.81c-.5-.21-1-.42-1.5-.61zm-4.92 4.12a.11.11 0 000 .18c.06.07.21 0 .18-.09s-.07-.11-.13-.09z" fill="#fff" fill-rule="evenodd"/></svg>