<svg id="Слой_1" data-name="Слой 1" xmlns="http://www.w3.org/2000/svg" viewBox="0 0 48 48"><defs><style>.cls-1{fill:#062b72}.cls-3{stroke-miterlimit:10;fill:#fff;stroke:#062b72;stroke-width:.27px}.cls-4{fill:#066eca}</style></defs><g id="VSYD"><path class="cls-1" d="M0 0h48v48H0z"/><circle cx="18.2" cy="22.78" r="10.97" stroke-miterlimit="10" fill="none" stroke="#fff" stroke-width=".44"/><circle class="cls-3" cx="18.2" cy="22.73" r="10.38"/><path class="cls-3" d="M31.85 25.62v-2.88h-2.64l-2.82-11.12-.18-.73L23 8.82l-3.18 2.05-.18.74-3.1 12.81h-3v1.18h-1.63v3.9h1.56v6a8.53 8.53 0 003.08 1v-5.42l3.48-1v6.51a9 9 0 001.61-.34 8.68 8.68 0 001.38-.57v-5.11l3.53.86v2a7.89 7.89 0 012.91-.83v-1.15l3.61-1v2.15a8.33 8.33 0 012.91.86v-3.9h1.63v-3.9h-5.76zM20.62 12.48l3.78 1-4.24.9.46-1.89zm5.18 1.68l.58 2.28-5.52-1.23 4.94-1zm-6 1.79l6.08 1.36h-6.44l.33-1.31zm7.56 4.28l.55 2.18-9.19-2v-.15h8.61zm-2.51 2.5v.62l-7.34 2.07 1-4.13zm-4.52 2.88l4.51-1.27v1.27h-4.53zm4.84-14l.29 1.13-4.32-1.13h4zm-8.59 17.94h2.79l-2.79.79v-.79zm6.75 0h3.3v.8l-3.29-.8h-.01zm6.25 0h2.51l-2.51.71v-.71z"/><path class="cls-3" d="M9.84 17.59a14.41 14.41 0 002.9 1.41 14.48 14.48 0 004.5.87M18.51 15a7.79 7.79 0 01-4.72-1"/><path class="cls-1" d="M11.27 24.23a12.27 12.27 0 011.92-5.53 11.87 11.87 0 015.27-4.61 1.24 1.24 0 010-.14 1.13 1.13 0 01-.17-.43l-.06-.07A10.9 10.9 0 0012 20.06a12.75 12.75 0 00-.82 4.14z"/><path class="cls-4" d="M7 33.07a15.28 15.28 0 004.53 3.48 13.71 13.71 0 004.6 1.52 14.67 14.67 0 006-.58c1-.34 2.71-1.05 2.79-1.09.92-.39 1.51-.67 1.78-.8a14 14 0 015.47-1.05C37 34.61 41 38.72 41 38.72l-.63-.37-.64-.4a28.3 28.3 0 00-3-1.56 12.43 12.43 0 00-6.82-.66 19.35 19.35 0 00-4.11 1.39c-.47.22-.87.43-1.6.73a22.7 22.7 0 01-2.86 1 14.42 14.42 0 01-6.2.05C10.06 37.73 7 33.09 7 33.07z"/><path class="cls-4" d="M23.17 39a28.57 28.57 0 014.46-1.87 15.53 15.53 0 013.7-.8 12.45 12.45 0 013.3.24 13.12 13.12 0 015 2.25l.21.16s-.7-.23-1-.36a23.49 23.49 0 00-2.7-.82 16.69 16.69 0 00-4.21-.44 21.44 21.44 0 00-4.26.51 35.66 35.66 0 00-4.5 1.13z"/></g></svg>