<?xml version="1.0" encoding="UTF-8"?>
<!DOCTYPE svg PUBLIC "-//W3C//DTD SVG 1.1//EN" "http://www.w3.org/Graphics/SVG/1.1/DTD/svg11.dtd">
<svg xmlns="http://www.w3.org/2000/svg" version="1.1" width="160px" height="160px" style="shape-rendering:geometricPrecision; text-rendering:geometricPrecision; image-rendering:optimizeQuality; fill-rule:evenodd; clip-rule:evenodd" xmlns:xlink="http://www.w3.org/1999/xlink">
<g><path style="opacity:1" fill="#012882" d="M -0.5,-0.5 C 52.8333,-0.5 106.167,-0.5 159.5,-0.5C 159.5,52.8333 159.5,106.167 159.5,159.5C 106.167,159.5 52.8333,159.5 -0.5,159.5C -0.5,106.167 -0.5,52.8333 -0.5,-0.5 Z"/></g>
<g><path style="opacity:1" fill="#fdfdfe" d="M 69.5,22.5 C 105.608,20.4603 128.442,36.7937 138,71.5C 140.423,108.068 123.923,130.902 88.5,140C 50.7417,142.045 28.2417,124.545 21,87.5C 20.1883,53.1101 36.355,31.4435 69.5,22.5 Z"/></g>
<g><path style="opacity:1" fill="#03aaff" d="M 113.5,67.5 C 93.8045,68.1543 74.4711,67.4876 55.5,65.5C 56.0708,62.5231 57.0708,59.6897 58.5,57C 78.1667,56.3333 97.8333,56.3333 117.5,57C 116.065,60.4728 114.732,63.9728 113.5,67.5 Z"/></g>
<g><path style="opacity:1" fill="#42bfff" d="M 55.5,65.5 C 74.4711,67.4876 93.8045,68.1543 113.5,67.5C 94.0071,68.4971 74.3404,68.8304 54.5,68.5C 54.2627,67.209 54.596,66.209 55.5,65.5 Z"/></g>
<g><path style="opacity:1" fill="#83d5ff" d="M 51.5,74.5 C 71.3373,73.1721 91.3373,73.1721 111.5,74.5C 111.376,75.1067 111.043,75.44 110.5,75.5C 91.0071,74.5029 71.3404,74.1696 51.5,74.5 Z"/></g>
<g><path style="opacity:1" fill="#03aaff" d="M 51.5,74.5 C 71.3404,74.1696 91.0071,74.5029 110.5,75.5C 109.342,78.9889 108.009,82.3223 106.5,85.5C 86.9928,85.8303 67.6595,85.497 48.5,84.5C 49.5,81.1667 50.5,77.8333 51.5,74.5 Z"/></g>
<g><path style="opacity:1" fill="#bfe9ff" d="M 48.5,84.5 C 67.6595,85.497 86.9928,85.8303 106.5,85.5C 86.9959,86.8279 67.3293,86.8279 47.5,85.5C 47.6236,84.8933 47.9569,84.56 48.5,84.5 Z"/></g>
<g><path style="opacity:1" fill="#12acff" d="M 45.5,91.5 C 65.178,91.167 84.8446,91.5004 104.5,92.5C 103.362,95.913 102.029,99.2464 100.5,102.5C 80.8333,103.833 61.1667,103.833 41.5,102.5C 42.8405,98.8098 44.1738,95.1431 45.5,91.5 Z"/></g>
</svg>
