<?xml version="1.0" encoding="UTF-8"?>
<!DOCTYPE svg PUBLIC "-//W3C//DTD SVG 1.1//EN" "http://www.w3.org/Graphics/SVG/1.1/DTD/svg11.dtd">
<svg xmlns="http://www.w3.org/2000/svg" version="1.1" width="160px" height="160px" style="shape-rendering:geometricPrecision; text-rendering:geometricPrecision; image-rendering:optimizeQuality; fill-rule:evenodd; clip-rule:evenodd" xmlns:xlink="http://www.w3.org/1999/xlink">
<g><path style="opacity:1" fill="#363636" d="M -0.5,-0.5 C 52.8333,-0.5 106.167,-0.5 159.5,-0.5C 159.5,52.8333 159.5,106.167 159.5,159.5C 106.167,159.5 52.8333,159.5 -0.5,159.5C -0.5,106.167 -0.5,52.8333 -0.5,-0.5 Z"/></g>
<g><path style="opacity:1" fill="#fcfafa" d="M 48.5,45.5 C 49.8789,50.3945 50.8789,55.3945 51.5,60.5C 52.3529,65.4704 53.0195,70.4704 53.5,75.5C 54.0851,80.5145 54.7518,85.5145 55.5,90.5C 55.9978,93.4869 56.4978,96.4869 57,99.5C 59.3465,96.8057 61.1798,93.8057 62.5,90.5C 65.8899,85.7671 68.8899,80.7671 71.5,75.5C 76.8333,75.5 82.1667,75.5 87.5,75.5C 90.2371,80.638 93.2371,85.638 96.5,90.5C 98.3222,93.4721 100.156,96.4721 102,99.5C 102.696,96.5219 103.196,93.5219 103.5,90.5C 104.248,85.5145 104.915,80.5145 105.5,75.5C 106.167,70.5 106.833,65.5 107.5,60.5C 107.933,55.3497 108.933,50.3497 110.5,45.5C 114.833,45.5 119.167,45.5 123.5,45.5C 123.864,49.3776 123.864,53.3776 123.5,57.5C 122.549,58.9187 122.216,60.5853 122.5,62.5C 121.705,66.7853 121.372,71.1186 121.5,75.5C 120.205,79.2671 119.539,83.2671 119.5,87.5C 118.549,88.9187 118.216,90.5853 118.5,92.5C 117.627,96.7685 117.294,101.102 117.5,105.5C 116.662,105.842 116.328,106.508 116.5,107.5C 115.898,111.87 115.231,116.203 114.5,120.5C 109.5,120.5 104.5,120.5 99.5,120.5C 96.7516,115.334 93.7516,110.334 90.5,105.5C 87.4016,100.291 84.0683,95.2911 80.5,90.5C 79.8333,87.8333 79.1667,87.8333 78.5,90.5C 74.7487,94.9946 71.7487,99.9946 69.5,105.5C 65.9317,110.291 62.5984,115.291 59.5,120.5C 54.2384,120.805 49.0717,120.471 44,119.5C 41.3935,95.9213 38.2268,72.4213 34.5,49C 34.5852,47.8926 34.9186,46.8926 35.5,46C 39.8206,45.501 44.1539,45.3343 48.5,45.5 Z"/></g>
<g><path style="opacity:1" fill="#ea1101" d="M 48.5,45.5 C 69.1667,45.5 89.8333,45.5 110.5,45.5C 108.933,50.3497 107.933,55.3497 107.5,60.5C 88.8333,60.5 70.1667,60.5 51.5,60.5C 50.8789,55.3945 49.8789,50.3945 48.5,45.5 Z"/></g>
<g><path style="opacity:1" fill="#4c3837" d="M 130.5,45.5 C 133.167,45.5 135.833,45.5 138.5,45.5C 138.827,50.544 138.494,55.544 137.5,60.5C 132.47,61.1673 127.47,61.834 122.5,62.5C 122.216,60.5853 122.549,58.9187 123.5,57.5C 123.5,58.5 123.5,59.5 123.5,60.5C 126.167,60.5 128.833,60.5 131.5,60.5C 131.779,55.4053 131.445,50.4053 130.5,45.5 Z"/></g>
<g><path style="opacity:1" fill="#7e372f" d="M 123.5,45.5 C 125.833,45.5 128.167,45.5 130.5,45.5C 131.445,50.4053 131.779,55.4053 131.5,60.5C 128.833,60.5 126.167,60.5 123.5,60.5C 123.5,59.5 123.5,58.5 123.5,57.5C 123.864,53.3776 123.864,49.3776 123.5,45.5 Z"/></g>
<g><path style="opacity:1" fill="#383635" d="M 51.5,60.5 C 70.1667,60.5 88.8333,60.5 107.5,60.5C 106.833,65.5 106.167,70.5 105.5,75.5C 99.5,75.5 93.5,75.5 87.5,75.5C 82.1667,75.5 76.8333,75.5 71.5,75.5C 65.5,75.5 59.5,75.5 53.5,75.5C 53.0195,70.4704 52.3529,65.4704 51.5,60.5 Z"/></g>
<g><path style="opacity:1" fill="#e81301" d="M 121.5,75.5 C 130.167,75.5 138.833,75.5 147.5,75.5C 147.5,80.5 147.5,85.5 147.5,90.5C 138.167,90.5 128.833,90.5 119.5,90.5C 119.5,89.5 119.5,88.5 119.5,87.5C 119.539,83.2671 120.205,79.2671 121.5,75.5 Z"/></g>
<g><path style="opacity:1" fill="#ea1807" d="M 53.5,75.5 C 59.5,75.5 65.5,75.5 71.5,75.5C 68.8899,80.7671 65.8899,85.7671 62.5,90.5C 60.1667,90.5 57.8333,90.5 55.5,90.5C 54.7518,85.5145 54.0851,80.5145 53.5,75.5 Z"/></g>
<g><path style="opacity:1" fill="#ea1505" d="M 87.5,75.5 C 93.5,75.5 99.5,75.5 105.5,75.5C 104.915,80.5145 104.248,85.5145 103.5,90.5C 101.167,90.5 98.8333,90.5 96.5,90.5C 93.2371,85.638 90.2371,80.638 87.5,75.5 Z"/></g>
<g><path style="opacity:1" fill="#e62b1e" d="M 80.5,90.5 C 79.8333,90.5 79.1667,90.5 78.5,90.5C 79.1667,87.8333 79.8333,87.8333 80.5,90.5 Z"/></g>
<g><path style="opacity:1" fill="#5b3834" d="M 119.5,87.5 C 119.5,88.5 119.5,89.5 119.5,90.5C 128.833,90.5 138.167,90.5 147.5,90.5C 137.932,91.1902 128.265,91.8568 118.5,92.5C 118.216,90.5853 118.549,88.9187 119.5,87.5 Z"/></g>
<g><path style="opacity:1" fill="#3f3a3a" d="M 55.5,90.5 C 57.8333,90.5 60.1667,90.5 62.5,90.5C 61.1798,93.8057 59.3465,96.8057 57,99.5C 56.4978,96.4869 55.9978,93.4869 55.5,90.5 Z"/></g>
<g><path style="opacity:1" fill="#3a3838" d="M 78.5,90.5 C 79.1667,90.5 79.8333,90.5 80.5,90.5C 84.0683,95.2911 87.4016,100.291 90.5,105.5C 83.5,105.5 76.5,105.5 69.5,105.5C 71.7487,99.9946 74.7487,94.9946 78.5,90.5 Z"/></g>
<g><path style="opacity:1" fill="#3d3a3a" d="M 96.5,90.5 C 98.8333,90.5 101.167,90.5 103.5,90.5C 103.196,93.5219 102.696,96.5219 102,99.5C 100.156,96.4721 98.3222,93.4721 96.5,90.5 Z"/></g>
<g><path style="opacity:1" fill="#c02715" d="M 117.5,105.5 C 121.167,105.5 124.833,105.5 128.5,105.5C 130.36,110.193 131.026,115.193 130.5,120.5C 128.5,120.5 126.5,120.5 124.5,120.5C 124.253,115.892 124.586,111.225 125.5,106.5C 122.391,106.264 119.391,106.597 116.5,107.5C 116.328,106.508 116.662,105.842 117.5,105.5 Z"/></g>
<g><path style="opacity:1" fill="#ea1303" d="M 69.5,105.5 C 76.5,105.5 83.5,105.5 90.5,105.5C 93.7516,110.334 96.7516,115.334 99.5,120.5C 86.1667,120.5 72.8333,120.5 59.5,120.5C 62.5984,115.291 65.9317,110.291 69.5,105.5 Z"/></g>
<g><path style="opacity:1" fill="#db210a" d="M 124.5,120.5 C 121.167,120.5 117.833,120.5 114.5,120.5C 115.231,116.203 115.898,111.87 116.5,107.5C 119.391,106.597 122.391,106.264 125.5,106.5C 124.586,111.225 124.253,115.892 124.5,120.5 Z"/></g>
<g><path style="opacity:1" fill="#a52f22" d="M 128.5,105.5 C 129.833,105.5 131.167,105.5 132.5,105.5C 133.209,106.404 134.209,106.737 135.5,106.5C 135.774,111.263 135.441,115.93 134.5,120.5C 133.167,120.5 131.833,120.5 130.5,120.5C 131.026,115.193 130.36,110.193 128.5,105.5 Z"/></g>
<g><path style="opacity:1" fill="#8b352a" d="M 132.5,105.5 C 134.5,105.5 136.5,105.5 138.5,105.5C 139.445,110.405 139.779,115.405 139.5,120.5C 137.833,120.5 136.167,120.5 134.5,120.5C 135.441,115.93 135.774,111.263 135.5,106.5C 134.209,106.737 133.209,106.404 132.5,105.5 Z"/></g>
<g><path style="opacity:1" fill="#6c3631" d="M 138.5,105.5 C 141.5,105.5 144.5,105.5 147.5,105.5C 147.5,110.5 147.5,115.5 147.5,120.5C 144.833,120.5 142.167,120.5 139.5,120.5C 139.779,115.405 139.445,110.405 138.5,105.5 Z"/></g>
</svg>
