<?xml version="1.0" encoding="UTF-8"?>
<!DOCTYPE svg PUBLIC "-//W3C//DTD SVG 1.1//EN" "http://www.w3.org/Graphics/SVG/1.1/DTD/svg11.dtd">
<svg xmlns="http://www.w3.org/2000/svg" version="1.1" width="160px" height="160px" style="shape-rendering:geometricPrecision; text-rendering:geometricPrecision; image-rendering:optimizeQuality; fill-rule:evenodd; clip-rule:evenodd" xmlns:xlink="http://www.w3.org/1999/xlink">
<g><path style="opacity:1" fill="#ff3d14" d="M -0.5,-0.5 C 52.8333,-0.5 106.167,-0.5 159.5,-0.5C 159.5,52.8333 159.5,106.167 159.5,159.5C 106.167,159.5 52.8333,159.5 -0.5,159.5C -0.5,106.167 -0.5,52.8333 -0.5,-0.5 Z"/></g>
<g><path style="opacity:1" fill="#fffaf9" d="M 65.5,127.5 C 59.642,127.822 53.9753,127.489 48.5,126.5C 55.1763,116.16 61.8429,105.827 68.5,95.5C 65.5071,91.6747 62.0071,88.3413 58,85.5C 48.4971,72.9664 47.1637,59.633 54,45.5C 59.0259,38.3943 65.8592,33.8943 74.5,32C 86.8288,31.5001 99.1622,31.3335 111.5,31.5C 111.5,63.5 111.5,95.5 111.5,127.5C 105.833,127.5 100.167,127.5 94.5,127.5C 94.5,99.8333 94.5,72.1667 94.5,44.5C 71.3614,41.7881 62.8614,51.4547 69,73.5C 71.128,76.6301 73.628,79.4634 76.5,82C 81.2262,84.6898 85.5596,87.8565 89.5,91.5C 81.8331,103.813 73.8331,115.813 65.5,127.5 Z"/></g>
<g><path style="opacity:1" fill="#ff7355" d="M 48.5,126.5 C 53.9753,127.489 59.642,127.822 65.5,127.5C 59.6544,128.817 53.6544,128.817 47.5,127.5C 47.6236,126.893 47.9569,126.56 48.5,126.5 Z"/></g>
</svg>
